ply
format ascii 1.0
element vertex 1123
property float x
property float y
property float z
property uchar red
property uchar green
property uchar blue
end_header
-0 -0 -0 0 255 0
0.00420415 -0.000710034 -0.00109113 0 255 0
-0.00568449 -0.00166247 0.00155463 0 255 0
-0.0054326 -0.00354102 6.90574e-05 0 255 0
-0.00151189 -0.000269468 -0.00115985 0 255 0
0.00599589 -0.000924175 -0.00247918 0 255 0
0.00757107 -0.00115393 -0.00291304 0 255 0
0.00562845 -0.00143326 -0.00376719 0 255 0
0.000548007 -0.00183179 8.22283e-05 0 255 0
0.0116744 -0.0106867 0.0310017 159 140 116
0.00925272 -0.0105393 0.0320667 144 142 90
0.00923399 -0.00980634 0.0311262 145 140 90
0.0128485 -0.00804105 0.0268893 154 120 101
0.013148 -0.00796752 0.0266715 124 100 92
0.00900371 -0.00905519 0.030748 145 142 92
0.0134089 -0.00780265 0.0265034 78 59 53
0.00909339 -0.0089365 0.0306239 145 142 90
0.00993535 -0.00862392 0.029654 156 132 116
0.0113881 -0.00782913 0.0271518 166 138 126
-0.00170191 -0.00922116 0.0328312 68 38 20
-0.00211346 -0.00916341 0.0326812 47 20 10
-0.00152599 -0.00921037 0.0328999 52 28 12
0.0124864 -0.00749366 0.026842 170 144 136
-0.00233428 -0.00915495 0.0328002 48 23 12
-0.00128542 -0.00914367 0.0328808 46 30 14
-0.00245833 -0.00907362 0.0326409 50 25 15
-0.000947348 -0.00906871 0.0332831 48 32 12
0.0100618 -0.00767765 0.0281946 157 132 120
0.00913835 -0.00841381 0.0310442 146 145 93
0.0106072 -0.00738986 0.0276792 160 127 115
0.0127457 -0.00716289 0.0269937 140 112 101
-0.0017873 -0.00852148 0.0322074 64 32 18
0.00930662 -0.00790763 0.0298778 148 144 95
0.0095806 -0.00768293 0.0292241 144 116 102
0.0104659 -0.00734274 0.02798 164 129 117
-0.00213299 -0.00835743 0.0322983 108 64 49
-0.00870966 -0.00783605 0.0305385 49 34 12
-0.00887551 -0.00779302 0.0303618 40 24 14
-0.00865762 -0.00787282 0.0307783 78 66 42
-0.00846708 -0.00783071 0.0306824 104 91 57
-0.0014636 -0.00816227 0.0321567 52 26 15
-0.00240548 -0.0082134 0.0322894 111 60 47
0.00994128 -0.00735504 0.0289526 154 129 110
0.0123697 -0.00696462 0.0274652 170 143 134
-0.00839007 -0.00780556 0.0307438 106 94 55
0.00963632 -0.00746922 0.0295252 130 110 69
0.0125725 -0.00692281 0.0273379 163 137 129
-0.00933628 -0.00756612 0.0299439 46 24 12
-0.00154385 -0.00812521 0.0322021 58 32 22
0.0108392 -0.00699108 0.0280299 146 117 106
-0.00985248 -0.00748542 0.0302735 76 44 28
-0.00340793 -0.00822273 0.033261 120 62 42
0.0102625 -0.00708856 0.0287325 122 86 60
0.0105424 -0.00699145 0.0283011 130 94 71
0.0107029 -0.00700895 0.028305 158 128 114
0.0133996 -0.00673453 0.0272979 111 90 82
0.0103286 -0.00704174 0.0285521 128 92 70
0.0104936 -0.00699096 0.0283727 134 94 72
-0.00806062 -0.00767281 0.0311125 150 145 94
0.0131765 -0.00671042 0.0274182 136 112 102
0.0127027 -0.0066201 0.0271525 118 94 86
-0.00122056 -0.00781706 0.0323423 37 14 6
-0.00823987 -0.00729358 0.0301716 54 32 11
-0.00240315 -0.00778873 0.0321777 174 100 76
0.00935058 -0.00744587 0.0307977 151 148 96
0.0151392 -0.00675375 0.0279555 163 140 134
-0.00132505 -0.0077957 0.0323991 40 15 8
0.0105475 -0.00678409 0.0284178 104 64 34
-0.00888922 -0.00706702 0.0296668 156 104 83
0.0100633 -0.00693569 0.0291239 162 150 108
-0.00180512 -0.00760369 0.0321452 128 82 65
0.0126068 -0.00643881 0.0271886 158 133 124
0.0130372 -0.0064912 0.0272842 148 126 116
0.0143894 -0.00656376 0.0276749 156 136 128
-0.00873079 -0.00702505 0.0298074 150 96 77
0.0124434 -0.00648021 0.0275454 163 138 128
0.0119336 -0.00651312 0.0277275 173 146 134
-0.00838834 -0.00696756 0.0299427 66 28 10
-0.00838279 -0.00698031 0.0300327 88 47 32
0.00968911 -0.00704235 0.0302259 151 148 97
0.0123219 -0.00648055 0.0278525 163 134 120
0.0134938 -0.00644534 0.0276781 155 134 124
-0.0029731 -0.00750149 0.0323178 176 104 80
0.0125498 -0.00633734 0.0275087 138 102 86
-0.00115577 -0.0074382 0.0324103 63 30 20
-0.0026686 -0.00734024 0.0321372 182 114 89
0.00995213 -0.00670598 0.0293255 153 150 100
0.0104172 -0.00657241 0.0288917 156 150 100
-0.00895244 -0.00680205 0.0300089 161 105 88
0.0159338 -0.00649234 0.0286094 157 133 119
0.0148876 -0.00629971 0.0280611 151 120 104
-0.00856995 -0.00661372 0.0297895 164 107 87
-0.00769315 -0.0068213 0.0305071 147 120 75
0.0135431 -0.00604539 0.0276228 143 108 84
0.0157814 -0.00625806 0.0285607 138 110 78
-0.0077918 -0.00664563 0.0304352 136 100 68
-0.00277327 -0.00701369 0.0321161 170 106 80
0.0108716 -0.00619274 0.0285516 134 108 63
-0.00217377 -0.00695246 0.0322 148 88 66
0.0112015 -0.00613137 0.0283926 156 154 101
0.0123906 -0.00606785 0.0281462 146 114 100
0.0110603 -0.00608264 0.0283675 156 154 102
0.0115623 -0.00615897 0.0287785 155 154 100
0.0116241 -0.0060815 0.0284291 158 152 100
0.0117876 -0.00606575 0.0283551 146 129 94
0.0132989 -0.00610022 0.0284619 143 110 96
-0.000721041 -0.00700124 0.0328536 37 16 8
0.012015 -0.00599578 0.0281722 139 109 94
-0.0092918 -0.00623813 0.0296266 161 105 84
-0.00757871 -0.00649741 0.0306885 151 146 92
0.0126345 -0.00600467 0.0284998 142 114 102
0.0149789 -0.00597288 0.0282658 80 72 46
0.0147002 -0.00589427 0.0280319 32 26 14
-0.00830241 -0.00636081 0.0304673 136 77 58
0.0111085 -0.0059401 0.0283973 154 145 95
-0.00878973 -0.00618144 0.0296911 166 102 82
-0.00245856 -0.00661209 0.0320241 136 79 58
-0.00802959 -0.00619273 0.0300976 152 96 78
0.011218 -0.0068621 0.033253 154 150 100
-0.00767871 -0.00617073 0.0301333 143 112 78
-0.0013925 -0.00667851 0.0326753 53 17 10
0.0110319 -0.00677701 0.0333316 154 150 98
-0.00783979 -0.00613021 0.0302715 140 97 76
-0.00815983 -0.00600338 0.0300783 150 94 77
-0.00735261 -0.00607845 0.0304315 149 144 90
0.0108857 -0.00663671 0.0332467 154 150 98
0.0114827 -0.00657905 0.0333925 102 54 21
0.0146986 -0.00638328 0.0323985 158 134 127
-0.000702807 -0.00645165 0.0330835 59 23 12
-0.00754887 -0.00587638 0.0302762 150 142 91
-0.00946264 -0.00576248 0.0298811 104 60 46
-0.00194947 -0.00630068 0.0327232 118 70 47
-0.00841149 -0.00574779 0.0299263 148 88 68
0.0108067 -0.00643031 0.0335995 154 150 98
-2.08608e-05 -0.00614363 0.0333155 116 74 40
-0.00831128 -0.00553364 0.0302871 128 76 57
-0.000188361 -0.00606067 0.0330397 108 64 38
0.0155882 -0.00610201 0.033374 114 82 69
-0.000588608 -0.00602729 0.033231 98 51 34
-0.00939064 -0.00538984 0.0299083 108 60 43
-0.00895819 -0.00537655 0.0298756 162 92 66
0.0123048 -0.00571225 0.0317948 158 154 102
0.0158239 -0.00592725 0.0330651 88 56 42
-0.0019407 -0.00590407 0.0330683 150 103 78
-0.00171708 -0.00590946 0.0330085 125 76 54
0.0136065 -0.00559366 0.0313456 155 104 92
-0.00219594 -0.00588993 0.0331812 156 110 84
-0.0012376 -0.00592001 0.0332704 98 52 37
0.0108495 -0.00592138 0.033444 154 150 98
0.0122309 -0.00578206 0.0325786 156 154 100
-0.00241143 -0.00581414 0.0329774 161 113 86
0.000427233 -0.00589074 0.0333093 114 97 56
-0.00313018 -0.00586891 0.0336176 171 122 90
0.0114194 -0.00580796 0.0335407 109 48 25
-0.00110653 -0.00570716 0.0332027 104 56 40
0.0129424 -0.00525569 0.0304827 134 110 96
-0.00942953 -0.00504706 0.0298782 27 8 6
0.0123958 -0.00507179 0.0301017 76 80 65
0.0124744 -0.00532407 0.0316221 154 152 99
-0.00768258 -0.00520691 0.0311977 106 70 36
-0.00790075 -0.00513686 0.0312556 113 74 44
-0.00733825 -0.00524249 0.0318315 128 92 62
0.0127124 -0.00491489 0.0301805 87 82 70
-0.0081159 -0.00503203 0.0310376 118 72 48
-0.00836833 -0.00497758 0.0308603 126 76 54
-0.000208999 -0.00534299 0.0333395 62 28 16
0.0124367 -0.0048133 0.0299465 134 117 105
0.0161428 -0.00547356 0.0339268 96 52 36
0.000302344 -0.00532412 0.0332985 120 98 60
0.0121661 -0.00511943 0.0321287 154 153 100
0.00971418 -0.00508681 0.0321624 141 138 92
-0.00960309 -0.00477875 0.0307193 56 16 6
-0.00688351 -0.00502291 0.0321014 132 92 64
-0.00670241 -0.00517338 0.0331975 125 87 57
0.0105473 -0.00520092 0.0338348 166 136 114
0.0124281 -0.00495639 0.0318515 154 151 100
0.0136155 -0.00465366 0.0303055 165 66 40
-0.00903842 -0.0046553 0.0306544 143 88 60
0.000470789 -0.0050577 0.0332952 126 106 66
-0.00756592 -0.00473536 0.031399 138 98 74
-0.00749161 -0.00474829 0.0313849 137 98 72
-0.00736338 -0.0047736 0.0315734 132 94 70
0.0124363 -0.00450878 0.0299952 159 131 116
-0.00784142 -0.00468094 0.031359 150 108 84
-0.00816761 -0.00463067 0.0312167 157 111 92
-0.00803462 -0.0046585 0.0312961 156 112 90
-0.00708511 -0.00474832 0.031785 132 95 69
0.0118332 -0.0050932 0.0342927 102 75 60
0.0110111 -0.0048574 0.0329467 152 119 99
0.0121835 -0.0047916 0.0323549 150 148 98
0.0126709 -0.00443897 0.0301723 163 131 118
0.0156404 -0.00453008 0.0307365 146 88 64
-0.0084638 -0.00457724 0.03115 144 96 76
0.0154312 -0.00445396 0.0306405 67 35 27
-0.000805387 -0.00481354 0.033054 60 21 10
0.00993099 -0.00464324 0.0321819 134 108 79
0.014779 -0.0043806 0.030223 72 46 35
0.0127834 -0.00430996 0.0299178 168 135 124
0.0102383 -0.00463353 0.0324374 168 134 111
0.0150376 -0.00438294 0.0309106 74 48 38
-0.000328276 -0.00461507 0.0329181 60 24 15
-0.000103218 -0.00459784 0.0330814 58 28 14
-0.00924028 -0.00427993 0.0312533 154 105 82
0.00039499 -0.00452501 0.0331048 139 130 95
0.00942806 -0.00443432 0.0322048 122 120 77
-0.0101841 -0.00422615 0.0313968 52 18 11
-0.00239831 -0.00430913 0.0319202 174 130 110
-0.00748048 -0.0041465 0.0313376 142 102 82
0.0111431 -0.00445337 0.0334622 159 124 105
-0.00956402 -0.0041202 0.0311588 158 107 84
0.000162442 -0.00437455 0.033416 126 105 80
0.0106417 -0.00426283 0.0326501 148 117 96
0.0128325 -0.0039446 0.030221 155 128 116
0.0133763 -0.00392276 0.0306611 60 52 49
0.015329 -0.00385949 0.03065 172 102 72
-0.00729192 -0.00396002 0.0313918 138 97 78
0.0145456 -0.00378996 0.0305204 89 52 42
-0.0104658 -0.00389301 0.0313921 77 40 27
0.00028957 -0.0041348 0.0334892 146 134 108
0.0126658 -0.00374445 0.0306504 166 135 121
0.0157077 -0.00375143 0.0308809 174 122 92
-0.00291623 -0.00384849 0.0320311 136 93 67
-0.000413729 -0.00395886 0.0331693 84 42 24
0.010682 -0.00392007 0.0329282 146 112 88
-0.00319334 -0.00378739 0.0323066 132 88 58
0.0109011 -0.00387767 0.0332837 183 148 130
-0.0094627 -0.00359949 0.0313995 170 124 100
0.0125601 -0.00352839 0.0305005 166 135 120
0.0128079 -0.0035018 0.0303082 166 138 126
0.013466 -0.00348446 0.0303103 10 8 10
-0.0100238 -0.00352103 0.0313077 108 63 48
-0.00949917 -0.00353895 0.0311316 168 123 99
0.00970891 -0.00379579 0.0335047 156 146 123
-0.0101352 -0.0034922 0.0313031 81 38 25
0.010458 -0.00364477 0.0329856 94 50 28
-0.010184 -0.00342419 0.0310154 76 36 24
-0.00685347 -0.00345471 0.0313687 130 87 64
0.015479 -0.00334789 0.0311606 178 126 102
0.0101722 -0.00355083 0.0331429 160 137 112
-0.0028954 -0.00331908 0.0313228 137 88 64
0.0128093 -0.00319927 0.0308149 164 119 102
-0.00707102 -0.00315655 0.0306337 100 59 33
-0.00700775 -0.00314549 0.0307876 108 64 38
-0.00732096 -0.00309943 0.0304419 90 48 24
0.00971612 -0.00338682 0.0333877 158 148 126
-0.00910818 -0.00315152 0.0314325 160 113 92
0.013077 -0.00303889 0.0306782 112 78 63
-0.0104463 -0.00307555 0.0316295 54 20 14
-0.00935543 -0.00306767 0.0313959 161 116 94
0.0100288 -0.00326191 0.0333218 163 146 122
-0.0109308 -0.00237072 0.0248157 163 148 124
-0.00693208 -0.00295887 0.0305141 90 49 26
0.00984415 -0.00321447 0.0333046 159 148 124
0.0121159 -0.00302038 0.0312505 144 126 106
0.014015 -0.00299366 0.0310329 83 60 62
-0.00325514 -0.00291065 0.0303943 136 83 68
0.0116 -0.00295363 0.0309289 110 98 72
-0.00710053 -0.00289017 0.0303658 88 47 24
-0.00677825 -0.00285015 0.0306135 134 80 51
-0.00527009 -0.00276158 0.029383 138 90 66
-0.00814829 -0.00278676 0.0303599 128 82 60
0.0122288 -0.00330829 0.0358436 125 107 84
0.0144556 -0.00285622 0.0310115 87 62 62
0.0165442 -0.0031706 0.0341519 124 95 82
-0.00989655 -0.00284594 0.0314 114 70 54
-0.00617151 -0.00274893 0.0302876 134 80 48
0.0142051 -0.00280759 0.0309906 70 42 41
-0.0106962 -0.00224945 0.0248825 162 146 124
0.0119703 -0.00321917 0.0355869 155 135 112
0.0131076 -0.00261098 0.0306 157 122 105
0.0145683 -0.00263843 0.0310718 89 62 64
-0.00921035 -0.00265649 0.0316969 141 96 74
0.0120139 -0.00261597 0.0310349 146 112 83
0.00967973 -0.00282602 0.0339381 159 148 125
-0.0053 -0.00238457 0.0294779 106 57 36
-0.00376156 -0.00241006 0.0301096 166 111 98
-0.0023145 -0.00258343 0.0315804 140 94 76
0.0143192 -0.00251562 0.031041 81 56 48
-0.00328311 -0.00245149 0.0303428 149 96 82
0.0127711 -0.00245928 0.0308243 132 74 48
-0.00494904 -0.0023602 0.0293454 128 78 52
0.0122342 -0.00243466 0.0308677 177 112 82
0.012443 -0.0024272 0.0307085 176 106 72
-0.00715579 -0.00229211 0.0298783 154 94 71
0.0129977 -0.00233881 0.0308008 152 108 89
-0.0100201 -0.00235891 0.0318334 84 50 40
-0.00962342 -0.00223373 0.0317665 98 54 41
-0.00351748 -0.00212927 0.0302808 142 92 73
-0.00272193 -0.0021855 0.0313209 128 81 60
-0.00499682 -0.00197507 0.0292838 88 42 20
0.00946309 -0.00229097 0.0338731 156 148 127
0.00971971 -0.00224527 0.0340343 136 122 98
-0.00902555 -0.00205247 0.0319999 122 76 58
-0.00598511 -0.00189242 0.029365 178 120 98
0.0101674 -0.00210973 0.0333186 98 72 57
-0.00471396 -0.00178607 0.0295581 98 54 31
-0.00835333 -0.00183229 0.0310408 129 78 54
-0.00683297 -0.00178456 0.029864 175 112 91
0.0134927 -0.00186347 0.0314394 188 161 140
0.00967904 -0.00196393 0.0340859 114 88 58
0.0127979 -0.00175586 0.0312174 168 122 95
0.0119271 -0.00169698 0.0313375 150 115 96
0.0100907 -0.00185792 0.0344205 38 20 10
0.0146383 -0.00175881 0.0323805 140 99 82
0.0113226 -0.00179278 0.0351314 130 101 82
0.014379 -0.00160782 0.0324505 120 88 72
-0.00624094 -0.001307 0.0305722 141 98 84
0.0107605 -0.00145438 0.0345734 127 92 67
0.0107274 -0.00144655 0.0347656 122 88 64
-0.0089604 -0.00109928 0.027551 158 140 118
-0.00859175 -0.00110322 0.0276395 160 134 109
0.0105955 -0.00141525 0.0345941 122 88 62
0.0116396 -0.00126012 0.0321937 125 102 80
0.0129067 -0.00123191 0.0316375 118 87 68
-0.00846246 -0.00101166 0.0277233 162 130 105
0.00941975 -0.00127073 0.035002 148 129 103
0.010146 -0.0012166 0.0344923 69 46 26
0.0152478 -0.00114359 0.0319599 78 58 40
0.0127217 -0.0010819 0.0314668 118 88 69
-0.00940277 -0.000808545 0.027465 126 18 17
0.0132148 -0.000943879 0.032072 142 112 96
-0.00993133 -0.000723309 0.0268462 138 56 28
-0.0100648 -0.000671142 0.0262258 150 115 64
-0.00727909 -0.000845266 0.0321905 136 92 77
-0.0107193 -0.000650835 0.02653 150 119 77
0.0110928 -0.000669897 0.0333652 140 116 100
0.0146418 -0.000648931 0.032504 138 102 82
0.0172365 -0.0005288 0.0344067 130 112 91
0.0137274 -0.000444931 0.0321036 148 116 95
0.00899964 -0.00037655 0.0362851 141 132 105
0.0113141 -0.000367501 0.0329175 143 117 102
0.0131991 -8.56549e-05 0.0320053 120 76 54
0.0142087 -9.99253e-05 0.0325467 165 134 116
-0.00901601 -8.29964e-06 0.0328087 185 138 117
0.00891752 -1.43868e-05 0.0359873 139 130 101
0.00963526 3.30164e-05 0.0331765 170 144 130
0.00894284 5.0688e-05 0.034981 136 126 96
-0.00774493 0.000149269 0.0322863 142 92 76
0.00298925 0.000149064 0.0290569 146 130 108
0.0114138 0.000185671 0.0323679 102 60 32
0.0115676 0.000260656 0.0321495 99 58 33
0.00934314 0.000309468 0.0333417 162 138 118
0.0117206 0.000307114 0.0323808 100 59 34
0.00381513 0.00027287 0.029751 170 148 128
0.0126102 0.000352903 0.0313802 154 125 112
0.00451956 0.000334705 0.0302699 168 140 121
0.011884 0.000377236 0.0322498 100 59 38
0.00904355 0.000480049 0.0344443 131 120 94
-0.00990087 0.000420896 0.0259184 161 142 123
0.0123292 0.000512962 0.031668 124 85 62
0.00921438 0.000588969 0.0334651 140 116 94
0.00279758 0.000568775 0.0285352 92 36 20
0.000323185 0.000857927 0.0354589 177 126 104
0.00187336 0.000676531 0.0278344 130 35 25
0.00963283 0.000814171 0.0333659 134 100 83
0.01133 0.000767467 0.0317416 167 135 120
0.00197427 0.000687738 0.0280955 125 36 24
0.00282014 0.000741369 0.0286202 102 41 29
0.0029789 0.000750682 0.0287903 112 58 38
0.0125356 0.000831961 0.0314443 122 76 50
0.00222358 0.000780587 0.0279873 107 32 21
-0.0105223 0.00105126 0.0340872 163 116 91
0.0110775 0.00106256 0.0321572 178 152 142
0.0100617 0.00110541 0.0328491 133 24 26
0.0132266 0.00110011 0.0316888 138 92 68
0.0163314 0.00113377 0.03301 168 145 136
0.0109259 0.00114004 0.0320159 179 152 143
-0.0106572 0.00103288 0.0257616 144 78 68
-0.00499475 0.00132243 0.0334556 86 38 24
0.0094106 0.00132588 0.0335706 104 80 64
-0.0109003 0.00143636 0.0345406 160 112 88
-0.00492253 0.00137734 0.0340635 96 45 29
-0.011025 0.00107721 0.0254537 116 22 24
0.0111452 0.00135343 0.0320655 180 153 143
-0.0105837 0.00111364 0.0258027 146 81 70
-0.00995212 0.00151309 0.0334814 176 128 104
0.00978778 0.00153755 0.0332983 94 70 59
0.0101657 0.00150485 0.0328668 100 62 62
-0.00521797 0.00152893 0.0329978 96 49 35
-0.000222907 0.00166631 0.0345336 116 76 52
-0.0109049 0.00127948 0.0255905 126 13 15
-0.00336395 0.00173788 0.0343387 177 126 104
0.000943756 0.00159404 0.032298 124 53 38
-0.00274369 0.00175366 0.0339344 156 105 81
-0.000495462 0.00175349 0.034352 141 102 84
0.00951549 0.00175047 0.0339856 120 98 76
-0.00195847 0.00185171 0.034353 166 115 90
0.00993441 0.00175656 0.0331507 96 64 58
-0.0029017 0.00192296 0.034436 155 102 79
0.0116409 0.00197141 0.0339009 182 155 146
-0.0106442 0.001548 0.0259878 145 80 70
-0.0108557 0.00160244 0.0259554 124 16 17
-0.0108979 0.00162319 0.0258937 126 16 18
-0.0104002 0.00164695 0.026183 162 143 126
-0.00526126 0.00207427 0.0330309 85 40 27
-0.00496592 0.00210307 0.0330788 69 28 18
-0.0109313 0.00164247 0.0257874 124 16 17
-0.0038826 0.00220748 0.0343674 132 77 48
0.0027992 0.00175291 0.0276017 143 25 22
0.00300005 0.00179233 0.028006 142 27 22
0.00331883 0.00179157 0.0277932 144 29 22
0.00349124 0.00177437 0.0276695 144 28 24
-0.011012 0.0016664 0.0257579 119 19 18
0.01175 0.00210897 0.0321168 188 166 158
-0.00369798 0.00223537 0.0340614 140 84 55
0.00319372 0.00182048 0.0278759 144 28 24
0.0107213 0.00215021 0.0326708 180 153 145
0.0119916 0.00212924 0.031878 190 170 162
-0.00714514 0.00221467 0.0325441 98 48 24
-0.00615006 0.00225076 0.0323046 144 92 68
-0.00342643 0.00240672 0.0346336 126 72 40
-0.0113363 0.00179777 0.0253722 51 41 50
-0.00285422 0.00240842 0.0341561 134 80 49
-0.00178966 0.00240471 0.0336713 122 72 44
-0.00218196 0.00241315 0.0337342 126 74 46
-0.00197991 0.00240676 0.0338041 127 76 46
-0.00780591 0.00239561 0.0325938 104 56 33
6.14707e-05 0.00218527 0.0299456 105 71 48
0.00586442 0.00215776 0.0299934 154 138 120
0.00278904 0.00206297 0.0275534 112 21 18
0.00348749 0.00208155 0.0275977 102 25 21
-0.0086731 0.00248347 0.0324799 120 70 48
-0.00915191 0.00253447 0.0326288 130 80 62
0.000789073 0.00231219 0.0299764 167 131 119
-0.0112512 0.00201261 0.0257076 118 18 22
0.000376533 0.00235713 0.0300229 158 131 117
0.00520288 0.00227966 0.0292733 158 84 74
0.00568945 0.00239491 0.0305484 149 126 111
-0.0110253 0.00208222 0.0259265 122 16 16
-0.0110652 0.00208991 0.0262107 122 15 15
0.0116003 0.0025666 0.032361 180 154 146
0.0119481 0.00262263 0.0322308 179 151 144
0.0163968 0.0027944 0.0343954 194 168 154
-0.0101435 0.002221 0.0267022 161 140 123
0.0036079 0.00233006 0.0277928 86 50 40
0.00311606 0.0023925 0.0277258 88 80 65
0.00592304 0.00255695 0.0297901 120 102 89
-0.00602065 0.00293486 0.0331044 79 40 28
-0.0081531 0.0029234 0.0324096 101 56 34
-0.00806989 0.00296186 0.0328286 104 57 36
-0.00846 0.00291757 0.0321155 102 54 33
-0.0108257 0.00241106 0.0262388 96 27 27
-0.00917957 0.0030367 0.0326995 106 58 36
-0.00917802 0.0031122 0.0335608 104 56 35
0.00389681 0.00256888 0.0279821 123 52 46
0.00324245 0.00262352 0.0281983 92 85 72
0.015919 0.00317877 0.0343616 175 154 148
-0.0103231 0.00254299 0.0268687 161 139 125
0.00200299 0.00274623 0.0283649 156 44 40
0.00220709 0.00268604 0.0279319 138 58 51
0.00404043 0.00277362 0.0281539 138 54 54
0.00365375 0.00282153 0.0284342 108 48 37
-0.0115422 0.00265913 0.0257471 76 16 22
0.00182741 0.00292002 0.0282984 150 96 93
-0.0111223 0.00275029 0.0263156 96 31 32
-0.0116013 0.00273037 0.0257729 75 14 24
0.00236272 0.00295413 0.027888 110 96 92
0.00275571 0.00297476 0.0281979 124 104 90
0.00393807 0.00297806 0.0279849 138 122 118
-0.011796 0.00297193 0.025773 84 28 32
0.002062 0.00335971 0.0282213 142 128 124
0.00402859 0.00350864 0.0287954 128 111 105
-0.0113537 0.0036713 0.0278262 149 118 84
0.00203856 0.00394278 0.0292774 153 54 53
0.00383006 0.00401508 0.0288993 147 69 67
-0.0115594 0.00416353 0.0282973 122 48 36
0.0022459 0.00452461 0.0301545 150 34 34
0.00246098 0.0046584 0.0299722 148 36 32
0.00233797 0.0047334 0.030086 146 46 44
0.0118612 -0.00767156 0.0267281 170 142 132
-0.00205514 -0.00920852 0.0328201 56 26 15
0.0133593 -0.00742191 0.0267622 174 151 139
-0.00258533 -0.00902242 0.0325862 63 34 24
0.0126734 -0.00732111 0.0272823 173 148 137
0.00943569 -0.0076812 0.0293032 118 88 61
-0.00289475 -0.00833554 0.0324989 174 112 87
-0.00911476 -0.00777584 0.0304161 42 24 10
0.00930784 -0.00798893 0.0315098 157 154 102
0.00924053 -0.00779617 0.0307738 158 155 104
0.0105281 -0.00700263 0.028385 95 56 28
0.0127164 -0.00675407 0.0272753 144 118 109
-0.00844433 -0.00733792 0.0300631 150 100 78
-0.00836181 -0.00731553 0.0300965 149 106 82
-0.00293508 -0.0078078 0.0325022 162 98 74
0.00965864 -0.00730313 0.0308712 158 155 104
0.00992483 -0.00683155 0.029614 158 154 104
0.0123055 -0.00637074 0.0276102 144 108 93
-0.00895548 -0.0067881 0.0296047 158 106 88
-0.000897828 -0.00742886 0.0325179 64 36 24
0.0106708 -0.00659654 0.0291165 152 152 100
-0.00874081 -0.00667993 0.0296755 158 103 85
-0.00913344 -0.00649319 0.0297034 170 110 92
-0.00888811 -0.00627892 0.0295462 163 108 91
-0.00974989 -0.00618572 0.0297102 38 19 12
-0.00890287 -0.00596972 0.0297253 158 100 84
-0.00154656 -0.00650473 0.0327948 64 26 14
-4.46033e-06 -0.00664693 0.0336408 56 32 13
-0.00823184 -0.00590068 0.0299965 158 100 84
-0.00907601 -0.00561555 0.0298517 176 114 89
-0.00120194 -0.00626299 0.0332561 100 54 40
-0.0015453 -0.00600702 0.0330874 150 102 83
0.000357805 -0.00588553 0.0331398 106 72 40
-0.00980523 -0.0051936 0.0302261 51 22 14
-0.0089247 -0.00506312 0.0302202 98 47 30
-0.00921288 -0.0048743 0.0302765 94 50 32
-0.00726709 -0.00475256 0.0315016 131 92 68
-0.00449616 -0.00530201 0.0360594 146 101 76
-0.00998427 -0.0045547 0.0312345 52 17 12
0.0123739 -0.0042844 0.0300495 141 110 96
0.0149616 -0.00444892 0.0311134 136 66 44
-0.00986905 -0.0042818 0.0310254 42 12 6
-0.0049833 -0.00497894 0.0361475 109 70 34
0.0132513 -0.00412102 0.0303139 50 32 26
-0.0110596 -0.00326149 0.0239274 163 151 128
0.0124812 -0.00412938 0.0306034 143 110 96
-0.00537133 -0.00474129 0.0362642 82 42 20
-0.00400448 -0.00455019 0.0345503 166 118 88
-0.00214651 -0.00417109 0.0318717 178 134 114
-0.00255311 -0.00402932 0.0318402 148 102 76
-0.0115937 -0.00288523 0.0237539 122 112 98
2.74853e-06 -0.00390114 0.033444 108 64 40
-0.00271627 -0.00375276 0.031897 121 76 54
0.0155799 -0.00352224 0.0309109 142 72 44
-0.00494881 -0.0028885 0.0296893 155 109 90
-0.010833 -0.00233058 0.0248227 162 148 126
0.0121274 -0.00305102 0.0332941 122 106 82
-0.00678137 -0.00278197 0.0302035 110 68 42
-0.00947957 -0.00281985 0.0313289 160 110 86
0.0148616 -0.00267754 0.031286 87 66 68
-0.00974862 -0.0026021 0.031422 41 12 8
-0.00274708 -0.00225346 0.0315949 121 73 52
0.0137051 -0.00198124 0.0311309 176 147 126
-0.00321338 -0.00189169 0.0310506 138 90 74
-0.0117217 -0.00136422 0.0240646 134 19 22
-0.00360095 -0.00174226 0.0310468 148 95 72
0.0145491 -0.00138642 0.0325476 153 130 114
0.00994241 -0.00147296 0.0344221 126 76 48
-0.0105098 -0.00107079 0.02461 160 144 124
-0.00870582 -0.0011321 0.0278251 170 130 105
-0.0112146 -0.000934842 0.0239287 148 130 130
-0.00659699 -0.00128329 0.0297854 146 98 83
-0.0120963 -0.000913306 0.0240636 94 9 22
-0.0111042 -0.000928124 0.0239114 148 116 115
0.0119934 -0.00122186 0.0320961 136 109 94
-0.00851038 -0.00106327 0.0276864 173 126 100
-0.0109973 -0.000838331 0.0239843 126 48 46
-0.0105661 -0.000793436 0.0244721 158 143 124
-0.0119777 -0.000758372 0.0240324 39 16 45
0.0147499 -0.000950566 0.0320172 98 56 34
0.017417 -0.000980821 0.034328 158 130 110
-0.00995269 -0.000730194 0.0268536 150 116 76
0.0152312 -0.000954245 0.0339854 88 63 50
-0.00966693 -0.000681841 0.0271699 126 20 12
0.00983201 -0.000878676 0.033953 100 70 36
0.0153961 -0.000800699 0.0322549 124 94 72
-0.0104117 -0.000581811 0.0263576 150 122 77
-0.0024055 -0.000782706 0.0336985 196 150 126
0.00901524 -0.000795763 0.0348258 150 140 114
0.0100129 -0.000768148 0.0340056 94 66 32
0.0100918 -0.000620167 0.0336698 92 60 34
-0.00844758 -0.000474559 0.0275384 186 140 119
0.0125828 -0.000572447 0.0323107 106 85 72
0.00898582 -0.000577686 0.0349265 146 135 108
0.0105318 -0.000292876 0.0331058 92 52 27
0.0108821 -0.000124481 0.0330629 94 54 28
0.0108141 -9.90319e-05 0.0326952 96 56 30
0.0109826 -3.51168e-05 0.0328082 99 57 32
-0.000152466 -3.12318e-06 0.0348548 170 124 102
0.0111562 5.55288e-05 0.0326055 102 60 36
0.00943591 0.000166727 0.0332213 160 135 118
0.0113241 0.000207727 0.0318671 96 54 27
0.0124431 0.00040991 0.0316494 124 90 74
0.0125626 0.000769743 0.0310063 96 54 31
0.00957732 0.0010967 0.0327087 98 39 28
0.000904342 0.00123514 0.0351329 162 118 94
0.0133568 0.00118313 0.0315389 122 78 55
0.0157774 0.00140733 0.0324394 172 144 130
0.0146589 0.00151221 0.0317392 144 108 94
-0.00201657 0.0018174 0.0339755 176 124 98
0.0119042 0.00185771 0.0320025 170 146 140
0.0123489 0.00197672 0.0322103 172 146 139
-0.00501398 0.00212462 0.0333219 79 34 20
0.00271517 0.00177734 0.0276974 138 24 20
0.0127899 0.00205329 0.0318407 152 117 106
0.0138198 0.00206205 0.0318916 170 151 144
0.0113875 0.00210525 0.0319895 168 144 136
0.0124632 0.00229026 0.0318955 144 100 96
0.0123851 0.00225274 0.0314692 155 116 112
0.0127075 0.0023302 0.0318084 152 109 98
0.0147323 0.00251187 0.0323718 174 152 146
0.0100796 0.00265657 0.0332863 120 86 65
0.0126009 0.00269465 0.0320574 104 42 48
0.00114437 0.00248968 0.0287868 138 72 66
0.0146266 0.0028452 0.032489 158 140 132
0.00314185 0.00261459 0.0277952 89 81 66
0.00240366 0.00270049 0.0279855 136 62 56
0.00237597 0.00338957 0.0282827 91 74 66
0.0132396 -0.0110443 0.0294478 132 72 54
0.0134843 -0.011008 0.0293666 124 50 34
0.0132057 -0.0108226 0.0294145 132 68 54
0.0135339 -0.0108576 0.0295935 122 40 28
0.0138356 -0.0107305 0.0293312 124 5 8
0.00987774 -0.0113162 0.0323366 155 151 102
0.0109898 -0.0113444 0.0333267 127 98 68
0.0113225 -0.0114264 0.0336313 118 90 60
0.0176016 -0.0108288 0.0318383 33 30 22
0.00929258 -0.00914882 0.0295963 122 98 62
0.0101464 -0.00918369 0.030134 138 114 94
0.0103098 -0.00892081 0.0296987 145 120 105
0.00900229 -0.00930965 0.0312184 156 152 103
0.0100726 -0.00800039 0.028308 126 107 92
-0.0011787 -0.00891873 0.0334984 79 46 30
-0.00885203 -0.00784175 0.0305727 50 29 10
0.012427 -0.00683205 0.0274859 164 138 130
-0.00807792 -0.00769668 0.031054 150 145 95
0.0130228 -0.00673282 0.0270681 130 104 95
-0.00777253 -0.00735542 0.0312396 151 146 94
0.0134798 -0.0063068 0.0278649 136 102 87
-0.00935297 -0.00664488 0.029509 48 13 4
-0.00916704 -0.0065035 0.0296595 140 83 68
-0.000841451 -0.00687194 0.0326736 39 14 8
-0.00908173 -0.00609907 0.0294304 167 109 92
-0.00219354 -0.00621958 0.0327183 118 66 43
-0.00224657 -0.00585772 0.0330008 172 122 99
-0.00990544 -0.0048989 0.0301937 58 24 16
-0.0104131 -0.00473448 0.0313412 64 28 18
0.0130914 -0.00457573 0.0301834 126 94 80
-0.0113163 -0.00338947 0.0240437 161 147 126
-0.0111912 -0.00329425 0.0241152 160 148 127
-0.00561674 -0.00479505 0.0353822 112 78 52
0.00933069 -0.00412648 0.0321012 146 141 106
-0.00357306 -0.00391964 0.032289 132 88 62
0.0124814 -0.00345706 0.031055 144 113 101
-0.000341101 -0.00375842 0.0337694 90 51 34
0.012899 -0.00304855 0.0347262 148 137 116
-0.00771895 -0.00272467 0.0314061 130 86 60
-0.00466641 -0.0021378 0.0297369 119 70 45
0.0115451 -0.00232085 0.035631 87 62 47
0.0133887 -0.00188553 0.0316209 168 116 93
0.0144069 -0.00160939 0.032493 148 120 103
-0.00669588 -0.00130009 0.030346 139 86 69
0.0105112 -0.000422576 0.0338143 93 58 30
0.0147892 -0.000195944 0.0327241 102 84 75
-0.00892116 -0.000122561 0.0271886 140 36 34
0.00177918 -5.38865e-05 0.0372693 136 119 94
0.00402912 0.000301943 0.0302198 168 146 128
0.00420444 0.000316345 0.0302963 166 146 126
0.0145957 0.00103761 0.0316479 124 82 64
0.0144782 0.00138793 0.0318794 130 89 68
-0.0057454 0.0016142 0.0326407 146 100 82
0.0109334 0.00303906 0.0330436 145 109 94
-0.0126215 0.00462926 0.0276341 130 50 22
0.0138486 -0.011702 0.0291769 105 56 24
0.0132989 -0.0116821 0.0292344 147 132 92
0.0136291 -0.0116632 0.0293238 136 96 56
0.0136399 -0.0114334 0.0291408 136 54 32
0.0129107 -0.0113338 0.0296722 153 137 102
0.0136687 -0.0110286 0.0293615 128 8 8
0.0150271 -0.00940302 0.0289056 100 62 36
0.0151659 -0.00893417 0.02833 136 94 74
0.00919722 -0.00937596 0.0301004 150 144 95
0.00952146 -0.00943124 0.0305123 153 144 96
0.00953166 -0.00896701 0.0289279 148 126 105
0.0139864 -0.00764945 0.026871 166 151 146
0.012867 -0.00754561 0.0267791 165 140 130
-0.00124745 -0.00914844 0.0330183 46 26 13
0.00963469 -0.00914962 0.033149 150 147 96
0.0151754 -0.00716266 0.0273411 171 149 138
-0.00921714 -0.00772391 0.0303015 54 32 19
-0.00934468 -0.00762953 0.0301594 67 40 24
0.0152049 -0.00686035 0.0277934 166 147 140
-0.00195885 -0.00791816 0.0322646 163 98 75
-0.00355301 -0.0077967 0.0334565 172 106 78
0.0154236 -0.00652875 0.0280089 174 152 146
0.0127806 -0.00625843 0.0276865 119 74 53
0.0138941 -0.00630314 0.0278793 124 86 66
0.0105553 -0.00620134 0.0284246 162 158 103
0.0109662 -0.00608007 0.0287102 162 158 104
0.01558 -0.00653579 0.0318478 66 19 4
0.0144596 -0.00607458 0.0303147 158 139 129
0.0109923 -0.00628523 0.0328703 160 156 104
-0.00288588 -0.00639641 0.034228 150 98 66
0.0157651 -0.00606281 0.0332701 148 128 117
-0.00711575 -0.00573094 0.0326741 137 107 70
-0.00297772 -0.0059308 0.0338284 173 124 94
-0.00711921 -0.00579991 0.0334908 137 109 70
-0.00692592 -0.00570413 0.0329488 136 112 71
0.0125638 -0.0051699 0.0303073 82 80 60
0.0106262 -0.00558746 0.0344766 157 152 102
-0.00629406 -0.00527853 0.0344879 124 115 68
0.0138138 -0.00460574 0.030225 170 72 41
-0.00772423 -0.00470328 0.031398 154 110 91
-0.00606748 -0.0051135 0.0345209 127 121 72
0.0131294 -0.00432995 0.029944 109 80 66
-0.0112306 -0.00336649 0.0239338 161 149 126
-0.0112307 -0.00336859 0.0240234 161 149 126
-0.00560879 -0.00474846 0.0352107 90 52 25
0.00924287 -0.00441358 0.0324103 134 132 84
-0.00227984 -0.00422893 0.0317726 176 130 108
-0.00621858 -0.00443029 0.0339004 116 77 45
-0.00489421 -0.00443146 0.0341767 108 70 35
0.014258 -0.00392986 0.0312183 14 10 12
0.00977199 -0.00398235 0.0333061 121 118 73
-0.00248586 -0.00354205 0.0314144 162 119 98
0.0125883 -0.00329365 0.0304475 163 130 112
-0.0110943 -0.00241842 0.0247217 162 148 124
0.0121584 -0.00307923 0.0321692 164 154 131
-0.00706859 -0.00289822 0.030396 88 48 22
-0.0117653 -0.00225426 0.0241994 120 22 16
-0.00138882 -0.00313789 0.0334369 98 52 40
-0.00301155 -0.00279156 0.0310809 155 103 86
0.0117479 -0.00292165 0.0357272 167 135 112
0.00185857 0.000256141 0.0276658 157 140 120
0.0108096 0.000521785 0.0322266 178 150 141
-0.0131431 0.000458496 0.0255242 114 8 10
0.00177243 0.000696031 0.0282435 131 34 21
0.0148806 0.00134644 0.0318215 184 162 158
0.00175889 0.00125988 0.0280903 108 31 24
0.0032242 0.00179535 0.0276747 144 28 22
0.00359327 0.0018259 0.0280292 144 30 23
-0.00356636 0.00227695 0.0339676 116 64 35
-0.00284559 0.00239521 0.034014 140 86 58
-0.0113214 0.00192497 0.0255603 59 48 59
0.000612804 0.00231396 0.0299244 162 137 124
-0.0109043 0.00203969 0.0261717 128 16 17
-0.0082155 0.00292386 0.032419 106 59 37
0.014809 0.00321306 0.0328627 178 158 150
-0.0106864 0.00384698 0.0277966 158 139 124
-0.0115275 0.00391545 0.0274886 153 101 36
-0.0118753 0.0042958 0.0269631 96 16 12
-0.0116474 0.00495099 0.0276804 132 34 14
-0.0118598 0.00507112 0.0274824 91 10 8
0.0136292 -0.0124388 0.0294898 148 141 86
0.013838 -0.0115648 0.0296963 118 16 9
0.0119538 -0.01076 0.0308737 156 138 110
0.0127972 -0.00758442 0.0270889 166 141 130
0.0132623 -0.00757162 0.0271874 153 126 114
-0.000842735 -0.00894956 0.0330472 54 36 17
-0.00984446 -0.0076582 0.0307416 74 45 28
-0.000493117 -0.00795239 0.0326867 51 32 16
0.0163729 -0.00646541 0.0291667 132 95 70
-0.00203647 -0.00632628 0.032978 146 98 74
-0.00778372 -0.00530701 0.0317077 104 68 34
0.0137772 -0.00510547 0.0313472 124 21 11
-0.00695548 -0.0051495 0.0321725 130 90 63
-0.00794598 -0.00468448 0.0314054 156 112 90
0.0140899 -0.00457853 0.0308082 152 68 38
-0.0101924 -0.00420225 0.0314091 46 14 8
-0.00257558 -0.00401993 0.0318392 168 123 102
-0.00487664 -0.00364622 0.029592 102 67 30
-0.00546002 -0.00339659 0.0293263 131 86 55
0.0144241 -0.00344981 0.0307652 50 39 36
0.0150689 -0.00335926 0.0309577 123 68 42
-0.0111452 -0.00241931 0.0246742 164 148 128
0.0122877 -0.00296648 0.0310941 129 88 56
-0.0108216 -0.0023279 0.0248736 163 148 125
-0.00501123 -0.00237799 0.0293859 127 78 53
0.0133797 -0.00250764 0.0306861 136 96 80
-0.00191217 -0.00255695 0.0324191 155 111 95
-0.011093 -0.00093363 0.0235251 116 92 90
0.012651 -0.000718772 0.0325604 130 101 84
0.00178869 0.000449214 0.0372156 130 98 66
0.00167477 0.000707842 0.0279288 131 33 20
0.0147675 0.00133679 0.0318155 180 160 156
-0.00598678 0.00170092 0.0320697 126 79 57
0.0155242 0.00200693 0.0323991 182 158 149
-0.00534949 0.00201843 0.0320181 105 57 36
0.0116425 0.0020957 0.0322809 182 158 150
0.00363458 0.00228224 0.0277314 84 51 42
0.00245079 0.00336208 0.028274 62 46 42
-0.0111085 0.00334587 0.0261373 148 92 30
0.00409614 0.00378543 0.0289247 124 102 98
-0.0106451 0.00383539 0.027808 157 136 121
0.00272718 0.00435999 0.0299453 159 25 22
0.00311028 0.00447292 0.0306274 158 26 24
0.00189644 0.00453341 0.0301157 149 30 24
-0.0106634 0.00452803 0.0281858 140 119 103
0.0137288 -0.012391 0.0294293 128 104 58
0.0146671 -0.00993978 0.0293506 54 19 10
0.0123445 -0.00755389 0.0267299 169 142 133
0.0120968 -0.00590673 0.0278849 147 130 98
-0.00855042 -0.00499515 0.03067 134 84 61
0.00804612 -0.00800907 0.0497492 106 106 63
0.0107063 -0.0051234 0.0328973 166 134 107
-0.000313056 -0.00337434 0.0332376 146 122 92
-0.00637022 -0.00137578 0.0315311 138 94 80
-0.0102031 -0.000644488 0.0263942 151 122 79
0.00953785 -0.000808792 0.0343613 113 76 47
0.0154451 0.000100247 0.0329029 142 108 88
-0.00799308 0.00107675 0.0323157 140 90 74
0.00940706 0.00210411 0.0345508 115 93 76
0.0116 0.00233636 0.0318345 183 158 151
0.0135429 -0.0124528 0.0295283 152 148 94
0.0124605 -0.00626201 0.0275004 147 110 94
-0.00920271 -0.00617537 0.0295829 170 108 89
-0.00326839 -0.00567944 0.0336676 171 122 92
-0.00385605 -0.00507727 0.0334486 168 122 91
-0.00478185 -0.00395271 0.0325633 126 83 56
0.0105951 -0.000248654 0.0330568 96 56 28
-0.0081917 0.00209017 0.0321631 122 71 52
-0.00688837 0.00211871 0.0326205 128 80 58
-0.0107461 0.00199062 0.0259601 124 16 15
0.00871483 -0.00843446 0.0298266 148 145 92
-0.000572365 -0.00788948 0.0330749 51 30 16
0.0135322 -0.00644703 0.0271697 154 134 124
0.0128675 -0.00583473 0.0277394 146 118 107
0.015132 -0.00635797 0.0326862 158 136 126
-0.00760557 -0.00585553 0.0332113 134 102 68
-0.00748276 -0.00549833 0.0316915 115 83 52
0.0106967 -0.00583827 0.0338142 154 150 98
0.0107623 -0.00567655 0.0343194 155 149 98
-0.000679283 -0.00530208 0.033428 88 44 30
-0.00560486 -0.00316066 0.0290681 179 124 92
0.0177363 -0.00538846 0.0501274 88 80 70
-0.00120241 -0.00352435 0.0336308 56 18 10
-0.00258751 -0.0027908 0.0314382 137 91 72
-0.010693 -0.00212679 0.0253519 163 148 125
0.0105722 -0.00270609 0.0385522 158 148 126
0.00956049 -0.00195515 0.0342617 153 136 110
-0.00613352 -0.00132228 0.0303315 143 100 86
-0.0110332 -0.000886609 0.0239192 115 15 14
0.0151656 -0.00112548 0.0319179 82 60 43
0.0090019 -0.00100818 0.0353874 152 142 116
0.0095961 -0.000765807 0.034238 120 86 64
0.0124773 -0.000678604 0.0328089 116 96 82
0.0105759 -0.000355139 0.0336812 99 60 30
0.0120393 0.00218791 0.0314924 180 158 150
-0.0107749 0.00205388 0.0264652 122 18 16
0.0115217 0.00314877 0.0345135 170 141 130
0.00296028 0.0025808 0.028025 114 102 88
0.00410992 0.00314554 0.0275159 104 90 84
-0.0103959 0.00346543 0.0282793 160 138 123
0.00185404 0.00460433 0.0293778 154 35 30
0.00179959 0.00499913 0.0294827 97 66 60
-0.0115814 0.00494027 0.027423 126 10 10
-0.0020001 -0.0092467 0.0329234 62 34 18
-0.00153333 -0.00869207 0.0323945 81 48 27
-0.00900432 -0.00711509 0.0296307 95 62 46
-0.00186712 -0.00636621 0.0329429 114 66 47
-0.00211215 -0.0062734 0.0328746 150 100 76
-0.00891527 -0.00561741 0.0297494 171 102 80
-0.00744747 -0.00477594 0.0316054 111 74 48
-0.00249889 -0.0035932 0.0315626 167 124 104
-0.00294852 -0.00334299 0.0313093 113 70 45
-0.00489923 -0.00289932 0.0295795 152 104 84
-0.0108233 -0.00233624 0.0248668 162 148 126
-0.00470874 -0.00137419 0.035244 99 53 39
-0.0110389 0.000107813 0.0252192 112 18 16
-0.00623453 0.00181493 0.03264 148 102 86
-0.00421138 0.00193282 0.0342331 150 97 72
0.011522 0.0018343 0.0339843 131 105 101
-0.0108653 0.00201198 0.0260913 126 18 17
-0.0110403 0.00281628 0.0265804 110 36 39
0.0142271 0.00330222 0.0325697 143 112 102
-0.0115391 0.00305887 0.0260825 82 19 27
-0.0105464 0.00383171 0.0280372 158 136 124
-0.0107197 0.00388248 0.0280038 156 136 122
-0.0116149 0.0041799 0.0270436 142 75 26
-0.0117997 0.00426089 0.0270672 122 34 18
0.00191406 0.00454972 0.0299768 158 24 24
-0.0107347 0.00455698 0.0282255 140 121 108
0.00183548 0.00515911 0.0300989 91 60 56
-0.00447484 -0.00534242 0.035988 142 98 69
-0.00248874 -0.00435018 0.0320109 177 132 112
-0.0107144 -0.00227346 0.0247682 160 145 124
0.00219124 0.000761808 0.028069 127 30 22
-0.00138723 0.00234577 0.0338153 130 78 54
-0.0117846 0.00504436 0.0274297 106 11 8
-0.00896124 -0.00778125 0.0303625 44 26 10
-0.000517122 -0.00791535 0.0327806 54 35 18
-4.96344e-05 -0.00617673 0.0336001 91 50 22
-0.00521479 -0.0036097 0.0297605 101 66 28
-0.00708922 -0.00312069 0.0303096 100 58 30
-0.00486931 -0.00283621 0.0290299 156 107 86
-0.0068626 -0.00277222 0.0304017 92 48 24
-0.00496429 -0.00236128 0.02918 130 80 54
-0.00471663 -0.00159652 0.0299521 124 92 72
-0.00669315 -0.00126069 0.0311685 128 83 68
0.00242916 0.00342961 0.0286524 137 118 113
-0.0115851 0.00411348 0.0273313 152 96 34
-0.00266015 -0.00905683 0.0328666 58 30 18
-0.000771654 -0.00893913 0.0331609 58 43 18
-0.000666442 -0.00842212 0.0326372 50 30 12
-0.00107876 -0.00788356 0.0322176 33 14 4
-0.00775321 -0.00744606 0.0312719 151 146 92
-0.00693012 -0.00572136 0.0322351 138 122 78
-0.00742426 -0.0055377 0.0314835 130 98 68
-0.00704406 -0.00581639 0.0341483 134 130 80
-0.00630387 -0.00533559 0.0345308 124 120 72
-0.00818551 -0.00458979 0.0309699 156 110 90
-0.00973154 -0.00416865 0.0306238 90 42 26
-0.00543617 -0.00405392 0.0336791 107 69 37
-0.00577217 -0.00364093 0.030768 98 63 28
-0.00652526 -0.00344591 0.0308055 140 90 58
-0.000282201 -0.00367569 0.0333942 104 66 42
-0.00104112 -0.00345923 0.0324438 74 30 18
-0.00618807 -0.0032393 0.0307386 162 109 80
-0.00587515 -0.00298171 0.0295507 156 102 72
-0.00341881 -0.00291897 0.0298622 126 80 59
-0.00131128 -0.00315822 0.0328213 60 18 12
-0.00308953 -0.0029484 0.030844 122 71 50
-0.00136887 -0.00293114 0.0321808 96 53 39
-0.00181291 -0.0027399 0.0330217 151 110 96
-0.00320884 -0.00218253 0.0328962 115 66 42
-0.00342814 -0.00184365 0.0314275 123 73 55
-0.00501465 -0.00183482 0.0348389 106 53 35
-0.00626995 -0.00143545 0.0316079 140 93 80
-0.0100835 -0.000691201 0.0265039 150 119 78
-0.00293918 0.00135765 0.0338005 153 97 74
-0.00472433 0.00156697 0.0349004 164 110 88
-0.00530704 0.00232643 0.0348279 58 19 10
-0.00107785 0.00228757 0.0334241 108 60 29
-0.0012566 0.00227656 0.0324587 108 58 32
-0.00557229 0.00281021 0.0319852 56 22 14
-0.000650717 -0.00886188 0.0331201 64 48 18
-0.00100953 -0.00691211 0.0324071 30 12 6
-0.00735751 -0.00573255 0.0322611 134 100 64
-0.00310411 -0.00579796 0.0334568 168 120 92
-0.00748922 -0.00532443 0.0311332 120 88 55
-0.00694705 -0.00512454 0.03223 132 93 62
-0.0062011 -0.00524666 0.0349699 141 134 97
-0.00232875 -0.00428463 0.0318209 172 130 112
-0.00562934 -0.00416529 0.03447 102 60 27
-0.00254529 -0.00362245 0.0315169 176 133 114
-0.00563612 -0.0032124 0.0292707 154 105 76
-0.00376961 -0.00293835 0.0308481 94 48 30
-0.00404195 -0.00262334 0.0287095 116 65 41
-0.0105339 -0.00214743 0.0249704 163 147 126
-0.00309382 -0.00209443 0.0309893 82 34 17
-0.0109448 0.000546119 0.0275467 164 142 120
-0.010638 0.00100281 0.0255775 156 112 93
-0.0052331 0.00204549 0.032576 80 34 20
-0.000324882 0.00198027 0.0303225 110 61 34
-0.0108067 0.001926 0.0262727 117 54 44
0.0025058 0.00278497 0.0281662 94 78 62
-0.00693762 -0.00569446 0.0318696 138 121 77
-0.00750651 -0.0028332 0.0319371 94 50 26
-0.00857003 -0.00210138 0.0310123 114 68 48
-0.00365459 -0.00180595 0.0319661 123 72 52
9.75867e-05 0.00206643 0.0335472 101 59 34
-0.00486097 0.00210998 0.0328416 64 24 16
-0.0113659 0.00484663 0.0280595 120 33 20
0.0139613 -0.0125263 0.0299256 159 153 104
0.0139574 -0.011766 0.029783 152 140 97
0.0129104 -0.0109349 0.0301632 152 136 110
0.0133944 -0.0117899 0.0354866 156 138 126
0.0100712 -0.0100026 0.0338664 162 158 110
0.00952133 -0.00826895 0.0284432 130 106 91
-0.00204213 -0.00882812 0.0324412 55 27 14
-0.000820708 -0.00901414 0.0334993 54 35 14
0.00991846 -0.00928038 0.0337799 164 161 110
0.0100294 -0.00910694 0.0335193 163 160 110
0.0130064 -0.00763103 0.0267449 166 140 131
0.00937175 -0.00794116 0.0292214 132 108 90
0.0102364 -0.00881807 0.0339642 164 161 110
-0.00340555 -0.00835576 0.0335505 52 22 12
-0.00315301 -0.00821261 0.0328899 164 108 88
-0.00862585 -0.00739349 0.030011 84 56 38
-0.00184688 -0.00789582 0.032407 149 93 74
0.00941128 -0.00750736 0.0308663 164 161 113
-0.00280834 -0.00741454 0.0326032 160 94 77
0.0123281 -0.00636811 0.026987 162 138 130
0.0136958 -0.00649935 0.0275977 156 134 128
0.0101744 -0.00655704 0.0289158 160 156 112
0.0125328 -0.00635018 0.0275254 162 138 130
-0.00241246 -0.00675977 0.0324552 174 110 89
0.0132973 -0.0057941 0.0276413 74 48 38
-0.00164367 -0.00596786 0.0332568 144 96 74
0.0002131 -0.00591751 0.0332127 96 60 36
-0.00290974 -0.00593949 0.0342879 154 104 78
-0.00775882 -0.00516094 0.0312265 100 60 34
0.0116534 -0.00560396 0.03392 92 18 10
0.0109404 -0.00563536 0.0351521 160 158 110
-0.00817738 -0.00498715 0.0308564 115 72 52
-0.00051552 -0.00536116 0.0339129 80 38 26
0.0135957 -0.00509998 0.031209 118 88 76
0.0130935 -0.00491645 0.0301621 114 82 70
0.0111274 -0.00506662 0.0335906 143 108 80
0.0121526 -0.00471222 0.0301212 80 66 49
-0.00271662 -0.00483854 0.0330355 164 117 87
0.0136313 -0.00459017 0.029991 149 58 40
0.0128167 -0.00443574 0.030141 110 80 68
0.0144372 -0.00427875 0.0306476 160 66 48
-0.00447561 -0.00443416 0.0356836 95 46 26
0.0116302 -0.00426725 0.0337082 143 114 100
0.009497 -0.00393787 0.0327942 163 156 132
-0.00276986 -0.00383406 0.0324454 132 86 62
0.0105317 -0.00361847 0.0335596 162 150 132
0.010079 -0.00321169 0.0335465 164 154 131
-0.00120846 -0.00309967 0.0343548 126 86 71
-0.00350902 -0.00289134 0.0303154 102 62 43
0.0144395 -0.00286994 0.0400409 134 100 76
0.0137802 -0.00256088 0.0384618 154 124 106
0.0110264 -0.00254186 0.0378194 158 150 130
0.0119958 -0.00164769 0.0314639 116 88 76
0.0160368 -0.00148961 0.0339967 141 106 90
0.0100381 -0.00101225 0.0348603 105 64 34
0.0119083 -0.000954271 0.0321873 116 90 77
0.013002 -0.000909491 0.0316348 129 98 80
0.00891517 -0.000389037 0.0360177 142 132 104
0.0152437 -0.000172079 0.0330078 129 104 88
0.0150895 0.000124549 0.032323 156 130 115
0.0102853 0.000673084 0.0398725 136 126 96
0.00178793 0.000285461 0.0299854 167 151 136
0.00187897 0.000285794 0.030029 168 152 136
0.00216461 0.000300097 0.0302369 168 152 134
0.00960635 0.000759962 0.0336598 138 112 95
0.0100308 0.000931248 0.0341147 148 124 106
0.00906542 0.000895125 0.0335849 123 102 80
0.000652883 0.00101897 0.0368749 173 130 112
0.0108641 0.000867028 0.0318964 156 128 118
0.0110442 0.000858134 0.0316359 153 128 120
0.0117879 0.000935277 0.0315158 130 85 64
0.0156183 0.0011774 0.0328618 85 43 26
0.00132557 0.00113454 0.0355914 149 110 88
0.00210335 0.000727908 0.0274548 128 29 20
0.00146154 0.00107645 0.0268764 124 24 18
-0.00300042 0.00182247 0.0348918 177 126 108
0.00985343 0.002252 0.0353811 78 55 30
0.0031269 0.00169178 0.0270684 134 24 22
0.000814155 0.00214785 0.0280388 140 22 18
0.00333032 0.00208591 0.0266764 95 18 15
0.00550631 0.00254843 0.0296196 144 24 24
-0.000134513 0.00258347 0.0297845 157 135 122
0.00349692 0.00281238 0.0278697 84 82 64
0.00351551 0.00276814 0.0275571 88 84 66
0.00420717 0.0033313 0.0282357 111 93 88
0.00367377 0.00326928 0.0274647 136 118 111
0.00206246 0.00441691 0.0292869 144 23 21
0.00241651 0.00499614 0.0293504 134 64 66
-0.0117753 0.00505421 0.0274736 90 10 9
0.0115192 -0.00779194 0.0270604 163 134 124
-0.00953908 -0.00761598 0.0302422 81 49 31
-0.00221066 -0.00754873 0.0320428 179 107 84
0.0104432 -0.00638383 0.0287226 153 143 98
0.0105893 -0.00582787 0.0334184 164 160 108
-0.00937762 -0.00416611 0.0311573 144 88 66
-0.00221083 -0.00415962 0.0315001 176 130 109
-0.00679676 -0.00180012 0.029772 169 110 92
0.0106519 -0.000230303 0.0330314 88 46 22
-0.000317511 -0.000276488 0.0343823 172 125 106
-0.0100074 0.000436982 0.0260682 150 112 68
0.000498682 0.00234767 0.0300476 161 138 123
0.00151968 0.00449982 0.0297107 152 50 46
-0.00297932 -0.00618303 0.0338351 147 96 64
-0.00848254 -0.00203171 0.030906 113 67 48
-0.000930254 -0.00904375 0.0333088 50 30 14
-0.011197 -0.00336313 0.0240437 163 150 128
0.00224079 0.000197433 0.0283248 156 132 108
0.00436048 0.0031817 0.0283048 122 75 74
-0.001176 -0.00915804 0.0332492 59 38 20
-0.010283 -0.00743458 0.0307188 62 30 14
-0.00963794 -0.000709174 0.0273026 128 14 14
-0.00980467 -0.00485065 0.0305019 58 26 18
0.0128712 -0.0112253 0.0298177 142 126 93
-0.000929549 -0.00897058 0.0330075 46 26 10
-0.00334878 -0.00778446 0.0329999 124 68 52
-0.00257741 -0.00511914 0.0328268 168 120 92
0.0100519 -0.000697188 0.0337888 94 62 31
-0.010621 -7.68187e-05 0.0249186 100 16 10
-0.00224554 -0.00424141 0.0318026 186 142 122
-0.0110848 -0.000847393 0.0240594 136 76 76
-0.0121237 0.0015174 0.0247238 118 58 65
0.0133638 -0.00751404 0.0266937 146 122 112
-0.0083424 -0.00579503 0.0299363 162 103 86
-0.00806721 -0.00283058 0.0302687 128 82 62
-0.010692 0.00470733 0.0269786 128 14 16
-0.00852115 0.00256815 0.0329523 120 70 52
0.0118502 -0.00601639 0.0282046 144 126 90
0.0113195 -0.006217 0.0333073 140 112 73
0.0157734 -0.00325881 0.0310515 176 141 122
-0.0103502 -0.00350585 0.0317173 62 22 16
0.0098312 -0.00249102 0.0335719 150 135 108
0.0151513 -0.00108192 0.0321117 66 43 28
0.0125174 -0.00100895 0.0337048 78 62 53
0.00169193 0.000267695 0.0282896 154 128 106
-0.00490472 0.00155803 0.0340093 86 36 22
-0.0121677 0.00121847 0.0251101 96 42 40
0.00423341 0.00330247 0.0284127 96 79 72
0.00328707 0.00403551 0.028855 156 24 24
-0.0116479 0.00335031 0.0260921 127 20 18
0.0159857 -0.00807507 0.0277073 143 110 94
0.0124424 -0.00510962 0.0301272 106 104 70
-0.00570478 -0.00303904 0.0291556 186 132 95
0.0108348 -0.000101339 0.0328304 90 48 24
-0.0103063 0.00248347 0.02735 162 139 123
-0.00571451 -0.00354426 0.0309408 130 86 52
0.0118451 0.000352408 0.0324611 102 56 27
-0.00173952 0.0015672 0.0338292 174 124 98
-0.00780441 0.00283525 0.0323002 98 52 30
0.0012146 0.00404723 0.029196 154 108 92
0.00355414 0.00403245 0.0288931 157 25 24
-0.0068171 -0.00573694 0.032854 136 128 78
-0.00323222 -0.00572168 0.0336701 169 121 92
-0.0066955 -0.00562786 0.0346201 123 119 72
-0.00547847 -0.00421326 0.0350041 82 40 14
-0.00609944 -0.00379327 0.0320615 100 64 28
-0.00421845 -0.00182774 0.0298534 143 84 66
-0.0109011 0.00056437 0.034585 158 111 86
0.00187232 0.000337832 0.0310744 148 110 82
-0.00487208 0.0011903 0.0324897 89 38 24
-0.0104053 0.00168763 0.0261757 159 141 122
0.00259642 0.00229565 0.0277105 67 15 8
0.00192082 0.00252542 0.0283165 154 21 18
0.00201151 0.00270037 0.0283369 150 21 17
-0.0110428 0.00309349 0.0271388 120 40 36
-0.0103481 0.00342607 0.0281833 156 133 117
0.00421565 0.00320779 0.0283237 129 110 106
0.00202393 0.00333381 0.0282481 111 92 86
-0.0117488 0.00420745 0.027206 155 99 36
0.00285959 0.00442041 0.0301812 156 24 22
-0.00139739 -0.00947973 0.0348792 50 33 12
-0.000927374 -0.00386999 0.0325507 49 18 12
-0.00121341 -0.0035918 0.0333884 68 26 15
-0.00503341 -0.00275321 0.0287819 148 100 78
0.00136645 -0.000262938 0.0394289 142 131 110
0.00218978 0.00308869 0.0308874 118 28 24
-0.0114544 0.00302434 0.0255365 110 24 26
-0.0115707 0.00377755 0.0282381 154 126 102
0.0140297 -0.00992662 0.0283936 53 30 16
0.0136553 -0.00812608 0.0279291 120 94 89
-0.00639075 -0.00558511 0.0311283 138 127 82
-0.00551319 -0.00372975 0.0309412 104 66 30
