ply
format ascii 1.0
element vertex 825
property float x
property float y
property float z
property uchar red
property uchar green
property uchar blue
end_header
-0.000367065 -2.72054e-05 8.33638e-05 0 255 0
-0.000376978 -3.45729e-05 8.78653e-05 0 255 0
-0.000379799 -3.70014e-05 9.02442e-05 0 255 0
-0.000375055 -3.52973e-05 8.51745e-05 0 255 0
-0.000364918 -2.99108e-05 7.98436e-05 0 255 0
-0.000362085 -2.83577e-05 7.91917e-05 0 255 0
-0.000134349 -0.000179104 4.61515e-05 0 255 0
-0.000167798 -0.000196495 5.83171e-05 0 255 0
-0.000184036 -0.000190805 7.03705e-05 0 255 0
-0.000356177 -5.3395e-06 9.56608e-05 0 255 0
-0.000354182 -8.91726e-06 9.11455e-05 0 255 0
-0.000353643 -1.1118e-05 8.38374e-05 0 255 0
-0.000351814 -1.19501e-05 6.98561e-05 0 255 0
-0.000358285 -1.95361e-05 7.75212e-05 0 255 0
-0.000356781 -1.56819e-05 7.43861e-05 0 255 0
-0.000269854 -6.68977e-05 0.000211532 182 176 172
-0.000250968 -2.87426e-05 0.000173568 160 154 148
-0.000249941 -2.72188e-05 0.000170822 164 158 152
-0.00025197 -3.27722e-05 0.000184521 172 168 162
-0.000258885 -3.99698e-05 0.000199436 171 167 162
-0.000265596 -4.51115e-05 0.000208741 174 168 163
-0.000261047 -4.02304e-05 0.000202387 170 168 162
-0.000267138 -4.40956e-05 0.000208272 170 166 162
-0.000264208 -4.30791e-05 0.000208963 166 161 154
-0.00024948 -1.84687e-05 0.000163598 150 122 92
-0.000252443 -2.06907e-05 0.000168316 153 124 92
-0.000251372 -2.28327e-05 0.000175641 157 126 96
-0.000253297 -2.21114e-05 0.000172284 156 126 95
-0.000250623 -2.37748e-05 0.000179163 157 127 96
-0.000253278 -2.60355e-05 0.000183316 160 133 102
-0.000260579 -3.6523e-05 0.000209973 156 126 98
-0.000260487 -3.55605e-05 0.000206416 156 128 99
-0.000260414 -3.73354e-05 0.000211643 154 124 95
-0.00024472 -2.26343e-05 0.000188925 160 129 96
-0.000298936 -5.1592e-05 0.000219231 158 132 106
-0.000309633 -5.49162e-05 0.000218533 158 132 106
-0.000248746 -2.95457e-05 0.000212544 156 126 96
-0.000291935 -5.16675e-05 0.000235206 160 134 110
-0.00029959 -5.27092e-05 0.000243765 158 131 104
-7.12708e-05 1.67044e-05 0.000334754 26 24 40
-2.80309e-05 2.89734e-05 0.000381406 60 44 110
-4.28158e-05 2.40847e-05 0.000388785 148 158 204
-3.69755e-05 2.74106e-05 0.000384155 116 133 176
-4.58003e-05 2.22e-05 0.000392311 200 168 208
-2.90223e-05 3.75995e-05 0.000377157 133 89 114
-0.000151262 -1.5254e-05 0.000390366 130 106 82
-5.28017e-05 2.72065e-05 0.000395102 206 150 180
-0.000205987 1.30752e-05 0.000200069 156 128 94
-0.000245772 -3.5246e-05 0.000328672 178 148 118
-0.000195397 -1.21158e-05 0.000323427 118 90 63
-0.000204064 -1.49435e-05 0.000321681 56 60 78
-5.67488e-05 3.06035e-05 0.000401562 162 112 118
-5.0727e-05 3.9031e-05 0.000389652 183 131 147
-0.0001857 -9.54689e-06 0.000350655 47 67 124
-0.000194683 -7.74024e-06 0.00033026 108 97 96
-3.90223e-05 5.02852e-05 0.000387663 152 140 124
-0.000245559 -2.94228e-05 0.000330618 176 147 113
-0.000153463 1.54622e-05 0.000322521 166 136 102
-0.000194867 -1.37941e-05 0.000392439 55 103 184
-5.44153e-05 5.10723e-05 0.00039259 52 36 44
-4.62642e-05 5.60978e-05 0.000389386 122 114 112
0.00044066 7.02491e-05 0.00139034 206 209 223
0.00487918 0.000903848 0.00742866 234 196 226
0.00530568 0.00149577 0.00808378 160 148 144
0.000975958 0.000363876 0.00206331 158 141 127
0.000588334 0.000239329 0.00167515 131 94 92
-1.10623e-05 0.000113935 0.000415705 166 130 90
0.0007817 0.000408732 0.00191701 124 69 75
0.000548477 0.000334515 0.00154097 130 82 88
0.50116 0.232685 0.862228 224 212 176
0.0184018 0.00876747 0.0331295 224 212 178
-0.000237182 -7.72078e-05 0.000200978 186 180 176
-0.000272544 -8.30238e-05 0.000205765 176 170 162
-0.000273383 -8.58758e-05 0.000210722 189 184 180
-0.000239859 -4.57431e-05 0.000180671 184 176 167
-0.000244201 -4.92168e-05 0.000184969 182 174 166
-0.000249108 -5.35939e-05 0.000192196 184 177 170
-0.000252808 -6.69728e-05 0.000221113 190 182 178
-0.000248921 -2.57258e-05 0.000167006 165 161 154
-0.000254797 -3.54715e-05 0.000190247 173 168 162
-0.00025801 -4.22888e-05 0.00020775 176 171 167
-0.000252701 -2.49115e-05 0.000180869 160 132 100
-0.000255629 -2.71911e-05 0.000184868 164 137 104
-0.000258412 -3.27772e-05 0.000199994 154 123 92
-0.000257839 -3.47185e-05 0.000205601 155 126 96
-0.000260011 -3.71299e-05 0.000212054 156 126 96
-0.000244442 -2.32904e-05 0.000191751 158 128 95
-0.000244435 -1.3461e-05 0.000165986 144 116 86
-0.000298272 -5.15624e-05 0.000229068 162 136 110
-0.00023747 -2.65887e-05 0.000237481 166 134 106
-0.000204143 -2.90554e-05 0.000315298 126 105 108
-0.000145374 -1.64631e-05 0.000394108 128 107 102
-0.000209156 6.5098e-06 0.000204322 155 125 90
-0.000199383 1.32214e-05 0.000211117 161 132 96
-0.000207488 -1.48449e-05 0.000316658 64 66 86
-0.0001626 2.08335e-05 0.000264144 142 126 106
-0.000183448 -7.80396e-06 0.000356582 54 74 132
-0.000162441 1.54579e-05 0.000297463 174 144 109
-0.00016109 1.27038e-05 0.000322399 174 144 108
0.00172487 0.000248591 0.00314794 239 185 217
0.000909025 0.000117624 0.00204943 228 230 239
-0.000141399 3.28433e-05 0.000293019 138 130 132
-0.000237885 -1.92341e-05 0.000327852 152 127 102
-6.30625e-05 4.31683e-05 0.000430129 176 146 112
0.000483412 8.79136e-05 0.00147105 208 204 208
0.000772924 0.000467957 0.00180523 161 168 152
-0.000250541 -2.98692e-05 0.000198194 146 116 82
-0.00025609 -3.59788e-05 0.000212289 150 122 92
-0.000252705 -3.42585e-05 0.000224652 152 122 94
-0.000216056 -3.709e-05 0.000276558 151 120 92
-0.000287341 -4.87457e-05 0.000240214 156 128 100
-6.66137e-05 1.14457e-05 0.000345207 46 46 54
-0.000226996 -1.45063e-06 0.000181747 156 128 96
-0.000225908 -1.96029e-05 0.0002687 173 142 112
-0.0002763 -4.29843e-05 0.00027876 165 135 104
-5.29734e-05 2.25182e-05 0.000398556 213 159 190
-0.000188234 -1.57008e-05 0.000349579 38 40 60
-0.000198318 -1.74039e-05 0.00034666 18 34 76
-0.000128971 7.24416e-05 0.000273845 158 126 88
0.00157857 0.000833551 0.0030623 213 205 165
-0.000187393 2.53498e-05 0.000701387 183 147 109
4.25901 2.47309 6.3115 184 146 100
-0.000251278 -4.61689e-05 0.000176704 180 173 165
-0.000250261 -2.87991e-05 0.000175473 164 158 152
-0.000249261 -3.01754e-05 0.000179927 165 158 150
-0.000259842 -4.06338e-05 0.000201155 170 166 162
-0.000262663 -3.99868e-05 0.000201853 164 161 156
-0.000299091 -5.12937e-05 0.000210228 162 152 140
-0.000288285 -4.90094e-05 0.000221823 160 138 112
-0.000253408 -3.25269e-05 0.00021884 150 119 90
-2.76981e-05 4.97352e-06 0.000405806 157 126 98
-8.8571e-05 -3.39132e-05 0.000520833 32 24 34
-0.000247226 -3.99001e-05 0.000311385 170 140 112
-0.000195109 -2.61004e-05 0.000395668 78 118 187
-0.000136638 -2.43871e-05 0.000514573 76 116 185
-0.000194727 -2.19438e-05 0.000390759 97 134 192
-7.98829e-05 4.00908e-05 0.000349923 153 142 130
-0.000129229 -1.34832e-05 0.000504307 66 109 184
-0.000122582 -1.00708e-05 0.000499473 48 90 168
-2.29516e-05 5.30103e-05 0.00043951 94 67 44
-0.000143054 -1.04382e-05 0.000510525 156 124 98
-0.000100315 4.28658e-05 0.000357556 168 137 100
-9.01507e-05 5.10787e-05 0.000351958 37 25 30
-0.000189546 1.8043e-06 0.00040448 164 129 92
-3.71811e-05 8.39041e-05 0.000454797 166 134 98
-0.000232672 -7.88603e-05 0.000205552 182 176 172
-0.000256821 -0.000102406 0.000242001 188 180 176
-0.000239125 -4.30146e-05 0.00017519 176 170 160
-0.000240554 -2.08581e-05 0.000160423 154 152 146
-0.000262193 -4.38221e-05 0.000207962 166 162 155
-0.000257855 -3.10107e-05 0.000195182 144 114 84
-4.98312e-06 2.57539e-05 0.000399119 32 20 42
-8.67028e-05 5.17379e-06 0.000362393 164 138 104
-0.000257692 -4.09941e-05 0.000301264 167 137 106
-0.00024747 -4.123e-05 0.000317185 166 136 106
-0.000220851 -3.35559e-05 0.000333028 60 68 86
-0.000174991 -1.88922e-05 0.000353258 143 115 124
-8.96774e-05 4.90546e-05 0.000367395 163 131 93
-7.17031e-05 7.36943e-05 0.000383031 160 126 85
0.000296565 0.000253281 0.00109236 43 50 45
0.000776812 0.000461007 0.00184822 98 103 84
-0.000188914 7.7398e-05 0.000788125 183 148 110
-0.000126512 -1.21523e-05 0.00050112 63 114 190
-2.09943e-05 -1.17878e-06 0.000404866 166 134 98
-0.000252379 -1.95307e-05 0.000166352 152 123 89
-0.000252491 -2.88253e-05 0.000192078 154 124 88
-0.000260477 -3.64746e-05 0.000208653 160 131 98
-0.000243748 -1.28021e-05 0.000164701 150 120 86
-0.000260909 -3.79515e-05 0.000216972 173 144 110
-0.00023926 -1.69645e-05 0.000189528 164 133 97
-0.000221424 1.11739e-06 0.000177864 155 124 87
-0.000158962 -1.48992e-05 0.000416129 44 76 140
-0.000223915 -4.25391e-07 0.000181627 161 131 96
-0.000213436 -1.03715e-05 0.000250343 171 140 104
-0.000209791 7.91434e-06 0.000196862 156 127 90
-6.76117e-05 3.95873e-05 0.000379979 42 24 21
-0.000169539 2.56159e-05 0.000255514 132 104 72
-0.000154443 5.12931e-05 0.000244888 176 146 105
-6.68499e-05 7.65931e-05 0.000382037 174 142 100
-4.12593e-05 8.1452e-05 0.000437015 176 143 102
-0.000219588 -4.7953e-05 0.000156102 179 172 165
-0.000239061 -3.83763e-05 0.000166548 184 178 168
-0.000244018 -2.58649e-05 0.000210822 163 130 98
-0.000306181 -5.41398e-05 0.000232147 170 140 108
-0.000112309 4.34516e-05 0.000347985 172 139 102
-0.000111095 7.43834e-05 0.000299327 170 138 98
0.000447728 0.000353125 0.000935839 181 146 106
0.000126397 0.000224702 0.000516694 172 135 92
-0.000245052 -5.90877e-05 0.000199373 182 176 170
-0.000249673 -2.35379e-05 0.000161961 158 154 146
-6.14868e-05 -0.00011368 0.0005615 209 212 216
-0.000301975 -5.55222e-05 0.000209686 165 162 157
-0.000306958 -5.63975e-05 0.000208907 176 174 170
-0.000243939 -1.42665e-05 0.000168644 144 117 84
-0.000292131 -4.8689e-05 0.000252884 154 122 95
-0.000204166 -1.34917e-05 0.00028321 168 138 104
-0.000185408 1.6837e-06 0.000279514 174 143 106
-0.000163372 8.49311e-06 0.000318817 169 139 102
-0.000145008 1.38449e-05 0.000351963 172 142 104
-0.000122769 6.22446e-05 0.000297769 165 134 97
-0.000254473 -2.0963e-05 0.00016833 157 128 94
-0.000250101 -2.82453e-05 0.000193661 153 123 89
-0.000244389 -2.06296e-05 0.000183676 158 128 96
-0.000304517 -4.97625e-05 0.000209043 154 128 102
-0.00022824 -1.89059e-05 0.000219315 165 135 101
-6.41007e-05 1.38318e-05 0.000347097 40 38 50
2.4265e-05 2.12254e-05 0.000452624 29 21 30
-0.000265808 -4.19328e-05 0.000292721 165 134 105
-4.32462e-05 3.11438e-05 0.000374256 89 94 128
-0.000238787 -3.8898e-05 0.000348017 176 146 114
-0.00020452 1.25354e-05 0.000203932 164 134 100
7.61783e-05 0.000110004 0.000643271 179 146 110
-0.000251092 -2.14649e-05 0.000155613 158 154 147
-0.000246684 -2.50849e-05 0.000195143 156 126 92
-0.000311674 -5.23681e-05 0.000210571 155 129 103
-0.00030152 -5.08193e-05 0.000235699 153 124 97
-0.000224947 -1.74464e-05 0.000228698 164 133 100
-6.02715e-05 9.21214e-06 0.000354402 88 81 84
-0.000200223 1.38301e-05 0.000207234 166 138 104
-3.3962e-05 8.77822e-05 0.00044951 158 125 86
0.000111103 0.000195588 0.000581516 178 144 104
-0.000266578 -4.63274e-05 0.000212517 174 168 162
-0.000269869 -4.81118e-05 0.000215368 177 173 168
-0.000272134 -4.61205e-05 0.000210813 170 166 162
-0.000271812 -4.79933e-05 0.000217175 170 164 160
-0.000299204 -5.51146e-05 0.000213945 166 162 158
-0.00025304 -2.81139e-05 0.00018945 157 127 96
-0.000253062 -2.63325e-05 0.000184669 158 131 100
-0.000301723 -5.22459e-05 0.000217859 158 133 106
-0.000331453 -5.84545e-05 0.000207064 148 120 92
-0.00024637 -2.08027e-05 0.000181546 153 124 92
-0.000269145 -3.49078e-05 0.000208865 156 124 96
-0.000264302 -3.3791e-05 0.00021052 156 125 96
-0.000208227 -3.72612e-05 0.000285051 160 129 100
-0.00024126 -2.91819e-05 0.000242664 162 131 102
-0.000240094 -2.82501e-05 0.00023931 162 132 102
-0.000109583 -3.45847e-06 0.000326582 156 132 106
-8.48365e-06 1.68585e-05 0.000418738 30 20 34
-2.08859e-06 1.66717e-05 0.000431201 24 16 21
-3.85116e-05 2.68647e-05 0.000361206 41 32 77
-0.000163531 -3.23359e-05 0.000403662 44 52 76
-0.000274342 -4.05451e-05 0.000269338 166 136 108
-0.000260325 -4.01157e-05 0.000288946 165 136 108
-0.000253503 -3.89902e-05 0.000294701 169 138 112
-0.000259052 -3.81999e-05 0.000283187 170 140 112
-0.00028075 -4.1708e-05 0.000264228 167 138 109
-0.000213405 -1.19197e-05 0.000257335 168 136 106
-0.000107014 1.89632e-05 0.000309288 42 31 76
-0.000201541 -1.74209e-05 0.000330176 50 47 58
-0.000198164 -1.27764e-05 0.000327601 71 70 88
-0.000147382 2.48385e-05 0.00026422 166 136 100
-0.00011991 3.36437e-05 0.000281675 165 136 98
0.000816581 0.000128716 0.00174107 73 96 148
-0.000161887 2.11307e-05 0.000264837 106 76 50
0.00173739 0.0002563 0.00307592 208 158 194
-2.776e-05 5.16447e-05 0.00040298 182 168 158
6.33737 0.961115 9.05512 237 173 214
-0.00015513 1.42577e-05 0.000327735 175 145 111
-0.00018001 2.6536e-05 0.000231897 176 144 106
-6.85427e-05 5.11971e-05 0.000387367 143 114 88
-6.99617e-05 5.61553e-05 0.00036202 142 130 128
-6.47607e-05 6.042e-05 0.000373952 42 24 25
0.00279302 0.000785578 0.0051202 208 202 196
0.000987974 0.00036554 0.00207022 134 112 92
0.000492517 0.000192784 0.00161102 168 126 110
0.00163634 0.000555741 0.0031249 176 150 140
-0.000197182 1.69052e-05 0.000419974 184 142 166
0.00377149 0.00141526 0.00600773 93 68 50
0.000826867 0.000397744 0.00191348 116 66 79
4.99926e-05 0.000110184 0.000845737 131 90 88
4.72266 1.81476 7.4921 125 70 72
6.27741 2.48505 9.86973 129 74 80
0.0016498 0.000856192 0.00316531 213 203 161
0.0010924 0.000660971 0.00255563 206 198 160
0.00900866 0.00444248 0.0159642 212 202 166
0.00470169 0.0024059 0.00883401 216 206 172
-0.000244532 -5.46534e-05 0.000196651 178 172 164
-0.000270377 -6.93843e-05 0.000218449 170 162 154
-0.000250735 -2.55615e-05 0.000165704 158 154 148
-0.000291416 -5.47169e-05 0.000217273 176 172 168
-0.000283775 -4.6811e-05 0.000202715 168 164 158
-0.000224323 -1.79693e-05 0.000185604 143 116 86
-0.000252687 -2.19882e-05 0.000170431 147 119 90
-0.000284872 -4.05193e-05 0.000197661 152 126 98
-0.000271099 -3.5455e-05 0.000208517 152 122 93
-5.72668e-05 3.51121e-06 0.000375747 157 130 98
-0.000155993 -1.72515e-05 0.00037825 109 88 84
-5.05278e-05 2.14396e-05 0.000393607 206 162 198
-0.000195024 -1.97235e-05 0.000328185 110 90 80
-3.692e-05 3.19932e-05 0.000377189 96 84 117
9.70288e-05 0.000140385 0.000908513 147 90 74
0.000116975 0.000180725 0.000825646 187 185 156
0.000537017 0.000403621 0.00105342 173 136 96
0.00110889 0.000682299 0.00266153 216 203 168
-0.000266141 -9.37079e-05 0.000222654 188 181 176
-0.00028299 -9.5421e-05 0.000220788 172 163 154
-0.000301406 -9.81628e-05 0.000222217 176 168 164
-0.000260935 -9.0906e-05 0.000221732 190 184 179
-0.000249722 -3.25765e-05 0.000144266 165 158 149
-0.000252524 -2.13998e-05 0.000150596 153 149 144
-0.00032987 -6.38842e-05 0.000209474 176 172 168
-0.000308147 -5.43418e-05 0.000217641 158 131 105
-0.000161986 2.20465e-05 0.000247177 159 130 91
-0.000262437 -8.573e-05 0.00021181 185 179 174
-0.00024552 -3.90216e-05 0.000161347 170 162 154
-0.00030911 -7.75135e-05 0.00021596 182 174 168
-0.00030997 -5.47376e-05 0.000225033 158 131 105
-4.98071e-05 1.15266e-05 0.000359695 54 52 57
-7.56324e-05 1.17095e-05 0.00033688 30 30 40
-0.000134485 1.87471e-05 0.000356224 170 140 106
8.86521e-06 -0.000218539 0.000526848 192 186 180
-0.000181903 3.75354e-05 0.000423841 153 106 92
-0.000243577 -4.64401e-05 0.00017795 184 178 170
-0.000257882 -3.39666e-05 0.000203547 162 130 98
-0.000242401 -1.9641e-05 0.000189109 166 136 102
-9.77656e-05 0.000105141 0.000277189 174 142 101
-0.000162792 7.49676e-06 0.000350717 178 146 110
-0.000250372 -2.89725e-05 0.000175031 164 158 152
-0.000306933 -5.35833e-05 0.000217465 160 134 108
-0.000317288 -5.54261e-05 0.000222101 159 130 102
-0.000259222 -4.03014e-05 0.00030975 172 140 108
0.11912 0.0230452 0.201041 181 152 128
-0.000153876 -8.33737e-05 0.000415631 212 214 219
-0.000217017 -8.55659e-05 0.000175964 184 176 172
-0.000220672 -9.67153e-05 0.000194658 184 180 176
-0.00021843 -9.61849e-05 0.000194093 180 176 172
-0.000250894 -0.000112794 0.000218353 180 173 167
-0.000268643 -0.000118975 0.000227433 188 180 172
-0.000288436 -0.000122343 0.000231885 192 186 180
-0.000235058 -0.000105078 0.000209968 189 184 180
-0.000247986 -0.000110224 0.000217992 192 186 182
-0.00025756 -8.50187e-05 0.000214473 186 179 176
-0.000322976 -7.93712e-05 0.000217367 187 179 174
-0.000267248 -4.02709e-05 0.000214916 154 126 98
-0.00024478 -2.51763e-05 0.000197716 153 123 92
-0.000293425 -5.2334e-05 0.000247068 166 138 110
-0.000257569 -3.1352e-05 0.000228936 162 131 102
-4.88434e-05 1.48908e-05 0.000358109 40 40 49
-0.000224281 -3.38971e-05 0.000315097 52 56 78
9.79261e-05 4.78043e-05 0.000461541 22 17 28
-0.000253618 -2.83511e-05 0.000290184 88 124 188
-0.000148976 2.75042e-05 0.000250737 158 129 93
-0.000323519 -4.51642e-05 0.000281475 184 150 110
0.00682889 0.00122779 0.010711 234 166 209
0.000893585 0.000407215 0.00204069 186 174 168
0.000938259 0.000549288 0.00211364 218 206 166
0.00148746 0.000805324 0.00302056 218 206 164
0.000584479 0.000396517 0.00161802 217 204 162
-0.000219643 -9.36167e-05 0.000193884 186 178 174
-0.000233649 -7.11554e-05 0.000191521 175 167 158
-0.000244114 -4.60634e-05 0.000178022 179 171 162
-0.000309413 -5.92272e-05 0.00021362 176 170 166
-0.00024938 -2.46373e-05 0.00016696 154 152 146
-0.000248308 -2.52714e-05 0.000193897 154 124 91
-1.82852e-05 1.32145e-05 0.000421951 127 104 79
0.000629619 0.000407196 0.00160094 206 200 166
0.00257166 0.00140493 0.00533564 212 202 167
-0.000218219 -9.43759e-05 0.00019118 172 164 156
-0.000230459 -0.000105345 0.000209576 186 180 176
-0.000232244 -5.95603e-05 0.000176721 170 163 156
-0.000247469 -5.71028e-05 0.000200676 181 174 166
-0.000241014 -4.74412e-05 0.000183016 180 172 163
-0.000259105 -6.18647e-05 0.000211123 184 178 170
-0.000257298 -4.19755e-05 0.000198702 160 152 142
-0.000320055 -6.13834e-05 0.000211072 176 170 166
-0.00021008 -3.44567e-05 0.000339794 56 59 80
-0.000199629 -1.37259e-05 0.000294134 169 139 105
-8.98137e-05 2.88799e-05 0.000371663 170 138 106
-0.000189849 8.21121e-06 0.000462737 188 156 118
-0.000270009 1.49787e-05 0.000435327 191 156 114
-4.1319e-05 1.68606e-05 0.000391565 128 100 126
-5.84214e-05 5.52137e-05 0.000400562 164 133 96
-0.000176439 -3.20301e-06 0.00048001 186 154 115
-0.000192863 1.52317e-05 0.000420167 175 132 110
-0.000228858 -5.38818e-05 0.000159962 178 172 165
-0.000241974 -4.76004e-05 0.000177728 189 184 174
-0.000268218 -4.73409e-05 0.000213411 183 178 172
-0.000272706 -5.05528e-05 0.000218263 178 173 168
-0.000197574 2.46422e-05 0.000200314 178 148 106
-0.000240533 -4.94558e-05 0.000186395 190 182 175
-0.000217532 -0.000101609 0.000199411 182 177 173
-0.000216805 -9.66424e-05 0.000196211 188 182 178
-0.000245794 -3.61309e-05 0.000322979 172 140 106
0.00140985 0.000513211 0.00301526 156 87 106
-0.000214302 -9.91653e-05 0.000196568 186 180 176
-0.00026126 -0.000109898 0.000214284 190 184 178
-0.000259624 -0.00010941 0.000213653 188 182 178
-0.000277428 -8.61937e-05 0.000209883 186 179 174
-0.00027921 -8.42858e-05 0.000205733 190 182 178
-0.000217954 -5.46742e-05 0.000279888 171 166 162
-0.00029047 -5.082e-05 0.000225039 160 134 108
-0.000211378 -6.50349e-05 0.000353666 166 148 130
-0.000160152 -4.27283e-05 0.000363368 152 121 92
-0.000241075 -2.80927e-05 0.000239306 150 122 92
-0.000244545 -4.26796e-05 0.000326924 168 136 106
-0.000245586 -3.73416e-05 0.000302894 166 136 108
0.000606425 0.000439569 0.00117857 168 134 96
-0.000215419 -6.18423e-05 0.000338851 208 208 214
-0.000256933 -3.26313e-05 0.000200408 142 114 85
0.00196043 0.00064175 0.00372285 186 166 156
-0.000177877 5.20379e-05 0.000403855 220 210 172
-0.000144281 8.96921e-05 0.000365239 171 136 97
-0.000162814 9.2308e-05 0.000383198 183 147 105
-0.000193073 1.82358e-05 0.000420112 170 122 120
-0.000245308 -5.18727e-05 0.00019013 185 178 170
1.24559 0.433194 2.10932 178 110 127
-0.000272852 -8.1428e-05 0.000198212 182 176 170
-0.000196867 -0.000117125 0.000283754 182 178 172
-0.000253983 -5.39691e-05 0.000191405 177 170 162
-0.000271453 -6.20571e-05 0.000203694 182 176 168
-0.000323612 -6.0799e-05 0.000205363 172 168 162
-0.000291058 -6.01867e-05 0.000231984 166 160 154
-0.000285945 -5.67276e-05 0.000226298 170 164 160
-0.000253272 -3.66908e-05 0.00019649 156 149 142
-0.000287322 -5.1369e-05 0.000220786 162 152 146
-0.000300629 -4.70743e-05 0.000202171 162 134 108
-0.000246766 -3.63963e-05 0.000224012 144 118 88
-0.000253768 -3.43601e-05 0.000210514 147 119 90
-0.000290168 -4.99859e-05 0.000231295 156 128 102
-0.000181073 -7.24063e-05 0.000440258 155 126 100
-0.00022513 -5.99448e-05 0.000346147 153 125 98
-0.000242994 -3.57629e-05 0.000242127 152 120 90
-0.0002707 -4.56425e-05 0.000280942 168 138 107
-3.58519e-05 2.20001e-05 0.00035806 13 14 26
-0.000242071 -4.91713e-05 0.000360481 164 134 103
-0.000247837 -4.44098e-05 0.000330944 165 135 104
-0.000263462 -4.14954e-05 0.000292782 164 134 103
-0.000226413 -4.28538e-05 0.000357445 170 140 108
-0.000235247 -3.66531e-05 0.000317167 165 132 102
-0.00019293 -3.58516e-05 0.000382199 62 64 80
-0.00011436 -1.50779e-05 0.000487415 48 58 93
-4.07194e-05 3.9821e-05 0.000408244 133 101 78
-0.000137933 -1.11241e-05 0.000504595 59 102 176
-0.000182846 5.65137e-06 0.000295031 164 134 98
-0.000143158 -5.36273e-06 0.000473347 56 94 166
-0.000150022 -5.12423e-06 0.000458082 54 94 164
-0.000136661 -2.87331e-06 0.000477453 58 97 172
-0.000142888 -1.96848e-06 0.000462181 50 86 159
-0.000123838 4.92275e-07 0.000490765 56 95 168
-7.36165e-05 8.63491e-06 0.000574806 56 97 168
-0.000112285 -1.634e-06 0.000546534 136 111 94
0.000163904 4.52896e-05 0.0010073 154 122 94
1.15841 0.170913 1.99866 153 122 98
-3.85757e-05 6.45322e-05 0.000394543 56 36 40
-0.000140661 3.59021e-05 0.000318443 160 130 94
2.89367 0.648073 5.05562 165 134 95
-0.000275302 -2.59051e-05 0.000487079 180 146 108
1.61871 0.538773 2.78775 158 91 98
-6.39637e-05 1.37329e-05 0.000400119 172 143 107
-0.000241963 -3.87491e-05 0.000164001 180 173 163
-0.000254756 -2.80507e-05 0.00018878 152 122 88
-0.000119333 -7.01176e-06 0.000321099 162 132 96
-0.000231319 -4.8532e-05 0.000152514 171 164 157
-0.000237211 -4.68831e-05 0.000159212 174 167 159
-0.000246059 -4.35432e-05 0.000175932 178 173 164
-0.000244446 -7.28069e-05 0.000178552 160 154 146
-0.000293386 -8.20999e-05 0.000194999 196 188 184
-0.000247017 -6.81686e-05 0.000182475 186 180 174
-0.000301838 -5.90473e-05 0.000221201 180 176 171
-0.00026018 -3.2317e-05 0.000196142 149 119 86
-0.00024019 -3.75067e-05 0.000337548 179 146 114
-1.97602e-05 3.51115e-05 0.000394636 96 106 140
-0.000155096 -6.94322e-06 0.000470798 120 102 96
5.43597e-05 0.000172512 0.000501402 177 142 102
-0.000221757 -8.64365e-05 0.000194387 180 172 164
-3.99345e-06 0.000140106 0.000452214 168 135 97
-0.000301009 -5.41346e-05 0.000209385 170 167 162
-0.000252116 -2.29151e-05 0.000175803 150 122 90
-0.000251103 -2.43426e-05 0.000162801 158 152 146
-9.5706e-05 -2.25644e-05 0.000480195 100 98 116
-0.000259552 -6.08488e-05 0.000578376 188 154 115
-0.000247868 -5.60837e-05 0.000164473 178 172 166
-0.000255267 -4.55047e-05 0.000189103 178 170 162
-0.000245848 -1.98064e-05 0.000156737 152 149 143
-0.000244043 -4.2113e-05 0.000327896 177 144 108
-0.000222297 -1.53908e-05 0.000254066 166 133 98
-0.000101715 4.21393e-05 0.000355176 165 132 100
1.38224e-05 9.63375e-05 0.000560786 184 150 110
-0.000294161 -8.28325e-05 0.000196432 190 182 178
-6.53569e-05 2.07741e-05 0.000656214 172 134 92
-0.000276248 -4.87522e-05 0.000271839 154 122 92
-0.000215914 -4.10643e-05 0.000413401 172 138 102
-6.92424e-05 1.08948e-05 0.00059964 115 94 84
-0.000295472 -8.75277e-05 0.000172267 187 179 175
-0.000252464 -2.45208e-05 0.00018016 154 128 94
-0.000247438 -3.78914e-05 0.000303058 164 132 98
-0.000307489 -5.59781e-05 0.000240742 152 122 94
-5.20472e-05 1.53752e-05 0.000357545 31 27 38
-0.000216043 -1.51149e-05 0.000262862 160 129 96
-0.000138474 -1.04167e-05 0.000501323 55 100 179
-2.08856e-05 -0.000269324 0.000678387 197 194 189
-1.27144e-05 -0.000260804 0.000657622 187 182 178
3.75418e-05 -0.000235634 0.000637763 200 197 193
4.4778e-05 -0.000234175 0.000643729 200 196 192
1.51189e-05 -0.000241268 0.000646747 202 198 194
2.81192e-05 -0.000234343 0.000637591 200 197 193
3.1404e-05 -0.00023299 0.000637333 201 198 194
5.62644e-05 -0.000224887 0.000627647 192 189 184
3.62964e-05 -0.000230118 0.000635403 200 198 192
4.86422e-05 -0.000224285 0.000630797 195 191 186
5.57016e-05 -0.00021733 0.000612599 196 192 188
6.03417e-05 -0.000215238 0.000611548 198 196 190
8.87442e-05 -0.000207211 0.000609395 197 194 189
9.56619e-05 -0.000203837 0.000604963 196 194 188
0.000110802 -0.000196154 0.000600607 190 188 182
0.000105971 -0.000193854 0.000605164 195 191 186
0.000120278 -0.000188605 0.000611607 186 182 175
0.000181696 -0.000165766 0.000575468 184 180 176
-8.89111e-05 -0.000227641 0.000700931 200 194 190
-7.02864e-05 -0.000212544 0.000686369 200 196 192
-2.8143e-06 -0.000176737 0.000669375 199 196 191
2.48855e-05 -0.000161929 0.000655843 196 192 188
3.51948e-05 -0.000155941 0.000650994 192 187 182
5.4882e-05 -0.000145256 0.000641517 196 192 188
6.9169e-05 -0.000138452 0.000640456 190 186 182
7.09005e-05 -0.000136839 0.000634927 194 188 184
0.000148103 -9.57767e-05 0.000595965 190 184 176
-6.30897e-05 -0.000131938 0.000695152 184 182 180
-3.0176e-05 -0.000113237 0.00068251 182 182 179
2.81558e-06 -9.42641e-05 0.000682908 182 182 178
1.23269e-05 -8.90843e-05 0.000685391 170 170 164
2.07541e-05 -8.42428e-05 0.000677597 181 181 176
3.31293e-05 -7.75569e-05 0.0006629 180 181 176
3.9702e-05 -7.38557e-05 0.000651871 174 176 170
5.12258e-05 -6.7559e-05 0.000660483 175 176 172
-4.87038e-05 -9.47324e-05 0.000648152 162 130 100
-9.82043e-05 -0.000106262 0.000646548 178 147 112
-1.72375e-05 -7.25124e-05 0.000703788 172 142 110
-7.44988e-05 -9.03015e-05 0.000659646 169 139 105
-4.63316e-05 -8.67511e-05 0.000591441 175 148 116
-6.97653e-06 -7.06351e-05 0.000617695 170 141 110
-2.23655e-05 -6.64529e-05 0.000674733 172 146 114
-1.55901e-05 -6.51872e-05 0.000639677 170 144 114
1.355e-05 -5.69476e-05 0.000633351 170 140 109
-8.58087e-05 -0.000103384 0.000492116 224 232 249
-6.96127e-06 -5.96733e-05 0.000636441 177 151 120
2.16889e-05 -5.27814e-05 0.000622393 164 134 104
-8.19318e-05 -0.000102386 0.000480285 213 216 222
-1.98313e-05 -4.71589e-05 0.000636805 177 147 116
-1.79827e-05 -4.72889e-05 0.00061964 178 148 116
-0.000241361 -0.000118342 0.000604816 192 160 122
-8.46135e-06 -4.11219e-05 0.000620897 168 137 106
-6.26513e-06 -4.04868e-05 0.000613045 168 138 105
-4.30763e-06 -3.9077e-05 0.000615999 168 137 104
6.76156e-07 -3.57554e-05 0.000615261 168 138 106
7.7269e-06 -3.12533e-05 0.000618213 166 136 104
1.65715e-05 -2.48514e-05 0.000626327 162 132 99
-2.83701e-05 -3.84805e-05 0.000609661 188 160 128
-5.70972e-05 -5.5511e-05 0.00050438 178 146 116
6.48676e-05 2.72628e-06 0.000590898 154 124 88
-0.000270531 -0.000113191 0.000554771 192 156 112
-0.00013973 -7.732e-05 0.000514894 173 138 102
-0.000136898 -8.02694e-05 0.000493124 170 134 98
-0.000132099 -7.37769e-05 0.000506537 172 139 104
-0.000209516 -7.69046e-05 0.000588593 183 148 110
-5.99581e-05 -3.36029e-05 0.000534059 126 106 82
-0.000239045 -7.2719e-05 0.000599358 189 156 116
-0.000282726 -0.000101265 0.00053013 200 164 116
-3.94968e-05 -1.42509e-06 0.000599769 136 114 90
-0.000288213 -9.17953e-05 0.000564801 202 166 118
-0.000146744 -4.70285e-05 0.000551399 186 152 114
-0.00028208 -8.74008e-05 0.000562928 206 171 123
-0.000277756 -8.29028e-05 0.000564138 202 166 120
-0.000269007 -7.89263e-05 0.000556184 203 166 121
-0.000263825 -7.47822e-05 0.000556082 201 166 120
-0.000252025 -5.91711e-05 0.000569304 200 166 124
-0.000150793 -1.84488e-05 0.000514079 196 162 121
-7.73785e-05 2.91664e-06 0.000501748 144 116 86
3.98139e-05 4.55681e-05 0.000498879 172 142 104
-0.000115966 -1.17007e-05 0.000488501 28 68 140
-2.31589e-05 -4.84981e-06 0.00041009 167 138 98
-0.000112025 -4.37627e-06 0.000491331 57 108 182
-0.000111588 -5.95087e-06 0.000483663 72 132 194
-0.000141405 -9.28082e-06 0.000499511 150 134 112
-0.000115157 -4.29221e-06 0.000487462 65 106 183
-0.000136817 -5.14575e-06 0.00049866 106 104 118
-4.85709e-06 1.04552e-05 0.000417649 165 135 97
-0.000145127 -2.04922e-06 0.000511173 186 153 113
-0.000224021 4.17445e-05 0.000390638 201 168 126
-0.000156762 7.77663e-05 0.000340348 183 150 110
-0.000297462 5.94653e-05 0.000339338 193 164 124
-9.54961e-05 0.000110505 0.000326458 168 132 90
-6.03658e-05 5.53189e-05 0.000405247 178 146 107
-9.50778e-05 -0.000106284 0.000488383 229 236 245
-0.00025246 -4.78356e-05 0.000145329 180 172 160
-0.000254733 -4.6157e-05 0.000144757 178 172 166
-0.000253644 -4.58805e-05 0.000146128 178 172 166
-0.000255696 -3.73972e-05 0.000134564 175 168 162
-0.000256356 -3.83305e-05 0.000136752 177 170 164
-0.000256629 -3.73338e-05 0.000135299 176 168 162
-0.000255787 -3.71467e-05 0.000135188 176 170 164
-0.000249047 -4.42055e-05 0.000145553 177 170 164
-0.000256086 -3.63524e-05 0.000135377 175 168 162
-0.000256727 -3.5126e-05 0.000136074 174 168 162
-0.000254873 -3.50513e-05 0.000137439 172 165 159
-0.000252854 -3.24184e-05 0.000141156 175 168 160
-0.00025336 -3.13093e-05 0.000141664 175 168 160
-0.000253186 -3.08095e-05 0.000142399 170 163 153
-0.000247767 -3.1084e-05 0.000145518 179 172 162
-0.000247915 -3.08679e-05 0.000145943 176 170 160
-0.000246832 -2.98363e-05 0.00014765 178 170 160
-0.00024796 -3.17906e-05 0.000150583 182 174 164
-0.000253298 -2.77732e-05 0.000144872 178 171 161
-0.000255665 -1.56688e-05 0.000141238 155 152 146
-0.000250052 -2.02572e-05 0.000154209 162 158 149
-0.000248943 -1.21002e-05 0.00014848 141 112 74
-0.000252875 -2.30581e-05 0.00017615 165 135 97
-0.000246367 -1.23874e-05 0.000153769 154 128 88
-0.000260055 -3.57608e-05 0.000206815 160 128 92
-0.000268508 -4.60609e-05 0.000229975 202 190 177
-0.000271744 -4.7956e-05 0.000233592 169 138 106
-0.000246178 -2.18928e-05 0.000185239 166 136 98
-0.000248402 -2.3581e-05 0.000188672 166 135 97
-0.000247294 -2.34311e-05 0.000188724 162 132 94
-0.000242196 -1.03915e-05 0.000158897 154 124 86
-0.000249056 -2.47599e-05 0.00019153 162 131 93
-0.000246712 -2.24956e-05 0.000190174 164 132 94
-0.000239329 -7.22902e-06 0.000159673 156 128 89
-0.000250592 -3.27974e-05 0.000220529 164 132 94
-0.000253073 -3.35298e-05 0.000221381 166 133 96
-0.000236016 -2.06372e-05 0.000202383 172 142 104
-0.000225683 2.01157e-06 0.000169646 152 122 84
-0.000227528 2.22185e-06 0.000166566 150 120 82
-0.000217165 2.15532e-06 0.000177196 152 122 84
-0.000224613 -7.88052e-07 0.000182503 174 144 106
-0.00021556 7.87989e-06 0.000179192 161 130 90
-0.000213428 -8.2957e-06 0.000240847 178 146 106
-0.000216872 -7.85633e-06 0.00023435 175 142 102
-0.00019535 1.39051e-05 0.000214636 171 141 97
-0.000178636 1.43457e-05 0.000237611 145 139 138
-0.000216098 -2.28403e-05 0.000362262 78 132 218
-0.000194149 -1.31544e-05 0.000385578 78 130 212
-0.000154651 -2.65452e-06 0.000398225 67 113 195
-0.000169916 -1.29271e-06 0.000371036 137 120 110
-0.000161089 1.2665e-05 0.000317945 196 162 120
-0.000153712 1.34919e-06 0.000397724 110 98 91
-0.00015569 2.40309e-06 0.000404683 54 64 114
-0.000133128 7.4081e-06 0.000456859 158 132 106
-0.000149685 2.76892e-05 0.000318507 192 155 113
-0.000113707 4.23533e-05 0.000345316 177 141 100
-9.69052e-05 4.58092e-05 0.000367124 185 150 108
-0.000268974 -5.69946e-05 0.000235344 179 174 169
0.000440975 0.000356989 0.000850975 172 138 96
-0.000252562 -2.13337e-05 0.000171424 158 128 92
-0.000252487 -2.09799e-05 0.000170421 156 126 90
-0.000250757 -2.36219e-05 0.000178461 162 132 96
-0.000253205 -2.48052e-05 0.000180372 164 135 100
-0.000243188 -1.08176e-05 0.000159368 146 116 82
-0.00023769 -1.86356e-05 0.000207478 164 132 96
-0.000111638 3.63834e-06 0.000309575 124 114 114
-5.4079e-05 1.67859e-05 0.000410258 179 147 108
2.78961e-05 0.000114652 0.000495713 160 125 82
-0.000251347 -5.72243e-05 0.000164425 186 180 174
-0.000253472 -2.37211e-05 0.000177871 162 133 97
-0.000257045 -2.89796e-05 0.000190294 154 124 89
-0.000242725 -9.04233e-06 0.000154178 149 120 84
-0.000123869 6.30795e-06 0.000486021 112 104 104
-0.000105781 6.77701e-05 0.000272846 180 150 108
-2.08633e-05 4.41765e-05 0.000702184 187 152 112
2.64342e-05 0.000111755 0.000505665 164 128 86
-0.000248568 -2.76609e-05 0.000142651 169 162 152
-0.000250533 -2.16906e-05 0.000173565 158 128 92
-0.000242435 -1.02185e-05 0.000158411 150 121 86
-0.000235002 -8.48525e-06 0.000175538 148 114 78
-0.000189814 2.68143e-05 0.000198663 172 143 105
-0.000118125 4.12418e-05 0.000347985 171 137 96
-3.05799e-06 9.73272e-05 0.000468696 171 136 94
-7.5019e-06 0.000100228 0.000455548 164 128 84
-0.000249045 -4.08406e-05 0.000189067 184 178 170
-0.000272753 -5.61695e-05 0.000231709 172 168 162
-0.000242987 -9.54905e-06 0.000155468 142 114 79
-0.000196998 -1.06493e-05 0.00029914 176 142 104
0.000839969 0.00014873 0.00251702 182 144 100
-0.000116016 6.0711e-05 0.000311145 174 146 106
-7.73966e-06 8.96464e-05 0.000499916 178 144 102
-0.000267816 -5.49166e-05 0.000232198 176 173 168
-0.000272079 -5.98746e-05 0.000263691 164 136 106
-0.000245622 -1.8167e-05 0.000175184 154 126 90
-0.000261657 -5.00072e-05 0.000264172 163 134 103
-0.000263241 -5.47525e-05 0.00027705 167 138 108
-0.000227374 1.07044e-06 0.000171175 152 121 86
-0.000220361 3.16148e-06 0.000179629 156 127 91
-0.000219772 6.45336e-06 0.000172129 153 124 88
-0.000114841 -2.12595e-06 0.000310191 134 126 124
-0.000220798 -7.38249e-06 0.000227484 167 135 98
-0.000237692 -4.70116e-05 0.000354846 178 145 111
-0.000186149 2.74597e-05 0.000199283 172 142 104
-0.000183659 2.43814e-05 0.000226875 180 150 108
-0.000133661 3.24451e-06 0.000482288 168 142 110
-4.30353e-06 0.000120378 0.000381344 174 142 100
-0.000251474 -2.42175e-05 0.000179902 164 136 100
-0.00024983 -2.58191e-05 0.000194461 158 127 92
0.000847692 0.000346769 0.00178272 217 186 206
-7.89789e-05 9.66876e-05 0.000322937 178 148 106
-0.000238781 -4.16369e-05 0.00014557 178 170 164
-0.000272551 -5.2824e-05 0.000221142 178 174 169
-0.000260339 -3.12393e-05 0.000192347 156 126 90
-0.000241888 -1.44707e-05 0.00016677 156 128 94
-0.000280288 -4.68262e-05 0.000220314 163 133 102
-0.000285801 -4.71682e-05 0.000217632 162 130 98
-0.000246638 -2.28371e-05 0.000187342 156 124 89
-0.000306792 -5.64674e-05 0.000228083 169 141 110
-0.000241713 -1.2299e-05 0.00016508 148 119 85
-0.000289403 -4.94737e-05 0.000232057 164 134 101
-0.000285379 -4.89652e-05 0.000233607 167 138 104
-0.000293116 -4.95421e-05 0.000229629 163 134 102
-0.000274776 -4.83455e-05 0.000246107 168 137 104
-0.0002786 -4.87005e-05 0.00024434 168 136 103
-0.000260554 -4.61088e-05 0.000278297 170 134 99
-0.000246282 -4.22363e-05 0.000324221 172 138 100
-0.00017862 7.06011e-06 0.000291893 178 147 109
-0.000112654 -1.64237e-06 0.000484999 50 84 149
0.000274623 0.000102517 0.00119429 186 152 112
-0.000114171 6.01318e-05 0.000327003 171 139 98
-9.49171e-05 6.55937e-05 0.000351951 170 138 97
-0.000284897 -8.91336e-05 0.000206917 190 184 180
-0.00028272 -8.7766e-05 0.000205399 190 183 180
-0.000281334 -8.68899e-05 0.000204485 189 182 179
-0.000254245 -4.94251e-05 0.000182188 187 180 173
-0.000300019 -7.87404e-05 0.000242374 186 178 172
-0.000264071 -3.35202e-05 0.000196608 157 128 94
-0.000291497 -5.91607e-05 0.000245906 158 130 100
-0.00026587 -4.56315e-05 0.000271179 162 128 95
-0.000226151 7.06306e-07 0.000173919 148 119 84
-0.000248202 -3.96223e-05 0.000308874 169 136 101
0.000245239 5.51018e-05 0.000745298 176 145 108
-0.000130518 -1.36561e-05 0.000469033 50 90 162
-0.000149038 1.26598e-06 0.00043425 62 108 185
-0.000148363 6.45352e-06 0.000427583 150 124 104
-0.000162665 -6.75897e-05 0.000966988 190 154 111
0.000160615 0.000217169 0.000622781 180 146 107
6.79352e-05 0.000187721 0.000472416 161 126 84
-0.000248882 -1.92362e-05 0.00016788 153 123 88
-0.000255663 -2.72479e-05 0.000185101 168 137 106
-0.000274017 -5.08799e-05 0.0002356 162 132 100
-0.000277371 -5.28088e-05 0.0002385 162 132 101
-0.000275392 -5.27486e-05 0.000245994 166 137 106
-0.00027051 -4.85107e-05 0.000249889 171 140 106
-0.000270157 -4.681e-05 0.000245199 166 134 100
-0.000272775 -5.08078e-05 0.000254925 166 134 102
-0.00027952 -5.1959e-05 0.00025298 162 132 100
-0.000243665 -1.87185e-05 0.000201343 167 136 101
-0.000214291 5.4125e-06 0.000200012 126 109 98
-0.000203287 1.14011e-05 0.000213974 90 90 122
-0.000272989 -5.30896e-05 0.000399766 177 142 104
-0.000188073 2.43549e-05 0.000215762 182 152 112
-0.000217585 -9.04938e-05 0.000199802 184 180 175
-0.000227489 -4.33993e-05 0.000150848 174 166 158
-0.000242192 -2.52029e-05 0.000140613 166 158 150
-0.00024138 -2.92824e-05 0.000148893 168 160 150
-0.00025063 -1.62024e-05 0.000143399 150 146 140
-0.000249848 -1.69177e-05 0.000145772 153 150 144
-0.000248536 -2.42506e-05 0.000165545 162 158 148
-0.000244349 -1.09955e-05 0.000158681 143 116 83
-0.000244751 -1.26449e-05 0.000163527 144 117 84
-0.000252337 -2.72356e-05 0.000188166 160 132 98
-0.000228727 -1.31193e-07 0.000173998 142 112 80
-0.000290958 -5.03956e-05 0.000231984 152 125 97
-0.000320343 -5.44674e-05 0.000209198 156 130 100
-0.000306736 -5.69426e-05 0.000246418 152 122 92
-0.000236119 -4.61635e-05 0.000353398 164 131 97
-0.000106705 -5.79638e-06 0.000549833 58 105 184
-0.000117264 -2.83828e-06 0.000517354 53 101 178
0.000145546 6.36462e-05 0.0010483 171 136 96
0.00447837 0.00126892 0.00908488 175 140 102
4.95332e-05 0.000163461 0.000515876 172 140 102
-0.000231395 -4.45554e-05 0.000129048 164 157 151
-0.000235729 -3.45714e-05 0.000135898 166 159 151
-0.00023589 -3.98697e-05 0.000143747 172 165 157
-0.000308916 -7.86949e-05 0.000181755 186 178 176
-0.000243597 -2.56389e-05 0.000141391 168 161 151
-0.000243127 -2.64815e-05 0.000143238 170 163 153
-0.000245594 -2.2796e-05 0.000140132 165 158 148
-0.000247668 -2.08355e-05 0.000157361 158 154 147
-0.000247471 -2.63036e-05 0.000171191 166 158 152
-0.000254539 -1.23879e-05 0.000144405 136 108 76
-0.000249817 -1.80169e-05 0.000163983 146 116 84
-0.000267411 -4.52652e-05 0.000205218 168 164 155
-0.000258604 -3.29794e-05 0.000190453 158 153 146
-0.000242287 -1.30376e-05 0.000166842 144 117 84
-0.000242162 -1.41775e-05 0.000172882 142 112 78
-0.000247832 -2.30757e-05 0.000187621 154 122 88
-0.000248116 -2.72486e-05 0.000197779 158 127 94
-0.000235615 -6.18315e-06 0.000166355 134 103 70
-0.000285584 -4.50248e-05 0.000210508 153 126 96
-0.000315275 -5.91614e-05 0.000212389 173 168 164
-0.000234776 3.23251e-07 0.000164222 143 114 80
-0.00023953 -2.66877e-05 0.000234175 156 126 94
-0.000254974 -3.94784e-05 0.000283022 169 135 98
-0.000114088 -2.15365e-06 0.000458506 60 96 165
-0.000205851 -4.12376e-05 0.000427527 178 144 106
-0.000119958 6.71315e-06 0.000459468 47 86 166
-0.000155464 1.91497e-06 0.000420312 46 92 170
-0.000129817 -5.60792e-06 0.000502423 56 102 182
-0.000135656 -5.17278e-06 0.000488908 52 98 176
-0.000106469 -6.80209e-06 0.000572939 51 62 96
-8.55542e-05 1.2263e-05 0.0005464 63 66 100
-0.000119441 6.2021e-06 0.000500662 92 78 83
-0.000155819 -3.22979e-07 0.000495217 174 138 100
-4.97216e-05 7.71997e-05 0.000436452 160 127 88
-4.92319e-05 8.40061e-05 0.000408974 158 124 84
6.83152e-05 6.93585e-05 0.000777548 174 140 103
4.27537e-05 6.14795e-05 0.000765132 176 142 106
5.27847e-05 6.07449e-05 0.000818245 176 143 105
0.000147961 7.34008e-05 0.00104491 181 147 109
0.000183633 7.74759e-05 0.0011363 179 146 106
0.00014114 6.22e-05 0.00112505 181 146 107
0.000259489 0.000152187 0.0011382 176 142 104
0.00405636 0.00125481 0.00768839 164 128 92
0.524632 0.132549 1.11409 182 148 110
3.29372 0.805514 7.33553 180 146 107
-0.000252284 -2.95125e-05 0.000194872 146 116 86
-0.000294619 -4.85297e-05 0.000213537 154 128 102
-0.000247551 -3.08207e-05 0.000217505 154 123 92
-0.000231565 -1.25692e-05 0.000193486 156 126 90
-0.000236151 1.66574e-06 0.000156986 142 112 80
-0.000227459 2.79149e-06 0.000170532 154 124 92
-0.000259348 -4.72744e-05 0.000283578 156 125 92
-0.000230766 5.91079e-06 0.000163564 148 118 84
-0.000215478 -4.01344e-05 0.000354512 160 130 94
-0.000221926 -4.41301e-05 0.000362355 164 132 96
-0.000232453 -5.28394e-05 0.000384398 164 132 98
-0.000212521 1.92994e-05 0.000188014 174 144 108
-2.30275e-05 1.11308e-06 0.000695585 48 98 176
-0.000142362 7.82178e-05 0.000273314 173 139 102
