ply
format ascii 1.0
element vertex 240
property float x
property float y
property float z
property uchar red
property uchar green
property uchar blue
end_header
-0 -0 -0 0 255 0
-0.00449642 -0.000970306 0.000669665 0 255 0
-0.0063046 0.00101646 -0.00119819 0 255 0
-0.0057162 0.00270205 -0.00615896 0 255 0
-0.00146465 0.00097284 -0.00276794 0 255 0
0.00149349 0.000818109 -0.00103678 0 255 0
0.00154153 -0.00215325 0.0187677 0 255 0
0.00522605 -0.00142937 0.0191888 0 255 0
0.00557466 -0.00149293 0.0197102 0 255 0
0.00506193 -0.0015716 0.0187653 0 255 0
0.00870897 0.00149651 0.0190472 0 255 0
0.017333 0.00478691 0.0205094 0 255 0
0.0173325 0.00478634 0.020509 0 255 0
-0.0492699 0.00980088 -0.140103 0 255 0
1.48403 -1.13873 -2.10313 0 255 0
0.00555829 -0.000583836 0.0213375 0 255 0
0.00332216 -0.000903199 0.0206089 0 255 0
0.00174892 -0.00105933 0.0166268 0 255 0
0.0215544 -0.0239664 0.149095 207 126 80
-0.0308421 -0.0188858 0.137522 34 23 12
0.0184829 -0.018018 0.135986 93 73 54
0.0259403 -0.0180452 0.14141 188 128 76
-0.0297981 -0.0164087 0.134246 190 154 114
0.0164429 -0.015486 0.128508 246 161 77
-0.0307509 -0.0160468 0.135694 188 154 116
-0.035881 -0.0159053 0.137902 18 12 8
0.000748221 -0.0115608 0.102226 122 94 72
-0.0339871 -0.0142801 0.126229 19 14 10
-0.02917 -0.0142766 0.129489 190 156 118
-0.0260669 -0.0119257 0.117879 145 116 85
-0.0347461 -0.0120026 0.132029 22 14 10
-0.0315239 -0.010761 0.126619 27 22 14
-0.0265714 -0.0094571 0.117211 124 96 67
-0.0321165 -0.00686835 0.116776 28 16 12
-0.0309363 -0.00705779 0.121915 10 2 2
-0.0293967 -0.0068947 0.121219 6 6 8
-0.0254173 -0.00673358 0.118334 118 93 70
-0.0278222 -0.00671219 0.118636 8 10 12
-0.0267246 -0.00659565 0.116272 22 22 21
-0.0265483 -0.00668305 0.117292 50 48 42
-0.0239327 -0.00648987 0.114073 145 115 84
-0.0318408 -0.00662948 0.122889 2 3 4
-0.0240949 -0.00524277 0.114263 183 150 116
-0.028975 -0.0034574 0.119659 22 17 18
-0.0138116 -0.0035529 0.123337 192 158 120
-0.028307 -0.00259682 0.116163 55 52 51
-0.0245913 -0.00279275 0.121239 194 160 122
-0.0266239 -0.00200274 0.123721 192 157 118
-0.0283993 -0.00143173 0.121627 174 148 118
-0.000579773 -0.0345136 0.079628 205 202 199
-0.0351372 -0.0154613 0.134174 20 14 12
-0.0309245 -0.0073642 0.0794848 183 151 114
-0.0290895 -0.00673412 0.118559 12 7 6
0.00906605 -0.00799094 0.0933549 143 70 38
-0.0292325 0.00599096 0.138167 197 156 112
0.00264564 -0.0204179 0.106529 186 156 126
0.0230452 -0.0687824 0.285469 192 192 188
0.0017817 -0.0183339 0.094658 188 158 124
0.0182021 -0.0385894 0.194903 184 153 118
-0.0343081 -0.0239025 0.130391 84 83 82
0.0261062 -0.0507388 0.219722 190 186 182
0.0221439 -0.0365754 0.16354 165 130 136
-0.00128399 -0.0204558 0.102245 164 128 96
-0.00336939 -0.0157535 0.0946908 131 70 42
-0.0128531 -0.0169251 0.0550205 200 193 186
-0.012317 -0.0170868 0.0556517 210 202 196
-0.0130812 -0.0110748 0.0566669 187 153 116
-0.0137718 -0.0116838 0.0595562 188 153 116
0.0237197 -0.0257674 0.147697 106 23 32
0.0218367 -0.0191245 0.116092 158 105 82
-0.0349099 -0.023216 0.126548 88 90 90
-0.0349052 -0.0252347 0.138509 186 154 124
0.00448918 -0.011519 0.0753969 186 156 123
0.0178903 -0.0155472 0.107173 219 172 124
-0.0189007 -0.00978095 0.0636488 186 150 112
-0.0442726 -0.025084 0.159614 26 24 22
0.0139834 -0.0107395 0.107666 194 100 50
0.0147742 -0.0109681 0.110968 164 78 37
-0.00280673 -0.00985703 0.0990839 61 58 59
0.00675119 -0.00805713 0.0958719 98 112 126
-0.0417895 -0.0138099 0.149649 26 18 14
-0.0404889 -0.0128798 0.140822 25 18 12
-0.0389264 -0.0127001 0.140558 28 20 14
-0.0157565 -0.00812707 0.0979713 207 177 138
-0.0217304 -0.0068081 0.109194 172 140 106
-0.0230237 -0.00638715 0.112727 190 156 123
-0.0270406 -0.00189186 0.116056 79 68 63
0.0187092 -0.0260954 0.135914 138 34 59
0.00359212 -0.0118988 0.0679386 187 157 126
-0.00360015 -0.0170047 0.100929 129 65 38
-0.0334299 -0.0241885 0.140855 194 158 120
-0.0279299 -0.00666157 0.117511 50 15 12
-0.0310246 -0.00359973 0.115631 16 12 14
-0.0724576 0.0213255 0.243219 204 164 118
0.00377394 -0.011873 0.0682506 193 161 129
-0.0323471 -0.0232481 0.138408 190 154 115
0.01324 -0.0148601 0.116241 152 126 98
-0.0269893 -0.0139053 0.123861 190 156 114
-0.0259814 0.00378261 0.162074 212 176 132
-0.0634325 0.0142904 0.19363 200 159 113
0.0179022 -0.0231989 0.110437 140 28 55
0.0196979 -0.0245484 0.119589 148 44 67
0.00260051 -0.0148111 0.087846 188 160 130
0.0124933 -0.0171209 0.113422 182 151 118
0.0360878 -0.0852696 0.161299 208 203 200
0.00279322 -0.0227977 0.0634369 208 206 203
0.00233381 -0.0312189 0.0803842 206 204 202
0.00269201 -0.0223108 0.0624212 208 206 204
0.0242038 -0.0323754 0.14874 144 36 64
0.0232078 -0.0343066 0.158583 194 197 190
-0.00683373 -0.00920677 0.0467424 179 147 110
-0.00299417 -0.0135412 0.0708985 191 160 129
0.00604526 -0.0118139 0.0701241 180 150 114
0.00698748 -0.0102168 0.0630383 186 152 118
0.00729447 -0.00926091 0.058633 183 151 115
-0.000956831 -0.0117148 0.0686083 197 166 135
-0.0110369 -0.0117491 0.0622759 190 154 115
-0.00695322 -0.01169 0.0660401 188 154 120
0.00572505 -0.0108097 0.0728872 186 156 122
0.00670109 -0.0120622 0.0807882 186 156 122
0.0066649 -0.00875066 0.061982 184 154 118
0.00714233 -0.00948352 0.0665849 184 154 119
0.0220442 -0.015056 0.131441 62 28 6
0.0261036 -0.0186467 0.165326 44 32 32
-0.0399351 -0.0262922 0.155332 50 50 50
0.0160731 -0.0120669 0.115309 36 54 78
-0.0269058 -0.0064339 0.104526 86 72 68
-0.0353087 -0.00669723 0.127963 32 17 12
-0.0237375 -0.00511031 0.0961107 36 29 22
-0.0284855 -0.00515792 0.109747 33 16 12
-0.0032135 -0.000645494 0.102212 211 176 138
-0.0326533 -0.00263779 0.117053 20 20 22
-0.0381785 0.0106559 0.139684 204 163 118
0.00522607 -0.00142933 0.0191889 208 174 130
0.0110617 -0.0135901 0.119936 222 128 70
0.0067208 -0.0115678 0.0693094 186 154 120
-0.0257156 -0.0180796 0.105833 72 76 81
-0.024846 -0.0025418 0.0963622 38 39 41
-0.0297171 -0.00980452 0.12246 126 96 70
-0.00233364 -0.00226034 0.118698 203 168 127
0.0171791 -0.00943209 0.0585868 178 174 170
-0.0333473 -0.0242124 0.133074 173 142 112
0.0158972 -0.022468 0.13832 188 160 125
0.0211323 -0.0145655 0.0829242 186 186 186
-0.00244717 -0.0170668 0.109669 136 87 66
-0.000429895 -0.0159311 0.10996 162 133 110
-0.0303774 -0.0025959 0.111757 36 36 38
-0.0385634 -0.0132405 0.140661 23 16 10
0.0161083 -0.0317649 0.124888 166 174 182
0.0202184 -0.0153626 0.0980966 152 62 83
0.0200153 -0.01416 0.0947527 120 40 46
0.0194443 -0.0138768 0.0965858 140 66 34
0.0241192 -0.011044 0.0978813 178 146 118
0.0249504 -0.0106077 0.099818 184 152 116
0.0172152 -0.0215229 0.12011 178 140 104
0.0206484 -0.0117419 0.0950279 209 152 112
0.0232923 -0.0111648 0.100442 202 154 116
0.0177531 -0.0136885 0.0974376 253 152 49
0.0189633 -0.0126111 0.0966681 244 149 75
0.0172659 -0.0145532 0.099996 198 106 20
0.0226 -0.0110021 0.101184 224 165 123
0.0215465 -0.0109182 0.100279 212 148 98
0.0167465 -0.0141027 0.100067 191 97 22
0.0148665 -0.0111983 0.101477 254 163 71
0.0203058 -0.00750542 0.107949 42 55 72
0.0154205 -0.00906238 0.103494 42 48 58
0.00471757 -0.0144085 0.0934913 168 109 86
0.0104839 -0.0104607 0.104718 160 66 32
0.00425342 -0.012226 0.0974467 190 156 121
0.0014467 -0.0133062 0.0954938 220 192 176
0.00765446 -0.00940398 0.104036 31 98 120
-5.65034e-06 -0.0121668 0.0965638 164 140 108
-0.000513973 -0.00946344 0.101686 54 62 70
0.00113101 -0.0056833 0.100999 196 163 126
0.000889916 -0.0055516 0.10009 198 165 127
-0.000950073 -0.00463722 0.086288 125 114 104
-0.00292637 -0.00572508 0.0795065 78 88 98
0.000746754 -0.00219582 0.0782827 200 162 122
-0.00752523 0.00437358 0.083851 24 22 24
-0.00903265 0.00434431 0.0846677 18 16 18
-0.00919029 0.00518231 0.0841447 15 15 19
-0.00782487 0.00728754 0.0853238 25 24 28
-0.0108953 0.00515815 0.0842819 25 27 33
-0.00924833 0.00719919 0.087171 42 42 50
-0.00936552 0.00713154 0.0870299 34 36 42
-0.0091314 0.00670795 0.0844533 24 26 32
-0.00977474 0.00674667 0.0859012 21 22 27
-0.0122877 0.00452237 0.0843343 22 20 26
0.0198751 -0.0107445 0.0992127 202 124 72
0.0172415 -0.0114689 0.0999067 76 34 22
0.0175805 -0.0105316 0.0983393 81 46 44
0.0212 -0.00785116 0.104323 190 147 108
-0.00341606 -0.00572603 0.0773553 74 86 98
-0.00727634 -0.00268991 0.0782925 34 36 40
-0.00658578 0.00581029 0.0841539 49 51 56
-0.00777555 0.00626773 0.0848615 46 48 52
-0.0098551 0.00687741 0.0865937 20 20 25
0.0129046 -0.00860635 0.106504 172 133 99
0.0205133 -0.0156909 0.097592 82 29 37
0.0195195 -0.0132458 0.0975979 214 123 70
0.0175483 -0.0145934 0.0989066 197 106 32
0.0155145 -0.0114324 0.102631 246 150 73
0.0179586 -0.00838839 0.106107 12 32 55
0.0146073 -0.00896673 0.102432 165 138 108
-0.013563 -0.0230484 0.103178 178 144 110
-0.00546991 0.00377379 0.0842299 32 34 40
-0.0094308 0.00702521 0.0865939 28 30 32
0.0173313 0.00477213 0.0205411 196 194 192
0.0173281 0.00477747 0.0205339 178 180 182
0.0173251 0.00477939 0.0205295 182 150 116
0.0104064 -0.00790385 0.105668 161 128 99
0.0171246 0.00476067 0.0210138 23 19 17
-0.699537 -0.362297 2.59213 190 153 114
0.00982572 -0.0207585 0.0754312 200 196 192
-0.00612696 -0.0193432 0.0639669 204 196 194
0.000760068 -0.0152728 0.073122 182 184 186
0.0196625 -0.0119634 0.0572328 203 196 193
0.0178264 -0.014723 0.0635065 208 202 199
0.00776661 -0.0133576 0.0696641 191 192 192
0.00501812 -0.012021 0.0702855 192 162 128
0.00405466 -0.0119163 0.0690451 193 162 128
0.00418589 -0.0116863 0.073171 188 157 124
-0.00212821 -0.0193464 0.104417 156 96 70
-0.0348645 -0.0240227 0.127759 78 83 86
0.0302386 0.00293476 0.0827675 194 157 114
0.0493742 0.0357316 0.23587 204 163 119
-0.036159 0.00800804 0.118851 188 152 110
0.0272338 0.0202503 0.0946726 198 158 116
0.00415157 -0.0122962 0.0705953 187 158 126
0.00180129 -0.00916419 0.0918837 188 154 124
0.0138762 -0.0132523 0.072216 186 186 184
0.00547452 -0.0130336 0.0847608 184 155 123
0.00650273 -0.0130476 0.0856735 180 150 118
-0.0111987 -0.0150082 0.0954939 180 146 109
-0.0255686 -0.0105083 0.119671 125 98 68
0.00997783 -0.00287804 0.0971598 190 152 113
-0.0113275 -0.00369383 0.124867 199 165 128
-0.0380064 0.0118503 0.151907 196 157 114
-0.038966 0.0109206 0.146373 194 156 112
0.0110429 0.068084 0.245677 204 170 131
