ply
format ascii 1.0
element vertex 1113
property float x
property float y
property float z
property uchar red
property uchar green
property uchar blue
end_header
-0 -0 -0 0 255 0
0.0224348 -0.00220587 -0.00757506 0 255 0
-0.0360819 -0.0107395 0.00971232 0 255 0
-0.0344982 -0.0189379 -0.000147576 0 255 0
-0.0108768 -0.000109804 -0.00739666 0 255 0
0.0318971 -0.00411875 -0.017926 0 255 0
0.0433878 -0.00446734 -0.0211756 0 255 0
0.0297344 -0.00129138 -0.0255977 0 255 0
0.00169166 -0.00974835 0.000876556 0 255 0
0.0790042 -0.0726218 0.209587 159 140 116
0.0624134 -0.0713829 0.215967 144 142 90
0.061835 -0.0658155 0.208049 145 140 90
0.0854142 -0.0534989 0.178908 154 120 101
0.0873185 -0.0528257 0.177062 124 100 92
0.0602526 -0.0606606 0.205686 145 142 92
0.08906 -0.051802 0.175991 78 59 53
0.0607054 -0.0598018 0.204253 145 142 90
0.0660954 -0.057476 0.197045 156 132 116
0.0754066 -0.0519018 0.180053 166 138 126
-0.0113763 -0.0619815 0.219799 68 38 20
-0.014129 -0.0615365 0.218681 47 20 10
-0.010194 -0.0619116 0.220264 52 28 12
0.0827224 -0.049596 0.177929 170 144 136
-0.0156054 -0.0615604 0.219633 48 23 12
-0.00857295 -0.0614783 0.22006 46 30 14
-0.0164406 -0.0609601 0.218526 50 25 15
-0.0063463 -0.0610094 0.223392 48 32 12
0.0665421 -0.0508521 0.186689 157 132 120
0.0611087 -0.056391 0.207371 146 145 93
0.0699609 -0.048688 0.182664 160 127 115
0.0843667 -0.0473283 0.178607 140 112 101
-0.0119588 -0.0570863 0.215032 64 32 18
0.0619348 -0.0527399 0.19893 148 144 95
0.0635733 -0.0510802 0.194053 144 116 102
0.0691892 -0.048591 0.185219 164 129 117
-0.0142694 -0.056029 0.215808 108 64 49
-0.0583866 -0.0524552 0.204703 49 34 12
-0.0594916 -0.0521908 0.203517 40 24 14
-0.0581023 -0.0528507 0.206663 78 66 42
-0.0567876 -0.0525216 0.205846 104 91 57
-0.00979793 -0.0546869 0.214635 52 26 15
-0.0160911 -0.055068 0.215783 111 60 47
0.0659342 -0.0488541 0.192185 154 129 110
0.0820452 -0.046166 0.182198 170 143 134
-0.0562481 -0.0523022 0.20621 106 94 55
0.0640299 -0.0497207 0.19628 130 110 69
0.0834464 -0.0458779 0.181536 163 137 129
-0.0626584 -0.0506374 0.200976 46 24 12
-0.010333 -0.0544091 0.214928 58 32 22
0.0717676 -0.0463032 0.1858 146 117 106
-0.0662672 -0.0502408 0.203731 76 44 28
-0.022994 -0.0556016 0.224203 120 62 42
0.0680464 -0.04705 0.190691 122 86 60
0.0696965 -0.0462611 0.187162 130 94 71
0.0710268 -0.0465982 0.188124 158 128 114
0.0890923 -0.044623 0.181479 111 90 82
0.0684005 -0.046691 0.189305 128 92 70
0.069575 -0.0465196 0.18853 134 94 72
-0.0541243 -0.0514856 0.209072 150 145 94
0.0877868 -0.0446865 0.182836 136 112 102
0.0841054 -0.0437113 0.179753 118 94 86
-0.00814883 -0.0524162 0.216105 37 14 6
-0.0551994 -0.0487496 0.202008 54 32 11
-0.0160746 -0.0521858 0.214915 174 100 76
0.0623862 -0.0497805 0.205257 151 148 96
0.101678 -0.0452578 0.187561 163 140 134
-0.00888634 -0.0522437 0.216491 40 15 8
0.0698847 -0.0449717 0.188503 104 64 34
-0.0594882 -0.0471847 0.198455 156 104 83
0.066801 -0.0460936 0.193485 162 150 108
-0.0120825 -0.0509244 0.214588 128 82 65
0.0835409 -0.0425915 0.180222 158 133 124
0.0866587 -0.0430194 0.181424 148 126 116
0.0961949 -0.0437306 0.184908 156 136 128
-0.0584584 -0.0469918 0.199606 150 96 77
0.0826134 -0.0429431 0.183 163 138 128
0.079153 -0.0431456 0.184067 173 146 134
-0.0561245 -0.0465332 0.200251 66 28 10
-0.0560815 -0.0466018 0.200852 88 47 32
0.0647319 -0.0470825 0.202033 151 148 97
0.0818614 -0.0429854 0.18514 163 134 120
0.0900251 -0.0429347 0.184728 155 134 124
-0.0198883 -0.0503196 0.216105 176 104 80
0.08324 -0.0419617 0.182492 138 102 86
-0.00776611 -0.0498748 0.216633 63 30 20
-0.0178501 -0.049182 0.214675 182 114 89
0.0660594 -0.0445631 0.194832 153 150 100
0.0690419 -0.0435663 0.191536 156 150 100
-0.0600235 -0.0455703 0.201269 161 105 88
0.10762 -0.0437842 0.19303 157 133 119
0.099839 -0.0421339 0.188015 151 120 104
-0.0573324 -0.0441487 0.199213 164 107 87
-0.0514877 -0.0456091 0.204134 147 120 75
0.0901973 -0.0401521 0.183945 143 108 84
0.106398 -0.0420737 0.192299 138 110 78
-0.0521423 -0.0444353 0.203631 136 100 68
-0.0185489 -0.0469911 0.214529 170 106 80
0.0721164 -0.0410679 0.189608 134 108 63
-0.0145533 -0.0465531 0.215054 148 88 66
0.0742601 -0.0406262 0.188333 156 154 101
0.0823497 -0.04028 0.187077 146 114 100
0.0733551 -0.0403158 0.188367 156 154 102
0.076869 -0.0408684 0.191362 155 154 100
0.0772241 -0.0403997 0.18904 158 152 100
0.0784391 -0.0403343 0.188902 146 129 94
0.0888466 -0.0408107 0.19016 143 110 96
-0.00481891 -0.0470559 0.21985 37 16 8
0.0797216 -0.0396918 0.186951 139 109 94
-0.062225 -0.0416718 0.198422 161 105 84
-0.0506917 -0.0434092 0.205315 151 146 92
0.0841757 -0.0399287 0.189851 142 114 102
0.100534 -0.0399615 0.189543 80 72 46
0.0985907 -0.0394572 0.187921 32 26 14
-0.0555753 -0.0425186 0.203946 136 77 58
0.0736233 -0.039377 0.188339 154 145 95
-0.0588059 -0.0412551 0.1986 166 102 82
-0.0164727 -0.044268 0.213896 136 79 58
-0.0537049 -0.0413514 0.201237 152 96 78
0.076069 -0.0465785 0.22481 154 150 100
-0.0513334 -0.0411839 0.201332 143 112 78
-0.00931421 -0.0448398 0.218523 53 17 10
0.074826 -0.0460654 0.22554 154 150 98
-0.0524678 -0.0409788 0.202534 140 97 76
-0.0545692 -0.0401005 0.201118 150 94 77
-0.049169 -0.0406074 0.203422 149 144 90
0.0737548 -0.0450589 0.224601 154 150 98
0.0778885 -0.044697 0.225842 102 54 21
0.100765 -0.0438124 0.221752 158 134 127
-0.0046973 -0.0433266 0.221572 59 23 12
-0.0504942 -0.0392054 0.202396 150 142 91
-0.0634454 -0.0385604 0.200474 104 60 46
-0.0130386 -0.0423338 0.218944 118 70 47
-0.0562569 -0.0383489 0.200092 148 88 68
0.0732656 -0.0436801 0.227133 154 150 98
-0.000120767 -0.0413463 0.223247 116 74 40
-0.0556415 -0.0370049 0.202824 128 76 57
-0.00126014 -0.0407342 0.221141 108 64 38
0.107035 -0.0418258 0.228412 114 82 69
-0.00390834 -0.0405822 0.222628 98 51 34
-0.0629548 -0.0360535 0.200655 108 60 43
-0.0599825 -0.0359252 0.200112 162 92 66
0.0830221 -0.0385457 0.21417 158 154 102
0.109789 -0.0412326 0.229407 88 56 42
-0.0129767 -0.039716 0.221555 150 103 78
-0.0114887 -0.0396897 0.221128 125 76 54
0.0919429 -0.0377529 0.211441 155 104 92
-0.0146847 -0.0396829 0.222508 156 110 84
-0.00826072 -0.0398779 0.223021 98 52 37
0.0735276 -0.0402447 0.226078 154 150 98
0.0828027 -0.0391717 0.220079 156 154 100
-0.0161363 -0.0390823 0.220859 161 113 86
0.00288607 -0.0396988 0.22319 114 97 56
-0.0212418 -0.0399474 0.227758 171 122 90
0.0775944 -0.0396002 0.227463 109 48 25
-0.0073871 -0.0384342 0.222507 104 56 40
0.0869397 -0.0352457 0.20454 134 110 96
-0.0632658 -0.0337606 0.200543 27 8 6
0.0828788 -0.0338455 0.201175 76 80 65
0.0841257 -0.0358927 0.212952 154 152 99
-0.0516014 -0.0349723 0.209661 106 70 36
-0.0531486 -0.0345688 0.210435 113 74 44
-0.0492479 -0.0352898 0.213995 128 92 62
0.085208 -0.0328661 0.202152 87 82 70
-0.054406 -0.0337774 0.208354 118 72 48
-0.0561456 -0.0334095 0.207279 126 76 54
-0.00137304 -0.0360032 0.223447 62 28 16
0.0832704 -0.0321512 0.200492 134 117 105
0.111009 -0.0376496 0.232508 96 52 36
0.00204491 -0.0358516 0.223027 120 98 60
0.0821427 -0.0345726 0.216583 154 153 100
0.0652838 -0.0342749 0.216027 141 138 92
-0.0645509 -0.0321198 0.206901 56 16 6
-0.0463127 -0.0338456 0.216276 132 92 64
-0.0455275 -0.0353405 0.225642 125 87 57
0.0715627 -0.0353465 0.22906 166 136 114
0.0837922 -0.0333912 0.21449 154 151 100
0.0916146 -0.0312358 0.203772 165 66 40
-0.060664 -0.0312388 0.206069 143 88 60
0.00317205 -0.0340689 0.223032 126 106 66
-0.0507232 -0.0318051 0.210827 138 98 74
-0.0502674 -0.0318957 0.210816 137 98 72
-0.0494299 -0.0320951 0.212208 132 94 70
0.0832758 -0.0301076 0.20086 159 131 116
-0.0525887 -0.0314617 0.210599 150 108 84
-0.054816 -0.031119 0.209806 157 111 92
-0.0539005 -0.0312846 0.210294 156 112 90
-0.0475239 -0.0319428 0.213571 132 95 69
0.0805506 -0.0347511 0.23273 102 75 60
0.0743995 -0.0328745 0.222225 152 119 99
0.08227 -0.0323304 0.218173 150 148 98
0.0849924 -0.0297305 0.202316 163 131 118
0.106029 -0.0305604 0.208027 146 88 64
-0.0568131 -0.0307673 0.209446 144 96 76
0.104587 -0.030077 0.207399 67 35 27
-0.00538165 -0.0324001 0.221322 60 21 10
0.0667248 -0.0312493 0.216076 134 108 79
0.09976 -0.0294634 0.203863 72 46 35
0.0856481 -0.0287733 0.200451 168 135 124
0.0689115 -0.0312396 0.218108 168 134 111
0.102254 -0.0297444 0.210135 74 48 38
-0.00220041 -0.0310378 0.220233 60 24 15
-0.000686276 -0.0309501 0.22146 58 28 14
-0.0621091 -0.0288285 0.210518 154 105 82
0.00264587 -0.0304609 0.221597 139 130 95
0.0632876 -0.0298265 0.216087 122 120 77
-0.0686164 -0.0285198 0.212056 52 18 11
-0.0160472 -0.0288512 0.212988 174 130 110
-0.0501431 -0.0278525 0.210355 142 102 82
0.0754833 -0.0302585 0.226228 159 124 105
-0.0643645 -0.0277693 0.210218 158 107 84
0.00111236 -0.0295116 0.22402 126 105 80
0.0717412 -0.0287829 0.21986 148 117 96
0.0860803 -0.0263558 0.202716 155 128 116
0.0900187 -0.0262963 0.206235 60 52 49
0.103749 -0.0259599 0.207197 172 102 72
-0.0489088 -0.0266009 0.210784 138 97 78
0.0982298 -0.0254724 0.206011 89 52 42
-0.0706176 -0.0263272 0.212506 77 40 27
0.00196737 -0.0279076 0.224513 146 134 108
0.0850221 -0.025053 0.205668 166 135 121
0.106508 -0.0252796 0.20911 174 122 92
-0.0195066 -0.025824 0.213986 136 93 67
-0.00276216 -0.0266807 0.222162 84 42 24
0.0720734 -0.0264989 0.221893 146 112 88
-0.0213853 -0.0254751 0.216257 132 88 58
0.0737777 -0.0263261 0.224992 183 148 130
-0.0636792 -0.0242973 0.211939 170 124 100
0.0842679 -0.0235751 0.204652 166 135 120
0.0858664 -0.0233546 0.203151 166 138 126
0.0904982 -0.0232847 0.20367 10 8 10
-0.0674691 -0.0237616 0.211288 108 63 48
-0.0639232 -0.0238467 0.209959 168 123 99
0.0656195 -0.0257703 0.226239 156 146 123
-0.069024 -0.0237918 0.213398 81 38 25
0.0705593 -0.0246432 0.222306 94 50 28
-0.0684757 -0.0230293 0.208962 76 36 24
-0.0458651 -0.0231711 0.210117 130 87 64
0.104999 -0.0225719 0.211099 178 126 102
0.068687 -0.0240576 0.223549 160 137 112
-0.0193656 -0.0221902 0.208694 137 88 64
0.0860423 -0.0213901 0.206918 164 119 102
-0.0472759 -0.0211064 0.204886 100 59 33
-0.0469367 -0.0210654 0.206234 108 64 38
-0.048918 -0.0207032 0.203514 90 48 24
0.0655955 -0.0229576 0.225189 158 148 126
-0.061282 -0.0212228 0.211977 160 113 92
0.0879044 -0.0203091 0.206219 112 78 63
-0.0705271 -0.02084 0.214328 54 20 14
-0.0629425 -0.0207029 0.211834 161 116 94
0.0677312 -0.0221384 0.224849 163 146 122
-0.0724486 -0.0152703 0.164168 163 148 124
-0.046329 -0.0197601 0.203933 90 49 26
0.0664649 -0.0217473 0.224676 159 148 124
0.0813898 -0.0202208 0.209878 144 126 106
0.0945677 -0.0200772 0.209255 83 60 62
-0.0217437 -0.0193304 0.201764 136 83 68
0.077672 -0.0196912 0.20708 110 98 72
-0.0474284 -0.0192877 0.202839 88 47 24
-0.0452916 -0.0190441 0.204581 134 80 51
-0.0350884 -0.0182715 0.194879 138 90 66
-0.0545167 -0.0186302 0.203295 128 82 60
0.0839551 -0.0228937 0.245424 125 107 84
0.0977021 -0.0191759 0.209462 87 62 62
0.11398 -0.0218524 0.234721 124 95 82
-0.0666614 -0.0192323 0.212187 114 70 54
-0.0412011 -0.0183132 0.201978 134 80 48
0.0959018 -0.0188138 0.209117 70 42 41
-0.0709803 -0.0147043 0.164915 162 146 124
0.0819773 -0.0222191 0.243018 155 135 112
0.0880678 -0.0174082 0.205641 157 122 105
0.0984394 -0.0176802 0.209791 89 62 64
-0.0620254 -0.0179869 0.21413 141 96 74
0.0806332 -0.0174796 0.208364 146 112 83
0.0654884 -0.019228 0.229326 159 148 125
-0.0352951 -0.0157712 0.195602 106 57 36
-0.0250816 -0.0159927 0.199937 166 111 98
-0.0154952 -0.0172903 0.210459 140 94 76
0.0966738 -0.0168424 0.209439 81 56 48
-0.0219279 -0.0162799 0.201448 149 96 82
0.0858108 -0.0164049 0.207172 132 74 48
-0.0329477 -0.0155868 0.1945 128 78 52
0.0820947 -0.0162337 0.20723 177 112 82
0.0834886 -0.0161688 0.206148 176 106 72
-0.047762 -0.0152487 0.19934 154 94 71
0.0873678 -0.0155912 0.207091 152 108 89
-0.0680095 -0.0161152 0.216671 84 50 40
-0.0649228 -0.0151532 0.215057 98 54 41
-0.0234834 -0.014139 0.201058 142 92 73
-0.018134 -0.0145965 0.208236 128 81 60
-0.0331737 -0.0129974 0.193718 88 42 20
0.0639784 -0.0155881 0.228848 156 148 127
0.0657548 -0.0152855 0.229953 136 122 98
-0.0606871 -0.0138613 0.215697 122 76 58
-0.0398103 -0.0124948 0.19488 178 120 98
0.0686276 -0.0143053 0.224771 98 72 57
-0.031365 -0.0117898 0.1959 98 54 31
-0.0560489 -0.0123401 0.208709 129 78 54
-0.0455797 -0.0118589 0.199093 175 112 91
0.0910422 -0.012472 0.21214 188 161 140
0.065487 -0.0133867 0.230342 114 88 58
0.0859568 -0.0116265 0.209567 168 122 95
0.0801368 -0.0113215 0.210556 150 115 96
0.0684178 -0.0127028 0.233029 38 20 10
0.0993923 -0.0118382 0.219636 140 99 82
0.0772712 -0.0122915 0.239328 130 101 82
0.097602 -0.0108152 0.220069 120 88 72
-0.0416727 -0.00872821 0.204049 141 98 84
0.0730635 -0.00997749 0.234385 127 92 67
0.0731888 -0.0100069 0.237126 122 88 64
-0.0596547 -0.0071643 0.183238 158 140 118
-0.0570512 -0.00713823 0.183343 160 134 109
0.0719757 -0.00972168 0.234693 122 88 62
0.0783841 -0.00843322 0.216861 125 102 80
0.0868876 -0.0081629 0.21294 118 87 68
-0.0562502 -0.00659104 0.184062 162 130 105
0.0639578 -0.00877334 0.237242 148 129 103
0.0688414 -0.00836594 0.233703 69 46 26
0.103507 -0.00761175 0.216783 78 58 40
0.0856389 -0.00716151 0.211928 118 88 69
-0.0625626 -0.00520582 0.182661 126 18 17
0.0891921 -0.00625143 0.216384 142 112 96
-0.0660574 -0.00469517 0.178442 138 56 28
-0.0668443 -0.00422719 0.174043 150 115 64
-0.0488711 -0.0058008 0.216805 136 92 77
-0.0712584 -0.0042025 0.17642 150 119 77
0.0750291 -0.0045542 0.225701 140 116 100
0.099442 -0.00428748 0.220624 138 102 82
0.118792 -0.00357774 0.23666 130 112 91
0.0928543 -0.00288483 0.217156 148 116 95
0.0612379 -0.00264646 0.246293 141 132 105
0.0763434 -0.0024609 0.222156 143 117 102
0.0890296 -0.000450737 0.215867 120 76 54
0.0963346 -0.000509012 0.220566 165 134 116
-0.0612462 -0.000280099 0.223685 185 138 117
0.0606591 -0.000348699 0.244339 139 130 101
0.0648671 0.000195928 0.22349 170 144 130
0.0606633 0.000180055 0.236998 136 126 96
-0.0523535 0.000783384 0.218852 142 92 76
0.0193812 0.00103033 0.190599 146 130 108
0.0768515 0.00133137 0.218148 102 60 32
0.0776982 0.00188789 0.216003 99 58 33
0.062906 0.00204507 0.22463 162 138 118
0.078929 0.00219661 0.21805 100 59 34
0.025017 0.00180716 0.197031 170 148 128
0.0847934 0.00253559 0.211269 154 125 112
0.0296897 0.00227394 0.200626 168 140 121
0.0801076 0.00269637 0.217381 100 59 38
0.0611616 0.0031319 0.232861 131 120 94
-0.0655759 0.00305209 0.171484 161 142 123
0.0827733 0.00361905 0.212705 124 85 62
0.0620575 0.00392167 0.225537 140 116 94
0.0180325 0.00386945 0.187742 92 36 20
0.0022536 0.00559403 0.240074 177 126 104
0.0119543 0.00442058 0.180358 130 35 25
0.0648148 0.0054751 0.224565 134 100 83
0.0761124 0.00529794 0.213674 167 135 120
0.0125562 0.0046681 0.184495 125 36 24
0.0181932 0.00500384 0.188401 102 41 29
0.0192583 0.00508377 0.188674 112 58 38
0.0842319 0.0058023 0.211276 122 76 50
0.0141974 0.00517309 0.183336 107 32 21
-0.0719998 0.00699418 0.234262 163 116 91
0.0745121 0.00726117 0.216745 178 152 142
0.0676662 0.00745762 0.221197 133 24 26
0.0889691 0.00761615 0.213233 138 92 68
0.111575 0.00791361 0.225395 168 145 136
0.0732387 0.00776046 0.214837 179 152 143
-0.070842 0.00701512 0.171201 144 78 68
-0.0336687 0.00864452 0.226222 86 38 24
0.0633867 0.00888994 0.226208 104 80 64
-0.0749764 0.00950176 0.239008 160 112 88
-0.0332307 0.00900982 0.23089 96 45 29
-0.0732083 0.00739613 0.16906 116 22 24
0.074867 0.0092001 0.215769 180 153 143
-0.0700294 0.0075286 0.170653 146 81 70
-0.0673967 0.0100717 0.228148 176 128 104
0.0658174 0.0103331 0.224028 94 70 59
0.0683725 0.0101537 0.221367 100 62 62
-0.0349874 0.0100765 0.222078 96 49 35
-0.001461 0.0108979 0.232736 116 76 52
-0.0724053 0.00872155 0.169959 126 13 15
-0.0226437 0.0115112 0.232285 177 126 104
0.00621381 0.0105764 0.216074 124 53 38
-0.0183802 0.0115514 0.228519 156 105 81
-0.00330031 0.0114865 0.231389 141 102 84
0.064242 0.0117578 0.229588 120 98 76
-0.0131503 0.0121714 0.23195 166 115 90
0.0669068 0.0118145 0.223731 96 64 58
-0.0194377 0.0126763 0.232302 155 102 79
0.0788082 0.0133501 0.229465 182 155 146
-0.0707028 0.0104754 0.172687 145 80 70
-0.0721378 0.0106352 0.17249 124 16 17
-0.0725262 0.0108922 0.172369 126 16 18
-0.0688995 0.0110703 0.173438 162 143 126
-0.0354049 0.0137114 0.222911 85 40 27
-0.0336085 0.0140233 0.223789 69 28 18
-0.0729941 0.011141 0.172288 124 16 17
-0.0260675 0.014694 0.231983 132 77 48
0.0179108 0.011678 0.181244 143 25 22
0.0192776 0.0119481 0.183618 142 27 22
0.0213547 0.0119248 0.182507 144 29 22
0.0225003 0.0118627 0.18177 144 28 24
-0.0731573 0.0112716 0.17124 119 19 18
0.0790383 0.0143241 0.216429 188 166 158
-0.024861 0.0146966 0.23009 140 84 55
0.0205799 0.0121247 0.181941 144 28 24
0.0721163 0.0145364 0.220133 180 153 145
0.0804542 0.014462 0.214101 190 170 162
-0.0480207 0.0146504 0.219617 98 48 24
-0.0414001 0.0149258 0.217932 144 92 68
-0.0230646 0.0158416 0.234667 126 72 40
-0.0752065 0.0120975 0.168371 51 41 50
-0.0191866 0.0158555 0.230784 134 80 49
-0.012048 0.0159008 0.226777 122 72 44
-0.0146091 0.0159767 0.226856 126 74 46
-0.0132554 0.0159285 0.227361 127 76 46
-0.0524694 0.0159609 0.220076 104 56 33
0.000153436 0.0144598 0.198211 105 71 48
0.0385635 0.0144041 0.198878 154 138 120
0.0178372 0.0137108 0.180756 112 21 18
0.0224245 0.0138495 0.181128 102 25 21
-0.0583702 0.0165636 0.219701 120 70 48
-0.0616731 0.016936 0.22106 130 80 62
0.00495463 0.0153152 0.198498 167 131 119
-0.0749321 0.0135234 0.171334 118 18 22
0.00228242 0.0155244 0.197701 158 131 117
0.0339702 0.015271 0.192718 158 84 74
0.037436 0.0159595 0.202124 149 126 111
-0.0731211 0.0139386 0.17204 122 16 16
-0.0737637 0.0140471 0.174922 122 15 15
0.0780717 0.0174008 0.218201 180 154 146
0.0804354 0.0178025 0.217387 179 151 144
0.112336 0.0193495 0.235377 194 168 154
-0.0676978 0.0149043 0.178304 161 140 123
0.0232527 0.0154976 0.181263 86 50 40
0.0200029 0.0158799 0.182045 88 80 65
0.0391407 0.0170703 0.198342 120 102 89
-0.04049 0.0194843 0.223568 79 40 28
-0.0548013 0.0195813 0.218633 101 56 34
-0.054257 0.0197517 0.221943 104 57 36
-0.0576046 0.0195873 0.219177 102 54 33
-0.0719726 0.0161854 0.174627 96 27 27
-0.061874 0.0203112 0.221664 106 58 36
-0.0629909 0.0208856 0.23098 104 56 35
0.0253184 0.0169743 0.184465 123 52 46
0.02086 0.0174003 0.184231 92 85 72
0.109829 0.0220874 0.236917 175 154 148
-0.0686659 0.0170288 0.178909 161 139 125
0.0127918 0.018062 0.185226 156 44 40
0.0140456 0.0177448 0.183376 138 58 51
0.0261037 0.0184615 0.185177 138 54 54
0.0236056 0.0186715 0.186105 108 48 37
-0.0766926 0.0178106 0.171243 76 16 22
0.0116571 0.0190934 0.183762 150 96 93
-0.0741608 0.0184194 0.17574 96 31 32
-0.0772131 0.0184002 0.17185 75 14 24
0.0150784 0.0195467 0.183207 110 96 92
0.0177443 0.019677 0.185665 124 104 90
0.0254385 0.019751 0.184028 138 122 118
-0.0787709 0.0199052 0.17244 84 28 32
0.0131899 0.0221554 0.18576 142 128 124
0.0260259 0.0231106 0.188133 128 111 105
-0.076354 0.0246386 0.187504 149 118 84
0.0130895 0.0260231 0.193205 153 54 53
0.0248683 0.0265786 0.190726 147 69 67
-0.0774085 0.0279256 0.190202 122 48 36
0.014584 0.0298774 0.198967 150 34 34
0.0159759 0.0307436 0.197551 148 36 32
0.01518 0.0312583 0.198511 146 46 44
0.078586 -0.0506976 0.177157 170 142 132
-0.0137305 -0.0619264 0.219716 56 26 15
0.0887406 -0.0491663 0.177781 174 151 139
-0.0173147 -0.060526 0.218156 63 34 24
0.084805 -0.0488947 0.182522 173 148 137
0.0627784 -0.0510611 0.194941 118 88 61
-0.0193606 -0.0559905 0.217686 174 112 87
-0.0611528 -0.0521645 0.204153 42 24 10
0.0623443 -0.0535071 0.210801 157 154 102
0.0617699 -0.0522145 0.205761 158 155 104
0.0698141 -0.0463607 0.188394 95 56 28
0.0845014 -0.0447331 0.181298 144 118 109
-0.0565053 -0.0490214 0.201141 150 100 78
-0.0559589 -0.048934 0.201351 149 106 82
-0.0196318 -0.0524381 0.217678 162 98 74
0.0645945 -0.0488257 0.20631 158 155 104
0.0660028 -0.0454809 0.197039 158 154 104
0.0817933 -0.0422134 0.183597 144 108 93
-0.0598975 -0.0452736 0.197942 158 106 88
-0.00600696 -0.0497941 0.217283 64 36 24
0.0713737 -0.0440753 0.194737 152 152 100
-0.0584718 -0.0445706 0.198414 158 103 85
-0.0611125 -0.0434222 0.198683 170 110 92
-0.0594607 -0.0419213 0.197631 163 108 91
-0.0653738 -0.0413835 0.199317 38 19 12
-0.059585 -0.0398595 0.198941 158 100 84
-0.0103516 -0.0436667 0.219442 64 26 14
3.84947e-05 -0.0448548 0.225785 56 32 13
-0.0550453 -0.0393875 0.200525 158 100 84
-0.0607811 -0.0375481 0.199996 176 114 89
-0.008021 -0.0421784 0.222905 100 54 40
-0.0103343 -0.0403971 0.221659 150 102 83
0.00239137 -0.0395567 0.221759 106 72 40
-0.0657979 -0.0348311 0.203033 51 22 14
-0.0598047 -0.0338873 0.202668 98 47 30
-0.0617739 -0.0326581 0.203187 94 50 32
-0.0487108 -0.0318951 0.211441 131 92 68
-0.0302472 -0.0359412 0.243489 146 101 76
-0.0670191 -0.0305919 0.209828 52 17 12
0.0828395 -0.02861 0.201218 141 110 96
0.100986 -0.0299215 0.209824 136 66 44
-0.0662443 -0.0287629 0.208423 42 12 6
-0.0336449 -0.0342039 0.246445 109 70 34
0.0889739 -0.0275745 0.203497 50 32 26
-0.0733531 -0.0214179 0.158491 163 151 128
0.0837906 -0.0276476 0.205409 143 110 96
-0.0362844 -0.0325851 0.246969 82 42 20
-0.0268804 -0.030963 0.233175 166 118 88
-0.0143198 -0.0279654 0.213141 178 134 114
-0.0170801 -0.0270024 0.212494 148 102 76
-0.0767662 -0.0186279 0.156975 122 112 98
3.97816e-05 -0.0263333 0.224271 108 64 40
-0.0181509 -0.0251544 0.213228 121 76 54
0.105611 -0.0237102 0.20927 142 72 44
-0.0329679 -0.0191363 0.197003 155 109 90
-0.0717845 -0.0151443 0.164237 162 148 126
0.0819061 -0.0206084 0.224668 122 106 82
-0.0452675 -0.0185521 0.20157 110 68 42
-0.0637753 -0.0190296 0.211387 160 110 86
0.100735 -0.0180152 0.211843 87 66 68
-0.0654238 -0.0174881 0.211099 41 12 8
-0.0183732 -0.0151115 0.210754 121 73 52
0.092398 -0.0132347 0.209794 176 147 126
-0.0214549 -0.0126249 0.206877 138 90 74
-0.0777067 -0.00862912 0.159379 134 19 22
-0.0240503 -0.0116554 0.207032 148 95 72
0.0988399 -0.00931861 0.220915 153 130 114
0.0673677 -0.0100913 0.232939 126 76 48
-0.0697289 -0.00706311 0.163249 160 144 124
-0.0578734 -0.00740044 0.18472 170 130 105
-0.0742125 -0.00578337 0.158111 148 130 130
-0.0439873 -0.00852761 0.198412 146 98 83
-0.0802818 -0.00565281 0.159649 94 9 22
-0.0736054 -0.00585547 0.158267 148 116 115
0.0807731 -0.00816067 0.216224 136 109 94
-0.0565558 -0.00699976 0.183675 173 126 100
-0.0726969 -0.00510192 0.158255 126 48 46
-0.0699149 -0.00489223 0.161649 158 143 124
-0.0794593 -0.00462668 0.159356 39 16 45
0.100098 -0.00632332 0.21716 98 56 34
0.120017 -0.00668353 0.236003 158 130 110
-0.0662915 -0.00466527 0.178872 150 116 76
0.103443 -0.00648503 0.230585 88 63 50
-0.0643252 -0.00443483 0.180683 126 20 12
0.0664507 -0.00602326 0.229362 100 70 36
0.104689 -0.00529225 0.219164 124 94 72
-0.069247 -0.00358686 0.175277 150 122 77
-0.0160981 -0.0054639 0.226543 196 150 126
0.0610681 -0.00551228 0.235665 150 140 114
0.0676856 -0.00526558 0.229797 94 66 32
0.0681558 -0.0042443 0.227355 92 60 34
-0.0560948 -0.00303788 0.182589 186 140 119
0.0849777 -0.00385587 0.21822 106 85 72
0.0610596 -0.00400891 0.236912 146 135 108
0.0711649 -0.00198431 0.22365 92 52 27
0.0732308 -0.00083148 0.222501 94 54 28
0.0726899 -0.000682628 0.219808 96 56 30
0.0740134 -0.0001576 0.221062 99 57 32
-0.000931193 -0.000286606 0.235025 170 124 102
0.0751858 0.000413386 0.219931 102 60 36
0.0634268 0.00112356 0.223311 160 135 118
0.076332 0.00139769 0.214868 96 54 27
0.0837272 0.00276215 0.212966 124 90 74
0.0843227 0.005365 0.208477 96 54 31
0.0643448 0.00736601 0.219751 98 39 28
0.00618885 0.00819437 0.237198 162 118 94
0.0900177 0.00816738 0.212815 122 78 55
0.107393 0.00977883 0.220811 172 144 130
0.0992061 0.0104566 0.21497 144 108 94
-0.0135119 0.0121057 0.227207 176 124 98
0.080073 0.012639 0.215634 170 146 140
0.0830584 0.0134704 0.2168 172 146 139
-0.0336368 0.014082 0.224512 79 34 20
0.01789 0.0118092 0.183543 138 24 20
0.0861526 0.0140125 0.214824 152 117 106
0.0933561 0.0141335 0.215699 170 151 144
0.0763622 0.0141171 0.214731 168 144 136
0.0839121 0.0156373 0.215181 144 100 96
0.0830774 0.0151329 0.211307 155 116 112
0.0855656 0.0158804 0.214566 152 109 98
0.100025 0.0172977 0.21994 174 152 146
0.0677076 0.017808 0.223713 120 86 65
0.0848981 0.0183245 0.216369 104 42 48
0.00741156 0.0165307 0.190937 138 72 66
0.0993045 0.0195573 0.220751 158 140 132
0.0205352 0.0172443 0.18347 89 81 66
0.0153611 0.0178848 0.183904 136 62 56
0.0152344 0.0223743 0.18567 91 74 66
0.08886 -0.0741754 0.196907 132 72 54
0.0905704 -0.0739592 0.19655 124 50 34
0.0886154 -0.0726921 0.196669 132 68 54
0.0909684 -0.0729572 0.198362 122 40 28
0.0929694 -0.072127 0.19636 124 5 8
0.0666107 -0.0764498 0.217103 155 151 102
0.074579 -0.0771576 0.225001 127 98 68
0.0770441 -0.0778937 0.227594 118 90 60
0.12092 -0.074452 0.217509 33 30 22
0.0618834 -0.0608766 0.196957 122 98 62
0.0672202 -0.0608721 0.199499 138 114 94
0.0682882 -0.0591123 0.196576 145 120 105
0.0602352 -0.0622842 0.208579 156 152 103
0.0663537 -0.0527052 0.186562 126 107 92
-0.00785203 -0.0601624 0.224843 79 46 30
-0.0594775 -0.0526265 0.205491 50 29 10
0.0826031 -0.0452745 0.182742 164 138 130
-0.0541991 -0.0516669 0.208407 150 145 95
0.0863053 -0.0445125 0.179295 130 104 95
-0.0521743 -0.0494495 0.209784 151 146 94
0.0899111 -0.041901 0.185846 136 102 87
-0.0626178 -0.044377 0.197535 48 13 4
-0.061394 -0.0434206 0.198618 140 83 68
-0.00556861 -0.0461898 0.219026 39 14 8
-0.0607444 -0.040748 0.196853 167 109 92
-0.0146753 -0.0417979 0.219027 118 66 43
-0.0150056 -0.0395145 0.221645 172 122 99
-0.0664021 -0.0328334 0.20247 58 24 16
-0.0702561 -0.0319999 0.21208 64 28 18
0.0878028 -0.0305565 0.202332 126 94 80
-0.0748937 -0.0219564 0.158778 161 147 126
-0.0739102 -0.021186 0.158894 160 148 127
-0.0379619 -0.033088 0.240736 112 78 52
0.0625694 -0.0277332 0.215199 146 141 106
-0.0239128 -0.0264 0.216592 132 88 62
0.0839012 -0.0231628 0.208697 144 113 101
-0.00224452 -0.0254451 0.227108 90 51 34
0.0876942 -0.0208269 0.235935 148 137 116
-0.0517061 -0.0182773 0.210502 130 86 60
-0.0310963 -0.0141549 0.197343 119 70 45
0.0789946 -0.0160596 0.243206 87 62 47
0.0903437 -0.012619 0.213311 168 116 93
0.0976035 -0.0108526 0.220044 148 120 103
-0.0446997 -0.0086709 0.202534 139 86 69
0.071492 -0.00296435 0.229807 93 58 30
0.100663 -0.00120513 0.222701 102 84 75
-0.0591855 -0.000676115 0.180032 140 36 34
0.0123149 -0.000699682 0.254327 136 119 94
0.0264801 0.00205417 0.200444 168 146 128
0.0277028 0.00211152 0.201258 166 146 126
0.0987234 0.00721839 0.214222 124 82 64
0.0980011 0.00959901 0.215945 130 89 68
-0.0385135 0.0107454 0.219184 146 100 82
0.0739267 0.0206541 0.22389 145 109 94
-0.0841176 0.0310006 0.184394 130 50 22
0.0936834 -0.0795391 0.197137 105 56 24
0.0897229 -0.0790643 0.196874 147 132 92
0.0925202 -0.0790399 0.198584 136 96 56
0.0902116 -0.0756073 0.192336 136 54 32
0.0871098 -0.0767114 0.199847 153 137 102
0.0924067 -0.0748912 0.198283 128 8 8
0.0996717 -0.0622921 0.191416 100 62 36
0.0985941 -0.0580923 0.184183 136 94 74
0.061624 -0.062813 0.201529 150 144 95
0.0635613 -0.0629551 0.203577 153 144 96
0.0631791 -0.0595962 0.19183 148 126 105
0.0931772 -0.050943 0.178923 166 151 146
0.0852958 -0.0499978 0.17752 165 140 130
-0.00836457 -0.0615042 0.221556 46 26 13
0.0637543 -0.0606217 0.219284 150 147 96
0.101701 -0.0479107 0.183044 171 149 138
-0.0618477 -0.051773 0.203371 54 32 19
-0.0626026 -0.0510218 0.202107 67 40 24
0.102039 -0.0459421 0.186313 166 147 140
-0.0131146 -0.0530836 0.215537 163 98 75
-0.0237387 -0.0521789 0.223578 172 106 78
0.102589 -0.0433195 0.186138 174 152 146
0.0846576 -0.0413776 0.183404 119 74 53
0.0921052 -0.0416995 0.184754 124 86 66
0.0699758 -0.0411031 0.18855 162 158 103
0.0726155 -0.0402334 0.190191 162 158 104
0.10699 -0.0448362 0.218298 66 19 4
0.0956673 -0.0401829 0.200547 158 139 129
0.0743941 -0.0426941 0.222207 160 156 104
-0.0192918 -0.0428889 0.229029 150 98 66
0.107376 -0.0412102 0.226136 148 128 117
-0.0476116 -0.0384386 0.218753 137 107 70
-0.0200177 -0.0401994 0.228003 173 124 94
-0.0477917 -0.0390782 0.225117 137 109 70
-0.0466813 -0.0385639 0.222455 136 112 71
0.0843404 -0.0346841 0.203399 82 80 60
0.0723313 -0.0380609 0.234206 157 152 102
-0.0427087 -0.0361882 0.234847 124 115 68
0.092998 -0.0309311 0.203327 170 72 41
-0.051818 -0.0316241 0.210907 154 110 91
-0.0412402 -0.0349553 0.235479 127 121 72
0.0880407 -0.0289359 0.20072 109 80 66
-0.0752243 -0.0223659 0.160276 161 149 126
-0.0743615 -0.0218858 0.15871 161 149 126
-0.0373289 -0.0317229 0.234383 90 52 25
0.06164 -0.0294673 0.216155 134 132 84
-0.0152148 -0.028232 0.211477 176 130 108
-0.042065 -0.030239 0.230046 116 77 45
-0.0326947 -0.0297034 0.228424 108 70 35
0.0962075 -0.0264502 0.210444 14 10 12
0.0659915 -0.0269956 0.224686 121 118 73
-0.0166572 -0.0236851 0.20987 162 119 98
0.0838734 -0.0219153 0.202877 163 130 112
-0.0736205 -0.0156879 0.163815 162 148 124
0.0820303 -0.0207606 0.216886 164 154 131
-0.0472634 -0.0193604 0.203215 88 48 22
-0.0778321 -0.0144832 0.159928 120 22 16
-0.00932342 -0.0211871 0.224808 98 52 40
-0.0200874 -0.0185721 0.2065 155 103 86
0.0803318 -0.0200046 0.243513 167 135 112
0.0118178 0.00192192 0.180138 157 140 120
0.0725688 0.00349435 0.216481 178 150 141
-0.0884818 0.003298 0.172128 114 8 10
0.0113165 0.00475666 0.184305 131 34 21
0.100625 0.00936424 0.215189 184 162 158
0.0111862 0.00838993 0.183342 108 31 24
0.0206246 0.0117603 0.179281 144 28 22
0.0232191 0.0120836 0.183333 144 30 23
-0.0238799 0.0151615 0.227789 116 64 35
-0.0191594 0.0159669 0.229633 140 86 58
-0.0755964 0.0129935 0.170759 59 48 59
0.00396705 0.0154736 0.200065 162 137 124
-0.0724891 0.0135943 0.174012 128 16 17
-0.0553086 0.0194884 0.219267 106 59 37
0.0996291 0.0216022 0.221174 178 158 150
-0.0724328 0.0261243 0.188921 158 139 124
-0.0775266 0.0262529 0.185347 153 101 36
-0.0792276 0.0288158 0.180406 96 16 12
-0.0777927 0.0331063 0.185546 132 34 14
-0.0794993 0.0340173 0.184876 91 10 8
0.0923166 -0.0844739 0.199447 148 141 86
0.093666 -0.0785294 0.200571 118 16 9
0.0807233 -0.0728834 0.208098 156 138 110
0.0849057 -0.050329 0.179695 166 141 130
0.0881691 -0.0505202 0.180819 153 126 114
-0.00568132 -0.0601902 0.222029 54 36 17
-0.0663278 -0.05152 0.2073 74 45 28
-0.00331746 -0.0532931 0.218796 51 32 16
0.11115 -0.0438787 0.197873 132 95 70
-0.0137149 -0.042687 0.22159 146 98 74
-0.0525167 -0.0358301 0.214054 104 68 34
0.0931163 -0.0344998 0.211561 124 21 11
-0.0470616 -0.0348134 0.217717 130 90 63
-0.0535237 -0.0315823 0.211686 156 112 90
0.0951859 -0.0308834 0.208035 152 68 38
-0.0699009 -0.0287995 0.215491 46 14 8
-0.0172165 -0.0268491 0.212303 168 123 102
-0.0322266 -0.0240085 0.195352 102 67 30
-0.0362366 -0.0223951 0.194123 131 86 55
0.097447 -0.0232219 0.20777 50 39 36
0.102538 -0.0227965 0.210635 123 68 42
-0.0732969 -0.0156895 0.162257 164 148 128
0.0825215 -0.0198274 0.208787 129 88 56
-0.0705502 -0.0150525 0.162164 163 148 125
-0.0330614 -0.015618 0.193518 127 78 53
0.0899193 -0.016677 0.206196 136 96 80
-0.0127843 -0.0171939 0.216455 155 111 95
-0.0718985 -0.00599199 0.152503 116 92 90
0.0854486 -0.00477395 0.219843 130 101 84
0.0122719 0.00289785 0.25489 130 98 66
0.010655 0.00457037 0.180439 131 33 20
0.10001 0.00933811 0.215466 180 160 156
-0.0403374 0.0113233 0.216151 126 79 57
0.105293 0.0139433 0.219633 182 158 149
-0.0359248 0.0133439 0.215278 105 57 36
0.0780703 0.0142713 0.216445 182 158 150
0.0234579 0.0150221 0.180748 84 51 42
0.0158193 0.0221201 0.183759 62 46 42
-0.0744123 0.0222932 0.175055 148 92 30
0.0266062 0.025021 0.189719 124 102 98
-0.071711 0.0256093 0.187271 157 136 121
0.0177539 0.0288 0.197178 159 25 22
0.0203694 0.0296184 0.202343 158 26 24
0.0122752 0.02983 0.198381 149 30 24
-0.071694 0.0303276 0.189976 140 119 103
0.0933412 -0.0848165 0.200169 128 104 58
0.099546 -0.0678287 0.199259 54 19 10
0.0817926 -0.0501318 0.177138 169 142 133
0.080313 -0.0392187 0.185132 147 130 98
-0.0574793 -0.0335537 0.206198 134 84 61
0.0588859 -0.0593192 0.364689 106 106 63
0.0723262 -0.0347319 0.222038 166 134 107
-0.00207669 -0.0226639 0.222738 146 122 92
-0.0429136 -0.00935039 0.212408 138 94 80
-0.0677364 -0.00419636 0.175255 151 122 79
0.0645095 -0.00547738 0.232414 113 76 47
0.104946 0.000773688 0.223422 142 108 88
-0.0543732 0.00720338 0.219775 140 90 74
0.0634648 0.014053 0.233113 115 93 76
0.0778542 0.0159119 0.213851 183 158 151
0.0929618 -0.0858653 0.202863 152 148 94
0.0824939 -0.0412038 0.182004 147 110 94
-0.061512 -0.0411264 0.197713 170 108 89
-0.0222489 -0.0388471 0.228672 171 122 92
-0.0261994 -0.0346999 0.226954 168 122 91
-0.0322557 -0.0268309 0.21961 126 83 56
0.071432 -0.00171761 0.22314 96 56 28
-0.0561217 0.0141193 0.220815 122 71 52
-0.0474727 0.0142304 0.224854 128 80 58
-0.0731403 0.0137606 0.176647 124 16 15
0.0583853 -0.056514 0.199834 148 145 92
-0.00393193 -0.0538333 0.225663 51 30 16
0.0884587 -0.0421253 0.177542 154 134 124
0.0843589 -0.0382365 0.181834 146 118 107
0.10427 -0.0438438 0.224943 158 136 126
-0.0517635 -0.0398721 0.226164 134 102 68
-0.0502101 -0.0369008 0.212662 115 83 52
0.0738455 -0.0402391 0.233169 154 150 98
0.0730516 -0.0385654 0.232505 155 149 98
-0.0046475 -0.0361374 0.227785 88 44 30
-0.0368717 -0.0207708 0.190909 179 124 92
0.144331 -0.0435582 0.40605 88 80 70
-0.00823702 -0.0240958 0.229948 56 18 10
-0.017381 -0.0187041 0.210564 137 91 72
-0.0686641 -0.0136521 0.162797 163 148 125
0.075322 -0.0192368 0.274107 158 148 126
0.0655469 -0.0133916 0.234803 153 136 110
-0.041012 -0.00883519 0.20269 143 100 86
-0.0703695 -0.00565426 0.152581 115 15 14
0.101494 -0.00752251 0.21349 82 60 43
0.0622304 -0.0069643 0.244496 152 142 116
0.0655419 -0.00523502 0.233804 120 86 64
0.0846872 -0.00450824 0.222631 116 96 82
0.0718771 -0.00246396 0.228839 99 60 30
0.0799461 0.0145228 0.209304 180 158 150
-0.0719253 0.0137995 0.176766 122 18 16
0.0787549 0.0216442 0.236028 170 141 130
0.0190062 0.0167763 0.181856 114 102 88
0.0265146 0.0204154 0.178894 104 90 84
-0.0702541 0.0234569 0.191308 160 138 123
0.0121906 0.0306519 0.195764 154 35 30
0.0118541 0.0333541 0.196896 97 66 60
-0.0776305 0.0329898 0.184139 126 10 10
-0.0133824 -0.0620414 0.220342 62 34 18
-0.0102509 -0.0582712 0.216424 81 48 27
-0.0602576 -0.0475619 0.198306 95 62 46
-0.0596802 -0.0375007 0.199175 171 102 80
-0.0499302 -0.0321257 0.212226 111 74 48
-0.0197166 -0.022282 0.208403 113 70 45
-0.0326534 -0.0191669 0.196183 152 104 84
-0.0718712 -0.0153038 0.164919 162 148 126
-0.0315912 -0.00942902 0.238844 99 53 39
-0.0734248 0.000929715 0.167715 112 18 16
-0.0417738 0.0119959 0.219704 148 102 86
-0.0282357 0.0127995 0.230924 150 97 72
0.0781768 0.0123757 0.230563 131 105 101
-0.0723279 0.0135041 0.173825 126 18 17
-0.073488 0.0187643 0.177083 110 36 39
0.0964984 0.0225482 0.221169 143 112 102
-0.0767203 0.020618 0.173639 82 19 27
-0.0703876 0.0256631 0.187497 158 136 124
-0.0715633 0.0260144 0.187348 156 136 122
-0.0774319 0.0280051 0.180762 142 75 26
-0.0788415 0.0286141 0.181317 122 34 18
-0.0715852 0.0305478 0.18866 140 121 108
-0.0300994 -0.036696 0.244798 142 98 69
-0.0166645 -0.0291767 0.213749 177 132 112
-0.0710379 -0.0143161 0.163909 160 145 124
-0.00934328 0.0154632 0.227652 130 78 54
-0.0783515 0.0336414 0.183042 106 11 8
-0.0600942 -0.0521229 0.203724 44 26 10
-0.0348335 -0.0239053 0.197859 101 66 28
-0.047411 -0.0208174 0.202587 100 58 30
-0.032404 -0.018681 0.192102 156 107 86
-0.0459071 -0.018504 0.203244 92 48 24
-0.0330405 -0.0155389 0.193169 130 80 54
-0.031476 -0.0105809 0.199002 124 92 72
-0.0447813 -0.0084961 0.208735 128 83 68
0.0155724 0.0225722 0.188161 137 118 113
-0.0774225 0.0274862 0.183139 152 96 34
-0.0523932 -0.0501537 0.210995 151 146 92
-0.0467316 -0.0385993 0.217551 138 122 78
-0.0498347 -0.0372145 0.211572 130 98 68
-0.0485719 -0.0402824 0.235287 134 130 80
-0.042129 -0.0361901 0.233031 124 120 72
-0.0545176 -0.0306699 0.207035 156 110 90
-0.0659032 -0.0281446 0.207578 90 42 26
-0.0363147 -0.027424 0.226671 107 69 37
-0.0388758 -0.0243761 0.206347 98 63 28
-0.0435048 -0.0230046 0.205613 140 90 58
-0.00188528 -0.024901 0.223985 104 66 42
-0.00700888 -0.0231861 0.216702 74 30 18
-0.0426689 -0.0219919 0.209539 162 109 80
-0.0390901 -0.0196618 0.196034 156 102 72
-0.0211783 -0.0186838 0.190624 126 80 59
-0.00890652 -0.0213065 0.220345 60 18 12
-0.020832 -0.0196701 0.205791 122 71 50
-0.0083931 -0.0193234 0.209678 96 53 39
-0.0119174 -0.0185001 0.220113 151 110 96
-0.0216226 -0.0147864 0.221283 115 66 42
-0.0228786 -0.0123691 0.209319 123 73 55
-0.0336749 -0.0126939 0.235905 106 53 35
-0.0419549 -0.00977155 0.211952 140 93 80
-0.0672069 -0.00434086 0.176478 150 119 78
0.0122292 0.00222301 0.200795 144 109 76
-0.0182456 0.00837334 0.220294 153 97 74
-0.0309216 0.00988256 0.233355 164 110 88
-0.0355116 0.0152949 0.235437 58 19 10
-0.00732656 0.0151999 0.22483 108 60 29
-0.00772179 0.0145979 0.21218 108 58 32
-0.0373015 0.0185682 0.21449 56 22 14
-0.0465805 -0.0345495 0.216692 132 93 62
-0.0412555 -0.0358356 0.235532 141 134 97
-0.0378156 -0.0284011 0.233064 102 60 27
-0.0380594 -0.021291 0.195797 154 105 76
-0.0254338 -0.0196427 0.206335 94 48 30
-0.0273161 -0.0172919 0.191013 116 65 41
-0.0708883 -0.01379 0.167088 163 147 126
-0.0208165 -0.0140065 0.206797 82 34 17
-0.0731774 0.00368575 0.184478 164 142 120
-0.0708371 0.00681127 0.170219 156 112 93
-0.0346244 0.0132325 0.217565 80 34 20
-0.00261763 0.0132654 0.202462 110 61 34
-0.0721174 0.0128189 0.175311 117 54 44
-0.0461095 -0.0381445 0.212822 138 121 77
-0.0817152 -0.0264574 0.310125 94 50 26
-0.117545 -0.0232109 0.370668 114 68 48
-0.0259737 -0.0125821 0.22074 123 72 52
-0.0283117 0.012555 0.203775 64 24 16
-0.0727045 0.0310874 0.182241 120 33 20
0.100807 -0.0875774 0.21098 159 153 104
0.0998058 -0.0817063 0.208557 152 140 97
0.0917007 -0.0755574 0.210043 152 136 110
0.102387 -0.0859288 0.261364 156 138 126
0.0743917 -0.0707696 0.241665 162 158 110
0.0639263 -0.0550948 0.190152 130 106 91
-0.012744 -0.0610896 0.225257 55 27 14
-0.00381014 -0.0632101 0.236195 54 35 14
0.0725938 -0.0652638 0.239554 164 161 110
0.0731307 -0.0638868 0.23715 163 160 110
0.086302 -0.0503802 0.177573 166 140 131
0.0633542 -0.0531514 0.196296 132 108 90
0.0747213 -0.0619431 0.240667 164 161 110
-0.0227474 -0.0566457 0.226577 52 22 12
-0.0210314 -0.0555143 0.221567 164 108 88
-0.0577418 -0.0494249 0.200808 84 56 38
-0.0114993 -0.054383 0.224013 149 93 74
-0.0227578 -0.056915 0.245555 38 15 6
-0.0181413 -0.0511599 0.225965 160 94 77
0.0806714 -0.041764 0.177578 162 138 130
0.0912999 -0.0430906 0.184 156 134 128
0.0676533 -0.0435107 0.192375 160 156 112
0.0824741 -0.041802 0.181864 162 138 130
-0.0154819 -0.0464191 0.223844 174 110 89
0.0872206 -0.0380872 0.182298 74 48 38
-0.0109501 -0.0402736 0.222885 144 96 74
-0.018581 -0.0416368 0.243132 154 104 78
-0.0519735 -0.034633 0.209276 100 60 34
0.0825089 -0.0386624 0.23626 92 18 10
-0.0244287 -0.0429865 0.282762 158 115 84
0.0794077 -0.0394048 0.248923 160 158 110
-0.0548024 -0.0334514 0.207025 115 72 52
-0.00187273 -0.0372356 0.238097 80 38 26
0.0922101 -0.0343049 0.211083 118 88 76
-0.0277494 -0.0379675 0.246903 118 76 47
0.0877647 -0.0328148 0.202207 114 82 70
0.0784573 -0.0348203 0.23316 143 108 80
0.0809609 -0.0313728 0.201035 80 66 49
-0.0175229 -0.0332735 0.229317 164 117 87
0.0909991 -0.0305698 0.20054 149 58 40
0.0855137 -0.0295475 0.201439 110 80 68
0.0966595 -0.0285794 0.205485 160 66 48
-0.0301061 -0.0302889 0.241748 95 46 26
0.078832 -0.0289234 0.228008 143 114 100
0.0657725 -0.0267527 0.224544 163 156 132
0.0733199 -0.0246779 0.230941 162 150 132
0.0699515 -0.0218632 0.230308 164 154 131
-0.0234333 -0.0192385 0.201449 102 62 43
0.110182 -0.0204888 0.296655 134 100 76
0.102768 -0.0179944 0.279697 154 124 106
0.0823659 -0.01779 0.27386 158 150 130
-0.0334014 -0.013421 0.195894 98 52 36
0.0797182 -0.01107 0.210015 116 88 76
0.109517 -0.0101258 0.231912 141 106 90
0.0708071 -0.00679791 0.242228 105 64 34
0.0792206 -0.00650539 0.215118 116 90 77
0.0857694 -0.00621505 0.210194 129 98 80
0.0608564 -0.00284732 0.245077 142 132 104
0.101977 -0.00130174 0.221762 129 104 88
0.0993347 0.000551781 0.214623 156 130 115
0.0796979 0.0058048 0.296141 136 126 96
0.0182457 0.000608484 0.185922 164 149 130
0.0111758 0.00167057 0.196922 167 151 136
0.0118594 0.00170015 0.197576 168 152 136
0.0138699 0.00182632 0.199534 168 152 134
0.0654979 0.00513019 0.228722 138 112 95
0.0690296 0.00639159 0.233339 148 124 106
0.0611487 0.0059229 0.22662 123 102 80
0.00860653 0.00875146 0.274578 173 130 112
0.0712885 0.00546559 0.211348 156 128 118
0.0720426 0.00534401 0.208783 153 128 120
0.0767832 0.00583274 0.207759 130 85 64
0.105982 0.008023 0.223082 85 43 26
0.0091469 0.00745189 0.240962 149 110 88
0.0116045 0.00406201 0.173928 128 29 20
-0.0327741 0.0131374 0.250339 84 34 25
-0.022095 0.0144186 0.259992 190 143 122
0.00723035 0.00613756 0.168914 124 24 18
-0.0187355 0.0145308 0.256251 177 126 108
0.068952 0.0156486 0.244871 78 55 30
0.0177694 0.0100315 0.170601 134 24 22
0.00380438 0.0132612 0.179357 140 22 18
0.0185906 0.0122977 0.166745 95 18 15
0.0364244 0.0169442 0.197145 144 24 24
-0.0413132 0.0225327 0.24573 94 50 34
-0.00114333 0.0170246 0.197275 157 135 122
0.0205403 0.0172894 0.177258 84 82 64
0.0202361 0.0167844 0.173938 88 84 66
0.0272299 0.0221668 0.186261 111 93 88
0.0211994 0.0199195 0.173294 136 118 111
-0.0710458 0.0259759 0.198165 158 138 128
0.0126347 0.0284859 0.191203 144 23 21
-0.070928 0.0255514 0.183039 158 137 124
-0.0682966 0.0275517 0.187679 145 126 114
0.0149713 0.0322844 0.191816 134 64 66
-0.0710088 0.0302824 0.192777 142 123 110
-0.0751257 0.0260877 0.172972 146 84 20
-0.0659852 0.0389725 0.20395 144 124 114
-0.0785741 0.0339514 0.183817 90 10 9
0.0764369 -0.0516004 0.179885 163 134 124
-0.0638989 -0.0509847 0.202523 81 49 31
-0.0147156 -0.0507291 0.214669 179 107 84
-0.0498715 -0.0464497 0.210189 150 147 95
0.0698169 -0.0425985 0.192011 153 143 98
0.0716382 -0.0393599 0.225616 164 160 108
-0.0630117 -0.0280425 0.209865 144 88 66
-0.0148096 -0.0277514 0.209726 176 130 109
-0.0453284 -0.0119628 0.19833 169 110 92
0.07158 -0.00158381 0.222042 88 46 22
-0.00217706 -0.00193779 0.229916 172 125 106
-0.0665469 0.0030739 0.173282 150 112 68
-0.047613 0.0147047 0.216684 134 83 64
0.0030821 0.0154867 0.198898 161 138 123
-0.0823926 0.0115114 0.167491 116 29 30
0.00977566 0.0296875 0.196334 152 50 46
-0.0700523 0.0384128 0.181536 133 14 18
-0.0199001 -0.0416734 0.227795 147 96 64
-0.0568445 -0.0136286 0.207636 113 67 48
-0.00619709 -0.0609704 0.223167 50 30 14
-0.0742316 -0.0220893 0.159093 163 150 128
0.0143346 0.00152637 0.186479 156 132 108
0.0122381 0.0186687 0.182787 152 55 50
0.0281827 0.0212264 0.186258 122 75 74
-0.00784604 -0.0617222 0.222725 59 38 20
-0.0690972 -0.0500616 0.206694 62 30 14
-0.0643003 -0.00444801 0.182373 128 14 14
-0.0657267 -0.032509 0.204608 58 26 18
0.0862141 -0.0751551 0.198789 142 126 93
-0.00605547 -0.0606256 0.221917 46 26 10
-0.0172017 -0.0346062 0.220677 168 120 92
0.068451 -0.00487289 0.229693 94 62 31
-0.0701764 -0.000127234 0.164312 100 16 10
0.0621577 -0.0598609 0.191166 113 86 60
-0.0150346 -0.0284347 0.212049 186 142 122
-0.0731252 -0.00508943 0.158169 136 76 76
-0.0801578 0.0104055 0.163396 118 58 65
-0.0558132 -0.0387353 0.200312 162 103 86
-0.0539543 -0.0189099 0.202667 128 82 62
-0.0709127 0.0312237 0.179304 128 14 16
-0.0573044 0.0169203 0.223637 120 70 52
0.0785804 -0.0399514 0.187176 144 126 90
0.0767315 -0.0422649 0.225187 140 112 73
0.106967 -0.0219179 0.210234 176 141 122
-0.0701393 -0.0238417 0.215844 62 22 16
0.0665486 -0.0168866 0.22691 150 135 108
0.10335 -0.00722075 0.218754 66 43 28
0.0853091 -0.00683237 0.229322 78 62 53
0.0106514 0.00203376 0.184625 154 128 106
-0.0330199 0.0103095 0.230239 86 36 22
-0.0812572 0.00825311 0.167759 96 42 40
0.0272396 0.0217898 0.185652 96 79 72
0.0211097 0.026575 0.188841 156 24 24
-0.0777077 0.0222962 0.174202 127 20 18
0.10754 -0.0543111 0.186092 143 110 94
0.0833606 -0.034202 0.201753 106 104 70
-0.0380248 -0.020101 0.193646 186 132 95
0.0728992 -0.000631793 0.220899 90 48 24
-0.0690164 0.0166824 0.183405 162 139 123
-0.0381789 -0.0236618 0.206452 130 86 52
0.0794723 0.00236426 0.217921 102 56 27
-0.0525254 0.0189476 0.218125 98 52 30
0.00779386 0.0268649 0.193957 154 108 92
0.0232245 0.0267422 0.191506 157 25 24
-0.0447892 -0.0383096 0.218648 136 128 78
-0.0212359 -0.0384197 0.22489 169 121 92
-0.0434705 -0.0376566 0.229923 123 119 72
-0.0354609 -0.0283286 0.232659 82 40 14
-0.0406387 -0.0254576 0.214588 100 64 28
-0.0291508 -0.0122209 0.201379 143 84 66
-0.0712425 0.0032448 0.230644 158 111 86
0.0119389 0.00235044 0.208942 148 110 82
-0.0329636 0.00784224 0.219264 89 38 24
-0.0699022 0.0114879 0.175499 159 141 122
0.015779 0.0160661 0.188717 67 15 8
0.0114784 0.0175331 0.191943 154 21 18
0.0119478 0.0187458 0.192963 150 21 17
-0.075489 0.0208678 0.18468 120 40 36
-0.0708022 0.0230857 0.191935 156 133 117
0.0269406 0.0222392 0.192361 129 110 106
0.0119839 0.0230846 0.19255 111 92 86
-0.080294 0.0283401 0.18548 155 99 36
0.0182616 0.0300019 0.203665 156 24 22
0.0318971 -0.00411875 -0.017926 112 86 42
-0.00915384 -0.0645455 0.235053 50 33 12
-0.00772364 -0.0241992 0.221866 68 26 15
-0.0334398 -0.0179433 0.189875 148 100 78
0.0144577 0.0201616 0.201306 118 28 24
-0.0739323 0.019765 0.166256 110 24 26
-0.0714345 0.0235374 0.178466 154 126 102
-0.0429986 -0.0375219 0.208923 138 127 82
-0.0373167 -0.0250939 0.208101 104 66 30
