ply
format ascii 1.0
element vertex 239
property float x
property float y
property float z
property uchar red
property uchar green
property uchar blue
end_header
-0 -0 -0 0 255 0
0.21018 0.651077 -0.23479 0 255 0
1.15443 0.624268 -0.369262 0 255 0
1.99613 0.57072 -0.485507 0 255 0
3.04593 0.514872 -0.437527 0 255 0
4.08583 0.475154 -0.32664 0 255 0
5.01359 0.44159 -0.083698 0 255 0
5.8041 0.285138 0.341709 0 255 0
6.65028 0.167987 0.941276 0 255 0
6.88751 0.099249 1.15088 0 255 0
6.59551 0.781727 1.03408 0 255 0
5.85073 1.01508 0.871333 0 255 0
4.91165 1.01146 0.397369 0 255 0
4.03044 1.05478 -0.142181 0 255 0
2.67401 1.23437 -0.677871 0 255 0
-2.37196 -2.6517 7.7715 102 106 72
-2.28056 -2.5962 7.76215 112 112 78
2.26773 -3.24516 9.69307 138 140 108
-0.862744 -3.0249 9.98076 118 122 89
-0.610133 -2.76889 9.84568 127 132 96
-1.76694 -2.20287 7.99044 127 124 104
-0.656972 -2.66696 9.74798 129 132 98
-0.481321 -2.61655 9.76156 154 156 124
-1.63529 -2.10306 8.05614 122 120 100
-1.65303 -2.02463 7.98484 144 141 120
-1.48897 -2.00374 8.14096 131 128 105
-0.41349 -2.31602 9.56018 112 120 82
-1.42699 -1.92703 8.1838 120 118 95
-1.32758 -1.88513 8.25155 114 118 94
-1.40891 -1.81448 8.07878 114 114 92
-1.31087 -1.81656 8.09826 117 118 96
-0.259703 -2.09389 9.46918 112 125 82
-1.44487 -1.75873 8.03085 108 108 82
-1.26877 -1.81291 8.30532 118 118 98
-1.31973 -1.73988 8.12154 122 122 99
-1.17396 -1.76905 8.32862 116 119 96
-1.33807 -1.66232 8.08044 130 128 101
-1.10277 -1.68786 8.3668 142 141 123
-1.16852 -1.59752 8.19023 127 126 103
-1.16555 -1.48511 8.18713 138 134 110
-1.00604 -1.47637 8.26313 117 118 96
0.0354233 -1.649 9.28238 125 138 93
-0.844921 -1.50199 8.5112 127 126 106
0.0568938 -1.58378 9.24237 123 134 88
-0.908822 -1.38562 8.31131 120 120 100
-0.670713 -1.36767 8.61643 118 120 94
0.133168 -1.43807 9.17908 126 136 94
-0.75092 -1.24934 8.4029 122 123 101
0.203867 -1.35473 9.16307 130 140 99
-0.517453 -1.23619 8.72806 125 125 102
0.295523 -1.22702 9.13257 138 145 103
-0.371308 -1.11302 8.82349 124 124 100
-0.696531 -1.02942 8.2615 124 122 100
-0.522282 -1.04434 8.53464 125 126 104
-0.223976 -0.99023 8.91313 123 124 96
2.88253 -0.973929 9.81267 216 227 186
-0.129103 -0.702693 8.7354 120 120 93
-0.0537666 -0.701978 8.82102 120 120 92
-1.61026 -0.656738 9.32649 114 112 82
-1.4264 -0.647055 9.32362 114 116 82
0.0312138 -0.578306 8.7936 120 122 90
2.55309 -0.599635 9.95006 222 231 190
2.82145 -0.575148 9.88623 78 76 37
0.305759 -0.489032 9.0595 114 119 84
-2.05526 -0.489873 9.3285 212 210 158
-0.776275 -0.469054 9.31832 160 164 130
2.8297 -0.480036 9.76141 112 101 67
-0.624217 -0.393087 9.42012 160 162 126
-0.841059 -0.327525 9.14763 97 90 65
1.35148 -0.352021 9.16225 100 105 78
-1.00926 -0.31015 9.23579 176 148 114
0.252302 -0.282421 8.74728 106 110 82
-0.715629 -0.252944 9.15547 96 96 76
-0.819949 -0.19346 9.02537 110 86 63
-0.544631 -0.140817 9.16679 87 89 64
1.97825 0.215155 9.7082 76 74 50
1.88504 0.680371 8.65388 86 86 61
2.06182 0.897095 8.30998 76 80 56
-0.356093 0.938387 8.58991 154 118 92
1.78002 0.942149 8.36854 54 40 23
1.33432 0.988664 7.98358 110 74 60
1.78788 1.02768 8.46672 80 50 32
1.81947 1.09932 8.39475 157 117 97
1.30464 1.16966 8.17902 118 89 80
1.47446 1.22514 8.27183 226 196 192
1.28874 1.26819 8.28494 203 171 161
1.73064 1.33019 8.60702 179 146 140
0.691238 1.42243 8.33682 110 58 48
1.64402 1.92502 9.00015 120 82 80
1.46621 2.00531 8.91143 130 92 90
1.79543 2.10744 9.35235 146 100 95
1.40831 2.07706 8.9509 111 82 80
2.74134 1.94442 8.01084 227 219 212
2.94165 1.90243 7.70048 228 220 213
2.89139 1.94648 7.73416 227 218 214
1.69001 2.44433 9.53832 137 92 92
1.68355 2.74311 9.8877 148 98 97
0.550331 2.79279 9.53587 106 59 50
-2.03765 -2.30006 7.75095 88 88 62
-1.90133 -2.30046 7.90882 144 139 126
-1.8033 -2.0843 7.85955 116 114 84
-1.71835 -2.05441 7.9499 84 88 66
-1.2689 -1.75108 8.22147 90 94 69
-1.08266 -1.67368 8.36497 100 102 82
-0.708089 -1.38388 8.49902 121 123 101
0.0650828 -0.685756 8.94474 97 100 65
-1.79744 -0.594078 9.26449 124 122 85
-0.535526 -0.335695 9.43329 128 131 96
2.27978 0.793731 8.91323 64 50 31
1.95311 0.827842 8.42574 60 62 40
1.52329 1.11124 8.27366 64 32 21
1.3424 1.25552 8.27451 210 184 181
1.30894 1.36217 8.36225 157 119 110
1.46541 1.69556 8.74719 86 50 42
1.61346 2.07315 9.09663 119 79 77
1.37666 2.25922 9.04196 87 70 59
-0.312923 -2.42532 9.66599 92 104 68
1.20265 0.763322 8.32854 34 30 16
1.67579 0.887301 8.46096 40 40 22
-1.10392 -3.24463 10.1747 167 166 123
0.804814 0.716442 7.1132 92 102 61
0.746741 0.816322 7.03225 81 92 52
1.36567 1.24992 8.27605 199 170 166
1.35114 1.36264 8.36573 188 153 147
1.90219 1.63636 9.07746 103 68 65
1.60522 1.67543 8.68102 110 73 70
1.71304 1.74965 8.88292 96 62 59
1.32092 2.27187 9.01081 82 70 54
1.39145 2.56824 9.37482 86 64 48
1.54185 2.79224 9.64588 137 93 94
1.42659 3.06801 9.9095 118 93 79
-1.49067 -1.7994 8.0158 98 98 69
-0.387069 -0.285227 9.18727 129 134 94
1.89488 1.17055 8.48387 180 145 134
3.36005 -1.97408 8.65201 106 102 72
-0.216254 0.653927 8.15443 98 68 46
-0.739783 -2.89734 9.90464 66 74 38
-1.70368 -2.137 8.0005 62 66 40
0.150525 -1.84186 9.42204 77 91 50
2.44173 -0.530562 9.95273 162 174 130
1.59697 -0.334402 8.88957 51 56 34
1.8745 -0.409358 10.5538 167 174 132
1.09601 0.238625 9.74004 60 66 51
0.990916 0.473857 9.39608 122 121 116
-0.470695 0.786922 8.63468 110 86 80
0.927033 0.98753 8.42163 72 58 43
1.16877 1.06155 8.23712 42 18 11
1.65312 1.13375 8.26391 162 123 107
1.75775 1.20853 8.47775 162 122 106
1.24089 1.27822 8.25062 146 112 102
1.77135 1.35929 8.64314 50 20 16
1.15634 1.52501 8.46643 53 17 10
1.73715 1.55509 8.76741 70 35 31
1.19431 1.57477 8.50564 70 33 28
1.67462 1.69531 8.84231 74 40 39
1.14358 1.71346 8.59964 64 26 19
1.18473 1.75602 8.62976 70 32 24
1.08182 1.89376 8.53914 70 28 18
1.17413 1.95675 8.77602 66 28 20
2.0578 2.04744 9.59693 72 40 36
1.10235 2.32866 9.08039 57 20 16
1.08636 2.64732 9.30962 69 22 18
2.28547 -0.444504 10.1 158 173 128
0.930736 0.0509555 9.03027 116 118 102
0.70199 2.71719 9.61008 94 36 22
1.35896 2.8621 9.62243 105 58 53
-1.84977 -2.24186 7.96235 76 76 50
3.65043 -2.08402 8.59249 86 84 58
1.50758 -0.421122 8.9002 58 63 46
0.97813 -0.259144 8.27779 62 64 23
1.06372 -0.222864 8.16425 40 48 24
2.2226 -0.361633 9.9823 148 165 119
0.759414 0.249152 9.12463 93 90 68
0.856282 0.412213 8.93725 56 62 45
-0.32942 0.614724 6.79618 40 55 32
2.42503 0.901947 9.05223 99 78 62
0.822708 1.12588 8.06721 58 19 10
0.941874 1.12351 8.13516 74 30 21
1.57517 1.09788 8.25386 53 18 11
0.93899 1.28386 8.19662 173 120 93
1.1998 1.38808 8.39201 140 102 92
0.793113 1.65867 8.52834 70 26 18
2.07511 1.80794 9.48831 78 48 42
1.68234 1.95105 9.02295 54 22 18
0.660941 2.0013 8.71469 68 32 21
1.99222 2.12404 9.68524 76 46 43
1.13191 2.73752 9.37706 90 39 28
1.01445 3.12777 9.75145 99 44 30
1.08018 -1.35764 8.22572 109 117 66
2.35016 -1.0471 8.65204 50 58 40
1.86999 -0.724939 8.75973 28 34 15
1.93473 -0.654316 8.7925 36 44 28
-0.400121 0.602593 8.85842 52 42 24
0.975495 1.2914 8.18085 166 116 89
1.91722 1.83162 9.2765 70 39 36
1.10364 3.04702 9.64904 61 18 12
1.78691 -0.388854 10.6028 146 158 114
0.842577 -0.0567163 8.50236 96 95 64
0.141152 -1.51764 6.90937 61 75 31
0.158956 -1.49026 7.0322 68 82 36
-0.43059 -1.14701 8.75317 56 64 32
2.0158 -0.781638 6.76016 74 74 69
0.0471254 -0.601718 8.86551 46 50 18
0.236036 -0.629961 9.05964 50 58 18
0.321176 -0.58235 9.02431 68 69 32
0.617515 -0.562739 9.02557 100 97 46
1.75805 -0.497166 8.85805 46 50 36
1.50153 -0.322734 8.04308 62 70 48
0.938173 -0.135169 8.05079 88 87 52
2.69261 -0.301129 9.53932 128 124 98
-0.78136 -0.0300624 8.7967 149 148 93
0.931103 0.0023702 7.82134 77 77 46
0.7736 0.0672447 8.88099 96 94 76
-0.465632 0.45321 7.28558 56 62 30
-0.201705 0.488947 7.11913 44 50 32
0.791921 0.414244 8.78808 44 50 34
-0.561374 0.528793 8.43132 88 83 55
1.07636 0.521968 9.44505 67 68 54
-0.52765 0.680685 8.8846 43 28 17
0.904461 0.747688 7.60404 40 43 29
2.17916 0.753498 8.95015 22 10 7
2.33293 0.955465 8.81064 114 92 76
2.37941 1.02796 8.81077 142 117 108
0.759942 1.13406 8.08885 46 16 8
0.858979 1.13005 8.16456 64 23 14
0.981841 1.12353 8.22308 78 31 20
0.692962 1.22529 7.9901 149 99 68
1.17812 1.29586 8.29696 116 80 68
1.08583 1.31037 8.27419 100 56 41
0.684352 1.66449 8.62855 72 28 20
0.427247 1.79712 8.7309 72 32 24
2.13896 1.75 9.52839 70 41 37
0.559497 1.82353 8.74675 54 19 12
0.46709 1.85268 8.77009 20 4 1
2.04112 1.77781 9.42228 76 44 42
0.358582 1.96565 8.89958 80 38 26
1.10766 1.93961 8.79191 64 30 22
1.95344 2.0843 9.65306 66 32 28
1.31793 2.08413 8.89417 70 36 28
