ply
format ascii 1.0
element vertex 456
property float x
property float y
property float z
property uchar red
property uchar green
property uchar blue
end_header
0.00183627 -0.00208339 0.00942737 0 255 0
0.000484937 -0.00289763 0.00954802 0 255 0
-0.0581896 -0.0160882 0.0151069 0 255 0
0.000793933 -0.0029357 0.00557374 0 255 0
0.000780486 -0.00292284 0.00554929 0 255 0
0.000793609 -0.00293506 0.00557547 0 255 0
0.000757035 -0.00290683 0.00557663 0 255 0
0.000757016 -0.00290683 0.00557665 0 255 0
0.000742823 -0.00290903 0.0055805 0 255 0
0.00074284 -0.00290905 0.00558063 0 255 0
0.000760168 -0.00290624 0.00558129 0 255 0
0.000757957 -0.00290521 0.00558565 0 255 0
0.000757122 -0.00290544 0.00558496 0 255 0
0.000792813 -0.00293337 0.00558019 0 255 0
0.000756816 -0.00290298 0.00560312 0 255 0
0.00679589 0.00603104 -0.00371835 162 158 136
0.00652581 0.00556542 -0.00394638 142 142 118
0.00604496 0.00343287 -0.00635147 184 186 146
0.00561054 0.00266631 -0.0068881 166 165 136
0.00480528 0.00253106 -0.00618772 166 165 140
0.00404265 0.0041248 -0.00747074 93 80 53
0.00322069 0.00352822 -0.00705691 176 126 100
0.00282389 0.0028454 -0.00651189 142 98 71
0.00197871 0.00179907 -0.00705963 88 64 47
0.00201849 0.00170774 -0.007254 164 152 153
0.00196593 0.00170601 -0.00703863 234 229 238
0.00198384 0.00164699 -0.0072816 148 138 139
0.00192337 0.00179861 -0.00728427 226 212 216
0.00192702 0.00170742 -0.00725355 75 54 40
0.00104989 0.00274006 -0.00899069 200 182 158
0.00124043 0.0016409 -0.0074164 85 47 31
0.00125718 0.00151609 -0.00740149 81 41 24
0.000960777 0.00266505 -0.00927689 188 152 136
0.000931001 0.00245209 -0.00880507 78 42 22
0.000622467 0.00260158 -0.00943603 199 161 137
0.000549416 0.00271102 -0.00943629 182 155 128
0.000598179 0.00246968 -0.00917872 80 40 20
0.000486351 0.00244814 -0.0092296 90 49 28
0.000328759 0.00243778 -0.0095299 70 35 16
0.000242958 0.0022541 -0.00958279 188 160 146
0.00159201 -0.00299667 -0.00993055 72 48 40
0.000720239 7.90348e-05 -0.00766454 62 30 25
0.000738438 -4.90347e-05 -0.00772493 49 20 18
0.0014859 -0.002895 -0.00979663 108 75 73
0.000356333 -7.79547e-05 -0.00818125 120 90 84
0.000350164 -0.000143515 -0.00800152 48 21 16
-0.000464793 0.0013925 -0.00986542 80 32 12
-0.000905272 0.00176352 -0.010471 154 125 106
-0.000156733 -0.000191285 -0.00855356 174 150 150
0.000446492 -0.00235505 -0.00933625 73 38 38
0.000230491 -0.00270592 -0.0102885 124 80 76
-0.000961994 0.00111089 -0.00994865 66 24 8
-0.00105485 0.00101122 -0.0102057 62 28 18
-0.000672862 -0.000360578 -0.00897438 172 140 139
-0.000759295 -0.000375962 -0.00911056 162 140 142
-0.00148482 0.000761097 -0.010293 109 66 50
0.00654958 0.00560882 -0.00399549 145 145 122
0.00640507 0.0049897 -0.0044361 160 158 135
0.00617751 0.00497223 -0.00437314 162 158 130
0.00630058 0.00472249 -0.00494063 150 148 126
0.00573091 0.00342552 -0.00597568 150 148 126
0.00536778 0.00247196 -0.00678205 150 152 124
0.00402067 0.00394481 -0.00732324 127 112 85
0.00385819 0.00368379 -0.00722748 166 146 121
0.00481323 0.00343027 -0.0117372 189 183 143
0.00198016 0.00173953 -0.00716075 192 180 183
0.00189091 0.00157138 -0.00703043 78 60 54
0.00188068 0.00148767 -0.00716567 92 62 53
0.00165783 0.00176455 -0.00685139 117 75 52
0.00144721 0.00232495 -0.00742351 110 64 44
0.00125135 0.00169923 -0.00727887 158 120 106
0.00126453 0.00160289 -0.00751902 134 92 77
0.000627156 0.00259808 -0.00938725 174 135 111
0.000252848 0.00239734 -0.00950903 75 52 33
0.000249612 0.00224712 -0.00952418 162 134 118
0.00166447 -0.00303907 -0.00993625 189 168 161
0.000519244 0.000475318 -0.00785783 158 118 104
0.00040706 2.48398e-05 -0.00810871 70 34 28
-0.000379696 0.00203645 -0.0100701 188 168 142
0.000363593 -0.000150536 -0.00791472 70 42 38
5.18098e-05 -0.000103629 -0.00824213 57 20 13
0.000705127 -0.00258737 -0.00980938 116 74 70
-0.000469331 0.00118612 -0.0094884 70 30 16
0.000452826 -0.0023403 -0.00916739 68 35 34
-0.00015551 -0.000277023 -0.00854763 86 52 48
-0.00026672 -0.000202272 -0.00881315 144 124 122
9.85355e-05 -0.00266826 -0.0109949 103 64 59
-2.33455e-05 -0.00241534 -0.00998578 96 63 61
-5.95316e-05 -0.00229269 -0.00974774 90 52 48
-0.00160456 0.000673531 -0.0105921 113 74 66
0.00684198 0.00547733 -0.0045108 176 172 127
0.00646648 0.00549248 -0.00424103 116 114 90
0.00634013 0.00544314 -0.00399333 120 120 87
0.00660992 0.0050029 -0.00495731 133 131 98
0.00630912 0.00472413 -0.00494967 148 148 125
0.00607208 0.00478589 -0.00476937 149 146 118
0.00552079 0.00299701 -0.00653102 154 155 134
0.00501186 0.0028565 -0.00584045 182 179 158
0.00529895 0.00230852 -0.0068592 150 150 120
0.00504307 0.00193321 -0.00707131 164 164 134
0.00459743 0.00458154 -0.00794041 206 208 164
0.00402355 0.00397361 -0.00740194 148 127 98
0.00394201 0.00424419 -0.00745538 181 166 120
0.00390153 0.00343481 -0.00775868 210 207 176
0.00457857 0.00241673 -0.010147 128 104 82
0.00354871 0.0040041 -0.0094324 138 96 67
0.00153174 0.00202077 -0.00678708 204 156 124
0.00111386 0.00245049 -0.00843064 160 122 104
0.00124245 0.00159558 -0.00725293 90 50 34
0.00125999 0.00151989 -0.00719571 134 93 76
0.00057908 0.00251217 -0.00938183 78 38 18
0.00130327 -0.000449786 -0.00730425 172 130 126
0.000482961 0.00225534 -0.00944975 66 23 10
0.000380612 0.00250367 -0.00946855 200 179 157
0.000207898 0.00223368 -0.00923674 197 184 162
0.00166841 -0.00304334 -0.00995569 185 165 158
0.000518781 0.000475788 -0.0078368 158 118 104
0.000403806 4.28115e-05 -0.00818688 70 34 28
0.001155 -0.00301444 -0.0101007 146 114 112
0.00071364 -0.00260062 -0.00983783 115 74 70
7.16273e-05 -0.000246081 -0.00825594 90 48 38
-0.000892643 0.00171046 -0.0102806 154 125 106
-3.76195e-05 -0.00234553 -0.00997557 170 144 140
-0.000153943 -0.00230274 -0.00993619 90 54 50
0.00670388 0.00512094 -0.00478832 144 142 104
0.0054654 0.00356159 -0.00550989 176 174 148
0.00504474 0.0028912 -0.00601986 179 177 155
0.00360253 0.00366079 -0.00973898 100 58 33
0.000615023 0.00258451 -0.00935822 196 159 134
0.000499631 0.0022765 -0.00944057 62 21 7
0.000364278 0.00250042 -0.00947561 212 194 172
0.0011458 -0.00300732 -0.00995303 140 112 110
0.00106501 -0.002963 -0.00997565 171 146 141
0.000559814 -0.00248482 -0.00941553 85 54 53
-0.000992978 0.00108422 -0.0100436 56 14 2
0.00666711 0.00509757 -0.00469788 151 148 114
0.00649196 0.00468422 -0.00502312 176 175 142
0.00606959 0.00417378 -0.00534413 160 158 138
0.00570942 0.00340178 -0.0061593 154 151 128
0.00390413 0.00423711 -0.00738207 218 216 173
0.00472512 0.00225272 -0.0105551 42 25 10
0.00362729 0.00378321 -0.00824675 207 198 162
0.0013315 0.00174599 -0.00470056 198 184 162
0.00189052 0.00010449 -0.0068879 82 44 35
0.00124373 0.00161677 -0.00802865 70 32 16
0.00107011 8.08289e-06 -0.00735847 61 29 22
0.000267283 0.00240781 -0.00941162 138 120 99
0.000186372 0.00226295 -0.00945867 202 189 168
0.000714981 -5.65188e-05 -0.00787723 37 16 12
-0.000522341 0.00188677 -0.0102459 84 43 24
0.000605697 -0.00239444 -0.00921479 160 140 141
-0.00018483 -0.00029194 -0.0085967 79 46 41
0.00634432 0.00520848 -0.0039485 174 164 142
0.0052182 0.00319051 -0.00567266 168 164 140
0.00369727 0.00389229 -0.00860002 214 204 167
0.00198345 0.00192154 -0.00555357 146 132 118
0.00144049 0.00195449 -0.00704735 188 147 118
0.000987581 0.00216038 -0.00711162 166 140 113
0.000643288 0.00250001 -0.00899545 160 122 98
0.00105895 -2.62306e-05 -0.00727472 64 32 24
0.000715965 -8.54499e-05 -0.00786038 36 16 12
-0.000519157 0.00183688 -0.00996963 99 59 41
-0.00152976 0.00055297 -0.0102108 80 40 28
-0.00125306 -0.000474748 -0.00949937 100 58 52
0.00658887 0.00499986 -0.00447397 170 167 132
0.00610089 0.00498008 -0.00416111 120 115 84
0.0058478 0.0032843 -0.00577708 150 151 121
0.00153104 0.00200891 -0.00691355 206 162 129
0.001669 -0.00302212 -0.0094478 186 162 157
0.00152317 -0.00294405 -0.00966461 102 72 70
0.000781731 -0.000431426 -0.00763887 39 15 5
0.00130838 -0.00302868 -0.0100996 124 98 92
-0.000701542 0.00189618 -0.00993172 190 174 148
0.00634723 0.00521495 -0.00400724 180 170 150
0.00122397 0.00154236 -0.00758903 74 37 21
0.00133317 -0.000377696 -0.00761924 130 84 77
-2.68202e-06 0.00223654 -0.00972994 144 118 98
0.000751726 -0.000129158 -0.00781377 51 24 21
-0.000139704 0.00220828 -0.00978656 146 122 98
0.000392084 -0.000214237 -0.00795053 50 24 20
-0.000129145 -0.000207878 -0.0081284 101 66 60
0.000785063 -0.00291466 0.00573405 126 104 94
-0.0297924 0.10298 0.442696 68 34 28
-0.0326054 0.105168 0.436968 50 20 15
-0.0453219 0.107627 0.42164 44 18 16
-0.0691459 0.0727215 0.405941 28 7 4
-0.0457968 0.0964579 0.420533 104 74 70
-0.0442572 0.0967791 0.422917 38 20 18
-0.0338376 0.114348 0.428781 100 66 61
-0.0345855 0.116513 0.437114 122 86 82
-0.0482927 0.103555 0.416771 56 27 22
-0.0348603 0.115091 0.431664 116 80 77
-0.0435502 0.0953793 0.420104 38 18 16
0.000781635 -0.00291197 0.00564701 68 23 16
0.000781095 -0.00291171 0.0056475 70 25 16
0.000781245 -0.00290816 0.00564982 81 36 21
0.000781188 -0.00290886 0.00564926 73 30 17
0.000773037 -0.00287796 0.00573346 93 62 58
0.000792797 -0.00293333 0.00558028 132 82 65
0.000788728 -0.0029232 0.00560883 100 62 56
0.00147576 -0.00217329 0.0165313 106 85 82
0.000779671 -0.00288444 0.00573992 60 27 27
0.000774568 -0.00293143 0.00568869 116 120 88
0.000755824 -0.00290725 0.00558274 148 134 86
0.000779844 -0.0029039 0.00571205 116 98 93
0.000765682 -0.00289491 0.00566812 118 93 90
0.000765614 -0.00288177 0.00574089 58 18 12
0.000782486 -0.00288896 0.00572523 116 86 78
0.000758105 -0.00290598 0.00558339 120 94 90
0.000773984 -0.00288137 0.00574009 120 98 96
0.000767287 -0.00287835 0.00573668 127 88 78
0.000773971 -0.00287873 0.00573675 133 98 91
0.000781085 -0.00290353 0.00572245 54 32 25
0.000763917 -0.00288732 0.00570459 67 30 26
0.000765657 -0.00288104 0.00573969 120 94 92
0.000768326 -0.00287748 0.00573634 80 40 34
0.000766894 -0.00288608 0.00569221 90 52 44
0.000773576 -0.00287902 0.0057331 83 46 38
0.000756451 -0.00290822 0.00558111 90 98 54
0.000550125 -0.00293923 0.00667829 136 96 77
0.000759696 -0.00289667 0.00565134 63 18 8
0.000765238 -0.0028801 0.00574201 54 20 14
0.000717401 -0.00298473 0.00582407 88 98 64
0.000775548 -0.0029305 0.00568158 150 160 118
0.000784479 -0.00291831 0.00573301 102 88 74
0.000782731 -0.00290621 0.00573631 38 15 10
0.000753222 -0.00289006 0.00571746 111 88 84
0.000757957 -0.00290521 0.00558565 78 43 35
0.00075621 -0.00290843 0.00558174 81 91 56
0.00075584 -0.00290698 0.00558341 84 59 36
0.000755209 -0.00290708 0.00558752 156 143 114
0.000765269 -0.00289674 0.0056752 93 72 68
0.000768379 -0.00287735 0.00573729 100 64 58
0.000773745 -0.00288192 0.00574091 108 82 80
0.000759993 -0.00289 0.00576229 93 60 52
0.000768401 -0.00287755 0.00573802 88 46 40
0.000777253 -0.00288158 0.00573471 70 38 36
0.00077994 -0.00288534 0.00573474 99 70 68
0.000759148 -0.0028811 0.00573367 124 82 76
0.000762122 -0.00288539 0.00574067 102 58 46
0.000765801 -0.00287905 0.00573067 105 54 34
0.000778912 -0.00288587 0.0057311 119 94 91
0.0007826 -0.00288333 0.00575122 80 50 48
0.000783191 -0.00287405 0.00578174 117 91 90
0.000759502 -0.00286648 0.00581905 108 74 68
0.000785904 -0.00290476 0.0057466 54 35 28
0.000785365 -0.0029044 0.00574555 106 94 88
0.000764431 -0.00289901 0.00567282 120 95 90
0.000903866 -0.00239612 0.00824636 96 49 29
0.000781229 -0.00292572 0.00572282 128 103 80
0.000764036 -0.00288059 0.00573759 46 12 3
0.000782446 -0.0028687 0.00582645 94 65 62
0.000700833 -0.00295475 0.00575276 79 78 40
0.000704113 -0.00295571 0.00576817 86 88 46
0.00068386 -0.00294026 0.00584525 49 40 6
0.000677396 -0.00293716 0.00585615 96 76 26
0.000693761 -0.00296106 0.00577403 104 104 58
0.000682452 -0.00294129 0.00585109 54 47 10
0.000754149 -0.00289517 0.00567579 117 87 76
0.000745217 -0.00289667 0.00570454 147 128 103
0.55326 -0.268277 3.38344 80 50 36
0.000785316 -0.00292275 0.00573541 99 92 76
0.000785382 -0.00291247 0.00573078 112 102 85
0.000785154 -0.00290626 0.00573053 51 28 16
0.000779905 -0.00290028 0.00573649 106 76 73
0.000764966 -0.00288027 0.00573946 52 18 9
0.000783019 -0.00288728 0.00573222 70 40 34
0.000779548 -0.00288565 0.00573351 124 99 100
0.000766359 -0.00287665 0.00573785 102 52 35
0.000784883 -0.00291759 0.00573277 68 54 42
0.000783738 -0.00290427 0.0057349 96 79 72
0.000783731 -0.00290346 0.00573472 76 62 57
0.000763415 -0.00288449 0.00574124 51 12 3
0.000779557 -0.00288385 0.00573083 79 61 58
0.000783852 -0.00290718 0.00573722 102 76 66
0.000783763 -0.0029037 0.00573462 114 102 97
0.000752007 -0.00288818 0.00573821 116 78 67
0.000752446 -0.00288765 0.00573841 106 78 68
0.000765435 -0.00288086 0.00574065 116 87 82
0.00076794 -0.00287605 0.00573776 100 58 43
0.000747344 -0.00289296 0.0057377 108 72 61
0.000752029 -0.00288809 0.00573728 120 86 74
0.000765136 -0.00288 0.00574267 50 15 9
0.000767446 -0.00287798 0.00573695 117 80 68
0.000766032 -0.00287737 0.00573416 98 48 30
0.000784807 -0.00291027 0.00573122 54 33 20
0.000784604 -0.00290619 0.0057303 43 18 10
0.000783483 -0.00290382 0.00573456 62 48 42
0.000755821 -0.00288408 0.00573812 102 58 50
0.000784684 -0.00289459 0.00573174 84 58 54
0.000767316 -0.00287761 0.00573772 110 68 55
0.000783546 -0.00290614 0.00572706 44 20 11
0.00077923 -0.00288498 0.0057327 78 51 50
0.00077989 -0.00288569 0.00573279 76 48 48
0.000774505 -0.00287779 0.005739 70 32 20
0.000779923 -0.00288569 0.0057329 76 46 46
0.000765782 -0.00287753 0.00573303 102 53 36
0.000784999 -0.00291838 0.0057337 138 126 114
0.000782554 -0.00288601 0.00573308 74 52 52
0.000784379 -0.00292142 0.00573339 128 117 105
0.000768694 -0.00287713 0.0057388 78 34 25
0.000776097 -0.00293392 0.00568016 91 98 57
0.000767966 -0.00289203 0.00569594 122 94 90
0.000770839 -0.00288646 0.00571328 122 97 93
0.000774344 -0.00290198 0.0056948 102 73 70
0.000762011 -0.00289443 0.00568101 106 56 45
0.000759842 -0.00287381 0.00577374 122 90 84
0.000769964 -0.00290509 0.00568311 31 7 6
0.000632844 -0.00296669 0.00605391 58 46 12
0.000767891 -0.00287464 0.00574276 111 68 52
0.000751008 -0.00289521 0.00570383 33 12 8
0.000767497 -0.00287493 0.00574338 102 58 40
0.000781981 -0.00294448 0.00577967 112 122 86
0.000741997 -0.00289325 0.0057479 141 114 91
0.000776471 -0.002936 0.00573659 86 98 60
0.000787165 -0.00290166 0.00574059 106 86 69
0.000782759 -0.00289966 0.00572498 102 76 72
0.000783651 -0.00289898 0.00573037 90 70 68
0.000789632 -0.00290123 0.00575342 117 98 82
0.000744048 -0.00285403 0.00595812 138 111 93
0.000741931 -0.00289082 0.00575834 114 89 66
0.000792183 -0.00289709 0.00576305 80 54 38
0.000782528 -0.00289544 0.00572158 76 48 42
0.000793313 -0.00281354 0.00608797 78 38 30
0.000783725 -0.00290424 0.00573143 33 17 12
0.000787849 -0.00290151 0.00574513 88 62 42
0.000789089 -0.00289793 0.00574731 80 50 35
0.00076073 -0.00289344 0.00567763 114 84 78
0.000776013 -0.00289057 0.00569632 80 55 54
0.000760849 -0.00286684 0.00579273 108 78 71
0.000742938 -0.00288935 0.00576034 148 128 105
0.000787247 -0.00290373 0.00574032 96 62 35
0.00078505 -0.00290191 0.00573031 86 56 38
0.000737675 -0.00293098 0.00573021 87 88 60
0.000836896 -0.00284831 0.00604013 72 44 35
0.000788106 -0.00287178 0.00580229 58 32 30
0.000755906 -0.00288071 0.00575845 125 101 98
0.000760914 -0.00289472 0.00566607 53 14 4
0.000719689 -0.00298072 0.00581117 96 104 70
0.00076544 -0.00288135 0.00573911 112 80 76
0.000757122 -0.00290544 0.00558496 74 48 43
0.000783912 -0.00287669 0.00577118 66 40 38
0.000768652 -0.00287681 0.00573501 154 118 107
0.000764816 -0.00288609 0.00574932 104 56 46
-0.0744953 -0.069741 0.268469 48 49 23
0.000731327 -0.00293359 0.00573564 78 81 56
-0.161526 -0.106542 1.06141 102 88 36
-0.0757366 -0.0913688 0.956854 115 104 64
0.000729095 -0.00292266 0.00573529 112 100 58
0.000760358 -0.00293146 0.0057411 78 69 55
0.000744446 -0.00291044 0.00558834 88 88 53
-0.000236745 -0.00344744 0.0151633 132 118 67
0.000744353 -0.0029103 0.00558801 138 136 100
0.000743562 -0.00290963 0.00558435 126 110 96
-0.105865 -0.0738602 2.56681 145 129 113
-0.0408016 -0.0241021 1.03267 130 113 92
-0.0471798 -0.0220051 1.1437 128 109 90
-0.173279 -0.0425679 3.94043 141 122 106
0.000726529 -0.00288645 0.00599493 161 134 116
0.000784579 -0.00291811 0.00573337 112 94 84
0.000784729 -0.00291785 0.00573269 68 54 42
0.000784008 -0.00291739 0.0057328 28 12 4
0.000784886 -0.00291471 0.00573279 118 102 90
0.00078667 -0.00291172 0.00573317 132 126 112
0.00075309 -0.00290957 0.00561711 112 92 79
0.000785546 -0.00291061 0.00573277 33 16 5
0.00075281 -0.00290882 0.00561572 132 120 107
0.000783223 -0.00290453 0.0057331 116 100 92
0.000747517 -0.0028983 0.00566171 121 88 77
0.000744738 -0.00290503 0.00561051 48 11 2
0.000784371 -0.00289873 0.00573289 112 89 83
0.000778135 -0.0028941 0.00573588 112 85 82
0.000774257 -0.00284976 0.00595852 126 88 78
0.000783154 -0.00283373 0.0060561 112 78 68
0.000784454 -0.00289444 0.00573001 107 82 80
0.00755978 0.00844197 0.0678932 103 66 62
0.000776959 -0.00286686 0.00581545 54 17 11
0.000762152 -0.00289834 0.0056545 110 84 82
0.000783153 -0.00288712 0.00573255 65 36 32
0.000752839 -0.00290025 0.00563255 120 92 90
0.000762369 -0.00289811 0.00565513 119 98 95
0.000764789 -0.0028921 0.00567565 84 62 61
-0.00808462 -0.0417767 0.129057 87 92 59
0.000744756 -0.00291067 0.00558985 149 149 114
0.000744151 -0.00291014 0.00558704 152 154 112
-0.149581 -0.0642437 3.54949 93 73 52
-0.168698 -0.0409954 3.80231 128 109 90
0.0142639 -0.00789232 0.0566536 96 76 62
0.000740467 -0.00290606 0.00570544 99 76 56
0.000741583 -0.00290687 0.00562045 152 116 92
0.000743046 -0.00290731 0.00560378 36 7 1
0.000786431 -0.00291219 0.00573337 66 59 44
0.00078548 -0.00291134 0.00573257 114 94 80
0.000786049 -0.00291148 0.00573164 89 80 67
0.000750723 -0.00290917 0.0056116 29 13 8
0.000782842 -0.00290726 0.00573425 88 66 56
0.000785941 -0.00290809 0.00573221 126 114 102
0.000782389 -0.00290667 0.00573395 37 18 10
0.000765972 -0.00290768 0.00566232 40 18 8
0.00419514 -0.00250022 0.0186581 104 88 80
0.000990806 -0.00287427 0.00651442 100 84 82
0.0007505 -0.00289459 0.00567299 106 62 52
0.00428017 0.0029999 0.0381706 112 72 66
0.000765411 -0.0028819 0.00573965 60 18 8
0.000773324 -0.00288181 0.00573694 110 88 84
0.000778456 -0.00288124 0.00573591 120 98 97
0.000754265 -0.00295172 0.0057395 128 130 86
0.000740646 -0.00291356 0.00560945 82 82 58
0.000727299 -0.00291768 0.00573291 118 101 52
0.000742868 -0.00290908 0.00558084 64 48 27
-0.110894 -0.0870765 3.03199 85 75 59
-0.142997 -0.0643472 3.41212 74 54 32
0.00077685 -0.00292013 0.005705 70 57 40
0.00456862 -0.00377921 0.0194559 135 124 112
0.000783971 -0.0029172 0.00573244 36 20 11
0.000742874 -0.00290368 0.00569106 108 64 34
0.000739629 -0.00290178 0.00571675 87 54 30
0.000777961 -0.0028901 0.00572537 126 101 100
0.000764094 -0.00288417 0.00571554 56 17 10
0.000779112 -0.00288618 0.00572983 128 100 99
0.000767859 -0.0028786 0.00573572 46 10 5
0.000776327 -0.00287797 0.00574531 102 68 64
0.000776123 -0.00287894 0.0057392 68 34 28
0.000768646 -0.00287711 0.00573303 156 118 106
0.000745999 -0.00289697 0.0057159 44 11 2
0.000752606 -0.00289043 0.00571995 118 82 72
0.000753465 -0.00289031 0.00571959 48 13 4
0.000756011 -0.00288437 0.00573454 115 85 80
0.000742503 -0.00290355 0.0056949 88 44 16
0.000744909 -0.00290217 0.00569936 102 65 50
0.000747201 -0.00290279 0.00568532 50 18 8
0.000755503 -0.00288376 0.00574126 110 66 58
0.000744751 -0.00290245 0.00569441 96 52 31
0.000743252 -0.00290347 0.00568998 92 49 21
0.00074693 -0.00287906 0.00579288 115 78 56
0.000780125 -0.00288401 0.00573479 116 98 96
0.000777062 -0.00288178 0.00573063 123 98 96
0.000768935 -0.00287612 0.00573847 144 105 95
0.000771596 -0.0028851 0.00571817 120 100 99
0.000777933 -0.00287937 0.0057425 122 97 96
0.000751285 -0.00290865 0.00563804 78 58 34
0.000756146 -0.00288134 0.00575262 122 95 88
0.000767824 -0.00287778 0.00573508 115 84 80
0.000769714 -0.00287201 0.00576397 88 51 41
0.000787056 -0.00292192 0.00575043 62 41 26
0.000753469 -0.00289282 0.0056978 122 90 82
0.000770621 -0.00288652 0.00570857 116 98 96
0.000741017 -0.00289111 0.00576745 73 32 15
0.000786508 -0.00292125 0.00574593 70 49 30
0.000755626 -0.0029031 0.00561087 127 107 83
0.000767818 -0.00287726 0.00573483 84 47 36
0.000771998 -0.00289351 0.00574924 38 18 15
0.000764677 -0.00288195 0.00573998 96 42 28
0.000767654 -0.00287784 0.00573584 117 92 84
0.00077378 -0.00288203 0.00574018 92 68 64
0.000765608 -0.00290785 0.00569116 142 120 114
