ply
format ascii 1.0
element vertex 442
property float x
property float y
property float z
property uchar red
property uchar green
property uchar blue
end_header
-0 -0 -0 0 255 0
-47.0297 22.1615 -40.8399 0 255 0
-1.49283 1.44231 -0.718321 0 255 0
-16.2709 -1.33513 -112.703 0 255 0
1357.49 -478.248 1870.59 0 255 0
19.4792 1.34605 -4.97629 0 255 0
-22.7259 -8.11029 19.0136 0 255 0
-22.1759 -7.70289 17.1628 0 255 0
-21.7872 -7.62756 17.3794 0 255 0
-449.09 -816.238 -1591.65 0 255 0
-4455.51 -1422.23 -1300.71 0 255 0
-501.419 -788.757 -1634.93 0 255 0
-449.411 -814.569 -1591.76 0 255 0
-402.471 -853.649 -1562.15 0 255 0
-377.087 -839.555 -1534.53 0 255 0
-21.5074 -7.42992 16.7392 0 255 0
-22.5453 -7.71633 17.439 0 255 0
-24.7939 -8.54306 15.0005 0 255 0
-3.2778 -13.6747 134.677 230 220 206
10.8826 -9.62863 131.899 126 97 95
12.9032 -10.2298 142.902 44 54 76
-34.5024 -12.0809 114.123 129 116 104
-3.39673 -20.8219 133.192 167 128 104
-28.2818 -3.16528 123.575 60 50 43
-29.2531 -2.6118 124.026 124 112 100
24.8279 10.816 98.1976 192 184 126
0.601631 -17.9779 131.521 238 217 194
-2.20739 -14.2766 135.654 211 199 168
-29.1308 -13.4983 119.673 147 129 108
-27.8561 -3.5218 125.087 108 96 88
-35.372 -11.8949 114.411 98 86 74
26.954 -10.0403 118.215 254 178 106
-33.3159 -9.15405 119.792 64 37 38
-29.8123 -7.25086 125.888 18 8 6
-35.7046 -9.9365 115.336 186 159 126
-29.6088 -10.1759 124.347 121 98 78
-34.2562 -13.2253 114.829 26 20 14
-29.4977 -4.04837 128.829 116 106 99
-1.95695 -18.3964 142.552 228 206 154
-29.9612 -2.42083 122.259 20 15 16
13.3962 -24.9361 108.055 229 199 203
17.2018 -27.2218 109.38 170 94 116
1.81175 -12.9527 146.1 229 222 218
24.7847 -7.65128 132.378 177 154 136
16.1952 -26.4303 111.437 202 192 190
16.0767 -11.5425 144.076 61 28 18
16.1221 -26.6191 111.502 198 190 186
0.956779 -13.8872 146.56 226 228 228
19.4892 -13.9427 127.555 31 66 98
22.9965 5.22106 93.3154 202 181 164
26.2173 9.02708 96.6525 252 248 172
25.8488 7.98682 94.902 194 172 136
-29.2062 -16.5366 116.927 22 15 10
29.6711 14.452 100.931 232 237 240
23.7325 5.19552 97.4671 220 198 172
28.2171 14.9977 103.967 168 172 181
26.7516 12.8216 99.012 239 226 200
27.5676 14.2833 99.8013 140 142 131
-4.08387 -21.4649 132.015 116 58 30
-27.2261 -15.6602 119.706 32 24 19
21.2487 -29.8279 126.574 202 188 186
-33.5855 -12.0883 115.117 78 62 48
18.159 -27.0533 121.806 120 18 38
18.0486 -27.0204 121.512 124 24 45
22.3019 -30.1099 123.717 176 140 144
21.1651 -30.363 124.125 113 92 92
18.4085 -16.9625 129.315 157 159 160
41.8258 -23.445 149.136 170 114 67
51.0213 -24.8191 172.869 166 144 121
-37.1247 -16.4288 141.397 152 142 134
-32.8189 -14.8562 124.472 142 142 142
-37.2023 -14.548 141.506 37 28 18
55.2987 -25.1125 189.282 152 110 84
113.506 -34.4451 287.826 148 86 42
94.3352 -29.1706 241.306 214 174 137
54.0428 -23.5666 185.974 174 158 144
0.00490467 -7.68968 71.5043 182 159 132
36.9897 -26.4002 145.942 166 108 62
37.1428 -24.3411 145.291 180 124 84
44.6343 -23.8853 159.959 223 192 160
45.1373 -26.335 163.315 146 95 58
72.1504 -26.147 202.87 146 91 47
-35.9233 -7.49344 121.699 92 84 76
-35.2122 -6.33398 116.604 60 58 55
114.37 -37.1628 290.683 174 120 75
48.008 -21.6258 156.828 149 86 42
5.72392 -7.47131 77.3761 162 112 72
5.2474 -7.34245 73.7408 135 94 61
2.01892 -7.09682 67.4132 64 60 60
65.9162 -25.8821 205.217 155 144 134
45.4123 -19.755 164.063 36 84 122
14.4912 -10.6431 95.2996 245 172 98
41.06 -23.2828 146.909 178 122 76
51.2903 -21.1707 173.941 50 72 87
9.65742 -9.00206 81.7515 175 86 28
67.4907 -39.2138 217.615 120 52 77
12.5706 -10.4466 91.1485 247 178 104
1.9086 -6.20644 66.4778 132 93 95
2.88117 -5.97074 69.8504 38 36 48
338.892 -195.74 867.189 148 81 98
75.1441 -26.3327 211.438 150 91 46
6.46425 -8.5093 80.6478 174 97 62
120.547 -62.3411 338.164 120 88 91
1.75768 -7.06287 66.7319 63 66 72
35.5457 -26.8213 142.631 171 116 78
59.9316 -26.5947 188.753 185 130 84
11.6158 -9.25089 85.6142 194 110 36
72.0697 -46.5367 227.592 110 42 56
21.5621 -14.4382 111.9 191 142 90
33.3881 -17.7896 141.578 231 176 126
16.7323 -11.5869 102.9 200 113 54
4.95203 -8.38785 78.5068 47 42 46
38.6608 14.6109 123.49 166 148 98
27.0052 11.4835 104.724 174 161 148
1.85537 -6.02917 67.2859 52 41 40
58.8595 17.6877 147.328 94 68 44
52.9887 17.6833 145.321 117 94 38
55.3599 18.9667 143.698 230 220 144
44.915 16.9475 134.143 162 144 92
28.6944 15.2418 103.76 51 54 58
82.8306 25.2868 186.685 93 68 44
49.4995 16.4851 139.422 138 112 60
59.0844 19.5583 148.53 128 100 52
31.7507 16.4795 108.588 53 54 60
41.5765 -24.0997 154.739 204 173 140
3.09832 -5.9342 69.9966 49 42 47
33.2997 13.5072 114.563 76 59 32
27.9092 -15.4533 130.248 164 101 50
4.0437 -5.07665 73.853 32 36 46
28.1261 14.2857 101.826 50 46 44
115.398 27.0297 253.642 120 87 60
574.617 -229.795 1355 124 88 86
55.7584 -29.0738 185.738 134 88 50
31.4985 12.134 111.249 179 158 110
26.5963 11.5785 98.9979 88 78 26
184.219 -100.749 478.767 175 83 102
54.767 -25.6991 182 50 90 118
2.81984 -6.74425 69.3052 46 67 90
58.4265 15.6548 158.194 236 214 189
47.0783 14.2353 126.376 216 190 165
47.6023 14.3967 126.409 78 50 28
28.4233 11.5632 106.091 70 50 20
26.2935 12.2407 102.037 134 132 128
27.7909 13.5219 100.405 166 155 132
20.6191 11.1117 89.251 57 54 50
459.366 -177.313 1115.76 234 127 156
36.3945 -17.536 143.33 106 98 84
6.00305 -7.38403 76.2339 106 50 14
74.9037 20.1224 180.815 156 138 126
40.9765 14.2582 119.613 211 200 134
33.5751 15.2478 110.104 142 133 100
30.7662 14.5071 105.815 180 168 147
28.7073 13.9138 101.89 174 162 138
52.966 -24.7923 177.938 38 72 102
5.97796 -7.43464 76.2604 128 66 26
53.4375 15.4913 140.971 106 80 62
36.9805 12.9125 117.652 100 85 12
30.7793 11.3155 106.92 184 181 103
27.1396 13.0067 99.8687 162 150 131
406.249 -162.74 999.548 178 82 105
30.7572 10.5855 107.357 150 130 62
30.2795 15.3035 105.175 44 41 38
23.6343 -20.6639 123.907 42 28 24
61.8945 17.5553 164.556 154 130 100
179.478 -106.192 474.307 203 192 190
565.956 -306.181 1417.76 200 198 192
12.1965 -9.94178 87.9042 254 173 68
2.16279 -7.13552 68.0725 46 44 49
63.8756 17.8679 161.61 150 133 122
65.3664 -31.5941 196.752 232 183 136
-1.44481 -7.67151 60.4642 84 43 14
-38.9136 -10.6217 141.624 152 135 114
4.27669 -7.25241 71.6723 110 94 78
-5.94838 -7.39283 52.0043 12 24 42
-34.8898 -7.86992 136.114 104 96 93
-35.2599 -1.99721 150.446 108 108 110
-34.5904 -1.34125 144.114 92 92 92
36.709 15.3511 121.35 201 188 178
15.4247 7.39564 82.0884 134 127 80
16.3474 8.58771 82.3995 190 178 159
-1.27548 -7.61924 61.7015 74 28 3
-38.4722 -7.36145 145.177 104 94 80
-37.541 -7.23207 139.692 71 68 64
-39.9101 -5.78688 160.924 82 81 78
29.9342 9.1934 108.747 120 91 56
27.2768 9.21432 103.756 160 132 86
20.7501 10.0565 89.3782 152 139 108
45.6857 2.13235 124.068 130 96 66
97.4366 27.1087 225.437 200 176 144
24.2629 7.36961 99.1974 116 84 51
28.0152 9.33581 105.02 166 138 92
46.1721 14.6299 125.868 198 170 142
18.946 8.35783 88.1777 222 217 136
24.1374 10.6927 97.6654 142 134 98
23.9671 10.8083 96.4086 147 140 88
37.644 15.8268 113.996 190 172 116
21.6665 11.0927 90.0593 217 206 184
20.0646 6.01981 85.7683 228 202 172
56.3014 21.4886 153.628 137 118 73
22.5081 9.17139 94.8624 156 148 80
10.9895 5.47254 75.5799 118 110 74
28.3323 12.2765 103.948 218 211 148
21.0854 8.88209 87.4581 128 97 54
28.5415 14.6109 102.348 46 40 38
16.5792 9.70832 82.0175 141 142 138
98.3377 26.7406 225.151 221 202 177
87.2689 25.6376 198.235 197 173 154
37.6165 14.3926 121.86 142 122 78
38.8464 14.454 121.583 210 204 126
26.1885 10.5933 101.121 170 160 94
47.4825 19.9785 133.146 108 97 49
143.815 34.0768 302.268 156 124 90
18.0328 4.24628 87.1422 95 80 66
17.7687 5.10016 88.733 122 88 56
41.8649 18.3984 127.795 58 52 42
-3.99279 -7.56362 56.014 34 18 13
110.197 18.1355 243.475 178 144 108
655.843 210.599 1197.09 140 106 70
6.99217 -8.48055 80.9135 190 100 56
-36.7694 -14.9159 139.554 31 22 12
-0.168923 -6.83508 72.8543 136 112 89
-33.5476 -7.898 120.463 106 98 93
6.685 -8.431 80.1117 190 100 56
3.06006 -7.55611 71.1931 188 115 54
3.29795 -7.31958 70.5838 76 34 8
1.91113 -5.93662 67.0353 130 105 79
2.53894 -4.83192 73.3605 57 47 38
-33.1611 -8.65539 120.955 45 26 24
-31.4419 -5.31597 112.099 31 28 32
4.83061 -7.61468 75.5655 191 122 68
3.23231 -4.81281 74.7931 42 44 50
1.78542 -7.87841 76.6963 168 137 102
4.57967 -7.42126 73.951 160 107 71
1.67789 -5.94506 66.6229 128 100 78
8.00599 -8.77802 80.2848 226 113 46
-37.281 -14.9537 144.001 26 18 10
2.04509 -7.23868 67.1317 150 128 105
2.06793 -6.5262 66.3113 138 117 109
-32.2295 -3.79059 109.633 96 97 99
-4138.53 16170 -1579.87 116 84 64
-3933.04 16078.9 -2127.38 180 104 42
-4269.57 16142.4 -1370.66 46 101 114
-3954.88 16138.8 -2042.17 238 173 122
-5661.63 16056.2 -6294.69 203 186 150
-4151.71 16120.2 -1448.43 140 146 140
-4152.92 16125 -1575.36 164 128 112
-3842.06 15931.7 -2421.69 166 67 28
-5653.83 16073.5 -6262.21 210 194 154
-4167.72 16170.4 -1378.07 164 144 130
-5831.92 15924.2 -6286.13 159 134 101
-1513.96 5050.77 -1863.32 198 104 60
-1393.73 4551.39 -1872.23 192 122 81
-1232.68 2320.1 -1910.72 178 112 69
-449.413 -814.557 -1591.76 45 60 84
-2017.76 5561.59 -2634.86 194 86 44
-1177.77 2245.88 -1882.26 228 147 78
-539.556 -280.2 -1907.71 170 138 108
-1229.01 1955.62 -1687.75 172 95 112
-1216.36 2033.55 -1681.38 110 42 21
-1198.5 2420.36 -1656.36 168 108 61
-1249.51 2537.71 -1715.19 128 84 48
-1205.34 2527.56 -1764.17 222 158 112
-1349.4 3213.29 -1819.61 60 16 2
-2358.81 8336.03 -2203.77 157 134 131
-1727.91 6741.49 -1911.2 169 101 54
-2754.15 10801.9 -2756.15 157 128 108
-1237.77 2656.32 -1745.54 228 165 114
-1174.5 2281.19 -1765.19 40 74 92
-1339.3 3150.36 -1820.93 52 13 1
-2032.43 6733.03 -2105.83 146 124 121
-1444.03 3554.34 -2024.77 220 126 64
-1589.65 5902.64 -1876.51 169 101 54
-729.475 512.721 -2392.01 68 71 75
-1277.6 2022.26 -1699.91 200 116 72
-1179.21 2282.09 -1739.91 187 168 160
-1525.92 3224.78 -1908.56 124 52 5
-1202.31 2662.72 -1712.48 232 167 119
-1232.4 2650.02 -1764.42 224 160 112
-1399.63 3873.68 -1772.53 228 126 62
-1201.46 1995.26 -1660.82 113 57 42
-1212.5 2435.18 -1738.3 208 175 159
-1478.97 4290.04 -1845.89 175 80 42
-1443.14 3580.06 -1978.01 55 49 54
-1860.02 4592.65 -2306.56 134 94 58
-1149.33 2134.08 -1710.21 222 168 127
-1488.72 3134.01 -1899.55 99 39 4
-645.818 606.314 -2319.95 94 82 68
-728.959 503.641 -2388.75 54 58 62
-1240.03 2021.1 -1697.46 79 22 30
-1237.29 2287.36 -1798.79 238 144 40
-1642.98 4776.88 -2005.49 80 116 140
-1379.69 2644.89 -1804.32 248 152 57
-1431.63 2932.8 -1880.24 100 40 6
-1543.72 3465.34 -1997.71 38 44 53
-4585.91 13118.8 -3546.01 144 112 82
-1820.96 4471.05 -2262.21 131 98 65
-665.91 429.812 -2287.66 38 44 52
-1196.55 2357.06 -1742.17 198 172 156
-1294.4 2524.5 -1824.74 182 116 42
-1454.76 3595.63 -2171.08 245 134 55
-814.154 708.518 -2561.55 162 130 103
-1228.58 2568.59 -1660.59 165 102 58
-2194.9 9300.92 -2694.38 31 26 24
-1732.33 8095.2 -2163.9 43 44 56
-1619.15 7485.23 -2160.8 42 44 52
-829.712 167.615 -2138.83 131 106 82
-1292.62 2121.64 -1704.33 175 88 90
-1158 1843.63 -1644.24 58 2 4
-1219.62 2063.41 -1671.84 166 103 78
-1324.71 2584.92 -1692.07 48 6 0
-1226.81 2389.78 -1668.19 236 183 140
-1217.81 2500.23 -1790.63 128 95 79
-1605.82 6120.99 -1904.43 195 154 128
-1846.15 7881.42 -2020.8 106 80 74
-696.746 187.051 -2075.54 112 110 106
-698.91 303.222 -2143.75 70 36 16
-647.631 240.494 -2177.19 94 92 96
-663.727 608.688 -2325.71 82 80 82
-1293.34 2201.13 -1702.22 84 24 34
-698.642 299.871 -2142.59 66 34 14
-729.967 689.362 -2334.91 150 130 112
-659.763 291.455 -2201.1 92 95 98
-1266.14 2340.68 -1686.97 45 3 0
-1246.07 2363.39 -1717.85 204 128 77
-1420.05 2943.57 -1923.44 50 48 50
-1121.81 2189.51 -1738.49 220 158 107
-1835.17 7118.18 -1989.12 176 110 72
-679.953 151.611 -2064.74 54 44 36
-693.356 241.458 -2114.55 110 96 87
-712.781 424.211 -2216.07 175 112 96
-1320.23 2144.95 -1710.68 218 144 86
-1223.83 2043.66 -1678.57 75 16 6
-1311.4 2730.81 -1614.53 56 72 80
-1324.5 2564.96 -1696.1 47 6 0
-1391.37 2839.19 -1913.91 50 48 50
-2005.07 6844.2 -2082.82 62 42 33
-1507.17 4117.79 -1985.26 96 126 146
-2367.52 9467.44 -2720.94 106 88 71
-691.649 229.6 -2098.67 92 80 70
-1217.73 1940.61 -1701.59 90 35 26
-1137.96 2371.49 -1701.01 228 165 116
-1533.99 4016.23 -1866.85 59 18 5
-1420.16 3417.6 -2013.67 230 124 52
-2162.1 6998.3 -2696.35 154 116 86
-703.383 205.75 -2084.2 100 96 94
-682.123 155.572 -2065.88 66 56 50
-1376.98 3073.77 -1870.7 20 24 29
-1349.71 3786.13 -1679.53 233 153 65
-1359.26 3713.31 -1814.29 177 83 44
-1694.37 6616.54 -1922.62 196 145 110
-698.106 281.022 -2132.39 82 66 52
-1169.54 1868.49 -1660.05 100 45 32
-1328.97 2898.69 -1616.37 212 185 166
-1450.52 3612.5 -1987.32 74 54 48
-1520.29 5724.63 -1925.6 44 46 61
-709.55 215.317 -2065.83 57 53 53
-699.341 297.842 -2140.28 74 50 32
-701.028 301.889 -2156.85 144 122 98
-646.056 218.913 -2164.74 74 74 74
-638.281 529.684 -2271.62 37 26 16
-1339.83 2612.2 -1706.44 73 36 20
-1324.5 2868.27 -1622.34 212 178 158
-1296.88 2332.66 -1754.49 235 131 53
-1314.64 2579.25 -1816.02 234 146 38
-1689.08 5476.6 -2002.28 42 38 45
-1584.63 4114.13 -2233.5 254 157 68
-1435.16 4632.32 -1838.37 187 96 58
-2311.97 8127.36 -2192.89 184 143 124
-1846.37 8025.69 -2050.55 133 108 104
-1498.39 6730.44 -2174.89 66 56 46
-1461.93 6428.23 -2153.55 43 42 45
-792.858 524.998 -2371.86 116 99 84
-1221.08 2052.09 -1681.28 108 41 16
-1317.1 2490.99 -1694.35 74 22 0
-1304.35 2775.51 -1612.05 162 170 172
-1271.13 2431.67 -1822.33 150 100 56
-1551.51 3393.16 -1961.44 146 108 84
-1144.59 2198.3 -1758.05 183 147 120
-1483.36 3803.52 -1846.25 46 14 6
-1474.41 3172.1 -2014.4 229 156 90
-1202.23 1821.1 -1690.35 222 136 146
-1143.27 1610.22 -1694.83 124 64 44
-1547.29 3328.08 -1914.67 130 56 8
-1191.92 2530.42 -1749.04 212 154 111
-1283.68 2810.6 -1654.1 174 112 66
-1189.15 2603.14 -1706.52 225 163 112
-1305.76 2615.61 -1692.66 108 46 8
-1564.19 3425.62 -1958.5 168 108 64
-1447.08 3377.92 -1885.57 21 28 32
-1577 4195.37 -1873.68 46 10 0
-1300.8 3189.52 -1872.42 124 120 119
-1605.2 3144 -1829.74 126 100 74
-1295.32 2658.3 -1611.94 86 94 94
-1293.23 2912.95 -1703.09 238 179 135
-1577.56 4402.46 -1966.7 70 74 82
-1750.81 3552.77 -1828.8 140 114 91
-1226.46 2080.99 -1669.95 135 79 60
-1699.43 3447.83 -1847.83 128 104 79
-1318.26 2745.46 -1614.08 86 94 94
-1198.16 2415.95 -1725.72 194 126 70
-1104.63 1773.62 -1796.5 148 89 55
-789.33 266.517 -2037.04 100 88 74
-1242.5 2012.13 -1699.38 102 43 45
-1355 2934.64 -1645.47 220 174 140
-1345.38 2876.33 -1671.16 234 184 142
-1284.81 2789.37 -1679.29 193 140 100
-1236.3 2553.83 -1777.83 133 120 108
-1483.7 3477.11 -1912.02 24 33 44
-1489.2 3828.42 -1858.7 58 20 8
-1459.8 3914.9 -1799.18 138 58 22
109.598 33.4209 227.473 113 86 64
54.6837 18.1138 141.052 126 98 56
35.1795 17.1605 113.829 46 40 38
34.3747 15.0603 112.36 66 56 38
3.27047 -9.0537 75.1061 139 94 69
31.77 10.1328 111.517 171 144 94
65.2401 19.5837 157.562 130 102 81
77.9411 24.8297 175.837 196 168 140
44.5707 15.3566 125.276 174 158 100
4.19985 -6.60267 72.0009 52 83 111
74.4411 18.8704 181.894 161 138 115
27.7935 8.33462 105.014 114 85 51
21.137 6.81322 93.6236 152 123 82
77.3186 24.4006 176.861 229 204 178
71.2918 22.8033 166.009 210 182 156
2.39588 -6.65107 68.4289 47 76 102
4.28775 -6.46024 70.7156 94 98 102
16.5479 5.17646 85.6598 139 110 70
28.4912 12.2788 102.136 130 119 64
24.3747 8.04064 98.8947 163 136 92
42.8682 19.4173 125.564 194 183 162
40.8112 18.8972 121.578 162 152 129
66.4447 19.9796 160.767 72 46 24
33.6253 15.5188 110.386 206 194 170
17.8192 7.70609 87.8749 79 59 42
28.8095 12.2499 105.42 198 190 148
27.6788 11.9649 102.698 218 213 156
135.424 42.5772 275.614 228 208 187
78.1319 21.3388 187.828 142 126 110
45.7698 13.9705 126.012 185 158 136
39.6137 13.8243 118.807 251 250 173
39.4681 15.9607 122.033 210 203 124
