ply
format ascii 1.0
element vertex 1560
property float x
property float y
property float z
property uchar red
property uchar green
property uchar blue
end_header
-1.10136 0.10845 1.2845 0 255 0
-1.10213 0.110767 1.2761 0 255 0
-1.1028 0.103743 1.29025 0 255 0
-1.10642 0.101925 1.28401 0 255 0
-1.10505 0.107179 1.27914 0 255 0
-1.10551 0.111572 1.26674 0 255 0
-1.10683 0.112469 1.26182 0 255 0
-1.10868 0.110276 1.26082 0 255 0
-1.10064 0.107506 1.28588 0 255 0
-1.09468 0.0700989 1.46792 125 75 56
-1.13378 0.0736535 1.45893 90 58 40
-1.02378 0.0761104 1.44745 148 116 96
-1.09075 0.0747628 1.46743 108 68 56
-1.13071 0.0793659 1.46259 86 22 6
-0.363413 -0.123811 2.87595 187 138 112
-0.668472 0.00384809 2.02147 114 98 86
-0.461411 -0.0430304 2.50992 136 126 102
-1.08717 0.0891912 1.46437 156 108 86
-0.854367 0.0678382 1.69533 144 90 68
-0.920799 0.0672887 1.69449 42 22 10
-0.91405 0.0788303 1.60146 163 95 74
-0.884662 0.0815085 1.6781 116 98 88
-0.89517 0.0861656 1.66491 50 27 16
-0.786784 0.0868006 1.79961 136 86 66
-1.10709 0.0965285 1.50961 146 100 84
-0.751054 0.0874802 1.85386 79 27 11
-0.774941 0.0912648 1.81419 163 112 90
-0.856136 0.0959366 1.69265 126 102 99
-0.886648 0.0968152 1.6619 170 126 108
-0.888503 0.0978297 1.6557 79 46 38
-0.846093 0.096928 1.71012 56 32 30
-0.749711 0.0936232 1.8528 80 34 16
-1.10849 0.0997081 1.5209 88 35 19
-0.91848 0.100831 1.61869 186 139 118
-0.872987 0.100949 1.67886 152 120 106
-1.12193 0.102445 1.51201 136 86 72
-1.12045 0.103768 1.51001 111 66 54
-0.830815 0.121138 1.77918 72 44 24
-0.854909 0.122524 1.77526 38 22 15
-0.718028 0.130021 1.95871 97 52 26
-0.0628245 0.180912 2.9943 112 67 50
-0.893841 0.136611 1.77952 148 86 64
-0.907055 0.146934 1.75859 178 76 63
-0.918044 0.148674 1.72216 168 126 122
-0.80905 0.161109 1.79648 174 140 126
2.47142 0.670574 6.72269 138 90 68
-0.684098 0.1841 1.95541 110 80 60
-0.469821 0.220614 2.27288 155 126 118
-0.680292 0.187662 1.97553 138 108 93
-0.767108 0.172509 1.82383 192 162 142
0.629931 0.417124 3.92431 168 140 122
-0.904865 0.158173 1.73083 117 90 87
-0.550157 0.216214 2.15074 178 127 110
-0.600281 0.216457 2.09657 60 32 20
-0.87322 0.168829 1.73229 164 103 89
-0.906438 0.165333 1.70833 119 88 82
-0.864082 0.171794 1.74625 118 30 28
-0.889082 0.167865 1.71728 112 56 52
-0.885886 0.169288 1.69683 191 121 94
-0.614939 0.229943 2.08951 48 32 27
-0.59148 0.237147 2.11766 42 28 16
-0.670737 0.219522 1.9931 50 38 30
-0.806009 0.192735 1.83408 206 146 118
-0.821338 0.192541 1.81675 42 16 13
-0.287731 0.3238 2.63198 178 149 137
-0.844657 0.18712 1.77601 166 136 129
-0.720865 0.214001 1.92247 137 109 98
-0.851969 0.186703 1.75933 72 51 45
-1.03181 0.0762306 1.41699 157 114 94
-1.03508 0.0789379 1.40973 126 92 78
-1.09416 0.0671268 1.46602 93 55 40
-1.09753 0.0686767 1.4625 94 52 38
-1.02911 0.0768944 1.43077 123 48 40
-1.02611 0.0781232 1.42987 137 76 68
-1.09479 0.0694249 1.47064 146 90 67
-1.02315 0.0757066 1.44612 164 124 97
-1.14042 0.0742898 1.45884 148 101 76
-1.00843 0.0777991 1.44135 77 51 44
-1.13278 0.0758661 1.46035 166 110 86
-1.13271 0.0765114 1.46199 62 22 6
-1.13662 0.0823586 1.45352 154 95 78
-1.09408 0.0828066 1.45096 120 74 51
-1.13643 0.0830477 1.45446 125 68 52
-1.09157 0.0814074 1.4661 114 64 46
-0.625227 -0.0167521 2.19961 86 83 50
-0.728068 0.0243012 2.00784 74 72 33
-1.08217 0.0871715 1.46199 124 102 78
-1.13313 0.0896185 1.44581 108 56 38
-1.08228 0.0876305 1.46306 56 28 6
-1.08578 0.0897476 1.46141 180 130 108
-0.813972 0.0432436 1.9135 156 106 86
-0.868059 0.070138 1.6721 134 78 56
-0.91256 0.0822639 1.6203 79 72 74
-1.08755 0.0931362 1.46358 164 111 87
-0.799558 0.0727218 1.7623 190 122 89
-0.914487 0.084862 1.61859 110 98 98
-0.883682 0.0851041 1.68604 102 76 62
-0.849005 0.0898666 1.69925 72 27 18
-0.810836 0.0884204 1.76003 128 79 60
-0.875297 0.0967256 1.66866 111 84 85
-0.782488 0.0925451 1.80332 124 76 56
-0.774707 0.0949026 1.81272 98 48 28
-0.766528 0.0952547 1.82194 165 127 105
-0.908497 0.10019 1.63223 126 79 58
-0.905683 0.100231 1.63486 92 50 39
-0.886159 0.100412 1.66143 94 53 34
-0.90079 0.10088 1.64913 82 35 18
-0.888171 0.105695 1.67763 200 170 150
-1.12316 0.10285 1.54622 58 14 4
-0.166703 0.116913 2.82747 87 60 42
-0.256501 0.120837 2.68721 114 93 74
-0.909171 0.150527 1.72585 146 118 111
-0.921904 0.149029 1.70376 160 129 123
-0.839373 0.160281 1.75112 156 116 100
-0.582287 0.202128 2.12137 160 132 112
-0.377834 0.234404 2.39566 112 90 80
-0.627893 0.197196 2.06349 148 118 105
-0.523693 0.217323 2.22481 191 160 142
-0.66618 0.194162 1.99072 146 112 98
-1.09887 0.126755 1.46162 184 130 108
-0.526825 0.222716 2.17814 40 16 8
-0.858343 0.172302 1.75668 126 52 46
-0.756887 0.191752 1.87832 134 60 50
-0.866425 0.177325 1.76441 134 92 90
-0.860084 0.181847 1.77287 51 17 13
-0.858287 0.182445 1.77115 164 134 130
-0.851965 0.185401 1.77036 148 116 112
-0.461184 0.283865 2.36364 146 118 108
-1.03235 0.0758421 1.4154 138 100 80
-1.03172 0.0759689 1.41725 158 114 92
-1.02542 0.0709666 1.44884 128 110 98
-1.09823 0.0681367 1.4647 58 22 8
-1.09718 0.0670738 1.46939 80 42 29
-1.095 0.0677073 1.47018 122 76 59
-1.0915 0.0716013 1.46508 85 48 34
-1.02195 0.0765171 1.44728 146 114 98
-1.12901 0.0770727 1.44994 128 90 60
-1.142 0.0777941 1.45274 158 108 82
-1.13737 0.0777741 1.45685 114 64 46
-1.14246 0.0810182 1.45656 122 82 56
-1.13671 0.0826868 1.4569 125 67 52
-1.09382 0.0814802 1.45965 131 82 56
-1.13362 0.0899878 1.44733 176 118 90
-1.13355 0.0909005 1.44901 106 50 28
-0.934641 0.0714528 1.65407 130 94 76
-1.13942 0.0933326 1.43315 152 103 80
-1.1394 0.0930518 1.43537 160 106 79
-0.912864 0.0782746 1.62289 42 6 1
-0.914927 0.0798888 1.61466 146 59 33
-1.08264 0.0913013 1.47027 57 24 6
-1.10176 0.0914903 1.47539 126 80 49
-1.08174 0.0916994 1.47183 128 104 80
-1.08748 0.0929478 1.46543 164 111 87
-0.907267 0.0839657 1.63142 100 88 88
-0.886908 0.0819274 1.67544 133 109 95
-0.877944 0.084072 1.69659 50 27 16
-0.889623 0.0871594 1.6601 89 84 86
-0.858426 0.0876032 1.72902 74 52 44
-0.883933 0.0903931 1.67369 44 34 36
-0.878112 0.0906774 1.68016 22 14 18
-0.77787 0.0869861 1.81544 118 69 50
-0.772505 0.0887036 1.81881 80 28 16
-0.910337 0.0967179 1.63997 184 135 110
-0.901959 0.0971237 1.6395 174 148 136
-0.878678 0.0960945 1.6689 44 23 22
-0.771024 0.0945201 1.819 122 72 50
-0.897215 0.100381 1.6557 66 20 4
-0.839596 0.0994675 1.71922 66 44 41
-0.862774 0.100362 1.69666 114 87 78
-0.845967 0.118818 1.75599 178 148 126
-0.756266 0.145559 1.92861 174 133 108
-0.91535 0.139536 1.74353 162 112 92
-0.915466 0.144406 1.67203 179 144 134
-0.746516 0.167442 1.8638 149 120 108
-0.919163 0.148862 1.70848 172 142 134
-0.790079 0.163882 1.82797 171 140 130
-0.864882 0.154702 1.71462 170 138 124
-0.693619 0.182049 1.93966 160 132 112
-0.455549 0.221935 2.29543 163 142 135
-0.914442 0.155973 1.71017 120 93 90
-0.679578 0.191238 1.96786 142 108 94
-0.570855 0.21147 2.12187 182 142 122
-1.10735 0.127237 1.45428 158 107 83
-0.63454 0.226146 2.04756 46 31 20
-0.86075 0.181144 1.7711 56 20 16
-0.82769 0.191972 1.809 137 104 99
-0.633435 0.236601 2.07062 152 124 114
-0.815977 0.196401 1.82737 78 56 50
-0.827034 0.193398 1.79897 34 19 17
-1.03517 0.0737169 1.42033 150 117 97
-1.03021 0.0764532 1.41998 122 80 61
-1.09265 0.0688219 1.46813 104 63 44
-1.02635 0.0773754 1.43376 140 85 74
-1.09927 0.0737648 1.45487 95 40 20
-1.09123 0.0704973 1.47047 98 59 44
-1.09427 0.0715498 1.46638 142 86 64
-1.13932 0.0751256 1.46878 100 56 38
-1.09107 0.075634 1.46138 101 62 52
-1.1429 0.079479 1.44969 125 82 61
-1.08275 0.078967 1.47881 35 12 3
-1.12643 0.0875472 1.45061 54 17 5
-1.08181 0.0857665 1.46926 49 20 8
-1.13326 0.0912116 1.44617 105 48 28
-1.0862 0.0900688 1.45752 166 116 93
-0.924286 0.0803621 1.58543 169 94 68
-0.916282 0.0773221 1.61807 160 115 102
-0.911685 0.0781818 1.62523 73 36 30
-0.877741 0.0786005 1.66395 34 5 0
-1.08886 0.0946329 1.44887 150 98 76
-0.888625 0.0855609 1.67589 52 32 23
-0.854117 0.0868911 1.7368 82 58 48
-0.733147 0.0806938 1.87525 179 144 124
-1.13716 0.100243 1.43124 152 94 75
-0.802194 0.0877337 1.772 140 82 58
-1.13724 0.103037 1.43147 142 118 99
-0.832854 0.0993146 1.73032 50 26 22
-0.808389 0.101739 1.76709 170 138 121
-1.12386 0.103497 1.51156 104 54 42
-0.670613 0.105231 2.03842 100 63 39
-0.765886 0.133959 1.9121 109 78 59
0.0454012 0.200891 3.17354 175 156 142
-0.936687 0.136107 1.6899 162 112 92
-0.91199 0.147238 1.73678 132 32 30
-0.909789 0.149468 1.73951 172 132 126
-0.790531 0.163853 1.82632 180 152 144
-0.851721 0.155032 1.72662 108 62 40
-0.838551 0.159554 1.76501 176 144 132
-0.818626 0.163554 1.78717 165 126 112
-0.888899 0.156965 1.72876 129 91 76
-0.821104 0.163546 1.77275 143 108 98
-0.791043 0.172739 1.83147 134 94 80
-0.875114 0.1679 1.73523 182 153 146
-0.882514 0.16694 1.72384 176 130 128
-0.882721 0.168202 1.72765 151 104 100
-0.895112 0.168779 1.73224 121 90 84
-0.534465 0.250189 2.21371 33 21 12
-0.841707 0.188486 1.79708 31 14 10
-0.82851 0.192084 1.81121 163 132 126
-0.827742 0.19102 1.80376 37 15 14
-1.03252 0.0737048 1.42501 116 81 65
-1.09294 0.0697485 1.46335 103 60 43
-1.09547 0.0700727 1.46584 160 102 76
-1.02622 0.0785048 1.43158 34 12 7
-1.13317 0.0742077 1.45561 83 52 34
-1.00646 0.0770897 1.44472 83 60 52
-1.14197 0.0760455 1.45349 136 90 66
-1.13799 0.080521 1.46153 172 109 88
-1.13781 0.0787191 1.47215 68 23 15
-1.10057 0.0836726 1.4443 62 29 7
-1.09372 0.0798946 1.46927 130 81 56
-0.730333 0.0103771 1.98308 111 102 84
-1.08335 0.0849742 1.46093 136 90 63
-1.09937 0.0908632 1.47224 140 88 62
-1.13931 0.0947074 1.43298 64 24 10
-1.14008 0.0963263 1.44004 162 106 74
-1.14009 0.0971366 1.43438 177 130 100
-0.890621 0.0854332 1.67278 72 50 40
-1.1386 0.0987601 1.42883 94 51 24
-1.10232 0.0945885 1.50275 144 92 62
-0.811615 0.0838856 1.77017 123 80 70
-0.831938 0.0859943 1.74151 24 14 13
-0.885539 0.0897867 1.68039 86 62 50
-0.748081 0.0822452 1.8525 173 129 110
-0.912556 0.0943247 1.62742 131 104 94
-1.09352 0.0996303 1.45804 95 48 32
-0.791186 0.0891755 1.78915 72 24 14
-0.893686 0.0977392 1.66544 184 148 126
-1.12268 0.103575 1.49594 134 82 69
-0.467568 0.118049 2.31938 46 27 18
-0.713641 0.129324 1.96829 68 34 18
-0.811586 0.127488 1.80581 24 19 16
-0.492945 0.147667 2.28785 104 60 38
-0.794079 0.134733 1.86286 148 116 96
-0.696606 0.14255 1.98564 121 102 86
-0.911165 0.149672 1.7367 163 109 108
-0.869207 0.150879 1.7045 120 76 52
-0.71571 0.173005 1.91325 144 112 98
-0.819977 0.163645 1.80164 174 142 129
-0.892002 0.155649 1.71828 136 94 78
-0.807999 0.166183 1.79714 150 110 93
-0.864567 0.167937 1.75144 146 106 92
-0.865142 0.170211 1.75614 180 154 147
-0.842869 0.188125 1.77224 29 16 16
-1.02141 0.0747843 1.41668 163 134 121
-1.02846 0.0743055 1.43656 128 100 88
-1.09166 0.0724316 1.46038 114 72 56
-1.14255 0.0796401 1.44783 112 71 51
-1.08254 0.0778315 1.47488 82 62 26
-1.13644 0.0837209 1.45389 146 86 68
-1.09813 0.0826946 1.45863 180 124 96
-1.09326 0.0810765 1.4697 92 46 25
-1.10011 0.0862133 1.44128 130 80 47
-0.643805 -0.000200778 2.06598 98 84 69
-1.12688 0.0862612 1.44549 54 16 4
-1.08374 0.0849551 1.45966 132 87 60
-0.709975 0.0210102 2.01771 132 115 102
-1.13336 0.0899057 1.44678 184 124 96
-0.513901 -0.0133244 2.3976 152 126 113
-0.917256 0.0792233 1.61603 30 8 4
-1.13976 0.0950627 1.43603 61 32 21
-1.13973 0.0972934 1.43264 192 144 114
-0.487245 0.021146 2.65081 64 26 16
-0.769163 0.0799547 1.84293 123 80 70
-1.14096 0.0990298 1.43783 163 140 113
-0.835508 0.0866129 1.73701 11 8 8
-1.08694 0.0986641 1.4564 88 52 29
-0.824382 0.0901316 1.74858 54 28 27
-0.885011 0.095831 1.67139 178 152 138
-1.13726 0.102549 1.43665 35 7 2
-0.891213 0.100117 1.65041 70 40 33
-0.878682 0.111294 1.68997 161 136 117
-0.810641 0.160027 1.7895 174 148 140
-0.920707 0.149565 1.70144 100 72 72
-0.906776 0.151729 1.68553 137 94 78
-0.912776 0.156529 1.71649 102 76 76
-1.02394 0.0683107 1.43644 112 10 6
-1.09188 0.0732052 1.45714 124 78 61
-1.13268 0.0743619 1.4602 161 109 81
-1.10176 0.075959 1.45988 146 72 48
-1.0889 0.0853513 1.41898 114 102 62
-1.13365 0.091586 1.44535 102 44 26
-1.13881 0.0933042 1.4325 163 108 82
-0.90708 0.0778903 1.63524 27 10 6
-0.870504 0.094753 1.6987 178 152 137
-1.1273 0.100981 1.49641 176 114 90
-0.879272 0.0990903 1.68563 119 71 53
-0.851318 0.150329 1.73359 102 60 40
-0.857667 0.18191 1.78108 126 87 86
-0.877058 0.177882 1.72797 32 13 8
-0.813275 0.198806 1.8442 174 147 142
-0.847473 0.187211 1.76512 32 20 20
-1.03274 0.0740665 1.42397 120 74 51
-1.09895 0.0722259 1.46157 106 52 29
-1.14098 0.080045 1.44644 49 19 8
-1.13427 0.0797137 1.45807 134 80 64
-1.09505 0.0806958 1.46666 148 94 68
-1.13988 0.0967948 1.43612 171 119 87
-1.13737 0.0986579 1.4415 102 56 36
-1.10228 0.124667 1.44168 184 130 106
-1.1086 0.128023 1.45547 82 34 18
-0.864883 0.17592 1.73208 192 148 93
-0.847081 0.186013 1.76544 40 20 18
-1.02642 0.0780897 1.42584 142 68 60
-0.933422 0.0804779 1.57622 122 26 6
-0.911536 0.0976822 1.61757 41 14 8
-0.804244 0.164011 1.80605 120 74 53
-0.859857 0.179533 1.77739 101 60 60
-0.857726 0.178679 1.75103 186 133 106
-0.781091 0.20693 1.8839 52 32 28
-1.03369 0.0733987 1.42303 136 107 90
-1.09421 0.0713116 1.46631 94 50 38
-1.13954 0.0951348 1.43246 149 126 104
-1.08202 0.0915179 1.47783 34 11 2
-0.841356 0.0782901 1.72307 89 50 39
-1.13931 0.0974337 1.43031 166 116 85
-1.08522 0.095445 1.4796 28 2 0
-0.877009 0.09544 1.67643 44 20 16
-1.13591 0.102492 1.43538 124 79 64
-0.872412 0.0982547 1.68558 124 84 69
-0.89771 0.0998981 1.64676 83 48 34
-0.883935 0.100223 1.66252 31 7 3
-0.9078 0.100846 1.63067 79 42 28
-0.886851 0.118658 1.70973 128 104 93
-0.855828 0.172774 1.77225 163 132 127
-1.09903 0.129897 1.46133 186 132 102
-0.845051 0.179251 1.77474 138 63 47
-0.823806 0.184059 1.79974 181 129 95
-0.839765 0.183934 1.78535 168 103 86
-0.8407 0.187168 1.79437 32 10 8
-0.799491 0.201528 1.85467 48 27 22
-1.09492 0.0640959 1.46853 92 65 42
-1.09278 0.069532 1.46514 126 84 66
-1.13904 0.0730189 1.47506 59 26 13
-1.09102 0.0799259 1.476 108 60 45
-1.13964 0.0946714 1.43352 80 40 22
-0.857839 0.0893402 1.69738 24 12 11
-0.920281 0.100555 1.61951 62 20 8
-1.0988 0.12624 1.4565 166 111 87
-1.11009 0.127494 1.45385 97 62 55
-0.695805 0.203949 1.98119 138 68 59
-0.862205 0.179193 1.77345 110 71 69
-1.1359 0.0765275 1.4567 60 24 11
-1.08701 0.0775033 1.48672 132 83 70
-1.09332 0.0816334 1.46597 92 46 23
-1.13566 0.0944695 1.42102 164 111 86
-1.13917 0.0947486 1.43262 61 26 10
-1.13806 0.0959826 1.42704 40 10 2
-0.913821 0.100308 1.6317 58 18 6
-0.897045 0.100054 1.64836 84 48 38
-0.924004 0.147855 1.6921 94 68 64
-0.771197 0.174858 1.86285 133 94 80
-1.09847 0.127051 1.46519 182 126 104
-0.868246 0.17892 1.75638 49 16 12
-0.834336 0.190669 1.78768 28 18 17
-1.02266 0.0767005 1.43676 104 36 30
-1.08301 0.0866898 1.46192 29 10 3
-0.855707 0.0946562 1.72352 178 152 141
-0.848228 0.104097 1.8734 35 16 2
-1.10737 0.127383 1.4558 163 114 90
-1.1383 0.0796607 1.46376 178 118 100
-1.13351 0.0913007 1.44651 107 50 32
-1.08235 0.0909883 1.47885 27 7 2
-0.764207 0.2134 1.94018 134 109 104
-0.788803 0.20385 1.87292 27 16 13
-1.03184 0.0738586 1.426 110 71 52
-1.13954 0.0950059 1.43405 36 9 4
-0.914634 0.148872 1.72695 154 108 100
-0.820977 0.163119 1.80047 146 112 96
-1.13739 0.0831817 1.46012 172 110 88
-1.12683 0.0867226 1.44348 84 44 26
-1.14274 0.0771473 1.45736 173 124 98
-0.920145 0.0840661 1.69277 54 14 1
-1.02678 0.0775918 1.43282 130 76 67
-1.1388 0.0936568 1.43021 160 108 83
-0.916734 0.100355 1.62618 54 14 2
-0.401508 0.28262 2.44687 70 53 50
-0.825404 0.193854 1.82975 46 24 21
-1.098 0.081598 1.46684 188 131 103
-0.894247 0.0992072 1.6468 131 90 74
-0.849539 0.116668 1.87995 168 128 109
-0.703171 0.141876 1.97289 122 102 87
-0.695091 0.205916 1.98598 122 50 42
-0.846986 0.185486 1.79433 140 108 104
-1.14122 0.0842285 1.45122 114 76 59
-1.0817 0.0909373 1.48169 27 10 2
-0.918263 0.100054 1.62773 70 24 8
-0.89075 0.168277 1.79972 32 16 9
-1.02719 0.077605 1.43258 114 44 38
-1.13502 0.0871605 1.44775 160 100 81
-1.13803 0.100071 1.43473 167 113 92
-1.1355 0.102841 1.42694 41 10 4
-0.916747 0.14985 1.70956 93 66 64
-1.09273 0.0694589 1.46453 104 63 52
-1.09529 0.0683908 1.47211 156 100 79
-1.14273 0.0720257 1.46796 136 92 72
-1.14168 0.0761508 1.45307 140 94 68
-1.08233 0.0801642 1.47271 90 76 44
-1.02906 0.075484 1.42367 97 49 24
-1.10091 0.0678001 1.46588 134 84 64
-1.09284 0.0757627 1.46695 140 88 72
-1.13867 0.0987788 1.42891 95 52 26
-0.820242 0.16611 1.79527 137 104 88
-0.67172 0.0248435 2.21276 138 106 90
-0.877469 0.0883461 1.67262 55 50 56
-0.813895 0.0871 1.75682 84 33 18
-0.893708 0.0992594 1.65304 76 36 24
-0.905844 0.10145 1.63506 74 32 14
-0.888428 0.115332 1.70108 136 102 88
-0.821089 0.121686 1.79083 65 46 38
-0.836039 0.123994 1.76759 118 103 92
-0.877553 0.149284 1.6921 164 122 99
-0.838145 0.155062 1.75132 198 154 134
-0.642093 0.193018 2.0142 193 142 121
-0.49101 0.220512 2.23738 62 22 12
-0.603689 0.202188 2.07302 145 81 58
-1.15957 0.138119 1.43184 138 56 31
-1.14128 0.0763416 1.45688 154 105 80
-1.13958 0.077884 1.44988 126 82 61
-1.14196 0.0817333 1.45175 160 114 92
-0.90337 0.0767313 1.64001 100 45 38
-0.874648 0.100985 1.67632 134 105 94
-0.901836 0.145838 1.68575 172 137 122
-0.675399 0.179375 1.97502 142 109 94
-0.917007 0.148999 1.67323 128 90 75
-0.536196 0.228815 2.18449 56 26 17
-0.885138 0.166595 1.70059 136 96 83
-0.841705 0.178491 1.76274 119 61 52
-0.423796 0.286891 2.40371 180 152 140
-1.1423 0.0754376 1.46026 162 112 88
-1.14042 0.076828 1.4549 138 90 69
-1.13153 0.0795643 1.45643 120 66 46
-1.10058 0.0822008 1.4525 78 38 14
-0.655654 -0.00868776 2.14279 82 80 42
-1.08257 0.0873746 1.44984 84 66 24
-1.08278 0.0877795 1.46123 46 22 10
-0.933386 0.0798965 1.57566 144 48 25
-0.926339 0.068758 1.68207 77 56 40
-0.91736 0.0776946 1.61571 152 97 82
-0.791632 0.0770428 1.79332 81 24 2
-0.809465 0.0870021 1.76695 62 17 8
-0.820861 0.0891415 1.75396 65 35 32
-0.73826 0.0938649 1.86897 179 142 122
-0.419426 0.118881 2.41483 133 110 87
-0.872142 0.142473 1.71633 140 102 85
-0.890326 0.143222 1.67392 157 107 85
-0.889962 0.148034 1.70946 180 148 136
-0.91807 0.15194 1.7032 146 120 118
-0.834555 0.161176 1.75911 162 126 108
-0.807222 0.179827 1.90074 202 179 172
-0.352557 0.259927 2.45696 138 104 90
-0.600746 0.215924 2.09422 68 40 28
-0.847043 0.172153 1.75038 126 120 109
-0.852102 0.17415 1.77125 160 99 82
-1.14887 0.138292 1.43927 133 58 26
-0.992204 0.0402449 1.53301 92 62 30
-1.13944 0.0751388 1.45293 150 105 85
-1.0812 0.078935 1.48233 135 122 85
-1.08266 0.0875039 1.44904 82 64 22
-0.909549 0.0822725 1.62555 98 89 88
-0.89039 0.095811 1.65616 128 93 82
-0.74914 0.0904792 1.84554 83 40 19
-0.881295 0.0993696 1.66616 26 7 4
-0.840682 0.157561 1.74236 120 74 51
-0.673416 0.188929 1.98583 139 106 91
-0.68778 0.18951 1.95512 152 120 103
-0.100972 0.300166 2.8636 184 144 124
-1.14197 0.0780197 1.45555 168 120 90
-1.13648 0.0837355 1.45264 120 62 46
-0.867508 0.076631 1.68189 30 16 12
-0.899821 0.0830413 1.64543 40 30 31
-0.849531 0.0917213 1.70546 52 24 24
-0.883813 0.0980116 1.6936 100 53 30
-0.879941 0.150917 1.73007 159 128 117
-0.808149 0.162709 1.80371 120 74 52
-1.08342 0.0851919 1.44785 92 74 28
-1.08309 0.0874558 1.44832 85 62 24
-0.892327 0.0954205 1.67327 186 137 111
-0.91323 0.144784 1.75186 116 36 28
-1.14159 0.0819073 1.44965 158 112 90
-0.679962 -0.00307784 2.08317 118 102 86
-0.833991 0.0457664 1.78296 82 81 62
-0.810045 0.0955044 1.96455 166 135 109
-0.882405 0.128723 1.69873 158 122 102
-0.922709 0.140323 1.73444 166 142 128
-1.03701 0.0782208 1.40602 135 98 76
-1.13972 0.0750672 1.45162 126 84 64
-0.584485 -0.0259124 2.28319 134 134 90
-1.13886 0.0998327 1.43786 126 74 51
-0.801267 0.121909 1.82593 122 104 94
-0.821711 0.0452982 1.89497 159 113 94
-0.918649 0.0805127 1.60763 111 50 30
-0.613909 0.083096 2.06177 84 37 13
-0.854617 0.0956728 1.75066 76 27 7
-0.876492 0.0999704 1.67787 78 40 22
-1.15371 0.13663 1.43493 141 93 78
-1.01115 0.071766 1.42921 96 64 59
-1.00887 0.0767671 1.44036 206 192 184
-1.00684 0.0767562 1.44276 106 83 73
-1.13442 0.0792449 1.45914 96 42 24
-1.09907 0.0829234 1.45929 176 120 90
-0.949228 0.0799194 1.55444 146 52 26
-0.858677 0.082149 1.69051 46 18 7
-1.13968 0.0990002 1.43507 166 132 110
-0.873404 0.0894603 1.69223 86 74 77
-0.884684 0.0964364 1.65827 44 23 23
-1.13615 0.102783 1.43015 46 15 7
-0.897221 0.101404 1.66833 172 128 104
-1.11411 0.101246 1.56799 158 103 84
-0.384236 0.122745 2.45406 52 29 14
-0.867671 0.154533 1.70907 156 121 104
-0.679071 0.182926 1.9582 189 156 136
-0.905966 0.163843 1.67539 160 81 80
-1.03443 0.0745219 1.41987 160 112 89
-1.0344 0.0765383 1.41689 151 118 100
-1.14174 0.0733193 1.45957 108 71 48
-0.855701 0.074464 1.70061 64 26 15
-0.883443 0.0888517 1.66207 22 18 26
-0.770252 0.0835457 1.81545 176 136 117
-0.887972 0.0953274 1.66013 117 84 78
-0.896403 0.0972677 1.64466 160 119 102
-0.867824 0.0964881 1.72511 94 48 26
-0.812265 0.12106 1.80362 166 146 134
-0.896697 0.166235 1.68449 128 46 48
-0.86151 0.181665 1.75551 38 12 10
-1.03046 0.0756592 1.41953 161 121 102
-1.10062 0.0690713 1.45938 102 58 42
-1.13108 0.07557 1.45341 152 104 80
-1.13829 0.0772788 1.4602 87 39 24
-1.13286 0.0785941 1.46263 120 64 42
-1.0987 0.0857259 1.43772 187 130 103
-0.855763 0.0908206 1.69024 48 15 7
-1.10955 0.0963182 1.54478 172 120 104
-0.853697 0.094218 1.71607 36 10 4
-1.11054 0.0953145 1.60443 84 32 17
-0.889389 0.097603 1.6721 197 165 144
-0.797506 0.0965753 1.78326 62 26 16
-0.613137 0.236892 2.08979 175 152 142
-1.03065 0.0737613 1.4275 106 60 38
-1.01084 0.0774378 1.43899 204 183 174
-1.14214 0.0757938 1.4592 163 114 87
-0.891937 0.076108 1.65607 134 55 32
-0.874584 0.0852541 1.68669 64 58 61
-1.13832 0.0996998 1.4262 165 141 116
-0.828907 0.0982262 1.73687 54 30 26
-0.775727 0.144247 1.90462 104 58 35
-1.16624 0.125921 1.45409 64 58 67
-1.10954 0.126454 1.44043 90 58 50
-0.81044 0.186898 1.82272 124 58 39
-0.619212 0.228983 2.08213 44 26 22
-0.847371 0.187701 1.77766 172 144 140
-1.03348 0.0762386 1.41914 146 114 96
-0.17601 -0.0562502 2.93991 148 53 30
-0.835232 0.0798099 1.73127 32 16 10
-0.878201 0.0843507 1.69606 124 96 84
-0.85575 0.101838 1.72226 180 154 138
-0.857676 0.115703 1.72969 183 156 134
-0.675001 0.131717 2.03892 70 40 25
-0.89201 0.142767 1.67076 143 94 64
-1.15665 0.133396 1.44058 164 126 113
-1.13488 0.0799122 1.45866 74 24 12
-1.13774 0.080644 1.45739 160 102 80
-1.08771 0.0857546 1.42517 81 64 26
-1.12738 0.0860468 1.44865 62 24 12
-1.08281 0.089838 1.46283 154 106 81
-1.13766 0.10114 1.42422 132 107 82
-1.13177 0.103925 1.47539 154 100 73
-0.817595 0.123153 1.86035 25 15 10
-0.861098 0.142885 1.72907 96 50 26
-0.873831 0.156341 1.83952 134 12 11
-0.869155 0.172667 1.758 168 129 122
-1.09162 0.0862509 1.42846 108 60 41
-1.1664 0.110407 1.47814 151 126 106
-0.882658 0.175453 1.71841 70 32 32
-0.930038 0.0712324 1.58385 151 38 37
-0.875119 0.167781 1.72595 122 70 60
-0.555299 0.242887 2.17359 197 171 153
-0.730396 0.0867153 2.16164 86 61 33
-1.13339 0.128634 1.43334 196 146 115
-0.892826 0.0670289 1.64144 149 72 50
-0.882503 0.148467 1.68365 144 100 78
-0.765461 0.176134 1.87364 132 95 78
-0.547945 0.213088 2.16499 176 133 114
-0.8663 0.116015 1.71035 177 151 139
-0.882854 0.144252 1.68743 164 116 92
-0.698768 0.219567 1.95983 143 115 103
-1.14137 0.0734869 1.46092 151 106 84
-0.770403 0.095264 1.81743 160 126 107
-0.184771 0.123157 2.80072 125 102 84
-1.12329 0.130607 1.44952 54 22 12
-1.12964 0.100674 1.535 104 48 29
-0.735318 0.130446 1.92342 128 84 53
-0.85371 0.180663 1.74984 196 150 106
-0.880374 0.110557 1.68679 153 126 112
-1.13127 0.125075 1.4225 166 118 96
-1.12224 0.0912689 1.43355 96 60 33
-1.10292 0.128512 1.45213 215 163 126
-1.00777 0.0774203 1.4426 78 52 40
-1.1585 0.137436 1.43009 167 78 48
-1.1457 0.145709 1.44259 114 30 24
-1.16069 0.134435 1.43965 130 64 32
-1.01104 0.0788262 1.43623 80 53 42
-1.02797 0.0782578 1.42326 128 20 16
-0.899607 0.100163 1.64594 116 72 52
-1.0817 0.0786908 1.4792 72 55 22
-1.07963 0.0901883 1.4832 94 62 34
-1.10046 0.0677427 1.46401 108 68 52
-1.02791 0.0779711 1.423 120 39 29
-0.900482 0.100835 1.65026 64 22 6
-0.821729 0.188705 1.80572 186 136 106
-1.13962 0.0908944 1.4331 124 108 77
-1.13326 0.0901231 1.44531 158 102 78
-1.13958 0.0952642 1.43243 162 142 120
-1.08253 0.0930934 1.46476 82 62 38
-0.760086 0.0865721 1.84492 131 76 56
-0.899696 0.0998529 1.64336 90 54 42
-0.84091 0.180225 1.78117 166 109 80
-0.678646 0.0241381 2.08572 122 104 92
-1.08218 0.0898801 1.46425 148 104 80
-1.08065 0.0909966 1.47935 160 141 122
-1.14073 0.0973641 1.43153 116 95 70
-0.822616 0.163139 1.78165 150 109 94
-0.899478 0.167635 1.72412 125 98 90
-1.10052 0.0833342 1.44572 60 22 2
-1.13782 0.0921223 1.42442 130 122 86
-0.91662 0.148878 1.7206 153 116 110
-1.09813 0.127516 1.47312 186 132 111
-1.09891 0.129385 1.45322 204 151 120
-1.13671 0.0857513 1.45649 110 59 44
-0.887701 0.149811 1.7142 172 146 139
-0.907545 0.0972919 1.62496 139 100 90
-0.75053 0.0917068 1.84387 76 37 18
-0.902816 0.100213 1.63785 74 38 27
-0.357689 0.157618 2.51353 90 42 22
-1.02612 0.0780198 1.42987 112 38 32
-1.13087 0.0784466 1.45076 50 12 4
-1.08582 0.0839031 1.47072 148 99 78
-1.12534 0.0891934 1.44922 126 86 64
-1.13753 0.100209 1.43306 152 96 74
-1.09615 0.0687861 1.46613 162 102 83
-1.10809 0.122731 1.4678 149 98 79
-1.02074 0.0765964 1.44279 62 34 22
-1.13302 0.0759093 1.46655 60 20 10
-0.931694 0.0717845 1.58072 163 52 52
-0.912429 0.0772323 1.62451 164 111 102
-0.635808 0.0552599 1.98254 48 28 14
-0.868654 0.0993 1.68806 26 4 2
-0.898578 0.100952 1.64447 84 46 34
-0.867491 0.116116 1.7388 56 30 16
0.768897 0.259028 4.37664 185 164 154
-0.628788 0.186724 2.06058 146 116 105
-1.146 0.135683 1.42748 134 58 40
-0.769653 0.024337 1.90729 118 105 90
-1.08992 0.0890161 1.45804 104 60 46
-0.877822 0.0901636 1.68469 56 46 48
-0.868657 0.176562 1.73053 180 117 92
-0.864769 0.182136 1.75075 34 18 13
-0.987008 0.0623828 1.46471 182 164 159
-1.03939 0.0770057 1.40954 154 108 84
-1.09505 0.0706763 1.45053 108 70 51
-1.13184 0.0775013 1.45703 56 16 8
-1.1265 0.0873562 1.45104 54 17 1
-0.918534 0.0831711 1.60975 45 40 42
-0.853039 0.163913 1.79936 130 92 76
-0.840214 0.161072 1.75681 134 96 80
1.08676 0.53221 4.68225 72 55 48
-0.430826 0.274562 2.396 70 52 46
-0.768295 0.0337885 1.90878 140 122 107
-0.675127 0.0114516 2.10526 87 86 54
-0.924301 0.0812762 1.59757 156 62 39
-1.08272 0.0942765 1.46071 96 80 52
-1.13828 0.0994959 1.43099 38 12 5
-1.10321 0.107267 1.45251 179 131 108
1.0748 0.486901 4.64689 68 46 38
-1.09195 0.0772544 1.45037 79 44 28
-1.08868 0.0904446 1.45008 130 82 62
-1.13584 0.102495 1.43412 122 76 60
-0.903312 0.141048 1.65016 142 93 70
-0.827675 0.156952 1.77197 157 110 88
-1.10235 0.129528 1.46096 214 162 122
-0.867227 0.178809 1.76018 80 44 42
-1.08314 0.0876856 1.4615 38 16 8
-1.08078 0.0912037 1.47858 154 130 108
-1.08835 0.0938054 1.45616 153 100 77
-1.08769 0.0969243 1.45522 26 8 2
-0.718851 0.124876 1.96848 164 142 131
-0.797714 0.125476 1.82477 54 28 14
-0.91268 0.156755 1.71701 110 84 85
-0.883883 0.169973 1.81934 69 46 38
-0.826397 0.186531 1.81058 192 135 98
-1.1442 0.0791824 1.45796 43 18 10
-0.950474 0.0135575 1.51521 166 132 100
-0.892714 -0.00911152 1.6088 35 16 6
-0.950334 0.0245656 1.51491 166 134 110
0.954614 -0.819755 4.03364 98 75 42
0.083208 -0.439936 2.95418 112 92 56
-0.871544 0.0178976 1.57417 148 126 93
-1.00838 0.0446514 1.49694 105 72 35
-1.00001 0.0622569 1.44266 30 15 4
-0.878656 0.0268474 1.56276 158 128 101
-0.995657 0.0664452 1.43678 58 36 18
-1.02495 0.0760778 1.40683 245 230 220
-1.0046 0.0701831 1.4298 189 164 158
-1.01482 0.0730572 1.41971 226 202 197
-0.998815 0.0682832 1.43856 132 110 105
-0.998565 0.0668519 1.44526 105 84 77
-0.863539 0.0304246 1.58172 111 89 58
-1.00489 0.0687022 1.43882 98 77 68
-1.00665 0.0707012 1.4307 128 103 94
-0.960499 0.0618436 1.46749 160 112 85
-0.979715 0.0677441 1.44863 152 116 101
-1.01329 0.074761 1.42335 141 120 116
-0.972901 0.0669702 1.45584 162 120 96
-0.964553 0.0650095 1.46383 102 58 34
-1.01399 0.0755552 1.4222 78 56 50
-0.977569 0.068487 1.45069 170 126 107
-0.972265 0.0675503 1.45448 179 136 118
-1.00905 0.0748741 1.4272 183 164 160
-0.921084 0.0548395 1.5153 100 29 24
-1.0197 0.0785575 1.41551 168 145 136
-0.911856 0.0532535 1.52446 159 126 94
-1.02112 0.0710634 1.45211 112 84 72
-1.00983 0.0747783 1.4346 102 78 67
-1.00591 0.0755619 1.43011 196 178 176
-1.00658 0.0769821 1.42698 244 230 226
-0.95428 0.0653275 1.47936 116 100 86
-1.10309 0.0756184 1.44479 164 114 86
-0.921463 0.0592534 1.51159 80 58 16
-1.00193 0.0760255 1.43607 98 82 76
-1.00133 0.076083 1.43596 193 176 172
-1.0063 0.0751873 1.4424 170 144 137
-1.00684 0.07734 1.4311 102 86 82
-0.972673 0.0714989 1.46184 98 98 84
-0.993765 0.0753331 1.44469 207 190 184
-0.875964 0.0480484 1.57376 56 42 14
-1.01552 0.0792202 1.42814 250 238 232
-0.960057 0.0690774 1.47492 156 142 126
-0.97369 0.0730644 1.4598 133 132 119
-0.957343 0.0696553 1.47701 104 97 85
-1.13004 0.0771912 1.45242 70 36 16
-1.00478 0.0776449 1.44159 96 74 66
-0.934177 0.0650344 1.50646 115 85 63
-0.944786 0.068813 1.49361 181 157 144
-0.969333 0.0738465 1.46977 115 98 86
-1.12993 0.0806341 1.45888 88 30 14
-1.09027 0.0847824 1.43977 142 92 74
-0.968882 0.0784955 1.51215 108 22 16
-1.12582 0.0878893 1.44892 69 28 6
-0.958121 0.0773749 1.52844 142 66 50
-0.977234 0.0818601 1.50274 202 132 108
-0.967742 0.0836584 1.51989 141 44 20
-0.912114 0.0775612 1.5882 54 28 14
0.322236 -0.231051 4.47557 119 80 64
-0.932894 0.0806878 1.5682 78 20 3
-0.912267 0.0783064 1.59033 124 76 56
-0.744226 0.0532947 1.83974 128 80 68
-0.957026 0.0857383 1.52469 134 72 53
-0.86571 0.073609 1.64955 72 30 18
-0.917741 0.0826755 1.55817 180 144 118
-0.869973 0.0744066 1.64574 134 83 67
-0.956417 0.0868664 1.52928 154 77 52
-0.921839 0.0843529 1.58551 31 6 2
-0.940922 0.0859245 1.57696 68 49 42
-0.952699 0.0903103 1.53678 92 80 80
-0.947057 0.0884765 1.56452 94 74 67
-0.90641 0.0861599 1.61009 87 55 42
-0.840514 0.0851418 1.68337 111 69 50
-0.913786 0.0897962 1.61581 152 147 150
-0.872491 0.0901026 1.64377 149 106 86
-0.881883 0.0884953 1.68963 154 125 112
-1.10566 0.10117 1.48764 86 34 18
-0.870431 0.0968172 1.70206 104 68 52
-0.934982 0.101281 1.59016 61 16 6
-0.896864 0.100852 1.63644 42 18 18
-1.11936 0.105153 1.4859 125 81 69
-1.12117 0.105381 1.49241 71 22 12
-0.909459 0.106896 1.63753 231 206 185
-0.751312 0.105752 1.89451 99 62 37
-0.901716 0.1097 1.65938 221 189 166
-0.847192 0.119321 1.78783 140 116 106
-0.602269 0.127504 2.07884 50 24 7
-0.505183 0.134126 2.23292 34 13 7
-0.835323 0.125017 1.82297 24 16 8
-0.804001 0.126008 1.82982 52 27 14
-0.373118 0.145854 2.45006 50 29 14
-0.819903 0.127518 1.79271 70 54 46
-0.680813 0.135479 1.95174 66 49 40
-0.78074 0.136925 1.84054 196 174 160
-0.840017 0.137265 1.76592 222 186 165
-0.895107 0.142756 1.72206 222 181 158
-0.936673 0.137139 1.62551 198 150 130
-0.897481 0.148749 1.71028 175 138 125
-0.842591 0.158582 1.80597 210 188 184
-0.425666 0.213721 2.2951 144 102 88
-0.792658 0.164158 1.77385 196 158 137
-0.680636 0.183318 1.9254 52 30 22
-0.687457 0.191462 1.91818 148 128 120
-1.04523 0.137658 1.51285 154 126 114
-0.361091 0.267152 2.41646 192 167 152
-0.947411 0.0115312 1.52034 146 110 80
-0.918807 0.00526228 1.56832 46 30 17
-0.955152 0.0324667 1.5034 165 148 132
-0.846402 -0.0513029 1.75713 114 96 61
-0.81663 -0.026149 1.69299 108 92 56
-0.902488 -0.0394941 1.7527 151 134 91
-0.172597 -0.271492 2.49634 110 79 48
-0.766194 -0.0189462 1.70974 134 110 79
-0.992201 0.0583209 1.45573 25 14 6
-0.765419 -0.0165934 1.70999 156 130 104
-1.00788 0.0499607 1.50146 88 66 40
-1.00105 0.0686901 1.42827 22 10 5
-1.02154 0.0745442 1.41281 173 146 134
-0.996796 0.0650552 1.45112 216 200 195
-1.01361 0.0721592 1.4242 126 106 98
-1.00076 0.0683842 1.44125 106 86 79
-0.950303 0.0586165 1.47553 106 80 56
-1.0156 0.0744147 1.42184 176 153 144
-1.01419 0.0745146 1.42296 86 64 56
-1.01898 0.0644887 1.46793 140 122 106
-0.935736 0.0555571 1.49981 120 78 50
-0.990121 0.0666944 1.45951 132 114 108
-0.96604 0.0653795 1.46326 162 117 98
-0.942986 0.057876 1.49365 108 62 38
-0.975851 0.0678919 1.45501 130 94 80
-1.10307 0.069464 1.46063 141 127 90
-1.01793 0.0678854 1.46612 86 70 60
-0.997413 0.0735936 1.44193 210 194 192
-1.01429 0.0767388 1.42855 94 66 58
-1.00083 0.0746775 1.43996 203 188 182
-1.01605 0.0805104 1.41595 120 104 100
-1.10364 0.0750947 1.45505 74 41 14
-1.00923 0.0777841 1.43527 125 104 96
-0.984909 0.0745209 1.45019 130 34 35
-0.964518 0.0666531 1.48977 141 123 119
-0.93255 0.0637754 1.50258 133 89 77
-0.969555 0.0717695 1.46625 146 134 124
-1.12999 0.0773579 1.45058 48 20 4
-1.01768 0.0809383 1.42489 95 70 62
-1.01368 0.0803853 1.42768 162 141 132
-0.911814 0.0599009 1.53106 148 123 106
-1.13178 0.0777508 1.45627 46 10 2
-0.966633 0.073092 1.46992 156 140 132
-0.968895 0.0735038 1.47056 120 104 92
-1.09121 0.0864198 1.42938 138 91 72
1.40417 -0.486427 5.05362 136 122 86
-1.12676 0.0857759 1.44718 52 15 2
-0.978264 0.0806725 1.4999 132 63 50
-1.12565 0.0882354 1.44562 54 16 4
-0.947306 0.0750074 1.54589 154 106 88
-0.972679 0.080861 1.51098 202 132 108
-0.93888 0.0753095 1.55369 154 122 109
-0.934439 0.0774598 1.5572 188 135 108
-0.806596 0.0452948 1.85024 152 143 104
-0.932215 0.0810033 1.55456 48 24 12
-0.885334 0.0751635 1.61339 97 65 56
-0.960503 0.0856442 1.52002 84 23 5
-0.858274 0.0739124 1.63831 120 90 54
-0.874306 0.0745647 1.63603 54 26 21
-0.912976 0.082034 1.56318 140 100 68
-0.899127 0.0788201 1.59909 117 70 57
-0.955063 0.0792058 1.59952 130 80 58
-0.967031 0.0884214 1.51106 164 82 54
-0.886076 0.0811704 1.61304 184 132 106
-0.913787 0.0830176 1.59974 41 12 5
-1.10395 0.0946176 1.45528 128 83 52
-0.887172 0.0835628 1.61225 148 78 46
-0.854339 0.0804941 1.64944 72 55 40
-0.90045 0.0864539 1.58133 90 76 66
-0.948244 0.0894923 1.54454 72 59 60
-0.952541 0.090753 1.54253 26 18 23
-0.936108 0.0885302 1.58256 144 124 118
-0.916886 0.090103 1.59199 58 47 43
-1.13888 0.0992446 1.44292 149 94 72
-0.84037 0.0869006 1.69614 175 127 103
-1.13833 0.100292 1.43648 174 118 92
-0.924673 0.0929322 1.60928 161 132 117
-0.862865 0.0894381 1.68848 23 12 14
-0.879209 0.089435 1.69102 84 63 55
-1.09526 0.10123 1.44427 107 64 49
-1.12344 0.101597 1.45967 86 33 12
-0.76942 0.0862293 1.9159 136 80 56
-0.887689 0.0966254 1.65985 171 128 114
-0.863073 0.0971284 1.65966 94 52 36
-0.910686 0.0987243 1.63229 198 170 152
-0.932717 0.101701 1.59216 147 102 85
-1.13481 0.103939 1.4472 68 34 24
-1.11732 0.105375 1.46553 58 16 4
-1.11777 0.105903 1.4626 98 53 43
-1.11963 0.106523 1.46476 99 50 35
-0.833688 0.115734 1.82396 75 51 38
-0.844287 0.115384 1.79604 145 100 80
-0.822197 0.116679 1.79072 177 151 135
-0.819596 0.118353 1.83056 43 20 6
-0.475881 0.127569 2.32507 18 10 8
-0.845164 0.118617 1.78497 68 42 32
-0.713322 0.123159 1.89447 179 149 132
-0.638951 0.126457 2.01971 68 40 22
-0.715595 0.125618 1.89392 38 16 11
-0.830742 0.123321 1.82553 20 10 6
-0.601281 0.132266 2.07648 160 136 120
-0.788682 0.126724 1.85904 74 48 30
-0.472168 0.141811 2.2902 50 29 14
-0.683602 0.131212 1.93592 178 158 146
-0.705675 0.134197 2.00431 28 18 14
-0.502427 0.147103 2.26995 102 62 40
-0.782758 0.132495 1.87969 98 69 51
-0.57677 0.151331 2.14253 172 150 139
-0.896582 0.142404 1.71914 190 148 126
-0.902656 0.14224 1.69673 186 139 118
-0.932159 0.141798 1.69462 156 58 45
-0.889617 0.147455 1.71749 115 66 46
-0.903092 0.1454 1.65352 190 150 130
-0.839183 0.155284 1.75062 164 118 98
-0.825143 0.160044 1.7858 113 68 44
-0.717588 0.17798 1.88111 164 132 122
-0.648237 0.199052 1.97922 80 62 56
-1.12246 0.128521 1.46137 188 133 98
-0.652678 0.201344 1.98101 159 134 122
-0.712389 0.191113 1.88409 98 70 58
-0.917191 0.162377 1.68453 135 106 98
-0.775779 0.190585 1.81031 200 176 160
-0.572911 0.241311 2.14935 34 20 10
-0.694344 0.216946 1.9417 138 106 87
-1.05282 0.15483 1.51055 64 23 16
-0.847272 -0.0436735 1.682 126 104 60
-0.94145 0.0196344 1.52886 166 134 110
-0.948596 0.0291291 1.51333 157 142 130
-0.871585 0.0157842 1.57741 108 77 46
-1.01274 0.0524084 1.49145 96 73 38
-0.994247 0.0660811 1.43827 26 12 4
-1.01759 0.0705734 1.42386 130 82 55
-1.00202 0.068748 1.4336 134 97 82
-1.01342 0.0708728 1.42656 212 192 180
-1.00769 0.0716445 1.42333 176 146 130
-1.01279 0.0728333 1.4198 195 173 166
-0.94544 0.0588044 1.48632 128 88 60
-0.982114 0.0700137 1.44321 156 114 92
-0.973001 0.0676335 1.45351 155 110 90
-1.10056 0.0695809 1.45644 151 98 81
-0.993657 0.0682778 1.45498 87 69 64
-0.978777 0.0694709 1.45062 120 80 64
-1.01354 0.0764889 1.42607 116 92 82
-0.959793 0.0651554 1.47663 152 133 122
-1.00026 0.0735079 1.44138 102 86 80
-1.01289 0.0761727 1.43099 102 76 66
-0.99987 0.0745535 1.43777 238 222 219
-0.955518 0.0654461 1.47791 118 104 92
-1.0088 0.0772897 1.42675 148 134 129
-1.13249 0.075626 1.44973 50 25 11
-1.01424 0.0779972 1.42856 162 134 128
-1.10314 0.0737663 1.45697 56 24 6
-1.10243 0.0733293 1.4592 86 40 18
-0.995753 0.0750021 1.44382 127 108 106
-0.88426 0.0490292 1.56352 62 30 16
-1.00224 0.0776507 1.4323 186 166 160
-0.943427 0.0656221 1.48818 114 50 42
-1.12882 0.076909 1.44793 23 13 6
-1.10368 0.0746939 1.45627 63 37 12
-1.02412 0.0822579 1.41298 212 201 195
-0.998876 0.0765164 1.4399 192 178 174
-1.13537 0.0761477 1.45434 64 35 22
-1.02814 0.0836568 1.40725 148 124 117
-1.00267 0.0762935 1.44292 71 52 44
-1.12861 0.0777552 1.44686 128 93 70
-1.12812 0.0767817 1.45115 72 44 13
-1.01399 0.0785585 1.43438 116 90 77
-0.977391 0.0740284 1.45479 144 136 126
-1.13212 0.077135 1.4539 166 109 88
-1.10158 0.0755754 1.46373 102 30 10
-0.954827 0.069792 1.48713 154 140 132
-0.960702 0.0721504 1.47516 151 136 120
-1.13673 0.0826933 1.45124 152 94 75
-0.823876 0.0412439 1.75423 130 112 102
-0.960549 0.0777514 1.52272 154 116 100
-0.840279 0.0529234 1.71271 156 133 122
-0.957162 0.0771612 1.53903 199 130 106
-0.960223 0.0778711 1.5368 124 26 18
-0.951146 0.0806575 1.52916 172 120 92
-0.610023 0.00516651 2.22633 100 88 68
-0.917499 0.0787001 1.57908 54 28 14
-1.11154 0.0947586 1.42424 92 61 32
-1.1106 0.0924784 1.44481 158 144 115
-0.959765 0.0848201 1.52815 121 26 2
-0.925971 0.0803317 1.57284 148 90 70
-0.8838 0.0740674 1.63805 130 81 62
-0.907557 0.0814832 1.57382 180 146 121
-0.965288 0.0874879 1.51317 166 87 62
-0.808984 0.0483286 1.92317 136 87 66
-0.948589 0.0853847 1.54924 172 74 44
-0.91158 0.0794759 1.62061 120 52 34
-0.877165 0.0800247 1.62651 182 134 109
-0.920732 0.0879157 1.55207 132 107 89
-0.861239 0.0813607 1.63927 52 37 25
-0.91426 0.0827277 1.62685 80 60 53
-0.816936 0.0785407 1.69793 70 49 22
-0.922186 0.0898333 1.58111 47 20 10
-0.948618 0.0936593 1.53715 72 60 55
-0.811753 0.0824264 1.72768 133 90 72
-0.815842 0.0834764 1.71027 172 138 120
-0.922342 0.0906055 1.59979 71 66 68
-0.874799 0.0897154 1.6187 73 34 20
-0.865009 0.0893689 1.65584 162 118 97
-0.880427 0.0916717 1.6514 130 83 66
-0.736956 0.08995 1.86517 89 44 26
-0.907938 0.0983857 1.63718 192 166 150
-1.13783 0.103448 1.43786 128 106 87
-0.941947 0.103733 1.58166 166 120 98
-1.13549 0.104552 1.44636 36 11 4
-1.13551 0.105485 1.44646 96 66 48
-1.11838 0.105713 1.47103 119 76 65
-1.12385 0.105241 1.52531 135 84 69
-0.690636 0.109379 1.95247 46 18 7
-0.650359 0.115222 2.02524 120 97 80
-0.880508 0.11462 1.71854 101 54 34
-0.847839 0.115831 1.77399 156 123 103
-0.675943 0.119572 1.98396 24 12 6
-0.796222 0.118953 1.83477 74 54 42
-0.786275 0.120762 1.87571 118 88 72
-0.720585 0.124643 1.88505 30 7 3
-0.820918 0.122796 1.78344 47 34 28
-0.711446 0.129322 1.97027 74 34 11
-0.629239 0.147533 2.05505 178 157 146
-0.835518 0.137548 1.77512 167 131 111
-0.922809 0.133419 1.70845 151 88 63
-0.859355 0.142541 1.73474 152 112 90
-0.907869 0.14138 1.6855 180 132 111
-0.854269 0.153809 1.74627 190 150 130
-0.925524 0.147152 1.68757 134 106 100
-0.888951 0.148637 1.66787 112 66 41
-0.919824 0.150565 1.66326 128 92 80
-0.665009 0.185697 1.95021 96 74 67
-0.713947 0.180869 1.88309 88 64 60
-0.653924 0.193431 1.96302 55 33 22
-0.935631 0.15536 1.67923 144 132 122
-0.499367 0.234042 2.20151 124 105 91
-0.890915 0.166733 1.71319 154 110 106
-0.892536 0.165272 1.69596 161 105 90
0.0759055 0.357536 3.09266 168 146 132
-1.08275 0.144512 1.5735 153 120 107
-1.07264 0.141721 1.50673 156 80 76
-1.07239 0.14231 1.50365 198 174 163
-1.05624 0.145559 1.52136 80 48 42
-1.03054 0.164967 1.64899 186 166 160
-1.02563 0.166814 1.63633 140 125 118
-1.07211 0.161505 1.54075 74 16 10
-0.968183 0.0312128 1.49327 160 112 86
-0.94428 0.0265456 1.52035 159 140 125
-0.747508 -0.0486446 1.74794 102 78 44
-0.829967 -0.020382 1.67353 114 96 60
-1.02519 0.0657332 1.4391 100 28 14
-0.904476 0.03826 1.54665 38 18 8
-1.00808 0.0687698 1.43528 240 228 218
-1.00967 0.0697373 1.43552 158 128 116
-1.01208 0.0747735 1.41884 198 182 178
-0.997772 0.0674565 1.45118 140 120 112
-0.971046 0.0646318 1.46227 158 134 127
-0.969739 0.0666151 1.45797 164 121 101
-1.09942 0.0707655 1.45275 56 19 5
-1.01191 0.0760236 1.42842 93 70 61
-1.10277 0.0754382 1.44501 172 116 86
-0.93307 0.0603908 1.50963 153 138 128
-0.96749 0.0698632 1.46926 100 99 85
-1.01651 0.0795102 1.42633 191 176 170
-0.961701 0.0695964 1.47288 144 132 114
-0.981766 0.0734742 1.45603 132 38 38
-0.970609 0.0743429 1.46429 157 142 134
-0.952795 0.0708987 1.48237 167 144 131
-1.1319 0.0799825 1.45469 124 70 52
-0.749031 0.0220597 1.80738 96 84 54
-1.13674 0.0835766 1.45043 61 18 7
-0.794794 0.0377883 1.73726 142 130 89
1.66219 -0.520539 5.52298 100 70 56
-0.75086 0.0134869 1.93963 96 79 62
-0.77507 0.036984 1.78173 20 10 2
-0.653838 -0.0137452 2.13919 89 86 54
-0.748318 0.0248115 1.8846 89 76 58
-0.949148 0.0709338 1.57105 80 86 56
-0.977758 0.0819644 1.50153 189 124 99
-0.941968 0.0788611 1.54448 172 120 92
-0.928 0.0769047 1.56334 168 118 98
-1.13821 0.0942798 1.42378 136 114 90
-0.958638 0.0848692 1.52993 110 14 0
-1.10814 0.0933349 1.44186 69 30 8
-0.968347 0.0867456 1.52132 168 123 110
-0.743889 0.0351568 2.06157 148 102 78
-0.879587 0.0804379 1.62275 184 132 106
-0.979055 0.0909542 1.5046 100 80 74
-1.10363 0.0944103 1.45855 112 70 40
-0.912134 0.086254 1.5733 154 82 52
-1.14003 0.096359 1.44041 182 126 94
-1.08413 0.0956443 1.45115 86 66 42
-0.881118 0.0903024 1.6419 133 74 50
-0.959339 0.0961775 1.54486 162 132 116
-0.781193 0.0887451 1.78455 168 146 132
-1.12349 0.101652 1.46169 78 26 9
-1.13424 0.105462 1.4363 158 138 122
-0.88272 0.105941 1.66778 123 98 86
-0.889618 0.109634 1.68325 206 172 147
-0.560954 0.108863 2.16594 46 18 7
-0.865409 0.111276 1.71364 134 108 92
-0.7217 0.119148 1.90834 25 13 7
-0.823553 0.123713 1.76954 77 35 11
-0.652732 0.134463 1.99558 28 16 10
-0.521646 0.145256 2.23514 100 55 34
-0.863964 0.142007 1.72453 105 60 38
-0.929974 0.142241 1.70002 215 118 108
-0.875504 0.14924 1.68439 170 124 103
-0.857945 0.153504 1.72494 114 68 44
-0.817789 0.157306 1.74382 141 110 96
-0.81185 0.163566 1.75066 206 176 161
-0.580824 0.200337 2.06941 175 152 138
-0.670674 0.187265 1.92858 92 60 44
-0.58638 0.204712 2.06897 49 28 20
-0.741712 0.179828 1.84985 194 154 136
-1.10222 0.127928 1.4436 206 156 122
-0.725695 0.187169 1.86678 182 154 136
-0.838046 0.174512 1.76767 110 112 103
-0.686007 0.210115 1.95761 229 204 187
-1.08544 0.138679 1.49167 81 52 45
-1.03722 0.159132 1.62204 120 90 84
-1.03113 0.164405 1.64577 171 152 146
-0.96417 0.019951 1.50557 154 98 68
-0.974058 0.0337958 1.48974 120 22 14
-0.910807 -0.0355625 1.71333 104 86 44
-0.717102 -0.0747807 1.83814 121 104 68
-1.02197 0.0586587 1.46204 138 113 82
-1.03167 0.0726524 1.42016 111 8 9
-1.00385 0.0702483 1.42928 221 194 182
-0.963532 0.0526139 1.50418 142 119 112
-1.01589 0.074175 1.42051 76 54 46
-0.968766 0.0560846 1.49185 73 56 50
-0.927238 0.0506825 1.51008 141 110 91
-0.983016 0.0686163 1.44563 159 136 128
-0.980258 0.0691156 1.44697 135 90 72
-0.972889 0.0673352 1.45962 137 104 92
-0.997511 0.0729485 1.44352 192 174 172
-0.980109 0.0716061 1.44875 155 134 128
-0.97549 0.0715641 1.45065 132 118 108
-0.962811 0.0683956 1.47633 111 107 94
-0.97147 0.0671971 1.48532 164 148 146
-0.946876 0.065052 1.49439 138 128 108
-1.01003 0.077142 1.44013 146 120 113
-0.941214 0.0644641 1.49987 106 108 94
-1.01659 0.0794423 1.43043 135 108 94
-1.01095 0.0784528 1.4351 95 73 64
-1.00556 0.0766533 1.44589 95 70 62
-1.10163 0.0755653 1.46172 104 32 14
-0.930909 0.063774 1.51715 146 129 114
-0.976318 0.0766926 1.45062 154 132 121
-1.0841 0.0818432 1.45313 76 59 22
-1.14113 0.0843955 1.44997 115 76 57
-0.941174 0.0714927 1.56197 118 38 30
-0.883105 0.0568352 1.67788 168 134 126
-0.991001 0.0859468 1.47118 122 15 8
-1.13285 0.0894711 1.45077 180 124 94
-0.947532 0.0801044 1.53562 188 135 109
-1.11029 0.0943766 1.42432 160 146 120
-1.10145 0.0923176 1.45097 134 85 58
-1.10844 0.0921879 1.45294 68 28 8
-0.904892 0.0745133 1.64095 164 128 113
-0.943919 0.0839744 1.55196 172 84 57
-1.10215 0.0932245 1.45714 123 77 48
-0.916814 0.0797892 1.61089 166 71 45
-0.926705 0.0841394 1.59457 91 87 88
-0.849477 0.0781643 1.67262 174 98 69
-0.872588 0.0823414 1.62427 118 100 86
-1.08333 0.0947755 1.46097 87 62 38
-0.902256 0.0868115 1.59099 180 122 93
-1.0834 0.0956609 1.46443 96 66 42
-1.08682 0.0982453 1.44534 168 146 124
-0.860114 0.0879137 1.67781 124 70 49
-0.78139 0.0874423 1.7866 172 148 133
-0.916904 0.100535 1.62851 57 12 2
-0.910947 0.100749 1.6245 78 41 29
-1.13611 0.104227 1.44802 37 11 5
-0.917605 0.103617 1.62994 164 118 92
-0.838334 0.104908 1.74921 142 116 102
-0.835457 0.109525 1.79041 187 148 120
-0.832859 0.115498 1.79586 119 89 70
-0.887304 0.115778 1.67347 184 157 139
-0.665786 0.1203 2.00527 18 12 10
-0.800498 0.118821 1.87087 44 20 10
-0.886492 0.116712 1.67044 94 74 61
-0.789913 0.121897 1.90223 129 106 98
-0.783683 0.121676 1.84732 136 112 100
-0.601535 0.19603 2.03966 172 148 134
-0.700764 0.187726 1.93551 155 120 104
-0.778188 0.173058 1.79405 190 160 142
-0.728471 0.187498 1.866 164 131 114
-0.552206 0.223144 2.11814 70 52 38
-0.809412 0.181865 1.82272 94 106 94
-1.07164 0.143243 1.51728 147 61 57
-0.963195 0.0178383 1.50581 187 136 108
-0.955159 0.0145076 1.52768 154 147 106
-0.946793 0.0142697 1.52733 90 44 19
-0.997465 0.0606155 1.44658 20 14 6
-1.01832 0.0594378 1.45884 136 112 90
-1.01472 0.0715032 1.42416 160 130 118
-1.01281 0.0712493 1.42502 216 196 190
-0.99 0.0645296 1.45763 68 52 48
-0.973997 0.0653842 1.45903 162 140 132
-1.01892 0.0658166 1.46613 86 83 70
-0.957733 0.0624013 1.48125 134 100 85
-1.10297 0.0693546 1.46634 52 26 8
-1.00443 0.0748988 1.43662 104 86 80
-0.943924 0.0616859 1.49508 137 124 116
-1.01843 0.0723349 1.45222 126 13 11
-0.980759 0.0737279 1.45035 132 122 112
-1.00404 0.0764492 1.44072 111 93 84
-0.971647 0.0672215 1.48521 170 154 151
-0.947405 0.0650773 1.4943 118 116 95
-0.968855 0.0720526 1.46116 102 103 90
-1.00092 0.0780857 1.43683 116 100 96
-1.01368 0.0796747 1.43182 68 42 34
-0.955062 0.0705337 1.48261 156 136 124
-1.09452 0.0814643 1.45916 134 84 62
-1.1376 0.0830122 1.45483 46 12 4
-1.09843 0.0845473 1.44492 158 101 76
-0.965749 0.0664877 1.57003 144 97 66
-0.752537 0.0185589 1.93558 150 128 113
-0.931314 0.0686016 1.59063 158 130 120
-0.977296 0.0817233 1.50254 188 114 92
-0.885367 0.0631676 1.64675 145 104 91
-1.0824 0.0880622 1.45475 114 97 64
-0.867675 0.0552583 1.73 116 116 74
-0.921691 0.0729301 1.61724 152 124 113
-0.810795 0.061731 1.72617 132 102 84
-0.532713 0.0204666 2.1265 127 100 62
-1.10141 0.091254 1.45935 162 112 82
-1.10012 0.0929058 1.45226 140 87 63
-0.864913 0.0769194 1.63401 180 154 129
-0.886742 0.075424 1.66374 170 74 42
-0.892068 0.081754 1.6036 176 119 94
-1.1036 0.0929782 1.47618 110 67 38
-0.757571 0.0730924 1.79642 177 153 134
-0.886586 0.0903617 1.61247 114 82 64
-0.876264 0.0914238 1.64928 150 88 62
-1.10718 0.100239 1.46107 109 61 45
-1.1387 0.101567 1.4511 108 65 50
-0.872291 0.0964543 1.65625 60 24 16
-0.855432 0.0997227 1.6764 188 159 142
-0.872443 0.101106 1.66226 50 25 16
-1.13862 0.104638 1.44903 93 50 28
-1.10335 0.107617 1.44354 170 120 96
-1.14484 0.108801 1.45784 144 96 81
-1.12648 0.110298 1.44719 170 122 98
-0.543127 0.125756 2.42819 66 52 46
-0.879851 0.11901 1.72293 84 65 58
-0.720994 0.136443 2.09896 86 71 52
-0.69151 0.141312 2.11948 99 82 66
-1.1508 0.115605 1.47077 136 19 10
-0.814867 0.162304 1.79468 112 64 40
-1.11417 0.129002 1.46043 38 12 7
-0.787703 0.176826 1.78669 104 75 66
-1.08228 0.138503 1.49046 112 86 78
-0.875022 0.179559 1.73269 35 14 9
-0.989942 0.0657819 1.43806 94 69 50
-0.963028 0.0661427 1.47451 160 140 134
-1.13741 0.0785514 1.4421 86 49 34
-0.973168 0.0706912 1.46967 147 82 77
-0.99263 0.0754205 1.45016 116 101 96
-1.08305 0.0884814 1.44909 80 62 28
-0.872672 0.0600729 1.7014 128 31 20
-0.811887 0.0487975 1.83597 123 108 82
-0.774718 0.0587469 1.76488 145 126 84
-1.08562 0.09708 1.44587 99 63 37
-0.928762 0.0875865 1.59976 160 131 120
-0.912353 0.0902598 1.63088 108 86 78
-0.848711 0.091694 1.68054 174 148 133
-0.739273 0.0912709 1.85116 110 74 52
-0.811346 0.100971 1.75822 171 142 121
-0.792082 0.120872 1.83514 140 116 103
-1.14468 0.115246 1.44544 133 13 9
-0.497988 0.20547 2.19044 140 92 74
-0.71734 0.175562 1.88267 165 144 134
-0.511443 0.217671 2.19519 30 15 12
-0.812631 0.167157 1.74139 191 162 141
-1.10393 0.127444 1.43988 203 152 122
-0.531686 0.227476 2.15067 114 94 80
-1.04485 0.145687 1.5138 150 126 114
-1.07752 0.155864 1.48468 94 63 54
-0.956828 0.0209242 1.52583 107 25 12
-0.988474 0.0559985 1.46103 18 11 6
-1.02189 0.0707954 1.42083 122 8 7
-1.03058 0.0677962 1.4359 103 62 35
-1.01935 0.0649062 1.44649 114 7 8
-1.00861 0.0695929 1.43228 222 203 199
-1.01147 0.0725093 1.42082 135 111 105
-1.02521 0.0748554 1.41406 113 68 40
-1.01619 0.0724348 1.42645 168 140 131
-1.01737 0.0685967 1.44522 160 128 118
-1.03083 0.0759893 1.4204 97 47 22
-1.13248 0.0764225 1.44677 50 24 9
-1.09297 0.0776841 1.46797 59 24 14
0.0966011 -0.18417 3.06843 150 144 97
-1.12669 0.0832057 1.4528 146 128 88
-0.901342 0.0614127 1.6211 143 118 106
-0.715744 0.0199651 1.92429 154 138 126
-0.965752 0.0776609 1.51893 144 67 56
-0.935274 0.0722821 1.55949 155 134 128
-0.899211 0.0709456 1.61075 150 100 78
-0.96295 0.0825169 1.52038 178 90 64
-1.14193 0.0923374 1.44167 102 76 52
-0.93416 0.0839179 1.52636 149 138 94
-0.943996 0.0801721 1.57014 163 128 115
-0.950909 0.084683 1.54057 162 68 44
-1.13757 0.103131 1.43111 166 142 122
-1.12141 0.103457 1.45915 186 127 104
-1.10877 0.109449 1.4479 46 14 2
-0.82675 0.117547 1.80697 116 85 69
-0.668478 0.231453 2.00493 172 149 140
-1.06387 0.159895 1.60304 158 78 72
-0.956908 0.0164284 1.51024 198 148 121
-0.88154 -0.0273672 1.64569 214 172 148
-0.88104 -0.02823 1.66297 156 134 99
-0.959463 0.0269098 1.5085 38 18 6
-0.986858 0.0668804 1.43832 58 37 21
-0.957062 0.0612631 1.46974 156 130 115
-1.02182 0.0813094 1.41351 80 59 48
-0.928 0.0614449 1.50879 106 50 40
-0.964569 0.0705641 1.46957 156 142 124
-1.0147 0.0806941 1.42716 103 80 74
-1.02255 0.0833432 1.4144 152 127 119
-0.882366 0.0831773 1.61977 140 78 52
-0.864545 0.0832126 1.63717 149 128 112
-0.950082 0.0898915 1.5528 126 116 117
-0.881645 0.0863834 1.62648 142 73 34
-0.868621 0.0917033 1.66325 91 38 18
-0.811563 0.119786 1.85157 144 118 106
-0.724801 0.12315 1.876 144 114 101
-0.75801 0.133316 2.01905 82 66 48
-0.856607 0.145213 1.74638 134 94 78
-0.596326 0.215705 2.05247 72 52 38
-0.915769 0.161786 1.65569 180 106 107
-1.05913 0.161288 1.63677 195 149 142
-0.959215 0.0214212 1.51446 185 136 110
-0.898342 -0.0166042 1.62966 142 90 66
-0.739485 -0.0526573 1.75971 102 81 48
-0.999019 0.0675329 1.43209 30 16 8
-0.99854 0.0685251 1.43887 182 164 156
-0.958767 0.0611448 1.46976 153 107 81
-0.972435 0.0673779 1.46022 136 106 94
-1.00418 0.076673 1.43234 114 96 92
-0.962433 0.0685689 1.47686 102 102 88
-0.945966 0.0663642 1.49319 100 100 87
-0.946717 0.0662971 1.49514 102 98 80
-0.908785 0.0578373 1.54172 134 104 87
-0.9265 0.0637184 1.51902 164 141 128
-1.12993 0.0806197 1.4585 90 28 8
-1.10143 0.0915652 1.45874 132 83 53
-0.858772 0.0802666 1.64723 110 84 68
-0.807563 0.0779147 1.76492 75 23 6
-0.818999 0.0828803 1.71744 145 108 88
-1.12202 0.102151 1.46776 117 62 44
-0.837477 0.124673 1.81894 35 25 17
-0.943926 0.152637 1.66671 54 31 22
-1.02076 0.154587 1.57056 110 91 80
-0.957413 0.0145829 1.51467 236 194 171
-0.95693 0.0201809 1.51795 192 147 122
-0.891025 -0.0182309 1.63186 146 97 66
-0.993313 0.0653544 1.44042 25 14 8
-0.717551 -0.0196449 1.76873 115 87 59
-1.01278 0.0756788 1.42998 130 103 96
-0.966022 0.0695377 1.47152 101 104 89
-0.945138 0.0659383 1.49432 99 102 88
-0.942276 0.0752094 1.55541 115 20 10
-0.0996367 -0.101803 3.467 156 110 92
-0.907512 0.100935 1.61758 32 12 11
-0.943509 0.139873 1.66696 174 72 62
-1.12178 0.127861 1.45404 173 118 84
-0.810041 0.179733 1.78577 132 53 47
0.702131 -0.635449 3.64426 106 75 44
-0.606484 -0.0769657 1.91604 156 130 106
-0.986823 0.0668802 1.43803 20 8 2
-1.00945 0.0745445 1.43598 105 78 69
-0.900373 0.0560689 1.55333 122 91 72
-1.14187 0.0823705 1.44835 138 94 74
-0.905377 0.0650241 1.61953 156 108 92
-0.914634 0.0678914 1.61847 158 68 54
-0.871019 0.0823967 1.62461 51 32 21
-0.883537 0.0847627 1.62021 181 124 98
-0.854405 0.0821316 1.69747 50 20 8
-0.855993 0.0869629 1.65909 127 86 66
-0.890866 0.0923259 1.63339 133 84 66
-0.904595 0.0967289 1.65076 184 139 118
-0.760559 0.116119 1.96298 137 87 66
-1.13408 0.117268 1.42243 102 74 43
-0.741782 0.173321 1.84213 156 133 130
-1.08687 0.134785 1.47743 157 127 115
-1.04987 0.155195 1.50164 149 28 23
-0.94962 0.00903987 1.52831 187 137 107
-0.963728 0.020093 1.5128 152 145 99
-0.882956 -0.0270055 1.64319 116 66 40
-0.950812 0.0182985 1.52335 184 135 110
-0.877037 -0.0193377 1.63676 40 24 10
-0.954331 0.0316093 1.50547 98 83 69
0.102904 -0.389793 2.85821 134 102 76
-0.570543 -0.0912944 1.96541 155 131 106
-0.996183 0.0663149 1.43649 18 13 11
-0.750436 -0.00927237 1.72639 118 86 62
-0.997573 0.0670571 1.44294 218 199 195
-1.00571 0.0722614 1.43352 111 94 88
-0.962094 0.0641356 1.46689 100 56 32
-0.998693 0.0728364 1.44435 117 102 95
-1.00181 0.0773048 1.43972 88 72 66
-0.936215 0.0658203 1.50399 149 119 102
-1.1421 0.0813823 1.44657 49 19 8
-0.304395 -0.100117 2.7859 140 123 108
3.02827 -0.788307 9.26662 106 98 80
-0.933737 0.0814764 1.55288 94 52 30
-1.10977 0.0975687 1.51947 140 89 73
-0.831444 0.0988364 1.71854 173 140 120
-1.09772 0.129202 1.45046 202 151 117
-0.981701 0.0612255 1.46591 153 130 124
-0.926876 0.0506604 1.50994 152 127 110
-1.00894 0.0736601 1.42469 186 168 164
-0.837403 0.0375262 1.62873 72 36 25
-0.887482 0.0521653 1.56712 144 122 106
-0.897816 0.0676571 1.72085 150 97 73
-0.918864 0.0740945 1.67895 156 117 98
-0.863579 0.0848729 1.72901 164 134 121
-0.888172 0.0945382 1.67981 182 140 120
-0.864784 -0.0374519 1.66329 90 41 16
-0.957898 0.0202329 1.5168 116 66 40
-0.902263 -0.0127814 1.62147 114 16 8
-0.828114 -0.0475988 1.71604 54 38 16
-0.931646 0.0538231 1.50749 120 74 49
-0.94893 0.0867771 1.56147 86 65 56
-0.790549 0.0816571 1.76177 122 84 66
-0.846523 0.0860158 1.70969 112 68 54
-0.879014 0.0914196 1.64503 140 84 60
-0.891012 0.0944092 1.63186 40 13 8
-0.87531 0.0962037 1.65155 60 24 18
-0.898142 0.0816646 1.58434 176 148 124
-0.930985 0.0911423 1.60306 166 136 124
-0.883992 0.0397792 1.55767 108 100 68
-0.985278 0.0741245 1.45057 129 52 44
-0.937658 0.085428 1.55343 174 125 102
-0.878542 0.0800728 1.62491 185 132 106
-0.869899 0.0825936 1.62748 48 36 28
-0.866421 0.0152665 1.57887 142 128 80
-1.01075 0.0704451 1.42851 218 197 192
-1.00251 0.0696339 1.43153 201 171 156
-1.0122 0.0750782 1.42254 142 123 120
-0.999503 0.0747469 1.44207 118 102 98
-1.00117 0.0754762 1.44091 135 123 119
-0.998709 0.0765178 1.43784 194 175 170
-0.933243 0.064815 1.5003 74 28 16
-0.972243 0.0849089 1.50836 191 100 69
-0.95185 0.0891126 1.55471 39 26 18
-1.00345 0.0697213 1.43375 223 203 198
-1.01829 0.0784745 1.41976 152 127 120
-0.949015 0.0740994 1.54458 125 72 61
-0.862483 0.0735212 1.63549 147 122 81
-0.959122 0.0244648 1.50273 150 131 86
-1.00214 0.0630683 1.43891 20 11 4
-0.994958 0.0658812 1.43801 16 8 3
-0.900727 0.0359551 1.54853 137 110 84
-0.969113 0.0716384 1.46746 157 141 131
-0.929878 0.0801544 1.57342 88 25 7
-0.919274 0.0794141 1.58414 136 82 58
-1.01054 0.073277 1.42599 63 49 47
-0.848718 0.068759 1.66774 120 90 74
-0.943766 0.0866719 1.57111 58 38 30
-0.824158 0.0978792 1.72655 172 135 114
-0.94533 0.0147941 1.53287 146 93 66
-0.995949 0.0748655 1.45122 80 68 62
-0.823643 0.0432208 1.7555 114 98 87
-1.01381 0.0792824 1.4306 96 76 69
-0.872315 0.111833 1.70214 142 116 96
-0.892846 0.0805907 1.74295 44 12 2
-0.872434 0.106906 1.68894 116 86 70
-0.857475 0.0750085 1.81024 90 64 43
-0.774681 0.206417 1.89302 134 104 101
-1.02958 0.0784271 1.42746 118 48 44
-0.923112 0.100874 1.6061 121 80 64
-0.894023 0.101286 1.64608 64 34 26
-1.03601 0.0776942 1.40844 153 122 114
-0.058701 0.134919 3.01455 46 26 10
-0.885034 0.0957128 1.67019 175 148 140
-0.836062 0.118647 1.76448 138 115 106
-1.14934 0.129576 1.42458 100 17 5
-1.14889 0.136112 1.42463 138 60 28
-1.15214 0.130825 1.42058 162 120 104
-1.15138 0.133634 1.42611 90 21 7
-1.15541 0.107456 1.42325 146 84 84
-1.15392 0.109226 1.41288 156 94 94
-1.16849 0.109992 1.46827 60 21 24
-1.14833 0.129236 1.42091 104 28 2
-1.15392 0.131697 1.4268 164 125 107
-1.15582 0.131193 1.42252 74 2 0
-1.15384 0.139869 1.43499 137 98 82
-1.15277 0.107597 1.41455 131 62 62
-1.15147 0.108305 1.41343 137 76 74
-1.14998 0.110922 1.41868 162 130 112
-1.15219 0.131096 1.42568 146 83 73
-1.15419 0.131681 1.42777 152 99 84
-1.15261 0.131304 1.42198 156 120 98
-1.15534 0.131457 1.4212 122 54 29
-1.15852 0.136469 1.42689 140 56 32
-1.15719 0.136451 1.42539 171 87 48
-1.1522 0.139124 1.42928 130 88 74
-1.16838 0.111124 1.46495 159 124 124
-1.15103 0.133496 1.42521 90 24 1
-1.15312 0.134453 1.42469 98 22 11
-1.15307 0.136584 1.42728 134 83 68
-1.15891 0.136656 1.42819 142 54 28
-1.1529 0.107829 1.41311 162 114 114
-1.15249 0.120605 1.41615 112 103 108
-1.1508 0.126669 1.41749 38 18 23
-1.15219 0.132883 1.42759 150 122 102
-1.15181 0.136691 1.41949 134 60 28
-1.1567 0.138744 1.42578 182 105 58
-1.15261 0.110076 1.41097 162 137 139
-1.15341 0.121833 1.42138 18 14 28
-1.15213 0.138529 1.42793 140 92 80
-1.15638 0.13882 1.42541 181 112 54
-1.1528 0.122551 1.42474 98 88 98
-1.15142 0.13419 1.4273 98 10 8
-1.15267 0.135128 1.4322 100 6 6
-1.15184 0.137882 1.42631 144 101 87
