ply
format ascii 1.0
element vertex 797
property float x
property float y
property float z
property uchar red
property uchar green
property uchar blue
end_header
-0.192487 -0.0413597 0.0778902 0 255 0
-0.187398 -0.0109598 0.0640626 0 255 0
-0.148784 -0.00867453 0.0466223 0 255 0
-0.113303 -0.00780609 0.0316754 0 255 0
-0.067835 -0.00640557 0.0207704 0 255 0
-0.0226739 -0.00333197 0.0130103 0 255 0
0.0225483 -0.000955681 0.0125228 0 255 0
0.0598648 -0.00441223 0.0202334 0 255 0
0.103567 -0.00488301 0.0353601 0 255 0
0.116794 -0.00674573 0.0406825 0 255 0
0.10075 0.0224275 0.0398151 0 255 0
0.0668323 0.0296626 0.0428314 0 255 0
0.0200351 0.0254483 0.0339736 0 255 0
-0.0237182 0.022275 0.0216978 0 255 0
-0.0907564 0.0252499 0.0147 0 255 0
0.098352 -0.143993 0.376075 221 220 178
-0.188061 -0.151178 0.449825 102 106 72
-0.184437 -0.148351 0.448213 112 112 78
-0.109506 -0.177144 0.553374 222 222 173
-0.107391 -0.177857 0.555075 222 222 172
-0.105483 -0.174228 0.547931 223 222 173
-0.171337 -0.136849 0.450001 130 126 104
-0.0926869 -0.152908 0.520619 130 134 98
-0.166309 -0.131699 0.447577 170 165 150
-0.0852504 -0.145928 0.51779 127 132 96
-0.160796 -0.128242 0.450979 127 124 104
-0.0888943 -0.141679 0.513979 129 132 98
-0.158917 -0.125839 0.451972 112 114 92
-0.0813097 -0.138759 0.512317 154 156 124
-0.154628 -0.123132 0.451976 122 120 100
-0.15657 -0.119813 0.448971 144 141 120
-0.153939 -0.118666 0.450591 154 152 132
-0.151292 -0.119326 0.451885 123 122 100
0.0849905 -0.105347 0.404274 124 120 88
-0.147603 -0.117945 0.453644 131 128 105
-0.156976 -0.115162 0.446791 171 162 138
-0.0820536 -0.125318 0.502138 112 120 82
-0.144652 -0.11418 0.454577 120 118 95
-0.143333 -0.11299 0.454841 134 132 112
-0.139685 -0.111798 0.456299 114 118 94
-0.145618 -0.109251 0.449627 114 114 92
-0.141505 -0.105474 0.450236 122 122 99
-0.14669 -0.103466 0.447532 111 112 82
-0.143113 -0.102125 0.448588 130 128 101
-0.138914 -0.101505 0.448762 128 126 102
-0.129709 -0.0974622 0.453706 128 128 107
-0.139219 -0.0949178 0.448269 164 162 132
0.0396865 -0.0839337 0.424019 164 166 128
-0.00552547 -0.0673285 0.30049 102 100 70
-0.127162 -0.092167 0.452007 117 118 96
-0.132441 -0.0911325 0.44996 117 116 95
-0.00904747 -0.0660001 0.311022 97 94 74
-0.114685 -0.0895067 0.461189 122 120 101
-0.1227 -0.0876259 0.45273 120 120 100
-0.131472 -0.0862887 0.44448 164 162 136
-0.115247 -0.0807276 0.454503 122 123 101
-0.0678363 -0.0809669 0.475058 126 136 92
-0.104993 -0.0806853 0.463443 122 122 101
-0.123542 -0.079118 0.447475 130 127 102
-0.0492245 -0.0690454 0.47063 164 164 112
-0.108517 -0.062784 0.449274 133 129 108
0.0583071 -0.0525516 0.468912 216 227 186
-0.080359 -0.0606101 0.471451 127 129 99
-0.073074 -0.054004 0.472074 123 123 90
-0.0819896 -0.0527177 0.462998 120 120 92
-0.13542 -0.0540925 0.502822 114 116 82
-0.15064 -0.05385 0.512762 142 140 102
-0.0791272 -0.0468939 0.46052 120 122 90
0.0443127 -0.0365598 0.478652 222 231 190
0.0464962 -0.0343524 0.500624 216 226 188
-0.112908 -0.0451273 0.492109 112 112 81
0.0534194 -0.0305927 0.466635 112 101 67
0.0402477 -0.0295727 0.507067 216 228 188
-0.0739415 -0.0372154 0.459487 110 112 83
0.0481749 -0.0218583 0.449248 224 230 191
0.0451383 -0.0195816 0.449185 221 232 190
-0.114598 -0.0321196 0.481241 110 86 63
-0.100648 -0.0282747 0.514232 178 182 146
0.0363621 -0.0057044 0.485425 94 80 52
-0.0822861 -0.014333 0.504557 72 65 48
0.0325296 -0.000164083 0.484429 56 26 15
-0.0949158 -0.00767638 0.524334 88 58 32
-0.0570849 -0.0038077 0.446958 126 128 116
0.00199151 0.00478227 0.472637 70 70 48
0.0255551 0.00972217 0.461385 54 26 15
0.0160384 0.0122487 0.490019 56 32 20
0.0248565 0.0140107 0.445122 107 76 57
-0.0226373 0.0120444 0.464248 120 121 102
-0.0332994 0.0108529 0.451146 105 124 82
-0.0255006 0.0144049 0.4525 76 77 54
-0.00835341 0.0180474 0.436953 80 80 60
-0.0163612 0.0180107 0.437577 69 72 50
-0.0147675 0.0188034 0.435083 64 66 43
-0.0406391 0.0199354 0.411299 84 64 44
-0.108724 0.0193925 0.459858 194 152 125
-0.00328716 0.0255684 0.411294 76 80 56
0.00680897 0.0257941 0.407762 74 74 48
-0.0405616 0.0221468 0.416534 66 54 42
-0.0148717 0.0267153 0.417469 54 40 23
0.00640107 0.0280562 0.401846 70 74 44
0.00843854 0.0291644 0.403323 72 76 47
-0.000739373 0.0286371 0.404193 76 80 54
0.00901041 0.0300233 0.398287 70 78 42
-0.0399741 0.0349528 0.414832 115 92 84
-0.00810195 0.0439842 0.43164 214 180 172
-0.0621004 0.0363002 0.423882 192 156 136
-0.0382167 0.0389473 0.415619 218 187 181
-0.0383734 0.039451 0.419684 203 171 161
-0.0155548 0.0444483 0.427912 179 146 140
-0.0649672 0.0394569 0.431061 198 156 138
0.0146028 0.0413983 0.383166 83 86 60
-0.098792 0.0502199 0.50627 132 92 70
-0.0691769 0.0447673 0.436721 96 52 42
0.0168837 0.0476687 0.377585 92 92 69
-0.0329362 0.0512196 0.429424 109 78 76
-0.0958906 0.062145 0.507748 127 80 62
-0.0776128 0.0530665 0.453445 94 50 36
-0.068365 0.0543213 0.443791 86 48 42
-0.0671782 0.0541999 0.44222 89 50 44
-0.0615 0.055285 0.439488 104 65 59
-0.0583725 0.0561581 0.439682 104 66 61
-0.09009 0.0642995 0.475185 116 79 64
-0.0647497 0.0639924 0.453157 65 34 30
-0.08657 0.0666812 0.476552 102 66 54
-0.0861307 0.0666646 0.471791 111 75 62
-0.0699992 0.0645713 0.450586 116 82 75
-0.0606743 0.0644506 0.444753 76 44 36
-0.0908813 0.0732062 0.489885 114 72 54
-0.06982 0.0711664 0.457942 80 42 34
-0.0655561 0.0720125 0.452194 50 23 19
-0.0280963 0.0775146 0.44602 111 82 80
-0.089738 0.0828424 0.501922 110 58 38
-0.0680239 0.0776807 0.462157 104 62 54
-0.0870102 0.0868298 0.506421 118 67 48
-0.0598251 0.0789486 0.458204 112 70 63
-0.0682365 0.0864593 0.468013 100 60 48
-0.0747692 0.0928182 0.482391 103 52 38
-0.0619452 0.0962995 0.473257 127 74 66
-0.067052 0.109058 0.492029 104 52 39
-0.173434 -0.138651 0.448233 89 90 68
-0.169842 -0.134968 0.447022 146 140 126
-0.159747 -0.121445 0.448305 84 88 66
-0.138007 -0.105594 0.453934 90 94 69
-0.129367 -0.0883452 0.44935 107 106 82
-0.122653 -0.0839689 0.449873 90 90 68
-0.109533 -0.080128 0.457959 98 100 79
-0.132154 -0.0527472 0.501657 89 90 60
-0.124009 -0.0494216 0.491365 97 98 67
0.0519033 -0.028769 0.456356 96 78 47
0.0264766 0.00927923 0.454355 47 22 12
0.0140245 0.022946 0.434903 64 50 31
-0.0962123 0.0322194 0.450972 132 91 70
-0.0868135 0.0338938 0.438557 158 115 92
-0.0361172 0.0390537 0.418541 210 184 181
0.00947035 0.0496261 0.445549 142 115 114
-0.0109637 0.0524106 0.432437 84 54 50
-0.0924897 0.0546776 0.487025 96 56 40
-0.0174242 0.0783548 0.449726 119 79 77
-0.0290343 0.0857592 0.450161 87 70 59
-0.0770833 0.00648287 0.382803 72 64 45
-0.057954 0.0720358 0.448043 96 54 46
-0.0644549 0.0931365 0.471822 80 60 46
-0.0717251 0.0105252 0.375265 75 88 46
-0.128433 -0.0961469 0.450542 98 100 78
-0.106335 -0.17791 0.556126 190 188 135
0.0175326 -0.0657179 0.288549 175 180 139
0.0436454 -0.0370494 0.477826 185 196 150
-0.0302657 -0.0271175 0.386158 144 152 126
-0.106688 -0.176141 0.551747 201 200 150
-0.135905 -0.107226 0.456983 95 96 74
-0.127073 -0.0887405 0.450618 97 97 74
-0.146647 -0.0543237 0.503981 92 92 59
-0.0218474 -0.0405097 0.482259 101 108 76
0.0404507 0.0165731 0.468155 148 110 91
-0.0141474 0.0141408 0.458362 74 78 55
-0.0735995 0.0114556 0.376479 87 95 54
-0.149748 0.0104285 0.367802 88 94 66
-0.0924302 0.0232585 0.447499 102 66 48
0.00352375 0.0350983 0.392175 56 62 40
-0.0782753 0.0262361 0.359876 74 86 52
0.0100707 0.0413067 0.439355 188 173 173
-0.0380723 0.0437892 0.421918 190 155 148
-0.0428701 0.0439659 0.423484 128 106 87
-0.0829328 0.0549232 0.491969 88 42 29
0.0080111 0.0587392 0.454984 121 91 90
-0.0773379 0.0582386 0.496883 99 53 39
-0.00693168 0.0607236 0.444366 92 60 57
-0.00766632 0.0611766 0.444498 92 58 55
-0.0213871 0.0596328 0.432232 110 73 70
-0.0331213 0.0625068 0.438181 102 64 60
9.2737e-05 0.0742442 0.455363 112 81 78
-0.0758882 0.0736849 0.474147 118 68 52
-0.031872 0.0860446 0.449501 82 70 54
-0.0763011 0.0929766 0.487491 93 38 26
-0.00883327 0.110378 0.4806 133 92 90
-0.0377458 0.105085 0.463985 104 50 39
-0.0192997 0.123915 0.486242 118 93 79
-0.0401947 0.123864 0.48214 112 64 52
-0.183213 -0.147489 0.449133 82 86 54
-0.07362 -0.123809 0.501036 86 102 64
-0.117152 -0.0768636 0.448685 94 94 70
-0.0100161 0.0521892 0.432428 55 26 22
-0.00640369 0.0599586 0.443245 98 65 62
0.0683485 -0.0981261 0.413889 106 102 72
-0.180666 -0.14485 0.449332 116 116 80
-0.167975 -0.129439 0.451634 106 107 81
-0.0560384 0.0865545 0.540362 87 46 34
0.0563749 -0.0865101 0.417685 122 124 86
-0.040759 0.0213513 0.489408 38 33 20
-0.00783019 -0.0414264 0.462362 72 76 50
0.0276401 0.0230809 0.446334 142 114 96
-0.0970627 -0.163674 0.534222 78 82 47
-0.158215 -0.120755 0.448001 58 62 35
-0.0785964 -0.132696 0.507785 74 86 46
-0.139507 -0.0547514 0.507474 60 63 31
0.039281 -0.033822 0.480037 162 174 130
0.0208703 -0.0319642 0.516912 162 176 129
-0.0312075 -0.0261748 0.430855 64 70 53
0.0184382 -0.0194876 0.480706 160 170 124
0.0345257 -0.00721419 0.440451 162 176 130
0.00244476 -0.00996082 0.514918 30 12 6
-0.0734259 -0.00980456 0.398769 62 58 30
-0.00140915 -0.0058994 0.512083 26 10 4
-0.0344806 -0.00400445 0.469281 156 156 154
-0.0245085 -0.0044544 0.486901 60 66 51
-0.0348508 -0.00374029 0.469224 154 153 149
-0.0254986 0.000944851 0.483828 72 75 58
-0.0342319 0.00504404 0.472947 122 121 116
-0.0210307 0.0127945 0.449754 44 48 26
-0.141492 0.00471324 0.37381 55 62 34
-0.143346 0.00580716 0.375497 52 60 34
-0.0700084 0.0209279 0.366425 82 92 63
-0.00448872 0.0355456 0.420126 130 106 98
-0.0223687 0.0346722 0.414058 162 123 107
-0.0727072 0.0268822 0.358846 79 91 66
-0.0394242 0.0352695 0.417952 72 47 36
-0.043608 0.0353889 0.416587 110 72 54
-0.0265309 0.0374335 0.415046 156 121 110
-0.0393509 0.0397771 0.420761 153 119 112
-0.043959 0.0406354 0.421784 130 89 72
-0.0452519 0.0399653 0.416313 137 94 76
-0.0326555 0.0506287 0.431157 33 11 7
-0.0427869 0.0508731 0.428826 53 17 10
-0.0408606 0.0533263 0.42999 70 33 28
-0.0164575 0.0610917 0.438273 74 40 39
-0.0424204 0.0595555 0.434563 64 26 19
-0.0512053 0.0605176 0.439437 77 46 34
-0.0223301 0.0622108 0.431738 82 46 42
-0.0404375 0.061664 0.435277 70 32 24
-0.0465346 0.0672737 0.432502 70 28 18
-0.0398653 0.0709099 0.441529 66 28 20
0.00805773 0.079761 0.465734 72 40 36
-0.0412121 0.076979 0.445787 85 42 30
-0.0246272 0.0850058 0.451022 94 56 53
0.0029948 0.0976522 0.480442 70 35 30
-0.0407083 0.0884088 0.454491 55 20 14
-0.00437816 0.0968533 0.472504 78 49 48
-0.0397079 0.102633 0.464983 69 22 18
-0.0682834 0.10469 0.474637 55 61 35
-0.0418739 0.123441 0.48367 92 36 24
0.0342603 -0.070883 0.418888 70 77 52
-0.0903123 -0.0673437 0.465712 71 74 46
-0.0397487 -0.0148989 0.458249 116 118 102
0.0153269 -0.00446778 0.470904 36 36 17
0.00420582 0.0253924 0.402763 40 38 18
-0.0109694 0.0331472 0.419401 89 69 57
-0.0114426 0.0822261 0.455875 104 72 66
-0.164536 -0.130382 0.450766 76 76 50
0.0815501 -0.102571 0.404436 84 84 56
0.0599792 -0.0873201 0.416325 71 76 52
0.0149641 -0.0511956 0.255561 166 170 122
0.0253627 -0.0790942 0.470593 77 80 46
-0.122033 -0.0277821 0.471848 117 92 66
-0.0276529 0.0775817 0.446531 74 38 30
0.0583965 -0.0874278 0.416777 68 75 48
-0.0256475 0.00922097 0.483892 50 49 38
-0.0391434 0.0785638 0.447526 72 30 22
-0.0509195 0.0822542 0.549437 55 40 25
-0.0459997 -0.076012 0.398079 98 98 66
-0.0538974 -0.0474865 0.424526 80 80 41
-0.0830823 0.0652 0.493382 68 24 10
-0.067247 -0.0645136 0.404679 98 101 52
-0.0396767 0.117558 0.480181 76 26 20
-0.0478454 -0.0261743 0.426116 91 94 60
0.011467 -0.00133929 0.476433 32 34 17
-0.00223148 0.0693519 0.453687 85 54 50
0.102773 -0.145653 0.380451 165 168 112
-0.177564 -0.142101 0.450619 58 62 38
-0.180995 -0.136262 0.446809 164 164 108
0.00486897 -0.063239 0.27681 172 175 123
0.00230245 -0.06376 0.287397 171 174 126
0.00564472 -0.0610369 0.280565 170 175 122
-0.132114 -0.0911396 0.452218 76 76 50
0.0471359 -0.0335095 0.459822 38 42 14
-0.106356 -0.0272608 0.51083 84 53 30
-0.0667745 -0.0723767 0.444108 108 107 57
-0.0282147 -0.0269706 0.439016 76 82 67
-0.176427 -0.140727 0.447857 47 52 24
-0.164123 -0.130235 0.451529 60 62 44
-0.0686235 -0.115469 0.496319 60 75 34
-0.0568521 -0.0914593 0.483232 72 86 41
-0.0686747 -0.0626011 0.42123 104 103 54
-0.0657349 -0.0574156 0.423839 105 104 57
-0.0624765 -0.0527823 0.43117 110 107 60
-0.059255 -0.0475923 0.433567 113 108 64
0.0268016 -0.0242151 0.48803 150 164 121
0.0163192 -0.0259724 0.524561 90 66 35
0.0241375 -0.0221893 0.487256 149 164 120
-0.0816169 -0.0262119 0.492741 152 152 111
-0.0784027 -0.0237643 0.479156 108 90 56
0.0196328 -0.0194783 0.487309 126 116 72
-0.0239491 -0.0179262 0.448918 53 59 46
-0.046748 -0.00641594 0.464458 93 90 68
-0.0455325 0.000868346 0.454689 56 62 45
0.00412348 0.00389854 0.476778 30 29 14
0.0166433 0.0163834 0.447857 16 6 4
0.00652535 0.0203305 0.429025 16 8 4
-0.0280257 0.0206868 0.449922 12 12 6
-0.0621323 0.0156157 0.383966 34 39 22
0.0215743 0.0286419 0.438917 99 78 62
-0.106965 0.0299196 0.482541 138 95 64
-0.0577285 0.0309986 0.416566 64 22 14
-0.0545536 0.0314533 0.417691 74 30 21
-0.00761265 0.0374306 0.424311 136 105 96
-0.0732382 0.028737 0.359041 58 70 49
-0.00862089 0.0423871 0.422571 152 126 118
-0.0413038 0.0447335 0.425198 140 102 92
-0.059495 0.0444023 0.428068 95 39 21
-0.10006 0.0559251 0.506824 81 46 26
-0.0582093 0.0557222 0.436129 70 26 18
-0.0037862 0.070104 0.454848 64 34 30
-0.0148958 0.0729371 0.44579 54 22 18
-0.056823 0.0733664 0.452766 82 38 28
-0.0372642 0.106942 0.467264 90 39 28
-0.0386826 0.117053 0.475925 64 21 14
-0.0392208 0.124815 0.484769 99 44 30
-0.0378796 -0.00311144 0.465414 122 122 117
-0.0446784 0.0183578 0.416014 25 16 8
0.103059 -0.14595 0.380119 154 158 101
0.0722776 -0.0992946 0.411566 48 52 26
-0.0580395 0.0715593 0.445188 84 38 27
-0.0481733 -0.0563493 0.408199 97 94 62
-0.105346 0.0287668 0.477651 116 73 43
-0.173344 -0.128342 0.446562 154 153 100
-0.0325771 -0.0809696 0.421958 82 81 44
-0.0353956 -0.0401783 0.386062 72 74 48
-0.0375523 -0.0325897 0.425887 47 54 34
-0.0602677 0.0634062 0.437735 81 36 26
-0.0157404 0.0972839 0.462768 74 30 26
-0.0650777 -0.109757 0.491478 61 79 34
0.00767644 -0.0565532 0.259386 158 166 110
0.0169857 -0.0534551 0.260259 156 164 111
0.0257702 -0.0693623 0.429463 56 61 28
0.00460447 -0.0499139 0.435934 36 42 20
-0.00955413 -0.0440804 0.432192 105 109 86
0.0260532 -0.00940664 0.471436 36 32 14
-0.0943396 -0.09623 0.392796 114 121 68
-0.0453241 -0.051296 0.451849 74 80 29
0.028642 -0.00148532 0.444821 86 57 27
-0.0526288 0.0156689 0.424127 39 40 26
0.0343175 0.0380653 0.476124 28 36 16
-0.0764797 0.0376957 0.360326 70 80 56
0.0156067 0.0673172 0.470006 78 46 39
0.0109578 0.0677689 0.463015 79 48 43
0.00563343 0.0812888 0.476879 75 40 35
0.0151559 -0.0543702 0.428134 46 54 37
-0.0774364 -0.047756 0.463396 46 50 18
-0.0508569 -0.0251795 0.415583 88 87 52
-0.0545604 -0.0194746 0.40553 77 77 46
-0.0514413 -0.0038469 0.458831 72 70 49
-0.0501989 0.0004297 0.449206 44 50 34
0.0172103 0.0277904 0.432958 44 18 6
0.0160965 0.0336513 0.428829 142 117 108
-0.0473875 0.0406272 0.421686 100 56 41
-0.0700757 0.0637507 0.450796 20 4 1
-0.0425135 0.0699423 0.443312 64 30 22
-0.0327154 0.0773544 0.444761 70 36 28
-0.0477382 0.0775388 0.449431 86 38 24
-0.0656068 0.08215 0.463671 73 30 22
-0.0158964 0.097382 0.463003 80 36 32
0.00432727 -0.0511592 0.44343 47 48 26
0.00990287 -0.0493173 0.431961 37 45 29
-0.115817 -0.029458 0.477072 114 94 54
-0.060074 -0.00500403 0.38798 65 70 52
-0.0577964 0.010024 0.413739 44 48 32
-0.059419 0.0640806 0.442049 76 28 19
-0.0255467 0.0738971 0.44217 78 38 31
-0.0298254 0.106533 0.467523 96 40 32
-0.00902962 0.109201 0.47737 73 32 28
0.00553164 -0.0202572 0.51998 28 8 1
-0.0518586 -0.0121421 0.461162 101 95 74
0.0124021 -0.0021612 0.474057 35 34 16
-0.0647061 -0.0325817 0.434628 88 92 54
0.00892966 -0.0623601 0.277209 159 162 116
0.0102595 -0.0605943 0.272987 100 108 66
0.00612 -0.058823 0.294502 58 69 30
-0.110297 -0.0443971 0.486323 100 104 65
-0.0267417 -0.0144886 0.461059 41 52 42
0.0196155 -0.00759582 0.469199 32 30 14
-0.0489192 0.0132895 0.427596 38 40 30
-0.0890731 -0.0892381 0.394623 70 82 32
0.0411441 -0.0762781 0.417468 70 78 56
0.0280408 -0.0758259 0.43577 70 75 34
0.0188338 -0.0618324 0.427836 42 50 22
-0.0687379 -0.0487005 0.463457 51 60 22
-0.0676467 -0.0476389 0.460694 50 59 22
-0.0600646 -0.0414115 0.459159 48 54 14
0.0479112 -0.02204 0.450924 149 154 114
0.0250743 -0.0154632 0.469404 32 32 12
-0.0551726 -0.0136034 0.424168 73 56 39
0.0273607 -0.0084547 0.457349 57 40 16
-0.109697 0.00368342 0.460256 71 53 24
-0.0140188 -0.0709254 0.444623 50 54 32
-0.0272478 -0.053638 0.488306 140 140 102
-0.0325641 -0.0424313 0.463281 92 90 62
0.005946 -0.0210578 0.523884 40 15 6
0.0138806 0.0413875 0.381746 32 36 14
0.0111649 0.095879 0.495261 66 34 33
0.00645569 0.118448 0.518176 72 32 29
0.0660324 -0.0968445 0.414494 67 70 42
0.0625881 -0.0954505 0.415151 74 75 46
0.00387088 -0.0267129 0.532456 94 65 39
-0.115312 -0.0100995 0.452583 68 68 36
-0.11967 -0.00963788 0.438037 84 66 38
-0.0194496 -0.00920857 0.535645 20 9 7
-0.0346304 -0.00410592 0.472214 104 106 104
-0.0577772 -0.00403816 0.449457 63 68 44
-0.0479766 -0.00345093 0.4612 73 70 50
-0.062907 -0.00211163 0.436264 42 48 37
-0.0567513 -0.000717181 0.442518 36 44 30
-0.0512985 0.0139618 0.41801 39 42 32
-0.0335411 0.0195389 0.460093 22 20 10
-0.000657714 0.0189178 0.422066 32 28 16
-0.0752974 0.0384928 0.432965 161 109 78
0.00672327 0.0424394 0.383142 33 38 16
-0.0734874 0.0530437 0.442571 54 18 11
-0.0458011 0.0769581 0.446427 75 32 22
-0.0272642 0.0779163 0.44717 76 33 26
-0.0276418 0.0888514 0.453973 64 25 20
-0.0405187 0.0912427 0.457052 72 25 16
0.0192339 -0.00735815 0.471649 33 31 13
-0.0337248 0.00235271 0.47599 100 100 94
0.0165657 0.0397128 0.447481 97 68 58
-0.0381833 0.0590209 0.433211 53 20 15
-0.0234152 0.0890008 0.454147 65 24 19
-0.0300611 0.0667613 0.424362 78 40 32
0.00805141 0.0917953 0.475052 47 20 18
-0.093979 -0.159402 0.531068 76 86 52
-0.0900651 -0.153363 0.525569 74 86 46
-0.155005 -0.113502 0.427903 112 106 70
-0.0751674 -0.129374 0.503443 62 74 40
-0.0919464 -0.0909411 0.379423 64 74 28
-0.00537169 -0.0677632 0.305767 88 82 69
-0.0820918 -0.103429 0.492578 58 70 28
-0.0773483 -0.0758279 0.404364 101 106 53
0.0478066 -0.0804278 0.409598 40 48 30
-0.0739879 -0.0712779 0.411823 122 127 74
0.0339845 -0.0699243 0.417248 33 42 26
-0.120132 -0.0493109 0.494815 100 102 55
-0.113208 -0.0465087 0.498865 118 118 68
-0.103759 -0.0413858 0.496279 144 142 94
-0.0257809 -0.0313755 0.408286 52 65 49
-0.100778 -0.0279152 0.482773 29 30 14
-0.0363874 -0.023601 0.432625 62 70 60
-0.0303868 -0.0208858 0.454773 36 46 30
-0.0569479 -0.0129013 0.39652 27 32 15
-0.118474 -0.0102716 0.442094 92 68 41
-0.102901 -0.0103993 0.441853 118 116 64
-0.110268 -0.00683009 0.394415 66 66 34
-0.109456 -0.00738356 0.396766 74 74 36
-0.0924881 -0.00971147 0.428462 124 124 70
-0.0487126 -0.0102718 0.458311 103 97 78
-0.0941591 -0.00531792 0.43496 57 65 28
-0.0577141 0.00278003 0.441725 28 31 20
-0.065104 0.0112046 0.36909 23 12 8
-0.0471113 0.0127827 0.415222 32 36 26
0.0292197 0.00963082 0.445649 110 64 40
-0.05621 0.0147775 0.41633 34 42 29
-0.06017 0.0159853 0.405635 35 40 26
-0.068775 0.0251179 0.435984 14 9 8
0.0163911 0.0217148 0.437021 56 28 20
-0.0594891 0.0266701 0.427939 16 6 3
0.0105105 0.024871 0.433852 32 14 8
0.0294434 0.0271494 0.44916 126 86 70
-0.0765603 0.0354314 0.430024 156 104 73
0.0259995 0.029762 0.453924 150 120 106
0.0107282 0.0306017 0.425337 60 34 20
0.0181755 0.030919 0.429605 159 138 135
-0.0369116 0.0393029 0.420778 136 94 78
0.0122979 0.0398955 0.442639 68 32 28
0.0320275 0.045963 0.505102 64 40 30
0.014009 0.0420718 0.444271 73 35 30
0.0244171 0.0630235 0.494326 66 38 30
0.019379 0.0655846 0.473957 72 42 30
-0.0749433 0.0769349 0.47005 38 16 12
-0.0375922 0.0700271 0.445811 74 38 30
-0.0897696 0.0569098 0.329083 114 110 90
0.0217211 0.0777092 0.496559 62 40 26
-0.00452344 0.0751174 0.450922 78 43 36
-0.0223039 0.0780946 0.449048 86 41 30
-0.0467889 0.0923583 0.461943 70 26 16
-0.0444255 0.0913093 0.455944 76 30 18
0.00995758 0.0852714 0.441526 106 80 62
-0.0177152 0.093825 0.461324 60 28 24
-0.0357565 0.101955 0.463737 94 38 26
-0.0551279 0.109266 0.482676 82 24 14
-0.0495825 0.106533 0.4726 75 22 14
-0.079327 -0.0782228 0.400674 93 97 48
-0.093956 -0.0743454 0.442635 94 99 54
-0.0886358 -0.0689913 0.446634 96 99 56
-0.0188625 -0.0439615 0.376214 54 62 49
-0.0223525 -0.0399321 0.384166 60 65 53
-0.0305844 -0.0142123 0.4542 48 56 48
0.0345499 -0.00686383 0.440946 63 45 30
-0.0650243 0.00193345 0.440684 27 28 20
-0.0491279 0.016558 0.483099 18 18 10
0.0252892 0.0369528 0.463333 57 29 22
0.0149977 0.0478913 0.449846 60 38 33
-0.00673152 0.122208 0.489898 86 44 41
-0.00942744 0.12183 0.484945 82 38 36
-0.0306052 0.126407 0.479205 84 34 26
0.0650178 -0.0956232 0.411985 74 76 54
0.0587104 -0.0933355 0.415044 74 74 50
-0.155471 -0.109654 0.447187 86 85 52
-0.0839856 -0.0828049 0.395528 72 80 30
-0.0110173 -0.0576254 0.326212 76 80 74
-0.012218 -0.0550492 0.340585 64 71 61
-0.0150474 -0.0526272 0.347775 62 69 60
-0.0179371 -0.047536 0.363383 58 66 54
-0.0255693 -0.0402325 0.379086 68 73 60
-0.0320917 -0.0284312 0.418685 52 62 50
-0.0462567 -0.00578173 0.464381 116 110 94
-0.0694008 0.0157577 0.384477 28 31 14
-0.0607203 0.0252442 0.417051 14 5 2
0.0135837 0.0607776 0.371029 50 40 20
0.0165643 0.0647169 0.368502 76 62 28
-0.0504367 0.112052 0.477659 103 44 28
-0.0798008 -0.0796964 0.384679 74 81 31
0.044993 -0.0854549 0.42009 48 56 28
0.0404056 -0.0753536 0.415318 45 51 32
0.0274382 -0.0649822 0.421897 41 50 32
-0.0168387 -0.0499431 0.356279 70 78 70
-0.0164804 -0.0472972 0.372388 66 75 62
-0.0350271 -0.0395847 0.383723 60 62 42
-0.0371279 -0.0353375 0.392985 54 58 38
-0.0812653 -0.0320624 0.435339 130 129 82
-0.0283764 -0.0300516 0.462264 62 66 41
-0.0360141 -0.0259558 0.420122 60 66 56
0.0308166 -0.027704 0.480861 102 116 78
0.0471239 -0.0209711 0.448722 138 102 80
-0.0760365 -0.00990606 0.405435 72 78 38
-0.0599737 -0.00401543 0.400495 70 70 54
-0.0303075 0.00610419 0.477661 64 67 53
-0.06222 0.0192033 0.389216 10 6 4
-0.0812398 0.0231898 0.363668 56 65 31
0.00412965 0.023413 0.427301 34 18 13
-0.0806651 0.0571202 0.45386 74 33 22
-0.042082 0.10638 0.470967 94 40 24
-0.00806693 -0.0637236 0.303676 54 52 34
0.0499554 -0.0847654 0.400115 53 58 32
0.0359531 0.0145519 0.461899 160 113 98
-0.0701924 0.0207811 0.366367 25 34 15
-0.0726916 0.0354608 0.428098 158 106 74
0.00136765 0.0953526 0.478374 68 32 30
0.0528215 -0.0884002 0.405974 56 63 31
0.0379097 -0.0823566 0.432569 64 68 30
0.0296687 -0.00734754 0.500187 18 8 3
0.00986493 0.0247569 0.422738 40 22 10
0.00576971 0.0260806 0.414762 25 24 7
0.00754751 0.0911555 0.46861 52 24 22
0.0950509 -0.112192 0.391223 40 50 22
0.0909632 -0.106446 0.39622 56 63 36
-0.00813705 -0.0579042 0.331195 68 74 65
0.0277954 -0.0647853 0.419891 35 40 25
-0.0184338 -0.0406867 0.479969 38 44 29
-0.0494548 -0.0291392 0.431223 48 52 26
-0.0366416 -0.028774 0.454444 70 80 63
-0.00669882 -0.0244134 0.512353 93 62 36
-0.0035057 -0.024945 0.543612 57 30 14
-0.0722293 -0.0115173 0.399641 76 83 40
-0.109273 -0.00808766 0.404538 83 79 36
-0.0686507 -0.00574297 0.440688 66 65 43
-0.069414 -0.00337964 0.427803 38 36 25
-0.0273482 -0.00146567 0.495354 28 28 18
0.034559 -0.00234393 0.443746 132 90 70
-0.152557 0.0140842 0.361557 45 52 33
0.0386744 0.0085399 0.493135 134 108 82
0.0302405 0.00845358 0.443329 132 82 60
0.00919828 0.0155954 0.462751 23 12 6
-0.0376513 0.0200518 0.437276 28 18 12
0.0350737 0.0150556 0.463357 149 122 112
0.0352686 0.0263199 0.501951 59 34 22
-0.0515883 0.0317542 0.420345 83 44 29
-0.0481998 0.031672 0.417483 82 44 30
0.0294131 0.0296609 0.458269 134 99 88
0.0330903 0.0359345 0.500199 82 57 44
0.0334151 0.0432747 0.515298 74 49 38
0.0264409 0.0433931 0.480897 63 40 34
0.0248071 0.051714 0.47887 60 36 30
0.0285392 0.0575305 0.513484 70 43 32
0.0137027 0.0563761 0.465873 66 39 36
0.00969169 0.0600676 0.456619 62 32 32
0.0207189 0.0735854 0.489554 83 52 42
-0.0356063 0.0752118 0.446491 74 36 28
0.0193857 0.0919266 0.503598 62 26 18
0.00201058 0.0941544 0.474868 54 25 22
-0.0392559 0.10516 0.4658 80 26 14
-0.034046 0.106504 0.468982 96 38 26
-0.098992 -0.149573 0.525211 56 67 32
0.0405998 -0.0747171 0.412299 36 46 28
-0.0165702 -0.0496661 0.355488 62 68 58
-0.0181381 -0.0474227 0.364497 56 64 51
-0.0162532 -0.0471573 0.371802 68 76 60
-0.021317 -0.0372196 0.396707 56 66 50
-0.119685 -0.0351718 0.48474 50 40 22
0.00839203 -0.0228175 0.533387 74 56 40
-0.119896 -0.00979843 0.455836 111 107 62
0.00900132 0.0254954 0.419115 34 16 12
0.00921138 0.0310426 0.421141 116 87 76
0.0104424 0.0493504 0.448006 46 17 14
0.012102 0.0502679 0.449396 44 19 17
0.0298875 -0.0283053 0.489015 85 96 58
0.0372878 -0.0225882 0.515582 52 55 24
-0.101795 -0.156637 0.531277 54 66 30
-0.0960267 -0.1419 0.518183 76 82 48
-0.0801359 -0.133213 0.517305 138 140 92
0.0765845 -0.100656 0.40922 83 82 64
-0.00144988 -0.0614667 0.305571 54 58 40
-0.0109442 -0.05758 0.326389 61 61 50
-0.00984823 -0.0569883 0.330611 68 72 58
-0.0094122 -0.0559168 0.346504 65 74 60
-0.0110324 -0.0548044 0.343617 64 68 56
-0.0262952 -0.0535769 0.351421 69 62 45
-0.0738042 -0.0602748 0.426226 101 100 46
-0.0154364 -0.0464683 0.384731 66 75 59
0.00325478 -0.0431292 0.43606 40 48 35
0.0266304 -0.0291354 0.5047 72 64 32
0.0127654 -0.0283123 0.541425 122 116 77
0.048872 -0.0230299 0.457735 154 118 102
-0.108042 -0.00866236 0.408362 97 92 48
-0.10914 -0.00926778 0.419825 109 80 52
-0.0251524 -0.00950328 0.497374 20 14 8
0.0442481 -0.0136028 0.449358 146 111 96
-0.127717 0.00372466 0.370046 35 42 27
-0.105771 0.00284662 0.483844 50 45 34
-0.0947435 0.00541463 0.471876 14 8 4
-0.0433234 0.00684508 0.437998 30 33 20
-0.0557469 0.0100889 0.397555 34 34 26
0.0313234 0.00784216 0.471126 102 75 64
-0.0383461 0.0206082 0.416369 74 54 41
0.033615 0.0165776 0.455961 144 121 115
0.0156833 0.0181823 0.43673 18 5 2
-0.0767421 0.0306995 0.427362 52 28 16
0.0301863 0.0229456 0.465707 136 104 98
0.0216481 0.0227893 0.437723 134 96 68
0.0252884 0.0243403 0.442591 130 90 74
-0.0402305 0.0302968 0.421201 44 22 16
0.00715795 0.0261357 0.433273 30 14 9
0.257424 0.0256786 0.744386 134 146 102
-0.0772137 0.0387775 0.352183 137 130 114
0.0288141 0.0403513 0.48284 93 75 68
-0.078654 0.0417297 0.33785 124 120 100
0.00798849 0.0588656 0.455015 24 4 2
0.023818 0.0634777 0.48921 39 16 12
0.0164447 0.0653944 0.469345 68 35 28
0.0153065 0.0658548 0.465318 64 31 24
0.0243014 0.0742766 0.523454 52 24 14
0.00812419 0.0687958 0.461494 52 24 20
-0.0239433 0.0775239 0.445662 82 36 24
0.00600531 0.0828551 0.46934 52 24 19
0.0234348 0.0716246 0.366851 90 52 33
0.0121507 0.110873 0.518324 68 30 22
-0.00164274 0.121427 0.496041 90 55 50
-0.147157 -0.113887 0.448598 56 64 37
0.0570434 -0.0920138 0.414199 44 54 30
-0.00189374 -0.0624831 0.311579 69 77 61
-0.0661046 -0.0571704 0.442745 124 122 80
-0.0188869 -0.0457405 0.415896 155 160 106
-0.0335055 -0.0399003 0.501343 58 62 36
0.0555905 -0.0319629 0.476493 127 105 84
-0.024688 -0.0291983 0.552474 77 48 30
-0.0235539 -0.0250922 0.541477 42 16 10
-0.0226539 -0.0199873 0.46809 18 27 16
0.0382365 -0.0148763 0.511402 146 122 104
0.0388992 -0.0110815 0.449841 154 112 96
-0.0780349 0.00259312 0.441116 20 14 8
-0.0783063 0.00938986 0.426932 22 18 10
0.03752 0.00253293 0.432636 154 114 105
-0.0533033 0.0107757 0.380452 34 34 24
0.0340346 0.0188235 0.486361 118 90 73
0.0204398 0.0901607 0.527026 83 51 43
-0.0262926 0.0920809 0.456454 62 18 11
0.0541719 -0.0890814 0.411 37 52 28
-0.00800443 -0.064641 0.347845 152 154 106
-0.00922722 -0.0620191 0.355784 134 141 92
-0.0116845 -0.0600364 0.368258 132 136 96
-0.0201514 -0.042458 0.378219 49 58 42
-0.116104 -0.0259484 0.515259 84 90 52
-0.104834 -0.0219673 0.485044 80 85 47
0.0362495 -0.0167704 0.470827 108 103 68
-0.0891021 0.0017293 0.417099 63 72 30
-0.0652078 0.00238501 0.417006 26 25 16
0.0103553 -0.000952902 0.475258 28 26 13
0.0402403 -0.000959717 0.48364 92 60 42
0.0329192 5.81792e-05 0.47727 152 114 106
-0.10999 0.0258365 0.439548 54 56 36
0.0346867 0.0156932 0.458696 144 122 112
-0.0601247 0.0253095 0.426405 28 14 7
0.022742 0.0206445 0.443697 134 91 71
0.0178194 0.0308533 0.44113 128 105 94
0.0233774 0.0394177 0.449529 64 36 30
0.0246781 0.0523483 0.484231 54 30 25
0.0185693 0.0636366 0.461734 74 42 35
0.011705 0.0667104 0.464529 58 31 25
-0.176491 -0.13143 0.445893 71 68 46
0.0638815 -0.0879439 0.406412 146 156 110
-0.00552484 -0.0608254 0.322593 78 84 72
-0.0354554 -0.0264728 0.421885 50 54 42
-0.126135 -0.0187719 0.481024 138 135 77
0.046524 -0.0209456 0.452146 148 108 88
-0.111079 0.00784191 0.480234 66 48 27
0.0392453 -0.00155053 0.489101 128 102 69
0.0307123 0.000183767 0.491941 86 64 58
-0.070644 0.0202162 0.363584 30 35 17
0.0340227 0.0155451 0.466617 149 128 114
0.0300767 0.0159278 0.449129 145 100 85
-0.0700373 0.0273333 0.349645 24 34 16
0.0190593 0.0254158 0.43871 144 117 102
0.0290023 0.0338792 0.466945 90 61 53
0.025325 0.0513926 0.478063 46 24 16
0.0140861 0.0434946 0.380889 74 36 29
0.0193871 0.0631592 0.465736 66 36 30
0.00897647 0.0937933 0.485086 88 48 39
0.0615004 -0.087356 0.409541 146 157 112
0.0377064 -0.0770856 0.41501 40 50 31
-0.133288 -0.0537636 0.506427 100 99 62
-0.0289531 -0.0313351 0.469965 54 55 34
0.0173138 -0.0194164 0.527851 45 42 19
0.00935959 0.0317015 0.415547 144 119 112
0.0270674 0.0574892 0.514386 80 55 44
0.00549203 0.0933609 0.481327 81 44 28
-0.0345358 -0.017316 0.456331 60 66 53
0.00598803 0.0507892 0.380696 52 36 25
-0.126289 -0.10014 0.451435 78 83 46
-0.00915076 -0.0585149 0.327155 61 66 59
-0.0796518 -0.0783213 0.402492 104 106 52
-0.112235 -0.00516323 0.386095 38 40 22
-0.112145 -0.00606976 0.392485 55 52 31
-0.110943 -0.00641347 0.394075 67 65 34
-0.11489 -0.00450158 0.384512 37 40 25
-0.127375 -0.00358446 0.390571 36 38 20
-0.117349 -0.0041012 0.38449 37 40 23
-0.125629 -0.00204115 0.380402 32 38 20
-0.129388 -0.000864725 0.37982 29 34 20
-0.132182 0.00132654 0.372987 28 34 20
-0.117928 0.00305258 0.38155 148 142 81
-0.0784959 0.0118552 0.422507 30 27 16
-0.0593186 0.0146177 0.420004 17 14 8
-0.0915956 0.0336411 0.448921 134 86 52
-0.0433507 0.0301902 0.420343 52 23 11
-0.0808208 0.0346326 0.343712 54 66 38
-0.0834918 0.0396167 0.339788 56 68 42
-0.092304 0.0619525 0.323712 164 152 137
-0.0343879 0.116374 0.475196 98 40 28
-0.13861 -0.0915475 0.447551 110 108 66
-0.074961 -0.0727355 0.409004 120 120 66
-0.0281458 -0.0323846 0.400831 49 60 46
-0.124 -0.0122084 0.452427 56 54 30
-0.118763 -0.012508 0.45531 62 63 31
-0.120036 -0.0040479 0.386838 46 49 28
-0.0675171 0.0385563 0.422652 138 86 59
-0.11728 -0.010847 0.466524 76 76 40
-0.0159125 -0.050967 0.351852 80 86 80
-0.0263717 -0.0378383 0.387777 56 66 52
-0.0396041 -0.0247493 0.430038 38 48 34
-0.118376 -0.0026376 0.377366 38 41 22
-0.126005 -0.000813668 0.375459 40 44 24
-0.0764598 -0.00601041 0.392259 72 76 36
-0.137002 0.00394284 0.370633 38 40 24
-0.139031 0.00468676 0.371451 33 36 18
-0.0383297 0.0256919 0.407337 42 26 24
-0.0313588 0.0283183 0.392558 34 20 14
-0.0731227 0.0544729 0.448044 78 38 26
-0.0174039 0.0593891 0.433387 43 18 15
-0.0176669 -0.0268874 0.476084 78 83 60
-0.0571953 -0.013021 0.398008 60 62 30
-0.0560993 -0.012649 0.40775 69 48 26
-0.0167662 -0.0255049 0.539895 53 32 24
-0.110744 -0.00131697 0.457385 146 142 85
-0.0623957 0.00226484 0.380444 50 62 45
-0.0629457 0.00406194 0.390767 28 32 24
-0.147136 0.014539 0.355242 40 48 24
-0.0510466 0.0264488 0.429614 78 52 44
-0.0354403 0.0345319 0.426377 144 106 92
0.00399466 0.0352392 0.389314 31 36 13
0.00260677 0.062548 0.450712 72 40 35
-0.00632782 0.0364293 0.410045 132 105 97
