ply
format ascii 1.0
element vertex 155
property float x
property float y
property float z
property uchar red
property uchar green
property uchar blue
end_header
0.850933 0.271959 -0.101108 0 255 0
0.850933 0.271959 -0.101108 0 255 0
0.850933 0.271959 -0.101108 0 255 0
0.850933 0.271959 -0.101108 0 255 0
0.850933 0.271959 -0.101108 0 255 0
-38.0951 -8.5639 -94.023 0 255 0
0.222884 0.793305 -0.185434 0 255 0
0.285141 0.796517 -0.24048 0 255 0
0.859763 0.270342 -0.110081 0 255 0
0.85093 0.271958 -0.101096 0 255 0
1.0296 3.95775 3.19297 0 255 0
14.3795 -15.4414 5.67148 0 255 0
16.4477 -16.8649 1.11924 0 255 0
0.850872 0.262612 -0.114226 0 255 0
0.850845 0.270938 -0.0986975 0 255 0
0.850933 0.271959 -0.101108 147 166 212
0.850933 0.271959 -0.101108 161 182 223
0.850933 0.271959 -0.101108 93 72 59
0.850933 0.271959 -0.101108 88 62 38
0.850933 0.271959 -0.101108 132 150 190
0.850933 0.271959 -0.101108 122 106 91
0.850933 0.271959 -0.101108 81 79 62
0.850933 0.271959 -0.101108 132 88 72
0.850933 0.271959 -0.101108 209 193 164
0.850933 0.271959 -0.101108 142 97 89
0.850933 0.271959 -0.101108 130 120 108
0.850933 0.271959 -0.101108 166 140 118
0.850933 0.271959 -0.101108 66 52 82
0.850933 0.271959 -0.101108 110 74 98
0.850933 0.271959 -0.101108 54 52 56
0.850933 0.271959 -0.101108 182 182 188
0.850933 0.271959 -0.101108 165 148 140
0.850933 0.271959 -0.101108 216 170 158
0.850933 0.271959 -0.101108 44 36 50
0.850933 0.271959 -0.101108 188 162 162
0.850933 0.271959 -0.101108 170 156 160
0.850933 0.271959 -0.101108 80 67 73
0.850933 0.271959 -0.101108 152 121 92
0.850933 0.271959 -0.101108 164 150 110
0.850933 0.271959 -0.101108 144 128 104
0.850933 0.271959 -0.101108 127 132 172
2.14178 -1.24995 12.6843 86 79 104
0.850928 0.271963 -0.101059 90 113 127
4.14368 -1.53968 38.0942 103 91 93
0.855308 0.271923 -0.046467 88 62 40
0.850928 0.271959 -0.101083 113 96 94
0.850928 0.27196 -0.101079 158 135 134
-6.10016 -0.120675 51.1907 152 121 128
-22.8506 -5.93606 108.602 62 100 174
0.850098 0.267771 -0.0933433 126 118 110
0.850198 0.268273 -0.0940196 201 194 186
0.850206 0.268299 -0.0940663 201 194 186
1.60194 -0.357095 4.69159 50 36 26
0.855045 0.270801 -0.0613272 205 205 206
0.855447 0.271011 -0.0587955 206 204 202
0.860174 0.27237 0.0136778 106 82 62
-23.6984 -104.932 176.114 129 122 113
2.16762 -1.04194 6.29619 88 61 68
2.77002 -1.35412 8.10708 146 119 160
2.87161 -1.0139 5.61939 64 44 19
2.23434 -0.512197 5.78064 181 166 168
2.19196 -0.320659 4.60003 106 94 83
0.8695 -0.321668 1.33419 137 132 124
2.1648 -1.13789 5.77576 180 155 120
2.43537 -1.32901 7.27804 84 58 45
2.0103 -0.889298 5.75793 98 70 74
13.4199 -11.2572 210.953 108 92 92
5.45908 -2.45251 59.2497 146 130 124
2.46068 -1.0827 7.07344 158 126 166
2.72932 -0.921244 5.3227 56 38 18
2.42819 -0.697707 4.72493 115 98 86
2.46043 -0.633539 6.29971 136 129 114
2.36592 -0.394481 5.1602 160 152 141
2.02947 -0.223098 4.67037 12 10 12
2.11233 -0.261126 5.01637 187 191 194
7.60383 -3.85673 84.4413 147 130 122
1.96357 -0.00521978 18.1894 108 72 72
1.3145 0.522957 10.2438 82 60 58
1.9912 -0.967519 5.2458 182 156 120
3.01341 -1.18222 6.19948 128 112 88
2.2358 -0.551623 4.32439 66 40 45
3.08319 -1.12772 6.8088 30 34 82
2.32234 -0.385078 4.85788 148 130 121
2.56702 -0.523149 5.60272 139 128 118
2.20367 -0.289715 5.12541 150 154 168
0.396073 -0.224947 24.622 180 92 108
1.36057 0.40551 8.67052 94 114 125
1.57286 0.623743 10.5536 200 206 180
2.9765 -1.11429 6.50386 102 116 160
2.41506 -0.678282 4.74461 60 36 42
2.4081 -0.499914 4.65168 127 101 106
2.14465 -0.230491 19.5855 180 162 170
1.27653 0.486014 11.0013 120 70 78
1.77982 0.632992 11.8475 88 90 72
2.9428 -1.40971 8.63377 206 150 186
2.20665 -0.421688 4.09745 103 73 50
0.381894 -0.181435 23.6315 179 90 106
0.437773 0.486421 9.26937 186 140 160
1.57474 0.0649392 11.0116 112 92 96
2.19038 0.134759 22.429 152 118 120
2.96852 -1.2112 6.54401 54 68 94
2.53207 -0.697431 5.74314 86 54 96
2.52406 -0.647099 6.37707 106 87 60
2.42681 -0.440172 5.34448 170 164 156
1.92534 -0.103469 4.26182 203 217 226
0.239821 0.799027 8.73751 232 213 182
2.9464 -1.00964 6.02544 158 122 154
1.69433 -0.317599 4.56031 130 100 72
3.08686 -1.00181 6.93074 190 147 178
-1.05086 -0.214564 128.447 172 110 102
2.38839 -0.333797 21.1823 184 154 168
1.70276 0.226696 11.3483 118 140 150
0.257508 0.0186745 2.3683 119 148 196
0.261538 0.0308345 2.3613 54 83 128
0.394483 -0.0232209 2.38668 43 90 166
0.244527 0.0161841 2.36096 136 164 207
0.417178 0.0424891 2.40393 66 87 113
0.405703 0.169496 2.38342 55 113 198
0.419571 0.0640223 2.32159 78 108 155
0.0126498 0.0918829 4.45388 86 148 226
0.452998 0.183964 2.07615 74 134 214
0.424149 0.0341254 2.40159 10 33 48
-0.298306 -0.224979 4.39716 94 86 92
0.486573 0.113369 1.49661 116 152 206
-68.9363 -14.811 379.582 86 146 226
-0.198475 -0.19439 4.33458 54 68 106
-0.0440788 -0.15931 4.41578 20 52 108
-0.068297 -0.100325 4.45325 16 62 145
-0.0453077 -0.0595445 4.48832 29 68 144
-0.00534009 -0.0447741 4.51368 34 76 153
0.0190383 -0.00274617 4.5431 16 62 148
-0.0359834 -0.251606 4.32072 35 30 46
-0.00452176 -0.1035 4.46865 17 40 94
-0.253786 -0.188512 4.32998 100 120 160
-0.0301902 -0.201391 4.38259 77 111 186
0.0497683 -0.0266089 4.53129 54 98 169
-15.0933 -6.14974 88.0208 90 154 212
2.63833 1.20535 43.9993 94 72 53
5.23128 -1.95588 34.6044 54 44 40
25.0044 -26.3828 110.279 168 162 156
25.5838 -17.7841 85.0578 157 150 140
24.9256 -26.3695 109.549 168 162 155
4.71638 3.7852 48.9898 73 78 100
3.1326 -0.0828789 41.073 182 180 182
4.85021 -2.14302 34.2004 207 200 200
6.50088 1.58316 43.1281 147 129 103
4.97167 1.74829 41.8953 89 60 78
5.61693 -2.16863 34.4171 66 55 39
6.07242 0.434506 38.6679 82 87 110
5.03097 -1.59029 35.5991 19 11 13
5.36262 -2.52301 33.7038 206 209 211
0.865199 3.30707 53.1112 110 74 104
3.3271 2.68359 44.9553 210 200 204
0.274496 4.19083 52.2227 188 148 165
-40.7608 -14.0338 159.013 162 132 102
