ply
format ascii 1.0
element vertex 782
property float x
property float y
property float z
property uchar red
property uchar green
property uchar blue
end_header
0.445719 0.248585 0.271353 0 255 0
0.473524 0.247396 0.274095 0 255 0
0.430436 0.240805 0.278577 0 255 0
0.433129 0.231934 0.275702 0 255 0
0.446608 0.249329 0.273965 0 255 0
0.470638 0.2481 0.274685 0 255 0
0.477855 0.247094 0.272799 0 255 0
0.469314 0.245603 0.272674 0 255 0
0.443119 0.248907 0.278746 0 255 0
0.386577 0.190782 0.36877 156 144 90
0.401659 0.186294 0.374878 154 144 90
0.368589 0.179294 0.357917 156 144 90
0.398209 0.174772 0.371987 156 144 90
0.370046 0.187619 0.370565 156 144 90
0.390611 0.178703 0.370567 156 144 90
0.395267 0.175707 0.372123 156 144 90
0.386956 0.169591 0.369689 156 144 90
0.368876 0.186479 0.37187 156 144 90
0.384098 0.180075 0.372386 156 144 90
0.370426 0.182812 0.360106 156 144 90
0.395149 0.172601 0.365768 156 144 90
0.366691 0.188668 0.362967 156 144 90
0.403146 0.184968 0.372136 154 144 90
0.391972 0.178788 0.371015 156 144 90
0.402734 0.16676 0.370105 156 144 90
0.368893 0.179119 0.360419 156 144 90
0.396433 0.173963 0.373546 156 144 90
0.402752 0.184521 0.37312 154 144 90
0.369258 0.188694 0.362755 156 144 90
0.398649 0.171583 0.369412 156 144 90
0.39713 0.184086 0.37257 156 144 90
0.371152 0.187366 0.370519 156 144 90
0.390427 0.178473 0.370732 156 144 90
0.378507 0.202267 0.363846 156 144 90
0.369794 0.183821 0.37161 156 144 90
0.45863 0.155912 0.366875 148 142 92
0.391661 0.192552 0.375096 156 144 90
0.383576 0.202131 0.366401 156 144 90
0.396712 0.180132 0.371446 156 144 90
0.352394 0.196334 0.36476 156 144 90
0.396589 0.179668 0.370868 156 144 90
0.417912 0.160659 0.414486 147 140 88
0.362668 0.182388 0.356124 156 144 90
0.394632 0.177281 0.372602 156 144 90
0.393579 0.177841 0.372021 154 144 90
0.358079 0.188335 0.359465 154 143 89
0.367848 0.192388 0.362318 154 143 89
0.395578 0.178156 0.371239 152 144 90
0.361253 0.199062 0.361134 154 143 89
0.360204 0.18641 0.357291 154 143 89
0.386628 0.202476 0.368626 153 142 89
0.365482 0.166691 0.398614 154 143 89
0.36496 0.176337 0.357974 154 143 89
0.402548 0.184416 0.373429 153 146 92
0.390344 0.194266 0.363959 154 143 89
0.384298 0.178028 0.373377 154 143 89
0.36497 0.190889 0.353965 154 143 89
0.368839 0.180651 0.356529 154 143 89
0.359887 0.179516 0.358794 154 143 89
0.367191 0.190689 0.354652 154 143 89
0.394124 0.205382 0.351964 154 143 89
0.368112 0.192092 0.3497 154 143 89
0.365579 0.174035 0.360176 154 143 89
0.390136 0.207066 0.355396 154 143 90
0.370585 0.183994 0.353759 154 143 89
0.388211 0.177314 0.370933 154 143 89
0.369157 0.193796 0.361822 152 143 90
0.392402 0.191279 0.377147 152 143 92
0.37682 0.207472 0.351007 152 144 94
0.388059 0.183646 0.370928 152 142 89
0.370583 0.195464 0.360714 152 142 91
0.38361 0.173478 0.377583 152 142 89
0.376856 0.208141 0.350893 152 144 94
0.358843 0.202095 0.357073 152 144 92
0.363319 0.182182 0.358798 152 142 89
0.395857 0.159171 0.376488 151 142 90
0.395874 0.183028 0.357181 154 144 88
0.363928 0.189516 0.361013 154 144 88
0.394773 0.197533 0.35104 154 144 88
0.347164 0.22268 0.386436 149 143 93
0.427072 0.210829 0.33582 149 142 89
0.278861 0.169645 0.406985 154 144 88
0.374912 0.190701 0.35498 154 144 88
0.37084 0.184627 0.361464 154 144 88
0.490074 0.20648 0.471316 141 138 90
0.27026 0.171284 0.440209 154 144 89
0.34836 0.188267 0.492127 150 144 92
0.000176619 -0.309263 1.82482 149 143 88
0.401657 0.180889 0.356697 154 144 88
0.322711 0.0302708 1.37482 150 146 92
0.240317 0.192122 0.514167 148 142 93
0.407923 0.183786 0.358428 152 144 90
0.253147 0.170266 0.448978 154 143 90
0.259382 0.177862 0.433824 152 141 88
0.38097 0.190318 0.342842 154 144 88
0.363804 0.172545 0.403181 154 144 88
0.390533 0.18922 0.36706 154 144 88
0.354413 0.219455 0.380429 148 142 90
0.374697 0.19069 0.346624 154 144 88
0.253379 -0.0580174 1.80146 150 146 94
0.410088 0.181792 0.354066 152 144 90
0.399143 0.182966 0.369552 154 144 88
0.400907 0.178867 0.358557 154 144 88
0.395571 0.186793 0.35742 154 144 88
0.104656 0.18986 0.527672 146 140 90
0.382055 0.201783 0.424122 150 144 94
0.395937 0.189251 0.372182 154 144 88
0.390634 0.191355 0.366421 154 144 88
0.260636 0.178003 0.432772 154 143 90
0.397262 0.176192 0.368118 154 144 88
0.38944 0.188657 0.367875 154 144 88
0.380721 0.203558 0.360044 154 144 88
0.396579 0.182157 0.354574 154 144 88
0.400484 0.180144 0.357163 154 144 88
0.2676 0.184371 0.492625 148 142 90
0.382127 0.19097 0.343552 154 144 88
0.386274 0.19696 0.354089 154 144 88
0.404393 0.179315 0.370032 150 143 88
0.382191 0.205496 0.379884 152 141 88
0.396528 0.186099 0.352093 154 144 88
0.137471 0.191271 0.483801 150 144 94
0.368413 0.187078 0.355566 154 144 88
0.368459 0.184002 0.354175 154 144 88
0.493975 0.210572 0.451185 140 138 84
0.407025 0.183157 0.360167 152 143 90
0.404715 0.182473 0.364206 152 144 90
0.372342 0.189593 0.350535 154 144 88
0.288291 0.171607 0.394657 154 144 88
0.354363 0.197701 0.362577 154 144 88
0.25081 0.179708 0.517885 148 142 90
0.379234 0.18944 0.347646 154 144 88
0.450344 0.200339 0.38417 151 146 92
0.457377 0.184857 0.37054 144 138 86
0.354195 0.221971 0.384491 152 146 96
0.349658 0.197718 0.367291 154 142 88
0.345976 0.219301 0.385118 152 146 91
0.466973 0.177245 0.376312 144 140 89
0.350033 0.197823 0.366348 154 142 88
0.350125 0.215319 0.359804 155 146 94
0.342049 0.209828 0.349267 154 142 88
0.343098 0.22352 0.384839 152 146 96
0.344092 0.220714 0.384629 154 147 95
0.383126 0.203695 0.378737 155 146 92
0.349447 0.218773 0.357171 154 146 90
0.35563 0.214583 0.358526 155 146 92
0.40183 0.173479 0.372573 152 141 85
0.358075 0.21627 0.382751 154 147 93
0.370585 0.196828 0.381645 154 144 89
0.321478 0.228356 0.364845 152 146 94
0.45852 0.163511 0.36267 146 140 90
0.494487 0.1795 0.373393 150 146 93
0.494291 0.178701 0.373879 150 146 94
0.34975 0.218118 0.355553 155 146 93
0.40219 0.178095 0.371049 152 141 85
0.379161 0.204026 0.361824 155 144 89
0.456244 0.206526 0.379144 146 140 89
0.481124 0.161807 0.355242 149 145 90
0.394665 0.189632 0.373573 154 143 89
0.404298 0.182906 0.371845 152 143 89
0.365359 0.189549 0.353673 154 143 89
0.312366 0.224791 0.371586 150 144 94
0.366819 0.203695 0.368656 156 146 93
0.504224 0.157369 0.364802 151 146 92
0.482715 0.162201 0.355099 150 146 92
0.4768 0.165683 0.353477 148 144 92
0.355041 0.193621 0.360154 154 143 89
0.343601 0.219359 0.387162 154 147 94
0.371871 0.200292 0.36134 154 143 88
0.356621 0.195579 0.359884 154 143 89
0.504243 0.157142 0.364827 151 146 92
0.353559 0.197751 0.36526 154 144 87
0.339494 0.213879 0.359208 156 147 94
0.323654 0.211758 0.387531 154 148 93
0.368887 0.200107 0.363209 153 143 88
0.317818 0.232377 0.377625 145 135 99
0.193247 0.182266 0.478258 150 144 90
0.358534 0.203418 0.479777 149 142 92
0.153158 0.17634 0.482138 152 144 90
0.191454 0.183679 0.48456 150 142 90
0.555025 0.199154 0.538326 154 142 107
0.260958 0.00705169 1.48712 148 145 92
0.163588 0.187208 0.515694 144 138 89
0.238631 0.175466 0.427965 155 144 92
0.386981 0.196534 0.354886 156 146 91
0.403255 0.180011 0.357968 156 146 91
0.295807 0.0303022 1.28409 150 144 91
0.404751 0.181422 0.350202 156 146 91
0.163454 0.180641 0.501772 150 144 90
0.405726 0.179499 0.351938 156 146 91
0.383416 0.201069 0.371839 156 146 91
-0.670848 -1.50627 8.36406 150 146 93
0.279103 0.00424092 1.50697 150 144 90
0.36652 0.118954 0.874145 148 144 90
0.225221 0.178881 0.450503 152 143 89
0.246863 0.175266 0.421036 154 144 90
0.487959 0.18828 0.542234 142 138 90
0.304631 0.0769835 0.76289 148 142 88
0.329754 0.0252237 1.31709 151 146 94
0.518347 0.188582 0.550259 133 132 83
0.0378174 0.185806 0.630944 144 135 100
0.359273 0.203797 0.47176 148 142 92
0.171093 0.181308 0.503456 149 142 89
0.499714 0.192312 0.528862 139 137 86
0.396206 0.187655 0.359093 156 146 91
0.393694 0.194756 0.354282 156 146 91
0.401415 0.181221 0.353339 156 146 91
0.394067 0.195921 0.352426 156 146 91
0.398842 0.163224 0.519616 146 141 86
0.178729 0.18263 0.490543 150 143 91
0.186038 0.183836 0.489804 150 143 90
0.39551 0.187803 0.359104 156 146 91
0.270529 0.177922 0.41689 156 146 91
0.261982 0.17851 0.422688 156 145 92
0.400726 0.181222 0.352769 156 146 91
0.512617 0.187876 0.546844 136 133 84
0.384534 0.206065 0.37607 155 144 92
0.282282 0.185886 0.429319 154 145 91
0.377012 0.184615 0.378629 156 146 91
0.396172 0.183718 0.356545 156 146 91
0.154922 0.184127 0.525709 146 140 90
0.530967 0.186646 0.571273 134 132 82
0.212215 0.178512 0.462408 153 145 92
0.242862 0.17537 0.424405 155 145 91
0.332611 0.189376 0.388678 156 146 91
0.206068 0.182003 0.474088 152 145 92
0.396345 0.183583 0.356299 156 146 91
0.200504 -0.054596 1.15082 149 143 90
0.269909 0.177963 0.417374 154 144 90
0.287574 0.175286 0.401115 156 146 91
0.346603 0.180239 0.371469 156 146 91
0.396125 0.186878 0.35757 156 146 91
0.178245 0.182616 0.490499 150 143 91
0.308642 0.186138 0.41017 156 145 92
0.282497 0.182162 0.42089 155 144 92
0.297293 0.015825 1.40056 150 144 90
0.406917 0.185487 0.361736 152 144 90
0.399511 0.186781 0.358978 156 146 91
0.358828 0.187867 0.375323 156 146 91
0.40425 0.179389 0.357912 156 146 91
0.403552 0.18214 0.358084 156 146 91
-0.501975 0.199651 1.13267 164 147 128
0.397818 0.183698 0.351558 156 146 91
0.394548 0.187678 0.358526 156 146 91
0.26154 0.17852 0.423322 155 144 92
0.400885 0.189863 0.365314 156 146 91
0.261298 0.178553 0.423219 155 144 92
0.36379 0.18893 0.361716 154 142 88
0.455466 0.188612 0.379653 149 144 94
0.451874 0.196361 0.385875 151 146 96
0.456686 0.188409 0.373443 149 144 93
0.453138 0.196111 0.383909 149 144 95
0.486397 0.223391 0.377838 107 103 70
0.467114 0.229285 0.380248 140 137 90
0.452118 0.195557 0.383954 150 146 96
0.4575 0.183844 0.373006 150 144 94
0.38169 0.200704 0.357198 154 142 88
0.383227 0.215418 0.378004 151 144 94
0.45153 0.197656 0.385975 151 146 96
0.459172 0.190055 0.379164 149 144 92
0.364469 0.188714 0.357912 154 142 88
0.443166 0.184553 0.381478 150 146 92
0.467557 0.20741 0.377862 152 147 96
0.396815 0.184848 0.37358 153 144 90
0.457715 0.190594 0.3785 150 144 92
0.384962 0.174179 0.374226 154 142 88
0.396113 0.173389 0.370545 153 144 91
0.354099 0.198697 0.361718 154 142 88
0.400544 0.176183 0.373808 153 144 90
0.362798 0.190728 0.359838 154 142 88
0.360393 0.191696 0.362382 154 142 88
0.35629 0.200463 0.363576 154 143 90
0.368911 0.217535 0.339384 150 143 89
0.456572 0.189138 0.380989 148 144 94
0.396758 0.163133 0.369291 154 144 90
0.362842 0.189959 0.357837 154 142 88
0.355067 0.224958 0.37055 156 145 108
0.383182 0.206144 0.357127 154 143 90
0.362873 0.19038 0.357989 154 142 88
0.478234 0.188117 0.364376 152 146 94
0.46985 0.220248 0.376452 148 146 96
0.350751 0.190739 0.356445 154 142 88
0.406357 0.185256 0.374769 154 144 90
0.375082 0.202401 0.358493 154 143 90
0.392526 0.166658 0.36971 154 142 88
0.369864 0.195078 0.362719 154 142 88
0.390439 0.198239 0.36562 154 142 88
0.461785 0.186027 0.376916 150 144 95
0.465262 0.221781 0.377815 146 142 92
0.368633 0.217638 0.339785 152 144 90
0.368316 0.179727 0.355744 154 142 88
0.396853 0.168867 0.368435 154 144 90
0.393026 0.176457 0.371944 154 142 88
0.389885 0.188846 0.36768 154 142 88
0.476366 0.189291 0.364265 152 146 96
0.363719 0.188717 0.36207 154 142 88
0.473203 0.20141 0.370283 154 148 98
0.383307 0.204613 0.358053 154 144 90
0.460084 0.183577 0.373169 150 145 95
0.459933 0.185077 0.375342 149 144 94
0.452263 0.196997 0.384418 150 145 94
0.365525 0.178441 0.356609 152 141 88
0.458451 0.186554 0.373483 148 142 94
0.370629 0.18197 0.358758 152 141 88
0.394882 0.169698 0.369081 151 140 88
0.359672 0.234236 0.343828 144 132 101
0.361034 0.190277 0.362533 151 142 91
0.476422 0.191752 0.364588 150 144 96
0.400187 0.167268 0.371178 152 142 91
0.359503 0.233771 0.343716 149 136 104
0.362902 0.18984 0.358999 152 142 88
0.36404 0.217077 0.345931 148 143 92
0.455917 0.193065 0.377405 150 144 96
0.390935 0.189112 0.367839 152 142 92
0.364022 0.228226 0.344864 157 146 110
0.461477 0.190242 0.377417 149 144 94
0.36171 0.229889 0.343187 156 144 110
0.380862 0.204911 0.356999 151 142 92
0.371568 0.181477 0.380802 151 142 89
0.392644 0.191669 0.376986 152 144 92
0.389727 0.167135 0.368085 152 141 88
0.401532 0.181631 0.373848 150 142 90
0.395634 0.168518 0.367513 151 140 88
0.366865 0.175744 0.359146 152 141 88
0.468402 0.226261 0.377575 138 136 89
0.460192 0.191002 0.377669 148 144 94
0.425164 0.218903 0.358468 150 144 93
0.458204 0.198587 0.381168 151 145 92
0.405281 0.231436 0.363123 146 140 90
0.470956 0.227668 0.372962 142 139 89
0.379164 0.20125 0.357332 154 144 88
0.456934 0.163755 0.36732 149 143 92
0.461926 0.190276 0.376209 148 143 92
0.351824 0.181467 0.36139 154 144 88
0.354277 0.219694 0.347842 151 144 93
0.458723 0.165862 0.363516 149 143 92
0.359096 0.220297 0.350354 150 143 92
0.367532 0.183614 0.377921 154 144 88
0.353648 0.185559 0.362725 154 144 88
0.462134 0.189547 0.375713 148 143 92
0.392119 0.189909 0.367427 154 144 88
0.467953 0.206458 0.376084 150 145 94
0.386669 0.203847 0.361884 154 144 88
0.489227 0.224667 0.376346 128 104 64
0.364228 0.217396 0.352591 150 143 90
0.383803 0.180567 0.372613 154 144 88
0.370391 0.181911 0.380117 154 144 88
0.385869 0.204381 0.361916 154 144 88
0.369081 0.18451 0.362569 154 144 88
0.350486 0.198664 0.36683 154 144 88
0.39822 0.17695 0.372029 154 144 88
0.400637 0.169559 0.367122 154 144 88
0.391788 0.1966 0.367398 154 144 88
0.455733 0.189982 0.376831 150 144 92
0.477983 0.188593 0.364972 150 145 94
0.373292 0.181233 0.38028 154 144 88
0.399123 0.183438 0.37104 153 143 88
0.372551 0.206578 0.359775 154 144 88
0.383312 0.169323 0.373823 153 142 88
0.37298 0.185 0.37447 153 142 88
0.367002 0.216154 0.346869 154 146 90
0.48265 0.192611 0.365342 146 141 91
0.396883 0.197682 0.366964 153 142 88
0.363376 0.230327 0.347826 151 144 94
0.47817 0.208869 0.374389 144 140 88
0.481765 0.188947 0.364797 146 142 90
0.361315 0.137253 0.403043 153 142 88
0.483808 0.23341 0.354327 123 121 77
0.388693 0.15959 0.391114 153 142 88
0.379201 0.205957 0.361512 154 142 88
0.379027 0.198075 0.370174 153 142 88
0.352873 0.214216 0.362423 154 148 94
0.406432 0.229453 0.363142 151 144 94
0.38702 0.193507 0.364852 153 142 88
0.459711 0.228258 0.353689 56 37 14
0.385769 0.199119 0.370596 153 142 88
0.457374 0.197638 0.379195 144 140 90
0.476379 0.187963 0.365439 146 140 88
0.381905 0.191384 0.37071 153 142 88
0.39766 0.170783 0.368266 153 142 88
0.491561 0.225731 0.349693 156 140 120
0.371968 0.200262 0.35882 153 142 88
0.366947 0.222382 0.344933 154 147 96
0.369259 0.219079 0.348909 154 146 93
0.457427 0.217876 0.342044 144 138 88
0.480044 0.235277 0.376892 101 100 62
0.376726 0.175026 0.380334 153 142 88
0.464248 0.22216 0.374337 146 143 91
0.39298 0.19769 0.369669 153 142 88
0.355688 0.214291 0.351178 154 146 91
0.456633 0.182771 0.37913 144 138 86
0.468193 0.224236 0.358415 146 142 90
0.49087 0.2269 0.348155 158 140 116
0.362298 0.191804 0.369588 153 142 88
0.484534 0.231244 0.353949 138 136 87
0.364101 0.136026 0.410978 153 142 88
0.396851 0.190121 0.375645 153 142 88
0.457263 0.202532 0.383116 146 140 90
0.355942 0.193335 0.360424 154 143 86
0.401602 0.176258 0.374013 154 143 86
0.375088 0.196792 0.347927 154 143 86
0.336837 0.226314 0.358824 152 146 95
0.355315 0.162908 0.401384 154 143 86
0.363169 0.231856 0.349477 150 144 94
0.288078 0.228268 0.388416 146 136 100
0.379353 0.191131 0.38392 154 143 86
0.397057 0.176566 0.357508 154 143 86
0.367462 0.182891 0.399074 154 143 86
0.402697 0.227299 0.366027 154 147 95
0.415927 0.182993 0.347608 154 143 86
0.364752 0.190805 0.36077 154 143 86
0.37085 0.203391 0.359058 154 143 86
0.393091 0.168136 0.375023 154 143 86
0.381856 0.194459 0.353093 154 143 86
0.362214 0.219968 0.350839 153 146 95
0.318273 0.225047 0.376873 152 146 94
0.365071 0.182147 0.372394 154 143 86
0.370539 0.199879 0.359875 154 143 86
0.366158 0.175094 0.364082 154 143 86
0.38772 0.170094 0.368268 154 143 86
0.406114 0.188342 0.349164 154 143 86
0.288883 0.160412 0.462218 154 146 90
0.406505 0.228007 0.362934 154 147 95
0.39489 0.188904 0.373614 154 143 86
0.366507 0.180391 0.379282 154 143 86
0.325871 0.188775 0.384923 154 143 86
0.399751 0.181025 0.355023 154 143 86
0.381265 0.189621 0.371713 154 142 88
0.454356 0.138394 0.390664 144 138 88
0.468816 0.23371 0.354706 142 140 89
0.380463 0.196227 0.370425 154 142 87
0.491159 0.226496 0.349586 139 73 64
0.388497 0.187751 0.369168 155 145 90
0.461348 0.180702 0.372546 146 142 88
0.36248 0.175781 0.358898 155 145 90
0.460708 0.153447 0.365925 148 142 90
0.461458 0.195368 0.38117 148 142 92
0.456461 0.193516 0.376265 148 142 90
0.462363 0.199763 0.382386 148 142 92
0.460438 0.153465 0.365904 148 142 90
0.374085 0.207603 0.359376 147 140 88
0.389844 0.174836 0.366925 150 140 87
0.362264 0.22759 0.345916 142 131 104
0.478316 0.185961 0.364646 154 148 98
0.48612 0.153275 0.357561 153 149 96
0.373548 0.18519 0.356194 150 140 87
0.371129 0.190449 0.37115 150 141 90
0.459432 0.1758 0.373286 152 147 98
0.402024 0.178573 0.371036 148 142 90
0.454926 0.167002 0.369307 152 148 98
0.387332 0.213286 0.370652 149 142 94
0.361071 0.232533 0.345965 164 148 130
0.360988 0.227637 0.343648 144 134 106
0.455451 0.167938 0.36302 150 147 98
0.363591 0.222247 0.342271 156 146 111
0.387931 0.171077 0.368315 150 140 87
0.397745 0.181677 0.371115 148 140 89
0.462067 0.175482 0.37285 150 146 98
0.356882 0.229681 0.342661 165 148 129
0.351559 0.235377 0.34774 164 146 130
0.364044 0.226146 0.342066 153 144 112
0.354632 0.230039 0.342037 164 148 128
0.385337 0.214056 0.373605 148 142 93
0.354419 0.197239 0.363777 150 141 90
0.367505 0.213772 0.349837 148 142 92
0.455976 0.163244 0.371509 151 148 98
0.38825 0.185816 0.369185 150 139 86
0.455414 0.161231 0.37056 150 147 98
0.395601 0.22041 0.375683 142 137 92
0.459396 0.147639 0.371429 151 148 98
0.35369 0.199797 0.364177 150 142 92
0.455877 0.16186 0.371854 152 148 98
0.37125 0.1973 0.362158 150 142 90
0.387206 0.185643 0.370758 150 140 86
0.362215 0.227447 0.345972 144 134 106
0.374638 0.22184 0.372635 152 143 109
0.357011 0.196171 0.363674 150 141 89
0.361275 0.22855 0.344883 162 147 128
0.361224 0.22841 0.344939 164 148 128
0.360997 0.228168 0.343471 161 147 126
0.45582 0.153855 0.372207 152 148 99
0.389862 0.175078 0.366856 150 140 87
0.488051 0.151681 0.361141 152 148 96
0.360545 0.19342 0.362856 151 142 90
0.372193 0.219067 0.374078 134 128 83
0.365372 0.203239 0.366939 150 142 90
0.455098 0.16995 0.365699 151 148 98
0.356977 0.23505 0.346347 164 148 130
0.367712 0.218544 0.350885 146 140 92
0.46197 0.179906 0.371846 150 146 97
0.457667 0.173795 0.360027 152 148 100
0.354994 0.240284 0.353959 164 146 130
0.376268 0.193022 0.364481 150 141 88
0.383838 0.17567 0.375375 150 140 87
0.484424 0.159905 0.357727 154 150 100
0.456118 0.165025 0.362277 152 146 98
0.361472 0.228027 0.345025 161 147 126
0.351161 0.234946 0.347967 164 148 132
0.463868 0.17905 0.375248 151 147 99
0.368058 0.184687 0.365122 150 140 87
0.455449 0.160967 0.370614 150 147 98
0.393036 0.16945 0.36537 150 140 87
0.362698 0.231371 0.347693 164 148 130
0.363111 0.227839 0.343316 144 134 106
0.373401 0.220548 0.375218 154 143 108
0.463585 0.178632 0.371833 152 148 100
0.367756 0.176545 0.362509 150 140 87
0.38804 0.182717 0.371565 150 140 87
0.363358 0.185116 0.357408 150 140 87
0.382446 0.22115 0.375495 151 142 106
0.395346 0.17119 0.367964 150 139 86
0.455303 0.155007 0.367332 150 147 98
0.374957 0.221628 0.38333 140 134 88
0.37079 0.179696 0.35232 152 142 86
0.37065 0.178537 0.358593 152 142 86
0.39085 0.199197 0.365174 152 142 86
0.380758 0.220301 0.373169 147 141 89
0.370447 0.177484 0.357207 152 142 86
0.363574 0.19337 0.355483 152 142 86
0.366762 0.180511 0.382134 152 142 86
0.359295 0.191094 0.358404 152 142 86
0.428133 0.230855 0.352227 146 142 92
0.364756 0.192805 0.353209 152 142 86
0.389116 0.204991 0.358844 152 142 88
0.362385 0.188906 0.354902 152 142 86
0.4531 0.199216 0.400675 154 152 100
0.365986 0.175554 0.386376 152 142 86
0.399908 0.185563 0.375508 152 144 92
0.353363 0.201537 0.365852 151 142 86
0.369575 0.187918 0.363237 152 142 86
0.369291 0.181092 0.352162 152 140 86
0.357123 0.200029 0.362902 152 142 88
0.370623 0.180333 0.353844 152 140 86
0.366849 0.179774 0.382857 152 140 86
0.391222 0.169119 0.365656 152 140 86
0.46435 0.209277 0.38242 151 146 97
0.387986 0.171127 0.367127 152 140 86
0.364282 0.188902 0.356703 152 140 86
0.364578 0.225433 0.343173 149 144 92
0.389713 0.201383 0.36039 152 140 86
0.359953 0.222387 0.341337 153 146 97
0.364433 0.22681 0.344722 139 133 86
0.40132 0.167822 0.369092 152 143 88
0.457123 0.159826 0.365828 146 142 92
0.455997 0.199199 0.393141 150 146 94
0.369282 0.193568 0.362081 152 142 85
0.369906 0.183029 0.35386 152 142 85
0.34904 0.227257 0.372979 160 150 113
0.370627 0.218615 0.337642 152 145 93
0.370399 0.213355 0.350928 152 145 94
0.369315 0.182891 0.363883 152 142 85
0.394968 0.165889 0.364185 152 141 87
0.351417 0.237522 0.353783 164 148 128
0.370301 0.182462 0.351138 152 141 87
0.387843 0.192 0.366894 152 141 87
0.366353 0.187543 0.351287 152 141 87
0.458494 0.175296 0.36491 148 144 94
0.391894 0.194869 0.365346 152 141 87
0.354724 0.226251 0.372159 158 148 112
0.374936 0.208282 0.358431 153 144 92
0.387528 0.16944 0.366923 152 141 87
0.38737 0.203727 0.360469 154 144 91
0.367619 0.183102 0.379482 154 144 89
0.351581 0.181295 0.363101 154 144 89
0.35474 0.197203 0.360867 150 142 89
0.386532 0.206395 0.373264 150 142 92
0.387039 0.220318 0.37569 132 128 82
0.36929 0.187751 0.364738 149 141 86
0.364396 0.177879 0.35701 150 140 86
0.363403 0.185963 0.355297 150 140 86
0.458659 0.170237 0.370923 152 147 98
0.458744 0.171125 0.369501 152 146 98
0.348743 0.226128 0.370208 158 147 114
0.362146 0.191988 0.358014 149 140 88
0.367644 0.192115 0.362205 150 142 88
0.493014 0.187061 0.357799 149 143 91
0.370828 0.181279 0.356808 150 139 86
0.370077 0.216376 0.337878 149 141 90
0.367529 0.189883 0.358208 150 139 86
0.375438 0.202231 0.358209 149 140 90
0.393273 0.220352 0.378942 136 130 83
0.367789 0.192068 0.362311 150 142 88
0.384404 0.169251 0.370514 150 139 86
0.371033 0.215845 0.349594 150 144 92
0.36853 0.179771 0.382792 149 140 87
0.362812 0.218284 0.337703 150 144 94
0.506953 0.148308 0.373448 151 146 92
0.426892 0.234489 0.354984 116 94 56
0.368358 0.192789 0.362139 150 142 86
0.468467 0.183805 0.358916 146 141 92
0.36514 0.225301 0.342773 158 148 111
0.370018 0.216698 0.337919 150 142 92
0.390127 0.161778 0.369015 150 140 85
0.368103 0.174908 0.35951 150 140 85
0.358503 0.236098 0.346099 160 144 122
0.358137 0.199045 0.363061 150 142 90
0.484849 0.156545 0.359418 149 144 93
0.371769 0.208331 0.360672 150 144 93
0.368286 0.181393 0.353341 150 140 85
0.399536 0.180257 0.3729 150 140 88
0.469551 0.153022 0.368307 147 142 93
0.359585 0.198788 0.362237 150 140 90
0.365778 0.223863 0.340693 158 147 112
0.395631 0.163424 0.36628 150 140 87
0.364901 0.185281 0.352188 150 140 87
0.468952 0.153196 0.36835 148 144 94
0.370226 0.217737 0.337869 150 145 94
0.481833 0.155894 0.359538 150 145 95
0.485917 0.153359 0.357782 150 146 94
0.36841 0.223329 0.369884 159 148 112
0.359744 0.223448 0.339533 158 148 110
0.370961 0.185028 0.351433 150 140 87
0.479088 0.154089 0.361824 150 146 96
0.357034 0.20061 0.362784 150 142 92
0.478579 0.15383 0.362351 150 145 94
0.367999 0.189545 0.361183 149 140 87
0.361771 0.229923 0.343938 160 148 114
0.366998 0.227675 0.371258 158 146 114
0.482542 0.15379 0.357897 151 146 96
0.480999 0.182094 0.360181 153 148 98
0.457153 0.161867 0.367478 149 146 96
0.488735 0.182039 0.360619 154 148 97
0.470609 0.176157 0.360104 149 144 94
0.363809 0.188946 0.361687 152 142 86
0.456569 0.165986 0.363568 148 141 90
0.361455 0.222173 0.349346 151 145 92
0.345919 0.224574 0.382189 150 144 94
0.352495 0.186453 0.362623 152 142 86
0.350416 0.189372 0.363857 152 142 86
0.387492 0.168584 0.367206 152 142 86
0.342019 0.222375 0.347649 152 145 93
0.368995 0.187089 0.372964 152 142 86
0.35117 0.190672 0.36465 152 142 86
0.397581 0.189566 0.374891 150 141 87
0.367292 0.184503 0.355466 152 142 86
0.367731 0.216048 0.377789 150 144 91
0.370275 0.197279 0.380309 152 144 86
0.457457 0.17468 0.362208 148 142 91
0.366842 0.181582 0.38123 152 142 84
0.369748 0.179163 0.356555 152 142 84
0.39122 0.191931 0.379022 152 142 84
0.340733 0.235615 0.361498 162 147 122
0.355572 0.220118 0.346958 152 146 94
0.394655 0.178271 0.3695 152 142 84
0.490392 0.230469 0.383573 138 126 96
0.356873 0.17948 0.3577 152 142 84
0.355594 0.226484 0.349198 150 144 93
0.395837 0.180192 0.368494 152 142 86
0.483239 0.184507 0.344826 153 148 94
0.394985 0.170789 0.360512 152 142 86
0.338546 0.224748 0.383207 149 143 93
0.391043 0.204833 0.386262 154 146 94
0.345873 0.2221 0.380847 152 146 96
0.360507 0.218813 0.349062 151 144 92
0.359402 0.21748 0.380984 152 146 94
0.363292 0.224984 0.382212 150 144 94
0.355642 0.223478 0.348335 150 144 92
0.351923 0.200416 0.370571 154 144 89
0.501808 0.181 0.36016 150 145 90
0.370079 0.198999 0.360868 152 142 86
0.339061 0.223753 0.346797 150 144 92
0.349065 0.219768 0.347864 153 146 96
0.373354 0.220796 0.381419 152 145 92
0.280457 0.206862 0.411805 148 142 91
0.332889 0.165309 0.385861 154 144 88
0.202856 0.207681 0.464125 146 136 98
0.401236 0.177558 0.352429 154 144 88
0.375956 0.191837 0.362996 154 144 88
0.237538 0.203593 0.442181 146 140 90
0.17726 0.202603 0.485905 148 138 100
0.254172 0.206884 0.42749 147 141 91
0.335793 0.170626 0.386299 154 144 88
0.2959 0.163154 0.416553 154 144 88
0.403998 0.177178 0.354322 154 144 88
0.407176 0.178258 0.355445 154 144 88
0.222741 0.181516 0.443821 150 142 91
0.325597 0.165264 0.392691 154 144 88
0.279846 0.205938 0.409643 148 142 90
0.350431 0.169892 0.376527 154 144 88
0.331217 0.173529 0.39115 154 144 88
0.402418 0.174576 0.355418 154 144 88
0.268846 0.185686 0.406477 153 144 90
0.402698 0.174878 0.355289 154 144 88
0.356047 0.199866 0.376948 154 144 88
0.366487 0.194468 0.371128 154 144 88
0.36603 0.195274 0.380688 154 144 88
0.404602 0.191906 0.367686 150 142 88
0.357912 0.190322 0.375871 154 144 88
0.303269 0.160932 0.409333 154 144 88
0.24592 0.204587 0.433086 146 140 90
0.393815 0.184056 0.363423 154 144 88
0.276462 0.207422 0.411982 149 142 90
0.283736 0.210395 0.409544 148 142 90
0.358445 0.168072 0.372646 154 144 88
0.265545 0.185264 0.408388 154 144 92
0.397879 0.19306 0.367565 154 144 88
0.398702 0.175407 0.360334 154 144 88
0.363837 0.212966 0.35199 154 146 92
0.392887 0.190544 0.375177 152 141 84
0.369347 0.197034 0.381438 153 144 87
0.476329 0.189252 0.363131 144 138 86
0.358539 0.226877 0.341701 155 148 94
0.390849 0.158603 0.4168 150 142 87
0.380107 0.165033 0.375707 152 140 86
0.378615 0.226641 0.360682 154 148 96
0.361973 0.176704 0.379259 152 140 86
0.362311 0.180274 0.375069 152 140 86
0.394603 0.16763 0.373826 152 140 86
0.344049 0.228726 0.344676 154 148 95
0.375072 0.157899 0.381357 152 140 86
0.464869 0.173878 0.355779 142 137 86
0.343203 0.217551 0.349815 154 148 96
0.361196 0.221914 0.349763 155 148 96
0.37071 0.186111 0.368325 152 140 86
0.382699 0.214103 0.368118 154 148 96
0.379552 0.205114 0.36001 154 143 90
0.394686 0.179563 0.375619 152 140 86
0.354941 0.234549 0.347712 150 140 104
0.369679 0.247468 0.343492 164 146 128
0.361663 0.241027 0.347362 164 148 125
0.362184 0.234613 0.350431 146 136 101
0.483711 0.154359 0.361407 148 142 90
0.341893 0.209311 0.349233 154 143 90
0.482226 0.176258 0.351842 147 142 88
0.383165 0.169242 0.374163 152 140 86
0.456996 0.17018 0.365338 143 137 86
0.384264 0.16133 0.373264 152 140 86
0.357645 0.208304 0.346843 151 141 87
0.410423 0.156919 0.415913 150 143 90
0.507714 0.163764 0.363478 150 145 90
0.462994 0.166594 0.363144 144 138 88
0.456823 0.171164 0.362741 144 137 86
0.3905 0.196188 0.351921 152 140 86
0.369284 0.180412 0.381967 152 140 86
0.341519 0.181836 0.373601 152 140 86
0.381437 0.22841 0.359054 155 149 99
0.360853 0.188497 0.367602 152 140 86
0.466114 0.179036 0.352706 147 141 90
0.400669 0.202424 0.395831 151 144 90
0.465424 0.183042 0.358247 146 140 90
0.397891 0.174801 0.367337 153 143 88
0.456615 0.167474 0.362617 148 143 92
0.394542 0.178366 0.370614 152 142 85
0.362565 0.214918 0.349663 155 148 95
0.470878 0.144954 0.375964 143 137 87
0.386091 0.194824 0.365962 152 142 85
0.397394 0.160826 0.377063 152 142 85
0.392547 0.19932 0.364757 152 142 84
0.390655 0.19609 0.368036 152 141 84
0.357676 0.240571 0.348808 95 88 92
0.393819 0.164406 0.371243 152 142 85
0.357827 0.235191 0.349921 160 146 120
0.438508 0.231066 0.359612 114 93 57
0.432561 0.220279 0.360297 152 146 94
0.353539 0.241392 0.348729 162 144 124
0.335987 0.216824 0.378483 154 148 95
0.355139 0.201114 0.36788 155 144 90
0.432705 0.235452 0.352323 142 133 98
0.43296 0.235817 0.352305 141 132 98
0.362988 0.215331 0.349555 155 148 95
0.356601 0.237885 0.3494 164 149 124
0.359175 0.226848 0.344231 156 148 96
0.352343 0.239783 0.349112 98 92 94
0.375052 0.223349 0.371229 156 149 96
0.355692 0.206633 0.344964 152 142 85
0.360357 0.236508 0.34958 164 148 122
0.43145 0.219634 0.360373 151 145 93
0.387729 0.2212 0.377677 156 149 96
0.365331 0.216688 0.341079 154 148 94
0.351922 0.239419 0.34921 112 108 108
0.488048 0.2135 0.379341 150 146 94
0.487638 0.178541 0.371457 148 144 91
0.44857 0.193349 0.393475 149 143 92
0.457132 0.220178 0.384257 147 142 92
0.484219 0.202346 0.369451 148 144 92
0.471868 0.180383 0.349203 147 142 88
0.488625 0.165028 0.356473 150 146 92
0.489651 0.179046 0.370854 148 144 90
0.485802 0.220154 0.376014 134 120 86
0.464926 0.187172 0.385368 146 140 90
0.453674 0.18848 0.373028 148 143 93
0.491241 0.225586 0.378917 132 109 72
0.451576 0.187813 0.369621 146 140 88
