ply
format ascii 1.0
element vertex 537
property float x
property float y
property float z
property uchar red
property uchar green
property uchar blue
end_header
-8.85323e-08 -4.41556e-08 1.14902e-07 0 255 0
-8.87951e-08 -4.53471e-08 1.11879e-07 0 255 0
-9.10943e-08 -4.43585e-08 1.0928e-07 0 255 0
-7.73785e-08 -4.34617e-08 1.13838e-07 0 255 0
-7.51489e-08 -4.30695e-08 1.14719e-07 0 255 0
-8.11797e-08 -4.39114e-08 1.14049e-07 0 255 0
-8.69337e-08 -4.28107e-08 1.03299e-07 0 255 0
-8.24301e-08 -4.10625e-08 1.02856e-07 0 255 0
-8.68914e-08 -4.67179e-08 1.07307e-07 0 255 0
4.06422e-05 3.94102e-06 4.93813e-07 0 255 0
-7.96559e-08 -3.8876e-08 1.01742e-07 0 255 0
-8.1904e-08 -3.9208e-08 1.0401e-07 0 255 0
-8.57828e-08 -4.05865e-08 1.06275e-07 0 255 0
-7.14207e-08 -4.28303e-08 1.12457e-07 0 255 0
-8.75804e-08 -4.32215e-08 1.09694e-07 0 255 0
-1.03096e-07 -7.15139e-08 1.44744e-07 222 216 169
-1.00713e-07 -7.10077e-08 1.47948e-07 221 218 172
-1.17124e-07 -5.98883e-08 1.77792e-07 216 212 168
-1.0279e-07 -7.12022e-08 1.45045e-07 222 216 169
-1.03449e-07 -7.10143e-08 1.51877e-07 220 216 172
-1.01918e-07 -7.07948e-08 1.49158e-07 222 218 172
-1.18272e-07 -5.86046e-08 1.78728e-07 216 212 166
-1.17847e-07 -4.95242e-08 1.92382e-07 213 207 155
-1.02248e-07 -7.12971e-08 1.50382e-07 220 216 170
-9.67082e-08 -7.3904e-08 1.75664e-07 220 219 172
-1.04213e-07 -7.21864e-08 1.50348e-07 222 216 169
-1.22719e-07 -7.45119e-08 2.07118e-07 220 216 172
-9.39116e-08 -7.2482e-08 1.49654e-07 220 218 170
-1.03368e-07 -7.07999e-08 1.50193e-07 221 217 170
-8.99489e-08 -6.47383e-08 1.66499e-07 222 220 173
-1.03393e-07 -7.09326e-08 1.51971e-07 222 218 172
-7.77445e-08 -7.48102e-08 1.48949e-07 222 224 178
-1.03839e-07 -7.08536e-08 1.41335e-07 222 216 169
-1.02505e-07 -7.11079e-08 1.46404e-07 222 216 169
-1.0408e-07 -7.05135e-08 1.4045e-07 222 216 169
-9.97326e-08 -6.98572e-08 1.52752e-07 219 218 166
-9.9653e-08 -6.99429e-08 1.49585e-07 221 218 170
-1.16076e-07 -6.75217e-08 1.61782e-07 222 216 169
-8.90429e-08 -7.40784e-08 1.44498e-07 222 220 174
-8.38914e-08 -6.42534e-08 1.69521e-07 222 222 174
-9.37888e-08 -7.10866e-08 1.44528e-07 220 218 170
-1.01069e-07 -7.18163e-08 1.49827e-07 220 217 172
-1.03279e-07 -7.07662e-08 1.52157e-07 222 218 170
-1.1649e-07 -6.7444e-08 1.61469e-07 222 216 169
0.0302798 0.00159751 0.109348 68 60 46
-1.05012e-07 -5.64317e-08 1.6019e-07 217 213 166
-1.20632e-07 -6.97609e-08 1.61023e-07 222 216 169
-1.019e-07 -7.0835e-08 1.49117e-07 222 218 172
-9.58124e-08 -7.23504e-08 1.52687e-07 219 217 169
-9.46388e-08 -6.79163e-08 1.54259e-07 220 219 172
-1.03936e-07 -7.1767e-08 1.49108e-07 222 216 169
-1.02304e-07 -7.11453e-08 1.44358e-07 222 216 169
-1.10429e-07 -8.38072e-08 2.04533e-07 220 217 170
-1.03819e-07 -6.99553e-08 1.62396e-07 220 218 170
-9.70502e-08 -4.13482e-08 1.96176e-07 175 172 114
-9.40741e-08 -7.65631e-08 1.57607e-07 197 196 143
-1.14458e-07 -4.96858e-08 1.65312e-07 193 188 134
-1.02107e-07 -7.31998e-08 1.68607e-07 200 197 146
-1.07409e-07 -6.05312e-08 1.51308e-07 198 194 142
-1.04746e-07 -7.97073e-08 1.71e-07 198 194 142
-1.21801e-07 -5.89341e-08 2.01555e-07 192 188 140
-1.04368e-07 -7.22127e-08 1.45392e-07 198 194 142
-1.14764e-07 -8.83994e-08 2.22169e-07 198 196 144
-1.03973e-07 -7.1836e-08 1.4752e-07 198 194 142
-1.14182e-07 -5.03125e-08 1.66346e-07 192 186 134
-1.13261e-07 -4.22774e-08 1.68395e-07 180 176 123
-1.26147e-07 -7.77935e-08 2.1308e-07 198 194 142
-1.1398e-07 -7.31891e-08 1.43855e-07 198 194 142
-1.12347e-07 -6.65279e-08 1.88926e-07 195 192 143
-8.57808e-08 -6.24817e-08 2.12176e-07 144 147 106
-1.14826e-07 -5.35574e-08 1.6605e-07 191 187 139
-1.12123e-07 -7.25277e-08 1.5498e-07 198 194 142
-1.12609e-07 -7.41203e-08 3.05603e-07 188 186 132
-1.18068e-07 -4.89634e-08 1.92534e-07 193 188 139
-1.15005e-07 -4.55433e-08 1.88242e-07 190 186 132
-8.31035e-08 -5.73257e-08 1.62592e-07 196 200 156
-1.17879e-07 -5.3648e-08 1.78222e-07 190 186 134
-1.13432e-07 -7.30191e-08 1.47971e-07 198 194 142
-1.19543e-07 -5.75274e-08 2.05439e-07 191 187 133
-1.15625e-07 -4.42627e-08 1.77903e-07 190 188 136
-1.14256e-07 -4.02718e-08 1.767e-07 192 186 153
-1.04766e-07 -7.24286e-08 1.43162e-07 198 194 142
-1.14662e-07 -5.004e-08 1.69819e-07 194 188 135
-1.12146e-07 -7.33018e-08 1.48178e-07 198 194 142
-1.20098e-07 -7.52858e-08 2.03898e-07 198 194 143
-1.19747e-07 -5.81323e-08 2.12858e-07 190 186 132
-1.06895e-07 -7.01186e-08 1.66533e-07 200 195 144
-1.14232e-07 -4.9579e-08 1.65368e-07 194 188 135
-1.08623e-07 -6.34742e-08 1.57922e-07 198 194 142
-1.15471e-07 -4.47486e-08 1.75384e-07 192 188 139
-1.0351e-07 -5.2784e-08 2.17621e-07 189 184 126
-1.09617e-07 -6.39299e-08 1.57846e-07 198 194 142
-1.14659e-07 -6.43493e-08 1.52297e-07 198 194 142
-9.89824e-08 -5.6415e-08 2.09029e-07 188 186 134
-1.09921e-07 -6.41309e-08 1.61827e-07 198 194 142
-1.07424e-07 -6.04639e-08 1.5133e-07 198 194 142
-1.18285e-07 -5.1112e-08 1.94976e-07 193 188 134
-1.04486e-07 -7.21918e-08 1.43762e-07 198 194 142
-1.09361e-07 -6.43568e-08 1.56439e-07 198 194 142
-1.04504e-07 -6.1251e-08 1.53829e-07 199 194 144
-1.04242e-07 -4.99001e-08 2.19758e-07 187 182 123
-1.06783e-07 -6.47427e-08 1.66896e-07 199 195 146
-1.15176e-07 -3.95227e-08 1.75436e-07 184 178 146
-1.08927e-07 -7.71251e-08 2.47151e-07 195 192 138
-1.15579e-07 -4.43958e-08 1.77807e-07 192 188 138
-1.13305e-07 -4.21604e-08 1.68483e-07 179 174 122
-1.12803e-07 -4.28555e-08 1.66571e-07 188 183 132
-1.09804e-07 -6.90811e-08 1.8608e-07 196 192 142
-1.17494e-07 -6.13856e-08 2.00464e-07 194 191 140
-1.12143e-07 -7.24456e-08 1.49173e-07 198 194 142
-8.63396e-08 -6.25679e-08 2.12616e-07 142 146 113
-1.04584e-07 -7.31996e-08 1.43723e-07 198 194 142
-1.13135e-07 -7.26831e-08 1.50325e-07 198 194 142
-9.42454e-08 -7.5164e-08 1.479e-07 197 196 145
-1.18494e-07 -6.4255e-08 1.89495e-07 196 192 144
-1.18869e-07 -5.94437e-08 1.84793e-07 192 189 138
-1.03478e-07 -6.81912e-08 1.5845e-07 200 196 144
-9.18248e-08 -5.76308e-08 1.59969e-07 183 182 132
-8.03144e-08 -6.77772e-08 1.62757e-07 190 190 141
-8.22752e-08 -6.48666e-08 1.61678e-07 190 190 138
-1.00215e-07 -3.40201e-08 1.74286e-07 192 182 168
-1.134e-07 -7.33785e-08 1.52427e-07 186 183 132
-8.951e-08 -6.73831e-08 1.66415e-07 188 188 138
-1.12611e-07 -7.55611e-08 1.54354e-07 186 183 132
-1.112e-07 -7.19934e-08 1.53472e-07 186 183 132
-1.13635e-07 -7.33735e-08 1.52438e-07 186 183 132
-8.26953e-08 -6.36118e-08 1.62095e-07 190 190 138
-1.12022e-07 -7.27914e-08 1.54379e-07 186 183 132
-9.6335e-08 -5.73424e-08 1.50148e-07 186 183 131
-6.78133e-08 -8.2499e-08 1.50165e-07 188 190 140
-6.83099e-08 -8.11638e-08 1.51579e-07 188 190 142
-1.09478e-07 -3.81962e-08 1.77348e-07 194 184 168
-1.10274e-07 -7.52367e-08 1.645e-07 185 182 131
-8.38438e-08 -5.9595e-08 1.76584e-07 84 90 54
-8.00347e-08 -5.40814e-08 1.38341e-07 186 186 138
-8.10848e-08 -5.48575e-08 1.40611e-07 186 188 138
-8.5954e-08 -5.65809e-08 1.67391e-07 186 188 138
-5.77588e-08 -1.01567e-07 1.60733e-07 186 188 138
-9.13829e-08 -5.95561e-08 1.73429e-07 184 184 132
-8.91848e-08 -5.70831e-08 1.69035e-07 188 190 139
-5.78803e-08 -1.01006e-07 1.63755e-07 188 190 138
-5.71628e-08 -1.00843e-07 1.62256e-07 186 190 140
-1.05435e-07 -5.78752e-08 1.47707e-07 201 196 144
-1.09314e-07 -6.17623e-08 1.51013e-07 201 196 144
-1.10288e-07 -4.86031e-08 1.55286e-07 194 190 138
-1.07624e-07 -6.77197e-08 1.58337e-07 200 196 144
-1.10071e-07 -4.95395e-08 1.54977e-07 193 190 138
-1.09168e-07 -4.17944e-08 1.59971e-07 191 188 135
-1.11566e-07 -4.75733e-08 1.68999e-07 194 189 139
-1.12159e-07 -7.30499e-08 1.57955e-07 201 196 144
-1.07718e-07 -7.14913e-08 1.57433e-07 201 196 144
-9.88744e-08 -3.30222e-08 1.88569e-07 199 190 168
-1.44911e-07 -8.09913e-08 2.33079e-07 201 196 146
-1.14619e-07 -5.60864e-08 1.64137e-07 195 192 142
-8.571e-08 -6.13792e-08 1.64548e-07 200 200 148
0.139477 0.0408306 0.593842 83 76 52
-1.08821e-07 -4.01553e-08 1.63878e-07 176 172 118
-1.1342e-07 -5.74344e-08 1.65436e-07 198 194 146
-1.48232e-07 -7.93851e-08 2.33389e-07 198 195 145
-1.46355e-07 -6.55473e-08 2.08725e-07 195 192 142
-9.27599e-08 -5.98047e-08 1.63924e-07 200 198 149
-1.12969e-07 -5.88602e-08 1.84589e-07 196 193 142
-1.14559e-07 -5.00653e-08 1.31595e-07 200 196 146
-1.11976e-07 -5.01369e-08 1.66142e-07 193 189 136
-1.02615e-07 -9.63288e-08 2.19048e-07 200 198 148
-1.04151e-07 -6.88834e-08 1.59252e-07 200 196 144
-1.13491e-07 -4.96875e-08 1.86395e-07 193 188 132
-1.15341e-07 -6.10674e-08 1.97113e-07 196 194 142
-1.09316e-07 -4.50559e-08 1.55835e-07 194 190 141
-1.10133e-07 -5.00255e-08 1.30895e-07 200 196 147
-1.14203e-07 -5.75838e-08 1.63517e-07 198 194 144
-0.0978351 -0.113028 0.529674 196 194 141
-1.10428e-07 -5.12967e-08 1.55696e-07 195 191 144
-1.12232e-07 -5.04072e-08 1.65481e-07 193 188 137
-1.22698e-07 -5.41554e-08 1.45641e-07 200 196 146
-1.02036e-07 -5.93016e-08 1.46688e-07 200 195 144
-1.14478e-07 -5.68103e-08 1.63697e-07 198 193 144
-1.0285e-07 -3.01908e-08 1.86823e-07 202 192 175
0.0616082 -0.0311637 0.272116 158 165 120
-1.13926e-07 -5.79733e-08 1.68719e-07 198 193 144
-1.06741e-07 -6.00217e-08 1.5394e-07 201 196 144
-1.09348e-07 -4.12806e-08 1.62568e-07 188 185 131
-1.04699e-07 -5.78869e-08 1.46736e-07 201 196 144
-1.14626e-07 -5.69044e-08 1.63237e-07 198 194 146
-1.10989e-07 -7.41464e-08 1.55578e-07 201 196 144
-1.10628e-07 -4.78459e-08 1.63028e-07 194 190 141
-1.07185e-07 -5.79815e-08 1.49566e-07 201 196 144
-1.08195e-07 -7.19426e-08 1.56109e-07 201 196 144
-1.10107e-07 -6.98081e-08 1.58387e-07 201 196 144
-1.16359e-07 -9.04466e-08 2.21815e-07 199 197 144
-1.02004e-07 -5.96172e-08 1.47789e-07 201 196 146
-1.16031e-07 -5.91195e-08 1.98951e-07 194 191 140
-9.85866e-08 -3.41722e-08 1.79265e-07 198 189 168
-1.03993e-07 -5.75253e-08 1.52868e-07 201 196 148
-1.01499e-07 -5.85215e-08 1.4384e-07 201 196 145
-1.0959e-07 -4.14285e-08 1.62186e-07 190 188 134
-1.15223e-07 -5.61529e-08 1.67564e-07 196 192 142
-1.04469e-07 -5.74706e-08 1.52727e-07 201 196 146
-1.05378e-07 -7.01831e-08 1.60475e-07 200 195 144
-1.0951e-07 -4.41393e-08 1.56125e-07 194 190 142
-1.14796e-07 -5.67883e-08 1.67947e-07 195 192 142
-1.09992e-07 -7.32704e-08 1.5581e-07 189 184 133
-1.17678e-07 -6.81765e-08 1.6111e-07 189 184 133
-1.13185e-07 -6.52538e-08 1.66916e-07 189 184 133
-9.52216e-08 -6.99163e-08 1.72926e-07 188 187 134
-8.68721e-08 -7.07824e-08 1.69835e-07 188 188 136
-1.0709e-07 -7.11335e-08 1.58576e-07 188 184 134
-8.1516e-08 -6.61761e-08 1.62122e-07 190 190 138
-1.16464e-07 -6.67295e-08 1.61483e-07 189 184 133
-1.0875e-07 -6.87041e-08 1.57719e-07 189 184 133
-9.13271e-08 -5.26254e-08 1.57004e-07 184 182 129
-9.48277e-08 -5.23373e-08 1.57692e-07 184 182 127
-9.9201e-08 -6.72853e-08 1.57132e-07 189 187 134
-1.09371e-07 -6.95857e-08 1.56473e-07 189 184 133
-1.10754e-07 -7.35171e-08 1.62082e-07 188 183 132
-1.12059e-07 -7.47842e-08 1.61418e-07 188 183 132
-1.1617e-07 -6.86573e-08 1.73495e-07 188 183 132
-8.05847e-08 -6.7875e-08 1.64334e-07 191 190 140
-6.88786e-08 -8.49937e-08 1.59216e-07 190 191 138
-1.87665e-07 -1.75399e-07 3.18318e-07 190 184 130
-7.01707e-08 -8.67688e-08 1.62041e-07 189 190 138
-7.01938e-08 -8.62103e-08 1.61244e-07 188 190 137
-1.11746e-07 -1.33685e-07 2.7101e-07 190 186 134
-1.27361e-07 -8.37154e-08 2.032e-07 190 186 134
-1.39228e-07 -8.58805e-08 1.94756e-07 190 186 134
-1.15857e-07 -7.74168e-08 1.79293e-07 190 186 134
-1.25155e-07 -9.08302e-08 1.75869e-07 190 186 134
-9.29091e-08 -5.1728e-08 1.74594e-07 186 186 132
-1.02042e-07 -7.77926e-08 1.81888e-07 188 187 134
-1.25855e-07 -9.62464e-08 1.99703e-07 188 184 133
-8.8582e-08 -7.09494e-08 1.59356e-07 168 166 112
-1.09994e-07 -3.67436e-08 1.73565e-07 172 162 146
-1.13732e-07 -7.41492e-08 1.51007e-07 166 162 106
-1.14094e-07 -6.27488e-08 1.58714e-07 166 162 106
-8.06711e-08 -6.63196e-08 1.60442e-07 169 168 116
-8.22598e-08 -7.19248e-08 1.61218e-07 168 168 112
-1.09191e-07 -7.29366e-08 1.55997e-07 166 162 106
-1.06868e-07 -5.98737e-08 1.60497e-07 168 164 108
-8.5741e-08 -6.14059e-08 1.63975e-07 168 168 114
-1.11735e-07 -7.1921e-08 1.54106e-07 166 162 106
-9.59104e-08 -6.34099e-08 1.65438e-07 167 166 108
-1.12731e-07 -7.24182e-08 1.53285e-07 166 162 106
-9.95017e-08 -5.92002e-08 1.61904e-07 168 166 110
-9.39752e-08 -6.79793e-08 1.61485e-07 166 166 110
-1.0283e-07 -6.00293e-08 1.58735e-07 166 164 104
-1.13421e-07 -6.31527e-08 1.63189e-07 166 162 106
-1.0703e-07 -6.70468e-08 1.59322e-07 166 162 106
-1.00064e-07 -5.70431e-08 1.58518e-07 166 164 108
-1.11592e-07 -6.38866e-08 1.64589e-07 166 162 106
-9.95877e-08 -5.80192e-08 1.6042e-07 166 165 109
-1.11958e-07 -7.21485e-08 1.54222e-07 166 162 106
-1.12308e-07 -7.43086e-08 1.52578e-07 166 162 106
-8.39204e-08 -7.06378e-08 1.62438e-07 168 168 112
-8.034e-08 -6.49348e-08 1.60113e-07 168 168 116
-1.15692e-07 -6.75475e-08 1.57717e-07 166 162 106
-8.28246e-08 -6.1073e-08 1.61433e-07 169 169 115
-1.07079e-07 -6.33017e-08 1.63583e-07 166 162 106
-9.35369e-08 -6.09513e-08 1.65248e-07 168 168 111
-1.08122e-07 -7.18298e-08 1.57456e-07 166 162 106
-9.71796e-08 -5.72022e-08 1.62806e-07 165 164 109
-9.75752e-08 -5.50981e-08 1.62569e-07 162 158 100
-1.08005e-07 -3.99255e-08 1.72488e-07 144 142 88
-8.749e-08 -6.52634e-08 1.64859e-07 168 167 113
-1.14547e-07 -6.75591e-08 1.58273e-07 166 162 106
-1.07587e-07 -7.18829e-08 1.57762e-07 166 162 106
-8.43058e-08 -5.89032e-08 1.62582e-07 169 168 112
-9.05172e-08 -5.43704e-08 1.61932e-07 139 132 94
-1.12342e-07 -6.33806e-08 1.64456e-07 166 162 106
-1.17083e-07 -7.08479e-08 1.66016e-07 164 160 106
-9.03464e-08 -5.36178e-08 1.62608e-07 152 149 100
-9.13333e-08 -6.97237e-08 1.62071e-07 168 166 110
-8.50483e-08 -6.296e-08 1.6734e-07 170 169 116
-7.01198e-08 -6.05671e-08 1.60869e-07 169 172 117
-1.10829e-07 -6.52307e-08 1.68383e-07 164 160 106
-9.44533e-08 -6.97194e-08 1.73298e-07 166 166 110
-1.16243e-07 -6.71332e-08 1.70667e-07 164 160 106
-9.7081e-08 -5.6169e-08 1.62107e-07 162 160 105
-9.53724e-08 -5.62921e-08 1.6778e-07 160 158 104
-8.49777e-08 -5.93115e-08 1.67072e-07 163 163 109
-9.06658e-08 -5.42307e-08 1.60889e-07 137 132 91
-9.17828e-08 -7.73669e-08 1.93964e-07 169 166 109
-7.66745e-08 -8.12627e-08 1.77903e-07 169 168 116
-7.62115e-08 -8.33045e-08 1.78854e-07 168 168 114
-1.25386e-07 -8.80966e-08 1.65146e-07 168 164 108
-7.8172e-08 -7.20839e-08 1.81643e-07 168 168 114
-1.16967e-07 -7.94173e-08 1.72335e-07 168 164 108
-9.27658e-08 -6.21921e-08 1.77214e-07 166 165 110
-1.09743e-07 -7.25069e-08 1.76206e-07 168 164 108
-1.25341e-07 -8.94105e-08 1.65602e-07 168 164 108
-9.28709e-08 -5.0396e-08 1.80688e-07 159 158 99
-8.21678e-08 -8.37074e-08 1.94238e-07 169 170 114
-1.1868e-07 -7.31467e-08 1.82546e-07 168 164 108
-1.18506e-07 -7.67404e-08 1.86761e-07 168 164 108
-8.13869e-08 -8.45158e-08 1.72764e-07 168 168 112
-9.74486e-08 -7.31412e-08 1.80255e-07 164 163 108
-1.01011e-07 -5.58801e-08 1.68134e-07 164 162 106
-1.27488e-07 -5.39032e-08 1.96691e-07 163 160 106
-1.06852e-07 -7.41421e-08 1.73195e-07 166 164 109
-1.02685e-07 -6.95847e-08 1.82744e-07 165 164 106
-1.12375e-07 -7.22509e-08 1.55313e-07 164 160 104
-1.13765e-07 -6.43656e-08 1.60646e-07 164 160 104
-1.02549e-07 -6.97046e-08 1.83071e-07 166 164 107
-5.39941e-08 -1.40806e-07 2.93702e-07 167 169 112
-1.41453e-07 -4.8991e-09 3.29942e-07 174 166 150
-8.77003e-08 -1.13444e-07 2.77569e-07 166 166 109
-1.09176e-07 -6.96606e-08 1.45687e-07 164 160 104
-6.98379e-08 -8.43477e-08 2.10972e-07 165 166 112
-1.17936e-07 -5.66275e-08 1.72528e-07 163 161 108
-1.13259e-07 -5.38053e-08 1.65181e-07 163 160 111
-1.19356e-07 -5.61542e-08 1.7499e-07 162 160 110
-9.35893e-08 -1.49766e-07 2.22891e-07 166 166 109
-1.37804e-07 1.04616e-08 4.00386e-07 172 164 146
-9.96237e-08 -7.14385e-08 1.69299e-07 166 164 108
-7.42362e-08 -4.95184e-08 1.30206e-07 154 160 105
-1.07581e-07 -3.64755e-08 1.73532e-07 168 156 136
-8.49304e-08 -8.78575e-08 1.75121e-07 157 157 100
-3.78887e-08 -2.61505e-07 3.48104e-07 154 157 104
-1.07965e-07 -3.92294e-08 1.73214e-07 128 124 76
-9.48843e-08 -7.09772e-08 1.56509e-07 156 155 99
-8.03734e-08 -6.12279e-08 1.52844e-07 154 156 100
-1.10714e-07 -7.04175e-08 1.56934e-07 152 149 94
-1.09756e-07 -6.9414e-08 1.56979e-07 152 150 94
-9.5574e-08 -7.0614e-08 1.56726e-07 156 155 98
-1.09662e-07 -6.38914e-08 1.59383e-07 152 150 96
-9.89589e-08 -6.89906e-08 1.57748e-07 156 154 99
-8.26887e-08 -5.98327e-08 1.54444e-07 155 156 99
-1.17523e-07 -7.7866e-08 1.48318e-07 152 149 94
-1.03891e-07 -6.76331e-08 1.53251e-07 154 150 96
-9.62172e-08 -6.50086e-08 1.49624e-07 158 153 97
-1.14331e-07 -3.41875e-08 1.94612e-07 168 156 139
-8.62227e-08 -5.96191e-08 1.49758e-07 159 156 101
-1.05052e-07 -7.37425e-08 1.7403e-07 157 154 98
-1.11575e-07 -3.53958e-08 1.92815e-07 168 155 138
-1.046e-07 -6.77471e-08 1.4081e-07 156 152 96
-8.3487e-08 -5.92271e-08 1.45672e-07 156 156 101
-1.03109e-07 -6.77538e-08 1.45964e-07 156 152 96
-8.41613e-08 -5.57806e-08 1.57802e-07 158 158 100
-9.20718e-08 -7.82234e-08 1.57987e-07 156 156 98
-9.26783e-08 -7.71055e-08 1.58492e-07 154 154 99
-9.09281e-08 -8.15111e-08 1.56992e-07 156 156 100
-8.55987e-08 -5.50749e-08 1.57272e-07 104 103 63
-8.505e-08 -7.19411e-08 1.56381e-07 157 158 100
-9.73028e-08 -6.93054e-08 1.61163e-07 153 152 98
-1.15318e-07 -7.52538e-08 1.6211e-07 150 148 93
-9.30933e-08 -7.68279e-08 1.58357e-07 154 154 98
-1.03772e-07 -7.04618e-08 1.63111e-07 152 150 94
-9.17849e-08 -7.85018e-08 1.57823e-07 154 154 99
-8.96798e-08 -8.06998e-08 1.56879e-07 155 156 100
-9.07887e-08 -8.16392e-08 1.5691e-07 156 156 100
-8.33751e-08 -7.1969e-08 1.5584e-07 156 156 101
-1.02904e-07 -7.8427e-08 1.6009e-07 151 149 94
-8.7216e-08 -8.31164e-08 1.55864e-07 156 156 100
-8.1091e-08 -6.32551e-08 1.52551e-07 154 152 99
-1.29115e-07 -9.86857e-08 1.87669e-07 156 152 94
-1.29616e-07 -9.90716e-08 1.87775e-07 156 152 94
-8.73691e-08 -6.00557e-08 1.49791e-07 154 152 96
-1.68327e-08 -2.13772e-07 2.77452e-07 158 160 106
8.61475e-09 -2.77943e-07 3.19859e-07 155 159 104
-1.26741e-07 -9.7668e-08 1.88985e-07 156 152 94
-8.26311e-08 -6.32522e-08 1.53648e-07 156 155 98
-8.44409e-08 -1.54779e-07 2.27057e-07 157 157 101
-1.17671e-07 -8.58827e-08 1.69287e-07 160 154 95
-1.20382e-07 -8.90215e-08 1.84127e-07 160 154 95
-1.184e-07 -8.40093e-08 1.76909e-07 160 154 95
-1.25267e-07 -9.50951e-08 1.81587e-07 158 153 94
-1.25338e-07 -1.41735e-07 3.03689e-07 156 153 96
-1.28236e-07 -9.59547e-08 1.85382e-07 158 153 94
-1.30788e-07 -9.14321e-08 2.27404e-07 158 153 94
-1.29171e-07 -9.04425e-08 2.23728e-07 158 153 94
-1.23115e-07 -9.06996e-08 2.1986e-07 158 153 94
-1.30541e-07 -8.94802e-08 2.20872e-07 158 153 94
-7.9681e-08 -6.86877e-08 1.63828e-07 154 156 100
-8.54719e-08 -5.31845e-08 1.51301e-07 153 153 96
-7.68709e-08 -7.41273e-08 1.6411e-07 154 156 99
-1.22545e-07 -1.05697e-07 2.28801e-07 153 151 92
-8.48849e-08 -5.18637e-08 1.47728e-07 114 114 70
-7.86146e-08 -6.48805e-08 1.57277e-07 156 158 101
-8.49528e-08 -5.20859e-08 1.48358e-07 119 118 72
-7.65013e-08 -7.35171e-08 1.63567e-07 155 157 100
-6.80968e-08 -7.8127e-08 1.37954e-07 154 158 102
-6.75574e-08 -8.19824e-08 1.37519e-07 154 158 102
-8.65682e-08 -6.24876e-08 1.44924e-07 154 152 96
-8.01799e-08 -6.15614e-08 1.47716e-07 150 150 97
-7.82125e-08 -6.972e-08 1.40951e-07 151 154 100
-8.2334e-08 -6.54996e-08 1.40235e-07 151 151 98
-8.55888e-08 -6.57455e-08 1.44702e-07 152 152 96
-6.73875e-08 -8.07193e-08 1.37568e-07 154 158 102
-8.06922e-08 -6.19168e-08 1.46821e-07 152 151 98
-9.12435e-08 -5.89766e-08 1.37539e-07 156 152 97
-6.73849e-08 -8.06459e-08 1.3757e-07 154 158 102
-8.18108e-08 -6.82313e-08 1.46442e-07 152 152 99
-7.99796e-08 -6.31383e-08 1.4883e-07 152 152 98
-9.46402e-08 -5.84634e-08 1.46473e-07 158 153 96
-9.23201e-08 -3.45598e-08 1.47927e-07 167 154 138
-8.34396e-08 -6.42828e-08 1.41273e-07 152 153 98
-9.68515e-08 -6.10244e-08 1.46209e-07 158 152 96
-9.35614e-08 -5.81783e-08 1.41506e-07 159 154 97
-8.19067e-08 -6.11008e-08 1.47637e-07 152 152 99
-8.22131e-08 -6.52113e-08 1.40609e-07 154 153 99
-9.13057e-08 -5.91043e-08 1.3937e-07 158 154 98
-7.98129e-08 -5.85792e-08 1.4349e-07 152 154 100
-7.7638e-08 -6.80141e-08 1.3807e-07 154 156 101
-8.19825e-08 -5.16069e-08 1.4899e-07 122 118 80
-9.04873e-08 -6.0146e-08 1.38206e-07 158 154 97
0.000228896 -0.000455675 0.00043381 152 158 100
-0.000338792 0.000734982 0.00496123 160 150 129
-4.36582e-08 -5.46016e-08 1.55185e-07 160 165 112
-4.62576e-08 -5.65849e-08 1.6204e-07 153 161 109
-1.01132e-07 -1.0279e-07 2.0168e-07 160 154 96
-0.0139274 0.00182053 0.0404971 171 158 140
-5.23133e-08 -5.79687e-08 1.65327e-07 154 160 108
-4.3375e-08 -5.69059e-08 1.63903e-07 153 161 110
-4.89563e-08 -5.75147e-08 1.64627e-07 116 120 82
-0.00618587 -3.60493e-05 0.0174317 135 128 92
-4.99865e-08 -5.80798e-08 1.66123e-07 152 159 107
-4.03483e-08 -5.43449e-08 1.55399e-07 160 165 110
-5.26939e-08 -5.7976e-08 1.65432e-07 154 160 108
-8.29084e-08 -5.46853e-08 1.40389e-07 156 154 99
-1.01016e-07 -4.24169e-08 1.52135e-07 162 156 96
-8.87095e-08 -3.83621e-08 1.46118e-07 168 156 135
-7.37846e-08 -6.49985e-08 1.28772e-07 156 158 106
-9.55256e-08 -3.94697e-08 1.466e-07 166 158 120
-9.08189e-08 -3.83013e-08 1.44675e-07 169 157 136
-8.8839e-08 -3.6021e-08 1.49865e-07 108 104 84
-7.53073e-08 -6.57066e-08 1.31561e-07 154 154 103
-8.23571e-08 -5.11398e-08 1.49695e-07 156 154 99
-1.02071e-07 -3.49838e-08 1.60003e-07 166 154 139
-1.06977e-07 -6.82677e-08 1.64846e-07 161 156 98
-8.28744e-08 -5.17344e-08 1.40668e-07 156 155 100
-8.42303e-08 -4.96297e-08 1.38511e-07 157 155 104
-9.15114e-08 -3.42026e-08 1.53793e-07 158 149 132
-9.96153e-08 -6.96485e-08 1.55335e-07 160 154 98
-8.69349e-08 -4.8334e-08 1.37376e-07 159 154 97
-8.87676e-08 -3.80268e-08 1.48058e-07 167 154 132
-9.34736e-08 -7.37455e-08 1.81667e-07 158 155 99
-8.71376e-08 -6.14999e-08 1.44394e-07 158 156 100
-8.28758e-08 -5.18313e-08 1.40735e-07 156 155 100
-9.06061e-08 -5.89609e-08 1.39897e-07 160 154 98
-9.64939e-08 -3.69815e-08 1.50975e-07 170 157 140
-1.00278e-07 -3.73506e-08 1.54317e-07 170 158 137
-9.4099e-08 -5.54645e-08 1.52244e-07 160 154 98
-9.38771e-08 -4.07389e-08 1.44513e-07 164 156 116
-9.42169e-08 -5.877e-08 1.44369e-07 160 154 98
-8.27498e-08 -5.18559e-08 1.38948e-07 157 156 100
-8.37366e-08 -6.01368e-08 1.54556e-07 156 155 101
-8.25582e-08 -4.80565e-08 1.50178e-07 153 150 95
-9.70448e-08 -6.74944e-08 1.46622e-07 160 154 98
-1.07993e-07 -7.60088e-08 1.53743e-07 160 154 98
-9.45015e-08 -5.9635e-08 1.4914e-07 160 154 98
-1.08046e-07 -7.61664e-08 1.53848e-07 160 154 98
-8.22536e-08 -5.42863e-08 1.46314e-07 156 155 101
-8.71723e-08 -3.77779e-08 1.52354e-07 102 100 78
-8.40138e-08 -6.33741e-08 1.41474e-07 156 154 102
-8.34261e-08 -1.58853e-07 2.19757e-07 152 153 101
-8.34252e-08 -1.58169e-07 2.19308e-07 152 153 101
-1.13965e-07 -1.15282e-07 2.05132e-07 160 154 98
-8.48484e-08 -1.33988e-07 2.00116e-07 155 155 102
-1.09794e-07 -9.11835e-08 1.83405e-07 160 154 98
-5.94738e-08 -1.21353e-07 1.96297e-07 154 157 104
-6.79895e-08 -1.13346e-07 1.94452e-07 155 156 103
-1.03939e-07 -8.07532e-08 1.65421e-07 158 154 98
-7.47043e-08 -1.07626e-07 1.90962e-07 155 156 102
-1.09408e-07 -6.83325e-08 1.61532e-07 158 154 98
-1.10244e-07 -6.62094e-08 1.64281e-07 158 154 98
-1.00354e-07 -5.16674e-08 2.08632e-07 164 158 102
-1.01422e-07 -4.47641e-08 2.14544e-07 150 146 96
-8.56888e-08 -6.11289e-08 1.99564e-07 156 153 98
-9.0502e-08 -5.74855e-08 2.01176e-07 155 150 92
-3.56353e-08 -6.03357e-08 1.79576e-07 110 115 77
-8.85677e-08 -5.31496e-08 2.06502e-07 154 150 90
-8.62265e-08 -6.04849e-08 2.00337e-07 156 153 99
-8.51554e-08 -6.12896e-08 1.97843e-07 155 152 97
-1.26905e-07 -2.84921e-08 2.44596e-07 109 103 86
-8.42949e-08 -6.38231e-08 1.95633e-07 156 153 98
-8.45477e-08 -6.35238e-08 1.9599e-07 156 152 98
-7.75808e-05 -5.24303e-05 0.000154874 156 152 96
-2.2683e-05 -2.24377e-05 0.000144096 159 154 98
-7.57401e-08 -7.02625e-08 1.38789e-07 154 154 101
-8.03407e-08 -5.71366e-08 1.41221e-07 156 155 100
-8.17401e-08 -6.49223e-08 1.39603e-07 158 156 103
-7.65739e-08 -6.74852e-08 1.36091e-07 154 156 102
-8.75917e-08 -5.62838e-08 1.2676e-07 163 157 100
-8.14262e-08 -6.75659e-08 1.43041e-07 157 156 102
-9.30266e-08 -5.84789e-08 1.42816e-07 163 157 100
-8.43014e-08 -4.84169e-08 1.38527e-07 160 156 101
-8.83808e-08 -5.58758e-08 1.25552e-07 163 157 100
-8.87179e-08 -3.86577e-08 1.45111e-07 137 132 88
-1.02852e-07 -7.1609e-08 1.58161e-07 163 157 100
-8.94065e-08 -5.65844e-08 1.30635e-07 163 157 100
-7.86936e-08 -6.69178e-08 1.36886e-07 156 156 102
-9.07954e-08 -4.09787e-08 1.42113e-07 163 158 100
-8.70903e-08 -5.57144e-08 1.2472e-07 163 157 100
-9.53391e-08 -3.37506e-08 1.49432e-07 168 156 142
-8.3829e-08 -5.10766e-08 1.40842e-07 105 103 60
-8.87056e-08 -5.67807e-08 1.29288e-07 163 157 100
-9.97132e-08 -4.02999e-08 1.29438e-07 163 158 100
-8.16091e-08 -5.39761e-08 1.38892e-07 158 156 102
-8.74931e-08 -5.67345e-08 1.26364e-07 163 157 100
-8.75435e-08 -7.43097e-08 1.81789e-07 158 156 102
-9.16215e-08 -3.39038e-08 1.46944e-07 163 152 137
-9.49095e-08 -3.7251e-08 1.46441e-07 170 157 136
-8.64872e-08 -6.4323e-08 1.4729e-07 158 156 102
-8.2242e-08 -5.30762e-08 1.40037e-07 158 156 101
-8.6006e-08 -4.66323e-08 1.40917e-07 160 154 98
-9.69922e-08 -8.0516e-08 1.96323e-07 160 156 103
-9.19608e-08 -5.90392e-08 1.40201e-07 162 158 102
1.05508e-07 -1.10482e-07 3.58841e-07 157 164 111
-1.00997e-07 -6.95519e-08 1.59365e-07 162 157 100
-9.41334e-08 -7.74658e-08 1.90471e-07 160 158 102
1.20975e-07 -1.31052e-07 4.32744e-07 154 162 108
-8.83689e-08 -5.739e-08 1.27369e-07 161 158 102
-9.04994e-08 -4.90347e-08 1.39729e-07 161 158 102
-9.04793e-08 -5.89969e-08 1.57693e-07 160 156 102
-9.17289e-08 -5.88464e-08 1.38831e-07 162 158 102
-9.60157e-08 -5.41275e-08 1.51925e-07 162 158 101
-9.51553e-08 -6.18653e-08 1.6533e-07 162 159 103
-7.49175e-08 -1.08616e-07 2.27321e-07 157 158 104
4.85291e-08 -6.19429e-07 6.83417e-07 154 158 102
-1.0512e-07 -6.30403e-08 1.52465e-07 160 156 100
-2.05867e-07 -1.8823e-06 2.06753e-06 156 156 100
-3.94767e-07 -5.09231e-06 5.41406e-06 156 156 100
-1.24996e-05 -0.000218082 0.000226817 157 156 101
-1.29176e-07 -7.62075e-08 2.03491e-07 160 155 99
-1.2812e-07 -7.62596e-08 2.01304e-07 160 155 99
-1.10551e-07 -6.93195e-08 1.89237e-07 158 154 98
-1.08863e-07 -6.7243e-08 1.60214e-07 160 155 99
-1.06823e-07 -7.61266e-08 1.73164e-07 158 155 98
-1.07237e-07 -7.59729e-08 1.90892e-07 158 154 98
-1.16185e-07 -6.34354e-08 1.72907e-07 160 155 99
-8.62651e-08 -6.2145e-08 1.61342e-07 155 156 100
-1.04659e-07 -6.62677e-08 1.8128e-07 155 154 98
-8.29345e-08 -5.62743e-08 1.72742e-07 151 151 102
-1.14047e-07 -1.00902e-07 1.86018e-07 152 152 96
-8.19757e-08 -8.52532e-08 1.75139e-07 156 158 101
-8.69619e-08 -7.11137e-08 1.86138e-07 152 155 98
-7.62832e-08 -8.93531e-08 1.7168e-07 156 158 100
-8.51193e-08 -4.39134e-08 1.92625e-07 105 98 53
