ply
format ascii 1.0
element vertex 764
property float x
property float y
property float z
property uchar red
property uchar green
property uchar blue
end_header
-12.7112 -0.717924 41.019 0 255 0
-12.5394 -0.950595 40.749 0 255 0
-11.7824 -0.884677 41.0305 0 255 0
-12.5401 -0.952439 40.4976 0 255 0
-14.1502 -1.12636 39.7977 0 255 0
-14.4155 -1.51651 39.604 0 255 0
-16.2994 -1.55629 39.1732 0 255 0
-11.347 0.305069 39.7301 0 255 0
-13.1448 -1.46684 39.5795 0 255 0
-13.3631 -1.40928 39.65 0 255 0
-13.1356 -1.67855 39.8277 0 255 0
-13.6955 -1.77595 39.9059 0 255 0
-46.5479 -22.3882 87.7262 0 255 0
-14.8013 -2.04045 39.6655 0 255 0
-13.675 -2.00807 39.6763 0 255 0
-16.5756 -5.26785 52.269 116 67 60
-16.8115 -5.69903 52.825 108 60 52
-15.9673 -1.55513 52.3474 95 96 74
-17.356 0.0209674 50.7064 130 139 98
-16.9194 -6.23242 54.1607 99 50 39
-18.2993 -5.46086 52.6127 140 94 93
-16.3955 -4.80364 51.6592 131 102 97
-16.2156 -4.80597 51.1027 118 66 60
-16.3807 -4.90425 51.7558 124 71 63
-15.9351 -4.87664 52.6465 100 54 41
-16.099 -4.55433 51.0325 106 62 52
-16.8855 -0.248834 50.0352 222 230 184
-15.3493 -0.604465 43.8069 212 213 180
-17.4557 0.0476283 50.4919 140 150 94
-19.6478 0.26808 48.4067 124 120 82
-15.4849 -0.681956 43.6215 218 222 181
-15.3571 -0.629305 43.701 218 222 182
-15.5239 -0.698947 43.5918 218 223 184
-16.4809 -5.88211 54.327 98 50 41
-15.7728 -4.83855 52.7428 140 86 62
-19.6044 -6.37447 54.7126 128 92 92
-17.5187 0.0151039 50.4581 144 152 101
-17.543 0.0832189 51.2636 214 220 180
-15.4076 -0.67564 43.5807 218 223 184
-16.1723 -4.91602 52.3981 101 50 36
-15.4879 -0.695587 43.5915 218 222 183
-17.5599 0.234132 51.039 151 160 116
-16.3542 -0.299301 50.1347 158 157 102
-18.8258 0.601584 52.3948 133 142 94
-19.6216 0.249721 48.4443 124 121 88
-18.8477 0.743021 52.1804 122 135 90
-17.3412 -0.140635 50.075 157 160 105
-16.0772 -0.869379 46.3092 132 132 127
-15.9839 0.234842 49.9347 126 140 95
-15.3626 0.148231 48.18 132 144 96
-15.7972 0.538493 50.7098 225 228 182
-15.6629 -0.755699 49.878 146 144 114
-17.8462 0.302647 50.5713 140 154 102
-13.941 0.353179 48.318 124 124 94
-16.1844 -5.47063 54.2693 134 84 63
-15.5109 -0.663221 43.7136 220 223 184
-16.5068 -5.58471 52.5964 96 46 40
-16.5346 -0.327063 50.5288 158 158 105
-15.7108 -3.96094 49.7131 112 73 65
-17.5708 0.102762 50.278 146 152 96
-16.2023 0.573211 51.0957 118 132 86
-19.4413 -0.00244501 49.8065 197 197 159
-17.7786 -0.0514281 51.1253 144 154 102
-15.5697 -0.632366 49.7768 131 133 104
-15.9513 1.17155 51.8903 192 194 153
-18.424 0.584664 51.6295 130 141 92
-18.8794 0.672219 52.2305 128 138 96
-18.4795 0.541027 51.6163 132 145 100
-15.4384 -0.828946 49.6763 116 119 91
-15.9269 0.944516 51.5148 191 194 148
-19.2904 1.04037 52.7107 122 138 93
-17.5697 -0.0701109 50.5104 158 162 106
-19.3875 0.411338 47.6468 220 222 178
-15.7346 -0.407799 49.3615 222 226 182
-16.5758 -0.173145 51.0625 138 145 98
-18.5003 1.21396 50.121 133 138 98
-17.464 0.0541302 51.3374 218 226 183
-16.1996 0.310222 51.4184 225 228 184
-16.0369 0.640764 51.2792 132 141 98
-17.8331 0.00772038 51.0005 154 160 103
-15.4774 -0.637606 43.9241 220 224 184
-17.6051 0.00538959 50.3704 159 165 114
-15.0788 1.15417 49.5719 133 134 99
-16.29 -0.320914 50.2607 145 149 100
-16.2782 -0.251206 50.685 129 138 93
-16.2277 1.46807 53.0034 204 206 164
-14.486 0.175074 48.8195 124 126 104
-15.9378 0.196464 50.5073 136 144 99
-15.5791 1.30148 51.3454 220 222 175
-15.8057 1.3842 51.8628 202 205 161
-15.5252 -0.651171 44.6024 120 118 108
-16.18 0.050425 51.0934 230 233 189
-15.5528 -0.317681 49.0042 230 232 190
-15.2086 0.21909 47.1163 217 224 179
-18.0455 -0.386234 50.3904 217 228 187
-15.3725 -5.98508 53.7739 204 194 192
-16.8912 0.275745 45.4336 222 224 178
-21.8269 -6.39357 53.4813 203 196 189
-22.129 -6.40815 53.4648 202 194 188
-21.2883 -6.07662 53.2519 203 196 189
-19.5223 0.97432 47.4588 198 198 152
-17.8075 -1.93459 49.6959 50 47 28
-16.7214 1.20166 48.5989 72 80 38
-19.4579 0.798918 47.4706 198 200 155
-21.9839 -6.25198 53.42 202 196 188
-17.4769 -5.23303 51.0223 91 52 50
-17.6678 0.621892 49.6066 94 106 58
-16.7459 0.78004 48.8476 76 83 46
-16.7133 0.873804 48.855 200 202 156
-17.645 0.3228 49.7553 198 204 158
-16.7147 0.849201 48.8649 190 193 148
-12.5222 1.64976 50.0987 195 192 142
-21.1421 -7.64059 53.4197 196 187 185
-19.1062 0.830266 49.9917 202 206 157
-13.8667 2.02691 50.0043 200 198 146
-16.7063 1.68567 48.9515 201 202 153
-17.5801 1.57727 48.5586 199 202 152
-17.8678 0.595189 50.0723 104 116 68
-17.8644 0.40182 49.8661 188 194 147
-19.0778 0.127097 48.0224 103 98 74
-18.9478 0.0929058 47.9463 106 102 76
-15.4346 -4.6664 50.0994 66 26 19
-12.6669 -2.51521 45.3634 192 182 174
-11.0249 -0.904131 49.5241 182 178 126
-10.7036 -2.11332 49.5175 197 186 174
-10.8432 -1.13725 49.9319 174 171 119
-10.9284 -1.32779 51.4409 160 157 106
-10.996 -1.27243 50.7099 163 160 106
-5.74954 -38.6743 126.379 193 181 178
-14.8691 -3.49393 49.5896 100 50 32
-14.8578 -3.5777 49.4862 96 48 35
-13.4838 2.24789 52.0565 72 79 48
-15.4968 -4.09948 50.2039 96 44 33
-14.3582 -3.12817 49.5112 178 169 145
-13.4634 1.67591 50.3874 91 93 62
-13.4775 1.63696 50.3959 137 138 98
-15.9864 -2.78041 50.7605 84 44 32
-15.7321 -2.66382 50.5608 87 40 31
-13.0644 1.69647 50.0803 187 186 132
-12.8115 1.41596 49.777 184 185 134
-19.461 0.79723 47.516 188 188 139
-15.9639 0.0480908 49.4255 98 109 66
-15.854 0.104534 49.2449 95 106 64
-19.5022 0.868296 47.4393 187 188 140
-16.4819 1.52956 51.0874 185 190 140
-18.4388 0.983818 47.3698 187 189 138
-14.5369 1.2171 48.9469 202 202 150
-14.8435 1.18775 49.3877 202 200 150
-13.435 2.04823 51.0142 150 150 109
-17.6808 -5.56096 51.6559 121 78 76
-17.7699 -6.44692 52.4439 150 124 122
-12.1224 -0.0984826 47.3592 193 188 130
-12.3949 0.427351 47.2781 190 186 127
-17.3005 -6.65916 51.8537 182 172 174
-12.2834 -0.0303605 47.148 192 186 130
-12.2722 0.0075506 47.2334 193 188 131
-12.3414 0.0748513 47.2362 192 188 130
-14.0195 -2.27435 44.0707 87 64 42
-14.3699 -2.42622 44.6271 116 75 74
-14.4716 -2.81552 45.1442 85 62 39
-14.3876 -2.60749 44.8666 98 76 59
-14.2552 -2.79561 44.9286 110 60 52
-12.3604 -0.99393 41.6363 152 149 94
-12.3878 -0.976464 41.5173 170 166 110
-14.9367 -3.8737 46.5558 178 165 166
-14.1894 -3.06555 44.788 178 166 166
-12.4087 -1.03497 41.4944 196 186 172
-16.5644 -3.84291 48.7373 110 71 70
-16.3561 -4.6765 49.386 104 80 64
-16.1375 -4.49459 49.1145 94 60 45
-16.4494 -4.05765 48.8866 110 64 62
-15.9381 -4.52225 48.9906 110 58 49
-13.8449 1.252 49.3326 188 187 136
-18.2792 0.762048 49.2589 190 196 146
-16.2996 -4.79099 49.3698 86 64 45
-13.7331 1.64936 51.2547 157 156 112
-13.9153 1.04625 49.754 91 94 70
-13.6924 1.51602 49.8981 110 108 76
-13.3203 1.37535 49.8845 188 188 134
-15.8655 -5.75517 49.0965 182 172 171
-15.5318 -4.43382 50.382 55 62 36
-15.5824 -4.44394 50.2545 78 30 22
-18.2166 2.03773 50.7384 164 166 113
-16.5032 -4.76578 50.1434 110 64 58
-15.8805 -4.58437 49.8915 82 29 19
-17.0416 -4.25101 49.6847 70 34 30
-16.4268 -4.75457 50.106 91 41 36
-16.0758 -4.50788 50.0135 102 42 28
-17.3372 -3.32129 49.4389 68 36 32
-16.6462 -4.36107 49.8107 78 37 34
-16.5842 -3.85012 49.4292 82 43 38
-15.9774 -4.50712 49.7815 114 54 34
-17.3581 -3.63922 47.7823 69 64 40
-16.3344 -3.11609 49.1287 64 30 27
-12.4468 -2.92411 48.1191 172 160 151
-17.5607 -3.38815 49.7146 82 50 46
-16.4538 -4.84757 49.9185 112 70 72
-17.5524 -3.9915 50.0329 93 63 58
-16.2047 -3.88902 49.785 61 24 16
-17.6113 -3.49246 49.7002 92 59 56
-16.495 -4.80779 50.405 106 56 52
-18.396 -1.3198 49.3926 142 148 111
-16.3689 -3.17841 49.1412 70 36 32
-16.4372 -3.28709 49.0889 70 35 33
-16.4748 -4.51479 50.1304 81 30 24
-14.7432 -0.821248 50.7339 59 58 32
-19.1514 0.371848 47.4522 170 170 119
-15.6918 -4.73442 50.6254 80 28 20
-16.272 -4.03071 49.6834 90 49 40
-17.3269 -4.05479 49.8754 56 26 20
-16.6636 -3.68385 49.2941 67 35 30
-17.1711 -3.93756 47.8706 168 162 154
-17.0313 -0.697587 45.261 168 174 124
-16.9897 -3.44335 49.2845 82 52 49
-17.005 -3.82494 49.4925 87 55 51
-15.825 -3.80116 49.2723 90 42 28
-16.3979 -3.11726 49.1144 65 28 23
-17.7291 0.807679 49.5313 77 86 40
-16.8153 -4.40513 49.8021 90 50 46
-17.0903 -3.73021 49.4486 60 32 29
-19.0127 0.191278 47.5758 85 80 47
-13.4946 1.66231 50.4964 77 80 44
-16.654 -5.06896 50.2454 90 51 52
-17.4246 -0.696923 48.5616 48 54 28
-16.8154 -0.477867 45.5976 169 174 124
-22.3735 -3.04199 49.2706 168 174 122
-17.5322 -3.60646 49.6167 84 55 51
-17.3544 -0.704283 48.5924 58 62 39
-14.4021 -4.30065 47.7601 160 147 146
-17.7406 -1.11298 49.2118 164 176 130
-17.6765 1.66533 53.3047 162 169 117
-13.4065 1.53698 50.644 164 163 107
-17.6454 -0.75888 48.776 55 60 39
-18.3511 1.5177 49.8617 168 172 118
-18.6025 -0.700105 49.3745 172 180 128
-11.6905 0.686069 50.9675 159 156 102
-16.9931 -0.956295 45.1809 168 175 126
-17.2492 1.71777 52.9504 163 169 115
-12.1089 -3.28321 48.2225 172 160 151
-14.1166 1.26326 50.3483 162 160 103
-16.8647 -0.816402 45.3908 168 174 124
-18.5654 -1.14754 48.9016 166 176 132
-17.8628 -0.332615 45.7173 170 174 124
-13.3629 1.38668 50.6546 163 162 104
-15.086 2.22831 51.4267 168 168 113
-18.3029 2.01316 53.1038 170 174 120
-17.2819 -3.92125 48.702 168 161 153
-17.1254 -3.45926 46.6863 177 169 160
-16.6154 -4.59699 47.4236 164 154 152
-17.8776 -3.82757 47.819 176 166 158
-17.5676 1.5232 52.5319 164 169 116
-22.496 -2.24006 49.3778 170 178 130
-21.4015 -2.02984 51.657 172 182 134
-21.1357 -2.12961 49.0906 170 179 132
-16.2467 -5.97706 49.9697 157 145 146
-14.3951 2.21566 51.2787 169 168 112
-14.3761 -4.27461 51.4683 160 147 134
-16.7748 -4.59875 48.5722 161 152 150
-13.6029 -5.31441 50.3498 170 158 152
-13.134 -4.51128 49.3729 170 158 154
-13.5022 -4.13567 48.7821 168 156 150
-13.5428 -4.09113 48.6319 168 156 150
-11.4864 -4.01006 50.3096 174 162 153
-15.3633 1.80426 51.425 168 168 114
-15.1325 -1.45488 50.9934 126 98 60
-17.1576 -3.66137 49.4796 86 56 52
-16.097 -3.46309 49.2556 82 43 37
-16.5151 -4.05774 49.5178 77 40 35
-17.0661 -3.65538 49.4356 86 58 56
-16.6095 -4.89887 49.9308 96 64 64
-16.3464 -3.86537 49.4025 68 34 26
-17.4701 0.86 50.2818 167 172 122
-10.8828 -1.11593 49.7587 148 147 94
-19.4438 1.00566 47.2554 168 171 117
-16.5208 -4.69196 49.907 82 33 29
-17.2022 -4.85588 50.325 95 56 52
-15.507 1.83993 51.0939 78 82 48
-17.6385 1.39077 50.3084 169 171 118
-17.9703 1.35932 49.9485 170 174 120
-12.369 -1.36114 49.402 136 130 72
-18.8337 1.31866 49.5836 172 176 121
-15.6988 1.64099 50.8528 169 170 113
-12.3662 1.11227 50.0626 162 160 105
-17.2888 -0.783484 45.8258 173 178 128
-12.2645 0.936162 50.2078 162 158 104
-15.7979 2.33608 51.7268 168 168 112
-12.378 1.24823 50.2434 160 159 104
-17.3401 -4.41482 47.6386 170 162 155
-12.0394 -1.1824 50.6302 154 148 89
-14.0247 1.41763 50.151 165 163 108
-15.9313 1.708 51.1765 167 169 113
-11.7804 -1.59296 50.2805 170 159 138
-20.9306 -1.82931 48.9049 170 179 132
-18.2495 1.2452 49.5476 118 128 82
-17.9449 1.73032 50.5094 110 118 72
-19.1974 0.521687 47.5952 170 172 119
-16.4221 -5.77936 50.4705 156 143 144
-19.3804 0.924531 47.0806 168 168 114
-20.4289 1.05697 47.4907 166 169 115
-10.809 -1.06426 49.43 148 144 91
-11.1555 -1.09171 49.5752 152 148 94
-11.1796 -1.08699 49.6523 154 150 97
-13.8151 1.80288 51.2912 82 81 54
-11.0677 4.40418 56.1081 172 166 110
-13.3595 2.20441 51.5235 166 165 116
-17.0176 -0.600728 45.2621 168 174 122
-16.9946 -0.610856 45.3141 170 176 122
-16.3128 -4.02381 49.5755 70 34 27
-15.4165 -2.26364 48.2174 48 49 30
-13.3322 1.88074 50.1753 56 64 22
-16.0683 -3.9492 49.5953 78 34 26
-16.0893 -4.30821 49.9324 86 31 20
-18.1049 1.88846 50.7023 168 170 117
-16.9453 -0.41153 45.6209 166 174 122
-16.8464 -0.361122 45.683 170 173 121
-16.5423 -3.66385 49.3617 83 46 42
-15.4939 -2.44685 48.2222 89 42 29
-16.9607 -0.43619 45.576 168 172 121
-19.5133 0.496041 47.8651 170 173 118
-16.0887 -3.56639 49.3527 62 26 18
-16.8698 -0.374427 45.7805 172 174 124
-16.9182 -0.400138 45.6342 167 174 123
-16.8692 -0.471912 45.6564 168 174 120
-13.1614 1.58215 50.1391 165 164 108
-17.0704 -0.522413 45.211 57 63 22
-13.9035 1.39153 50.2999 132 130 91
-12.5567 1.07582 49.5469 162 160 102
-13.0849 1.9406 49.7314 144 143 90
-17.5822 1.91277 50.5847 168 170 115
-12.4894 1.9166 50.025 165 164 110
-19.8416 -3.91622 47.316 177 169 157
-19.8789 -3.94428 47.4399 176 168 157
-16.0155 -6.82143 51.1392 160 149 148
-12.2062 1.5215 48.3903 166 165 110
-16.5114 -4.96063 50.1386 107 64 61
-17.8908 -2.00676 49.0768 160 165 124
-18.2703 -1.31926 49.3842 162 173 124
-17.925 -1.96415 49.1134 162 173 128
-17.8954 -2.03207 49.6484 47 28 11
-17.6152 -1.71893 50.1553 94 72 46
-16.2464 -0.747784 49.7228 90 92 42
-16.1839 -0.688749 49.8015 106 106 60
-17.8179 -1.58612 49.7123 162 174 127
-16.4998 -4.79055 49.9879 84 36 30
-16.2992 -3.52375 49.343 78 42 35
-16.1877 -0.637868 49.7908 98 98 56
-17.8304 -1.81139 49.7425 34 35 18
-15.6722 1.15906 50.5634 72 81 46
-19.3859 0.58671 47.576 168 170 116
-18.0014 1.0445 49.6477 94 104 56
-17.6962 -1.77079 49.7285 75 80 46
-14.0061 1.03529 49.9225 72 74 50
-15.7362 0.630963 49.7662 74 89 50
-19.4477 0.517037 47.5291 168 170 117
-18.3005 -1.5878 48.768 150 116 89
-14.9437 1.91794 50.9496 170 170 113
-16.4225 -5.45474 49.9357 154 142 142
-13.1973 1.39202 49.7661 168 167 110
-13.9456 1.28632 49.9745 166 162 107
-13.7104 1.63174 49.8664 168 167 110
-13.8819 1.54905 50.0847 168 168 112
-17.1012 0.894574 50.2073 168 172 117
-18.687 1.08854 47.8806 166 170 114
-17.3992 -0.585281 45.7031 160 166 116
-17.4087 -3.8547 47.8872 156 142 129
-17.2544 -3.85804 48.0695 158 150 142
-16.6716 -4.27847 49.6237 75 36 32
-17.3978 -0.623256 45.763 158 166 115
-16.1839 -4.21187 49.5272 85 38 31
-12.393 -3.08706 48.1811 164 151 140
-16.5896 -3.67614 49.5327 72 36 30
-17.3143 -4.4299 49.978 89 50 41
-17.4404 -0.53439 45.7954 162 166 116
-16.0114 -3.53917 49.3338 50 18 8
-16.4332 -4.33543 49.6921 88 39 32
-17.354 -4.00027 48.0243 154 144 136
-16.8555 -3.44817 49.2422 64 36 32
-16.3562 -3.95756 49.5102 96 59 52
-17.3601 -3.50269 47.8963 40 43 22
-16.1696 -3.8081 49.4337 62 28 21
-16.289 -4.95142 49.9024 98 53 47
-17.3928 -3.98017 47.9518 159 152 145
-16.9279 -0.226394 47.1892 48 46 28
-17.1969 -0.143841 46.7316 70 72 43
-12.3864 -2.99033 48.1603 164 152 142
-12.8422 -2.42264 48.2211 162 152 134
-17.0706 -3.34696 49.2689 80 46 42
-16.3764 -3.63115 49.6518 68 34 30
-17.1477 -0.151351 46.791 72 67 44
-15.833 -3.65423 49.5502 79 34 24
-15.9508 -4.30789 49.8889 82 28 18
-15.7363 -4.00017 49.7545 74 27 16
-17.464 -3.61315 47.9441 60 54 22
-12.6144 -2.71719 48.196 162 152 140
-16.5666 -3.75853 49.4883 78 40 32
-14.1983 -4.09222 47.8619 153 139 137
-19.1807 0.421985 47.686 161 165 110
-18.8257 0.170221 47.9423 162 165 113
-12.1542 -1.36579 48.4024 120 116 60
-18.283 -0.810518 49.2369 154 166 118
-17.248 -3.98346 48.6584 150 144 138
-18.4985 1.5242 49.1756 160 164 110
-19.2851 0.464905 48.9466 160 166 112
-18.5049 0.885456 48.9493 160 166 111
-19.4867 0.472751 47.3105 161 166 111
-19.1568 1.01445 47.4261 157 162 105
-15.3403 -5.63415 49.5807 155 141 140
-12.0858 -1.64864 48.4256 163 151 130
-18.1411 -4.61596 47.5879 158 150 144
-11.7946 -2.52824 48.0817 166 154 140
-14.5531 -1.54393 49.7357 150 150 92
-19.3155 1.04606 47.1804 156 159 102
-18.2505 1.14021 49.453 159 165 110
-18.516 0.90486 49.2176 160 166 110
-19.4373 0.785576 47.1728 89 95 56
-19.1625 0.740367 47.9172 158 164 106
-19.249 1.1704 47.4445 155 159 102
-16.1216 -5.64334 49.4754 155 141 141
-20.021 0.652745 47.2762 158 161 105
-19.5571 0.655191 47.187 159 163 106
-20.2513 0.608035 47.6239 159 162 106
-18.7003 1.6549 49.0153 157 161 104
-19.995 0.647857 47.4665 159 162 106
-18.8956 0.884851 48.113 159 163 108
-18.6012 1.22969 47.9746 158 161 106
-18.953 1.20155 48.6412 158 162 108
-18.8667 1.65956 49.0453 158 162 106
-19.2661 0.836631 46.6874 114 120 76
-18.9434 1.62582 48.954 158 162 106
-18.8063 1.31645 48.0345 156 160 104
-18.8837 2.16583 49.3317 155 159 104
-18.8296 2.11279 49.3796 158 160 106
-18.6467 1.27459 47.8961 157 161 106
-18.7996 1.16876 47.6014 156 162 106
-18.5645 1.57988 47.9308 156 160 102
-19.1833 1.87545 48.766 156 160 102
-19.1037 1.842 49.1162 158 162 105
-16.9038 -6.21565 54.946 82 46 28
-17.5306 -6.97042 56.1383 64 28 24
-13.3491 1.96652 52.4826 155 154 97
-13.945 2.3385 52.2692 158 158 104
-16.7217 -4.05803 49.5198 75 40 34
-16.055 -4.0691 49.674 70 26 18
-16.5104 -2.90001 48.9339 130 87 66
-16.5493 -3.89906 49.496 79 35 28
-16.5668 -3.19541 49.0967 74 34 30
-16.0136 -4.25146 49.8278 88 34 20
-16.5545 -3.99344 49.5405 88 47 40
-16.0553 -3.20303 49.1687 62 29 23
-16.7671 -4.59798 49.8621 92 57 57
-15.8762 -3.40799 49.4557 76 32 22
-16.6799 -4.78625 49.9847 84 44 36
-15.874 -4.05972 49.911 68 21 14
-16.0898 -3.54338 49.3634 58 28 23
-16.435 -3.17599 49.0445 69 34 30
-15.9257 -4.80149 50.2949 79 26 16
-17.0598 -3.24323 49.2218 64 37 32
-15.8692 -3.07637 49.2117 62 21 10
-16.4579 -0.0557998 49.2433 155 162 110
-16.4331 -3.80597 49.3263 76 36 30
-17.7781 -0.794345 49.1126 43 52 34
-17.1573 -0.495527 45.4288 102 110 66
-13.3563 1.04916 49.7406 154 154 97
-16.5208 -5.5925 50.1673 152 138 138
-17.4582 -3.93138 48.0326 158 150 141
-16.0519 -4.71648 50.2196 85 29 18
-15.6482 -4.30394 50.0962 93 38 28
-16.3682 -3.85741 49.5573 68 33 26
-15.443 -3.51654 48.98 64 26 15
-15.9129 -3.78417 49.6571 85 38 24
-15.9091 -4.00166 49.7396 76 28 18
-15.8668 -4.62796 50.1978 94 34 22
-16.5173 -4.43602 49.7244 84 36 29
-17.1632 -3.6472 49.4547 76 46 40
-16.7987 -4.07085 49.6025 75 36 30
-17.0506 -3.55895 49.3545 78 48 44
-16.3209 -4.11657 49.7524 58 21 16
-17.1793 0.147175 49.4811 94 102 58
-17.5393 -3.69212 48.4341 156 150 140
-16.2757 -3.80827 49.6166 82 48 42
-15.8044 -4.26307 49.8051 87 30 18
-17.4968 -0.933952 49.312 32 36 18
-18.376 -1.10379 49.2088 154 166 116
-15.8748 -4.19484 50.0463 80 27 17
-17.7479 -3.32931 49.2875 36 38 21
-16.8186 -0.170336 49.6183 112 112 60
-15.7442 -4.03923 49.7925 66 20 12
-17.6124 -3.28746 49.1701 53 47 29
-18.2505 -1.10342 49.1703 154 166 116
-17.3804 -3.83831 49.5956 84 52 46
-17.3846 -3.90366 49.6237 78 46 42
-14.6418 -5.19738 49.3193 156 142 140
-17.5919 -4.68606 49.0109 155 146 140
-17.5275 -5.81091 50.388 151 140 139
-17.4916 -4.88339 49.6321 154 144 138
-11.6401 1.63808 52.7885 152 148 93
-11.8693 1.28626 47.6913 155 152 95
-12.3034 1.5492 47.3279 155 152 98
-11.974 1.92874 47.4142 153 149 93
-11.8924 1.58206 47.6265 155 152 94
-12.6988 1.69681 47.7986 154 152 98
-12.1392 1.83634 47.3719 154 150 94
-12.2129 -1.07982 46.5573 156 152 95
-13.5022 1.8784 51.0412 130 129 94
-16.6125 -4.02159 49.6112 78 36 30
-17.2744 -3.68794 47.5794 158 148 134
-17.2634 -4.37542 50.2125 65 32 30
-17.6269 0.676101 50.5694 64 76 30
-13.2291 1.8889 50.1552 90 96 52
-18.4224 1.32794 49.917 110 119 72
-16.7133 -4.57306 49.7957 76 39 36
-17.5929 0.890965 50.2784 100 108 66
-17.505 -4.28154 50.3207 66 36 33
-17.4641 0.428995 49.5803 86 96 45
-17.7691 0.64813 50.266 66 82 30
-17.207 0.0170743 49.9081 66 74 36
-17.6672 0.669425 50.4348 67 80 29
-15.9174 -4.64047 49.7827 76 25 16
-17.6571 1.18482 50.3028 100 106 62
-15.8294 -4.72736 50.2208 80 26 17
-17.5824 -3.90105 50.1253 81 52 44
-17.4236 0.55543 50.628 112 122 69
-16.8446 -4.56811 50.0447 82 40 35
-17.5968 1.19855 50.293 160 164 110
-17.4803 0.465859 49.4506 90 102 50
-17.8126 0.803241 50.2816 68 81 32
-17.6084 0.680657 48.8222 96 108 66
-17.6761 0.69702 50.1975 68 82 34
-17.7737 0.67202 49.9973 88 100 48
-17.4468 -4.30183 50.1561 74 42 38
-17.198 0.11075 49.6023 76 85 40
-16.4746 -4.35983 49.6645 84 33 26
-17.3399 0.270962 49.6874 104 114 67
-17.1011 0.175101 50.0958 110 116 60
-18.3058 1.14758 49.508 152 156 102
-17.5733 0.540417 50.4942 76 87 40
-18.0995 1.13748 49.4564 84 94 52
-15.5378 -4.26365 50.1751 92 34 22
-17.1668 0.079881 49.7296 97 102 58
-18.1476 1.14618 49.7794 76 86 42
-16.2108 -4.30286 49.2222 94 40 32
-17.5605 0.930929 50.4415 107 112 65
-17.6168 0.505856 50.6473 78 89 42
-17.6003 1.12931 50.3331 134 138 90
-17.6148 0.51106 49.3206 135 143 88
-18.2458 1.28766 50.2337 132 138 83
-17.4733 -4.14369 50.2025 62 34 30
-17.7432 -4.56258 50.6624 85 46 34
-17.6602 1.1253 50.3371 98 106 64
-17.1796 0.0257666 49.5968 74 84 44
-17.3318 0.235171 49.9806 92 103 56
-16.1529 -5.34082 50.3767 136 102 94
-16.9297 -4.99005 50.2814 90 52 50
-15.8846 1.68755 51.374 135 140 88
-17.4652 1.65432 49.8076 159 163 108
-12.8035 2.13728 52.8998 154 153 96
-15.2268 2.08524 50.4179 160 160 102
-11.4964 -0.759036 54.5033 150 146 84
-13.6235 2.34361 50.128 158 159 102
-16.6872 -5.5265 50.3697 152 136 137
-18.3729 1.9351 49.7949 156 160 104
-12.6105 1.86821 49.9402 158 158 101
-12.5499 1.92738 49.8568 158 158 101
-17.1753 -5.96648 49.6034 154 143 141
-17.498 2.44164 50.8281 156 160 104
-18.453 -8.4674 56.7411 154 142 141
-16.7786 -4.69002 49.8014 85 46 42
-17.9739 0.961954 49.561 110 120 71
-16.5263 -4.61769 49.5118 82 38 34
-17.8781 1.28951 51.1379 105 112 66
-18.2704 1.90752 51.7732 95 105 58
-16.9353 -5.05984 50.5619 88 54 52
-13.4097 1.93254 49.4869 156 156 102
-18.766 2.08069 50.2347 155 160 103
-17.6387 2.18034 51.9544 157 160 106
-15.885 -5.45413 49.7585 150 136 136
-19.8916 1.52928 49.02 157 161 104
-19.1662 1.54262 50.1696 158 162 107
-19.0191 1.34924 50.4517 159 164 108
-15.7093 -6.55104 54.271 150 134 134
-17.6844 -4.55273 51.4435 66 34 31
-4.8762 -0.534389 61.4599 142 142 91
-12.9802 2.45419 50.9424 101 102 58
-12.7051 2.21998 51.461 154 154 98
-16.9351 -5.96078 52.336 116 83 76
-17.9504 3.22695 55.2275 156 160 104
-17.8203 3.28716 54.2849 157 158 104
-27.2719 0.325538 57.9419 154 161 108
-19.1967 3.29297 52.7235 154 158 103
-18.7931 -7.31202 54.2574 155 144 142
-18.4122 3.30888 52.9305 156 160 104
-18.155 3.90076 52.7337 153 157 101
-16.9865 3.55401 51.7858 154 155 100
-20.9116 -8.83356 64.9274 64 31 26
-25.1871 2.80187 59.8663 124 128 87
-25.9558 3.69693 58.1989 92 97 65
-22.9505 -8.76117 65.8613 86 56 49
-25.0742 2.93202 60.2123 68 70 48
-23.0544 -9.36712 66.5211 59 25 18
-26.3552 4.34543 58.0003 132 136 86
-24.6901 2.79397 60.7232 47 54 26
-25.176 2.91697 60.839 75 75 54
-21.754 -9.89731 65.6382 97 73 70
-45.0553 -0.771927 75.7034 150 163 114
-24.0944 5.14988 66.5703 108 116 67
-25.633 4.48147 67.052 148 158 107
-24.4472 2.69203 62.0131 92 103 68
-25.9444 4.40199 67.4073 148 158 108
-41.9557 1.52076 80.6101 140 156 111
-24.2255 -10.1919 68.3072 98 80 76
-23.5351 -10.1868 67.0548 117 104 98
-24.6849 -9.52863 66.6065 138 135 128
-26.3421 5.01718 63.0362 157 163 110
-22.3711 -12.1929 66.404 153 142 140
-16.6751 -13.6057 71.534 157 140 138
-19.871 -9.64561 66.618 86 35 26
-21.2 -8.02886 64.4387 78 47 30
-24.2243 5.07348 62.9872 156 162 110
-24.6067 6.54332 64.2917 38 56 18
-25.255 3.05008 59.9931 81 80 62
-22.653 -9.19441 65.8478 65 28 20
-24.2002 2.55642 60.8328 45 52 29
-19.9545 -9.22815 66.7394 82 32 28
-25.0198 5.8548 62.8482 158 164 112
-21.4201 -9.97625 66.3005 108 76 76
-26.0383 3.46217 58.7358 84 82 55
-24.5471 2.44591 60.074 154 160 112
-24.2728 2.34796 60.1709 113 122 79
-25.1445 3.00206 59.5943 84 84 62
-30.7235 2.27981 64.6848 153 162 110
-24.4941 2.52721 59.9895 106 110 74
-22.5838 -9.09773 65.2183 57 26 19
-24.9237 3.2259 60.2619 116 116 78
-30.4711 1.68418 64.7349 146 158 110
-23.8167 -8.94105 65.764 136 134 126
-22.6109 -9.77629 65.1946 127 117 114
-24.8432 2.60292 59.9812 154 160 116
-30.3419 2.63207 64.0054 154 163 110
-24.1314 4.54509 62.788 158 162 109
-21.002 -10.8335 66.6622 136 116 117
-25.4366 1.98508 59.8621 153 164 112
-18.2028 -10.9892 69.5233 145 124 122
-26.3176 3.20019 58.2892 158 165 111
-16.437 -1.02516 52.9456 41 44 30
-15.7784 -1.27717 55.44 64 51 24
-14.617 -1.57457 51.6751 72 58 30
-16.3177 0.151139 65.4925 148 142 84
-23.8823 4.80711 60.3876 154 160 108
-16.3624 -0.827052 51.2311 58 68 48
-15.2785 -0.510985 48.0055 54 60 43
-15.4282 -0.597548 48.1419 58 64 45
-15.5666 -0.443547 49.7832 64 65 48
-18.8079 0.977002 54.4057 35 45 20
-18.6253 1.24501 55.6928 90 100 56
-14.9347 -0.378727 46.9452 56 56 44
-17.8559 -0.484818 54.1473 103 108 66
-17.0475 -0.967828 57.0614 85 79 50
-15.4823 -0.529121 49.4005 58 60 42
-18.5663 1.5807 73.9324 112 112 66
-16.5589 -0.658649 54.0339 52 56 38
-15.9242 -0.583868 49.7794 58 70 51
-16.9162 -0.544752 52.5019 154 158 109
-19.6811 1.7185 59.4501 93 100 55
-16.9361 -0.992548 55.4527 54 56 45
-16.9274 2.40397 64.0626 41 48 24
-16.3717 5.56492 71.5367 58 60 37
-17.3491 1.2225 62.078 46 48 18
-18.5694 1.18464 72.4648 70 70 36
-17.9017 2.97344 88.9483 153 149 86
-15.0654 -0.455048 47.5832 63 63 52
-16.6267 -0.165521 57.98 70 74 38
-25.2724 5.52733 64.8132 144 152 103
-17.6495 1.50432 67.5512 42 48 20
-29.8324 8.6909 71.0736 115 124 83
-15.4119 -0.319207 47.7554 76 88 69
-25.6621 5.45212 66.3697 149 157 108
-23.2413 0.377094 71.2837 70 72 40
-15.9207 -0.48709 49.3025 74 85 65
-17.0904 -0.935376 54.0438 70 80 62
-15.8105 -0.36921 49.0265 79 88 72
-16.8143 -2.11183 56.5142 32 35 24
-15.7439 -0.778244 52.8488 66 69 33
-20.4955 -0.340554 62.8628 56 61 36
-25.6861 5.54085 65.8443 154 160 109
-16.9637 1.3203 63.0675 43 48 22
-15.8382 -1.93052 54.8857 22 20 14
-16.5775 0.70026 67.1283 57 42 18
-17.0379 5.69098 73.0458 40 44 20
-17.4293 -0.846763 54.7222 152 158 110
-15.5411 -0.495499 48.5572 62 70 56
-15.2694 -0.427072 47.7188 58 66 57
-17.1159 3.38553 68.6629 46 50 28
-17.8713 0.882298 65.2951 48 52 22
-16.6673 -0.519772 56.766 64 67 30
-21.9756 2.00166 66.2578 154 158 106
-16.3891 -0.456449 50.6587 154 158 110
-17.0794 3.811 69.9761 50 50 28
-17.8285 1.7206 76.7312 98 88 56
-16.4505 2.66081 65.4951 42 44 22
-17.8031 0.439192 54.4116 134 140 89
-19.1809 1.27429 57.2763 150 158 106
-29.4128 8.59594 71.6364 88 98 57
-16.9081 1.19264 62.8026 40 46 20
-16.489 5.18586 70.3165 42 46 24
-19.3427 0.298032 55.013 104 110 73
-16.5531 1.24903 61.5613 41 46 21
-24.5841 1.57924 75.0213 153 156 104
-15.9096 -0.256666 49.4391 76 86 70
-15.4158 -0.555852 47.9749 66 74 60
-23.5239 4.32659 64.1769 58 70 28
-19.6588 1.61472 58.8917 123 130 83
-16.7779 3.60013 72.7962 152 148 90
-27.9644 6.47149 68.2554 158 163 111
-17.7243 -0.156908 52.7819 32 42 20
-10.5205 -2.20646 54.569 172 159 144
-21.7929 1.18511 63.6517 26 38 20
-15.0033 -0.340282 47.5213 58 56 43
-17.7856 1.96427 55.2221 152 156 102
-16.9593 4.03263 73.8183 152 146 88
-25.3242 -12.3598 84.1324 55 20 16
-18.4631 2.00335 50.3288 103 112 66
-21.8224 -9.45274 69.0553 88 40 29
-20.707 -8.41659 68.4479 84 58 56
-22.6728 -10.2643 71.1682 90 46 38
-19.0971 -1.56867 59.0385 35 47 31
-20.3812 -8.48138 61.7688 78 44 42
-17.9418 -1.43424 44.5822 155 164 112
-18.9001 2.01768 50.4595 113 118 73
-28.0399 4.47943 58.6791 158 162 105
-20.6206 -9.25153 59.5798 155 144 142
-26.0668 -17.2119 76.4326 156 144 142
-17.3334 -2.25325 63.4088 32 38 24
-22.5476 1.83527 53.8193 116 116 79
-13.9575 1.65772 50.1712 158 158 102
-17.3734 -1.81945 43.5817 166 173 118
-144.719 62.2856 234.325 157 162 106
-18.9666 -5.10607 59.6779 66 35 31
-15.2287 2.87391 57.9109 154 153 98
-15.0451 3.20355 57.4651 108 116 66
-15.9522 -5.57196 54.3812 84 33 22
-17.8377 -1.47598 44.2959 154 162 110
-18.0649 -5.21119 59.0143 76 36 30
-14.9854 2.94949 56.1215 153 152 96
-18.4556 -0.799717 48.2382 148 160 112
-16.4355 -6.89301 55.4895 146 127 128
-17.7368 -1.46846 44.8987 154 164 112
-15.7242 -2.41158 48.6299 12 7 5
-17.2117 -3.52478 49.5398 70 38 34
-16.4017 -4.2696 49.7424 86 37 28
-13.435 1.83355 50.6358 72 78 45
-17.1947 -3.72678 49.5694 77 44 40
-17.3723 -3.62399 49.734 76 44 37
-17.5916 -3.72364 50.1226 77 50 46
-17.3912 -4.87542 50.9945 64 30 26
-20.081 0.98086 48.2996 157 158 102
-15.5794 -3.14026 49.1161 70 28 19
-16.1267 -0.370321 50.2063 88 94 46
-15.6845 -4.67319 50.3186 82 34 25
-15.5552 -4.67635 51.0407 70 21 12
-17.1827 -5.02944 50.714 99 64 60
-19.7773 1.11926 48.4568 156 159 102
-20.0616 1.17881 49.3162 157 160 104
-15.5841 -5.72594 51.0916 151 135 135
-11.6484 1.31088 50.7011 155 153 98
