ply
format ascii 1.0
element vertex 912
property float x
property float y
property float z
property uchar red
property uchar green
property uchar blue
end_header
-0.0496512 -0.0108941 0.021334 0 255 0
-0.0496175 -0.0106897 0.0212419 0 255 0
-0.049344 -0.0106736 0.0211348 0 255 0
-0.0491088 -0.0106655 0.0210431 0 255 0
-0.0487946 -0.0106522 0.0209799 0 255 0
-0.0484797 -0.0106296 0.0209355 0 255 0
-0.0481686 -0.0106114 0.0209421 0 255 0
-0.0479111 -0.0106337 0.021003 0 255 0
-0.0476125 -0.0106348 0.0211157 0 255 0
-0.0475233 -0.0106465 0.0211548 0 255 0
-0.0476338 -0.0104461 0.0211466 0 255 0
-0.0478707 -0.0103958 0.0211623 0 255 0
-0.0481925 -0.0104284 0.0210915 0 255 0
-0.0484905 -0.0104549 0.0209947 0 255 0
-0.0489502 -0.0104525 0.0209278 0 255 0
-0.0477164 -0.0116162 0.023497 221 220 178
-0.0497342 -0.0116804 0.023959 102 106 72
-0.0497081 -0.01166 0.0239477 112 112 78
-0.0492061 -0.011879 0.0247542 222 222 173
-0.0491797 -0.0118483 0.0246863 223 222 173
-0.0497013 -0.0116196 0.0239206 167 164 123
-0.0491239 -0.011785 0.0246117 180 178 139
-0.0496165 -0.0115787 0.023962 130 126 104
-0.0490798 -0.0116992 0.024505 130 134 98
-0.0490601 -0.0116903 0.024512 118 124 88
-0.0495804 -0.0115423 0.0239454 170 165 150
-0.04903 -0.011643 0.0244639 127 132 96
-0.0495427 -0.0115176 0.0239706 127 124 104
-0.0490548 -0.0116131 0.0244356 129 132 98
-0.0490211 -0.0116075 0.0244366 122 128 90
-0.049001 -0.0115918 0.0244255 154 156 124
-0.0494997 -0.0114814 0.0239787 122 120 100
-0.0495126 -0.011458 0.0239569 144 141 120
-0.0494946 -0.01145 0.0239689 154 152 132
-0.0494763 -0.0114546 0.0239785 123 122 100
-0.0478127 -0.0113486 0.0236964 124 120 88
-0.0494509 -0.0114448 0.0239916 131 128 105
-0.0495148 -0.0114247 0.0239393 171 162 138
-0.049004 -0.0114969 0.0243515 112 120 82
-0.0494305 -0.0114182 0.0239988 120 118 95
-0.0494921 -0.0114035 0.0239434 164 156 129
-0.0494214 -0.0114095 0.0239996 134 132 112
-0.0479337 -0.0112919 0.0236961 108 104 72
-0.0493962 -0.0114014 0.0240119 114 118 94
-0.049436 -0.0113834 0.0239632 114 114 92
-0.0494074 -0.0113567 0.0239681 122 122 99
-0.049443 -0.0113419 0.0239452 111 112 82
-0.0494182 -0.0113332 0.023956 130 128 101
-0.0493888 -0.0113282 0.023957 128 126 102
-0.0483723 -0.0111034 0.0229545 108 105 74
-0.0493257 -0.0113002 0.023995 128 128 107
-0.049391 -0.0112812 0.0239496 164 162 132
-0.0493819 -0.0112752 0.0239438 130 126 95
-0.0481338 -0.0112006 0.0238247 164 166 128
-0.0484326 -0.0110779 0.022921 102 100 70
-0.0493074 -0.0112629 0.023983 117 118 96
-0.0493438 -0.0112557 0.0239675 117 116 95
-0.0484585 -0.0110693 0.0229946 97 94 74
-0.0492226 -0.0112437 0.0240502 122 120 101
-0.0492764 -0.0112309 0.0239889 120 120 100
-0.0493358 -0.0112203 0.0239229 164 162 136
-0.0491614 -0.0111861 0.0240628 121 122 99
-0.0492248 -0.0111823 0.0240028 122 123 101
-0.0488983 -0.0111833 0.0241597 126 136 92
-0.0491556 -0.0111815 0.0240672 122 122 101
-0.0492812 -0.01117 0.0239475 130 127 102
-0.0487674 -0.0110989 0.0241318 164 164 112
-0.0490616 -0.0110898 0.0240737 119 118 94
-0.0491768 -0.0110553 0.0239635 133 129 108
-0.0480147 -0.0109813 0.0241476 216 227 186
-0.0489857 -0.0110403 0.0241295 127 129 99
-0.0489699 -0.0110165 0.0241166 122 122 92
-0.0489668 -0.0110083 0.0240967 120 120 90
-0.049136 -0.0110048 0.0239733 126 124 101
-0.048935 -0.0109939 0.0241356 123 123 90
-0.0489948 -0.0109853 0.0240697 120 120 92
-0.0487272 -0.0109608 0.0240784 148 152 103
-0.048919 -0.0109709 0.0241191 118 118 82
-0.048899 -0.0109606 0.0241492 116 118 82
-0.0488985 -0.0109533 0.0241191 125 128 90
-0.0493801 -0.0109978 0.0243448 114 116 82
-0.0489743 -0.0109443 0.0240526 120 122 90
-0.0488641 -0.0109408 0.0241714 122 124 88
-0.0481154 -0.0108697 0.024213 222 231 190
-0.0488562 -0.0109193 0.024128 100 105 65
-0.0488428 -0.0109094 0.0241323 96 102 58
-0.0480961 -0.0108555 0.0243907 216 226 188
-0.0492194 -0.0109329 0.0242705 112 112 81
-0.0488463 -0.0108885 0.0240381 101 104 58
-0.0480491 -0.0108273 0.0241298 112 101 67
-0.0481413 -0.0108219 0.0244361 216 228 188
-0.0489382 -0.0108758 0.0240442 110 112 83
-0.0488727 -0.0108567 0.0240831 102 108 72
-0.0489309 -0.0108478 0.0240325 125 127 100
-0.0488525 -0.0108422 0.0240815 111 114 76
-0.0480801 -0.0107662 0.0240097 224 230 191
-0.048712 -0.0108163 0.0237756 98 105 79
-0.0480987 -0.0107505 0.0240127 221 232 190
-0.0492283 -0.0108424 0.0241932 110 86 63
-0.0488339 -0.0107909 0.023782 146 150 108
-0.0488909 -0.0107867 0.024036 80 82 54
-0.0488591 -0.0107702 0.0240581 84 84 62
-0.0487844 -0.0107506 0.0245381 56 30 22
-0.0488383 -0.0107544 0.0240393 86 90 66
-0.0481709 -0.0106535 0.0242658 94 80 52
-0.0488041 -0.0107106 0.0240697 86 90 67
-0.0484287 -0.0106533 0.0244898 44 22 10
-0.0481981 -0.0106147 0.0242567 56 26 15
-0.0484459 -0.0106201 0.0242248 84 86 61
-0.048219 -0.0105995 0.0239873 156 124 90
-0.0488186 -0.0106412 0.0239562 126 128 116
-0.0484114 -0.0105808 0.0241577 70 70 48
-0.0489029 -0.0106384 0.0238459 120 122 116
-0.048849 -0.0106277 0.023924 114 116 110
-0.0484707 -0.0105673 0.0242013 70 72 48
-0.049003 -0.0106465 0.023728 116 120 109
-0.0482433 -0.0105455 0.0240865 54 26 15
-0.0483107 -0.010527 0.0243019 56 32 20
-0.0482456 -0.0105153 0.0239675 107 76 57
-0.0485798 -0.0105294 0.0240967 120 121 102
-0.0486523 -0.0105381 0.0239968 105 124 82
-0.0488152 -0.0105048 0.0243816 22 16 10
-0.0485977 -0.010513 0.0240099 76 77 54
-0.048474 -0.0104873 0.0239041 80 80 60
-0.0485305 -0.0104878 0.0239052 69 72 50
-0.0485188 -0.0104822 0.0238879 64 66 43
-0.0485114 -0.0104564 0.0238431 53 56 32
-0.048697 -0.010476 0.0237017 84 64 44
-0.0484347 -0.0104348 0.0237195 76 80 56
-0.0483618 -0.0104331 0.0236996 74 74 48
-0.0489364 -0.0104632 0.0239352 44 28 18
-0.0486963 -0.0104596 0.0237435 66 54 42
-0.0485169 -0.0104272 0.0237599 54 40 23
-0.0491053 -0.0104594 0.0240284 154 123 100
-0.0483635 -0.0104174 0.0236572 70 74 44
-0.0491694 -0.0104448 0.024075 188 142 110
-0.0483494 -0.0104096 0.0236686 72 76 47
-0.0484142 -0.0104135 0.0236711 76 80 54
-0.0483444 -0.0104036 0.0236328 70 78 42
-0.048561 -0.0103916 0.0237637 102 58 48
-0.0491408 -0.0104047 0.0240394 154 111 90
-0.0491438 -0.0103255 0.0244556 108 67 47
-0.0491043 -0.0103869 0.0240516 158 116 94
-0.0483249 -0.0103692 0.0235768 74 79 49
-0.0491333 -0.0103225 0.0243664 126 82 62
-0.0491171 -0.0103625 0.0240777 122 80 65
-0.0486917 -0.0103702 0.0237324 115 92 84
-0.0483634 -0.0103448 0.0235677 76 80 57
-0.0489567 -0.0103633 0.0238703 179 140 118
-0.048474 -0.0103069 0.0238607 214 180 172
-0.0490969 -0.0103378 0.024091 94 55 40
-0.0488486 -0.010361 0.0237894 192 156 136
-0.0486793 -0.0103421 0.0237396 218 187 181
-0.0486814 -0.0103388 0.0237697 203 171 161
-0.0485246 -0.0103035 0.0238341 179 146 140
-0.0490145 -0.0103468 0.0239149 161 116 96
-0.0489441 -0.0103435 0.023872 194 150 128
-0.0488704 -0.0103389 0.0238398 198 156 138
-0.0483052 -0.0103251 0.0235222 83 86 60
-0.048356 -0.0103174 0.0235336 91 93 71
-0.0489012 -0.0103017 0.0238797 96 52 42
-0.049133 -0.0102261 0.0243783 126 81 58
-0.0491125 -0.0102733 0.0241109 112 74 54
-0.0491168 -0.010216 0.0243899 128 80 60
-0.0482886 -0.0102817 0.0234823 92 92 69
-0.0486448 -0.0102555 0.0238427 109 78 76
-0.0490771 -0.0101821 0.0243937 138 98 78
-0.0491063 -0.0101798 0.0243843 127 80 62
-0.0489642 -0.0102433 0.0239981 94 50 36
-0.0488969 -0.0102345 0.0239323 86 48 42
-0.0488882 -0.0102353 0.0239216 89 50 44
-0.0488477 -0.0102276 0.0239042 104 65 59
-0.0488258 -0.0102214 0.0239068 104 66 61
-0.0489807 -0.0102121 0.024 94 54 38
-0.0490715 -0.0101771 0.0241771 104 67 50
-0.0490579 -0.0101657 0.0241471 116 79 64
-0.0489235 -0.0101828 0.0239856 68 36 30
-0.0488736 -0.0101662 0.0240022 65 34 30
-0.0490337 -0.010149 0.0241576 102 66 54
-0.0490282 -0.0101472 0.0241296 111 75 62
-0.0489099 -0.0101624 0.0239817 116 82 75
-0.0488429 -0.010163 0.0239437 76 44 36
-0.049066 -0.0101006 0.0242602 114 72 54
-0.0490114 -0.0101149 0.0241548 95 56 44
-0.0487805 -0.00998714 0.0246169 102 57 46
-0.0483975 -0.0100342 0.024135 138 98 94
-0.0488789 -0.0101099 0.0239959 50 23 19
-0.0486172 -0.0100728 0.0239595 111 82 80
-0.0489919 -0.0100162 0.0243962 100 52 37
-0.0490609 -0.010032 0.0243494 110 58 38
-0.0488985 -0.0100696 0.0240678 104 62 54
-0.0490428 -0.0100036 0.0243838 118 67 48
-0.04884 -0.0100607 0.0240421 112 70 63
-0.0489013 -0.0100076 0.024111 100 60 48
-0.0489841 -0.00996894 0.0242622 100 50 38
-0.0489505 -0.00996203 0.0242144 103 52 38
-0.0488607 -0.00994177 0.0241451 127 74 66
-0.0489577 -0.0098363 0.0243938 99 50 40
-0.0488979 -0.0098461 0.0242907 104 52 39
-0.0496677 -0.0116407 0.0240252 94 95 74
-0.0496481 -0.0116061 0.0239538 88 92 64
-0.0496307 -0.0115912 0.0239493 89 90 68
-0.0496052 -0.0115652 0.0239413 146 140 126
-0.0495347 -0.0114696 0.0239516 84 88 66
-0.0493839 -0.0113576 0.0239952 90 94 69
-0.049322 -0.0112358 0.0239629 107 106 82
-0.0492755 -0.0112044 0.0239656 90 90 68
-0.0492436 -0.0111819 0.0240246 90 92 68
-0.0491858 -0.0111772 0.0240265 98 100 79
-0.0490573 -0.0110984 0.0241214 98 97 74
-0.0485286 -0.0109112 0.0241397 78 84 62
-0.0492971 -0.0109632 0.0242629 97 98 67
-0.049232 -0.0109377 0.0242575 93 92 59
-0.0493023 -0.0109293 0.0242572 76 76 48
-0.0485849 -0.0108642 0.0241186 74 79 52
-0.0480552 -0.0108147 0.0240623 96 78 47
-0.0490258 -0.0108405 0.0245251 181 186 145
-0.0486758 -0.010822 0.0239287 100 106 70
-0.0487969 -0.0107828 0.0245726 26 14 7
-0.0482299 -0.0105938 0.024127 47 20 12
-0.0482347 -0.0105484 0.0240378 47 22 12
-0.0484604 -0.0105448 0.0241792 49 50 31
-0.0483192 -0.010453 0.0238918 64 50 31
-0.0483265 -0.0104426 0.0239227 68 66 44
-0.0486805 -0.0104563 0.0236973 105 72 52
-0.0490771 -0.0104578 0.023935 60 25 14
-0.0491324 -0.0104325 0.0240075 152 112 87
-0.0489283 -0.0104264 0.0238587 90 45 32
-0.0484296 -0.0103681 0.023799 102 89 73
-0.0483403 -0.0103227 0.0239339 142 116 114
-0.0490933 -0.0103901 0.0239744 132 91 70
-0.0489599 -0.0103984 0.0238415 143 102 80
-0.0491195 -0.0103789 0.0240433 93 51 34
-0.0489852 -0.010376 0.0239117 191 146 121
-0.049025 -0.0103791 0.0238846 158 115 92
-0.0489855 -0.0103781 0.0238667 193 148 124
-0.0486656 -0.0103415 0.0237627 210 184 181
-0.0483537 -0.0102668 0.0239671 142 115 114
-0.0490632 -0.0103306 0.0239248 63 26 18
-0.0489438 -0.0103058 0.0239227 75 40 28
-0.0490575 -0.0102727 0.0241033 82 42 32
-0.0484939 -0.0102478 0.0238669 84 54 50
-0.0490774 -0.0102329 0.0242326 96 56 40
-0.0490612 -0.0102177 0.0241817 80 44 34
-0.0490804 -0.0101917 0.0242126 106 70 50
-0.0490084 -0.010197 0.0240626 100 58 44
-0.0490662 -0.0100628 0.0244405 96 52 34
-0.0489489 -0.0100994 0.0240849 95 52 36
-0.0485436 -0.0100666 0.0239884 119 79 77
-0.0490179 -0.0103204 0.0232256 99 60 50
-0.0490338 -0.00995235 0.0244845 108 56 38
-0.0486249 -0.0100152 0.0239885 87 70 59
-0.048251 -0.0100753 0.0235567 202 195 190
-0.0493954 -0.0113424 0.023985 78 84 60
-0.0492231 -0.0109369 0.0242827 102 103 64
-0.0483334 -0.0106329 0.0241622 54 52 34
-0.0489423 -0.0105694 0.0234929 72 64 45
-0.0490096 -0.0101612 0.0243449 69 35 26
-0.0488256 -0.0101114 0.0239668 96 54 46
-0.0488775 -0.00996465 0.0241345 80 60 46
-0.0479292 -0.0112995 0.0237691 86 87 52
-0.0479706 -0.0112821 0.0237783 76 84 50
-0.0485735 -0.0105303 0.0238591 63 66 45
-0.0486051 -0.0104759 0.0238012 24 26 16
-0.0489021 -0.0105407 0.0234436 75 88 46
-0.0489187 -0.0105332 0.023445 80 91 51
-0.048975 -0.0105142 0.0234252 26 16 10
-0.0486233 -0.0103794 0.023743 84 50 41
-0.048574 -0.0103924 0.0237405 83 44 34
-0.0485725 -0.0107865 0.0240701 72 78 63
-0.0485276 -0.0107724 0.0240602 65 66 54
-0.0493245 -0.010472 0.0240145 82 88 56
-0.048515 -0.0107997 0.0240844 85 86 70
-0.0489474 -0.0104393 0.0241631 40 26 20
-0.0486954 -0.0104204 0.02423 36 30 16
-0.0485039 -0.010883 0.0240428 79 85 60
-0.0484904 -0.0107599 0.0241049 100 85 75
-0.0491175 -0.0105038 0.0240966 84 68 54
-0.0493155 -0.0112904 0.0239716 98 100 78
-0.0491081 -0.0104806 0.0241347 76 42 28
-0.0489115 -0.0109421 0.0239225 82 88 54
-0.0484682 -0.0105258 0.0245143 76 85 54
-0.0491868 -0.0118801 0.0247654 190 188 135
-0.0482653 -0.011069 0.02285 175 180 139
-0.0488338 -0.0112286 0.024089 102 112 65
-0.0481171 -0.0108738 0.0242144 185 196 150
-0.0486183 -0.0108037 0.0235248 144 152 126
-0.0482817 -0.0101653 0.0241888 74 44 40
-0.0491894 -0.0118607 0.0247103 201 200 150
-0.0493698 -0.0113691 0.0240174 95 96 74
-0.0493066 -0.0112381 0.0239711 97 97 74
-0.04909 -0.0109519 0.0239836 122 126 95
-0.0494595 -0.0110003 0.0243513 92 92 59
-0.0485804 -0.010898 0.0242182 101 108 76
-0.0489281 -0.0106092 0.023673 81 83 76
-0.0481419 -0.010497 0.0241358 148 110 91
-0.0485225 -0.0105152 0.0240475 74 78 55
-0.0489168 -0.0105355 0.0234486 87 95 54
-0.0490658 -0.0104529 0.0239524 102 66 48
-0.0489378 -0.0104414 0.0238944 96 48 30
-0.0491217 -0.0104294 0.0240036 175 131 99
-0.0491022 -0.0104267 0.0239838 176 133 99
-0.0489859 -0.0104447 0.0233501 144 104 85
-0.0483831 -0.0103687 0.0235845 56 62 40
-0.04835 -0.0103254 0.023918 188 173 173
-0.0489946 -0.0104155 0.0233938 162 112 88
-0.04868 -0.0103085 0.023786 190 155 148
-0.048714 -0.0103075 0.0237964 128 106 87
-0.0489966 -0.0103792 0.0233028 89 44 35
-0.0490113 -0.0102308 0.0242745 88 42 29
-0.0483667 -0.010203 0.0240326 121 91 90
-0.0489735 -0.0102076 0.0243107 99 53 39
-0.0490459 -0.0102104 0.0241305 64 26 18
-0.0484705 -0.0101903 0.0239476 92 60 57
-0.0484757 -0.0101871 0.0239483 92 58 55
-0.0485667 -0.0101975 0.0238634 110 73 70
-0.0486499 -0.0101776 0.0239015 102 64 60
-0.0484225 -0.0100948 0.0240326 112 81 78
-0.0489594 -0.0101004 0.0241394 118 68 52
-0.0486445 -0.0100133 0.0239833 82 70 54
-0.0489666 -0.00996585 0.0242319 93 38 26
-0.0484955 -0.00984447 0.0241988 133 92 90
-0.0486921 -0.00988169 0.0240747 104 50 39
-0.0485664 -0.00974793 0.0242474 118 93 79
-0.0496996 -0.0116538 0.0239543 82 86 54
-0.048944 -0.0114864 0.024349 86 102 64
-0.0492371 -0.0111541 0.023957 94 94 70
-0.0490181 -0.0104086 0.0238648 156 116 83
-0.04913 -0.0103193 0.0242908 88 51 38
-0.0484872 -0.0102495 0.0238672 55 26 22
-0.0482804 -0.0108179 0.0244611 174 178 144
-0.0484653 -0.0101952 0.0239429 98 65 62
-0.0479315 -0.0112985 0.0237587 106 102 72
-0.0486599 -0.0103716 0.0245232 33 16 10
-0.0496821 -0.0116354 0.0239565 116 116 80
-0.0495934 -0.0115265 0.0239747 106 107 81
-0.048903 -0.0106555 0.0240744 93 93 74
-0.0488361 -0.0100094 0.0246266 87 46 34
-0.0480169 -0.0112179 0.0237829 122 124 86
-0.0487148 -0.0104659 0.0242663 38 33 20
-0.0492237 -0.0106032 0.0240612 96 99 65
-0.0488791 -0.0106997 0.0243425 77 74 52
-0.0489495 -0.0114994 0.0243706 90 100 62
-0.0484762 -0.0109045 0.0240834 72 76 50
-0.0482259 -0.0104522 0.0239781 142 114 96
-0.0491166 -0.0117724 0.0245915 78 82 47
-0.0495241 -0.0114648 0.0239501 58 62 35
-0.0489805 -0.0115501 0.0243998 74 86 46
-0.0489279 -0.0109011 0.0236587 58 64 27
-0.0489016 -0.0108812 0.0236967 54 61 20
-0.0481509 -0.0108504 0.0242197 162 174 130
-0.048288 -0.0108388 0.0244781 162 176 129
-0.0486346 -0.0107969 0.0238441 64 70 53
-0.0482928 -0.0107506 0.0242363 160 170 124
-0.0482951 -0.0107397 0.024309 116 94 51
-0.0481757 -0.0106635 0.0239396 162 176 130
-0.0486365 -0.0106901 0.0241068 92 94 87
-0.0484113 -0.0106843 0.024487 30 12 6
-0.0489203 -0.0106832 0.0236095 62 58 30
-0.0484417 -0.0106559 0.0244497 26 10 4
-0.0486654 -0.0106432 0.0241251 156 156 154
-0.0485997 -0.0106465 0.0242527 60 66 51
-0.048668 -0.0106413 0.0241246 154 153 149
-0.0486063 -0.0106086 0.0242307 72 75 58
-0.0486647 -0.01058 0.024151 122 121 116
-0.0485674 -0.0105248 0.0239879 44 48 26
-0.0493882 -0.0105831 0.0234222 55 62 34
-0.049025 -0.0104444 0.0238984 57 16 7
-0.0488901 -0.0104695 0.023374 82 92 63
-0.0494395 -0.0105136 0.0233002 61 71 53
-0.0484473 -0.0103662 0.0237756 130 106 98
-0.0485688 -0.0103717 0.0237353 162 123 107
-0.0486887 -0.010368 0.0237589 72 47 36
-0.0487176 -0.0103673 0.0237486 110 72 54
-0.0485982 -0.0103525 0.0237416 156 121 110
-0.0486889 -0.0103368 0.0237788 153 119 112
-0.0487213 -0.0103309 0.0237849 130 89 72
-0.0486466 -0.0102617 0.0238452 33 11 7
-0.0487151 -0.0102592 0.0238353 53 17 10
-0.048702 -0.0102421 0.023844 70 33 28
-0.0485338 -0.0101872 0.0239082 74 40 39
-0.0487142 -0.0101987 0.0238761 64 26 19
-0.0487767 -0.0101922 0.0239087 77 46 34
-0.0485747 -0.0101806 0.0238536 82 46 42
-0.0487006 -0.0101839 0.0238815 70 32 24
-0.0487425 -0.0101448 0.0238605 70 28 18
-0.0486982 -0.0101192 0.0239259 66 28 20
-0.0483693 -0.0100559 0.0241088 72 40 36
-0.0487089 -0.0100769 0.023956 85 42 30
-0.0485947 -0.0100203 0.0239951 94 56 53
-0.0484085 -0.00993084 0.024212 70 35 30
-0.0487079 -0.00999704 0.0240153 55 20 14
-0.0484561 -0.0099343 0.0241632 78 49 48
-0.0487035 -0.00989738 0.0240925 69 22 18
-0.0489054 -0.00988185 0.0241562 55 61 35
-0.0487236 -0.00975204 0.0242244 92 36 24
-0.0481714 -0.0111085 0.0237857 70 77 52
-0.0490535 -0.0110878 0.0240864 71 74 46
-0.0486993 -0.0107195 0.0240453 116 118 102
-0.0483163 -0.0106449 0.0241544 36 36 17
-0.0489627 -0.0106107 0.0235936 54 60 52
-0.0490169 -0.0106091 0.0239917 60 66 56
-0.048382 -0.0104364 0.0236568 40 38 18
-0.0484914 -0.0103827 0.0237712 89 69 57
-0.0485035 -0.0100393 0.0240341 104 72 66
-0.0495689 -0.0115327 0.0239685 76 76 50
-0.047837 -0.0113289 0.023695 84 84 56
-0.0482713 -0.0109655 0.0226242 166 170 122
-0.0486142 -0.0100722 0.0239633 74 38 30
-0.0480023 -0.0112236 0.023776 68 75 48
-0.0486076 -0.0105505 0.0242316 50 49 38
-0.0486947 -0.0100657 0.0239681 72 30 22
-0.0488032 -0.0100385 0.0246961 55 40 25
-0.0487262 -0.0111448 0.0236154 98 98 66
-0.0487888 -0.0109466 0.0238015 80 80 41
-0.0487591 -0.0102087 0.0247694 108 86 62
-0.0490133 -0.0101593 0.0242861 68 24 10
-0.0488763 -0.0110651 0.0236572 98 101 52
-0.0487075 -0.00979262 0.0242 76 26 20
-0.0483458 -0.0106234 0.0241876 32 34 17
-0.0484383 -0.0101289 0.0240213 85 54 50
-0.0476796 -0.011631 0.0235372 165 168 112
-0.0496601 -0.011616 0.0239647 58 62 38
-0.0483465 -0.0110497 0.0227685 172 175 123
-0.0483666 -0.0110538 0.022842 171 174 126
-0.048342 -0.0110346 0.0227951 170 175 122
-0.0493421 -0.0112555 0.0239815 76 76 50
-0.0480903 -0.010848 0.0240838 38 42 14
-0.0491791 -0.0108085 0.0244083 84 53 30
-0.0488841 -0.0111208 0.0239309 108 107 57
-0.0486153 -0.0108029 0.0239037 76 82 67
-0.0496523 -0.0116057 0.0239477 47 52 24
-0.0495671 -0.0115319 0.0239768 60 62 44
-0.048908 -0.0114268 0.0243142 60 75 34
-0.0488229 -0.0112572 0.0242225 72 86 41
-0.0488918 -0.0110527 0.0237765 104 103 54
-0.048872 -0.0110165 0.0237956 105 104 57
-0.048851 -0.0109842 0.0238483 110 107 60
-0.0488292 -0.0109479 0.0238661 113 108 64
-0.0487602 -0.0108435 0.0239716 92 94 46
-0.0482395 -0.0107835 0.0242755 150 164 121
-0.0482582 -0.0107695 0.0242684 149 164 120
-0.0490003 -0.0108001 0.0242837 152 152 111
-0.0488997 -0.0107649 0.0237302 83 86 42
-0.0489745 -0.0107826 0.0241869 108 90 56
-0.0482895 -0.0107505 0.02427 126 116 72
-0.0485866 -0.01074 0.0239826 53 59 46
-0.0487499 -0.0106604 0.0240879 93 90 68
-0.0487393 -0.0106093 0.0240188 56 62 45
-0.0483971 -0.010587 0.0241874 30 29 14
-0.0490701 -0.0106108 0.0242494 40 46 36
-0.0483036 -0.0104988 0.023984 16 6 4
-0.0483706 -0.0104715 0.0238474 16 8 4
-0.0486165 -0.01047 0.0239877 12 12 6
-0.0488392 -0.0105055 0.0235117 34 39 22
-0.0482675 -0.0104128 0.0239217 99 78 62
-0.0491766 -0.010407 0.0242045 138 95 64
-0.0488163 -0.0103982 0.0237464 64 22 14
-0.0487945 -0.0103951 0.0237554 74 30 21
-0.0484688 -0.0103525 0.0238098 136 105 96
-0.048911 -0.0104142 0.0233327 58 70 49
-0.0484756 -0.0103179 0.0237972 152 126 118
-0.048704 -0.010302 0.023811 140 102 92
-0.0488318 -0.0103048 0.0238276 95 39 21
-0.0491347 -0.0102247 0.0243789 81 46 26
-0.048825 -0.0102258 0.0238848 70 26 18
-0.0484497 -0.0101243 0.024027 64 34 30
-0.048525 -0.0101044 0.023962 54 22 18
-0.0488195 -0.0101026 0.0240025 82 38 28
-0.0486871 -0.00986723 0.0241093 90 39 28
-0.0486992 -0.00979685 0.0241699 64 21 14
-0.0487053 -0.00974245 0.0242326 99 44 30
-0.0486882 -0.0106371 0.0240964 122 122 117
-0.0487248 -0.0104862 0.0237454 25 16 8
-0.0476801 -0.0116313 0.0235285 154 158 101
-0.0479036 -0.011306 0.0237414 48 52 26
-0.0486172 -0.0107111 0.0240845 49 60 48
-0.0488261 -0.0101151 0.0239479 84 38 27
-0.0487455 -0.0110084 0.0236896 97 94 62
-0.049164 -0.0104156 0.0241693 116 73 43
-0.0487233 -0.0103332 0.0237751 144 98 82
-0.0496304 -0.0115186 0.0239384 154 153 100
-0.0486393 -0.0111806 0.0237903 82 81 44
-0.0486517 -0.0108943 0.0235354 72 74 48
-0.0486761 -0.0108423 0.0238166 47 54 34
-0.0488397 -0.0101721 0.0238941 81 36 26
-0.0485353 -0.00993394 0.0240817 74 30 26
-0.0488822 -0.011386 0.0242775 61 79 34
-0.0483228 -0.011005 0.0226548 158 166 110
-0.0482583 -0.0109833 0.0226635 156 164 111
-0.0482331 -0.0110985 0.0238584 56 61 28
-0.0483831 -0.0109631 0.0238986 36 42 20
-0.0484815 -0.0109225 0.0238682 105 109 86
-0.0482418 -0.0106796 0.024156 36 32 14
-0.0490632 -0.0112837 0.0235499 114 121 68
-0.0487369 -0.0109733 0.0239904 74 80 29
-0.0488438 -0.0108956 0.0237814 118 116 65
-0.0482195 -0.010624 0.0239625 86 57 27
-0.0487837 -0.0105065 0.0237832 39 40 26
-0.0481843 -0.0103463 0.024198 28 36 16
-0.0489354 -0.0103563 0.0233131 70 80 56
-0.0483161 -0.0101421 0.0241453 78 46 39
-0.0483465 -0.0101388 0.0240965 79 48 43
-0.0483865 -0.0100432 0.0241974 75 40 35
-0.0483076 -0.0109932 0.0238439 46 54 37
-0.0489634 -0.0109509 0.0240742 46 50 18
-0.0487668 -0.0107907 0.0237413 88 87 52
-0.0487906 -0.0107507 0.0236697 77 77 46
-0.0487815 -0.0106426 0.0240469 72 70 49
-0.0487707 -0.0106124 0.0239792 44 50 34
-0.0482967 -0.0104187 0.0238784 44 18 6
-0.0483037 -0.0103777 0.023849 142 117 108
-0.0487457 -0.010331 0.023785 100 56 41
-0.0489117 -0.0101701 0.0239867 20 4 1
-0.0487175 -0.010126 0.0239393 64 30 22
-0.0486495 -0.010074 0.0239513 70 36 28
-0.0487556 -0.0100731 0.0239816 86 38 24
-0.048884 -0.0100413 0.0240789 73 30 22
-0.0485366 -0.00993353 0.024084 80 36 32
-0.0483868 -0.0109716 0.0239513 47 48 26
-0.0483453 -0.0109582 0.0238698 37 45 29
-0.0492361 -0.0108243 0.0241643 114 94 54
-0.0488255 -0.0106494 0.0235451 65 70 52
-0.0488158 -0.0105448 0.0237271 44 48 32
-0.0488349 -0.0101675 0.023926 76 28 19
-0.0485987 -0.010098 0.0239347 78 38 31
-0.0486352 -0.00987004 0.0241129 96 40 32
-0.0484921 -0.00985078 0.0241868 73 32 28
-0.0483962 -0.0107571 0.0244929 28 8 1
-0.0487848 -0.0107007 0.0240635 101 95 74
-0.0483385 -0.0106292 0.0241687 35 34 16
-0.0488679 -0.0108434 0.0238728 88 92 54
-0.0483184 -0.0110444 0.0227805 159 162 116
-0.0483083 -0.011032 0.0227513 100 108 66
-0.0483418 -0.0110204 0.0229012 58 69 30
-0.0491989 -0.0109285 0.0242293 100 104 65
-0.0487571 -0.0105219 0.023826 38 40 30
-0.0490269 -0.0112382 0.0235812 70 82 32
-0.0481228 -0.0111461 0.0237766 70 78 56
-0.0482185 -0.0111437 0.0239027 70 75 34
-0.0489023 -0.0109565 0.0240729 51 60 22
-0.048894 -0.010949 0.0240536 50 59 22
-0.0488408 -0.0109052 0.0240447 48 54 14
-0.0480839 -0.0107674 0.0240161 149 154 114
-0.0482481 -0.010722 0.024141 32 32 12
-0.0487992 -0.01071 0.023798 73 56 39
-0.0482297 -0.0106727 0.0240563 57 40 16
-0.0491887 -0.0105911 0.0240392 71 53 24
-0.0485157 -0.0111097 0.0239487 50 54 32
-0.048617 -0.0109923 0.0242741 140 140 102
-0.0486497 -0.010912 0.0240816 92 90 62
-0.0483901 -0.0107634 0.024553 40 15 6
-0.0483157 -0.010328 0.0234853 32 36 14
-0.0483505 -0.00993773 0.0243438 66 34 33
-0.0483871 -0.00977421 0.0245237 72 32 29
-0.0479478 -0.0112885 0.0237587 67 70 42
-0.0479721 -0.0112789 0.0237624 74 75 46
-0.0484103 -0.0108027 0.0245809 94 65 39
-0.0492271 -0.0106882 0.023991 68 68 36
-0.0492544 -0.0106848 0.023888 84 66 38
-0.0485749 -0.0106809 0.0245983 20 9 7
-0.0486671 -0.0106441 0.0241456 104 106 104
-0.0488236 -0.0106439 0.0239793 63 68 44
-0.0487577 -0.0106398 0.0240643 73 70 50
-0.0488565 -0.0106303 0.0238853 42 48 37
-0.048815 -0.0106205 0.0239307 36 44 30
-0.0487716 -0.0105172 0.0237588 39 42 32
-0.0486572 -0.0104784 0.0240595 22 20 10
-0.0484188 -0.010481 0.0237973 32 28 16
-0.0489436 -0.0103467 0.0238601 161 109 78
-0.0483594 -0.010316 0.0235243 33 38 16
-0.0489336 -0.010245 0.0239284 54 18 11
-0.0487413 -0.0100772 0.0239607 75 32 22
-0.048612 -0.0100699 0.0239696 76 33 26
-0.0486165 -0.00999348 0.0240177 64 25 20
-0.0487072 -0.00997728 0.0240367 72 25 16
-0.0482899 -0.0106652 0.0241521 33 31 13
-0.0486617 -0.010599 0.0241722 100 100 94
-0.0483047 -0.0103356 0.0239806 97 68 58
-0.0486846 -0.0102021 0.0238687 53 20 15
-0.048587 -0.0099923 0.0240198 65 24 19
-0.048626 -0.0101477 0.0238078 78 40 32
-0.0483717 -0.009972 0.0241738 47 20 18
-0.0490914 -0.0117355 0.0245465 76 86 52
-0.0490641 -0.0116947 0.0245133 74 86 46
-0.0494955 -0.0114121 0.0238063 112 106 70
-0.048954 -0.0115233 0.0243553 62 74 40
-0.0490441 -0.0112508 0.0234784 64 74 28
-0.0484239 -0.011084 0.02298 88 82 69
-0.0490012 -0.0113419 0.0242789 58 70 28
-0.0489481 -0.0111453 0.0236569 101 106 53
-0.0480747 -0.0111739 0.0237196 40 48 30
-0.0489267 -0.0111137 0.0237108 122 127 74
-0.0481732 -0.0111011 0.0237708 33 42 26
-0.0492691 -0.0109639 0.0242865 100 102 55
-0.0492213 -0.0109438 0.0243151 118 118 68
-0.0491547 -0.0109076 0.0242988 144 142 94
-0.0485899 -0.010833 0.0236951 52 65 49
-0.049131 -0.010813 0.0242042 29 30 14
-0.0486697 -0.0107797 0.0238647 62 70 60
-0.0486328 -0.0107611 0.0240226 36 46 30
-0.0488053 -0.0107046 0.0236058 27 32 15
-0.0492468 -0.0106894 0.0239165 92 68 41
-0.0491373 -0.0106895 0.0239167 118 116 64
-0.049178 -0.0106638 0.0235814 66 66 34
-0.0491728 -0.0106678 0.0235981 74 74 36
-0.0490614 -0.0106841 0.0238244 124 124 70
-0.048762 -0.0106875 0.0240436 103 97 78
-0.0488214 -0.010596 0.0239243 28 31 20
-0.0488568 -0.010536 0.0234116 23 12 8
-0.0487415 -0.0105252 0.0237393 32 36 26
-0.048215 -0.0105456 0.0239707 110 64 40
-0.0488057 -0.0105116 0.0237462 34 42 29
-0.0488307 -0.0105035 0.0236695 35 40 26
-0.0488983 -0.0104401 0.0238826 14 9 8
-0.0483031 -0.0104612 0.0239065 56 28 20
-0.0488314 -0.0104288 0.0238271 16 6 3
-0.0483435 -0.0104393 0.0238831 32 14 8
-0.0482146 -0.010423 0.0239949 126 86 70
-0.0489514 -0.0103681 0.0238383 156 104 73
-0.0482398 -0.010405 0.0240278 150 120 106
-0.0483403 -0.0103991 0.0238229 60 34 20
-0.0482893 -0.0103967 0.0238548 159 138 135
-0.0486722 -0.0103398 0.023781 136 94 78
-0.0483334 -0.0103344 0.0239452 68 32 28
-0.048209 -0.0102922 0.024391 64 40 30
-0.0483218 -0.0103191 0.0239572 73 35 30
-0.0482604 -0.0101732 0.0243114 66 38 30
-0.0482914 -0.0101552 0.0241672 72 42 30
-0.0489501 -0.0100786 0.0241201 38 16 12
-0.0486834 -0.0101255 0.0239569 74 38 30
-0.0490213 -0.010217 0.0231267 114 110 90
-0.0482803 -0.0100702 0.0243287 62 40 26
-0.0484537 -0.010089 0.024 78 43 36
-0.0485776 -0.0100687 0.0239832 86 41 30
-0.0487519 -0.00996988 0.0240689 70 26 16
-0.0487342 -0.00997686 0.024028 76 30 18
-0.0483507 -0.0100176 0.0239368 106 80 62
-0.0485488 -0.00995845 0.0240716 60 28 24
-0.0486757 -0.00990225 0.0240851 94 38 26
-0.0488152 -0.00985229 0.0242128 82 24 14
-0.0487742 -0.00987104 0.0241433 75 22 14
-0.048961 -0.011162 0.0236304 93 97 48
-0.0490735 -0.011137 0.0239242 94 99 54
-0.0490369 -0.0110993 0.0239526 96 99 56
-0.048534 -0.0109199 0.02347 54 62 49
-0.0485603 -0.010892 0.0235258 60 65 53
-0.0486343 -0.0107144 0.0240184 48 56 48
-0.0481762 -0.0106605 0.023938 63 45 30
-0.0488725 -0.0106022 0.0239162 27 28 20
-0.0487714 -0.0105002 0.0242193 18 18 10
-0.048247 -0.0103549 0.0240943 57 29 22
-0.0483163 -0.0102785 0.0239968 60 38 33
-0.048479 -0.00976017 0.024275 86 44 41
-0.0484969 -0.00976267 0.0242399 82 38 36
-0.0486438 -0.0097313 0.0241952 84 34 26
-0.0479545 -0.0112799 0.0237409 74 76 54
-0.0479992 -0.0112639 0.0237602 74 74 50
-0.0495038 -0.0113863 0.0239431 86 85 52
-0.0489921 -0.011194 0.0235929 72 80 30
-0.0484681 -0.0110137 0.0231212 76 80 74
-0.0484794 -0.010996 0.0232206 64 71 61
-0.048501 -0.0109794 0.0232714 62 69 60
-0.0485246 -0.0109447 0.0233801 58 66 54
-0.0485818 -0.0108942 0.0234898 68 73 60
-0.0486363 -0.0108129 0.0237668 52 62 50
-0.0487461 -0.0106561 0.0240862 116 110 94
-0.0488903 -0.0105046 0.0235186 28 31 14
-0.0488373 -0.0104386 0.0237498 14 5 2
-0.0483097 -0.0101874 0.023442 50 40 20
-0.0482883 -0.0101599 0.0234247 76 62 28
-0.0487821 -0.00983156 0.0241814 103 44 28
-0.0489604 -0.0111716 0.0235172 74 81 31
-0.0480964 -0.0112094 0.0237927 48 56 28
-0.0481278 -0.0111387 0.0237583 45 51 32
-0.0482201 -0.0110668 0.0238018 41 50 32
-0.0485156 -0.0109611 0.0233313 70 78 70
-0.0485167 -0.010943 0.0234445 66 75 62
-0.0486487 -0.0108899 0.02352 60 62 42
-0.0486657 -0.0108606 0.023585 54 58 38
-0.0489834 -0.0108402 0.0238735 130 129 82
-0.0486202 -0.0108254 0.024076 62 66 41
-0.048664 -0.0107957 0.0237758 60 66 56
-0.0482101 -0.0108076 0.0242188 102 116 78
-0.0480896 -0.0107593 0.0239963 138 102 80
-0.0489408 -0.0106844 0.0236647 72 78 38
-0.0488277 -0.0106427 0.0236333 70 70 54
-0.0486377 -0.0105727 0.0241825 64 67 53
-0.0488413 -0.0104803 0.0235532 10 6 4
-0.0489684 -0.0104526 0.02337 56 65 31
-0.0483868 -0.0104496 0.0238359 34 18 13
-0.0489867 -0.0102167 0.0240073 74 33 22
-0.0487213 -0.00987189 0.0241332 94 40 24
-0.0484427 -0.011056 0.0229658 54 52 34
-0.0480576 -0.0112041 0.0236548 53 58 32
-0.0481715 -0.0105113 0.0240866 160 113 98
-0.0488911 -0.0104706 0.0233877 25 34 15
-0.0489244 -0.0103676 0.0238272 158 106 74
-0.0477396 -0.0113939 0.0235996 40 50 22
-0.0477694 -0.011354 0.0236338 56 63 36
-0.0484487 -0.0110152 0.0231554 68 74 65
-0.0482172 -0.0110654 0.0237883 35 40 25
-0.0485546 -0.0109002 0.0242042 38 44 29
-0.0487606 -0.0108188 0.0238524 48 52 26
-0.0484649 -0.0107911 0.0246597 57 30 14
-0.0489129 -0.0106955 0.023625 76 83 40
-0.0491733 -0.0106729 0.0236526 83 79 36
-0.0488978 -0.010656 0.0239158 66 65 43
-0.0489002 -0.0106392 0.0238247 38 36 25
-0.0486218 -0.010626 0.0243121 28 28 18
-0.0481768 -0.010629 0.0239575 132 90 70
-0.049468 -0.0105184 0.0233446 45 52 33
-0.0481588 -0.0105538 0.0243075 134 108 82
-0.0482072 -0.0105536 0.0239538 132 82 60
-0.0483588 -0.0105046 0.0240871 23 12 6
-0.0486808 -0.0104746 0.0238974 28 18 12
-0.0481779 -0.0105076 0.0240965 149 122 112
-0.0481851 -0.0104296 0.0243693 59 34 22
-0.0487747 -0.0103929 0.0237755 83 44 29
-0.0487502 -0.0103934 0.0237555 82 44 30
-0.0482168 -0.0104056 0.0240592 134 99 88
-0.0482003 -0.0103623 0.0243565 82 57 44
-0.0482014 -0.0103112 0.0244634 74 49 38
-0.0482428 -0.01031 0.0242183 63 40 34
-0.0482541 -0.0102518 0.0242035 60 36 30
-0.0482356 -0.0102114 0.0244498 70 43 32
-0.0483291 -0.0102194 0.0241097 66 39 36
-0.0483552 -0.0101936 0.0240436 62 32 32
-0.0482857 -0.010099 0.0242788 83 52 42
-0.0486701 -0.010089 0.0239632 74 36 28
-0.0482987 -0.0099708 0.0243783 62 26 18
-0.048414 -0.0099556 0.0241715 54 25 22
-0.0487012 -0.00987973 0.0241002 80 26 14
-0.0486656 -0.00987004 0.0241241 96 38 26
-0.0491261 -0.0116682 0.0245072 56 67 32
-0.0481259 -0.0111342 0.0237377 36 46 28
-0.0485125 -0.0109586 0.023323 62 68 58
-0.0485256 -0.0109433 0.0233861 56 64 51
-0.0485141 -0.0109416 0.023438 68 76 60
-0.0485558 -0.0108733 0.0236138 56 66 50
-0.0492649 -0.010865 0.0242177 50 40 22
-0.0483791 -0.0107755 0.0245891 74 56 40
-0.0492612 -0.0106865 0.0240154 111 107 62
-0.0483507 -0.0104347 0.0237779 34 16 12
-0.0483498 -0.010396 0.0237921 116 87 76
-0.0483478 -0.0102683 0.0239828 46 17 14
-0.0483365 -0.0102619 0.0239929 44 19 17
-0.0482184 -0.010812 0.0242769 85 96 58
-0.0481724 -0.0107722 0.0244633 52 55 24
-0.0491467 -0.0117182 0.0245491 54 66 30
-0.0491034 -0.0116138 0.0244571 76 82 48
-0.0489979 -0.011556 0.0244679 138 140 92
-0.0478722 -0.0113133 0.0237184 83 82 64
-0.048395 -0.0110382 0.0229736 54 58 40
-0.0484679 -0.0110131 0.0231224 61 61 50
-0.048461 -0.011009 0.0231518 68 72 58
-0.0484614 -0.011002 0.0232635 65 74 60
-0.0484723 -0.0109942 0.0232433 64 68 56
-0.048579 -0.0109859 0.0232918 69 62 45
-0.0489291 -0.0110374 0.0238125 101 100 46
-0.048511 -0.0109371 0.0235286 66 75 59
-0.0483921 -0.0109148 0.0238947 40 48 35
-0.0482441 -0.0108183 0.0243855 72 64 32
-0.0483492 -0.0108141 0.0246434 122 116 77
-0.0480784 -0.0107733 0.0240562 154 118 102
-0.0491668 -0.0106771 0.023682 97 92 48
-0.0491772 -0.0106817 0.0237627 109 80 52
-0.0486062 -0.0106823 0.0243255 20 14 8
-0.0481092 -0.0107073 0.0239959 146 111 96
-0.0491685 -0.0105983 0.0242149 50 45 34
-0.0490882 -0.0105797 0.0241317 14 8 4
-0.0487203 -0.0105671 0.0239015 30 33 20
-0.0487981 -0.010544 0.023614 34 34 26
-0.0482051 -0.0105583 0.0241483 102 75 64
-0.0486811 -0.0104703 0.0237503 74 54 41
-0.0481861 -0.0104969 0.0240416 144 121 115
-0.0483076 -0.0104859 0.0239035 18 5 2
-0.0489534 -0.0104011 0.0238226 52 28 16
-0.0482124 -0.0104526 0.02411 136 104 98
-0.0482665 -0.0104535 0.0239123 134 96 68
-0.0482421 -0.0104426 0.0239475 130 90 74
-0.0486956 -0.0104027 0.0237839 44 22 16
-0.0483668 -0.0104305 0.0238778 30 14 9
-0.0466705 -0.010431 0.0261501 134 146 102
-0.0489393 -0.0103433 0.0232924 137 130 114
-0.0482263 -0.0103313 0.0242315 93 75 68
-0.0489463 -0.0103225 0.0231916 124 120 100
-0.0483667 -0.0102019 0.0240319 24 4 2
-0.0482771 -0.0101721 0.0242609 42 18 14
-0.0482634 -0.0101697 0.024276 39 16 12
-0.0483109 -0.0101561 0.024135 68 35 28
-0.0483179 -0.010153 0.0241058 64 31 24
-0.0482676 -0.0100947 0.0245177 52 24 14
-0.0483677 -0.0101325 0.0240784 52 24 20
-0.0483848 -0.0100341 0.0241343 52 24 19
-0.0482397 -0.0101117 0.0234116 90 52 33
-0.0483527 -0.00983897 0.0244794 68 30 22
-0.0484448 -0.00976542 0.0243195 90 55 50
-0.0494461 -0.0114161 0.0239553 56 64 37
-0.0480099 -0.0112536 0.0237493 44 54 30
-0.0484019 -0.0110471 0.0230218 69 77 61
-0.0488787 -0.0110158 0.0239297 124 122 80
-0.0485424 -0.0109333 0.0237484 155 160 106
-0.048664 -0.0108955 0.0243494 58 62 36
-0.0480357 -0.0108366 0.0241939 127 105 84
-0.0486133 -0.0108215 0.0247106 77 48 30
-0.0486031 -0.0107924 0.0246333 42 16 10
-0.0485812 -0.0107548 0.0241163 18 27 16
-0.0481646 -0.0107181 0.0244348 146 122 104
-0.0481467 -0.0106899 0.0239978 154 112 96
-0.0489639 -0.0105981 0.0239172 20 14 8
-0.0489628 -0.0105502 0.0238173 22 18 10
-0.0481532 -0.0105944 0.0238765 154 114 105
-0.0487771 -0.0105388 0.023494 34 34 24
-0.0481899 -0.0104818 0.0242573 118 90 73
-0.0482958 -0.00998376 0.0245415 83 51 43
-0.0486077 -0.00997091 0.0240354 62 18 11
-0.0480302 -0.0112343 0.0237311 37 52 28
-0.0484521 -0.0110634 0.0232747 152 154 106
-0.0484624 -0.0110454 0.0233301 134 141 92
-0.0484822 -0.0110319 0.0234172 132 136 96
-0.0485436 -0.0109096 0.0234842 49 58 42
-0.0492454 -0.010801 0.0244303 84 90 52
-0.04916 -0.0107719 0.0242199 80 85 47
-0.04817 -0.0107304 0.0241472 108 103 68
-0.0490356 -0.0106039 0.0237455 63 72 30
-0.0483524 -0.0106207 0.0241732 28 26 13
-0.0481452 -0.01062 0.0242381 92 60 42
-0.0481951 -0.0106129 0.0241918 152 114 106
-0.0491875 -0.0104366 0.0238996 54 56 36
-0.0481794 -0.0105031 0.0240616 144 122 112
-0.0488356 -0.0104384 0.0238165 28 14 7
-0.0482599 -0.0104686 0.0239539 134 91 71
-0.0482941 -0.0103973 0.0239349 128 105 94
-0.0482573 -0.0103375 0.023995 64 36 30
-0.0482558 -0.0102477 0.0242391 54 30 25
-0.0482941 -0.0101686 0.0240798 74 42 35
-0.048343 -0.0101472 0.0240992 58 31 25
-0.0496526 -0.0115409 0.0239337 71 68 46
-0.0479613 -0.0112257 0.0236998 146 156 110
-0.0484288 -0.0110352 0.0230959 78 84 72
-0.0486602 -0.0107994 0.023788 50 54 42
-0.0493125 -0.0107507 0.0241954 138 135 77
-0.0480936 -0.0107586 0.0240158 148 108 88
-0.0492073 -0.0105634 0.0241928 66 48 27
-0.0481532 -0.0106242 0.0242773 128 102 69
-0.0482137 -0.0106125 0.0242962 86 64 58
-0.0488945 -0.010473 0.023372 30 35 17
-0.0481854 -0.0105043 0.0241168 149 128 114
-0.0482097 -0.0105014 0.0239941 145 100 85
-0.0488873 -0.0104231 0.0232741 24 34 16
-0.0482842 -0.0104353 0.0239167 144 117 102
-0.0482217 -0.0103763 0.0241208 90 61 53
-0.04825 -0.010254 0.0241975 46 24 16
-0.0483067 -0.0103083 0.0235074 74 36 29
-0.0482893 -0.0101717 0.0241095 66 36 30
-0.0483673 -0.00995809 0.0242447 88 48 39
-0.0479787 -0.0112217 0.0237216 146 157 112
-0.0481464 -0.0111508 0.023755 40 50 31
-0.0493653 -0.010997 0.0243697 100 99 62
-0.0486258 -0.0108347 0.0241299 54 55 34
-0.0483147 -0.0107513 0.0245485 45 42 19
-0.0483477 -0.0103912 0.0237532 144 119 112
-0.0482459 -0.010212 0.024455 80 55 44
-0.0483909 -0.00996125 0.0242175 81 44 28
-0.0493007 -0.011319 0.0239789 78 83 46
-0.0484562 -0.0110204 0.0231304 61 66 59
-0.0489642 -0.0111632 0.0236441 104 106 52
-0.0486529 -0.0107888 0.0239767 71 75 51
-0.0486644 -0.0107683 0.0239623 78 84 74
-0.0491901 -0.0106521 0.0235228 38 40 22
-0.0491909 -0.0106586 0.0235677 55 52 31
-0.0491828 -0.010661 0.0235791 67 65 34
-0.0492083 -0.0106475 0.0235112 37 40 25
-0.0492972 -0.0106417 0.0235516 36 38 20
-0.0492255 -0.0106448 0.0235105 37 40 23
-0.0493092 -0.0106227 0.0234761 29 34 20
-0.0493272 -0.0106073 0.0234277 28 34 20
-0.0492293 -0.0105949 0.0234903 148 142 81
-0.048665 -0.0105712 0.0240073 74 78 66
-0.0489629 -0.0105329 0.0237855 30 27 16
-0.0488285 -0.0105129 0.023772 17 14 8
-0.0490608 -0.0103815 0.0239686 134 86 52
-0.0487174 -0.0104035 0.0237779 52 23 11
-0.0489623 -0.0103722 0.0232318 54 66 38
-0.0489802 -0.0103375 0.0232038 56 68 42
-0.049038 -0.0101817 0.0230886 164 152 137
-0.0486692 -0.00980142 0.0241664 98 40 28
-0.0493876 -0.0112596 0.0239514 110 108 66
-0.048933 -0.011124 0.0236909 120 120 66
-0.048605 -0.0108401 0.0236428 49 60 46
-0.0492878 -0.0107033 0.023988 56 54 30
-0.0492518 -0.0107053 0.0240092 62 63 31
-0.0492449 -0.0106446 0.0235266 46 49 28
-0.0483579 -0.0101005 0.0240783 62 33 29
-0.0488869 -0.0103458 0.023789 138 86 59
-0.0492447 -0.010694 0.0240897 76 76 40
-0.0485083 -0.010968 0.0233005 80 86 80
-0.0485895 -0.0108777 0.023551 56 66 52
-0.0486917 -0.0107878 0.023846 38 48 34
-0.0492311 -0.0106344 0.0234603 38 41 22
-0.0492841 -0.0106219 0.0234456 40 44 24
-0.0489412 -0.0106569 0.0235726 72 76 36
-0.0493601 -0.0105889 0.0234097 38 40 24
-0.0493745 -0.0105837 0.0234151 33 36 18
-0.048679 -0.0104346 0.0236861 42 26 24
-0.0486271 -0.0104158 0.0235834 34 20 14
-0.0489325 -0.010235 0.0239676 78 38 26
-0.0485394 -0.010199 0.0238735 43 18 15
-0.048674 -0.00973951 0.0242135 88 37 27
-0.0494905 -0.0104977 0.0233473 104 106 81
-0.0484562 -0.0103599 0.0237102 132 105 97
