ply
format ascii 1.0
element vertex 604
property float x
property float y
property float z
property uchar red
property uchar green
property uchar blue
end_header
-0.00248274 -0.00277745 0.000623183 0 255 0
-0.00228766 -0.00270384 0.00075665 0 255 0
-0.0026357 -0.0028511 0.000924663 0 255 0
-0.00266398 -0.00285427 0.000881845 0 255 0
-0.00248218 -0.00277724 0.000624627 0 255 0
-0.00288273 -0.00288295 0.000695404 0 255 0
-0.00357389 -0.00309731 0.00184164 0 255 0
-0.0043096 -0.00319761 0.00209444 0 255 0
-0.00439208 -0.0032041 0.00215878 0 255 0
-0.00597619 -0.0039225 0.00311626 0 255 0
-0.00602119 -0.00404458 0.00324562 0 255 0
-0.0060614 -0.00417524 0.00350752 0 255 0
-0.00619268 -0.004363 0.00362702 0 255 0
-0.0062753 -0.00447568 0.00365258 0 255 0
-0.00627182 -0.00450055 0.00381216 0 255 0
-0.0043612 -0.0034532 0.00223836 0 255 0
-0.00395668 -0.00330103 0.00194997 0 255 0
-0.00385964 -0.00317921 0.00167791 0 255 0
-0.00108046 -0.00323447 0.00666739 186 186 184
-0.00106965 -0.00322809 0.0064588 175 114 124
-0.000614112 -0.00316845 0.00672141 92 85 84
-0.00114695 -0.0030782 0.00675563 179 148 116
-0.00164761 -0.00316607 0.00774534 148 87 62
-0.00052688 -0.00197072 0.0054243 93 70 66
0.00314842 -0.00026194 0.011217 184 150 110
-0.00171802 -0.00105007 0.0056409 198 161 122
-0.00242558 -0.000955692 0.005374 206 170 128
-0.00310434 -0.000966549 0.00546725 203 164 122
-0.00324878 -0.000821406 0.00476436 206 166 124
-0.00283959 -0.000912817 0.00388921 190 149 107
-0.00242871 -0.00278519 0.000814789 133 40 55
-0.00247784 -0.00277527 0.000636655 174 140 106
-0.00159723 -0.00144604 0.00608688 196 162 124
-0.00246458 -0.0027608 0.000671021 190 152 108
-0.000596734 -0.0057635 0.00819589 210 207 208
-0.00135611 -0.00356373 0.00894572 193 193 193
-0.00157356 -0.0031664 0.00782133 145 85 60
-0.000939412 -0.00245359 0.00717063 156 70 32
-0.000676139 -0.00182928 0.00692316 189 154 116
-0.000548727 -0.00315363 0.00668105 87 110 124
-0.000991777 -0.00280508 0.00679842 182 150 112
-0.000580073 -0.00193528 0.00551187 70 44 34
-0.000780059 -0.00289708 0.00672938 111 88 77
-0.000909089 -0.00278234 0.0066924 192 128 78
-0.000679103 -0.00118789 0.00570223 204 200 193
-0.00098134 -0.00293675 0.00675937 231 154 92
-0.000685791 -0.00180536 0.00541983 65 42 29
-0.00141131 -0.00515601 0.00877994 204 200 198
-0.00231442 -0.00234297 0.00760141 198 163 128
-0.00333986 -0.0022026 0.00730391 46 36 32
-0.00187653 -0.00106755 0.00583209 196 159 120
-0.00257075 -0.000406295 0.00584176 187 152 114
-0.00343926 -0.00324723 0.00717559 73 78 79
-0.00343313 -0.00235161 0.00723106 11 10 12
-0.00211434 -0.000737383 0.00507394 205 172 131
-8.12164e-05 -0.00427035 0.00639066 205 197 194
-0.00312054 -0.00329445 0.00463073 180 172 166
-0.00318446 -0.00316928 0.00437447 173 140 108
-0.00300143 -0.00303732 0.00558415 170 144 117
-0.000933711 -0.0030256 0.00683584 179 145 106
-0.00327203 -0.00268345 0.00471673 185 152 114
-0.000911812 -0.00249333 0.00649894 186 146 112
-0.00331607 -0.00256584 0.00477713 187 154 117
-0.00309188 -0.00247364 0.00526549 31 25 24
-0.000548155 -0.00223543 0.00633218 26 39 60
-3.10574e-05 -0.00150834 0.00718896 96 80 76
-0.00303402 -0.00115946 0.00625418 197 158 115
-0.00303767 -0.00118583 0.00585255 209 171 128
-0.00270517 -0.000790729 0.00649075 207 172 130
-0.00256658 -1.41696e-05 0.00716174 206 168 126
-0.00233451 0.000109937 0.0072316 208 172 130
-0.00199915 0.000379994 0.00746217 206 172 130
-0.00371485 -0.000153497 0.0063753 200 160 118
-0.00217502 0.0011338 0.00773276 208 170 128
-0.00300382 0.00115351 0.00768304 208 174 131
-0.00270434 0.00142879 0.00785025 210 176 133
-0.000455328 -0.00356881 0.00563019 198 189 183
-0.00298002 -0.0031845 0.00386976 188 180 174
-0.00301721 -0.00295081 0.00451908 68 70 71
-0.00305233 -0.00291959 0.00448849 68 70 73
-0.00124746 -0.00244961 0.00581651 98 59 40
-0.000637109 -0.00223648 0.00580545 22 28 45
-0.00289141 -0.000357308 0.0067825 207 169 126
-0.000609821 -0.00502963 0.00867894 202 197 193
-0.000700395 -0.00500793 0.00873047 203 198 194
-0.000984072 -0.00293702 0.00688532 182 148 108
1.40543e-05 -0.00218139 0.0105435 132 100 76
-0.0033508 -0.00103949 0.00615361 208 170 124
0.000227452 -0.00433035 0.00984505 203 197 192
-0.00473255 -0.00326439 0.00991243 174 140 106
-0.00171891 -0.00231869 0.00839223 208 190 173
-0.00289772 -0.000956442 0.00537823 203 162 120
-0.00297749 -0.000880084 0.00525685 202 164 121
0.00101546 -0.00466148 0.00801892 205 197 194
-0.00081067 -0.00434843 0.00935898 206 202 198
-0.000965995 -0.00241287 0.00726953 143 70 38
-0.00206887 -0.00611591 0.00897122 204 200 194
-0.00131181 -0.00599646 0.00870214 210 205 202
-0.000535492 -0.0058487 0.00835121 208 204 201
0.000219115 -0.00568987 0.00799004 205 200 198
0.000797551 -0.00558063 0.00773335 205 198 196
0.000228838 -0.00560557 0.00798734 206 204 201
-0.00239028 -0.00539364 0.0094831 207 202 198
-0.00209056 -0.00537097 0.00946611 208 202 198
-0.00191353 -0.00534382 0.00938242 208 202 198
-0.00130174 -0.00518941 0.0090744 207 202 198
0.000937092 -0.00470996 0.00790664 198 194 190
-0.00146536 -0.00320215 0.0076722 168 128 100
-0.00330528 -0.00240677 0.00758892 30 8 9
-0.00159175 -0.00194445 0.00716292 194 160 122
-0.00416721 -0.00187924 0.00736861 200 161 116
-0.000422071 -0.00499435 0.00873311 202 198 194
-0.00116355 -0.00324292 0.00662109 186 186 184
-0.00130449 -0.00317426 0.00778147 180 150 117
-0.000883646 -0.00292417 0.00658131 127 64 32
-0.000732649 -0.00182083 0.00541629 64 42 30
-0.000549981 -0.00100916 0.00566221 197 158 114
-0.000687997 -0.00197794 0.00548018 72 50 42
-0.000666561 -0.00204763 0.00548197 116 90 72
-0.00157389 -0.00261191 0.00785596 154 124 96
0.00288663 -0.000273877 0.0148911 70 62 64
-0.00145043 -0.00113498 0.00543862 206 168 126
-0.000764302 -0.00188011 0.0054923 70 45 32
-0.00179993 -0.00124147 0.00556635 200 164 124
-0.00281223 -0.0016489 0.00725444 196 158 118
-0.002691 -0.00101652 0.00567627 212 174 132
-0.00199647 -0.000950728 0.00445709 212 178 134
-0.0027993 -0.00301084 0.00224698 187 181 174
-0.00259833 -0.00305873 0.00293517 196 192 188
-0.00248836 -0.00307387 0.0032206 194 190 186
-0.0028708 -0.0029088 0.00194064 158 122 90
-0.0014343 -0.000858614 0.00505251 214 184 144
-0.000709592 -0.0017484 0.00726849 186 148 106
-0.000669586 -0.00105577 0.00510388 189 150 109
-0.000750283 -0.00362204 0.00448969 200 192 189
-0.000612966 -0.00298946 0.00492634 176 173 169
-0.00172338 -0.00127201 0.00540377 205 171 130
-0.001122 -0.00243051 0.00509159 124 98 75
0.000350193 0.000361937 0.00832897 185 146 101
-0.0011844 0.00280201 0.0121547 208 173 128
-0.000580597 -0.00279923 0.00666193 60 82 108
-0.00105976 -0.00168401 0.00669085 191 158 118
-0.0014112 -0.00103166 0.00523745 192 150 104
-0.000628992 -0.00105871 0.00555258 194 156 114
-0.00109529 -0.00328448 0.00662767 190 186 182
-0.000912925 -0.00327073 0.00675489 165 130 136
-0.00057685 -0.00176616 0.00750047 188 154 114
-0.0015163 -0.00692694 0.00818418 212 207 203
-0.00286048 -0.00703673 0.00897002 203 196 192
-0.00243581 -0.00530969 0.00919857 210 206 202
-0.00182935 -0.00536117 0.00956157 206 201 197
-0.000548804 -0.00349001 0.00942534 192 192 187
-0.00360236 -0.00314211 0.00747429 68 70 72
-0.00290496 -0.00277725 0.0075578 192 159 122
-0.0029408 -0.00263718 0.00818716 192 160 122
-0.000361079 -0.00233379 0.0067699 224 118 52
-0.000949484 -0.00190224 0.00701161 188 150 110
-0.00140844 -0.00160288 0.00636138 201 169 132
-0.00302783 -0.00117358 0.00587147 208 171 126
-0.00340972 -0.00093222 0.00547555 216 178 134
-0.00326594 -0.000641114 0.0050046 212 173 130
-0.00238782 -0.000667106 0.00471672 208 167 122
-0.0010872 -0.00290025 0.00688872 182 152 117
-0.000804233 -0.00180808 0.00679472 182 144 102
-0.000493068 -0.00195964 0.00549017 80 56 47
-0.00353569 -0.00288024 0.00713188 114 106 99
0.0011485 -0.00251668 0.00786355 172 138 102
-0.00318319 -0.00240018 0.00761975 136 86 66
-0.000595983 -0.00179114 0.00713584 191 158 120
-0.00217975 -0.000423318 0.00552369 206 172 128
-0.00351513 -0.0023123 0.00777506 40 34 33
-0.00373227 -0.00120483 0.00613671 176 145 105
-0.00350245 -0.00115751 0.00600692 210 174 133
0.000431974 -0.00473475 0.00808737 201 195 190
-0.000255182 -0.00275078 0.00482379 168 135 98
-0.0023994 -0.000956064 0.0054111 212 174 132
-0.0015819 -0.00320885 0.00740206 186 156 124
-0.00176662 -0.0031474 0.00763719 143 84 56
-0.00112169 -0.0029234 0.00715119 180 150 117
-0.00354059 -0.00225681 0.00740732 20 18 21
-0.000399036 -0.00217003 0.00690465 28 36 54
-0.00163108 -0.00235601 0.00779471 206 202 197
-0.000566102 -0.00179124 0.00705331 188 158 119
-0.00381982 -0.00119197 0.00629161 218 184 140
-0.000651831 -0.00116739 0.00571766 226 234 240
-0.000963443 -0.00295135 0.00684446 211 151 98
-0.00159071 -0.00107006 0.00551293 204 165 123
-0.00247225 -0.00101782 0.00551158 202 168 128
-0.0032142 -0.00197162 0.0072111 190 154 111
-0.00355613 -0.00495031 0.0108365 200 193 186
-0.00339681 -0.00494029 0.0108571 210 202 196
-0.000434367 -0.00348758 0.00950966 198 196 194
-0.00082086 -0.00321441 0.0067754 161 111 117
-0.00088014 -0.00301623 0.00653011 106 23 32
-0.000568842 -0.00296388 0.00667354 158 105 82
-0.00144549 -0.0030319 0.00768244 128 66 40
-0.00339519 -0.00321641 0.00749011 88 90 90
-0.00323201 -0.00318564 0.00741553 186 154 124
-0.000556732 -0.00291233 0.0088753 186 156 123
-0.00068328 -0.00284728 0.00665235 216 174 131
-0.00062948 -0.00283372 0.0068584 219 172 124
-0.00410673 -0.0031489 0.00943705 186 150 112
-0.00336048 -0.00304108 0.00723633 26 24 22
-0.000694165 -0.00270503 0.00653316 232 178 136
-0.00070199 -0.00270004 0.00645184 169 142 120
-0.00074047 -0.00253893 0.00699125 31 82 123
-0.000798602 -0.00250976 0.00707048 194 100 50
-0.000819398 -0.00251096 0.00698891 164 78 37
-0.00100609 -0.00244139 0.00766921 191 158 123
-0.00171607 -0.00252015 0.00798668 61 58 59
-0.00100728 -0.00235882 0.00766562 98 112 126
-0.000453418 -0.00228798 0.00709247 122 92 66
-0.00349627 -0.00267605 0.00734885 25 18 12
-0.00343329 -0.00265 0.00755462 28 22 16
-0.00345085 -0.00266734 0.00731841 28 20 14
-0.00274137 -0.00246943 0.00819105 207 177 138
-0.00160103 -0.0023001 0.00804935 188 168 150
-0.00301487 -0.00238201 0.00791186 172 140 106
-0.00306437 -0.00235634 0.00779646 190 156 123
-0.000922092 -0.00190672 0.00690978 192 158 120
-0.000670126 -0.00203881 0.00558272 190 155 112
-0.00327731 -0.00211925 0.00771356 79 68 63
-0.000594258 -0.00171598 0.00707571 184 146 102
-0.000779803 -0.0018293 0.00536892 61 40 25
-0.000828324 -0.00173678 0.0055504 153 118 80
-0.000738793 -0.00154267 0.00565817 144 112 76
-0.000656716 -0.00115193 0.00577096 230 240 248
-0.000900761 -0.00313589 0.00675905 138 34 59
-0.000384096 -0.00317013 0.00951902 187 157 126
-0.00175544 -0.00306322 0.00793741 129 65 38
-0.00316767 -0.00312651 0.0073472 194 158 120
-0.000866313 -0.00255874 0.00718697 253 184 102
-0.0032621 -0.002391 0.00772642 50 15 12
-0.00349392 -0.00225285 0.00768823 16 12 14
-0.00177266 -0.0019906 0.00722113 212 177 136
-0.00352823 -0.00175538 0.00697385 204 164 118
-0.000625065 -0.00258137 0.00683079 178 104 65
-0.00165661 -0.0031684 0.00785688 142 82 56
-0.000875934 -0.00324095 0.00681116 150 98 88
-0.000729056 -0.00148376 0.00571122 140 108 74
0.000270438 -0.00518071 0.00952655 209 206 202
-0.000594977 -0.00319124 0.00923803 186 154 121
-0.000299419 -0.00316383 0.00960358 193 161 129
-0.000731449 -0.0029791 0.00659279 104 40 27
-0.0011061 -0.00274959 0.00672635 152 126 98
-0.00308794 -0.00274579 0.0077215 190 156 114
-0.00279577 -0.0019045 0.00721456 212 176 132
-0.00373493 -0.00172778 0.00732355 200 159 113
-0.000878781 -0.00325912 0.00647178 140 28 55
-0.000805655 -0.00322457 0.00657384 148 44 67
0.000316993 -0.00290023 0.00784697 230 180 134
-0.00133709 -0.00306363 0.00764583 188 160 130
-0.00124239 -0.00291234 0.00650199 182 151 118
-0.000623745 -0.00180104 0.00712265 186 150 112
0.000718602 -0.00558136 0.0077315 208 203 200
-0.00147805 -0.0049685 0.00642674 209 206 204
0.00026973 -0.00491968 0.00845076 206 203 199
2.66627e-05 -0.0054918 0.0104716 208 206 203
-0.000673475 -0.00510242 0.00899461 206 204 202
-0.000127831 -0.00542253 0.0102292 208 206 204
-0.000772076 -0.00327794 0.0066445 144 36 64
-0.000938232 -0.00326796 0.0065873 194 197 190
-0.00147972 -0.00337228 0.00948 191 160 129
-0.00162359 -0.00325904 0.00789912 147 98 72
4.64593e-05 -0.00308083 0.00943166 180 150 114
-0.000146663 -0.00305814 0.00877243 186 152 118
0.000150013 -0.00303261 0.00906185 183 151 115
-0.00121313 -0.00316692 0.0094893 197 166 135
-0.00275719 -0.00351091 0.011258 190 154 115
-0.00209901 -0.00330286 0.0101361 188 154 120
-0.00068064 -0.00281379 0.00672138 238 182 134
-0.000467215 -0.0028811 0.00869669 186 156 122
-0.000827505 -0.00289893 0.00789647 186 156 122
-0.000157827 -0.00283263 0.00886613 184 154 118
-0.000361272 -0.00284375 0.008439 184 154 119
-0.000835115 -0.00274775 0.00671197 197 133 82
-0.000884214 -0.00269969 0.00708953 139 124 108
-0.00314198 -0.003123 0.00749262 192 156 123
-0.00070895 -0.0026194 0.00669869 62 28 6
-0.000900411 -0.00262852 0.00651695 44 32 32
-0.00326563 -0.00310086 0.0071943 50 50 50
-0.000651234 -0.00252002 0.00714721 36 54 78
-0.00080815 -0.00187005 0.00696146 195 162 124
-0.000459422 -0.00176153 0.00709364 189 155 116
-0.000334064 -0.00171486 0.00715043 186 152 111
-0.00342359 -0.00241583 0.00796988 86 72 68
-0.003497 -0.0024369 0.00742255 32 17 12
-0.00339996 -0.00232571 0.00817657 36 29 22
-0.00343217 -0.0023349 0.00784042 33 16 12
-0.00190032 -0.00183421 0.00769569 211 176 138
-0.00086269 -0.00177911 0.00567592 192 158 117
-0.0035695 -0.00223575 0.00756627 20 20 22
-0.00173365 -0.00193014 0.00613175 196 158 114
-0.000738285 -0.00158871 0.00643925 196 161 120
-0.000728056 -0.00161357 0.00556879 163 136 82
-0.000821018 -0.00153174 0.00560724 122 88 56
-0.00359354 -0.00177489 0.00695048 204 163 118
-0.00177701 -0.00108946 0.00586838 199 160 116
-0.00330012 -0.00114704 0.0058216 220 181 137
-0.00133545 -0.00327953 0.00637221 204 161 116
-0.000823856 -0.00254141 0.00764728 174 85 44
-0.000918653 -0.00258515 0.00736055 222 128 70
-0.000616208 -0.00269542 0.00638905 172 138 102
-0.000266116 -0.0021369 0.00703605 24 36 59
-0.000747041 -0.0017818 0.00572506 153 120 86
-0.0007649 -0.00154282 0.0056982 138 105 72
-0.00057338 -0.00171909 0.00685679 188 148 106
-0.00272582 -0.000722884 0.00540618 211 176 134
-7.86128e-07 -0.00307018 0.00914193 186 154 120
-0.00312834 -0.00309495 0.00738197 194 158 120
-0.000762187 -0.00179927 0.00670886 188 148 104
-0.00354539 -0.00219385 0.00788904 38 39 41
-0.000419505 -0.00142782 0.00608527 168 132 94
-0.00332521 -0.00259616 0.00732141 126 96 70
-0.00183669 -0.00198262 0.00743287 203 168 127
0.00158318 -0.00456961 0.00741469 194 186 184
0.00154591 -0.00452062 0.00744317 194 186 184
0.000698514 -0.00396375 0.00826918 198 192 188
0.00188688 -0.00296198 0.00802912 178 174 170
-0.00329816 -0.00319666 0.00713921 173 142 112
-0.00075947 -0.00141289 0.0057651 194 184 168
-0.000741459 -0.0017977 0.00677409 190 153 114
-0.000680061 -0.00155427 0.00587604 146 112 79
-0.00089605 -0.00293985 0.00701823 188 160 125
-0.00149191 -0.00140932 0.00606662 200 164 121
-0.00086605 -0.00258579 0.00705442 230 134 68
-0.000571981 -0.00238 0.00682489 100 70 52
-0.00102795 -0.00244457 0.00724034 146 84 53
-0.000521063 -0.00230914 0.00680015 46 40 48
-0.000913904 -0.00148579 0.00614805 194 156 114
-0.00190804 -0.000649736 0.00499695 207 170 122
-0.00266359 -0.000749093 0.0052924 210 174 131
-0.00107648 -0.00382039 0.00477075 190 184 180
-0.00162356 -0.00315399 0.00794871 136 76 50
-0.000651921 -0.00198607 0.00702269 186 150 112
0.00152332 -0.00302158 0.00817284 186 186 186
-0.0016951 -0.00294496 0.00773984 136 87 66
-0.00157137 -0.00285907 0.00768738 162 133 110
-0.000792777 -0.00181215 0.00674513 190 151 109
-0.000802303 -0.00177227 0.00573439 199 164 124
-0.00356934 -0.00223104 0.00751256 36 36 38
-0.000683617 -0.00119468 0.00569687 236 248 254
-0.00348074 -0.00271256 0.00702934 23 16 10
-0.000806599 -0.00160588 0.00561578 140 108 71
-0.00241095 -0.00378417 0.00601306 166 174 182
0.000298492 -0.00290468 0.00736353 152 62 83
0.000843828 -0.0027524 0.00768146 120 40 46
0.00078263 -0.0026642 0.00742855 66 55 78
0.000902195 -0.00268307 0.00770918 130 72 50
0.000693143 -0.0027092 0.00768294 140 66 34
0.000219933 -0.00257237 0.00686873 178 146 118
3.77241e-06 -0.0025758 0.00669322 184 152 116
-0.00225136 -0.00339768 0.00603213 178 140 104
0.00085695 -0.00261553 0.00789178 250 146 69
0.000664842 -0.0025379 0.00747616 209 152 112
-5.16638e-05 -0.0026379 0.00692683 214 154 110
-6.73667e-05 -0.00260551 0.00682804 202 154 116
0.000224846 -0.00248192 0.00695492 187 156 116
0.0003695 -0.00271645 0.00767485 253 152 49
0.000674852 -0.00257541 0.0077234 244 149 75
0.000119887 -0.00253121 0.00698768 210 163 115
-0.000171597 -0.00285041 0.00738451 198 106 20
-0.000188298 -0.00260083 0.00683226 224 165 123
-5.82517e-05 -0.0025609 0.00700242 212 148 98
-0.000200506 -0.00280959 0.00741842 191 97 22
-0.000127328 -0.00274054 0.00750296 104 50 18
1.8016e-05 -0.00265557 0.00755693 46 12 0
-4.65661e-05 -0.00242935 0.00699004 254 166 56
-1.93216e-05 -0.00251253 0.00725677 144 61 22
-0.000850711 -0.00195142 0.00524851 76 50 44
-0.000721558 -0.00263278 0.00713953 167 74 28
-0.000504391 -0.00258416 0.00739646 254 163 71
-0.000500181 -0.00236997 0.00689891 53 54 65
-0.000249674 -0.00223743 0.00701385 160 132 104
-0.000980724 -0.00244503 0.00659948 42 55 72
-0.000725122 -0.00245278 0.0071845 42 48 58
0.000302428 -0.00269789 0.00942051 168 109 86
-0.000893152 -0.00256133 0.00738561 205 85 43
-0.000761221 -0.00170227 0.00554615 122 104 42
-0.000805528 -0.0024946 0.00753216 174 70 33
-0.0014823 -0.00210402 0.00549604 112 80 52
-0.000955354 -0.00254809 0.00750721 160 66 32
-0.00117603 -0.00190654 0.00559998 112 81 52
-0.00100015 -0.0017365 0.00566982 106 74 44
-0.000479829 -0.00256696 0.00869794 190 156 121
-0.00103729 -0.00173298 0.00571398 116 82 47
-0.000771277 -0.00270067 0.00875344 190 170 150
-0.000511316 -0.00266093 0.00908995 220 192 176
-0.00110095 -0.00165264 0.00552937 200 227 238
-0.000741013 -0.00233789 0.00800727 31 98 120
-0.0011763 -0.00163077 0.00540532 169 192 206
-0.00143409 -0.00253366 0.00734649 174 136 102
-0.000672837 -0.00254228 0.0091298 164 140 108
-0.00147977 -0.00245176 0.00737973 180 142 102
-0.00132743 -0.00241448 0.00842013 54 62 70
-0.000990721 -0.00198303 0.00859505 196 163 126
-0.000874314 -0.00192168 0.0087642 198 165 127
0.00402656 0.000228894 0.0151022 125 114 104
0.0273516 0.00934759 0.0467173 78 88 98
0.129923 0.0566051 0.174339 52 66 80
0.160222 0.0737115 0.196111 200 162 122
0.000365436 -0.000531541 0.0100279 199 158 121
0.00913266 0.00747513 0.0248617 31 32 37
0.0097755 0.00785795 0.0271324 24 22 24
0.00652094 0.00561144 0.0230376 18 16 18
0.00596789 0.00531284 0.0218351 21 21 23
0.00796538 0.00720366 0.0256152 15 15 19
0.00705844 0.007024 0.0231382 25 24 28
0.00718197 0.00695302 0.0256353 25 27 33
0.00415746 0.00465146 0.0192236 42 42 50
0.0042714 0.00475623 0.0194827 34 36 42
0.0083153 0.00821646 0.0261924 24 26 32
0.0050389 0.00541498 0.0210735 21 22 27
0.00493723 0.00505365 0.0226245 22 20 26
9.61971e-05 -0.00249953 0.00725975 202 124 72
-5.62537e-05 -0.00254903 0.00745523 76 34 22
0.000187187 -0.00242848 0.00756778 81 46 44
-0.000761945 -0.00245131 0.00662179 190 147 108
-0.00100915 -0.00273975 0.0071614 250 160 62
-0.000881383 -0.00160283 0.00564713 66 74 82
-0.00131644 -0.00156793 0.00547022 202 160 119
0.0133856 0.00377967 0.0288936 73 85 96
0.0159578 0.0047947 0.0327248 74 86 98
0.0443433 0.0228594 0.0809899 34 36 40
0.0159288 0.0118382 0.0338804 35 34 42
0.00843814 0.00731913 0.0244311 49 51 56
0.00813166 0.00720612 0.0251582 19 18 22
0.00810393 0.00745924 0.0247227 46 48 52
0.00418578 0.00468224 0.0196268 20 20 25
-0.000851929 -0.00239116 0.00736141 172 133 99
0.00101678 -0.00297029 0.00762617 127 37 54
0.00984716 0.00234516 0.0246528 74 86 96
0.00204592 -0.00168455 0.00592179 184 148 111
-0.00135854 -0.00277193 0.00838625 134 108 76
0.000489576 -0.00291492 0.00744986 82 29 37
0.000465949 -0.00267171 0.00753509 214 123 70
-6.63324e-05 -0.00285658 0.00742039 197 106 32
-0.000572837 -0.0026174 0.00729135 246 150 73
-0.00119862 -0.00252119 0.00646176 26 45 72
-0.0011154 -0.00253512 0.00668658 12 32 55
-0.000672861 -0.00242856 0.0072973 165 138 108
-0.00143901 -0.00269108 0.00723286 59 46 54
-0.00101669 -0.00244059 0.00723963 187 154 120
-0.000696577 -0.00262193 0.00842654 184 150 115
-0.00146077 -0.00281459 0.0078588 187 153 120
-0.00337962 -0.0036963 0.0070895 178 144 110
-0.00120351 -0.00150066 0.00552436 196 153 112
0.000360845 -0.000636309 0.00963278 194 157 120
0.010768 0.00780775 0.0268464 32 34 40
0.00426102 0.00472399 0.0195303 28 30 32
-0.00158476 -0.00316504 0.00788329 144 82 57
-0.00268192 -0.00422325 0.00599811 196 194 192
-0.00331719 -0.00394737 0.00612313 176 179 181
-0.00313664 -0.00392964 0.00632804 178 180 182
-0.00362829 -0.00388288 0.00681309 182 150 116
-0.00116591 -0.00290152 0.00792814 154 104 72
-0.000693934 -0.00223383 0.00770789 161 128 99
0.0119584 0.00338456 0.0257447 85 85 86
0.0120429 0.003298 0.0267117 76 86 96
0.0112892 0.00302352 0.0255238 72 82 90
-0.00193797 -0.00236061 0.00801888 190 156 116
0.71794 0.33537 0.844862 198 168 129
6.21347 3.88981 8.01717 195 162 128
0.0181025 0.012389 0.038634 22 20 20
0.00107235 0.000653728 0.0144224 23 19 17
0.018371 0.0128157 0.0379823 36 28 29
0.000259945 -0.00238804 0.00764618 64 34 34
-0.00101774 -0.00274418 0.00716906 226 152 70
-0.00213335 -0.00208005 0.00477558 194 156 112
0.0794864 0.0324274 0.107455 82 84 85
0.0314749 0.0119702 0.0486884 87 84 83
0.0316647 0.0123342 0.0480795 185 154 122
-0.00120278 -0.00270364 0.00723207 198 92 47
0.0447578 0.0174536 0.0658514 98 96 94
0.0248327 0.0095746 0.0393765 190 153 114
-0.00377522 -0.00404647 0.0061612 180 182 184
-0.00359213 -0.00385921 0.0056886 174 140 106
-0.00336253 -0.00376757 0.00577261 186 154 120
0.000944626 -0.00262583 0.00801687 126 103 76
-0.00412364 -0.00412009 0.00630452 184 182 184
-0.00315697 -0.00343912 0.00457746 181 147 110
-0.00350801 -0.00379823 0.00605928 183 154 118
-0.000448775 -0.00285674 0.00728062 188 156 118
-0.00410735 -0.00398696 0.0063744 185 154 119
-0.00433715 -0.00403901 0.00634157 180 144 111
-0.00029184 -0.00245189 0.00691943 170 78 34
-0.0044929 -0.00407504 0.00634095 181 146 112
-0.00157032 -0.00286258 0.00779732 181 172 166
0.00037122 -0.00119222 0.00603184 114 84 56
-0.00208606 -0.00239304 0.00556104 196 158 118
0.0149466 0.00494312 0.0286806 100 84 71
0.0151706 0.00513595 0.0286036 176 150 120
0.0208351 0.00823597 0.0353303 189 158 125
-0.000672964 -0.00142577 0.00605225 196 156 114
-0.00132145 -0.00156442 0.0054494 227 234 238
0.0333494 0.0173737 0.0513662 198 166 128
7.09603 4.05619 9.03168 76 72 70
0.0660909 0.0374272 0.0929998 192 158 120
1.56012 0.91123 2.01012 72 72 69
0.0021263 0.00106244 0.0144624 204 170 136
-0.00106176 -0.000523853 0.0121718 117 94 74
0.000227932 0.000474898 0.0136327 24 24 26
0.0015009 0.00147435 0.0151202 24 21 20
0.00318068 0.00274822 0.0174594 54 53 55
-0.00153742 -0.00077666 0.0115472 154 124 94
0.000781287 0.00127869 0.0147657 72 76 80
0.000456148 0.00112135 0.0145441 42 41 45
0.00217239 0.00246658 0.0168544 52 57 62
0.00239727 0.00272346 0.0170849 42 44 49
0.00626105 0.00537044 0.0119742 203 161 115
0.00537262 0.00616859 0.0088511 203 162 115
-0.00265233 -0.00432792 0.00469209 190 186 186
-0.003069 -0.00407749 0.00451241 184 180 176
-0.00295604 -0.00408616 0.00472182 188 184 181
-0.00281374 -0.00413206 0.00523512 199 195 194
-0.00279519 -0.00417133 0.00555159 202 198 198
-0.00302541 -0.0042623 0.00597281 201 200 198
-0.00376882 -0.00404143 0.00618239 180 181 184
-0.00453728 -0.00420507 0.0063187 185 184 188
-0.00456197 -0.00409132 0.00641004 174 140 108
-0.00424893 -0.00387548 0.00672545 183 148 117
-0.00064577 -0.00205315 0.00556761 197 162 122
-0.00240778 -0.00293221 0.00703739 182 148 112
-0.00145362 -0.0016337 0.00541541 199 194 188
-3.42952e-05 -0.000814013 0.00950383 198 163 126
2.4888 1.48195 3.15931 72 52 37
-0.000498786 -0.000818841 0.00606467 199 158 110
0.0245697 0.0250081 0.0499157 184 142 102
0.000541715 -0.00420363 0.00909939 200 196 192
-0.00170689 -0.0019685 0.00717777 199 165 128
0.00124677 -0.00485129 0.00826191 206 202 202
-0.000531104 -0.00361094 0.0100372 182 184 186
-0.00298181 -0.00372158 0.00516993 173 140 104
-0.00321355 -0.00369137 0.00466792 170 134 98
-0.00300589 -0.00372731 0.00532926 171 136 99
-0.00312202 -0.00366406 0.00477116 170 132 96
0.000565593 -0.0029353 0.00759316 174 140 101
-0.00375351 -0.00403786 0.00621699 178 177 176
-0.00274042 -0.00366317 0.00641142 178 146 110
-0.000308474 -0.00293348 0.0072517 136 93 58
0.00124213 -0.00240663 0.00816615 201 104 30
-0.00288346 -0.00355717 0.00598324 180 144 109
-0.00266276 -0.0034933 0.00619903 182 150 114
-0.00266552 -0.00349244 0.00623227 187 154 118
-0.00279582 -0.00352242 0.00632134 176 146 112
0.000314541 -0.00237357 0.00765598 12 22 35
6.41778e-05 -0.00243386 0.0075553 12 26 39
-0.00162538 -0.00260645 0.00774218 182 148 114
0.00613148 0.000852577 0.0189564 84 82 78
0.00601906 0.000871617 0.0185052 124 108 96
-0.00139747 -0.00211519 0.00632041 186 148 112
-0.000627236 -0.00173161 0.00723185 185 143 103
-0.000623745 -0.00162877 0.00638079 196 162 124
3.62688 2.01867 4.57194 54 52 50
-0.000754861 -0.00113733 0.00545214 193 150 104
0.00134943 0.000396217 0.0132323 198 166 128
-0.000886459 -0.000883867 0.00542997 204 168 122
0.00588204 0.00531162 0.0207335 40 40 44
0.00286588 0.00327584 0.0170097 30 28 31
0.00373746 0.00398988 0.0180894 21 19 26
0.0167886 0.0151644 0.0375655 64 62 62
0.0712057 0.0651139 0.106832 192 152 116
0.000533766 0.00171286 0.00588905 207 170 121
0.0117618 0.0138382 0.0160148 216 176 130
0.00109888 -0.00476079 0.00810892 206 202 202
-0.000792524 -0.0019478 0.0070413 197 162 126
-0.000844143 -0.00155301 0.00676444 202 168 130
-0.000537938 -0.00203253 0.0052371 144 114 89
-0.00226394 -0.00210537 0.00743517 194 160 122
-0.00246849 -0.00215084 0.00755324 192 158 118
-0.000735209 -0.00200515 0.00551956 66 41 28
-0.00127452 -0.00227588 0.00767832 190 154 118
-0.001168 -0.00101319 0.00549383 210 170 122
-0.00256475 -0.00215904 0.00778267 196 160 122
-0.001359 -0.00106251 0.00552313 202 163 118
-0.00161486 -0.00321954 0.00937471 179 146 110
0.00269904 -0.00362553 0.00783644 203 196 193
0.00194583 -0.00380052 0.00821866 208 202 199
0.000285332 -0.00333966 0.00923652 191 192 192
-0.000160464 -0.00311806 0.0093966 192 162 128
-0.000223617 -0.00314885 0.00961922 193 162 128
-0.000446048 -0.0029885 0.00915507 188 157 124
-0.00161474 -0.00316683 0.00790655 156 96 70
-0.00337249 -0.00323907 0.00733868 76 80 84
-0.00339824 -0.00324016 0.00736061 78 83 86
0.000267084 -0.00159127 0.00564897 194 157 114
-0.0011206 -0.00125068 0.0057176 204 163 119
-0.00168775 -0.00119694 0.00570456 204 172 133
-0.00155017 -0.00112645 0.00570348 202 168 129
-0.00381227 -0.0017267 0.00736971 188 152 110
-0.000345755 -0.000340623 0.00576655 198 158 116
-0.00230732 -0.00102963 0.00591134 187 152 114
-0.000130401 -0.00313801 0.00973686 187 158 126
-0.00123437 -0.00246451 0.0081616 188 154 124
-0.00173296 -0.00105385 0.00550234 214 178 136
0.000902741 -0.00317311 0.00858351 186 186 184
-0.000657626 -0.00290867 0.00844428 184 155 123
-0.000636611 -0.00289499 0.00825127 180 150 118
-0.0031088 -0.00258882 0.00764245 125 98 68
-0.000951139 -0.00197312 0.00722244 190 152 113
-0.00232956 -0.00211853 0.00746875 199 165 128
-0.00345996 -0.00177149 0.00673923 196 157 114
-0.00354898 -0.00178412 0.00680865 194 156 112
-0.00225006 -0.000947244 0.00546573 204 170 131
