ply
format ascii 1.0
element vertex 1745
property float x
property float y
property float z
property uchar red
property uchar green
property uchar blue
end_header
-0 -0 -0 0 255 0
-0.796551 -0.133123 -1.61998 0 255 0
0.00109982 -0.00947097 0.00266757 0 255 0
0.00123515 -0.00976143 0.00227974 0 255 0
0.000868706 -0.00923798 0.00299268 0 255 0
0.0027868 -0.0071856 0.0023912 0 255 0
-0.000301264 -0.000180581 0.0013243 0 255 0
-0.000124176 -0.000153785 0.00107787 0 255 0
-0.000124127 -0.000163435 0.00116086 0 255 0
0.00869778 0.00522313 0.00988645 0 255 0
0.00863715 0.00507398 0.00988035 0 255 0
0.00846199 0.00487629 0.00989787 0 255 0
0.00846294 0.00460656 0.0095049 0 255 0
0.00856123 0.00431216 0.00910868 0 255 0
0.00844914 0.0042852 0.00926611 0 255 0
0.000584906 0.00287447 0.00224716 0 255 0
0.000569877 0.00285729 0.00222666 0 255 0
0.00113754 -0.00016338 0.00127712 0 255 0
0.00394597 0.00111325 0.0146581 126 100 79
0.00404338 0.00117746 0.0146559 210 190 164
0.00409841 0.00122029 0.0146821 94 71 44
0.00413213 0.00120794 0.0146411 76 52 26
-0.00331206 -0.000414075 0.0145106 110 102 100
-0.0038449 -0.000239921 0.014281 78 78 81
0.00416456 0.0019574 0.0160385 62 53 25
-0.00342319 -0.000362795 0.0149645 60 50 43
-0.00339721 -0.000266625 0.0146001 124 112 100
-0.110624 -0.0519821 0.454392 147 129 108
-0.00281251 -0.000361155 0.0126849 108 96 88
-0.00612998 -0.00203824 0.0197931 98 86 74
-0.338946 -0.174233 1.33384 58 56 50
-0.00398036 -0.00108408 0.0142801 64 37 38
-0.00353045 -0.000870453 0.0147313 18 8 6
-0.00391947 -0.00108099 0.0126761 186 159 126
-0.00340493 -0.00120469 0.0142189 121 98 78
-0.00261314 -0.000254905 0.00842901 126 101 80
0.00435485 0.00204467 0.017018 122 118 100
0.00382037 0.00211054 0.0166043 206 205 202
-0.00030952 -0.00216059 0.0139627 176 152 130
7.05143e-05 -0.00205465 0.0139837 184 162 137
1.07436 0.516767 3.97649 239 226 200
-0.00439931 -0.000293517 0.0172041 86 72 65
-0.00214609 -0.00407367 0.0110197 86 72 58
1.18191e-05 -0.00724822 0.00568257 94 90 87
0.000347035 -0.00792194 0.00471706 58 52 52
0.00385232 0.00118207 0.0134627 186 172 152
0.00395846 0.00153194 0.0137838 179 165 146
0.00388378 0.00157748 0.0136793 108 108 114
-0.00342126 -0.00196795 0.0147355 81 68 60
-0.00221994 -0.00394423 0.0114524 88 74 66
-0.00455088 0.000417333 0.0184301 78 58 38
-0.00288571 -0.00384347 0.0109987 24 18 13
0.000399058 -0.00802699 0.00457781 57 52 52
-3.94997e-06 -0.00713338 0.00569344 106 98 93
0.00376927 0.000943359 0.0133962 108 98 69
0.00379209 0.00109394 0.0134756 158 146 134
0.00383869 0.00120325 0.0135243 108 95 78
0.00379742 0.000784292 0.0130293 226 210 188
0.00406209 0.00240003 0.0144671 108 108 114
0.00422774 0.00212821 0.0141394 217 218 214
-0.00430353 -0.00167841 0.0147693 124 116 110
-0.00206189 -0.00493753 0.00914791 176 148 120
-0.00436726 -0.00112031 0.0143851 156 129 102
-0.00320854 -0.000633206 0.0143765 51 46 46
-0.000455627 -0.00626492 0.00681896 37 31 26
-0.00336302 -0.000108295 0.0142584 30 14 3
0.00411785 0.00136523 0.0140764 102 95 54
-0.00068592 -0.0017305 0.0168343 144 100 69
-0.00304159 -0.00292076 0.0129647 84 80 79
-0.00493135 0.00112001 0.0183195 180 153 127
-0.0453931 0.0731554 0.122821 174 144 114
-0.00371035 -0.000546722 0.0143011 48 46 48
-0.000512049 -0.00647431 0.00649705 28 29 31
-3.63053e-05 -0.00709812 0.00574534 106 96 90
0.00371797 -0.00119093 0.0138784 140 112 88
0.00359956 0.00101117 0.0137025 246 240 241
0.00439634 0.00366911 0.0157974 116 116 124
-0.00321848 -0.00275505 0.0137661 84 72 64
-0.0231392 0.0346865 0.0687223 185 158 128
-0.00391343 -0.000845703 0.0143661 34 12 8
-0.00383811 -0.000448312 0.0142879 42 42 42
0.0038442 0.00033173 0.013689 76 53 24
0.00379929 0.00198309 0.0147369 246 238 238
0.00371364 0.000879306 0.0141622 180 150 104
0.0039196 0.00120209 0.0135376 253 238 202
0.0038977 0.00167195 0.0138131 91 90 97
-0.00293638 -0.0020459 0.0135334 17 12 15
-0.00310567 -0.000330203 0.0144146 44 30 21
0.00369286 -0.000325205 0.0129357 76 52 22
0.00371677 0.000900378 0.0141701 168 140 92
-0.00343242 -0.0020279 0.0145228 67 54 46
-0.003297 -0.00195195 0.0147358 32 24 20
-0.00355368 -0.00226587 0.0147098 80 70 60
-0.00380575 -0.00179703 0.0146681 24 19 17
-0.00398406 -0.00177331 0.0144905 19 16 14
-0.00425357 -0.00173751 0.0143573 81 68 60
-0.001698 -0.00549891 0.00850587 77 69 57
-0.084582 0.142279 0.226463 116 94 76
-0.00421339 -0.00182679 0.0144218 170 162 159
-0.00136989 -0.00595527 0.00771057 104 82 58
0.00404607 0.00215906 0.0146144 89 77 63
-0.00351275 -0.00242792 0.0144485 69 61 53
-0.00670381 0.00471302 0.0239757 186 154 120
0.00339532 -0.000137428 0.0132177 225 202 170
-0.00425696 -0.00171188 0.014694 151 143 136
-0.00328487 -0.00180908 0.0147077 58 40 20
-0.00337404 -0.00210032 0.0148733 32 20 8
-0.00353905 -0.00199148 0.0146854 15 10 6
-0.00439355 -0.00183986 0.0143641 88 78 70
-0.00430161 -0.000729792 0.0144177 42 32 28
-0.00423231 -0.00188541 0.0143814 142 135 125
-0.00425907 -0.00178825 0.0144685 154 148 142
-0.00331096 -0.00209066 0.0147937 52 32 18
-0.00341538 -0.00135375 0.0144649 16 10 5
-0.000268265 -0.00243934 0.0146995 177 158 142
-0.000405443 -0.00197988 0.0146503 236 220 176
-0.000157329 -0.00194083 0.0147711 158 136 103
8.41192e-05 -0.00236612 0.0149203 127 98 72
-0.00411904 -0.00150998 0.0143412 78 62 48
-0.00418146 -0.000629488 0.0142662 43 38 36
-0.00046748 -0.00247218 0.0148378 146 118 90
-0.00414817 -0.000415259 0.0142954 27 26 28
-0.00405448 -0.00180127 0.0144516 24 18 14
-0.000299929 -0.00218205 0.0148599 229 206 157
-0.00347806 -0.000138684 0.01428 104 90 72
-0.00434234 -0.000640825 0.0143441 90 90 90
-0.00342433 -0.000755127 0.0144633 49 45 48
-0.00395856 -0.000492215 0.0143386 15 11 12
-0.0034192 -0.00211488 0.014368 18 12 8
-0.00057239 -0.00172005 0.0149372 239 232 222
0.000475366 0.00263378 0.0335003 144 76 68
0.00433071 0.00206419 0.0159142 193 184 162
0.00435001 0.00201342 0.0158571 229 213 178
-0.000402059 -0.00258818 0.0148364 178 138 114
9.40377e-05 -0.00232887 0.0149517 166 138 116
-0.00423006 -0.0018044 0.0144183 122 117 110
-0.00338139 -0.00135635 0.0144222 60 39 20
-0.00346787 -0.00128786 0.0144592 35 20 8
-0.00276838 -0.000580125 0.00942594 86 83 78
-0.00322572 -0.000784153 0.0144734 170 148 126
-0.00377026 -0.000538012 0.0144168 58 54 57
-0.00344806 -0.000316803 0.0146137 51 42 33
-0.00574995 -4.54933e-05 0.0235377 110 94 75
-0.00331193 -0.000853081 0.0144845 62 57 46
-0.00329526 -0.000501867 0.0147672 92 86 77
-0.00580228 -0.00011475 0.0233623 33 27 22
-0.00332061 -0.000856411 0.0144708 68 60 49
-0.00290885 -0.000546187 0.0113505 36 32 33
-0.00428555 -0.000850455 0.0142613 92 84 76
-0.00423902 -0.000687865 0.0142149 60 58 55
-0.00435933 -0.000506355 0.0190302 112 101 92
-0.00328962 -0.000739948 0.0145344 74 64 58
-0.00305354 -0.000293481 0.0112531 71 72 72
-0.00354899 -0.0013277 0.0143904 46 30 17
-0.00343772 -0.00127001 0.0143452 47 32 16
-0.0035407 -0.00132015 0.0143484 63 47 32
-0.00372253 -0.000662648 0.0144233 40 36 36
-0.00326751 -0.000446322 0.0144686 68 59 50
-0.00271059 -0.00046365 0.00909491 85 84 81
-0.00324362 -0.000549806 0.0146095 38 36 35
-0.00343041 -0.00136148 0.0144037 7 6 4
-0.00200559 -0.0005728 0.00918837 150 124 96
-0.00191959 -0.00056995 0.008815 142 114 84
-0.00233629 -0.000418569 0.00799575 94 94 90
-0.00322679 -0.000548633 0.0145669 38 34 30
-0.00327395 -0.000345087 0.0145974 122 108 98
-0.00376161 -0.000551412 0.0144201 50 47 51
-0.00400106 -0.000921478 0.0143394 104 96 93
-0.00383383 -0.00032701 0.0142519 108 108 110
-0.00351238 -0.00028627 0.014751 90 81 76
-0.00386422 -0.000226494 0.0144052 92 92 92
-0.00419901 -0.000844057 0.0140388 104 94 80
-0.00421001 -0.000833334 0.0141701 71 68 64
-0.00407437 -0.000699317 0.0138154 82 81 78
-0.00346401 -0.000382196 0.0149895 74 60 51
-0.00325132 -0.000749567 0.0145124 74 64 58
0.00242813 -0.00352973 0.0155313 84 56 58
0.00245576 -0.00343521 0.0157419 134 80 96
-0.000368497 -0.00142768 0.00753546 130 84 53
-0.000463815 -0.00198362 0.0158264 228 206 163
-0.0034256 -0.00189422 0.0144747 42 31 20
-0.00336341 -0.00180031 0.0143887 40 18 2
-0.107061 -0.0525641 0.43695 110 88 66
0.00258692 -0.00353162 0.0158436 112 34 52
0.00246352 -0.00343711 0.0157584 144 92 108
-0.000268059 -0.000902999 0.00488064 162 120 88
-0.00015231 -0.000322393 0.00232368 205 185 148
0.00297724 -0.00414042 0.0156358 80 60 60
-5.07133e-05 -0.0012961 0.00617852 159 116 88
-0.000379321 -0.00299259 0.0148581 161 102 76
-0.000269838 -0.000910756 0.00488061 177 138 106
-0.00332488 -0.00225024 0.0142278 90 80 72
-0.0417083 -0.0250777 0.173371 108 102 98
-0.0033556 -0.00181022 0.0143855 42 22 6
-0.000221551 -0.000802551 0.00410458 188 145 116
-0.00337746 -0.00220228 0.0143811 104 94 86
-0.00080746 -0.00177909 0.0159299 212 195 175
-0.00330217 -0.00179868 0.0142491 43 25 12
-0.0033992 -0.00219725 0.0143579 95 86 79
-0.0126015 -0.00776948 0.0519295 36 28 20
-0.0254554 -0.0139835 0.0990715 56 49 42
0.00262721 -0.00365589 0.0157483 188 191 184
2.58798e-05 -0.00101832 0.00578297 108 54 26
-0.0405665 -0.0308808 0.172267 50 38 26
0.000316549 -0.00267061 0.0149529 110 56 29
-0.00308146 -0.00207379 0.014205 38 24 16
-0.00559121 -0.00426659 0.0235935 52 47 42
-0.00035594 -0.00294314 0.0146776 176 118 90
2.94117e-05 -0.00270109 0.0147973 155 92 66
-0.00039727 -0.0022611 0.0147061 230 210 176
-0.000149378 -0.00179555 0.01478 68 50 36
-0.00408542 -0.00045725 0.0144973 202 204 206
-0.00329115 -0.000641743 0.0145974 76 72 68
-0.000437383 -0.0022599 0.0147055 208 186 156
-0.000319707 -0.00218146 0.0148005 238 213 164
0.00273463 -0.00389976 0.0158131 130 96 100
-0.000392087 -0.0019564 0.014743 240 222 176
-0.00347189 -0.00195202 0.0143703 57 56 52
-0.000773248 -0.00157136 0.0145252 205 186 170
-0.00344176 -0.000783763 0.0145178 39 36 38
-0.00332559 -0.00187506 0.0144472 40 26 18
0.00327195 -0.00432606 0.0157291 166 122 132
-0.000112761 -0.00243251 0.0147718 96 76 68
-3.08949e-05 -0.00230645 0.0146468 212 198 182
-0.000396101 -0.00205279 0.0149026 250 238 192
-0.000752405 -0.0015195 0.014545 234 232 228
-0.00401091 -0.000922121 0.0144317 108 99 95
-0.00424483 -0.000838555 0.0143375 76 72 70
-0.00392542 -0.000308078 0.0144315 104 105 108
-0.000525858 -0.00307104 0.0146685 180 137 106
-6.45693e-05 -0.001815 0.015084 154 132 114
-0.000263613 -0.00165812 0.014932 142 146 149
-9.21607e-05 -0.00247291 0.0150044 116 100 92
-0.00024349 -0.0025343 0.0149808 216 189 170
-0.00057343 -0.00315536 0.0151779 140 97 68
-0.000481818 -0.00253517 0.0149289 230 203 180
-0.000211209 -0.00177766 0.015784 88 93 95
-0.00377627 -0.0015468 0.013156 26 18 10
-0.000426053 -0.0020358 0.0152573 226 206 164
-0.00351754 -0.00133494 0.0139702 122 101 77
-0.000492145 -0.00246744 0.0146869 108 76 52
-0.000455668 -0.00246642 0.0147098 186 164 142
-0.00397503 -0.000294819 0.014505 105 108 110
-0.00360016 -0.000253319 0.0146103 69 69 67
-0.00342729 -0.00189268 0.0144705 46 34 22
-0.00319439 -0.000487964 0.0145487 51 34 24
-0.0034089 -0.000762907 0.014484 88 86 89
-0.00317056 -0.000492205 0.0144243 48 33 23
0.000101322 -0.00323148 0.0146992 166 125 96
-0.000757813 -0.001665 0.0146648 214 204 192
-0.00344043 -0.00156049 0.0143734 102 82 56
-0.000117797 -0.00245226 0.0148967 192 176 170
-0.000232061 -0.00193347 0.0148591 220 203 166
0.000204201 -0.0026006 0.01491 110 48 24
-0.000570492 -0.00259384 0.0145937 114 66 37
-0.000225009 -0.00220903 0.0148723 158 122 78
0.00477189 0.000685434 0.0220496 248 148 174
0.00464048 0.000551969 0.0219961 254 150 190
0.00460227 0.000620343 0.0222984 241 134 170
0.00464015 0.000699118 0.022286 213 88 119
0.00471784 0.000588585 0.0208953 124 36 16
0.00448851 0.000600213 0.0225893 208 80 114
0.00402579 -0.00013665 0.0230115 96 28 38
0.00496558 0.000866706 0.0200502 240 152 66
0.00404383 -0.000100014 0.0228164 198 98 126
0.00401259 -8.62541e-05 0.0229904 76 8 19
0.0053147 0.00169633 0.0204794 148 89 48
0.00408104 -6.86614e-06 0.02251 237 132 150
0.00408378 2.62512e-05 0.022618 202 100 121
0.00404158 7.10035e-05 0.0228923 148 64 84
0.00533247 0.00177622 0.0205531 199 126 77
0.00443362 0.000652604 0.0223465 230 124 162
0.00481412 0.000851339 0.0203393 194 104 59
0.00407783 0.000264573 0.0231617 201 93 122
0.00486304 0.00117918 0.0212359 202 190 190
0.00449285 0.000557419 0.0212358 153 77 66
0.00418218 0.000296507 0.0219251 100 32 8
0.00436972 0.000654128 0.021878 176 122 100
0.0032787 -0.000617565 0.0244968 158 82 94
0.00526447 0.0018083 0.0201024 178 160 150
0.00475257 0.00112187 0.020976 150 80 55
0.00488556 0.00135518 0.0206725 142 138 139
0.00497776 0.0014751 0.020506 174 182 177
0.00505042 0.00158994 0.0202994 200 184 176
0.00526881 0.00183652 0.0197123 133 145 150
0.00518019 0.00182813 0.0202782 158 156 146
0.00487972 0.00135831 0.02041 160 112 76
0.0045911 0.000996802 0.0209211 61 15 1
0.00469857 0.00116659 0.0207953 178 116 78
0.0046266 0.000822351 0.0200762 128 116 118
0.00500963 0.00163809 0.0202761 116 84 64
0.00511776 0.00138197 0.0187525 63 50 44
0.00518825 0.00184283 0.0197854 177 156 150
0.00467583 0.000971532 0.0197899 144 130 128
0.00465312 0.00120745 0.0206251 214 153 116
0.00462634 0.00121577 0.0208218 116 52 17
0.00467707 0.00132937 0.0206102 214 152 110
0.0050125 0.00184554 0.0202326 97 98 94
0.0048069 0.00157656 0.0202474 133 74 35
0.00466816 0.00113528 0.0194685 108 54 12
0.004522 0.00130038 0.020635 201 180 170
0.00440365 0.0013068 0.0208273 198 126 78
0.00488747 0.00191418 0.019547 180 104 42
0.00429851 0.00131572 0.0207095 61 78 82
0.00447473 0.00150897 0.0203537 234 161 114
0.00468391 0.00173494 0.0195337 62 32 26
0.00552952 0.00265982 0.0171769 149 81 57
0.00545758 0.00272188 0.0176338 202 106 60
0.00523324 0.00253224 0.0180643 187 98 66
-0.0265983 -0.0211058 0.0901971 72 92 120
0.00550186 0.00287288 0.0172902 73 84 104
0.00596569 0.00420674 0.0184615 126 96 66
0.00595235 0.00423296 0.0184944 154 126 100
0.00588289 0.00424821 0.0187789 138 114 99
0.00585069 0.00429293 0.0188924 150 122 102
0.00588001 0.00433552 0.0188204 60 33 12
0.00418736 0.00139994 0.0188372 238 166 98
0.00583999 0.00425536 0.0187685 142 118 105
0.00584466 0.00427455 0.0187954 59 36 18
0.00583805 0.00424962 0.0187245 98 73 53
0.00624176 0.00470848 0.0180829 212 177 147
0.00584536 0.00429823 0.0186787 66 43 24
0.00594231 0.00451952 0.0188058 196 178 172
0.00607836 0.00462367 0.0184091 123 100 83
0.00580531 0.00454849 0.0191953 228 212 203
0.00609888 0.00466215 0.0183348 240 212 188
0.00601832 0.00461369 0.0184799 235 216 200
0.00510513 0.00250087 0.0172837 157 130 108
0.00611377 0.00465669 0.0178889 176 149 108
0.00590684 0.00448993 0.0181473 111 85 27
0.00589094 0.00452368 0.0181623 66 46 1
0.00593139 0.00458472 0.0180149 183 174 109
0.00508966 0.0029835 0.0176607 81 74 69
0.00590496 0.00437147 0.0176469 162 135 104
0.0059315 0.00460125 0.0180145 164 162 90
0.00219116 -0.000467185 0.0203515 181 122 105
0.00418648 0.00187303 0.0183814 192 131 94
0.00580129 0.00442138 0.0179307 160 130 96
0.00588928 0.00459273 0.0179844 154 150 78
0.00591652 0.0046674 0.017933 162 162 90
0.00583784 0.00454365 0.0178869 160 148 102
0.00444116 0.00188228 0.0172684 104 118 132
0.00446545 0.00201073 0.0174469 90 46 24
0.00588664 0.00465751 0.0178969 130 130 66
0.00413629 0.00164802 0.0177561 44 46 50
0.00598306 0.00479091 0.0178384 185 172 122
0.00450334 0.00193057 0.0170507 50 51 48
0.00585774 0.00466752 0.0179003 161 159 122
0.00596689 0.00480941 0.0178058 236 206 171
0.00599817 0.00485296 0.0178006 251 226 196
0.00423328 0.00183301 0.0175213 82 90 101
0.00428826 0.00190211 0.0174335 40 44 47
0.00433678 0.00194907 0.0173829 101 106 102
0.005805 0.00463521 0.0178426 123 128 131
0.0058456 0.00467257 0.0177228 126 134 136
0.00576738 0.0044857 0.017537 212 217 218
0.00577082 0.00452037 0.0175897 203 222 236
0.00579936 0.0045972 0.01763 68 74 83
0.00120002 -0.00107365 0.0212488 167 122 102
0.0016237 -0.00071168 0.0204436 206 175 158
0.00241256 0.000119349 0.0195686 174 171 166
0.00598089 0.00481689 0.0173649 90 110 118
0.00194396 -0.000401045 0.0198972 174 140 124
0.0055636 0.00444981 0.0178846 118 94 71
0.00402901 0.00187281 0.0176368 141 135 169
0.00562276 0.00449665 0.0176559 136 108 87
0.00227394 -4.85195e-05 0.0192887 114 74 50
0.0039694 0.00186353 0.0176301 132 91 68
0.00302624 0.0010269 0.0176131 118 104 87
0.00235827 0.000629045 0.0186661 217 206 170
0.00306431 0.00114324 0.0175983 68 66 57
0.00235659 0.000661361 0.0186181 154 150 128
0.00317751 0.00116981 0.0171557 138 120 103
0.00283591 0.00108667 0.0176824 187 205 222
0.00277978 0.00109464 0.0177285 146 162 177
0.00456863 -2.00484e-05 0.022291 214 104 129
0.00444842 -6.81676e-05 0.0228043 106 26 46
0.0042408 -0.000341898 0.0232169 208 98 130
0.0049256 0.000810595 0.0216436 142 70 78
0.00480973 0.000765562 0.0220338 156 64 75
0.00445042 0.000249306 0.022601 248 144 178
0.00461874 0.000533803 0.022053 254 158 198
0.00405515 -0.000160921 0.0231252 123 64 70
0.00465751 0.000721958 0.0222123 224 96 132
0.00548263 0.00186399 0.0202351 226 178 138
0.00410757 -3.15159e-05 0.0227559 106 30 44
0.00451746 0.000641742 0.0222723 254 173 216
0.00413108 -7.6031e-06 0.0225588 200 102 129
0.00452458 0.000692265 0.0222854 170 54 92
0.00414553 8.92143e-05 0.0225562 78 12 22
0.00532136 0.00170926 0.0204308 148 92 52
0.00398463 2.66146e-06 0.0230505 147 69 88
0.00403518 6.42673e-05 0.0226003 112 19 35
0.00526209 0.00174336 0.0203613 229 170 126
0.00424276 0.000286206 0.0219201 152 72 63
0.00506417 0.0014809 0.0205856 46 101 114
0.00407911 0.000187521 0.0222086 114 48 22
0.00435392 0.000634539 0.0219354 157 101 85
0.0039358 7.8155e-05 0.022749 164 85 97
0.0051966 0.00174325 0.0203413 192 160 138
0.00457566 0.000643665 0.0204989 134 120 120
0.00525835 0.00180057 0.0200335 48 72 86
0.00463291 0.000722657 0.0202696 90 76 72
0.00432498 0.000629904 0.0218847 173 109 80
0.0047658 0.00122017 0.0210223 78 74 75
0.00481025 0.000961202 0.0196937 76 58 48
0.00415476 0.000451684 0.0218561 94 33 18
0.00467018 0.000858818 0.0200659 55 49 54
0.00458338 0.00106513 0.0212388 160 112 76
0.00461504 0.0010263 0.0208327 53 9 2
0.00476389 0.00122015 0.0206322 170 106 68
0.004762 0.00119396 0.0203449 56 12 2
0.00481215 0.00106163 0.0195055 69 54 46
0.00489014 0.00119542 0.0192789 135 125 124
0.00464234 0.00120976 0.0207387 102 42 11
0.00520183 0.00200681 0.0197565 40 88 104
0.00468912 0.00134661 0.0205821 220 160 118
0.00486372 0.00156734 0.0202779 246 186 143
0.00456782 0.00127837 0.020544 94 99 102
0.00465476 0.00140382 0.0203845 126 86 54
0.00459183 0.00136694 0.0204482 174 170 174
0.0046959 0.00170082 0.0201988 238 173 122
0.00493296 0.00161634 0.0185397 109 42 2
0.00463226 0.00147354 0.019496 160 94 42
0.00448153 0.00143939 0.0191462 32 44 55
0.00524071 0.00238204 0.0181627 192 94 56
0.00526143 0.0024533 0.0174243 62 104 124
0.00590623 0.00418203 0.0186832 84 52 28
0.00544568 0.00274898 0.0172211 72 92 120
0.00595244 0.00429422 0.0186062 126 102 84
0.0059336 0.00423898 0.0185194 172 144 122
0.00582006 0.00428991 0.0189663 156 128 106
0.00584368 0.00429451 0.0186991 61 36 18
0.0061035 0.00468377 0.0185146 200 167 140
0.00590718 0.00448142 0.0187742 38 21 17
0.00585866 0.00441226 0.0187472 195 174 162
0.00605309 0.00462 0.0184863 112 84 66
0.00602032 0.00454431 0.0183808 156 146 146
0.00612398 0.00466558 0.0182767 237 210 186
0.00585243 0.00450313 0.0188046 66 54 56
0.00430371 0.00157335 0.0180552 200 130 87
0.00435921 0.00166036 0.0179483 163 66 24
0.0062002 0.00444468 0.0170489 132 102 65
0.00588276 0.00452283 0.0181815 66 46 0
0.00591445 0.00458021 0.0181594 98 86 17
0.00592684 0.00462647 0.0182045 208 206 132
0.00585649 0.00451182 0.0181504 90 72 20
0.00511488 0.00299393 0.0175892 44 45 54
0.00594094 0.00438421 0.0175505 162 134 104
0.00594033 0.00462939 0.0180629 146 148 74
0.00594807 0.00447479 0.0177337 126 99 44
0.0059998 0.00468941 0.0179229 188 182 94
0.0058528 0.00456332 0.0180966 193 187 114
0.00581355 0.00442282 0.0178983 166 138 94
0.0044146 0.00180957 0.0173247 78 73 66
0.00440388 0.00193833 0.0176315 204 108 66
0.00590158 0.0046637 0.0179784 199 200 129
0.00582907 0.00452204 0.0178654 80 60 24
0.00582543 0.00462853 0.0181251 70 68 6
0.00401937 0.00167971 0.0182412 90 45 28
0.00583539 0.00454337 0.0178919 162 148 100
0.00582009 0.00460698 0.0180494 152 146 82
0.00588783 0.00467972 0.0178277 202 200 158
0.00596899 0.00472147 0.0176294 72 64 31
0.00415674 0.00181005 0.0177016 100 100 96
0.00586519 0.00466199 0.0176815 134 138 140
0.00441141 0.00201588 0.0171898 23 34 53
0.00586888 0.00468245 0.0176765 126 134 136
0.00238115 -1.14191e-05 0.0196051 216 192 176
0.00226934 -7.44478e-05 0.0198378 132 121 110
0.0022056 -0.000101966 0.02001 193 185 176
0.00574211 0.00448304 0.01759 211 210 208
0.00575807 0.00451753 0.0176295 204 224 236
0.00580542 0.00459622 0.0176305 60 66 74
0.00416589 0.00185832 0.0175402 105 130 163
0.00423361 0.00197554 0.0174868 108 125 126
0.00591658 0.00481037 0.0175641 79 94 102
0.0056899 0.00471991 0.0180747 56 64 73
0.0059352 0.00479927 0.0173579 54 66 80
0.00263681 0.00041518 0.0185632 203 186 150
0.00334952 0.0012624 0.01717 136 116 94
0.00238191 0.000704295 0.0187418 77 79 76
0.00246433 0.000772637 0.0183669 140 148 151
0.00215438 0.000724478 0.0186534 80 93 106
0.00487749 9.38941e-05 0.0218688 186 133 118
0.00468371 0.000134062 0.0219228 214 104 129
0.00469634 0.000236778 0.0220473 107 26 46
0.00470635 0.000285447 0.0221865 107 26 39
0.00488542 0.000656781 0.0218479 180 130 118
0.00484399 0.000709555 0.0219091 142 77 80
0.0048461 0.000700856 0.0214163 240 135 170
0.0046115 0.000506321 0.0220863 255 162 203
0.00445396 0.000463128 0.0227598 228 120 156
0.00448176 0.000513013 0.0227677 215 89 124
0.00468808 0.00055615 0.0209696 147 58 24
0.00455158 0.000667758 0.0221939 236 150 193
0.00483441 0.000725038 0.0203615 218 142 58
0.00439421 0.000286232 0.021836 184 90 114
0.00408961 1.98217e-06 0.0227802 86 15 26
0.00495707 0.000882737 0.0198779 94 60 40
0.00545013 0.00189783 0.0201066 181 112 64
0.00410449 1.47814e-05 0.0224449 214 110 126
0.00420625 0.000174146 0.0222036 208 100 126
0.00408048 9.4266e-05 0.0227514 142 72 89
0.00453831 0.000758516 0.0220315 243 144 188
0.0050336 0.00134952 0.0207619 199 160 151
0.00531582 0.00175084 0.0203739 144 78 34
0.00454286 0.000757809 0.0218663 222 112 148
0.00391717 -7.98969e-05 0.0229627 108 17 32
0.00527447 0.00173866 0.0203592 223 165 124
0.00447848 0.000552863 0.0212259 155 82 50
0.00404144 0.00024916 0.0229882 66 4 2
0.00489854 0.000960238 0.0197841 124 92 74
0.00402004 0.000221822 0.0224251 106 41 44
0.00502466 0.00143775 0.020202 172 122 98
0.00516812 0.00162036 0.0198339 72 58 52
0.00347872 -3.76266e-05 0.024125 160 96 58
0.00519783 0.0019205 0.0200816 29 78 99
0.00454821 0.00083845 0.0201944 96 74 65
0.00470105 0.00123153 0.020362 70 26 2
0.0046699 0.00131243 0.0206657 209 146 104
0.00481459 0.00149615 0.0204003 237 176 133
0.00465284 0.00102291 0.019626 154 137 120
0.00512624 0.00186379 0.0193976 170 114 76
0.00438088 0.00122855 0.0202667 231 150 52
0.00438734 0.00124787 0.0200994 160 94 45
0.00450125 0.00154745 0.0201055 142 106 82
0.00531034 0.00260693 0.0180104 199 100 58
0.00443244 0.00150803 0.0189737 196 112 46
0.00453609 0.00154467 0.0185166 204 143 90
0.0055016 0.00257259 0.0168324 140 79 51
0.00563393 0.00296018 0.0171253 194 140 98
0.00587229 0.00426128 0.0188758 105 80 63
0.00586312 0.00421589 0.0187085 186 157 125
0.00590563 0.00427634 0.0186571 136 114 98
0.00583509 0.00429105 0.0188983 156 128 105
0.00587271 0.00445427 0.0188099 154 136 130
0.00592868 0.00448401 0.0186699 70 54 52
0.00602317 0.00458194 0.0184878 212 197 190
0.00620127 0.00468739 0.0180546 212 182 161
0.00588307 0.00452049 0.0188059 202 194 193
0.00529865 0.00265378 0.0168334 160 132 104
0.00605247 0.00465243 0.0181013 176 146 108
0.00601076 0.00459833 0.018057 180 158 104
0.00430775 0.00190551 0.0183923 174 68 36
0.00590778 0.00457521 0.0181789 160 144 72
0.00152782 -0.00108639 0.0214952 182 122 106
0.00580842 0.00434749 0.0179129 156 129 99
0.00609316 0.00451305 0.0172644 128 100 45
0.00602627 0.00469127 0.0178166 207 198 114
0.00448045 0.00198532 0.0175031 208 105 61
0.00586942 0.00462804 0.0179898 150 146 76
0.00585028 0.00452732 0.017787 80 58 28
0.00593254 0.00468993 0.0178126 231 228 158
0.00583098 0.00464148 0.0179951 204 199 146
0.00594152 0.00471935 0.0177154 66 56 22
0.00598384 0.00480789 0.017765 224 196 159
0.00422696 0.00187032 0.0175119 33 38 50
0.00593446 0.00479035 0.0176316 238 228 220
0.00229563 -0.000124164 0.0195674 136 94 72
0.00571614 0.00447378 0.0176381 189 184 179
0.00410278 0.00188817 0.0177182 130 138 130
0.00596607 0.00480714 0.0173959 69 78 84
0.004222 0.00200805 0.0173997 36 94 114
0.0036364 0.00155576 0.016813 94 92 84
0.00302851 0.00104568 0.017351 134 108 83
0.00262882 0.000929258 0.0179562 192 210 228
0.00241478 0.000827407 0.0182949 76 84 91
0.00329852 0.00148484 0.0171081 48 56 67
0.0047962 0.000556706 0.0221362 180 132 120
0.00480132 0.000638099 0.0220643 141 80 78
0.00484345 0.000760666 0.0218462 199 106 129
0.00435632 0.000134422 0.022892 248 144 178
0.00467531 0.000580025 0.0222161 120 26 46
0.00493735 0.000935436 0.0215663 178 76 94
0.0046112 0.00050526 0.0220778 255 170 212
0.00404624 -0.000186942 0.0231441 120 62 68
0.00455067 0.000581211 0.0224361 244 136 174
0.00436394 0.000238041 0.0219218 148 56 76
0.00375007 -0.000425962 0.0238125 86 24 35
0.0043873 0.000566569 0.0226613 148 30 61
0.00386643 -0.000276933 0.0229883 150 56 7
0.00441553 0.000441357 0.0218695 146 76 92
0.00385532 1.62763e-05 0.0239009 218 109 144
0.00454464 0.000842207 0.0222388 210 175 166
0.00431686 0.000544028 0.0222117 66 4 2
0.00459329 0.000625731 0.0205776 121 89 74
0.00436219 0.000403027 0.0212803 234 144 56
0.00397917 0.000112148 0.022688 158 76 90
0.00430212 0.000437766 0.0216001 111 44 22
0.0050702 0.00172219 0.0210762 206 146 102
0.00508647 0.00149938 0.0200328 172 122 98
0.00528983 0.00194471 0.0202671 244 184 140
0.00517333 0.00171948 0.020069 140 146 140
0.00420252 0.000477989 0.0217837 108 46 30
0.00468639 0.000871745 0.0199351 134 118 115
0.00487787 0.0013783 0.0204731 204 161 129
0.00554983 0.00215087 0.018867 54 82 105
0.00457296 0.000993569 0.0209329 47 5 0
0.00517716 0.00178413 0.0198102 194 152 133
0.00521076 0.00188498 0.0197036 191 162 149
0.00466218 0.00118719 0.0204648 77 29 6
0.00468662 0.00131272 0.0206411 209 146 104
0.00463374 0.00100964 0.0196555 168 144 121
0.00460451 0.00106268 0.0196255 116 76 44
0.00477796 0.00154928 0.0199436 174 171 175
0.0042312 0.00108989 0.0206282 227 152 60
0.00496416 0.00208162 0.01913 222 117 53
0.00452919 0.00148748 0.0190205 52 54 60
0.00542622 0.00268634 0.0179364 200 84 28
0.00438311 0.00154699 0.0192065 229 146 66
0.00519036 0.00250385 0.018158 175 87 55
0.00546384 0.00285092 0.0174391 64 46 42
0.00596024 0.00429046 0.0185955 115 90 74
0.00593612 0.00423399 0.0185064 186 157 125
0.00599883 0.00437243 0.0184638 56 28 9
0.00608252 0.00461266 0.0184347 89 60 44
0.00591314 0.00452464 0.0187449 194 184 183
0.005841 0.00448574 0.0188311 60 48 50
0.00604953 0.00459836 0.0183375 238 224 215
0.00415255 0.00145299 0.0180663 160 128 98
0.00455628 0.00182443 0.017419 70 62 62
0.00612282 0.00441248 0.0172492 126 97 63
0.00593889 0.00457832 0.0180823 124 109 39
0.00594906 0.00438416 0.0175575 160 136 102
0.00574962 0.00448492 0.0184543 122 105 52
0.0019222 -0.000751106 0.0208856 178 122 104
0.00572863 0.0043885 0.0181512 168 142 98
0.0042899 0.00183156 0.0178551 213 104 61
0.00586315 0.00462752 0.0180144 98 93 34
0.00600279 0.00470173 0.0176572 236 234 159
0.00605816 0.00477855 0.0176349 178 162 94
0.00551219 0.00458962 0.0189376 204 201 150
0.00503765 0.0023167 0.0160443 145 114 81
0.00440085 0.00186709 0.0171901 77 66 60
0.00602164 0.00481048 0.0176547 215 189 150
0.0043695 0.00194351 0.0173976 44 46 58
0.00568439 0.00443477 0.0176836 112 79 50
0.00572938 0.00447939 0.0175974 210 212 208
0.00200942 -0.000370742 0.0198405 208 176 160
0.00427975 0.00202372 0.0174048 142 140 127
0.00604961 0.00481811 0.0171726 66 74 82
0.00593772 0.00479067 0.0173653 61 70 82
0.00211665 -0.000203547 0.0195267 98 52 30
0.0040037 0.00184448 0.0176122 41 57 76
0.00600428 0.00491304 0.0171886 224 244 244
0.00204492 -4.52012e-05 0.0194189 206 188 152
0.00236463 0.000695675 0.0187575 57 60 60
0.00240949 0.00077047 0.0182804 179 195 212
0.00247511 0.000949764 0.018301 59 77 94
0.00277604 0.00102822 0.0174947 192 191 190
0.00480473 -0.000410739 0.0228836 111 56 41
0.00452712 -0.000146242 0.0226395 178 78 100
0.00470289 0.000148432 0.0218637 186 78 102
0.00477372 0.000667984 0.0220869 154 70 86
0.00391617 -0.0003082 0.0245794 126 26 44
0.00472367 0.000610416 0.0217508 254 174 213
0.00479771 0.00078516 0.0220169 154 56 70
0.00465958 0.000705858 0.022086 222 116 154
0.00404192 2.85503e-05 0.0235576 112 22 32
0.00489182 0.000787166 0.0202053 202 130 54
0.00376963 -0.000273291 0.0236683 148 76 92
0.0054516 0.00187104 0.0199482 142 86 44
0.00412581 0.00029172 0.0231162 197 96 128
0.00464598 0.000691052 0.0204066 140 116 109
0.00420909 0.000478831 0.022265 144 84 62
0.00487321 0.00125527 0.0207078 144 104 84
0.00478014 0.000900481 0.0198182 101 80 68
0.00469259 0.00114981 0.0208506 158 97 60
0.00500149 0.00151027 0.0201052 198 154 123
0.00502654 0.00163785 0.0202419 164 128 112
0.00460336 0.00120374 0.0209823 222 164 122
0.00405445 0.000519312 0.0217917 224 117 44
0.00505005 0.00170849 0.0197807 223 164 118
0.00457289 0.00123018 0.0209423 214 157 111
0.00498996 0.00180941 0.0202033 235 188 157
0.00439737 0.00119333 0.0212986 178 126 87
0.00457733 0.00102171 0.0197144 119 80 48
0.00446423 0.00127018 0.0208003 216 169 134
0.00473638 0.00151652 0.0190289 58 16 3
0.0044074 0.00137359 0.0193133 21 44 62
0.00414093 0.00133679 0.0197275 213 134 64
0.00518307 0.00230954 0.0176222 33 58 76
0.00542439 0.00280886 0.0175484 100 67 52
0.00434021 0.00147472 0.0186508 140 99 68
0.00463422 0.00190854 0.0185291 242 141 58
0.00586851 0.00425622 0.0188848 98 74 56
0.00591918 0.00422291 0.0185498 182 150 115
0.00419745 0.00142734 0.0187625 240 162 86
0.00583085 0.0042679 0.018782 66 42 30
0.00607657 0.0046078 0.0184681 88 58 42
0.00615703 0.00448234 0.0177772 210 188 178
0.00593477 0.00451281 0.0187024 176 165 164
0.00597477 0.00463408 0.0188235 184 155 135
0.00591281 0.00447063 0.018611 58 45 42
0.00435364 0.00158689 0.0181051 216 146 84
0.00424578 0.00176717 0.0187011 253 160 68
0.00601644 0.00464657 0.0180823 250 246 186
0.0014546 -0.00117359 0.0216583 176 120 104
0.00544893 0.00317621 0.0168125 28 42 67
0.00578869 0.00434723 0.0180047 178 152 118
0.00588415 0.00459372 0.0181503 163 160 89
0.00589284 0.00446175 0.0178294 131 102 50
0.00442165 0.00191427 0.0176216 200 90 49
0.00598959 0.00469125 0.017904 198 186 104
0.00592222 0.00467512 0.0179015 188 189 117
0.00600073 0.00483347 0.0178224 247 240 203
0.00578188 0.00469685 0.0181435 56 50 28
0.005796 0.00449479 0.017615 154 144 138
0.00453135 0.00208567 0.0169876 48 52 66
0.00589503 0.00454972 0.0173792 56 62 64
0.00577236 0.00463734 0.017937 116 120 124
0.00233179 -6.35832e-05 0.0196644 166 126 108
0.00245094 5.04356e-05 0.0195836 164 146 134
0.00206056 -0.000339768 0.0199631 138 90 70
0.00446718 0.00207519 0.0170089 71 122 154
0.00594469 0.0048079 0.0175647 236 240 240
0.00197939 -0.000397285 0.0198937 206 174 157
0.00229753 -6.41534e-05 0.0192478 99 48 26
0.00421188 0.00201161 0.0172273 112 74 65
0.00592696 0.00489948 0.0173922 224 249 248
0.00260688 0.000664443 0.0186276 238 230 191
0.00193792 0.000217887 0.0190263 118 94 71
0.00307787 0.00112308 0.017308 210 218 222
0.00210164 0.000597157 0.0187326 87 93 100
0.002087 0.000674792 0.0188294 48 63 76
-3.1815 -1.45649 2.84613 96 78 59
0.00485918 0.000229528 0.0217381 100 18 32
0.00445364 -0.000105845 0.0225308 200 93 119
0.00470611 0.000227486 0.0220789 100 20 38
0.00477758 0.000530401 0.0209603 190 104 64
0.00497653 0.00110277 0.0212701 150 40 55
0.00450677 0.000562772 0.0221046 106 26 34
0.00534388 0.00174038 0.0203114 161 111 72
0.000552702 -0.00344546 0.033379 224 126 162
0.00363789 -0.000363492 0.0235716 133 54 49
0.00418091 0.00037501 0.0226368 82 14 18
0.00528953 0.00179068 0.0202496 238 178 136
0.00419821 0.00045409 0.0223321 111 50 33
0.00507949 0.00151871 0.0201137 62 58 69
0.00421435 0.000460892 0.0218236 98 37 30
0.00503983 0.00163144 0.0202384 194 157 142
0.00485046 0.00108279 0.0194615 102 91 88
0.00478911 0.00148816 0.0205603 192 128 81
0.00453883 0.00116316 0.0205503 252 138 66
0.00517369 0.00190721 0.0192262 188 136 98
0.00396296 0.000518339 0.0215213 241 140 44
0.00484015 0.00172501 0.0203438 236 179 136
0.00455242 0.00128077 0.0205021 94 114 119
0.00512471 0.00179011 0.0181246 122 56 12
0.00415733 0.00111289 0.0210843 2 90 128
0.00443964 0.00146764 0.0203793 180 136 101
0.00526874 0.0022626 0.0183474 154 74 31
0.00529558 0.00241324 0.0180503 166 67 28
0.00438635 0.00135058 0.0193833 29 54 72
0.00461817 0.00174009 0.018675 232 146 70
0.00438098 0.00150588 0.0185732 137 98 68
0.00593001 0.00429735 0.0184406 66 43 28
0.00621528 0.00463273 0.0180054 79 48 32
0.00599092 0.00464795 0.0183139 182 149 110
0.00609538 0.00438727 0.0173136 123 92 60
0.00598972 0.00457486 0.0180733 186 156 106
0.00216259 -0.000544554 0.0205028 169 116 100
0.00580682 0.00435139 0.0179534 174 150 116
0.00591549 0.00460162 0.0180693 217 214 145
0.00426781 0.00178172 0.0179149 193 82 42
0.00544709 0.00300632 0.0163867 25 27 37
0.00597829 0.00469954 0.0179291 191 174 94
0.00581338 0.00452258 0.0180228 180 164 106
0.00586514 0.00461767 0.018024 182 178 108
0.00604567 0.00483757 0.0177016 248 240 202
0.0059063 0.00470516 0.0177741 58 56 34
0.00580245 0.00464429 0.0177973 124 130 132
0.00271424 0.000339766 0.0191619 198 195 189
0.00563644 0.00447019 0.0179012 196 210 216
0.00418605 0.00195269 0.01757 136 132 121
0.00226951 -9.64753e-05 0.0192736 106 50 27
0.00225943 3.20789e-05 0.0192297 159 125 92
0.00267111 0.000436413 0.0185526 210 194 154
0.00226424 0.000205334 0.0192851 235 224 184
0.00249859 0.000585413 0.0188111 227 214 174
0.00212401 0.000351041 0.019149 168 146 104
0.00231727 0.00069301 0.0188939 216 230 238
0.00207945 0.000325707 0.0186074 130 100 70
0.005417 0.000761582 0.0202044 181 143 116
0.00481778 0.000855943 0.0218528 156 42 68
0.00454444 0.000320555 0.021551 144 68 47
0.00451115 0.000547879 0.0221146 106 24 34
0.00491859 0.000816593 0.0199906 145 120 106
0.00425314 0.000142769 0.0221354 190 90 112
0.00492092 0.00121089 0.0211437 165 99 88
0.00561701 0.00204181 0.0194279 154 100 59
0.00470829 0.000731574 0.0204224 232 146 56
0.00374057 -1.79166e-05 0.0236214 123 63 45
0.00496469 0.00146923 0.0208292 164 144 130
0.0037696 -3.51368e-05 0.0230804 111 44 49
0.00561703 0.00213199 0.0185854 209 184 164
0.00561065 0.00211318 0.0183839 182 134 100
0.00505533 0.0016882 0.0201538 108 78 64
0.00514492 0.00191071 0.0199914 10 105 144
0.00506841 0.00187828 0.0199107 243 182 142
0.00489658 0.00165279 0.0200058 175 121 83
0.00475055 0.00154058 0.0200555 221 176 138
0.00441641 0.00155233 0.019138 196 124 62
0.00437214 0.00150937 0.0185847 144 99 62
0.00596455 0.00454782 0.0186268 117 107 104
0.00587457 0.00447664 0.0187713 52 40 40
0.00455855 0.00177402 0.0172837 170 138 103
0.00596315 0.00456047 0.0181002 159 130 68
0.00602603 0.00467697 0.0179889 229 230 158
0.0053581 0.00288043 0.0165707 36 38 40
0.00521596 0.00286094 0.0168464 61 56 57
0.00586191 0.00446024 0.017866 116 84 38
0.00382294 0.00148223 0.0185533 54 48 58
0.00593588 0.00467786 0.0178746 207 208 134
0.00595566 0.00471044 0.0176111 47 45 32
0.00491823 0.00248617 0.0165627 114 81 59
0.00579623 0.00465348 0.0177982 136 144 146
0.00253509 0.000215945 0.0194309 202 196 189
0.00202335 -0.000346338 0.019848 230 208 192
0.00120941 -0.000871617 0.0213553 224 220 213
0.00413919 0.00192754 0.0176784 153 128 108
0.00210736 -0.000231673 0.0195258 110 52 30
0.00200766 0.00026967 0.0188882 114 88 64
0.00287918 0.00132193 0.0181118 223 238 246
-1.09011 -0.497536 0.981697 114 91 66
0.00492021 -0.000170046 0.0223888 123 56 46
0.00521839 0.000475385 0.0208269 177 148 115
0.00503401 0.000568292 0.0212085 99 21 36
0.00371191 -0.00108158 0.0248782 208 98 124
0.00434895 0.0001019 0.0220728 162 84 53
0.00406859 -5.58848e-05 0.0225713 206 103 116
0.00492285 0.00119412 0.0212117 206 138 120
0.00536861 0.00176823 0.0202172 171 124 84
0.00410956 0.000124953 0.022623 158 82 100
0.00422254 0.000310409 0.0212615 64 52 50
0.0050075 0.00155562 0.0197542 129 64 25
0.00543952 0.00215648 0.0191771 8 108 145
0.00430027 0.000875926 0.020663 246 145 45
0.00519409 0.00194555 0.0189229 229 178 142
0.0047941 0.00148944 0.0188611 118 49 6
0.00435303 0.00136253 0.0206401 129 123 114
0.00340219 0.000450045 0.0216672 22 72 108
0.00512556 0.00227956 0.0185429 178 72 32
0.00452645 0.00143417 0.0185973 140 108 78
0.00601122 0.00410227 0.0186156 81 48 24
0.00597248 0.00420209 0.0185844 52 26 14
0.00591341 0.00427375 0.0185234 111 88 72
0.00619798 0.00464436 0.0181876 71 43 28
0.00603976 0.00454685 0.0184356 179 164 158
0.00484569 0.00216924 0.01755 253 184 84
0.00490094 0.00232621 0.0171899 186 70 35
0.00489105 0.0025446 0.017536 37 43 48
0.00505179 0.00291532 0.0177622 18 42 68
0.00585567 0.00437079 0.0178266 178 152 118
0.00484776 0.00263883 0.017662 26 31 40
0.00574056 0.00477107 0.0186325 228 230 174
0.00413059 0.00192434 0.0179695 112 78 56
0.00579748 0.00454699 0.0177347 51 46 44
0.0012272 -0.00103928 0.0210994 226 198 184
0.00287049 0.000365413 0.0184161 104 47 26
0.00300787 0.000584149 0.0180197 159 134 101
0.00487697 0.00183875 0.0148053 145 110 80
0.00616234 0.00489347 0.0165164 226 250 252
0.00223084 0.00034205 0.0190083 176 150 114
0.00285096 0.000865246 0.0177908 121 91 66
0.00257863 0.000861444 0.0183616 68 68 62
0.00194572 0.000507035 0.0189799 48 51 56
0.00474277 -0.000156913 0.0220113 188 114 110
0.00476046 0.000423361 0.021136 200 128 78
0.00419029 0.0002498 0.0231509 107 24 50
0.00404996 -8.98828e-06 0.0229374 122 58 72
0.00417746 0.000340784 0.022204 147 73 84
0.00461802 0.000978896 0.0213361 134 58 38
0.00375951 3.15724e-05 0.0229661 94 30 4
0.00581979 0.00424738 0.0190459 104 82 64
0.00592496 0.00458414 0.0181327 106 98 29
0.00395886 0.00160868 0.0184458 201 107 68
0.00585741 0.00451746 0.0178371 102 78 38
0.005888 0.00468959 0.017926 230 223 160
0.00596291 0.00471996 0.0176584 80 66 30
0.00581816 0.00453618 0.0175434 44 54 60
0.00254484 0.000176542 0.0194729 210 200 190
0.00580195 0.00459454 0.0175715 130 141 154
0.00576134 0.00460683 0.0176495 98 116 129
0.00279655 0.00114126 0.0177405 122 134 146
0.00479476 1.10599e-05 0.0216969 116 27 34
0.00399253 -6.92033e-05 0.0230835 119 62 72
0.00444633 0.00067954 0.0222653 226 119 162
0.00462679 0.00122559 0.0209588 234 178 138
0.00463527 0.00133559 0.0206936 183 130 90
0.00416353 0.00104226 0.0207682 216 150 74
0.0045777 0.00153942 0.0188919 40 50 56
0.00601833 0.00458794 0.018527 224 208 195
0.00600908 0.00461029 0.0184962 234 217 200
0.00598881 0.00463893 0.0181804 253 245 188
0.00583413 0.00476587 0.0175408 146 171 180
0.00209983 -0.000198442 0.0195549 96 54 32
0.00219927 0.000758049 0.0186892 60 72 85
0.00447501 -5.13808e-05 0.0224999 194 87 116
0.00466247 0.00107333 0.0206943 66 21 5
0.00470994 0.00140502 0.0190666 115 46 5
0.00423629 0.00140459 0.0188463 138 96 58
0.00583766 0.00427871 0.0187322 60 37 17
0.00593258 0.00457374 0.0182219 164 140 80
0.00594577 0.00462302 0.0180604 212 212 142
0.00457245 0.00195978 0.0170286 51 54 60
0.00578686 0.00453063 0.018049 158 142 99
0.00600951 0.00484849 0.017787 249 236 206
0.00587589 0.00463179 0.0175378 112 118 118
0.0059525 0.00478343 0.0172942 58 68 80
0.00577946 0.00479781 0.0177707 178 202 218
0.00251024 0.000892093 0.0184584 76 88 104
0.00484534 5.07596e-05 0.0216007 131 40 48
0.00470188 0.000773763 0.0220174 212 86 124
0.00462272 0.000478256 0.0211779 138 52 29
0.00423318 0.000244963 0.0220513 114 23 38
0.00515836 0.00171674 0.0203027 46 79 104
0.00499042 0.0015089 0.0204317 209 193 175
0.00503983 0.00178384 0.019643 152 92 53
0.0041761 0.000733505 0.0209605 237 136 48
0.0044687 0.00170305 0.0177478 187 120 80
0.00426702 0.0015731 0.0181545 177 82 35
0.00589512 0.0046161 0.018205 212 212 142
0.00438129 0.0019371 0.0175749 86 47 43
0.00581764 0.00459431 0.0175975 62 66 72
0.00233307 -4.90555e-05 0.019669 214 187 172
0.00593258 0.00479467 0.0176267 236 238 238
0.00386103 0.00173009 0.0179462 88 125 162
0.00233915 0.000684842 0.0188885 225 231 235
0.00228773 0.000734082 0.0187702 54 64 80
0.00463635 -8.74272e-05 0.0225111 89 16 25
0.00495599 0.00125094 0.021034 184 139 133
0.00517339 0.00158659 0.020268 39 104 127
0.00463311 0.0014427 0.0191015 138 63 26
0.0057469 0.00435758 0.0189165 220 205 190
0.00587859 0.00465402 0.0178457 192 186 145
0.00235749 4.88854e-05 0.0197379 206 194 185
0.0043266 0.00208653 0.0171996 38 90 117
0.00488473 0.000889876 0.0216967 166 54 81
0.00445421 0.000272787 0.02171 148 67 52
0.00492306 0.000812292 0.019983 162 136 114
0.00371923 -0.000299645 0.0237061 160 74 94
0.00488224 0.00093616 0.0199599 232 144 56
0.00431191 0.00087702 0.021544 136 79 43
0.00612488 0.0046713 0.0182656 210 184 158
0.00580691 0.00437353 0.0187429 224 210 197
0.00424696 0.00166693 0.0176835 54 58 66
0.0056713 0.00441353 0.0177016 114 80 46
0.00469687 0.000557843 0.0218643 250 145 184
0.0044852 0.0006383 0.022206 250 178 223
0.00435656 0.000567576 0.0221276 84 18 21
0.00502094 0.00137184 0.0205017 92 54 70
0.00474999 0.00115683 0.0209353 165 102 74
0.00420081 0.000767063 0.0209312 246 147 50
0.00436176 0.001406 0.0190044 226 144 70
0.00617258 0.00464451 0.0183117 67 38 23
0.00580056 0.00451922 0.018062 174 153 98
0.00601006 0.0047187 0.0177757 182 164 93
0.00581702 0.00456018 0.0176649 42 37 31
0.00422818 -2.37702e-05 0.0233358 227 115 151
0.0045403 0.000696881 0.0220167 198 116 154
0.00446031 0.000674132 0.0218378 84 18 21
0.00456323 0.000978694 0.0208983 78 30 16
0.00489633 0.0019489 0.0192482 148 70 28
0.00606449 0.00458561 0.0181816 224 215 208
0.00594913 0.00453559 0.018078 152 127 72
0.00604505 0.00468327 0.0178902 222 230 154
0.00585289 0.00471782 0.0178251 40 40 42
0.005672 0.00440697 0.0177139 112 78 44
0.00581971 0.00464157 0.017709 127 134 134
0.00292618 0.000344505 0.018242 99 48 25
0.00232968 0.000467191 0.0190092 232 222 185
0.00491114 0.000670324 0.0217789 190 133 122
0.00521678 0.00190408 0.0201508 114 88 70
0.00536092 0.00272524 0.0177299 192 122 81
0.0058072 0.00437967 0.0178649 142 111 80
0.00577666 0.00461389 0.0177457 98 104 107
0.00231797 0.000666632 0.0188876 156 158 158
0.00242543 0.000806701 0.0186301 85 98 112
0.00553081 0.00194648 0.0202972 224 179 140
0.00530242 0.00175467 0.0208166 184 126 84
0.00515579 0.0015983 0.0203008 62 108 128
0.00489913 0.00159295 0.02032 180 118 74
0.00583489 0.00431558 0.0189772 72 44 22
0.00591964 0.00459438 0.0180488 202 198 124
0.0057614 0.00455442 0.0181077 162 154 112
0.00577866 0.00462139 0.017779 119 124 122
0.00579678 0.00458984 0.0175663 121 130 140
0.00570074 0.0045796 0.0177738 160 182 196
0.00249144 0.00084924 0.0185442 112 126 140
0.00541427 0.00185224 0.0206223 232 182 144
0.00402105 0.00168106 0.0182134 73 42 34
0.00583371 0.00456992 0.0179196 180 174 123
0.00440844 0.00187091 0.0171825 52 52 48
0.00235032 0.000608713 0.0186983 214 196 156
0.00252675 0.00080912 0.0185376 80 82 76
0.00262233 0.000988999 0.0179508 138 152 164
0.00502127 0.00264787 0.0172091 147 124 104
0.00570006 0.00450303 0.017772 182 192 196
0.00237453 0.000332502 0.0191162 244 229 191
0.00217233 0.000436418 0.0190896 173 152 110
0.00240443 0.000831086 0.0183039 65 73 80
0.00435859 0.00143061 0.0191542 178 112 69
0.00524518 0.00257675 0.0176934 45 60 84
0.00460231 0.00184235 0.0173582 120 74 58
0.00568423 0.00446684 0.0177589 163 152 140
0.00570327 0.00457899 0.0177514 158 178 192
0.00242311 0.000605687 0.0187066 166 144 102
0.0052179 0.0018395 0.0198492 38 87 130
0.0047398 0.00129491 0.0207639 222 174 140
0.00397684 0.00184722 0.0176309 104 73 74
0.00583592 0.00413517 0.0190194 120 88 64
0.00400086 0.00156601 0.018442 194 86 44
0.00381715 0.00164655 0.0179304 61 66 69
0.00240081 0.000785293 0.0187891 214 238 252
0.0024118 0.00114 0.0185965 216 234 246
0.00475805 0.000768766 0.0221133 154 48 66
0.00535919 0.00195286 0.0199548 226 170 124
0.00443049 0.00206297 0.0170815 70 120 155
0.00601358 0.00463051 0.018046 238 232 162
0.00559487 0.00474219 0.0176573 141 122 107
0.00625046 0.00469715 0.0181998 106 70 44
0.00501447 0.0015506 0.0205288 93 120 132
0.00623014 0.00468813 0.0182805 93 58 34
0.00457116 0.000672742 0.0219444 110 23 38
0.00593236 0.00471755 0.0177429 64 57 20
0.00586006 0.00463627 0.0175874 100 106 103
0.00440275 0.00142602 0.0188099 195 137 88
0.00582288 0.00451956 0.0179698 172 156 102
0.00468599 0.000594886 0.0221633 130 29 47
0.00462402 0.00103051 0.0212484 162 96 68
0.00602577 0.00455102 0.0185203 188 168 160
0.00595066 0.0046771 0.0178613 190 188 107
0.002343 0.000691644 0.0183422 200 221 238
0.00233142 0.000675692 0.0181415 203 197 192
0.00462378 0.000566484 0.0223521 134 25 50
0.00525633 0.0017089 0.0204466 223 164 124
0.00521013 0.00188335 0.0206028 237 173 132
0.00464398 0.00120166 0.0205109 92 42 8
0.00474395 0.00156497 0.0203345 226 169 126
0.00543306 0.00191683 0.0203524 138 78 38
0.0044511 0.000912424 0.0207811 212 112 46
0.00595773 0.0046935 0.0178684 240 228 150
0.00457504 0.00168515 0.0187611 228 147 78
0.00257744 0.000760815 0.0186413 203 178 142
-0.0307147 -0.00779623 0.0450584 68 68 74
0.00584404 0.00482134 0.0177997 144 152 156
0.00591078 0.00439325 0.0185834 186 163 146
0.00604756 0.00459013 0.0182872 235 223 208
0.00563814 0.00292536 0.01703 52 34 36
0.0058639 0.0045559 0.0180353 184 174 100
0.00477512 -0.000508703 0.0230796 110 58 50
0.00480648 -9.75454e-06 0.0217057 119 32 38
0.00466281 0.000205243 0.0221229 106 30 47
0.00548597 0.00195982 0.0201827 142 86 46
0.00535816 0.00185181 0.0205999 140 82 38
0.00528157 0.00174325 0.0204868 182 114 68
0.00417417 0.00038464 0.0219685 95 31 44
0.00505038 0.0015335 0.0202636 144 154 162
0.00520986 0.00188379 0.0206353 232 170 126
0.0046405 0.00119495 0.0205398 99 40 8
0.00465366 0.00108664 0.0195811 112 66 31
0.0044725 0.00150179 0.0203847 229 162 116
0.00484086 0.00187651 0.0196674 164 87 32
0.00454285 0.00158125 0.0199293 118 98 88
0.00116683 -0.000852427 0.0264462 141 59 26
0.0051176 0.00299638 0.0175664 62 57 60
0.0027046 0.000251715 0.0192304 112 92 77
0.00262658 0.000257647 0.0192359 197 194 190
0.00216763 -0.000163272 0.0195291 214 194 178
0.00579557 0.00450872 0.017695 146 136 124
0.00583132 0.0046583 0.017736 130 133 134
0.00247787 0.000265573 0.018973 158 133 93
0.00574217 0.0044626 0.0175239 114 92 78
0.0026007 0.000836276 0.0183691 192 188 168
0.00272262 0.000988914 0.0178611 179 194 208
0.0047884 2.02468e-06 0.0221482 180 126 116
0.00480866 0.000287473 0.0215336 192 84 110
0.00382844 -0.000283424 0.0231861 242 143 151
0.0055192 0.00198136 0.0198817 194 124 76
0.00520796 0.001629 0.0201819 74 112 122
0.00467305 0.00136385 0.0205261 148 95 60
0.00437279 0.0014332 0.0203587 92 78 72
0.00485112 0.00187795 0.0191044 39 18 14
0.00455738 0.00161466 0.0186963 192 115 52
0.00591822 0.00451566 0.018898 189 174 167
0.00540742 0.00317734 0.016908 71 63 62
0.00398142 0.00153791 0.0180976 82 95 104
0.00104845 -0.00121065 0.0213572 150 112 92
0.00273675 0.000379901 0.0191433 222 204 188
0.00590227 0.00469289 0.0179024 232 227 160
0.00428957 0.00204898 0.0171436 53 56 76
0.00580504 0.00461183 0.0175449 110 126 138
0.00589324 0.00477972 0.0174542 69 78 88
0.00266598 0.000883391 0.0182722 200 196 175
0.00240715 0.000814674 0.0186189 102 116 134
0.00267815 0.000797467 0.0178606 125 108 91
0.00244254 0.000794459 0.0182441 190 206 220
0.00489001 0.000248394 0.0216637 98 20 30
0.00412477 0.000147509 0.0233594 105 22 34
0.00392184 -0.00013642 0.0228466 132 36 27
0.00402877 0.00013865 0.0223206 128 54 22
0.00471388 0.000850671 0.0199587 114 92 78
0.00516496 0.00172185 0.0204184 180 156 140
0.00462127 0.00086781 0.0200004 70 57 48
0.00505197 0.00168003 0.0203188 48 81 108
0.00500248 0.00182335 0.0202052 225 184 153
0.00443185 0.00143231 0.0203195 22 68 94
0.00517458 0.00224505 0.0186663 222 118 55
0.00438681 0.00135768 0.0193476 78 68 64
0.00438495 0.00178924 0.0173145 149 122 96
0.00581503 0.00441513 0.0178838 159 131 92
0.00579851 0.00450125 0.0176376 138 126 114
0.00250768 0.000675339 0.0186202 172 158 113
0.00256183 0.000839796 0.018556 220 226 228
0.00326511 0.00124899 0.0170827 199 200 197
0.00489601 -0.000312814 0.0226272 119 64 54
0.00470251 0.000450934 0.0211814 193 116 77
0.004329 0.000150308 0.0220101 123 34 24
0.00402202 -8.17042e-06 0.022589 128 34 32
0.00571349 0.00219643 0.0193901 148 92 50
0.00437203 0.000644839 0.0218316 131 72 56
0.00481003 0.00126508 0.0204946 154 92 56
0.00405932 0.000306021 0.0215188 103 76 56
0.00501612 0.00183318 0.0201583 226 186 156
0.00449372 0.00121954 0.0206839 91 102 118
0.00461111 0.00139922 0.0205452 210 158 120
0.00559653 0.00261895 0.0165946 92 54 44
0.00541569 0.00277076 0.017611 186 101 45
0.0058462 0.00430124 0.0188275 142 119 96
0.00584575 0.00428269 0.0187145 59 34 18
0.00593686 0.00442074 0.0186707 146 120 100
0.00593659 0.00447348 0.0184806 92 80 76
0.00614472 0.00467222 0.0181905 219 196 170
0.00537796 0.00314891 0.0169751 44 44 54
0.00204012 -0.000380102 0.0198546 200 164 144
0.00421246 0.00189813 0.0174533 89 124 165
0.00578037 0.00456272 0.018103 166 158 96
0.00598287 0.00484093 0.0178861 253 235 202
0.00594599 0.0047216 0.0176713 58 50 25
0.00581668 0.0045446 0.0175349 46 55 56
0.00211527 0.000653132 0.0187115 58 66 76
0.00417442 5.85212e-05 0.0221268 171 78 24
0.00433295 0.000267326 0.021854 184 76 103
0.00528454 0.00173069 0.0195079 75 70 73
0.00472036 0.00113407 0.0205089 56 15 1
0.00530301 0.00199234 0.0197628 16 85 122
0.00459003 0.00118637 0.0208411 128 74 41
0.00484534 0.00164987 0.0208368 30 96 126
0.0046225 0.00125353 0.0203261 248 138 64
0.00422052 0.00129559 0.0208756 172 130 96
0.00520041 0.00226744 0.0185696 212 110 49
0.00483129 0.00187344 0.0191149 38 14 10
0.00616007 0.00467585 0.0181719 201 176 152
0.00467771 0.00204865 0.0166417 153 122 88
0.00602236 0.00476595 0.0177166 182 160 92
0.00249343 0.000148481 0.0188263 148 112 82
0.00558172 0.00444444 0.0179955 163 155 148
0.00595327 0.00479873 0.0174301 58 66 70
0.0025337 0.000657738 0.0183056 130 106 85
0.00469166 0.000568014 0.0218581 255 164 206
0.00482846 0.000700669 0.0202925 144 104 66
0.00390514 -0.000252973 0.023125 202 102 119
0.00546382 0.00188821 0.0204817 205 162 123
0.00475098 0.00116551 0.0204152 46 8 0
0.00445985 0.00105373 0.0213945 204 146 106
0.00477856 0.00197755 0.0185088 39 53 66
0.00442773 0.00172481 0.0190005 248 138 53
0.00597608 0.00409339 0.0186926 130 98 70
0.00558217 0.00292916 0.017159 78 50 38
0.00523555 0.0026123 0.0169395 160 133 105
0.00591784 0.00468117 0.0179179 217 216 140
0.00282967 0.000947233 0.0182907 180 148 112
0.0055898 0.00207433 0.0198308 142 88 48
0.00394001 -4.72705e-05 0.0226998 164 80 49
0.00456097 0.00121121 0.0204058 250 142 67
0.00490817 0.0016061 0.0186027 106 40 2
0.0057742 0.00402995 0.0193767 122 89 62
0.00519845 0.00300922 0.0173941 23 36 58
0.00239627 -5.1642e-05 0.0194417 110 66 42
0.00266478 0.000337294 0.0185053 148 122 92
0.00225159 0.000146718 0.0191619 224 214 174
0.0023504 0.000439299 0.0189987 235 230 190
0.00401874 0.00171983 0.0160138 130 100 68
0.00221163 0.000700094 0.0186424 44 48 54
0.00487921 0.00028441 0.0216689 83 14 24
0.00528157 0.0010583 0.0195567 199 136 85
0.0048436 0.00088345 0.0217372 152 38 62
0.00547554 0.0019473 0.0201914 189 133 93
0.00498182 0.00152684 0.0212299 236 175 134
0.00400859 0.000543686 0.023244 202 176 167
0.00472741 0.00135187 0.0199066 248 147 82
0.00532526 0.00227306 0.0185772 206 135 78
0.00435099 0.00163267 0.0191857 248 140 61
0.0015879 -0.00165588 0.0207064 156 110 80
0.00520116 0.00259184 0.0169807 166 138 109
0.00497294 0.00210455 0.0165049 176 143 106
0.00458157 0.00195967 0.0168526 154 122 92
0.0059591 0.00471411 0.0179019 185 164 94
0.0058474 0.00453251 0.0172437 223 248 254
0.0059292 0.00475932 0.0174572 56 56 60
0.00287068 0.00127947 0.0181388 221 236 243
0.00537403 0.00181376 0.020783 234 184 144
0.00462344 0.00119078 0.020799 142 86 54
0.00275144 0.000391686 0.0191389 228 204 185
0.00586944 0.00465429 0.0180162 214 209 136
0.00476629 0.000140465 0.0219097 180 76 102
0.00424853 0.000454362 0.0226919 188 82 109
0.0052004 0.00187044 0.0206428 234 170 125
0.00520585 0.00173632 0.0201952 102 98 102
0.00480869 0.000145205 0.0219291 94 24 34
0.00476924 0.000310376 0.0218234 115 31 52
0.00439305 0.000964298 0.0203823 237 144 48
0.0052466 0.00298616 0.017588 69 57 50
0.0040787 0.00172613 0.0180996 58 40 38
0.00435347 0.000920506 0.0204971 236 143 48
0.00453443 0.00174601 0.0176631 214 136 88
0.00426329 0.00167248 0.0176573 68 64 60
0.00495245 0.00259617 0.0173756 110 94 80
0.00437686 0.00179735 0.0172049 153 119 91
0.00412529 0.0019558 0.0174467 120 90 100
0.00231202 0.000452759 0.019018 236 229 186
0.00256326 0.000861849 0.0180608 191 213 226
0.00495714 0.000211616 0.0212321 133 40 52
0.00438453 0.0017142 0.0176759 62 52 56
0.00468024 0.000527986 0.0218871 252 150 189
0.0043182 0.000502371 0.0222655 85 17 24
0.00236833 0.000752266 0.0188547 218 238 245
0.00589705 0.00463582 0.0177569 142 138 94
0.00239649 0.000648535 0.0188233 224 207 176
0.00456546 0.00112585 0.0207449 100 40 8
0.00620917 0.00468771 0.0181221 212 184 161
0.00451851 0.000597971 0.0220761 102 18 30
0.00458454 0.000875785 0.0200966 107 82 62
0.00269059 0.000781588 0.017841 127 104 84
0.00585636 0.00454624 0.0176775 46 32 24
0.00561117 0.00436647 0.017818 116 82 50
0.00607704 0.00459485 0.0184454 154 130 111
0.00231477 -8.21729e-05 0.0193138 166 132 116
0.00580964 0.00437047 0.0186972 228 211 194
0.00480685 0.00133175 0.020607 206 159 125
0.00585845 0.00459888 0.0182028 185 184 107
0.00282594 0.00136263 0.0180524 218 232 241
0.00625659 0.00166372 0.0153206 158 156 154
0.00485732 0.000173214 0.0218015 90 24 29
0.00492256 0.000785117 0.0216704 138 62 70
0.00433335 0.0005086 0.0216039 172 95 112
0.00474546 0.001085 0.0212111 131 80 56
0.00479007 0.00114616 0.020825 130 63 41
0.00439312 0.00070976 0.0214898 110 42 21
0.00463137 0.00112839 0.020697 98 65 48
0.00475999 0.0014612 0.0206324 168 108 61
0.00502287 0.00184488 0.0202965 77 86 93
0.00463285 0.00138465 0.0204423 128 84 48
0.00447988 0.00152927 0.0203011 222 158 112
0.00471828 0.00177711 0.0194851 60 16 2
0.00529224 0.00241125 0.0176288 157 134 131
0.0054 0.00275841 0.0178129 169 101 54
0.00580015 0.00434154 0.017952 146 117 83
0.00580374 0.00437438 0.0178719 153 125 90
-0.0152227 -0.00275478 0.0331389 64 42 18
0.00494443 0.000895794 0.0216043 160 56 75
0.00428405 0.0002713 0.0217951 133 36 18
0.00428946 0.000344318 0.0216683 186 102 69
0.00496763 0.00125239 0.0210056 192 157 150
0.00467699 0.000810642 0.0201155 80 59 46
0.00509282 0.00153345 0.0205514 68 100 118
0.00459849 0.00156083 0.0202246 228 165 114
0.00421808 0.00124271 0.0209074 40 74 92
0.00468371 0.00174619 0.0195451 52 13 1
0.00517737 0.00232502 0.0178998 146 124 121
0.00525559 0.00265762 0.0182157 169 101 54
0.00581039 0.00437539 0.0178562 160 132 96
0.00251127 0.000527648 0.0188395 188 169 133
0.00565239 0.0044848 0.0176797 194 192 186
-0.010203 -0.00249094 0.028655 148 126 108
-0.0109611 -0.00266661 0.0295811 70 50 34
0.00460031 0.000772743 0.0217625 240 163 204
0.00440705 0.000464247 0.0213166 200 116 72
0.00480296 0.00113346 0.0209187 101 34 20
0.00523036 0.00185686 0.0206635 204 139 96
0.00436334 0.0012865 0.0207919 187 168 160
0.00454113 0.00126224 0.019481 124 52 5
0.00470331 0.00171138 0.0202013 232 167 119
0.00586202 0.00446606 0.0180153 125 98 40
0.00261793 0.00086351 0.018403 93 92 86
-0.0233568 -0.00537522 0.0408753 102 90 75
-0.0159231 -0.00297055 0.0333312 52 45 40
-0.0188418 -0.00468465 0.0345734 152 158 170
0.00529072 0.00175932 0.0203053 230 168 128
0.00516769 0.00171489 0.0203081 56 80 108
0.00505107 0.00168266 0.0203339 64 86 111
0.00500473 0.00166664 0.0203378 182 148 134
0.00458196 0.00135417 0.0194114 84 32 4
0.00452038 0.00154809 0.0202501 224 160 112
0.00506664 0.00217271 0.0189754 228 126 62
0.00419691 0.00140322 0.0188064 184 134 87
0.0041149 0.00159352 0.0178173 156 132 112
0.00408544 0.00173898 0.017836 98 103 106
0.00387116 0.00166356 0.0178449 149 113 91
0.00220764 0.000305633 0.0193107 193 174 138
-0.00553238 -0.00157607 0.0222335 93 79 68
-0.015173 -0.00309243 0.0327444 74 73 76
-0.0163241 -0.00313243 0.0341934 51 34 17
0.00484844 -0.000315754 0.0226614 100 50 55
0.00533742 0.000647749 0.0199813 164 107 105
0.00458131 0.000466912 0.0221429 254 162 206
0.00456246 0.000642777 0.0218692 100 20 24
0.0045432 0.000700382 0.0219769 186 108 144
0.00444958 0.000723399 0.0215803 113 57 42
0.00489513 0.00126539 0.0206683 171 128 96
0.00513561 0.00163123 0.020843 236 171 134
0.00510841 0.00171763 0.0202076 54 82 112
0.00450575 0.00109381 0.0214393 227 176 139
0.00439316 0.000939526 0.0212203 66 21 1
0.00451431 0.00140051 0.0204621 208 175 159
0.00453575 0.00145592 0.018706 143 107 70
0.00497473 0.00217101 0.0189008 175 80 42
0.00445806 0.00173057 0.0192525 55 49 54
0.00436695 0.00152251 0.0184624 134 94 58
0.00408022 0.00172182 0.0178528 96 102 107
0.00262866 0.00101747 0.018062 52 60 69
-0.0159504 -0.0033832 0.0335293 58 57 60
-0.0143944 -0.00257121 0.0323069 42 28 16
0.0048743 0.000406575 0.0214587 134 46 66
0.00484881 0.000717439 0.0203589 194 122 70
0.00407454 -6.562e-05 0.0229171 74 22 26
0.00470872 0.000750083 0.0218571 182 67 102
0.00493487 0.00137311 0.0205873 92 82 84
0.00427748 0.0011256 0.0213347 222 168 127
-0.0140896 -0.00242055 0.0318027 94 82 68
0.00432927 0.000568563 0.0215004 79 22 30
0.00469288 0.0011098 0.0209717 162 102 66
0.00418023 0.00103332 0.0207238 238 144 40
0.00490519 0.00212199 0.0184629 80 116 140
0.00217469 0.000139544 0.0193975 236 220 178
0.00267813 0.000759065 0.0178535 137 104 72
-0.0234657 -0.00635852 0.0387624 62 67 77
-0.0143225 -0.00379993 0.0290056 68 74 78
0.00471157 -0.000504393 0.0231991 111 52 60
0.00488257 0.000756719 0.0215093 136 21 46
0.00461342 0.000628945 0.0217296 102 23 32
0.00483653 0.00126372 0.0206401 184 139 105
0.00452057 0.00108855 0.0200763 248 152 57
0.00439176 0.00137406 0.0193409 38 44 53
0.00487583 0.00161054 0.0172758 144 112 82
0.00443867 0.00168545 0.0193188 45 48 61
0.00440034 0.00153353 0.018511 131 98 65
0.00567537 0.00400383 0.0176979 144 108 74
0.00255006 0.000663999 0.0180437 130 98 68
-0.0136096 -0.00204309 0.0288053 31 28 34
0.00500708 0.000788289 0.0214452 184 137 119
0.00535847 0.00170387 0.020771 216 172 132
0.00454177 0.00119093 0.0209466 170 118 82
0.00459245 0.00155532 0.0202333 228 166 114
0.00497437 0.000223701 0.0213213 136 44 64
0.0045223 0.000881737 0.0218266 160 104 82
0.00473799 0.00173647 0.0201386 231 166 120
0.00600137 0.00469912 0.017874 188 176 91
0.00228811 0.000826181 0.0185431 88 100 111
0.00497857 0.000234766 0.0212852 141 54 70
0.00488243 0.000805271 0.0216975 244 150 172
0.00393547 0.00154705 0.0180509 46 52 50
0.00605049 0.00462492 0.0179095 231 226 148
0.00461297 0.000786198 0.0217383 249 174 215
0.00517129 0.00165048 0.0203035 144 130 122
0.00438376 0.00130461 0.0207448 198 172 156
0.00590592 0.00421089 0.0186455 186 154 122
0.00258258 0.000439597 0.0188216 188 168 132
0.00577356 0.00451937 0.0181027 138 116 72
0.00430915 0.00117569 0.0202884 182 116 42
0.0040834 0.00137381 0.0189706 245 158 80
0.00398127 0.00160971 0.0192062 245 134 55
0.00583318 0.00430009 0.0188866 129 104 78
0.00433819 8.24147e-05 0.0222804 152 94 76
0.00481639 0.00152918 0.0204453 165 102 58
0.00483757 0.00262252 0.017648 31 26 24
0.00582201 0.00453328 0.0177622 50 33 22
0.00596886 0.00474027 0.0171212 114 130 136
0.00459146 0.00104753 0.020352 214 114 50
0.00521812 0.0029586 0.0176671 43 44 56
0.00598708 0.0049084 0.0172063 230 238 238
0.0060656 0.00464255 0.0180182 246 228 170
0.00438651 0.00124835 0.0201918 138 96 42
0.00583368 0.0045423 0.0176243 44 31 25
0.00480145 -4.99666e-05 0.021646 100 64 58
0.00533483 0.00176724 0.0209243 212 164 123
0.00594145 0.00478291 0.0176178 172 175 180
0.00479649 0.000928328 0.0214052 226 132 173
0.00596749 0.00461345 0.0188677 103 76 56
0.00454983 0.000981678 0.0213506 155 91 54
0.00446712 0.0015927 0.0190438 154 100 64
0.00589267 0.00448298 0.0189927 118 102 88
0.00465061 0.00110632 0.0217331 20 106 140
0.00586049 0.00453262 0.0178528 181 160 108
0.00492439 0.000196552 0.0213521 199 96 118
0.00453479 0.000662625 0.0208988 175 88 90
0.00441696 0.000731574 0.0215361 166 103 78
0.00526138 0.00167069 0.0200742 88 92 94
0.00486234 0.00128667 0.0201276 48 6 0
0.00518641 0.0016543 0.0202346 90 94 102
0.00472647 0.00131724 0.0206443 236 183 140
0.00478754 0.00158467 0.0202177 220 165 124
0.00440374 0.00145401 0.0202478 128 95 79
0.00519733 0.00266266 0.018309 195 154 128
0.00527287 0.00278274 0.0179747 106 80 74
0.00386104 0.00142738 0.018311 138 126 111
0.00226825 -2.98943e-05 0.0193575 188 167 146
0.00599647 0.00481363 0.0173107 87 97 104
-0.0113773 -0.00195279 0.02913 82 80 82
0.00482843 6.90076e-05 0.0220418 168 138 137
0.00497095 0.000892263 0.0213651 246 156 180
0.00430102 0.000227431 0.0220727 86 24 27
0.00488169 0.000916587 0.0213379 228 110 146
0.00435425 0.00121624 0.0201344 159 108 54
0.00259457 -0.000137727 0.0196266 171 114 94
0.00590307 0.00428537 0.0186998 144 115 90
0.00574898 0.00439065 0.0194272 120 92 74
0.0058654 0.00437101 0.0185138 225 209 190
0.00571669 0.00436355 0.0187492 124 95 58
0.00593157 0.0045804 0.0180008 192 182 108
-0.00926964 -0.00283752 0.0276897 199 138 122
-0.00871899 -0.00232428 0.0270728 59 48 42
-0.00837836 -0.00185668 0.0268796 150 130 112
-0.0111173 -0.00280554 0.0298157 72 51 36
0.00489128 0.000743036 0.0217562 140 72 76
0.00485774 0.000726482 0.0204232 164 95 67
0.00489096 0.00080854 0.0214773 126 24 45
0.00480323 0.000817928 0.0202566 129 28 22
0.00537795 0.00173509 0.0202762 164 114 74
0.00493578 0.00130167 0.0206648 176 136 116
0.00527432 0.00171434 0.0200562 173 147 132
0.0047235 0.00114927 0.0205026 45 3 0
0.00459971 0.00122232 0.0204866 204 128 77
0.00459921 0.00137701 0.0193555 76 24 0
0.00426894 0.00120188 0.0198426 50 48 50
0.00418712 0.0013239 0.0211569 220 158 107
0.00524745 0.00262996 0.0180766 176 110 72
0.00263546 0.000193499 0.0193194 122 96 82
0.0021507 -0.000212316 0.0197561 150 118 100
0.00207518 -0.000225534 0.0196849 224 208 187
0.00222293 0.000403016 0.0192541 214 192 157
0.00217535 0.000488788 0.0192031 214 198 162
0.00573898 0.00435429 0.0186542 116 88 54
0.00578676 0.00462082 0.0175644 114 122 130
-0.0128133 -0.0042802 0.0312707 175 112 96
0.00502438 0.000284448 0.0211007 124 48 65
0.00500748 0.000985301 0.021328 156 49 69
0.00424463 0.000273282 0.021929 135 35 38
0.00432348 0.000371789 0.0219003 162 74 94
0.00448618 0.000536214 0.021014 218 144 86
0.00495067 0.00129975 0.0208808 20 61 88
0.00511204 0.00151193 0.0201263 56 72 80
0.00521166 0.00167146 0.0202195 149 132 131
0.00477374 0.00120112 0.0203484 47 6 0
0.00511857 0.00162147 0.0200638 216 186 168
0.0051686 0.00182094 0.0207635 238 174 131
0.00442489 0.0013296 0.0194632 50 48 50
0.00511577 0.00231604 0.0181688 62 42 33
0.00458249 0.00191045 0.0191322 96 126 146
0.00405122 0.0015522 0.017935 156 138 118
0.00226448 0.000135604 0.0191377 204 184 150
0.00478068 0.00246098 0.0178184 106 88 71
0.00583279 0.00435909 0.0183429 116 87 54
0.00593169 0.00435333 0.0175373 152 124 86
0.00578436 0.00457674 0.0175092 161 172 181
0.0059031 0.00460204 0.0172223 129 135 142
-0.00906509 -0.00246435 0.0273835 60 53 50
-0.0113201 -0.00300832 0.02992 157 136 117
-0.0117239 -0.00305692 0.0304678 125 101 80
0.00511361 0.000464953 0.0205372 136 74 76
0.00505875 0.000798833 0.0212951 151 87 78
0.00467509 0.000536272 0.0208254 183 121 90
0.00495542 0.000929472 0.0214909 176 66 90
0.00427933 0.000550535 0.0215191 90 35 26
0.00481302 0.00119907 0.0206335 157 94 60
0.00529605 0.00190271 0.0202916 232 172 128
0.00456323 0.00160967 0.0205951 228 165 116
0.00426708 0.00162255 0.0193996 230 124 52
0.00254657 7.10032e-05 0.019126 166 130 112
0.00383623 0.00154904 0.018582 64 40 36
0.00428981 0.00195736 0.0182864 154 116 86
0.00201184 0.000255062 0.0194064 220 207 166
0.00216892 0.000570205 0.0184061 204 194 183
0.00588277 0.00459027 0.017399 78 75 76
-0.00470232 -0.00136898 0.0215592 102 86 72
-0.0120998 -0.00334371 0.0307225 142 124 109
-0.0113786 -0.0029192 0.0300963 95 72 54
-0.0114991 -0.00294014 0.0267923 70 73 77
0.00530128 0.00130262 0.0205357 234 182 138
0.00497879 0.00113319 0.0211252 108 21 32
0.00519875 0.00175894 0.0203074 153 148 143
0.0046909 0.00165995 0.0191877 20 24 29
0.00514638 0.00219726 0.019343 233 153 65
0.00485073 0.00208913 0.0192608 177 83 44
0.00527903 0.00269871 0.0181083 196 145 110
0.00383495 0.00162321 0.0183312 32 40 46
0.00239889 0.00049689 0.0188879 236 228 188
-0.0122157 -0.00316959 0.0309435 58 41 30
-0.0155449 -0.00454169 0.0302906 72 75 79
0.00447981 0.000231822 0.0220026 111 26 30
0.00541645 0.00141376 0.020128 229 175 133
0.00511309 0.00159525 0.020091 212 185 166
0.00301496 0.000265144 0.0192501 120 68 36
0.00361331 0.00105327 0.0199506 228 151 74
0.00372006 0.00112296 0.0194126 200 143 96
0.00513949 0.00268059 0.0182879 44 46 61
0.00368302 0.00153306 0.0186162 38 48 52
-0.0150626 -0.00289853 0.0331169 37 26 16
0.00520994 0.000592192 0.0212647 131 40 52
0.00537307 0.00140133 0.0202248 234 178 136
0.00457237 0.000621226 0.021094 154 64 88
0.00473453 0.00117635 0.0203796 73 36 20
0.00515306 0.00163087 0.0198947 212 178 158
0.00444069 0.00093259 0.0206101 235 131 53
0.00441697 0.00121191 0.0201322 234 146 38
0.00422129 0.00130165 0.019341 219 146 85
0.00252659 5.84882e-05 0.0193271 126 74 52
0.00407142 0.00163973 0.0190507 254 157 68
0.00256661 0.000230192 0.0193932 218 208 200
0.00368051 0.00165117 0.0185501 148 119 92
-0.0121259 -0.00319804 0.0307997 73 56 43
0.00476221 0.000699571 0.0221144 245 139 172
0.00399466 -0.000111786 0.0230107 93 28 26
0.00461156 0.000655823 0.0221164 170 50 89
0.00454534 0.000615338 0.0222635 158 48 91
0.00541069 0.00185406 0.0205318 142 84 41
0.0058728 0.00420956 0.0188127 144 116 91
0.00577547 0.00426656 0.0190515 62 32 6
0.00567382 0.00436304 0.0191801 236 220 202
0.00580793 0.00437536 0.0184364 124 98 56
0.00511167 0.000345278 0.0206228 86 61 68
0.00487619 0.000140166 0.0215097 212 108 134
0.00472478 0.000309369 0.0220832 110 18 36
0.0040737 0.000118017 0.0224531 127 25 38
0.004431 0.000649534 0.0211568 112 52 52
0.00577616 0.00413348 0.0192255 152 118 88
0.00577866 0.00429109 0.0191284 160 130 106
0.00583912 0.00428581 0.0187405 72 44 21
0.00588519 0.00446939 0.0179823 126 102 42
0.00458905 0.000771923 0.0220036 156 60 94
0.00588065 0.0044618 0.0171016 130 108 88
0.00453811 0.00098076 0.0213774 158 98 58
0.00566033 0.00435066 0.019211 200 180 157
0.00594636 0.00441655 0.0174675 152 124 81
0.00506791 0.00166602 0.0207336 155 152 148
0.00629184 0.00443923 0.0164148 140 112 71
0.00481929 0.00048442 0.0214518 151 94 106
0.0041262 0.000159684 0.0224673 156 70 92
0.00463075 0.000724651 0.0221723 208 82 122
0.00580815 0.00449363 0.0171776 184 166 148
-0.0140605 -0.00553549 0.0300224 116 99 84
0.00486249 0.00056277 0.0220622 174 118 105
0.00437831 0.000887946 0.0208285 248 144 64
0.0049869 0.00167057 0.0204039 198 158 132
0.00260838 0.000696961 0.0185895 228 216 171
0.00448789 -0.000653426 0.0241263 141 42 65
0.00386311 -0.000609444 0.0241232 120 74 58
0.00333015 -0.000700019 0.0244602 106 47 28
0.00361357 -0.00034146 0.0236938 126 30 30
0.00365043 8.04578e-05 0.0236783 108 41 16
0.00527699 0.00158349 0.0197096 57 56 66
0.00570221 0.00206152 0.0194213 234 175 130
0.00435024 0.000799526 0.0216205 74 22 0
0.00568443 0.00206566 0.0193605 243 177 128
0.00562902 0.00198501 0.0184683 162 170 172
0.00452725 0.00134439 0.0196581 150 100 56
0.00459317 0.00141416 0.0190994 146 108 84
0.0040476 0.00117882 0.0213341 183 147 120
0.00592552 0.00257868 0.0162788 46 14 6
0.00454429 0.00152707 0.0186959 229 156 90
-0.0236891 -0.0151056 0.0608238 118 92 62
-0.031217 -0.0187865 0.071671 130 140 148
0.00594147 0.00473925 0.0193629 216 185 156
0.00613851 0.00479205 0.0172316 244 216 177
0.00603049 0.00477562 0.0172976 184 190 192
0.00701928 0.00359894 0.0107651 56 48 42
0.00695502 0.00360347 0.0108377 108 92 82
0.00511393 0.00288049 0.012668 67 46 28
0.00530897 0.00297831 0.0124852 196 150 130
0.0055198 0.00311827 0.0122304 63 22 24
0.0057974 0.00348009 0.0119376 86 62 42
0.00352099 0.00279463 0.0137524 113 117 120
0.00450914 -0.000140388 0.0227694 187 84 109
0.00278977 -0.000928346 0.025989 222 136 146
0.00218602 -0.00143922 0.027406 124 64 44
0.00497139 0.00131536 0.0207992 39 50 68
0.00496115 0.0013192 0.0207366 94 88 90
0.00478977 0.00146804 0.018884 130 56 8
0.00505204 0.00194761 0.0188274 212 154 111
-0.0327376 -0.0231078 0.0759494 226 204 158
-0.0176619 -0.0113671 0.0508651 218 196 166
0.0058141 0.00413834 0.0191123 124 88 60
-1.24534 -0.710489 1.89001 60 72 78
0.00584926 0.00468019 0.0195174 125 96 77
0.00599074 0.004653 0.0183261 236 215 154
0.00604029 0.00479652 0.017633 183 167 112
0.00625686 0.00471358 0.0166574 237 236 232
0.00600789 0.00482037 0.0176757 239 210 174
0.00600348 0.00488449 0.0178068 254 233 203
0.00683893 0.00347156 0.0110746 48 42 38
0.00616628 0.00474781 0.0168474 149 153 156
0.00539419 0.00301212 0.0123993 194 152 131
0.0062632 0.00345037 0.0113239 68 72 72
0.00616382 0.00344692 0.0114567 86 54 54
0.00521071 0.00326818 0.0122247 84 82 84
0.00450738 0.000113522 0.0221122 158 88 90
0.00296905 -0.0010349 0.0255157 109 50 32
0.00434186 0.000295963 0.0218853 102 32 32
0.00429547 0.000479799 0.0212114 105 76 55
0.00528442 0.00169269 0.0199548 34 85 109
0.00516237 0.00178003 0.0195208 174 112 66
0.00504993 0.00194229 0.0192273 225 163 112
0.00630012 0.00424425 0.0198217 114 85 61
0.00565543 0.00463285 0.0200686 133 106 88
0.00608321 0.00435062 0.0170081 141 114 80
0.00596604 0.00470864 0.0177948 236 216 142
0.00593656 0.00480445 0.017981 180 162 102
0.00627183 0.00471035 0.0165921 230 228 225
0.00673215 0.00350815 0.0111206 74 46 25
0.00544253 0.00296751 0.012382 59 38 22
0.00580078 0.00313307 0.0119797 143 120 102
0.00533468 0.00323238 0.0125216 108 78 54
0.00565323 0.00338385 0.0121135 113 96 84
0.00551428 0.00327495 0.011997 113 119 125
0.0044864 -0.000303843 0.0229715 123 45 67
0.00439765 -0.000265863 0.0231036 178 70 97
0.00481311 0.000987394 0.0214083 169 46 72
0.00520168 0.00146167 0.019636 120 48 40
0.00395401 0.000656735 0.022809 108 46 8
0.00498648 0.00177387 0.0196309 237 179 134
0.00438407 0.00127042 0.0195231 80 88 91
0.00586788 0.00258378 0.0171725 174 100 40
0.00497841 0.00185984 0.0184966 21 28 32
0.00503159 0.00215601 0.0182433 124 120 119
-0.0289493 -0.020544 0.0698337 221 198 154
-0.0291198 -0.01895 0.0684385 208 189 147
0.00561994 0.00412071 0.0198416 154 118 89
0.00552306 0.00430335 0.0200652 161 132 106
0.00606826 0.00469896 0.0189598 72 44 22
0.00600848 0.00471511 0.018986 218 190 163
0.00639502 0.00449648 0.015869 46 32 24
0.00604081 0.00478167 0.0176268 180 160 100
0.00580121 0.00491858 0.0185578 252 234 202
0.00711579 0.00363188 0.0106709 72 68 64
0.00544892 0.00308901 0.0122924 92 33 29
0.00528293 0.00304727 0.012464 72 68 76
0.00616311 0.00338118 0.0115094 118 71 67
0.00469239 0.00301709 0.0131938 108 80 58
0.00574366 0.00339133 0.0118493 57 62 68
0.00520484 0.00329445 0.0125362 46 27 12
0.00326437 -0.0015838 0.0284326 130 47 58
0.00318487 -0.00128049 0.0261814 164 114 95
0.00374973 -0.000286073 0.0232626 120 51 38
0.00430794 0.000765116 0.0234159 210 196 171
0.0047029 0.000958269 0.0197713 126 100 74
0.00421317 0.000757599 0.0230533 86 94 94
0.00530498 0.00186246 0.0199096 118 129 130
0.00576357 0.00217953 0.0177613 238 186 142
0.00389151 0.00101741 0.0236925 235 179 138
0.0057091 0.00229076 0.0174703 238 179 135
0.00541657 0.00397229 0.0210424 188 155 122
0.00590775 0.00413718 0.0187392 184 148 114
0.00565617 0.00452736 0.0197184 93 79 72
0.00624014 0.00466161 0.0180578 163 138 114
0.00638683 0.00448081 0.0159493 68 49 30
0.00566399 0.00475175 0.0186067 84 78 42
0.00609389 0.00484551 0.0175073 252 236 205
0.00685383 0.00348472 0.0110465 44 38 36
0.00662026 0.00351164 0.0111266 122 96 76
0.00475886 0.00283349 0.0130137 80 72 80
0.00644502 0.00348323 0.011225 103 70 70
0.006017 0.00202083 0.0180907 231 182 135
0.00532095 0.00140652 0.0182605 140 114 91
0.00409993 0.000452382 0.0240386 187 120 90
0.00419018 0.00052503 0.022245 135 79 60
0.00530397 0.00147728 0.0181212 128 104 79
0.00494942 0.00136117 0.0211426 68 124 145
0.0049109 0.00133289 0.0207935 86 94 94
0.00519535 0.00181092 0.0206527 236 174 133
0.00470673 0.00155735 0.020013 194 126 70
0.00410056 0.00104874 0.0204291 148 89 55
0.00576583 0.00395054 0.0211519 186 155 121
0.00558381 0.00399254 0.0204117 188 155 122
0.00642882 0.00305346 0.0117414 100 88 74
0.00500679 0.00437468 0.0215568 212 193 172
0.00586982 0.00433739 0.0182169 114 84 56
0.00619197 0.00461422 0.0167957 191 186 139
0.00613931 0.00481833 0.0173795 246 235 190
0.00656592 0.00472681 0.0156155 233 237 241
0.00577011 0.00317312 0.0119408 20 14 12
0.00573079 0.00336049 0.0121022 118 92 70
0.00411775 0.00291891 0.0132391 39 38 42
0.00426666 0.00303006 0.0131234 40 42 45
0.00379629 0.00287344 0.0134429 38 36 39
0.00607669 0.00207015 0.0178885 228 180 134
0.00529075 0.00155269 0.0201727 236 188 144
0.00506246 0.00172076 0.0211272 240 176 134
0.00581584 0.00232089 0.0180988 37 79 110
0.00579206 0.00229735 0.0177585 218 166 119
-0.0284242 -0.0248549 0.0695346 145 100 68
-0.0126407 -0.0109409 0.047351 119 64 34
-0.0146928 -0.0119341 0.0492401 166 133 119
-2.15405 -1.25723 3.16456 221 216 209
-0.124525 -0.0663417 0.219198 215 228 234
0.00559192 0.00434057 0.0191187 119 89 60
0.00607451 0.00476532 0.0172377 229 238 239
0.00652056 0.00341014 0.011354 72 45 26
0.00553372 0.00306152 0.0123223 198 134 109
0.00686647 0.00366451 0.01087 56 54 64
0.00553846 0.00322729 0.0122996 50 39 36
0.00575125 0.00336918 0.0120849 118 90 66
0.00570237 0.00336743 0.0118904 58 64 69
0.00409271 -0.000898832 0.0246198 164 171 174
0.00391263 -0.000711823 0.0241907 168 158 150
0.00457924 0.000438477 0.0225197 132 23 46
0.0044593 0.000682174 0.0210599 102 43 45
0.00525955 0.00170767 0.0193871 220 174 140
0.00523488 0.00171778 0.0192215 234 184 142
0.0051871 0.00182041 0.0192131 193 140 100
0.00512987 0.00191825 0.0184281 133 120 108
0.00572873 0.00237251 0.0164324 24 33 44
0.0058873 0.00256164 0.016333 58 20 8
-0.000884777 -0.00280909 0.0266061 128 65 38
-0.000789494 -0.00242047 0.0259349 120 58 31
-0.00107498 -0.00244973 0.0257489 153 108 90
-0.00284702 -0.00382562 0.0274515 100 51 29
-0.0241753 -0.0163835 0.0612787 234 222 179
-0.0306713 -0.0193189 0.070333 193 172 128
0.00539772 0.00411712 0.020717 61 30 8
0.0064103 0.00303545 0.011759 110 100 88
0.00612096 0.00289347 0.0114824 162 140 118
0.00616008 0.00447964 0.0163411 202 206 204
0.00619146 0.00336737 0.0114768 96 64 60
-0.00702452 -0.00339106 0.0223776 94 91 90
-0.0429174 -0.0310236 0.123936 43 42 44
-0.00341472 -0.00137824 0.0145089 49 34 17
-0.00362934 -0.0014364 0.0144408 106 88 68
-0.00318795 -0.000799534 0.0144589 159 136 110
0.000138641 -0.00313359 0.0146045 138 98 67
-0.00362751 -0.00142695 0.0144265 102 84 65
-0.00350458 -0.00164109 0.014398 82 64 45
-0.000148889 -0.00197182 0.0150275 206 186 153
0.000321047 -0.00262404 0.0147799 106 52 25
