ply
format ascii 1.0
element vertex 1558
property float x
property float y
property float z
property uchar red
property uchar green
property uchar blue
end_header
-0.847142 0.0824402 1.0163 0 255 0
-0.853461 0.0822514 1.021 0 255 0
-0.85162 0.0891763 1.01261 0 255 0
-0.855529 0.0867878 1.01386 0 255 0
-0.853538 0.0825008 1.01829 0 255 0
-0.853461 0.0822514 1.021 0 255 0
-0.853461 0.0822514 1.021 0 255 0
-0.853461 0.0822514 1.021 0 255 0
-0.846581 0.0855498 1.01436 0 255 0
-0.77414 0.065896 0.936115 76 33 11
-0.774927 0.0648036 0.929628 119 104 90
-0.77445 0.0655809 0.931053 61 52 23
-0.77175 0.0732145 0.936902 62 20 3
-0.776233 0.071568 0.922452 165 134 118
-0.774714 0.078293 0.939963 42 23 6
-0.774483 0.0785095 0.939818 56 40 22
-0.777914 0.0835383 0.945274 108 74 52
-0.778204 0.0874099 0.943054 118 99 79
-0.779007 0.0905244 0.940384 36 18 7
-0.785553 0.0909205 0.935146 48 18 14
-0.78721 0.0908422 0.934543 136 104 102
-0.787104 0.0910933 0.93528 76 51 48
-0.786381 0.091092 0.934129 80 49 48
-0.776362 0.0662863 0.921201 41 10 6
-0.77872 0.0698402 0.922635 30 14 14
-0.777177 0.0720891 0.920863 37 14 12
-0.776217 0.0816016 0.942982 132 90 62
-0.778813 0.0801836 0.932907 61 44 38
-0.777301 0.0843718 0.944671 111 76 46
-0.789728 0.0796802 0.932049 184 162 148
-0.783373 0.089331 0.931175 140 85 71
-0.773717 0.0634018 0.927133 80 70 53
-0.776901 0.0673299 0.920871 106 64 48
-0.77783 0.0691917 0.921305 66 42 38
-0.7757 0.0725888 0.922453 135 96 78
-0.780682 0.0748066 0.926204 106 70 45
-0.778314 0.0803076 0.931664 15 9 4
-0.781937 0.0898613 0.931525 121 76 73
-0.777558 0.0720418 0.922808 125 86 73
-0.777463 0.0717256 0.921222 44 20 18
-0.775923 0.0817683 0.942085 70 44 19
-0.779818 0.0892875 0.936942 105 78 75
-0.786253 0.0911397 0.931532 36 22 16
-0.774541 0.0778974 0.940714 162 130 108
-0.780153 0.074896 0.925684 95 58 36
-0.769697 0.0699933 0.937107 70 40 14
-0.777257 0.0779486 0.928796 170 118 93
-0.777628 0.0777158 0.924536 172 140 118
-0.780564 0.0907094 0.934332 124 94 89
-0.777128 0.0882647 0.935236 96 68 64
-0.779379 0.0891949 0.936914 101 75 76
-0.749311 0.0802385 0.992354 103 38 22
-0.715318 0.100208 0.986979 81 36 21
-0.718513 0.0998682 0.985855 68 24 14
-0.776805 0.0803176 0.937911 92 54 34
-0.780599 0.0799327 0.93474 28 20 18
-0.776692 0.0877564 0.936701 160 116 106
-0.780806 0.0872647 0.933979 138 106 90
-0.733747 0.0364769 0.870969 61 39 29
-0.774303 0.0628881 0.936586 112 86 42
-0.770313 0.0649627 0.915964 165 74 52
-0.780823 0.0680958 0.921851 172 102 72
-0.770969 0.0725936 0.93521 178 148 134
-0.777668 0.0724258 0.92276 121 87 74
-0.770799 0.0727746 0.918258 99 50 27
-0.776178 0.0779412 0.93807 48 24 6
-0.789406 0.0758482 0.932265 60 36 18
-0.779176 0.0804055 0.945056 63 45 29
-0.77803 0.0818185 0.944351 62 36 14
-0.78029 0.0827024 0.948342 144 114 83
-0.779873 0.084167 0.947276 108 72 44
-0.792128 0.0797972 0.935327 194 172 160
-0.777425 0.0850787 0.931982 188 142 126
-0.780291 0.0871143 0.945489 92 68 50
-0.778287 0.0877166 0.938913 129 58 54
-0.784033 0.0891135 0.932846 165 132 123
-0.786095 0.0898848 0.932649 161 104 86
-0.717417 0.122476 0.916742 220 178 175
-0.752825 0.07641 0.974064 195 142 113
-0.77326 0.064526 0.929063 116 101 76
-0.773979 0.0646284 0.928606 112 100 84
-0.776421 0.0669789 0.932203 73 58 40
-0.772434 0.0728967 0.937029 180 146 127
-0.779091 0.0709445 0.921968 121 92 93
-0.775738 0.0773502 0.938163 152 122 102
-0.775861 0.0776272 0.938318 154 125 104
-0.789971 0.0760214 0.93286 36 16 2
-0.78003 0.0826556 0.948089 134 104 74
-0.780357 0.0832084 0.947666 141 106 82
-0.791279 0.0782019 0.932377 64 48 34
-0.790718 0.0788824 0.933365 95 48 30
-0.731604 0.1202 0.919536 72 44 42
-0.727308 0.122563 0.918453 111 82 76
-0.778844 0.07069 0.921224 62 33 29
-0.776999 0.0783972 0.940274 44 23 12
-0.780095 0.0838099 0.947267 153 119 98
-0.780178 0.0841189 0.947625 114 77 43
-0.722609 0.121615 0.916611 112 84 85
-0.726674 0.122588 0.917045 86 58 56
-0.733706 0.0365174 0.892875 100 10 3
-0.771213 0.0691145 0.933311 144 111 96
-0.774798 0.0716873 0.919998 140 97 78
-0.78618 0.0751299 0.929837 100 72 56
-0.779155 0.0793165 0.943315 101 66 38
-0.788991 0.0882332 0.93369 100 103 90
-0.78969 0.0906708 0.935527 36 20 20
-0.752227 0.0786225 0.995352 169 113 90
-0.756597 0.0734006 0.967748 74 54 23
-0.775843 0.0663537 0.930735 124 105 91
-0.768096 0.0683479 0.932329 118 84 68
-0.785681 0.0751806 0.929562 136 102 83
-0.7791 0.0782044 0.930533 162 121 97
-0.779651 0.0813675 0.944687 106 79 58
-0.776229 0.0831051 0.943213 128 98 72
-0.777784 0.0881781 0.936877 162 130 124
-0.725607 0.122964 0.917146 100 71 67
-0.717721 0.0325434 0.872531 92 43 20
-0.7103 0.035728 0.868037 112 21 18
-0.773113 0.065365 0.936226 78 21 9
-0.767117 0.0700072 0.933087 90 58 44
-0.729153 0.0915529 0.992651 76 35 22
-0.785849 0.088524 0.934877 138 102 88
-0.713151 0.113852 0.923825 145 116 102
-0.780633 0.0749838 0.926527 110 78 58
-0.778919 0.0795676 0.931374 93 73 66
-0.782474 0.0862856 0.93663 184 159 150
-0.780679 0.086148 0.931148 163 134 126
-0.780169 0.0874128 0.933275 130 96 84
-0.7835 0.0910535 0.944382 151 125 112
-0.681779 0.13163 0.972063 197 146 116
-0.772732 0.0646841 0.935033 93 66 36
-0.715867 0.0865144 0.958609 69 24 8
-0.763568 0.0482631 0.939163 150 126 100
-0.762745 0.0512915 0.938639 153 132 94
-0.762607 0.0509536 0.937038 123 96 64
-0.763895 0.0519056 0.938996 160 120 86
-0.764978 0.0493185 0.930991 100 24 6
-0.764851 0.0525789 0.938769 103 78 52
-0.77624 0.0476718 0.919615 241 234 230
-0.762215 0.050779 0.926496 107 70 50
-0.764022 0.0510548 0.92591 149 113 94
-0.775552 0.0500768 0.920957 129 112 106
-0.76215 0.0539449 0.933296 96 82 65
-0.766182 0.0518267 0.9265 150 100 76
-0.766284 0.0562258 0.939946 115 106 72
-0.761725 0.0529773 0.929354 111 96 80
-0.765746 0.056134 0.93845 92 80 58
-0.771092 0.0501625 0.917176 84 63 55
-0.773398 0.0512711 0.919749 184 166 162
-0.771104 0.0503716 0.916367 240 222 218
-0.762129 0.0545403 0.929696 87 68 60
-0.771041 0.0506111 0.916732 88 69 62
-0.77828 0.0521441 0.921909 254 245 244
-0.775397 0.0526515 0.923189 131 110 100
-0.77386 0.0507153 0.916438 146 128 125
-0.76476 0.0572444 0.93618 154 122 94
-0.77647 0.0535353 0.918933 206 190 184
-0.774919 0.0600595 0.93325 168 148 110
-0.775206 0.0623359 0.939357 86 50 12
-0.773542 0.0622918 0.938632 172 138 99
-0.77425 0.0651626 0.940722 134 109 64
-0.783004 0.0614675 0.928464 80 54 44
-0.776675 0.063935 0.93401 76 70 39
-0.774411 0.0660313 0.940174 163 140 102
-0.779851 0.0628446 0.930074 158 128 114
-0.779806 0.0627201 0.92923 91 79 66
-0.778277 0.0626012 0.927249 159 134 122
-0.776068 0.0659298 0.93836 138 106 76
-0.776708 0.0642691 0.932094 125 114 98
-0.777639 0.062691 0.926114 158 124 113
-0.772404 0.0673524 0.940219 142 125 84
-0.773815 0.0630161 0.923757 182 100 76
-0.772316 0.0675449 0.938442 91 32 10
-0.779043 0.0634657 0.924575 193 139 114
-0.774072 0.0644159 0.925541 111 40 30
-0.777597 0.0665027 0.933138 135 120 104
-0.774318 0.0647443 0.9253 110 24 12
-0.773948 0.0643956 0.923248 146 55 28
-0.774712 0.0643631 0.923239 208 120 96
-0.777316 0.0659747 0.930104 187 160 148
-0.777626 0.0664149 0.931461 100 83 66
-0.770215 0.0701498 0.937942 52 21 3
-0.775437 0.0664633 0.925193 60 10 4
-0.783728 0.0658173 0.923775 181 132 106
-0.779299 0.0669394 0.925197 49 16 7
-0.769331 0.0705881 0.934953 68 38 22
-0.775123 0.0699663 0.934488 82 88 51
-0.774343 0.067785 0.925005 46 26 18
-0.776795 0.0676846 0.925762 98 89 88
-0.779961 0.0682257 0.923966 59 26 14
-0.773336 0.0732723 0.940081 84 62 34
-0.775882 0.0690169 0.923877 111 104 105
-0.774087 0.0728283 0.938213 135 103 86
-0.771375 0.0726931 0.935952 201 166 144
-0.776398 0.069501 0.92381 98 92 94
-0.778974 0.0694373 0.922858 106 75 69
-0.780871 0.0746375 0.940568 40 20 4
-0.782983 0.0713865 0.926645 62 34 28
-0.781807 0.0713057 0.924479 132 108 100
-0.787476 0.0715628 0.927185 166 138 113
-0.780024 0.0718749 0.92205 98 71 64
-0.777294 0.073433 0.925208 63 14 0
-0.78216 0.0724329 0.924503 48 19 8
-0.78277 0.0733473 0.927306 145 95 81
-0.775952 0.0781403 0.942721 158 132 108
-0.784067 0.0768969 0.943185 66 64 32
-0.781592 0.0764165 0.93897 78 71 45
-0.771529 0.0780376 0.93771 90 63 49
-0.772787 0.0780308 0.938356 145 121 106
-0.774195 0.0787802 0.940866 151 126 102
-0.775537 0.0786569 0.941329 50 30 22
-0.774886 0.0781026 0.937866 102 77 66
-0.776382 0.0782251 0.938589 116 98 84
-0.783644 0.0750422 0.93033 110 78 54
-0.774856 0.079123 0.940472 138 114 104
-0.775685 0.0794563 0.941918 34 14 6
-0.776158 0.0791495 0.94118 33 16 4
-0.77235 0.0792854 0.9371 48 32 14
-0.776602 0.0796549 0.94143 60 42 25
-0.785321 0.0743346 0.922519 102 83 57
-0.785571 0.0757694 0.926887 46 22 7
-0.77709 0.0782458 0.929473 74 29 9
-0.777523 0.0787258 0.931244 34 18 10
-0.780214 0.0776193 0.92671 163 138 127
-0.778356 0.0789606 0.929981 130 102 88
-0.786632 0.0763187 0.926043 54 26 12
-0.787968 0.0762462 0.926983 160 130 114
-0.789041 0.0770775 0.931744 74 46 22
-0.782074 0.0780087 0.927745 128 106 96
-0.786158 0.0770716 0.925224 59 36 14
-0.787132 0.0775249 0.927833 160 138 114
-0.777997 0.0800596 0.929913 155 130 118
-0.785889 0.0782637 0.926608 98 54 35
-0.780205 0.0802325 0.928383 96 62 40
-0.777615 0.0819409 0.9308 164 142 127
-0.78995 0.0790972 0.925485 38 12 0
-0.773871 0.0882289 0.938776 63 44 28
-0.779873 0.0842329 0.924182 161 112 87
-0.775298 0.0881854 0.932644 118 91 86
-0.787555 0.083711 0.922679 194 158 140
-0.790119 0.0835327 0.923511 54 30 18
-0.793619 0.0841772 0.927992 104 82 70
-0.789466 0.0848259 0.922063 154 136 124
-0.784815 0.0882982 0.93326 150 114 96
-0.790097 0.0853182 0.923805 176 150 139
-0.790725 0.0852709 0.923803 173 152 134
-0.78937 0.0855946 0.922299 90 66 56
-0.790821 0.0856542 0.92377 55 34 21
-0.779623 0.0904405 0.927037 160 99 99
-0.741936 0.102228 0.918566 98 81 66
-0.780375 0.091413 0.927173 54 18 18
-0.780364 0.0913473 0.926692 91 54 56
-0.745066 0.102592 0.921513 142 126 118
-0.772559 0.0939228 0.922864 218 197 190
-0.789691 0.0883849 0.923832 182 150 124
-0.782998 0.0912401 0.925836 50 22 21
-0.745806 0.102947 0.919421 151 134 122
-0.792103 0.0916064 0.946913 220 195 186
-0.790401 0.089113 0.92538 202 174 162
-0.762135 0.0477023 0.937985 129 98 68
-0.762219 0.0485258 0.939698 118 100 55
-0.76429 0.0520362 0.939304 154 114 80
-0.764179 0.0523373 0.938328 94 66 39
-0.766974 0.0541501 0.941538 156 134 94
-0.771766 0.0477809 0.920912 154 121 106
-0.778094 0.0488129 0.923101 204 188 183
-0.762185 0.0539419 0.933327 112 94 77
-0.739048 0.0449705 0.906549 102 90 73
-0.764487 0.0562734 0.936675 146 122 98
-0.747975 0.0410737 0.888945 144 120 108
-0.77771 0.0518744 0.921169 234 220 218
-0.772405 0.0521656 0.917702 168 150 145
-0.76119 0.0557305 0.925585 150 118 102
-0.774022 0.0621085 0.938761 90 48 15
-0.770515 0.0617122 0.935544 121 78 41
-0.772603 0.0646612 0.937142 183 128 102
-0.777543 0.0640035 0.934575 128 110 90
-0.776401 0.0654135 0.938983 148 124 86
-0.774114 0.0622504 0.924466 136 63 46
-0.773876 0.0666512 0.939742 173 154 112
-0.776018 0.0649467 0.932897 72 74 50
-0.775489 0.0628287 0.924932 146 32 30
-0.773315 0.0627866 0.92325 182 110 82
-0.771735 0.0672178 0.93669 176 131 109
-0.773532 0.0636981 0.923462 155 53 40
-0.773707 0.0643906 0.925124 120 62 49
-0.77583 0.0660927 0.931978 110 96 76
-0.770678 0.0683623 0.938374 146 112 82
-0.776756 0.0678913 0.938157 150 130 101
-0.778041 0.0665531 0.933534 140 123 108
-0.776504 0.0680455 0.937404 74 56 20
-0.776824 0.0662144 0.930592 95 82 64
-0.775157 0.0649463 0.922601 134 40 18
-0.77776 0.0676314 0.930324 193 163 152
-0.76931 0.0702756 0.936386 148 114 96
-0.782938 0.066134 0.926145 90 58 46
-0.771129 0.0696025 0.933126 71 42 28
-0.773652 0.0676487 0.924224 108 82 69
-0.77527 0.0686791 0.925027 112 94 82
-0.780183 0.0678494 0.924163 144 94 73
-0.773005 0.0726231 0.939192 140 106 76
-0.776929 0.072158 0.938458 34 10 1
-0.77639 0.0691259 0.924492 92 86 86
-0.770965 0.0728248 0.934751 57 21 10
-0.775018 0.0730247 0.937702 49 13 2
-0.776869 0.0696043 0.924486 80 72 75
-0.779686 0.0695511 0.923835 76 51 48
-0.772307 0.0741724 0.937724 149 106 79
-0.781948 0.0706087 0.925919 65 35 32
-0.781251 0.0744493 0.940442 62 49 26
-0.779283 0.0745089 0.93894 44 25 8
-0.771489 0.0758869 0.937746 194 167 144
-0.780548 0.0740452 0.936142 82 72 51
-0.781843 0.0713116 0.924587 118 93 86
-0.782162 0.0711664 0.924052 97 58 47
-0.784327 0.0709784 0.9235 68 29 6
-0.786302 0.0713537 0.925569 160 130 104
-0.781949 0.0755035 0.939357 166 152 126
-0.772395 0.0777906 0.938059 162 132 112
-0.773139 0.0783059 0.939683 50 21 8
-0.779247 0.0793948 0.945723 157 130 111
-0.78268 0.0740925 0.924477 86 55 30
-0.776491 0.0792399 0.942126 132 106 96
-0.783332 0.0753888 0.925581 30 17 4
-0.787041 0.0752743 0.928573 50 26 10
-0.776992 0.0805041 0.942824 84 64 44
-0.785627 0.0757068 0.926989 45 23 8
-0.776575 0.0781674 0.928893 114 60 34
-0.777866 0.0768876 0.92386 168 143 130
-0.785985 0.076212 0.928292 26 12 4
-0.787414 0.0755007 0.925184 162 139 113
-0.776437 0.078388 0.927159 46 20 4
-0.778756 0.0773369 0.924475 58 36 24
-0.778343 0.0794287 0.932672 126 107 96
-0.790454 0.076688 0.930921 182 152 132
-0.773542 0.0796994 0.927213 158 132 120
-0.781094 0.0779287 0.926532 154 131 120
-0.779053 0.0794623 0.93062 126 98 81
-0.786931 0.0769102 0.925674 161 134 117
-0.774349 0.0830511 0.941417 136 102 76
-0.776485 0.080322 0.929526 22 10 2
-0.786974 0.0768853 0.923907 70 49 36
-0.77766 0.0835588 0.944968 113 75 49
-0.788115 0.0775865 0.925614 40 24 16
-0.779133 0.0819313 0.932618 124 101 88
-0.784714 0.080401 0.928136 192 170 158
-0.773718 0.0850183 0.928512 168 123 98
-0.773428 0.0851539 0.927327 210 169 154
-0.776135 0.087002 0.939344 170 133 115
-0.773565 0.0876054 0.938117 145 122 105
-0.773803 0.088 0.93408 124 36 29
-0.787236 0.0832106 0.922299 153 105 90
-0.782006 0.085062 0.922482 120 74 52
-0.776732 0.0876457 0.928333 170 132 114
-0.791699 0.0836729 0.924928 168 146 132
-0.789295 0.0841247 0.923271 82 36 22
-0.79041 0.0839786 0.923053 76 52 42
-0.789369 0.0845526 0.922489 84 65 59
-0.78984 0.085552 0.923009 108 85 74
-0.790788 0.0859271 0.923573 184 160 145
-0.74805 0.100353 0.920145 114 100 86
-0.784408 0.0921283 0.937645 216 196 190
-0.739193 0.118948 0.927499 85 58 54
-0.763106 0.0481457 0.938793 134 104 74
-0.76471 0.0519232 0.940562 155 142 102
-0.76036 0.0485989 0.92883 146 102 73
-0.770758 0.0460667 0.917218 211 188 180
-0.774809 0.0490591 0.9215 77 59 54
-0.775125 0.0487369 0.920252 116 96 88
-0.766451 0.0551953 0.940849 128 94 54
-0.774714 0.0490538 0.919727 184 168 162
-0.771931 0.0505415 0.918266 92 70 62
-0.756571 0.0541146 0.927643 140 110 85
-0.774416 0.0518815 0.917921 228 212 211
-0.772122 0.0520581 0.916866 106 90 85
-0.771892 0.0524832 0.917118 108 89 84
-0.770843 0.052831 0.916364 107 86 76
-0.775356 0.0541896 0.921394 166 147 142
-0.777572 0.0538761 0.920473 196 181 178
-0.762347 0.0559775 0.920703 95 54 22
-0.778891 0.0567944 0.923329 156 134 122
-0.768721 0.0579248 0.925285 98 64 38
-0.771333 0.0612188 0.93542 86 28 1
-0.780484 0.0582531 0.925018 124 92 75
-0.775104 0.064165 0.941065 168 152 102
-0.77679 0.0665241 0.942614 160 144 104
-0.774014 0.0616697 0.92285 116 26 19
-0.777053 0.0647651 0.934693 126 126 81
-0.772345 0.0618145 0.922328 136 63 46
-0.768687 0.0673872 0.936399 111 79 46
-0.769794 0.0699748 0.937584 90 60 36
-0.771548 0.0705437 0.939903 144 127 86
-0.76807 0.0697286 0.934012 169 139 121
-0.772889 0.0695524 0.935346 160 120 102
-0.779235 0.067879 0.932022 191 162 149
-0.780318 0.0656828 0.923682 54 22 12
-0.782672 0.0655566 0.922268 178 126 96
-0.781836 0.0681719 0.926373 144 94 72
-0.774001 0.0719233 0.935999 62 26 10
-0.784135 0.0743952 0.943919 143 130 105
-0.777955 0.0733122 0.933237 90 76 58
-0.787802 0.0707822 0.929197 174 148 128
-0.77856 0.0737415 0.933778 84 78 55
-0.785307 0.0710949 0.926091 91 48 26
-0.778269 0.0754838 0.939916 170 154 130
-0.774878 0.0728411 0.925884 146 86 56
-0.785502 0.0711238 0.925134 72 33 12
-0.77557 0.0716511 0.918883 47 22 19
-0.774491 0.0778852 0.940225 166 134 113
-0.781108 0.0765999 0.939739 62 60 29
-0.783289 0.0765082 0.940951 78 72 46
-0.77642 0.0774173 0.938877 156 123 102
-0.776046 0.0784718 0.942613 50 21 8
-0.773741 0.0777795 0.937039 168 133 112
-0.774955 0.0789185 0.941502 158 130 109
-0.776873 0.079613 0.943602 36 20 6
-0.774422 0.0791831 0.939505 32 15 4
-0.786522 0.0749983 0.928928 43 18 5
-0.775974 0.0781331 0.928112 108 54 29
-0.775718 0.0785475 0.92909 120 94 84
-0.786155 0.076313 0.928567 22 12 5
-0.783216 0.0766423 0.925788 32 11 1
-0.777331 0.0784731 0.928322 50 24 10
-0.785821 0.0767829 0.92856 25 16 10
-0.785309 0.0758426 0.923163 184 154 136
-0.776174 0.0790457 0.927948 133 108 96
-0.788225 0.0769826 0.930401 94 67 44
-0.77555 0.0826995 0.943667 148 120 92
-0.780864 0.079457 0.932716 132 102 84
-0.777783 0.0800865 0.931564 34 22 16
-0.790769 0.0774013 0.931382 160 132 116
-0.775165 0.0830387 0.941882 124 92 67
-0.77756 0.0799238 0.929231 154 131 117
-0.786315 0.0772131 0.925195 42 21 4
-0.788438 0.0770857 0.926133 46 27 14
-0.781175 0.0789131 0.926458 25 14 10
-0.78018 0.0801772 0.928457 109 77 54
-0.773575 0.0871356 0.936713 168 132 116
-0.781428 0.0850581 0.922584 109 64 42
-0.788376 0.0844657 0.922862 164 108 88
-0.789632 0.084997 0.922806 38 16 8
-0.788441 0.0855363 0.922566 63 30 18
-0.791341 0.0858858 0.924521 180 158 142
-0.778876 0.090992 0.932027 119 88 84
-0.7526 0.0989218 0.926159 130 112 94
-0.783533 0.0897536 0.928932 168 88 62
-0.74768 0.10116 0.919602 170 155 149
-0.722091 0.120908 0.924799 75 22 14
-0.719936 0.125972 0.913839 82 52 44
-0.763879 0.049842 0.932496 136 92 62
-0.765282 0.0530781 0.940594 120 102 60
-0.771576 0.0476134 0.918184 94 69 63
-0.76137 0.0536491 0.932318 96 84 66
-0.766463 0.0529459 0.92406 127 36 34
-0.764461 0.0569063 0.93573 136 104 78
-0.771296 0.051574 0.916346 173 154 149
-0.770817 0.0577826 0.930719 124 87 66
-0.771181 0.0582544 0.930359 174 136 116
-0.764809 0.0566492 0.920653 106 72 47
-0.77418 0.0622072 0.938664 85 24 0
-0.781716 0.060338 0.92986 84 44 28
-0.778195 0.0641357 0.940746 123 90 48
-0.78356 0.0611366 0.928725 50 26 16
-0.774142 0.065732 0.940149 157 145 104
-0.77748 0.0617385 0.926106 107 94 80
-0.778807 0.0626232 0.927555 144 126 116
-0.77809 0.0677209 0.944114 173 153 112
-0.775457 0.0626163 0.922998 120 20 11
-0.775938 0.0652593 0.932439 132 110 82
-0.769943 0.0669027 0.935921 102 35 16
-0.782727 0.064296 0.928321 177 125 102
-0.779071 0.0657392 0.927463 137 42 20
-0.772088 0.069177 0.93647 130 94 70
-0.768916 0.0703096 0.935968 164 132 112
-0.776469 0.0697401 0.936457 113 119 81
-0.776511 0.0715396 0.938452 126 83 62
-0.775038 0.068015 0.923442 76 66 64
-0.772746 0.0724274 0.939473 91 60 28
-0.775834 0.0689815 0.923737 82 74 76
-0.781053 0.068375 0.924139 82 22 1
-0.778878 0.0729575 0.938365 122 118 92
-0.784704 0.0749821 0.944077 55 42 21
-0.776007 0.076253 0.94225 216 188 164
-0.780203 0.0711013 0.922594 110 83 77
-0.781162 0.0755249 0.941915 163 152 128
-0.780668 0.0751532 0.939983 66 48 28
-0.785414 0.0711773 0.925064 82 43 18
-0.776585 0.0735729 0.927663 98 44 20
-0.785705 0.0715275 0.92532 122 84 61
-0.775632 0.0767923 0.940151 109 84 50
-0.774455 0.0779043 0.940083 162 132 112
-0.785999 0.0769493 0.945105 58 60 29
-0.781064 0.0763279 0.938361 82 74 48
-0.773177 0.0783508 0.93941 37 13 4
-0.775725 0.0780068 0.937479 48 26 12
-0.77753 0.0786574 0.939534 34 17 4
-0.785571 0.0749015 0.927686 38 15 3
-0.779291 0.0812249 0.948058 116 89 60
-0.786152 0.0754457 0.927398 34 14 2
-0.775973 0.0779061 0.926477 162 126 102
-0.776828 0.0814911 0.943651 142 90 65
-0.775255 0.0812448 0.940081 124 95 72
-0.786459 0.0759869 0.924891 184 154 134
-0.772847 0.0822882 0.94098 114 74 44
-0.786557 0.0763263 0.925745 80 54 38
-0.776096 0.0796646 0.930414 161 134 120
-0.775619 0.0791045 0.927202 148 124 110
-0.787559 0.0764738 0.925142 164 138 120
-0.779541 0.0788555 0.926299 33 18 6
-0.78753 0.0773714 0.92694 37 18 2
-0.778487 0.0817591 0.935387 93 79 60
-0.780436 0.0809186 0.930187 92 56 36
-0.779878 0.0860002 0.947783 103 90 66
-0.782694 0.0859699 0.949422 120 88 68
-0.777327 0.0850126 0.931981 188 143 126
-0.778008 0.0872532 0.942276 156 132 118
-0.786612 0.0832461 0.921031 153 100 83
-0.755859 0.0987525 0.928039 100 82 68
-0.749888 0.100713 0.921874 160 143 137
-0.75042 0.101102 0.924145 142 124 118
-0.784663 0.0911304 0.930031 136 97 94
-0.758867 0.0480294 0.927645 130 87 58
-0.761801 0.049983 0.927311 146 115 100
-0.76516 0.0547844 0.939837 138 110 66
-0.762917 0.0542303 0.933837 96 82 65
-0.76023 0.0549793 0.922581 164 136 123
-0.777345 0.0551195 0.924136 128 109 102
-0.77208 0.0653727 0.938129 160 154 110
-0.782091 0.0631823 0.932167 104 89 76
-0.776514 0.0643108 0.934032 119 118 77
-0.773417 0.0643148 0.924702 116 47 37
-0.774932 0.0678401 0.935916 66 45 14
-0.776078 0.0672585 0.928252 186 156 144
-0.778657 0.0676581 0.923691 34 15 12
-0.776929 0.0730624 0.943761 104 74 42
-0.779069 0.072483 0.941922 146 112 94
-0.780472 0.0678975 0.92485 136 87 64
-0.778736 0.0717737 0.938122 65 79 52
-0.77996 0.0735141 0.939715 90 76 54
-0.779524 0.0736224 0.935323 129 109 90
-0.780865 0.0712405 0.923932 98 70 66
-0.776759 0.0748366 0.934913 157 146 124
-0.785584 0.0768001 0.943865 62 65 40
-0.77461 0.0744077 0.924164 168 124 98
-0.773543 0.0783482 0.940096 55 28 12
-0.775025 0.0775767 0.937762 165 132 110
-0.774425 0.0795522 0.941111 44 28 11
-0.777397 0.0791712 0.929532 104 82 72
-0.785511 0.0768632 0.926708 81 54 30
-0.778972 0.0875936 0.944199 104 80 64
-0.778906 0.0841487 0.920521 100 58 36
-0.774581 0.0865415 0.926458 178 146 137
-0.743285 0.114276 0.929838 62 14 12
-0.763246 0.0484347 0.929007 107 16 7
-0.76671 0.0544988 0.941499 150 142 95
-0.774092 0.0638921 0.940415 157 154 102
-0.780463 0.0600881 0.928635 135 106 93
-0.7734 0.0636443 0.935818 110 47 18
-0.774874 0.0651605 0.939586 162 104 78
-0.775291 0.0630838 0.931271 104 94 78
-0.776361 0.0624138 0.926089 140 48 40
-0.778456 0.0625701 0.926496 163 142 132
-0.775957 0.0652269 0.933423 162 154 108
-0.780091 0.0636701 0.926106 153 96 71
-0.776466 0.063689 0.924028 170 90 67
-0.775516 0.067457 0.93694 106 76 50
-0.779299 0.0665762 0.93388 83 76 60
-0.778391 0.0651997 0.928399 178 90 63
-0.775267 0.0678167 0.93614 74 54 22
-0.773241 0.0696598 0.93515 20 12 6
-0.779456 0.0718791 0.938825 66 78 48
-0.773639 0.0722965 0.935168 109 77 54
-0.77873 0.0717666 0.927985 148 119 106
-0.780166 0.0754057 0.941332 163 152 131
-0.779295 0.0740265 0.929905 81 36 16
-0.776983 0.0773569 0.941862 86 63 27
-0.778478 0.0779632 0.944587 178 146 122
-0.778849 0.0782337 0.93188 150 91 66
-0.778974 0.0814904 0.945009 77 54 33
-0.779847 0.0786698 0.932219 44 15 5
-0.783825 0.0781826 0.923745 107 68 48
-0.780661 0.0806741 0.929004 158 124 103
-0.784484 0.0791894 0.924184 188 166 154
-0.778111 0.0835532 0.919705 93 52 30
-0.771899 0.0925292 0.931652 157 131 119
-0.787695 0.0893493 0.935529 130 15 16
-0.778564 0.091905 0.92438 36 12 10
-0.769272 0.046702 0.921872 115 14 8
-0.768713 0.0513191 0.928028 158 124 108
-0.770922 0.0588373 0.943709 116 106 61
-0.764541 0.0544508 0.924796 56 6 3
-0.769853 0.0577324 0.933035 168 134 118
-0.77167 0.0668369 0.937636 127 75 50
-0.776794 0.0639371 0.924715 176 90 67
-0.780147 0.0688922 0.94151 68 38 16
-0.767491 0.0696738 0.93553 123 100 66
-0.774699 0.0703071 0.941292 174 143 124
-0.77407 0.0684943 0.934401 61 69 36
-0.769121 0.072146 0.934261 160 126 104
-0.777032 0.0745631 0.936992 40 24 8
-0.781481 0.0740545 0.93764 126 107 88
-0.772277 0.0773384 0.938679 166 140 114
-0.778622 0.0768242 0.93962 118 106 73
-0.776154 0.0745501 0.926153 168 124 98
-0.775285 0.0789102 0.942048 116 92 62
-0.781646 0.0813002 0.950661 144 126 100
-0.772385 0.0786332 0.916899 30 18 9
-0.780071 0.0811243 0.930112 98 64 45
-0.773327 0.0875596 0.936204 124 64 52
-0.751275 0.102122 0.925356 150 134 122
-0.743638 0.104456 0.920299 158 120 105
-0.72509 0.12064 0.923687 108 78 73
-0.735739 0.118595 0.934818 104 68 59
-0.72512 0.123758 0.924435 80 48 36
-0.724602 0.124262 0.922156 127 94 87
-0.765011 0.0489993 0.927037 121 8 6
-0.767838 0.051981 0.928545 116 64 38
-0.776813 0.0667263 0.943399 160 154 106
-0.771062 0.0674185 0.935915 170 134 114
-0.774346 0.0644576 0.92593 126 70 56
-0.765538 0.0680146 0.931158 156 128 110
-0.772299 0.0707702 0.938606 67 32 20
-0.769571 0.0725691 0.936493 125 109 73
-0.778928 0.0722405 0.94055 38 15 6
-0.77874 0.0744631 0.946577 162 151 126
-0.777235 0.0704494 0.927442 22 12 9
-0.778309 0.0760952 0.940753 114 83 60
-0.775297 0.0733844 0.925087 64 18 6
-0.7764 0.07731 0.941606 121 94 67
-0.784679 0.0856348 0.9261 144 102 86
-0.782345 0.0915429 0.944874 82 46 26
-0.780559 0.0905108 0.929395 105 41 45
-0.742596 0.101007 0.916579 94 72 56
-0.731382 0.11226 0.917315 136 111 104
-0.723961 0.122056 0.926176 82 46 36
-0.731421 0.120823 0.930677 82 50 42
-0.767091 0.0531596 0.941327 168 138 112
-0.764037 0.045719 0.918651 220 184 164
-0.771238 0.0464065 0.917962 229 209 200
-0.76531 0.0431633 0.909417 240 219 215
-0.766411 0.0540489 0.940877 157 140 105
-0.769847 0.0462837 0.917297 241 220 208
-0.766996 0.0435963 0.909424 232 214 208
-0.764044 0.0438878 0.908729 88 62 56
-0.766377 0.0551584 0.940016 133 118 98
-0.756756 0.047069 0.915328 156 114 90
-0.765032 0.0476051 0.910095 207 183 172
-0.759528 0.0526093 0.92408 112 84 72
-0.763025 0.0488265 0.908809 166 138 132
-0.769032 0.0510492 0.915913 88 64 54
-0.761855 0.0540408 0.914471 247 227 216
-0.760249 0.0552747 0.917948 106 64 34
-0.769389 0.0531841 0.91043 176 150 140
-0.762689 0.0560532 0.918311 102 67 40
-0.760621 0.0557051 0.915218 90 55 32
-0.774941 0.0630056 0.940263 140 99 60
-0.777388 0.0661825 0.943586 147 124 82
-0.773765 0.0630147 0.930087 122 108 88
-0.773124 0.0613884 0.921875 114 19 14
-0.777868 0.0651021 0.935609 110 109 68
-0.77573 0.0671489 0.941623 169 152 108
-0.776173 0.0623374 0.924495 144 96 80
-0.776939 0.0650653 0.932975 104 108 90
-0.778295 0.0661227 0.935336 98 87 64
-0.768887 0.067482 0.935741 98 60 32
-0.780631 0.0687087 0.942298 160 144 109
-0.783644 0.0672542 0.937953 192 164 153
-0.778856 0.0675332 0.935042 78 68 50
-0.730581 0.0816976 0.969732 116 76 50
-0.781019 0.0694079 0.942142 150 145 104
-0.766986 0.069878 0.933859 118 86 70
-0.775164 0.0681023 0.923532 114 104 101
-0.777125 0.0722701 0.938684 32 9 2
-0.772891 0.0715105 0.932935 54 46 34
-0.778184 0.0728058 0.940137 104 72 52
-0.774701 0.0745839 0.940794 120 86 60
-0.784043 0.0743809 0.943817 146 132 106
-0.78012 0.0703785 0.923484 60 32 28
-0.775087 0.0705906 0.9173 131 105 105
-0.784493 0.0714856 0.923391 123 98 74
-0.773623 0.0744522 0.920846 226 198 177
-0.780566 0.0741783 0.923754 86 42 22
-0.777316 0.0806801 0.945982 150 127 102
-0.785151 0.0756278 0.927455 125 100 76
-0.787034 0.0759631 0.929443 131 105 84
-0.778187 0.0809388 0.941266 178 138 122
-0.775702 0.0794708 0.927988 71 61 59
-0.777015 0.0832505 0.944333 154 120 96
-0.789126 0.0771526 0.927102 60 42 28
-0.778553 0.0860062 0.945103 114 80 63
-0.775803 0.0864492 0.938829 146 92 72
-0.78172 0.088931 0.929713 131 88 70
-0.784556 0.0893155 0.934309 124 62 64
-0.790757 0.0871533 0.927417 216 189 164
-0.795448 0.0884198 0.933401 220 193 180
-0.740977 0.118434 0.929181 86 57 53
-0.777597 0.0521648 0.952512 142 130 81
-0.760177 0.0439397 0.914426 170 133 111
-0.764745 0.0430475 0.90957 207 184 174
-0.7656 0.0433337 0.909864 242 222 218
-0.771439 0.0470649 0.919335 241 220 208
-0.760618 0.0476322 0.922128 104 12 2
-0.764892 0.0435976 0.908982 214 197 190
-0.764441 0.0454152 0.907251 99 80 73
-0.766025 0.0561129 0.939721 133 126 87
-0.765482 0.0560361 0.938227 88 80 56
-0.763059 0.0549524 0.930747 82 67 60
-0.766008 0.0483781 0.910332 89 69 56
-0.772142 0.051256 0.915918 207 190 188
-0.767066 0.0505581 0.913943 156 130 122
-0.766494 0.0495702 0.909416 110 92 87
-0.759911 0.0533509 0.912351 187 163 152
-0.760046 0.0541356 0.911885 164 125 109
-0.730087 0.0695965 0.95563 120 109 73
-0.778934 0.0644865 0.941451 106 75 35
-0.773289 0.0614122 0.921842 115 16 11
-0.777652 0.0643839 0.931787 89 78 62
-0.772271 0.0620348 0.921826 156 76 53
-0.768733 0.0672878 0.936365 119 90 58
-0.776418 0.0627133 0.921115 170 109 86
-0.777785 0.0626622 0.921348 165 114 91
-0.777806 0.0661777 0.93147 96 82 64
-0.779036 0.0689124 0.93997 148 142 102
-0.772809 0.0635422 0.917315 110 46 23
-0.776813 0.0652011 0.922581 169 100 75
-0.774958 0.0702684 0.93819 140 90 67
-0.78359 0.0667123 0.923862 178 119 91
-0.777014 0.0724127 0.93775 22 10 3
-0.778003 0.0734072 0.939197 148 130 106
-0.780233 0.0694862 0.923995 121 82 69
-0.784676 0.0703046 0.924724 171 146 125
-0.780997 0.0710744 0.924061 60 34 30
-0.77472 0.0724144 0.924438 182 128 100
-0.774731 0.0728678 0.925697 132 76 44
-0.776227 0.0764607 0.941164 146 118 91
-0.779405 0.0720118 0.920743 64 39 32
-0.77498 0.0783789 0.940386 24 9 0
-0.775709 0.0786335 0.941548 29 11 4
-0.772433 0.0793099 0.939012 32 17 4
-0.773818 0.07901 0.93881 38 20 6
-0.776721 0.0810168 0.941902 108 79 58
-0.77701 0.079917 0.929348 22 12 5
-0.780618 0.078911 0.925634 23 14 6
-0.779788 0.0842907 0.924256 150 102 72
-0.779323 0.0864938 0.931709 176 144 136
-0.789943 0.083649 0.92483 162 126 117
-0.79158 0.0852604 0.926428 178 148 136
-0.766775 0.0509502 0.941147 150 128 100
-0.764545 0.0519412 0.938646 142 116 90
-0.768078 0.0543346 0.942822 108 80 42
-0.766786 0.0537416 0.941232 102 66 35
-0.769489 0.0459712 0.916801 203 180 167
-0.767124 0.0445576 0.911857 225 208 202
-0.768545 0.0584372 0.941422 133 126 78
-0.772473 0.0530681 0.919365 107 86 76
-0.76536 0.0509446 0.912604 218 202 192
-0.762087 0.0493513 0.907395 194 173 164
-0.776611 0.0651229 0.943193 122 99 53
-0.779727 0.0650989 0.942267 93 52 14
-0.775571 0.0652954 0.939527 128 76 53
-0.76931 0.0670164 0.936328 154 132 98
-0.781673 0.0688789 0.943373 160 144 109
-0.778942 0.0668719 0.934454 152 134 119
-0.770855 0.0632704 0.918232 206 122 93
-0.777164 0.066207 0.93079 108 94 76
-0.780288 0.0689296 0.941517 62 40 6
-0.780396 0.069327 0.941457 128 121 83
-0.775658 0.0680764 0.926575 68 44 36
-0.777801 0.0678548 0.921059 44 19 14
-0.775712 0.0737146 0.942312 76 51 23
-0.782718 0.0676123 0.921443 142 94 66
-0.775393 0.0729468 0.938015 42 6 0
-0.784594 0.0755574 0.944158 50 35 14
-0.779843 0.0714378 0.921928 53 27 23
-0.77705 0.0779265 0.938877 58 31 12
-0.776658 0.0781684 0.938969 66 44 29
-0.781705 0.0740356 0.922287 96 66 44
-0.776956 0.0787335 0.939041 44 22 10
-0.77625 0.0789465 0.92761 155 124 109
-0.786937 0.0776651 0.925179 24 10 2
-0.78191 0.0816929 0.935909 103 80 68
-0.785965 0.0833287 0.921861 140 108 94
-0.778794 0.0879187 0.931193 134 96 78
-0.779235 0.0879602 0.931252 126 91 75
-0.780019 0.0877254 0.931186 130 92 76
-0.783809 0.0859514 0.92694 130 86 63
-0.783074 0.0894999 0.932542 130 70 73
-0.778355 0.0905329 0.925349 140 68 68
-0.768732 0.0511782 0.945517 128 110 63
-0.762123 0.0489097 0.936821 150 128 102
-0.764398 0.0458385 0.919119 187 150 128
-0.762078 0.0515872 0.936367 98 70 46
-0.764997 0.0449915 0.909762 178 154 144
-0.761198 0.048577 0.919682 152 120 104
-0.762219 0.0509977 0.925682 110 66 41
-0.758792 0.0531816 0.926479 79 64 57
-0.765536 0.0567719 0.937261 108 78 48
-0.766902 0.0493268 0.913856 111 83 74
-0.764997 0.0570998 0.937919 108 91 46
-0.766565 0.0503586 0.913134 164 138 130
-0.765625 0.0509117 0.912839 186 166 156
-0.739295 0.0411849 0.880535 178 157 148
-0.772621 0.0535257 0.918602 106 86 78
-0.759866 0.0551295 0.917695 100 60 29
-0.777751 0.0653932 0.944339 126 104 58
-0.780765 0.0654508 0.94341 96 55 18
-0.778801 0.0640429 0.935061 80 75 54
-0.775394 0.0638485 0.929186 88 80 64
-0.766699 0.0662714 0.931612 161 116 96
-0.774259 0.0645199 0.925494 107 20 13
-0.779074 0.0668822 0.934532 140 120 106
-0.778466 0.0673186 0.934612 83 76 57
-0.775631 0.0636371 0.919821 90 34 13
-0.777996 0.0723856 0.938893 20 11 8
-0.776594 0.0687288 0.919448 66 38 34
-0.776979 0.0686669 0.919417 124 84 69
-0.774113 0.0727511 0.924864 132 76 44
-0.780795 0.0716282 0.923188 48 21 16
-0.783875 0.0716051 0.924284 162 120 100
-0.788648 0.076188 0.933811 76 46 32
-0.779738 0.0773442 0.930254 128 90 70
-0.777175 0.078713 0.930772 66 44 32
-0.778767 0.0785642 0.930076 52 24 10
-0.779905 0.0828586 0.94757 106 70 38
-0.786966 0.0776314 0.925733 28 14 6
-0.781851 0.0816852 0.935948 100 80 66
-0.781036 0.0836718 0.927918 136 98 80
-0.785429 0.08465 0.928639 168 126 105
-0.783032 0.0901856 0.931526 158 91 90
-0.727825 0.122239 0.917852 88 58 55
-0.767904 0.0508664 0.944918 148 136 88
-0.767114 0.05383 0.942396 116 102 54
-0.772618 0.0509171 0.918376 180 162 156
-0.77552 0.0653378 0.940208 158 102 75
-0.773848 0.06166 0.922869 132 41 34
-0.779307 0.0629729 0.92822 156 134 124
-0.769346 0.066648 0.93537 116 58 34
-0.767955 0.0672722 0.935527 104 72 38
-0.769911 0.0670058 0.935179 132 80 60
-0.775274 0.0661831 0.926052 142 109 96
-0.771704 0.0672458 0.921672 88 62 53
-0.776829 0.0715264 0.939122 134 90 68
-0.772235 0.06812 0.921568 128 101 88
-0.779324 0.0737491 0.940716 154 139 116
-0.772983 0.0726168 0.923657 144 85 54
-0.785632 0.076983 0.944722 54 58 26
-0.78822 0.0762291 0.933131 44 19 8
-0.782374 0.0777145 0.933756 128 94 72
-0.775608 0.0787208 0.928922 31 20 11
-0.776349 0.0800923 0.929515 16 11 8
-0.785081 0.0861576 0.926792 132 93 75
-0.78453 0.0886981 0.927914 96 108 96
-0.765265 0.0524539 0.939662 142 111 82
-0.758535 0.0488814 0.924006 149 122 108
-0.763729 0.0567066 0.936831 121 112 66
-0.760973 0.0534164 0.921927 136 67 58
-0.766705 0.0643273 0.932519 154 150 102
-0.780768 0.0650854 0.936903 146 124 109
-0.776611 0.0642564 0.930964 87 86 70
-0.769127 0.0668681 0.934159 178 137 118
-0.766455 0.0681314 0.931709 72 51 35
-0.779709 0.0672401 0.926207 42 15 10
-0.771308 0.0725265 0.937895 111 82 48
-0.784837 0.07685 0.943321 61 70 41
-0.777261 0.0798234 0.943936 39 24 10
-0.774381 0.076186 0.923406 183 140 115
-0.778945 0.0802272 0.943791 130 105 80
-0.778761 0.0794499 0.931211 92 73 64
-0.781314 0.0811045 0.931676 102 70 48
-0.782471 0.0819382 0.93198 100 57 30
-0.777465 0.0861258 0.927093 180 152 144
-0.785594 0.0887475 0.929535 92 108 96
-0.740823 0.118301 0.929981 103 72 70
-0.752726 0.0584996 0.913532 104 50 24
-0.775947 0.0660338 0.93919 77 20 9
-0.776345 0.0637104 0.931781 142 124 107
-0.772725 0.0622504 0.922457 156 76 53
-0.776274 0.0658455 0.930653 79 76 64
-0.775707 0.0662326 0.930701 153 131 119
-0.778375 0.068653 0.93006 103 78 68
-0.784118 0.0741203 0.944253 90 77 50
-0.775739 0.0774604 0.938781 164 130 107
-0.775866 0.0784177 0.938929 34 12 0
-0.776663 0.0785695 0.938855 50 30 18
-0.776953 0.0790873 0.931049 131 110 100
-0.778984 0.0828112 0.946673 113 78 48
-0.77898 0.0847205 0.924913 100 54 28
-0.77805 0.0878188 0.929142 148 108 92
-0.762129 0.0539262 0.932551 90 83 66
-0.76346 0.0538511 0.932277 96 88 74
-0.760111 0.0537253 0.918382 160 132 120
-0.772765 0.0620783 0.937565 133 92 56
-0.772253 0.0645753 0.936901 150 94 67
-0.773201 0.0655245 0.936437 77 18 8
-0.770945 0.0665509 0.936724 124 75 47
-0.770705 0.0647995 0.925902 110 94 78
-0.774381 0.0674421 0.925041 102 80 70
-0.774742 0.0685819 0.924946 132 104 92
-0.779986 0.0747634 0.943727 154 120 100
-0.783962 0.0756919 0.945789 161 152 128
-0.775638 0.0720894 0.924984 179 143 121
-0.784894 0.07674 0.943508 72 76 44
-0.778428 0.0761085 0.925478 149 124 106
-0.779918 0.07871 0.926178 136 116 103
-0.780672 0.0785317 0.926102 26 17 14
-0.778928 0.0806426 0.926862 151 120 98
-0.781795 0.0845669 0.928674 99 53 27
-0.776089 0.0425308 0.931765 158 127 96
-0.776616 0.042713 0.931412 137 82 56
-0.775421 0.0601748 0.943625 126 98 68
-0.791339 0.0656002 0.946138 85 48 30
-0.793238 0.0652294 0.942737 67 26 12
-0.761698 0.0602196 0.928667 173 159 112
-0.767412 0.0622549 0.929918 151 131 89
-0.770588 0.0639749 0.934734 159 110 86
-0.769171 0.0633991 0.932667 150 104 84
-0.783722 0.0640233 0.932793 116 100 88
-0.785879 0.065996 0.935544 116 22 16
-0.773137 0.0676097 0.93843 80 20 4
-0.7731 0.0680774 0.939253 97 58 36
-0.773866 0.0675298 0.937665 169 122 101
-0.769294 0.0663349 0.932474 166 99 80
-0.775356 0.0651876 0.928208 156 128 117
-0.787399 0.068086 0.937403 176 88 68
-0.777321 0.0702986 0.941411 76 51 37
-0.785818 0.0684158 0.935789 161 72 51
-0.764052 0.0910597 1.00251 156 135 113
-0.787838 0.0703292 0.933148 140 91 75
-0.809079 0.0921953 1.01201 94 94 124
-0.787883 0.0719119 0.933549 114 86 81
-0.766051 0.0937748 1.00049 188 134 110
-0.78888 0.0740607 0.932797 60 30 15
-0.767595 0.0777418 0.93408 61 43 28
-0.764002 0.0780223 0.930923 62 40 24
-0.775789 0.0792482 0.941381 101 80 64
-0.76008 0.0803877 0.930693 149 104 77
-0.782827 0.0761525 0.925471 44 22 11
-0.785288 0.0782774 0.93283 166 143 132
-0.783111 0.0769224 0.926621 36 15 5
-0.784469 0.078078 0.931316 68 44 31
-0.810369 0.0949956 1.01131 185 72 74
-0.78461 0.0765714 0.924774 42 18 3
-0.785582 0.0788121 0.933562 167 141 128
-0.781118 0.0794799 0.933159 156 121 104
-0.809325 0.0947163 1.00886 152 97 96
-0.810547 0.0945446 1.00876 160 112 110
-0.782987 0.0800885 0.935579 147 119 107
-0.7846 0.0795343 0.933027 32 12 1
-0.783974 0.0789795 0.929458 132 100 84
-0.807832 0.0954203 1.00832 154 114 111
-0.782598 0.0805259 0.931776 78 49 30
-0.797208 0.0964468 1.0026 147 54 31
-0.785738 0.0809655 0.930916 202 180 168
-0.785612 0.0862079 0.939338 222 198 191
-0.788857 0.0857691 0.934648 158 124 110
-0.791374 0.0856765 0.935072 156 116 102
-0.806437 0.0995881 1.01183 132 53 28
-0.80598 0.0997729 1.01194 168 134 106
-0.797617 0.0937359 0.972662 36 10 9
-0.790514 0.0862256 0.929153 54 30 18
-0.788552 0.0886924 0.937959 112 72 58
-0.807443 0.0997449 1.00758 124 118 125
-0.79005 0.0879949 0.928513 55 42 28
-0.806444 0.100102 1.00739 114 110 118
-0.788162 0.0910508 0.936469 49 20 17
-0.782037 0.0998042 0.970305 116 95 82
-0.782058 0.0992197 0.967581 156 118 106
-0.782821 0.0994236 0.968237 140 116 105
-0.793347 0.0975813 0.973136 198 171 165
-0.79201 0.0950424 0.958665 150 129 122
-0.785348 0.0997053 0.970683 122 100 93
-0.80526 0.101277 1.00729 124 118 130
-0.792721 0.0956548 0.959573 166 116 106
-0.783648 0.100587 0.971038 186 164 152
-0.784019 0.100758 0.971187 120 96 84
-0.790634 0.0960045 0.956589 82 62 54
-0.796451 0.0977069 0.971513 242 226 218
-0.796676 0.0973713 0.970174 171 158 155
-0.807639 0.102132 1.0113 132 92 44
-0.798731 0.0964807 0.96671 82 68 64
-0.799045 0.0967583 0.967224 128 115 110
-0.798704 0.0979545 0.972417 138 126 121
-0.796961 0.098824 0.971238 88 74 72
-0.798037 0.105028 1.00333 130 48 36
-0.796516 0.099521 0.962849 144 76 69
-0.796477 0.110019 1.00462 136 56 36
-0.763248 0.0349647 0.919397 112 84 49
-0.775359 0.0420515 0.93016 126 78 48
-0.756318 0.0412178 0.933392 149 136 90
-0.772963 0.0585723 0.942917 96 78 54
-0.784476 0.0613619 0.947916 131 116 106
-0.773976 0.0589896 0.943073 122 100 74
-0.756636 0.0540961 0.927684 113 86 55
-0.788003 0.0639168 0.947561 164 136 124
-0.791187 0.0655273 0.945916 90 54 35
-0.769109 0.0627362 0.931665 111 78 42
-0.761386 0.0622999 0.928045 134 106 72
-0.751086 0.0794119 0.976846 97 58 24
-0.784554 0.0652402 0.933791 111 31 26
-0.784956 0.0659521 0.934563 173 89 77
-0.771368 0.0671314 0.936838 90 28 13
-0.787037 0.0670889 0.937464 168 92 74
-0.775459 0.0649893 0.929982 94 81 66
-0.772238 0.0671628 0.936103 168 122 102
-0.768539 0.0660873 0.93169 148 82 62
-0.779185 0.065619 0.929976 106 58 44
-0.78643 0.0667864 0.934252 160 82 62
-0.788921 0.0685677 0.939195 162 73 54
-0.78691 0.0678961 0.935653 181 96 74
-0.774072 0.0695186 0.938415 80 56 40
-0.78769 0.0687234 0.93618 134 44 24
-0.763878 0.091043 1.00254 142 120 98
-0.769748 0.0705764 0.932046 116 84 68
-0.770564 0.070937 0.93203 25 11 2
-0.789587 0.070773 0.935391 140 94 76
-0.768015 0.0705165 0.929049 20 14 6
-0.771137 0.0721787 0.933667 50 16 5
-0.787981 0.0723741 0.93311 58 28 22
-0.788592 0.0730519 0.933662 111 82 83
-0.789979 0.0742176 0.934224 68 39 25
-0.787842 0.0746069 0.934392 31 11 8
-0.771352 0.0775898 0.937252 151 124 106
-0.774634 0.0782728 0.940077 45 25 11
-0.78793 0.0749244 0.932703 159 100 82
-0.765723 0.0781661 0.932974 139 113 97
-0.783468 0.0754541 0.929808 100 63 43
-0.782137 0.0792842 0.936188 65 48 40
-0.783273 0.0792179 0.936741 98 72 58
-0.785312 0.0782415 0.932944 173 148 138
-0.784105 0.0793189 0.936163 65 35 18
-0.784324 0.0780007 0.931122 70 46 33
-0.78237 0.0796493 0.934975 118 94 82
-0.781113 0.079482 0.933253 146 111 96
-0.809598 0.0946632 1.00891 118 32 32
-0.781308 0.0798106 0.933703 150 120 109
-0.807679 0.0949923 1.00843 163 118 117
-0.760705 0.0826469 0.930059 107 72 48
-0.785022 0.0785194 0.927063 99 58 40
-0.783767 0.0806551 0.933187 84 55 37
-0.786108 0.0795658 0.928101 172 148 137
-0.810603 0.0962227 1.01162 72 28 22
-0.810678 0.0961824 1.0115 178 136 129
-0.796801 0.0964969 1.00256 148 66 32
-0.785111 0.0808696 0.930108 186 161 150
-0.769687 0.0866757 0.933191 146 113 94
-0.787289 0.0901848 0.960928 146 108 87
-0.787884 0.0857183 0.933567 134 98 82
-0.789813 0.0882537 0.935016 105 98 90
-0.79084 0.0876619 0.932817 134 72 68
-0.791492 0.0891097 0.936949 108 49 40
-0.790264 0.094349 0.956238 101 86 75
-0.788486 0.0984048 0.971832 154 130 116
-0.790983 0.0979423 0.971565 154 120 114
-0.79288 0.0955903 0.959688 157 98 86
-0.782809 0.100699 0.970504 149 126 114
-0.785938 0.100291 0.971052 140 118 108
-0.807914 0.101997 1.01135 136 90 38
-0.801121 0.0960812 0.968803 106 92 88
-0.795534 0.0985621 0.970938 144 126 118
-0.797781 0.0983 0.970444 56 37 30
-0.798914 0.0974135 0.966224 170 158 156
-0.805651 0.103775 1.00795 50 32 40
-0.78578 0.111721 1.00315 138 94 87
-0.790958 0.110158 1.00426 160 122 107
-0.750769 0.0384426 0.928607 129 112 68
-0.768282 0.0531753 0.941157 98 60 30
-0.759853 0.0516392 0.93489 132 99 60
-0.768383 0.0560468 0.939047 84 73 50
-0.763189 0.0550785 0.93622 116 108 62
-0.77009 0.0575544 0.941146 128 116 86
-0.766065 0.0613101 0.9325 167 156 108
-0.762697 0.0621622 0.929333 167 152 106
-0.763451 0.0628623 0.929861 110 72 41
-0.768618 0.0638892 0.931059 100 68 43
-0.775799 0.0650132 0.930224 84 71 56
-0.772572 0.0672061 0.936505 143 93 73
-0.774624 0.0684522 0.940075 104 60 39
-0.78658 0.0668949 0.934473 162 84 64
-0.788464 0.0691596 0.938846 161 73 52
-0.788499 0.0688564 0.935636 161 90 64
-0.771507 0.0690737 0.933544 118 90 72
-0.767909 0.0910315 1.00028 107 62 48
-0.788385 0.0714688 0.938054 66 56 54
-0.787615 0.0708943 0.934449 50 38 36
-0.808291 0.0922356 1.012 80 79 110
-0.765082 0.070502 0.925901 132 122 100
-0.785005 0.0721635 0.936285 46 26 15
-0.789148 0.0721775 0.934963 106 76 70
-0.781705 0.0707737 0.925316 44 15 10
-0.789159 0.0731568 0.934217 104 76 75
-0.806378 0.0930391 1.01058 134 120 116
-0.786453 0.0750462 0.933534 154 122 106
-0.769276 0.0782178 0.935537 142 118 100
-0.785105 0.0749662 0.929487 99 56 42
-0.759101 0.0776227 0.927009 92 73 59
-0.783743 0.0752327 0.927427 100 67 52
-0.783612 0.0757877 0.926565 110 80 68
-0.785492 0.0775304 0.933624 139 112 96
-0.785639 0.0792635 0.938102 146 96 74
-0.782127 0.0793574 0.9362 24 13 10
-0.781417 0.0775246 0.927654 77 52 40
-0.783213 0.0797109 0.935898 83 60 50
-0.783458 0.0783005 0.929865 168 143 132
-0.808717 0.0958157 1.01229 147 41 35
-0.779007 0.0801996 0.933134 66 50 44
-0.782024 0.0804901 0.931266 86 58 38
-0.786385 0.0801514 0.931026 122 100 83
-0.808654 0.0966821 1.01166 172 132 121
-0.809254 0.0965093 1.01142 184 131 124
-0.810185 0.0964285 1.01153 154 95 89
-0.799905 0.0971675 1.00672 156 118 97
-0.791334 0.0859344 0.937846 154 122 109
-0.77952 0.0886904 0.936826 152 128 123
-0.806645 0.0996001 1.01198 165 136 117
-0.785542 0.0886169 0.934409 126 90 78
-0.787735 0.0891038 0.93639 130 80 65
-0.792419 0.0884285 0.938034 98 98 90
-0.792252 0.0941232 0.95799 102 88 76
-0.784058 0.0993069 0.971063 110 92 77
-0.78451 0.0993641 0.970744 156 136 122
-0.791527 0.0950359 0.958248 132 108 99
-0.791575 0.0947791 0.957029 183 165 158
-0.783749 0.100038 0.970626 128 110 103
-0.788357 0.099624 0.973354 155 136 130
-0.78602 0.100161 0.971614 100 80 75
-0.809462 0.101519 1.01142 132 88 40
-0.796618 0.0979366 0.971425 198 180 174
-0.799 0.0965268 0.967102 98 86 81
-0.799226 0.0967048 0.96735 88 74 70
-0.798876 0.0973874 0.966202 158 144 142
-0.798976 0.107365 1.0054 140 94 75
-0.79475 0.110313 1.00678 144 68 38
-0.759698 0.0427877 0.935789 154 139 94
-0.774559 0.0529018 0.943398 136 114 97
-0.759772 0.0516234 0.93458 124 72 40
-0.772543 0.0575492 0.94259 81 72 50
-0.774333 0.0589297 0.942923 102 74 46
-0.775365 0.0599006 0.943391 118 92 68
-0.790033 0.0653034 0.944256 80 46 28
-0.75752 0.0741082 0.967732 106 84 63
-0.771396 0.0639659 0.934926 128 80 58
-0.780719 0.0642421 0.930451 130 66 54
-0.773571 0.0675745 0.938894 82 14 4
-0.787659 0.0672977 0.938181 162 85 66
-0.773643 0.0695144 0.938039 108 84 70
-0.788382 0.068815 0.936878 140 48 30
-0.762749 0.089478 0.998363 97 50 38
-0.784488 0.069259 0.935098 22 10 4
-0.769182 0.070651 0.930793 30 14 4
-0.761856 0.069824 0.922627 146 136 113
-0.784615 0.0720681 0.935828 46 26 15
-0.768806 0.0940463 1.00142 160 106 80
-0.786177 0.0740366 0.934357 178 154 144
-0.768202 0.0767483 0.932385 136 104 83
-0.765363 0.0782628 0.931372 27 16 4
-0.777667 0.0794362 0.941789 88 52 28
-0.781855 0.0790523 0.935214 102 74 60
-0.78186 0.0793799 0.935833 17 8 5
-0.780922 0.0795141 0.933247 144 116 104
-0.780694 0.0803124 0.93493 49 34 28
-0.779407 0.080398 0.932942 10 6 2
-0.783113 0.0793894 0.931127 30 13 2
-0.809748 0.0957891 1.01214 192 147 138
-0.786599 0.0797876 0.933644 27 20 14
-0.781719 0.0803344 0.930711 84 55 37
-0.809665 0.096062 1.0115 174 116 110
-0.784448 0.0807717 0.929252 185 161 150
-0.802817 0.0966186 1.00709 157 124 102
-0.784431 0.0872784 0.936743 150 114 100
-0.805314 0.0999155 1.01198 164 138 120
-0.780663 0.0906379 0.941948 28 16 7
-0.788588 0.0889783 0.938331 150 126 118
-0.788826 0.0891218 0.936953 87 26 24
-0.783533 0.0994779 0.970814 100 82 68
-0.784139 0.0995079 0.970307 157 136 124
-0.791055 0.0978863 0.97161 124 90 84
-0.793272 0.098071 0.972501 122 95 90
-0.796785 0.0981564 0.971084 66 54 49
-0.792477 0.099484 0.967978 78 66 64
-0.79821 0.0975468 0.965586 168 154 153
-0.805763 0.103728 1.00797 50 32 40
-0.797682 0.107068 1.00636 70 2 2
-0.801643 0.106129 1.00861 162 89 82
-0.802476 0.105723 1.00679 144 82 48
-0.779318 0.113943 1.00219 134 92 84
-0.797925 0.109107 1.00713 142 62 34
-0.776327 0.0430313 0.93235 150 132 102
-0.753965 0.0399051 0.930764 95 70 30
-0.754957 0.0498253 0.930611 126 80 44
-0.769426 0.0577926 0.940235 88 71 39
-0.758336 0.0599511 0.926043 120 95 54
-0.76935 0.0635294 0.933567 144 93 69
-0.777872 0.0643948 0.932738 117 96 82
-0.77035 0.0862689 0.999036 149 90 73
-0.778989 0.0659337 0.933501 102 86 70
-0.780725 0.0665602 0.934084 149 120 108
-0.765475 0.0899014 1.00275 150 101 76
-0.79086 0.0707205 0.940863 124 42 24
-0.770871 0.0701557 0.933058 146 104 87
-0.787145 0.071227 0.93673 73 62 61
-0.764987 0.0699368 0.926153 19 12 6
-0.761508 0.0945361 1.00042 160 104 80
-0.783621 0.0744109 0.934867 138 82 58
-0.785328 0.0745588 0.933109 96 61 50
-0.806767 0.0937235 1.00856 116 45 32
-0.7635 0.0787853 0.929501 124 96 79
-0.780801 0.0789216 0.932916 32 9 1
-0.783112 0.0807506 0.937133 12 6 3
-0.784849 0.0795487 0.93322 32 12 1
-0.785692 0.079714 0.932724 28 20 14
-0.795659 0.096136 1.00294 106 26 8
-0.800738 0.0968964 1.00684 158 131 107
-0.785995 0.0876568 0.938049 120 86 72
-0.79622 0.0945083 0.972975 76 14 15
-0.803518 0.100799 1.00625 24 20 38
-0.783298 0.0989091 0.968203 124 64 54
-0.792177 0.095925 0.958805 150 128 117
-0.807819 0.101941 1.01144 125 80 35
-0.807694 0.101249 1.00769 34 27 40
-0.799876 0.0970739 0.967722 38 24 17
-0.797412 0.0983477 0.96987 134 116 113
-0.795427 0.0984589 0.966345 136 49 48
-0.798279 0.104981 1.00373 132 54 36
-0.80565 0.103794 1.00795 43 26 34
-0.804227 0.104815 1.00716 71 4 2
-0.805083 0.104372 1.00624 161 115 106
-0.802614 0.105822 1.00869 170 106 98
-0.767502 0.0527161 0.940733 127 90 56
-0.762016 0.0525815 0.936478 128 76 44
-0.7917 0.0607022 0.947955 141 104 88
-0.787804 0.0624622 0.946993 99 28 24
-0.771338 0.0638543 0.937799 118 88 48
-0.768194 0.0636686 0.930778 76 42 18
-0.768491 0.0861458 0.999222 101 48 36
-0.774844 0.0689176 0.941435 139 102 70
-0.774353 0.0679988 0.938366 162 126 106
-0.783528 0.0674043 0.934781 90 37 28
-0.775658 0.0732336 0.940371 126 92 71
-0.808701 0.0922548 1.01203 90 87 117
-0.807467 0.0927759 1.01238 94 90 96
-0.770915 0.0932144 1.00287 161 143 123
-0.760721 0.0955236 0.998956 44 14 8
-0.764618 0.0770917 0.928379 34 16 8
-0.763752 0.079115 0.92559 97 58 39
-0.781005 0.0795792 0.933478 100 78 67
-0.784787 0.0788493 0.931919 148 123 111
-0.784964 0.0796451 0.933264 29 10 0
-0.785631 0.0796486 0.93267 25 20 14
-0.808966 0.0957627 1.00888 161 132 132
-0.787959 0.0903619 0.961591 128 37 26
-0.787944 0.0856213 0.936261 158 113 100
-0.787391 0.087664 0.939792 131 96 84
-0.78997 0.0945036 0.956306 75 56 44
-0.802009 0.101556 1.00615 101 94 107
-0.804665 0.101102 1.00634 26 18 34
-0.80061 0.0956783 0.972565 92 54 42
-0.786928 0.0998639 0.972627 114 95 88
-0.795338 0.0975607 0.969389 142 129 126
-0.797699 0.0967909 0.966126 85 72 66
-0.797491 0.098451 0.971863 90 80 76
-0.804187 0.103254 1.00634 32 19 30
-0.803445 0.105388 1.00693 144 80 49
-0.769729 0.0536138 0.942709 152 116 78
-0.773031 0.0574571 0.943315 86 78 58
-0.786441 0.061886 0.94764 112 84 74
-0.788745 0.0642801 0.948621 130 90 72
-0.764874 0.0591315 0.929984 116 72 42
-0.766311 0.0604481 0.929621 118 65 33
-0.775362 0.0634415 0.931183 82 70 50
-0.807631 0.0927737 1.01242 130 124 117
-0.767413 0.0934743 1.00259 159 146 126
-0.768309 0.0718322 0.924113 96 76 58
-0.764253 0.0956981 1.00005 158 142 122
-0.758146 0.0764222 0.927741 76 55 28
-0.80754 0.0936589 1.00867 117 31 22
-0.766599 0.079206 0.9282 90 54 36
-0.807531 0.0959368 1.01233 146 46 39
-0.809489 0.0948406 1.00881 161 144 143
-0.810621 0.0960788 1.01153 186 144 140
-0.789121 0.0902845 0.962724 124 54 39
-0.797472 0.0959455 0.966499 140 90 83
-0.797487 0.0958524 0.965999 142 80 80
-0.799403 0.0972621 0.967583 42 25 20
-0.760391 0.0517098 0.935498 163 150 104
-0.775022 0.0579332 0.945177 80 74 54
-0.764844 0.0628891 0.931746 162 156 109
-0.775976 0.0666825 0.931911 94 74 56
-0.775094 0.0729891 0.931215 96 76 58
-0.759598 0.0769008 0.927856 130 106 82
-0.768534 0.0959159 1.00001 122 92 71
-0.774384 0.0797214 0.940859 18 13 7
-0.808737 0.0944544 1.00876 125 18 16
-0.801452 0.0971683 1.00672 74 8 4
-0.787315 0.0901318 0.961251 159 138 115
-0.81158 0.0984495 1.0079 24 16 28
-0.807211 0.100056 1.00795 31 22 36
-0.802551 0.101119 1.00713 62 54 64
-0.780694 0.099573 0.967887 154 134 118
-0.780875 0.0994166 0.967309 154 133 118
-0.798445 0.0952988 0.970358 76 60 47
-0.794277 0.0975347 0.973437 114 86 80
-0.792545 0.0953326 0.958545 84 64 54
-0.79309 0.0959926 0.959884 142 66 60
-0.797821 0.0982625 0.967928 144 88 82
-0.794351 0.106565 1.00241 156 122 98
-0.796408 0.0994063 0.963171 152 32 26
-0.772982 0.0729889 0.936535 49 14 7
-0.776392 0.0685225 0.937275 120 107 76
-0.773123 0.0732604 0.939578 66 40 18
-0.776652 0.0797559 0.941649 34 19 6
-0.768882 0.0703537 0.934422 77 46 34
-0.774504 0.0872902 0.937073 118 34 22
-0.766236 0.0500867 0.939683 143 120 98
-0.775683 0.078552 0.941456 32 16 6
-0.776904 0.0835666 0.943503 148 123 108
-0.746364 0.0218534 0.894565 186 136 113
-0.772349 0.0732722 0.938854 79 54 28
-0.779573 0.0702209 0.922741 62 34 27
-0.785339 0.0910699 0.930756 42 22 16
-0.781036 0.0779408 0.926909 168 142 130
-0.78095 0.0783548 0.92739 160 131 117
-0.778389 0.0879964 0.936174 100 76 72
-0.764088 0.0450888 0.939659 104 88 45
-0.775713 0.0731746 0.920599 178 151 132
-0.776516 0.0844033 0.943972 113 78 54
-0.721032 0.110445 0.987813 140 54 24
-0.741968 0.0210925 0.895901 121 92 53
-0.773977 0.0779326 0.939586 155 124 106
-0.777611 0.0784549 0.928761 48 18 5
-0.672758 0.134654 0.991738 21 16 28
-0.781482 0.0751101 0.927423 117 84 64
-0.726885 0.106883 0.986024 130 30 24
-0.778366 0.0874433 0.93104 135 104 92
-0.734562 0.105773 0.995495 157 142 121
-0.736034 0.0369865 0.903183 144 119 94
-0.716948 0.0314531 0.851061 66 51 44
-0.722529 0.0354205 0.859513 216 197 192
-0.72797 0.0450308 0.888732 143 114 97
-0.712757 0.0321347 0.845607 172 150 144
-0.71772 0.035014 0.854026 73 53 48
-0.775787 0.0673576 0.916985 152 86 61
-0.777011 0.0699934 0.919764 50 23 20
-0.779957 0.0720148 0.921004 174 138 118
-0.721762 0.0952074 0.989249 109 58 34
-0.782796 0.0745278 0.926078 144 109 86
-0.780039 0.0791023 0.942678 88 66 50
-0.790781 0.0762224 0.933841 60 38 20
-0.781771 0.081115 0.945002 186 146 126
-0.792915 0.078503 0.934162 31 18 10
-0.786301 0.085656 0.937945 142 101 84
-0.797812 0.0847527 0.939318 132 100 84
-0.78185 0.0892656 0.939046 118 93 90
-0.739676 0.016135 0.888452 196 150 124
-0.718181 0.0383277 0.873092 104 36 31
-0.716827 0.0346903 0.8533 61 40 34
-0.769512 0.0674582 0.935801 121 82 59
-0.766726 0.0683155 0.931162 134 102 86
-0.68329 0.0855718 0.956075 49 16 2
-0.722657 0.0846046 0.964513 171 124 98
-0.775264 0.0728608 0.921309 79 44 32
-0.775414 0.0778301 0.938026 130 103 86
-0.778847 0.074567 0.924367 142 108 92
-0.785011 0.0749062 0.928778 146 109 86
-0.78156 0.0811951 0.945627 92 54 28
-0.716984 0.100397 0.988105 50 16 8
-0.792932 0.0780591 0.935054 54 33 16
-0.733589 0.119556 0.921108 90 68 70
-0.760745 0.0318957 0.913747 170 116 92
-0.743774 0.0239742 0.895394 146 94 65
-0.738915 0.0380793 0.905913 148 124 100
-0.72795 0.0438532 0.890698 104 70 47
-0.729464 0.0780951 0.996858 149 102 80
-0.745976 0.0806181 0.96268 148 96 74
-0.777375 0.0777217 0.939708 154 124 102
-0.780375 0.078772 0.942492 50 34 20
-0.780473 0.081145 0.94453 92 53 28
-0.780003 0.0775028 0.926769 174 150 138
-0.725026 0.0993741 0.986465 74 26 14
-0.780046 0.0869687 0.942753 136 56 39
-0.733135 0.119342 0.920224 62 34 32
-0.718326 0.0954566 0.988585 92 44 24
-0.718675 0.099112 0.993386 98 59 38
-0.784712 0.08752 0.936565 126 88 74
-0.717755 0.0321578 0.879446 134 89 63
-0.71939 0.0397223 0.875768 30 6 1
-0.773597 0.0627027 0.936231 118 72 35
-0.770155 0.0724385 0.934969 145 110 89
-0.782432 0.0832308 0.949008 142 112 98
-0.729785 0.0937632 0.917335 128 66 50
-0.78966 0.0891954 0.94044 102 54 55
-0.720621 0.122218 0.919358 116 88 80
-0.736503 0.0768015 0.993926 94 64 45
-0.72912 0.0802496 0.999238 115 74 52
-0.743834 0.0733319 0.969031 56 18 6
-0.746179 0.0748376 0.970163 147 98 76
-0.720896 0.0845368 0.964149 171 124 96
-0.73426 0.0857726 0.959227 94 52 38
-0.701167 0.101145 0.990041 130 100 80
-0.725972 0.0408208 0.895288 100 88 72
-0.770255 0.0635163 0.923672 128 102 92
-0.715392 0.101363 0.98845 160 134 114
-0.642279 0.109038 0.971609 63 22 10
-0.791887 0.0905269 0.940029 162 132 128
-0.793205 0.0904311 0.940053 28 11 8
-0.766482 0.0568093 0.938984 107 94 54
-0.781914 0.0848561 0.942085 166 140 133
-0.779462 0.0856358 0.941408 151 66 40
-0.780521 0.087259 0.943339 109 20 16
-0.782209 0.0860627 0.936156 198 174 164
-0.789603 0.089486 0.951093 76 68 56
-0.736042 0.0458094 0.909109 107 82 59
-0.773245 0.0620224 0.938169 150 120 82
-0.772273 0.0615006 0.935837 168 146 106
-0.775633 0.0673826 0.936734 153 135 102
-0.76825 0.0700267 0.934521 103 73 60
-0.775165 0.0772148 0.939553 105 79 48
-0.77775 0.0801096 0.942766 125 100 78
-0.778644 0.0849726 0.934397 168 124 106
-0.71969 0.0388073 0.875847 80 40 32
-0.760812 0.0685832 0.927767 130 100 84
-0.771949 0.0731883 0.93711 68 25 4
-0.770826 0.0738594 0.936174 146 103 77
-0.73751 0.103939 0.90993 88 68 60
-0.720085 0.0351106 0.871697 115 22 17
-0.765044 0.068909 0.930752 161 132 116
-0.778803 0.0851493 0.94056 140 77 53
-0.714175 0.0371866 0.882536 75 60 52
-0.773056 0.0672378 0.939719 122 82 52
-0.790971 0.0880751 0.945762 237 223 218
-0.786209 0.0896649 0.932771 178 128 98
-0.776281 0.0777959 0.939181 158 124 103
-0.782796 0.0746834 0.928375 152 122 104
-0.783811 0.0815296 0.952552 121 100 72
-0.783022 0.0847012 0.92978 89 42 18
-0.785295 0.088604 0.934316 130 90 72
-0.723167 0.0395358 0.87927 50 4 2
-0.749826 0.0788343 0.960291 99 68 38
-0.74863 0.0837378 0.972128 114 68 40
-0.773472 0.0768542 0.938328 89 64 37
-0.777693 0.0739679 0.923849 178 150 132
-0.785761 0.0890875 0.9357 174 144 138
-0.771994 0.0728345 0.938767 134 116 90
-0.774457 0.0773637 0.938227 154 124 100
-0.777376 0.0431992 0.936191 162 140 90
-0.771478 0.0477573 0.920391 152 122 108
-0.775463 0.0484379 0.921145 163 144 138
-0.76307 0.0535143 0.937865 138 116 80
-0.770732 0.0500157 0.917084 218 194 186
-0.772965 0.0513759 0.91825 160 144 139
-0.774155 0.0513957 0.917058 104 86 80
-0.772987 0.0517184 0.916949 227 209 207
-0.774459 0.0520362 0.917575 244 228 225
-0.771742 0.0520792 0.916934 168 152 147
-0.771844 0.0526467 0.917202 100 81 74
-0.773427 0.0536084 0.919119 168 150 143
-0.775593 0.0636372 0.926506 164 68 54
-0.770174 0.0668556 0.934995 169 126 104
-0.77407 0.0676649 0.936151 130 42 28
-0.774636 0.064728 0.921372 180 90 68
-0.779108 0.067769 0.923991 100 58 37
-0.776109 0.0717166 0.938013 117 80 60
-0.783896 0.0709585 0.92396 64 22 4
-0.784519 0.0756461 0.944222 36 22 5
-0.779052 0.0779261 0.946034 108 88 56
-0.776704 0.0777902 0.941194 103 84 50
-0.779677 0.0746566 0.924839 94 56 30
-0.775733 0.0795151 0.942376 29 14 3
-0.784315 0.076692 0.926495 45 27 15
-0.786211 0.0759366 0.924098 154 124 108
-0.78137 0.0783145 0.924505 162 125 104
-0.771445 0.0503041 0.918066 178 154 146
-0.761505 0.0554413 0.934503 96 78 46
-0.771988 0.0514301 0.918678 136 114 106
-0.772648 0.0525983 0.919802 57 40 30
-0.771637 0.0530277 0.92023 118 94 84
-0.772145 0.0532948 0.9171 196 178 170
-0.772803 0.0658536 0.937019 122 64 38
-0.777136 0.0660131 0.934153 86 84 56
-0.774502 0.0713535 0.936206 120 82 62
-0.780082 0.0727789 0.941041 24 14 8
-0.779148 0.0689208 0.922847 38 18 10
-0.78024 0.0735816 0.935975 99 84 64
-0.78024 0.0758647 0.942433 90 64 36
-0.789706 0.0761413 0.949412 150 139 118
-0.782722 0.071155 0.921085 118 87 64
-0.777583 0.0782128 0.94437 138 112 86
-0.778055 0.0782994 0.940391 78 54 41
-0.781204 0.0813443 0.949981 132 110 83
-0.78039 0.079061 0.926113 25 20 16
-0.780964 0.0872199 0.946077 98 74 54
-0.778064 0.0910534 0.931169 118 92 84
-0.779168 0.0423228 0.934358 169 119 92
-0.764297 0.052343 0.938472 103 76 50
-0.761077 0.0487063 0.925657 152 105 76
-0.772461 0.0469048 0.918536 244 229 226
-0.771473 0.05094 0.917337 91 70 62
-0.773098 0.0527405 0.920451 54 36 27
-0.770313 0.0527619 0.915679 101 80 70
-0.777864 0.0653146 0.934951 71 73 53
-0.773274 0.0628489 0.923148 176 102 78
-0.777553 0.0653699 0.932674 126 110 95
-0.770795 0.0670195 0.935739 154 107 88
-0.7817 0.0732138 0.941333 130 124 102
-0.784309 0.0746958 0.943724 68 56 34
-0.775259 0.0729719 0.926253 102 48 20
-0.777021 0.0778271 0.944059 111 94 62
-0.778633 0.0726766 0.921871 100 63 56
-0.777419 0.0831107 0.94448 144 112 88
-0.783308 0.0859019 0.951048 106 92 69
-0.787079 0.0843586 0.920938 151 80 58
-0.755659 0.047027 0.927294 128 97 70
-0.772998 0.0526958 0.92057 52 32 22
-0.773015 0.0529286 0.917853 100 85 81
-0.769307 0.0534986 0.919163 109 82 70
-0.773266 0.0537255 0.918533 176 157 150
-0.775847 0.0637185 0.931251 138 118 104
-0.773489 0.0628227 0.923566 175 101 76
-0.769715 0.0629309 0.918973 148 50 32
-0.774301 0.0667569 0.924675 115 92 81
-0.769783 0.0721848 0.932243 54 20 10
-0.782871 0.0741603 0.944328 142 125 102
-0.779703 0.0719502 0.921144 56 27 18
-0.774811 0.0771305 0.939438 69 46 16
-0.7773 0.0724552 0.920173 98 64 60
-0.772805 0.0777925 0.93928 164 138 114
-0.775676 0.0778086 0.939492 155 126 96
-0.777581 0.0794652 0.942633 32 17 4
-0.776238 0.0786825 0.92962 49 32 24
-0.779076 0.0826943 0.947039 150 126 99
-0.773705 0.0778841 0.918038 170 146 131
-0.776655 0.0787981 0.921426 24 16 13
-0.779582 0.087171 0.944633 107 82 62
-0.76018 0.0497491 0.933893 97 70 40
-0.765514 0.0464313 0.920738 130 86 58
-0.76346 0.0563078 0.935629 102 74 42
-0.771395 0.0541498 0.920087 84 62 52
-0.776823 0.0675434 0.943061 165 156 110
-0.766957 0.0670232 0.934891 141 119 76
-0.777157 0.0735636 0.923023 186 156 139
-0.780181 0.0779024 0.925735 175 152 140
-0.781293 0.0811005 0.931602 104 70 49
-0.775196 0.0890534 0.932354 128 102 100
-0.764477 0.0494507 0.939766 138 103 77
-0.765138 0.05082 0.941121 104 66 29
-0.777272 0.0629793 0.941885 90 31 5
-0.780365 0.0663399 0.943184 118 86 54
-0.769487 0.0678148 0.932075 86 48 30
-0.781271 0.0748119 0.941499 42 24 3
-0.780508 0.0739824 0.92371 112 70 52
-0.764321 0.0566654 0.923347 98 60 33
-0.767021 0.0670881 0.934492 102 64 36
-0.779127 0.0774564 0.944295 121 94 70
-0.783349 0.0789341 0.943035 78 55 30
-0.774208 0.076305 0.922996 182 143 118
-0.776811 0.0798333 0.930152 18 10 9
-0.773027 0.0856954 0.934746 154 84 64
-0.760524 0.0467359 0.928234 158 137 116
-0.776935 0.0776646 0.943492 160 132 104
