ply
format ascii 1.0
element vertex 1988
property float x
property float y
property float z
property uchar red
property uchar green
property uchar blue
end_header
-0.0177641 0.00111309 0.00391863 0 255 0
-0.0176047 0.00397771 0.00228913 0 255 0
-0.0135649 0.00433487 0.000934584 0 255 0
-0.012903 0.00449468 -0.000988287 0 255 0
-0.0316057 -0.00262376 0.00583176 0 255 0
0.00213131 0.00769354 -0.00436406 0 255 0
-0.0168108 0.00403722 -0.00636998 0 255 0
-0.0174539 0.00596402 -0.00492871 0 255 0
-0.0221506 0.000238646 -0.00269563 0 255 0
-0.0220523 0.000305758 -0.00281582 0 255 0
-0.0221518 0.000463841 -0.0022607 0 255 0
-0.0185091 0.000807761 -0.00204807 0 255 0
-0.00909504 0.00532689 -0.00031583 0 255 0
-0.00605237 0.00467686 -0.00172381 0 255 0
-0.00920511 0.00800212 -0.00255929 0 255 0
-0.00727005 0.00860475 0.063151 114 92 82
0.0112234 -0.00225295 0.0855695 80 78 39
-0.000153366 0.0112106 0.0721093 212 177 166
-0.013518 -0.000264614 0.0781414 96 96 73
-0.0206591 -0.00180428 0.0787137 193 144 112
-0.0121077 0.0219247 0.084443 116 67 60
-0.0116963 0.0238641 0.0871051 108 60 52
0.000732595 0.0158405 0.0794518 116 80 77
-0.0154555 -0.00267104 0.0900091 95 96 74
-0.0158657 0.00834368 0.0662589 164 116 94
-0.0180044 0.0180872 0.089444 121 68 49
0.00462959 0.0119462 0.0803871 98 90 72
0.00234543 0.0106424 0.0726494 80 80 52
-0.0105838 0.00103401 0.0768138 47 39 22
-0.00328576 0.0162236 0.075588 129 91 89
-0.0188602 0.00561492 0.0703454 195 150 120
-0.0300171 -0.00863838 0.086355 210 210 157
-0.00198661 0.00776922 0.067603 70 70 46
0.00939544 -0.00139902 0.0817319 81 84 48
0.00645879 0.00322665 0.085051 104 81 50
-0.012993 0.0124258 0.0665891 97 60 54
-0.0196139 0.00429007 0.0492561 126 126 114
-0.00337869 0.0150609 0.0750103 136 98 95
0.00941433 8.61401e-05 0.0812426 220 231 191
-0.017467 0.0186581 0.0876398 92 44 28
-0.0126295 -0.00143059 0.091347 106 99 76
-0.000853897 0.00889182 0.0646172 68 68 42
-0.0148342 0.00528436 0.0707659 32 19 12
-0.00302059 -0.0122112 0.0769009 130 139 98
0.00934863 0.000919932 0.0794157 221 233 190
-0.0106607 -0.00136474 0.0931668 55 26 16
-0.00856635 -0.00477442 0.0671354 173 168 120
0.00401228 0.00626837 0.0779402 46 22 12
-0.00373435 0.0101468 0.0654933 204 170 156
9.06038e-05 0.00969546 0.0640771 72 72 45
-0.00334015 0.0112629 0.066578 177 144 138
-0.00750821 0.0115158 0.0645666 116 122 99
-0.00274586 0.0161852 0.0752608 141 100 98
-0.00972134 0.00419281 0.059242 102 114 72
-0.0150967 0.0166479 0.0820141 111 65 50
-0.00622882 0.00623142 0.0672963 94 93 74
-0.0133539 0.0256978 0.093879 99 50 39
-0.0119968 -0.00309957 0.0731401 124 126 100
-0.00551916 0.00816286 0.0617251 122 80 62
-0.0115417 -0.00382793 0.0726399 113 116 85
-0.0024706 0.0219026 0.0860432 140 94 93
-0.00433465 -0.00770765 0.071022 163 168 117
-0.0208394 -0.00532949 0.0811403 117 102 74
-0.0201116 0.0092406 0.0868131 130 90 70
-0.0109657 -4.83248e-06 0.0869795 95 68 52
-0.0189355 0.0133349 0.085626 132 85 66
0.0055414 0.00266787 0.0835427 88 75 48
-0.012078 0.0197427 0.0814544 131 102 97
-0.0195772 -0.00165462 0.0941115 155 118 90
-0.0175876 -0.00119673 0.0895939 207 200 168
-0.017872 -0.00572924 0.0869373 161 164 128
-0.0131967 0.0117013 0.0681672 84 46 38
-0.021684 -0.0064548 0.0811995 98 96 68
-0.012256 0.0203533 0.0781496 118 66 60
-0.0124128 -0.00364993 0.0710029 110 112 83
-0.00697122 0.0146501 0.0672513 118 110 99
-0.0103069 -0.00524522 0.0889727 108 110 80
-0.0123614 0.0202841 0.0819179 124 71 63
-0.0197678 0.00744958 0.0908873 194 144 113
0.00139217 0.00832484 0.0671854 85 84 60
-0.00214507 0.00770985 0.0701245 52 54 34
-0.00931584 0.00390043 0.058881 97 110 68
-0.00974448 -0.00200217 0.0768718 126 128 98
-0.0155227 0.014119 0.0751456 88 54 41
-0.0167244 0.0193571 0.0864338 100 54 41
-0.0141803 -0.00129541 0.0835443 106 102 81
-0.0113389 0.00562826 0.0939032 30 22 14
-0.00777384 -0.00652166 0.0752369 165 162 108
-0.00381261 0.00625053 0.0706624 76 78 59
-0.00800688 0.00055252 0.084748 91 94 70
-0.0185104 0.0175846 0.0944811 110 64 41
-0.0180861 -0.00505632 0.10099 96 96 74
9.01556e-05 0.00939838 0.0665138 70 72 46
-0.0153763 0.012756 0.0733732 112 67 53
-0.0146505 0.0105576 0.0685645 101 56 42
-0.0128405 0.0188313 0.0776808 106 62 52
-0.0183198 0.0108269 0.0817663 115 79 60
-0.019049 -0.00247683 0.0842429 130 92 60
-0.00972525 0.00107114 0.078444 63 68 40
-0.00675535 0.011735 0.0685395 124 123 102
-0.0133846 0.0115787 0.0685141 82 42 32
-0.00443538 -0.0103072 0.0750889 222 230 184
-0.00886548 0.000178451 0.0577053 150 154 106
-0.00926323 0.0102914 0.0768441 196 158 145
-0.00717687 -0.00753664 0.078927 168 164 110
0.00835642 -0.00286874 0.0814053 222 230 191
-0.00696209 0.0115822 0.0649223 96 63 58
-0.00523569 -0.00582844 0.0709083 166 164 118
-0.00674629 -0.00412506 0.075821 170 166 122
0.000294453 -0.00334111 0.0360278 212 213 180
-0.0204521 -0.00116742 0.0914887 163 126 99
-0.0177736 0.0136489 0.0767821 116 75 56
-0.000606672 0.00870535 0.0651192 76 76 52
-0.00168626 -0.0124817 0.0768695 140 150 94
0.0160401 -0.0119713 0.0642052 124 120 82
-0.01145 0.00720011 0.0646276 70 40 33
-0.012588 -0.00266878 0.0718323 122 116 88
-0.016833 0.0171629 0.0881581 110 62 42
0.00178257 -0.00236818 0.0344394 218 222 181
-0.0197806 0.00895845 0.084143 129 86 66
-0.0184981 -0.00431061 0.0790925 98 99 74
-0.0133342 0.00930574 0.0719981 187 146 124
-0.00739323 -0.00648668 0.0743555 170 167 121
-0.0132159 0.00505745 0.0770656 31 24 17
-0.00763848 -0.00414045 0.078623 142 141 89
-0.0275193 -0.00984612 0.0892333 126 125 86
-0.00206405 0.0156679 0.0745962 126 91 90
-0.0077584 -0.00743926 0.0737919 165 162 109
0.00365513 0.00769664 0.0742135 116 89 72
0.000643716 -0.00299384 0.0351539 218 222 182
-0.0202966 0.00401773 0.0471958 89 98 72
-0.0161876 0.0189115 0.0844776 94 46 36
-0.00310687 -0.00379887 0.0811178 70 80 48
-0.0118169 0.0121684 0.0687069 98 58 52
0.00213817 -0.0021653 0.0341763 218 223 184
-0.0115525 0.00954361 0.0462241 93 104 74
-0.00618321 -0.00138741 0.068473 146 154 105
-0.0125459 0.0103217 0.0670365 88 52 46
-0.0116735 0.00981033 0.043991 103 114 85
-0.0129768 0.0106511 0.0691137 89 50 40
-0.0162187 0.0237664 0.0953613 98 50 41
-0.00299129 0.0182474 0.0782055 136 92 88
-0.0147349 0.0121056 0.0726502 108 68 54
-0.00756348 -0.00272362 0.0698282 160 157 112
0.000677439 0.0143212 0.0778807 144 114 114
-0.017921 0.0192034 0.0875348 140 86 62
-0.0106296 -0.00467672 0.0730701 102 106 68
-0.0123066 0.00710922 0.0676619 90 52 38
0.000198942 0.00829618 0.0677579 80 82 58
0.000727729 0.0243646 0.0950731 128 92 92
-0.00966998 -0.000637853 0.0606866 149 152 110
-0.0115501 0.0135441 0.0693464 52 26 21
0.010167 -0.0252429 0.0875522 119 124 88
-0.0186765 0.0165832 0.0916725 112 68 46
-0.0138513 0.00178737 0.0649975 122 122 104
-0.0128195 0.0105388 0.0669787 104 66 56
-0.0193666 0.00358554 0.0494281 106 109 86
-0.00118938 -0.0122335 0.0768016 144 152 101
-0.00291123 -0.0129534 0.0800291 214 220 180
-0.00417385 0.0178574 0.0755479 141 106 104
0.00132 -0.00240617 0.0341102 218 223 184
0.00783472 -0.000174523 0.0775858 206 212 176
0.0105089 -0.00291881 0.0868212 153 153 114
-0.0146148 0.014213 0.0734507 122 78 64
-0.00935923 0.00154771 0.0592006 128 136 92
-0.0147906 0.0198235 0.0854513 101 50 36
-0.00778955 -0.00540774 0.0705572 172 166 121
-0.0111575 -0.00599454 0.0690721 225 232 191
-0.00292263 0.0153781 0.0733405 138 100 98
-0.00324775 -0.00328084 0.0770204 92 101 70
-0.0111408 0.0102378 0.045753 142 148 132
0.00354086 0.012564 0.0598064 92 92 69
-0.0108463 0.00907492 0.0639021 193 154 136
-0.0189937 0.0096198 0.0821295 128 87 68
-0.006488 -0.00548288 0.0864763 149 146 100
0.00706996 0.000995875 0.074759 222 232 190
-0.0117535 0.016317 0.0741625 106 64 56
0.000684313 0.00628397 0.0744314 46 23 16
-0.00849469 -0.00527878 0.0789734 124 126 78
-0.0100447 0.00237855 0.0550499 112 124 80
-0.0184096 0.00697687 0.0706744 206 163 132
0.00187122 -0.00220506 0.0341768 218 222 183
0.00233209 0.0100919 0.062799 75 80 50
-0.0100633 -0.000236839 0.0624799 147 146 112
-0.0108695 0.013157 0.0687757 104 62 58
-0.00230913 -0.0138872 0.0788138 151 160 116
-0.0111842 0.012307 0.0684578 105 65 62
-0.0162991 0.0145774 0.0771376 96 58 44
-0.000200551 0.00553504 0.0709976 50 28 18
0.00127418 0.00958737 0.0634801 78 80 52
-0.0111079 0.0117202 0.0694299 103 58 54
-0.0111277 0.00165694 0.0736439 118 118 104
-0.0143236 0.0143253 0.0750758 134 92 78
-0.0113119 -0.00605867 0.0767469 116 118 82
-0.0179316 0.00267644 0.0505483 122 126 102
0.0108329 -0.000653333 0.0881456 80 84 45
-0.00213748 0.00600259 0.0682291 94 88 66
-0.0184931 0.0102954 0.079677 116 80 58
-0.00923427 -0.00370595 0.0729955 107 110 60
-0.0083756 -0.0100065 0.0750628 158 157 102
-0.0125734 0.00807268 0.0644521 168 145 130
-0.00599256 0.00996856 0.0633569 232 205 202
0.00223927 -0.016178 0.0832902 133 142 94
0.00409495 0.000641204 0.0908275 92 73 46
-0.00716296 0.00927874 0.0623258 160 123 110
0.00143491 0.00675008 0.0721148 36 20 10
0.00107765 0.00870569 0.0656404 85 88 62
0.00425204 0.0129015 0.0622519 91 90 68
0.00139535 0.0190613 0.0876838 165 131 130
-0.00759878 -0.00424694 0.0701041 173 169 129
0.0157961 -0.0118735 0.0644199 124 121 88
0.00975667 -0.025203 0.0835575 212 214 172
0.00280541 -0.0169794 0.0821394 122 135 90
-0.00143257 -0.0110364 0.0753464 157 160 105
-0.00690872 -0.00288906 0.0701031 152 150 100
-0.0107262 -0.00794281 0.0734306 228 234 192
-0.00981197 -0.00530982 0.0750437 223 230 189
-0.0016086 -0.00296429 0.0530957 132 132 127
-0.0122502 0.00857831 0.0453674 96 90 62
-0.0104779 -0.0139265 0.0734605 126 140 95
-0.0112577 -0.0125513 0.0634415 132 144 96
-0.00723745 -0.00530463 0.072926 160 161 115
-0.0131374 -0.0174062 0.0805276 225 228 182
-0.0127967 -0.00651307 0.0735402 146 144 114
0.000624276 -0.0141534 0.0768208 140 154 102
-0.00226124 -0.00331052 0.0800977 116 121 86
-0.0226797 -0.0149041 0.0641217 124 124 94
-0.0267001 -0.0218845 0.0809732 222 222 173
-0.000936701 -0.00459173 0.0818061 120 130 99
-0.013285 -0.0275327 0.0973124 123 130 93
0.00159854 0.00139616 0.0977663 88 60 50
-0.0179131 0.0215717 0.0958385 134 84 63
-0.00720428 -0.00415957 0.0732263 174 170 129
0.00176356 -0.00264144 0.0352484 220 223 184
-0.00283678 0.0025274 0.0806616 84 62 38
-0.00773215 -0.00066659 0.0625156 141 146 93
-0.0131542 0.0235602 0.0859709 96 46 40
-0.00234286 0.00594879 0.0707642 90 89 64
-0.00961316 -0.00944286 0.0745399 140 147 102
-0.00786122 -0.0101334 0.077978 158 158 105
-0.0128818 0.0164555 0.0703322 112 73 65
-0.0275563 -0.0218231 0.0652522 172 170 134
-0.00608225 -0.00328823 0.070659 161 157 116
-0.000955015 0.0125942 0.0723008 129 92 89
-0.0126054 0.00807098 0.0436153 106 68 55
-0.00679051 -0.00588359 0.0717378 154 160 109
-0.0004197 -0.0127707 0.0758995 146 152 96
-0.00762142 -0.00829561 0.0760763 165 163 106
-0.012036 0.00855862 0.0447466 84 96 64
-0.00473644 0.0136706 0.0718688 113 74 71
-0.0110831 -0.0174444 0.0816514 118 132 86
-0.0119474 -0.0171189 0.0783074 115 130 84
0.00375644 0.0119296 0.0628742 86 89 62
-0.0143532 0.0107142 0.0668995 98 54 38
0.00168301 0.011207 0.0706933 170 142 140
-0.0125201 0.00955278 0.044775 102 80 62
0.00166817 0.0114573 0.0626571 177 174 158
0.00256819 0.0140989 0.0575694 214 208 198
-0.0100948 -0.00995182 0.0692427 138 144 104
0.0112798 -0.0108441 0.0711947 197 197 159
-0.0126944 0.013232 0.067198 91 58 52
-0.00620221 -0.0035193 0.0814568 156 154 109
0.000997878 0.00110261 0.0945545 112 88 77
-0.00107517 -0.0119606 0.0797654 144 154 102
0.0100034 -0.00315404 0.0991973 218 231 192
-0.0098312 0.00116742 0.0551676 136 142 102
-0.0168001 -0.00995566 0.0711649 123 124 103
-0.0131997 -0.00747417 0.0735448 131 133 104
-0.0104797 0.00325578 0.0535988 104 116 72
0.00162792 -0.0160534 0.0804823 130 141 92
-0.00918013 -0.0023418 0.069276 126 122 72
0.00289516 -0.0165498 0.0824841 128 138 96
-0.0050718 0.0110218 0.0659771 197 164 160
-0.0110626 -0.0116577 0.0758852 140 148 104
-0.00624936 -0.00424972 0.070654 164 160 114
0.00200069 -0.0157574 0.0805169 132 145 100
-0.0217354 -0.016734 0.0688175 124 126 104
0.00347191 0.0112892 0.0646261 86 90 62
0.00215681 0.00604623 0.075798 40 18 8
-0.00837544 -0.00799754 0.0714796 162 162 108
-0.00960276 -0.00387646 0.0718974 112 116 67
-0.0111439 0.00903767 0.0640223 193 153 134
-0.0216837 -0.0132928 0.0640203 180 178 145
0.00581928 0.00677316 0.088454 40 18 8
0.00195821 0.0107732 0.0633365 74 78 48
-0.0139779 -0.00592273 0.0730747 116 119 91
-0.0197562 0.0150126 0.0888274 94 56 36
-0.0112462 0.00943634 0.0460653 99 110 81
-0.00619781 -0.00517167 0.071916 174 170 126
0.00400029 -0.018629 0.0832208 122 138 93
-0.00889107 -0.00605555 0.0762147 128 132 81
-0.000975122 -0.0116524 0.0771794 158 162 106
-0.0116473 0.00904461 0.045982 88 100 70
-0.0115767 0.00787053 0.0488781 85 94 60
-0.0264909 -0.00785641 0.0791516 214 215 168
-0.00219871 0.0163851 0.0767147 138 99 96
-0.00554733 -0.00649736 0.0660987 166 168 119
0.0166827 -0.0127509 0.0603221 220 222 178
0.0100256 -0.00237976 0.0997401 217 230 188
-0.0106745 -0.00773327 0.0735752 228 234 192
-0.0111447 -0.00882876 0.0707439 222 226 182
0.00399887 0.0125593 0.063824 88 92 66
0.00186729 0.0157915 0.0826803 130 95 92
-0.0101021 -0.00507577 0.064265 140 144 96
-0.0248271 -0.00759066 0.0800917 162 162 124
-0.0259544 -0.0192492 0.0623275 149 144 113
-0.0112939 0.00917574 0.0472617 91 101 74
-0.0264045 -0.0216555 0.0709771 114 116 90
-0.00942953 -0.00992926 0.0689324 152 152 98
-0.00873185 -0.0114448 0.0800916 138 145 98
-0.0128898 -0.00698232 0.0727272 123 123 92
-0.00741783 0.000990526 0.0815062 140 141 108
-0.0168406 -0.0077358 0.0695251 133 131 106
-0.0165701 -0.00636638 0.0949834 222 230 185
-0.00639566 -0.00544791 0.0698162 176 172 128
-0.0097522 -0.00581675 0.0795761 168 172 128
0.00669977 -0.0208531 0.0762404 133 138 98
-0.0100243 -0.0058461 0.062041 158 156 104
-0.00338495 -0.00446794 0.0807867 172 171 146
-0.001578 0.0216075 0.0884551 140 98 97
-0.00340047 -0.0129945 0.0813528 218 226 183
-0.0117755 -0.0156945 0.0837767 225 228 184
0.00165227 0.0109901 0.0653195 130 128 106
-0.0249809 -0.00732292 0.0815403 213 216 171
-0.0268184 -0.00868968 0.0851696 214 214 169
-0.0126467 -0.0179609 0.082091 132 141 98
0.00115915 0.0109417 0.0610449 92 91 64
-0.00103935 0.0119874 0.071468 177 144 136
-0.000641936 -0.012133 0.0782798 154 160 103
0.00331084 0.0136506 0.0590332 90 92 70
0.000881085 0.0106883 0.061463 74 76 50
-0.00627866 -0.00489461 0.0695495 172 168 122
-0.00369636 -0.00219666 0.0509492 113 114 103
-0.0139076 0.0102283 0.06609 108 64 48
-0.0193022 0.0119677 0.085179 129 82 64
-0.00819132 -0.0107556 0.077634 156 154 98
-0.0104972 -0.0145047 0.0865272 182 187 140
-0.010827 -0.00493391 0.058378 148 150 104
0.0104256 -0.00292794 0.100662 218 230 191
-0.00920097 -0.00583649 0.0765577 176 180 140
-0.0138412 -0.00825169 0.0733921 130 132 103
0.00202639 0.0116326 0.0610297 96 98 76
-0.0118559 0.00847851 0.0478497 96 94 64
-0.0252696 -0.0138734 0.0439604 218 216 168
-0.0110592 0.011584 0.0679794 106 60 56
-0.0109904 -0.00947572 0.0752637 228 232 188
-0.0119663 -0.00937157 0.0686315 228 231 188
0.000959667 -0.00311409 0.0370347 220 224 184
-0.0100052 -0.00825155 0.0757449 176 179 137
-0.00815757 -0.00795863 0.0864832 134 136 92
0.00562227 -0.00166225 0.0925887 218 232 190
-0.000412123 -0.012118 0.0764637 159 165 114
-0.0156321 -0.0310839 0.0989482 133 134 99
-0.00910597 -0.00990406 0.0755673 145 149 100
-0.010133 -0.00887933 0.0777533 228 234 190
-0.0179822 -0.00942893 0.0711592 178 176 145
-0.00989203 -0.0109255 0.0792634 129 138 93
-0.0116917 0.00857833 0.0470642 86 98 64
-0.0166065 -0.00640027 0.0643263 130 129 104
-0.0101704 0.00151343 0.0569078 117 127 78
-0.0185097 -0.0109016 0.068921 130 128 104
-0.0193728 -0.0140062 0.0694806 124 126 104
-0.00154053 0.0256195 0.091724 111 70 68
-0.0103886 -0.00887588 0.0754361 196 203 157
-0.0106571 -0.00611269 0.0706708 225 234 192
-0.021266 -0.0132466 0.0652889 142 138 106
-0.0118538 -0.014293 0.0781459 136 144 99
-0.0162137 -0.0107549 0.0717389 125 124 102
-0.0204795 0.0112163 0.0878543 126 82 60
0.00403192 0.0141465 0.0646121 229 222 214
0.00215822 0.0114395 0.0598148 85 89 63
-0.0100642 -0.0100654 0.0742516 135 143 101
-0.016256 -0.00636011 0.0699139 192 194 158
-0.0206461 -0.0121643 0.064816 168 167 136
0.00310864 0.012521 0.0642092 164 159 144
-0.01596 -0.00663271 0.0719785 170 170 140
-0.034143 -0.00965297 0.097239 208 206 148
-0.00931791 -0.00907449 0.0763912 139 148 102
-0.000849112 -0.00354141 0.0418465 120 118 108
-0.0202291 0.0114339 0.0832971 135 93 70
-0.00907993 -0.00971006 0.0826345 146 148 104
-0.020759 0.011069 0.0644488 202 196 170
-0.0113438 -0.0134674 0.0815495 230 233 189
-0.016315 -0.0330623 0.106186 220 222 174
-0.0117044 -0.0093159 0.0685474 230 232 190
-0.0168115 -0.00632519 0.0644886 186 188 151
-0.0197415 -0.0117507 0.0687548 158 156 126
-0.0191703 -0.0140406 0.0701783 120 122 102
-0.0214959 0.0172697 0.0871466 198 188 163
-0.0100981 -0.0124405 0.0562389 217 224 179
-0.0242063 -0.00995877 0.0781173 216 219 172
0.00218457 -0.0091899 0.0763911 217 228 187
0.0317508 -0.0017022 0.111799 227 234 193
-0.0221896 0.0250882 0.0908103 204 194 192
0.00791582 -0.012153 0.0486773 222 224 178
0.0041223 0.0173792 0.0619825 203 196 189
0.00469229 0.017015 0.0607014 202 194 188
-0.000381941 0.00989592 0.0674561 105 92 76
0.00345679 0.0171 0.0636179 203 196 189
-0.0187208 -0.00344611 0.0911509 195 200 153
0.0103933 -0.00270506 0.085562 64 67 34
0.00248625 0.0168797 0.0600346 202 194 189
0.00191781 0.011621 0.0759979 140 114 111
-0.0146827 0.0134432 0.0389652 158 142 134
0.0066398 0.00330264 0.0778955 188 198 157
-0.019077 0.0134188 0.0889425 110 68 46
-0.00984933 0.00600426 0.0519974 88 102 62
0.00193806 0.0122597 0.076175 152 126 123
0.0049785 0.00526664 0.0818507 46 20 12
0.00416022 0.0159747 0.0608603 203 196 190
-0.0245192 0.0103094 0.0396449 196 186 179
0.00178179 0.000751568 0.0867377 54 24 13
0.00527063 -0.0311398 0.0956189 72 80 38
-0.0100354 -0.0041253 0.0732675 72 80 38
0.00595377 0.0128339 0.0827671 49 57 30
-0.00911998 -0.00310088 0.0718372 116 115 66
-0.0169542 0.0190759 0.087338 100 60 50
-0.0171701 0.016624 0.0864607 91 46 33
-0.0163704 0.0104176 0.0704433 82 43 32
-0.0184573 0.0126612 0.0840988 118 78 56
0.00224863 0.0151926 0.0827951 82 56 52
0.00484632 0.00106416 0.0854808 52 52 29
-0.012123 -0.00797492 0.131359 132 131 98
-0.0119426 -0.00564316 0.11912 157 142 106
0.00451127 0.00448672 0.0827371 43 18 11
-0.0170145 0.00920834 0.0725763 44 15 6
-0.0106701 -0.00311075 0.0737527 82 87 48
-0.018878 -0.00281652 0.0946223 132 104 68
0.00878085 -0.000791204 0.0871576 54 62 30
-0.0194305 0.00926638 0.0854163 105 65 45
-0.00690262 -0.00491507 0.0741646 122 124 74
0.00582771 0.00098328 0.085502 42 44 24
-0.0136348 0.00964694 0.0665146 78 36 24
-0.0163224 0.0162061 0.0788107 81 37 27
-0.0108191 -0.00353764 0.0756683 80 85 49
-0.0189643 0.00810484 0.0789674 113 70 52
-0.0116485 0.00105985 0.0733164 74 71 50
0.00338128 0.0152309 0.0590134 204 196 190
-0.0198566 0.0119592 0.0880079 109 64 42
-0.0193426 0.00785325 0.0818703 129 85 62
-0.0119968 0.00404549 0.0602306 32 30 19
-0.0167927 0.0117362 0.0731655 43 12 4
-0.0129455 -0.00240307 0.0961013 84 68 43
0.00285704 0.0103598 0.0739537 54 59 34
-0.0184072 0.0171329 0.088195 90 42 23
0.00230878 0.00771361 0.0725546 62 51 40
-0.0190289 0.0160791 0.0901891 96 52 33
-0.0139817 0.00878939 0.0676799 174 126 100
-0.0149587 0.0124443 0.0690889 106 66 51
0.000827696 -0.00383709 0.0383902 110 104 87
0.00438434 0.0055012 0.0829425 40 18 11
0.00161009 -0.00444372 0.0439637 86 84 69
-0.0169708 0.0135079 0.0776574 110 72 58
-0.0175372 -0.00562832 0.0909076 104 106 71
-0.0150075 0.0159759 0.0780589 100 56 40
-0.0202177 0.0106984 0.0902121 110 74 52
0.000349879 0.0131505 0.0756821 96 68 63
-0.0178823 -0.00522642 0.0910434 77 81 54
-0.0178491 0.00812819 0.0718061 96 56 41
-0.0143582 0.0113558 0.0700515 80 38 26
0.00457895 0.0167082 0.0613089 202 196 188
-0.0137667 0.00763987 0.0625186 152 108 79
-0.0148739 0.0149924 0.0763424 96 52 36
-0.0144377 0.0128658 0.0722575 48 16 10
0.00722723 8.87808e-05 0.0861054 55 61 32
-0.0169637 0.0151473 0.0832015 84 43 28
0.00104544 -0.00394778 0.0382636 92 94 73
0.00310889 0.00465691 0.082514 35 16 8
-0.0132455 0.00876547 0.0649709 180 138 113
-0.0123053 -0.0016151 0.090817 50 20 8
-0.0115586 0.0056126 0.0496125 78 80 45
-0.0105999 -0.00167134 0.099568 40 16 10
-0.0243325 -0.0088999 0.0842301 90 92 59
-0.024325 0.00960839 0.0391128 147 143 134
-0.019413 0.0106894 0.0845048 118 80 58
-0.0195149 -0.00654211 0.0850346 89 90 56
0.00279206 0.0138767 0.0600047 204 197 190
-0.0179537 0.0114916 0.0807498 98 58 40
-0.0238548 -0.0171608 0.0668391 122 117 94
0.00293864 0.0116975 0.0788361 134 108 104
-0.014148 0.00300084 0.0605198 80 84 75
-0.0114095 -0.00304069 0.0938288 82 60 35
-0.0159891 0.0107991 0.0718417 88 46 35
-0.0165362 0.013607 0.0758799 103 62 49
-0.0181639 0.0137994 0.0847897 100 61 39
-0.00816118 -0.00335623 0.0676222 154 148 108
-0.0102679 -0.00229106 0.069899 96 97 56
-0.0182922 0.0150641 0.0854091 96 54 32
-0.00934759 -0.00500084 0.0747026 130 134 90
0.0018066 0.00811842 0.0731187 58 60 36
-0.0117508 0.0110924 0.0430818 52 56 34
-0.0176939 0.00882729 0.0743631 100 60 46
-0.0187864 -0.00629811 0.087677 99 100 66
-0.0166311 -0.0049458 0.110018 74 78 56
0.00849082 -0.000953843 0.0891132 55 56 29
-0.012427 0.00443095 0.0574226 18 12 8
0.00515789 0.007707 0.0770094 146 104 75
0.00250941 0.0123679 0.0595385 66 71 50
-0.0181031 -0.0100091 0.0664909 92 92 70
-0.00836143 -0.00290948 0.0667027 150 146 102
-0.0189602 -0.0111205 0.0647501 88 88 67
-0.0191664 -0.00491912 0.0899539 80 79 54
-0.0132843 0.00938026 0.0643221 147 106 84
-0.00339035 0.00365512 0.0787803 52 42 26
-0.01523 0.00946564 0.0666674 82 40 27
0.00380284 0.012693 0.0677218 59 64 40
-0.000690439 0.0280736 0.0985123 91 52 50
-0.0105431 -0.00769158 0.0779778 203 210 166
-0.0226659 -0.00833626 0.084944 100 100 66
-0.00272419 0.0030089 0.0828094 62 44 29
0.00729852 0.000146556 0.091356 46 48 26
-0.00949466 -0.00455819 0.0734216 196 198 156
-0.0102164 0.00103098 0.0569922 102 112 62
0.00479305 -0.000841887 0.0792527 164 164 124
-0.0224628 -0.0150508 0.0677575 90 90 66
0.0038698 -0.0181422 0.0794482 94 106 58
-0.00878786 -0.00283166 0.0666227 133 130 84
-0.0146375 0.00944659 0.0674772 96 49 38
-0.0113596 0.00757692 0.0474957 72 85 54
-0.0211714 0.00433726 0.0453044 75 82 54
0.00348502 0.0134254 0.0619964 71 74 54
-0.0171166 -0.00792741 0.0684004 110 106 85
-0.0195985 -0.0126137 0.0684788 90 90 68
-0.0178782 -0.0348649 0.110341 198 199 150
-0.0123046 0.00913474 0.0438153 72 82 50
0.00354849 0.0117087 0.0659031 58 64 42
-0.0149353 -0.00875764 0.0695036 96 97 74
-0.030244 -0.025644 0.0754299 195 193 142
-0.0175643 -0.00832763 0.067011 107 104 82
0.00391245 -0.0257362 0.095511 76 83 46
-0.0231937 -0.00885153 0.080633 194 196 148
0.00346181 -0.026598 0.0948932 200 202 156
-0.017895 -0.0119796 0.0673205 109 108 86
-0.0156533 -0.00740956 0.0711827 96 98 74
-0.0152637 -0.00996939 0.0719676 102 104 74
0.0025319 -0.0150021 0.077525 198 204 158
0.00344278 -0.0263489 0.0950351 190 193 148
-0.00895162 -0.01243 0.0693438 201 206 160
-0.015517 -0.0321011 0.105606 106 109 78
-0.0196961 -0.015326 0.0736015 94 96 76
-0.0173978 -0.0123451 0.0712228 100 102 77
-0.0178584 -0.0401361 0.107684 200 198 150
-0.00513094 -0.0555668 0.181438 192 198 150
-0.0217004 -0.00896734 0.0781272 196 198 150
-0.0313348 -0.0595951 0.162006 198 196 142
-0.0355483 -0.0242031 0.0665313 195 192 142
0.00391732 0.0248204 0.069174 196 187 185
0.00117966 -0.0522344 0.18003 192 199 151
0.00716075 0.0145673 0.0617897 206 198 190
0.0060337 -0.0142922 0.063683 202 206 157
-0.0273956 -0.0331061 0.0815171 200 198 146
0.00184641 -0.0328383 0.0885589 201 202 153
0.00896101 -0.0284761 0.0799962 199 202 152
-0.000737263 0.00822973 0.0682426 54 57 33
-0.0117144 0.00513213 0.0449837 78 88 50
-0.00262527 0.00841836 0.0634005 54 44 28
0.0041515 0.00199381 0.0843627 43 45 22
0.00586098 0.00148528 0.0884802 46 45 24
0.00833673 -0.0364646 0.106452 129 136 94
-0.0045766 0.00850313 0.0601318 86 44 33
0.00147741 0.00764623 0.0728295 50 48 32
-0.00435374 0.00811449 0.0628344 22 14 10
-0.00124151 0.00360491 0.0859052 64 60 38
0.00501722 0.00738713 0.0768407 130 87 63
-0.0207827 -0.00757445 0.0828453 182 185 140
-0.00606844 0.00672345 0.0600329 36 36 27
-0.0147447 0.00480808 0.0556159 29 18 13
-0.0127341 -0.00428982 0.0671654 82 86 54
-0.000382672 0.00786746 0.0693919 53 56 32
-0.0190354 -0.00645589 0.0812952 189 192 146
-0.0193392 0.0139126 0.0961673 98 54 41
-0.00705906 0.00621727 0.0596815 82 64 48
-0.018988 0.0123279 0.087366 98 54 39
-0.0122562 -0.0223388 0.0887438 104 110 73
0.0115184 -0.00396343 0.0916886 186 198 157
-0.0118489 -0.0229346 0.0903255 92 102 66
0.00269554 0.00396866 0.0800807 36 15 6
0.00807559 0.00344187 0.0907473 114 90 58
0.00287113 0.00340043 0.0853783 52 52 34
-0.0136426 0.00520295 0.0474331 14 9 6
-0.0299992 -0.0100587 0.0916888 144 142 95
0.000673855 0.00268031 0.0862865 60 60 38
-0.0129126 0.00909183 0.0391007 100 108 87
-0.0263548 -0.00912019 0.0901184 80 81 48
-0.021716 -0.0137216 0.0628621 110 108 86
0.00908456 0.000401902 0.0890191 55 63 34
0.00237392 0.00678215 0.0770734 26 12 6
-0.0143227 -0.031988 0.106044 91 100 64
-0.026633 -0.0204912 0.0672115 94 96 72
-0.0147339 -0.0284954 0.0979061 94 99 62
-0.0161414 0.00809076 0.0646412 121 76 54
-0.0126765 -0.0265817 0.0972083 94 102 67
-0.0024176 0.00624365 0.0667683 57 60 38
-0.00330874 0.00418708 0.0778198 51 54 33
0.00322984 -0.0172133 0.0785654 104 116 68
-0.00607515 -0.003467 0.0681132 151 146 117
-0.0283184 -0.00939267 0.0959658 180 180 128
-0.0121225 0.00680426 0.0417954 73 86 52
-0.0168054 -0.0106163 0.0674745 87 88 67
-0.0121601 -0.0154126 0.0770783 91 102 58
-0.0135924 -0.0180146 0.0822166 183 188 141
-0.0127136 -0.00571819 0.0690361 82 86 51
-0.0187656 -0.0125616 0.0652176 88 88 66
-0.0211747 -0.0129982 0.0630402 94 92 66
-0.00648673 -0.00945116 0.0699824 193 200 152
-0.0224203 -0.0151925 0.0620092 84 87 64
-0.0272904 -0.0105336 0.088079 126 126 76
-0.0181278 -0.0119687 0.0661895 94 95 74
-0.0198084 -0.0121021 0.0646987 74 78 50
-0.0235225 -0.00947319 0.0867054 184 186 135
-0.0264082 -0.0189051 0.0641233 181 178 130
-0.0221441 -0.0175607 0.0681909 186 186 136
-0.0207371 -0.00680479 0.0521866 187 190 139
-0.0159977 -0.00734352 0.0689481 88 92 67
-0.0197007 -0.0107743 0.0652784 112 110 84
-0.0202724 -0.0112541 0.0621253 106 100 76
0.00394663 -0.0158768 0.0784886 188 194 147
-0.0244713 -0.00965939 0.0794078 182 184 133
0.0102717 0.00384246 0.0876315 158 156 116
0.010357 0.000348562 0.0811199 188 196 154
0.00497923 0.00847374 0.103688 60 62 38
-0.00510358 -0.00514503 0.0981457 108 104 56
0.0244001 -0.015557 0.0817287 103 98 74
-0.0152557 0.00425919 0.0699355 29 22 13
0.00698069 -0.000411495 0.0785709 64 68 34
-0.0281349 -0.00596582 0.0721209 178 174 118
-0.0113275 -0.0161732 0.0828287 92 104 60
0.00689766 -0.00289496 0.0766496 184 197 156
-0.00817084 -0.0119962 0.0877129 102 112 70
0.00913578 -0.000917326 0.078234 96 78 48
-0.0194304 -0.00512258 0.0786186 72 72 48
-0.0101195 -0.00723581 0.0912856 79 84 52
-0.0105833 -0.0157985 0.0823175 102 114 72
-0.0160766 0.0183149 0.0686772 92 40 28
-0.0102141 -0.00805454 0.0869471 191 198 152
-0.0198468 -0.0146151 0.0888848 98 98 70
-0.0149266 0.0241078 0.0868548 66 26 19
-0.0248719 -0.00361924 0.0804608 178 178 126
-0.033307 -0.00726222 0.0674959 178 173 113
-0.0349189 -0.00863055 0.0682167 180 176 117
-0.0370602 -0.00715478 0.0603429 179 174 115
-0.0380548 -0.0118787 0.0714171 180 176 118
-0.0349803 -0.00570637 0.058048 179 174 114
-0.0202519 -0.00713012 0.0914721 70 71 46
-0.0534329 -0.00405622 0.0759106 174 171 119
-0.0298064 -0.0115795 0.0899371 180 176 122
-0.0332567 -0.00675683 0.0811543 178 174 114
-0.0561376 -0.0038393 0.0891817 160 157 106
-0.0539407 -0.00364338 0.0831263 163 160 106
-0.0552831 -0.00815999 0.0953138 180 177 121
-0.0245006 0.0133564 0.0488551 190 178 172
-0.0431886 -0.00475 0.0823795 176 171 112
-0.0526853 -0.00595225 0.0823723 182 179 126
-0.0269696 0.0106422 0.046492 189 178 169
-0.0126687 0.0173096 0.0786353 100 56 46
-0.0135252 0.0180439 0.0794534 92 48 37
-0.0118327 0.00944091 0.0719688 170 132 114
-0.00841575 0.0076423 0.0774944 36 28 15
-0.024102 0.00403065 0.0711536 189 182 159
-0.0149595 0.00388266 0.0659578 32 32 20
-0.0154445 0.00839191 0.0660698 136 92 75
-0.00789576 -0.000827735 0.0693275 98 102 74
-0.0133947 0.00422814 0.066207 22 16 9
-0.00784787 -0.00127265 0.0691658 108 112 82
-0.0210794 -0.00544001 0.0761819 66 57 36
-0.0214568 -0.00639447 0.075191 73 70 44
-0.0281839 -0.0108142 0.0937186 128 126 87
-0.0105341 -0.0125422 0.0732154 94 108 64
-0.0400603 -0.00167031 0.0544431 157 153 98
-0.0401156 -0.00195572 0.0565547 160 156 102
-0.0406012 -0.00261671 0.0579348 170 166 111
-0.0361453 -0.00350648 0.0577153 182 180 121
0.0127986 -0.0206296 0.0756497 192 196 145
0.000912077 0.000292215 0.083062 60 29 16
-0.00845136 -0.0140279 0.082339 98 110 64
-0.00921891 -0.0146223 0.0866821 98 112 71
-0.0220396 -0.0100253 0.0742906 186 188 136
-0.0228492 -0.0112305 0.0707458 184 184 130
-0.00714846 0.0116691 0.0644865 72 43 34
-0.00182842 0.00542552 0.0716567 48 38 22
0.00196538 0.0164793 0.0598931 188 180 173
-0.0064521 0.0115568 0.064645 78 50 47
0.00288418 0.00362173 0.0804405 54 48 31
-0.0054562 0.0110543 0.0643846 126 92 89
0.000162409 0.00619647 0.0744556 32 20 13
-0.0070643 0.0111177 0.0644599 130 95 88
0.00127078 0.00646545 0.074462 28 14 8
0.00459347 0.00403652 0.0828932 41 18 10
-0.0101213 -0.00358031 0.0705993 71 77 38
0.00368174 0.00531821 0.080844 38 18 10
-0.00177843 -0.000614567 0.0745676 85 87 73
0.00201942 0.00540419 0.0784376 26 10 6
-0.0178354 -0.0053783 0.0993068 65 68 46
-0.0089771 -0.0132562 0.0753498 98 109 66
0.00162813 0.00298353 0.0828827 52 52 30
0.000915396 0.00292958 0.0826437 56 58 36
-0.00950944 -0.0134447 0.0732163 95 106 64
-0.0126334 -0.0159326 0.0827867 192 196 144
-0.0115145 -0.010651 0.0777474 192 198 148
-0.00751731 -0.0285772 0.0944756 185 190 140
0.0120102 0.0222794 0.0647955 190 182 176
0.0119705 -0.0174152 0.0582971 187 189 138
-0.0199363 -0.0385715 0.109903 202 202 150
-0.0109448 0.0188347 0.0665365 73 80 52
0.00517409 0.00579216 0.0792273 38 18 9
0.00494174 0.00567606 0.0792073 36 18 11
0.00467037 0.0067181 0.0764565 65 38 21
0.00123863 0.00773713 0.0652975 105 88 70
0.0074291 0.0030914 0.0743601 196 202 160
0.00694471 0.0039163 0.0871584 53 29 12
-0.00157723 0.00915774 0.0655882 48 38 27
0.00172802 0.00103015 0.0907389 58 24 13
-0.00366997 0.00601781 0.0663103 64 66 44
-0.0047965 0.00453023 0.0737388 67 65 47
0.00987373 0.00633135 0.0769426 174 182 139
0.00194944 0.00514972 0.0881092 51 44 34
-0.00517722 -0.0001999 0.0704542 118 120 106
-0.0153977 0.0164508 0.0762328 90 42 28
0.0042377 0.0053475 0.0883084 34 16 8
-0.0167922 0.0110302 0.0709636 82 42 26
0.00318157 0.000440358 0.0868216 121 100 63
0.00498282 0.00245527 0.0870397 52 52 32
0.0066328 0.00297825 0.0879757 62 36 16
-0.0180557 0.0193274 0.0905676 122 67 46
-0.00573554 0.0178169 0.073142 126 84 80
-0.00624087 0.0178556 0.0724719 112 79 73
-0.0154809 0.0142522 0.0806991 114 72 52
-0.0259909 -0.0210727 0.0727526 87 89 66
-0.0175468 -0.031887 0.0977131 202 200 150
-0.0161007 0.0130558 0.0790041 92 47 33
-0.00250605 -0.00820352 0.0794906 156 155 116
0.00121241 0.0133733 0.0756255 116 85 84
0.0252091 -0.0211988 0.0701617 200 200 152
0.0101298 0.00623062 0.0824952 181 182 154
0.00446683 0.00576479 0.0819055 33 16 10
-0.0016069 0.00632918 0.0697239 66 67 46
0.00509395 0.00581267 0.0820696 37 16 9
0.0120116 0.00720901 0.0946114 174 133 120
0.00335462 0.00619479 0.0776226 30 15 8
-0.0177468 -0.0366685 0.108453 202 200 152
-0.0183335 0.0120949 0.0815143 114 71 49
-0.00280059 0.012353 0.067212 67 36 32
-0.00202082 0.0226527 0.0847789 121 76 72
0.0020549 0.000685639 0.0867619 62 28 15
-0.0156752 0.0124073 0.0722266 91 45 28
-0.00523671 -0.00274293 0.0740153 99 104 68
0.00529625 0.00736635 0.0777864 104 66 43
-0.0122212 -0.000599896 0.0868106 80 75 50
0.00514816 0.004083 0.0852901 38 18 9
-0.00709674 -0.0022174 0.0699566 130 131 82
0.00413965 0.00536451 0.080528 36 16 10
0.000766911 0.00817018 0.0659864 61 62 39
-0.00550313 0.0124137 0.0648305 98 59 56
-0.00198513 0.0101095 0.0656086 194 158 148
0.0020023 0.00183434 0.0851187 74 71 43
0.00979377 -0.00204938 0.0915147 70 70 38
0.00145928 0.00987185 0.0592996 50 57 32
0.00509691 0.00834207 0.0751495 102 70 43
0.000323553 0.00410282 0.0829217 50 52 32
0.00311197 0.0148547 0.0578694 206 199 190
-0.00503061 0.0172765 0.0732853 111 76 73
-0.0252653 -0.0199416 0.0718078 152 144 124
0.00512691 0.00807421 0.0751065 124 88 60
-0.00463252 0.0172605 0.0710118 116 81 78
0.00186055 0.0132401 0.0577714 206 200 189
0.00380092 0.00128959 0.0869737 64 62 39
0.00227597 0.0109697 0.059363 64 70 44
0.00109963 0.0141955 0.0794935 108 80 78
0.00310479 0.00516992 0.0865714 27 16 8
-0.028803 -0.0232546 0.063766 150 150 109
0.00186787 0.0104207 0.0593326 58 65 41
0.00243658 0.0172616 0.0614889 204 196 189
0.00776448 0.00337246 0.0906608 84 57 30
0.00960247 -0.0253762 0.0914602 102 114 70
-0.0187379 0.014303 0.0813714 101 58 36
-0.0162303 0.014085 0.077484 84 45 32
0.00365182 -0.000463537 0.0870965 194 208 166
-0.0174545 0.0145486 0.0817597 114 70 52
-0.00324426 0.0120525 0.0692092 106 69 68
0.0062329 0.00350837 0.0756074 196 206 164
-0.00046246 -0.0174955 0.0872565 204 206 160
-0.00358225 -0.00783057 0.0777079 152 150 100
0.00398552 9.49934e-05 0.0869644 194 204 166
-0.00457052 0.018211 0.0733237 103 66 64
0.00717275 -0.00109073 0.0930786 194 206 164
-0.00864504 -0.00459311 0.0721144 138 134 82
0.000902389 0.010005 0.061523 53 60 38
-0.000144772 0.00259805 0.0861407 36 20 7
0.0122949 -0.00593045 0.0838501 198 206 162
0.00226344 0.00455108 0.0817792 26 12 8
-0.0152004 -0.00563216 0.0738118 193 198 156
0.00387892 -0.000921672 0.0986531 111 81 65
-0.01847 0.0177759 0.0904946 106 52 34
-0.00382738 0.00627828 0.0682792 58 62 40
-0.00248696 0.00570756 0.0741212 76 78 57
0.00194024 0.0101728 0.0601074 51 58 32
-0.0276877 -0.00942282 0.0931895 193 194 141
0.00636348 -0.0218159 0.0858786 106 118 69
-0.0191854 0.0178766 0.096819 94 47 30
-0.00640588 -0.0063068 0.075499 122 128 70
0.0101072 0.00573001 0.0811393 186 192 156
0.00192015 0.0119935 0.0733456 118 90 87
-0.00292331 -0.00273869 0.0549003 88 88 76
0.00137365 0.0103643 0.0616043 54 59 34
-0.0154332 -0.0299476 0.0983469 112 116 78
-0.0124234 -0.00690232 0.0747094 100 102 69
-0.00519927 0.00536787 0.0691075 78 79 55
-0.00473932 -0.00847223 0.0731317 152 150 97
-0.000693726 0.00784679 0.0645186 61 64 42
-0.0313821 -0.00698515 0.0851786 186 184 124
-0.00378959 0.0247219 0.084432 121 78 76
0.00192665 0.0107754 0.060861 59 67 41
0.00156066 0.0185274 0.0854708 120 86 82
0.00260165 0.011714 0.0586188 65 70 46
0.00285649 -0.0248152 0.0959258 200 202 156
-0.000471596 -0.0125212 0.078077 138 142 90
0.00208578 0.0116331 0.0592931 60 64 38
-0.0208543 -0.0132874 0.0666089 98 98 76
-0.0327142 -0.00833504 0.0863721 186 180 120
-0.0114294 -0.0163232 0.0842308 106 114 67
0.00708229 0.00677724 0.0677897 204 200 186
0.00515761 -0.0212857 0.0841048 196 202 156
-0.0194031 0.019227 0.0922388 88 47 32
-0.0173408 -0.0141275 0.0833048 100 101 76
-0.0452692 -0.00108171 0.0762984 166 160 106
0.00939858 0.00242577 0.070327 200 210 167
0.00354374 0.0179344 0.0564686 206 198 192
-0.0186568 -0.0101403 0.0674908 100 100 76
-0.0457043 -0.000676918 0.0759273 162 158 102
-0.0397399 -0.00065454 0.0873382 160 154 92
-0.0211187 -0.0173656 0.0698358 188 188 140
-0.032832 -0.0100128 0.0908678 166 148 98
0.0144438 0.00190739 0.0863593 199 202 163
-0.0273223 -0.0123372 0.0912137 194 196 142
0.0184049 0.00145383 0.0899697 200 211 167
-0.00604707 0.0271827 0.0808852 150 124 122
-0.0209272 -0.0191362 0.0662759 198 198 145
-0.0348684 -0.00076881 0.0741529 175 170 103
0.000142868 0.0128505 0.0568844 206 200 192
0.00182382 0.0191709 0.060669 204 196 190
-0.00628401 0.0329299 0.0889079 182 172 174
-0.025156 -0.0156743 0.0721775 199 200 146
0.0178793 -0.0159845 0.0761878 204 205 154
-0.0070781 0.0200439 0.0721536 87 64 42
0.00761984 0.00375677 0.0778486 182 196 154
-0.00475423 0.0199112 0.0769873 116 75 74
0.00731321 0.00262058 0.0785263 184 199 154
-0.00211194 0.0106633 0.0652687 188 161 156
0.000147151 0.00674692 0.0688195 56 47 36
-0.00600756 0.0244292 0.0828705 85 62 39
-0.0170305 0.0102242 0.0718896 86 44 30
0.0061043 0.0044425 0.0883193 46 18 10
-0.019105 0.00938623 0.0834634 91 54 40
-0.00020518 0.00640947 0.0694152 30 17 7
0.00661042 0.00454788 0.0872814 45 18 10
-0.00087755 0.00434339 0.0838899 50 51 32
-0.0195859 -0.00657484 0.0833414 98 98 66
0.0112137 0.00554322 0.0834473 180 189 151
-0.0168091 -0.0337283 0.105267 173 173 129
0.00121539 0.0185011 0.0872553 111 78 74
0.0148866 -0.00256563 0.114888 70 71 44
-0.0213241 -0.0041788 0.0812901 131 94 69
0.00617038 -0.00164954 0.110933 92 64 47
-0.00575276 0.0222073 0.0801778 98 76 59
0.00117407 0.0135559 0.0521852 135 135 118
-0.00128941 0.00468525 0.08133 48 50 32
0.0101801 0.00621391 0.0820381 167 174 136
-0.00162902 0.00697789 0.0643721 54 54 34
0.00294136 0.00479798 0.0856827 26 12 9
0.00132964 0.00165396 0.0960011 58 35 26
0.00929602 -0.0242036 0.0901987 101 116 72
0.0132434 -0.0038412 0.099116 186 194 150
-0.019702 0.0159384 0.10367 90 48 30
-0.00805395 0.0256175 0.082223 110 60 52
-0.0158304 -0.00951678 0.0680012 96 99 75
-0.0290795 -0.0104995 0.0895562 84 80 46
0.0276971 0.00743158 0.0968055 182 192 148
-0.0235207 -0.00516946 0.0758858 184 185 134
-0.0181315 -0.00613387 0.0741825 189 194 144
-0.0167251 -0.0321648 0.103112 190 192 144
0.0299177 0.0071675 0.101732 187 196 152
0.0172145 0.00640316 0.0816846 184 193 148
-0.00643134 -0.0110459 0.0674648 190 198 149
0.0259471 0.00788849 0.101912 174 182 142
0.0306629 0.00750348 0.108318 184 192 150
0.0274401 0.00674219 0.103884 186 196 151
-0.0236822 -0.0364448 0.103193 188 188 134
-0.0449353 -0.00107136 0.086139 155 150 90
0.0243392 0.00663391 0.0942857 186 196 152
-0.0217995 -0.0295902 0.096088 190 190 137
-0.00839442 0.0307097 0.0808746 178 166 166
-0.0314916 -0.0204667 0.0611372 186 185 132
0.0294075 -0.000719686 0.102738 190 200 156
0.00964391 0.00883551 0.0651915 200 195 183
0.000165064 0.0221629 0.0932893 110 71 70
-0.0050379 0.0267048 0.0894421 104 80 64
-0.00537793 0.0271341 0.093078 94 60 45
-0.00170267 0.023975 0.100164 75 36 33
-0.00162501 0.0236936 0.0929406 110 64 62
0.000812797 0.00115406 0.0799806 60 30 16
0.00610243 -0.000398473 0.078749 59 64 34
0.0143197 0.00714626 0.0885758 162 175 132
0.0101101 0.00154143 0.0822268 184 198 154
0.00982123 0.0056233 0.084904 160 117 100
0.00824176 0.000643213 0.0803925 184 200 158
0.00713306 -0.02138 0.0750679 179 182 134
0.00576582 0.00118275 0.0793045 80 78 52
-0.00639478 0.0286674 0.0956741 110 58 49
-0.00419669 -0.00774182 0.0907365 122 124 70
0.0165004 0.00660628 0.0862875 174 188 144
-0.0177507 -0.0129579 0.090489 90 92 69
0.0219618 0.00746708 0.090628 179 190 148
0.0052595 -0.0231923 0.0736852 191 194 143
-0.0196728 -0.0139103 0.0892991 156 159 119
-0.0202915 -0.0137264 0.087301 188 190 140
-0.0238434 -0.0130158 0.0847447 185 186 134
0.0103586 -0.0199619 0.0807711 190 196 146
-0.0489281 -0.00241662 0.0868278 159 156 98
-0.0279938 -0.0278409 0.0767747 188 186 133
-0.0355204 -0.00455392 0.0832252 178 172 109
-0.0110651 0.0541369 0.129453 182 172 171
-0.0138585 -0.0269254 0.11031 184 188 141
-0.014612 0.0166653 0.128464 88 42 30
-0.0212639 0.00554645 0.115359 139 105 86
-0.00640786 -0.0195044 0.197897 83 85 54
-0.0253959 -0.0195348 0.0733341 124 123 92
-0.0249438 0.00708403 0.145715 189 182 163
-0.021409 0.00792916 0.106006 145 94 69
-0.0206642 0.00935619 0.082879 132 112 100
-0.0301387 0.0111379 0.0276604 199 185 180
-0.0303023 0.00841761 0.026383 199 185 177
0.0277001 0.0221508 0.248748 109 77 66
0.0321797 -0.020144 0.231848 84 88 64
-0.0244399 -0.0155143 0.0472634 170 168 122
0.00701814 0.013945 0.169038 70 78 52
0.00744283 0.0131572 0.178295 66 73 44
-0.0259616 -0.0176974 0.0579586 157 156 112
-0.0226451 -0.0150785 0.0513253 186 184 132
-0.0242275 -0.016417 0.0477047 190 188 137
-0.023664 -0.0166858 0.0486433 188 188 138
-0.027542 -0.0109179 0.0379311 188 185 133
-0.023982 -0.0169879 0.0474659 188 188 138
-0.0239826 -0.0177964 0.0484403 190 190 140
-0.0115161 0.0100364 0.0754584 128 88 76
-0.00606592 0.0282681 0.141168 92 52 46
-0.00709553 0.0259005 0.143277 99 61 53
0.0144879 0.0416547 0.257753 66 72 44
-0.0109515 -0.0164743 0.0811056 96 110 67
0.00879271 -0.0226071 0.0838517 190 195 142
-0.0293137 -0.0285768 0.076552 186 186 136
0.00442581 -0.00728305 0.0497285 140 140 104
-0.0313539 -0.0298233 0.0755625 83 88 52
0.00367856 -0.00725268 0.0481043 192 197 144
-0.0276758 -0.0170942 0.0655732 188 188 132
-0.0278149 -0.0123989 0.0615588 184 184 128
-0.02696 -0.0293346 0.0790725 189 189 138
-0.0358101 -0.0219789 0.0658834 188 185 133
-0.00124813 -0.0174367 0.0532829 190 193 142
-0.0341022 -0.0305494 0.0770268 188 188 136
-0.001465 -0.0165162 0.0515502 190 194 143
-0.0483704 -0.0344079 0.0867606 191 189 136
-0.0323934 -0.0232354 0.060666 191 190 138
-0.047531 -0.0331362 0.0857935 190 188 135
-0.0186347 -0.00307772 0.0753493 184 182 136
-0.0121741 0.0213514 0.112728 110 64 46
-0.019627 -0.00470482 0.087943 81 60 38
-0.0263167 -0.0235783 0.079769 91 94 70
-0.0255748 -0.0227348 0.0787881 130 127 104
-0.0202196 -0.0150778 0.0771214 101 102 78
0.0121955 -0.00795283 0.0886894 184 195 149
-0.029383 -0.010745 0.0496871 182 180 124
0.00643481 -0.0369286 0.121077 190 194 142
-0.0274427 -0.0152374 0.101299 184 187 134
0.00751776 -0.0412512 0.11466 190 194 142
-0.0103406 0.0315924 0.0727166 182 172 171
0.0107821 -0.00343024 0.0859847 185 195 150
0.00752647 -0.000886536 0.0802509 66 72 39
0.00894155 -0.00118391 0.0832435 62 66 34
0.00680294 -0.00093007 0.0897688 184 196 154
0.0104117 -0.0020686 0.085218 55 58 26
0.00258578 0.00413302 0.0810475 30 20 8
-0.0122161 -0.0176742 0.0804466 91 102 60
0.00143992 0.00243345 0.0813904 61 60 37
0.00854617 0.000347495 0.0791451 145 156 116
-0.00135948 0.00113112 0.0706702 80 48 23
-0.0151635 -0.00999612 0.0743431 92 94 70
0.00952073 -0.00555907 0.0798284 182 194 148
0.00326769 0.0192733 0.0588596 194 186 178
-0.0139094 0.0203754 0.0760728 55 62 36
0.00892359 -0.0231819 0.0782502 124 130 90
-0.00558485 0.0257642 0.0906727 110 64 58
-0.00374944 0.0110189 0.0653469 50 21 16
-0.0104198 0.0213335 0.0720673 82 29 19
0.0122234 -0.00103653 0.0861971 91 78 44
0.000890676 0.0228003 0.0939256 70 34 30
-0.00686103 0.0235053 0.0805761 91 41 36
0.00186341 0.0132876 0.0801173 68 36 32
0.00160415 0.00291622 0.0977982 42 41 22
-0.00450944 0.0207612 0.079039 78 37 34
-0.0115822 -0.0020389 0.0593525 59 64 28
-0.00851199 0.0249369 0.0894971 114 54 34
0.0124236 0.000428992 0.0928566 162 176 130
0.00679396 0.015743 0.103574 82 50 46
0.0101028 0.0252238 0.132148 93 63 58
-0.008066 0.0163891 0.0710948 61 24 16
0.00733331 0.0167617 0.103796 92 59 56
-0.0058196 0.0277095 0.100718 106 56 52
-0.00450166 0.00467237 0.0714806 36 40 17
0.0203534 -0.00612674 0.11822 142 148 111
0.017999 -0.00358708 0.137881 150 160 121
-0.0060494 0.0230184 0.0871242 81 30 24
-0.0198122 -0.0046776 0.0675599 59 58 32
0.0276406 -0.0186824 0.0811262 170 170 119
-0.00798809 -0.00307488 0.0630116 103 99 45
-0.0134288 0.024511 0.0882313 80 28 20
-0.00804771 0.0159222 0.0626719 90 49 40
0.00456563 0.0226375 0.107612 56 26 20
-0.00515908 0.0137101 0.0595312 67 35 30
-0.000962236 0.014671 0.0464776 168 162 154
-0.0141174 -0.00632674 0.0589065 84 83 58
0.0276164 0.0121662 0.167852 107 70 45
0.0330823 -0.00611031 0.172421 43 50 20
0.039692 -0.012586 0.221026 162 176 130
-0.0105454 0.0126361 0.046213 90 42 28
0.00679378 -0.0228098 0.0893564 77 86 40
0.0162326 0.00252957 0.119134 96 78 48
0.00643677 0.0043543 0.0690311 170 134 123
-0.0157738 0.0110041 0.0584455 80 38 28
0.0115617 -0.000893026 0.0962309 40 47 18
-0.00339379 0.0209554 0.0788782 90 50 46
0.0144637 0.00675753 0.0858451 140 152 112
0.0241764 -0.0160316 0.0781811 85 80 47
-0.0222663 -0.0116344 0.0395231 77 80 44
-0.00262486 0.0337712 0.114093 90 51 52
-0.0174962 -0.00567781 0.0427775 76 74 54
0.020096 -0.00531764 0.127991 62 60 30
-0.024351 0.00267511 0.0210717 132 130 80
-0.00535005 -0.0071368 0.0631869 120 118 70
-0.000299172 -0.00347092 0.0515048 48 54 28
-0.0298685 0.00179891 0.0312093 132 130 80
0.0160208 -0.00559725 0.112136 166 176 131
-0.0255146 0.00209517 0.0232108 148 146 93
0.0169544 0.00594945 0.101752 150 164 119
-0.00638125 -0.00692674 0.0562972 108 112 63
0.00560899 0.0171455 0.0963387 84 55 51
-0.00095312 -0.00329135 0.0506369 58 62 39
0.00495442 -0.00380938 0.0759351 164 176 130
-0.0243106 -0.0135521 0.0462177 164 163 107
0.00237123 -0.00440122 0.060492 55 60 39
-0.0165035 -0.00497534 0.0384852 65 68 44
0.0270292 -0.0524897 0.154957 168 172 118
0.0269792 -0.0155106 0.132362 172 180 128
-0.0161597 0.00385303 0.00652443 143 138 80
-0.0275104 -0.00545382 0.03309 159 156 102
-0.0156197 0.00394039 0.00591586 142 138 80
-0.0202439 -0.0116479 0.0446238 162 160 103
0.00311252 0.00678698 0.0465213 174 170 158
0.0112499 0.00113777 0.0732784 166 178 132
0.00506656 0.00707074 0.0599721 171 168 156
0.0198649 -0.00619402 0.100434 166 176 132
0.00493722 -0.00276761 0.0323156 170 174 124
-0.0238963 -0.0118494 0.0437109 163 162 104
-0.0204417 -0.0301753 0.0812311 168 168 113
0.00048986 0.0161098 0.0616538 168 161 153
0.00194195 0.00699221 0.0444677 174 170 158
-0.0012376 0.0115665 0.0340081 177 169 160
-0.0289442 -0.0123862 0.0531649 156 152 96
-0.00390818 0.0171917 0.0393963 164 154 152
0.00658142 0.0162682 0.0591104 176 166 158
-0.0323066 -0.00401601 0.0433137 160 155 98
0.0127014 0.0132015 0.0845499 176 170 159
-0.0197043 0.00979939 0.0451334 156 144 119
-0.0167258 0.00322076 0.00828711 159 154 96
-0.0198988 0.00277483 0.0129894 160 156 100
-0.0274212 0.000494738 0.0263394 162 158 104
-0.0076042 0.0332252 0.0813783 157 145 146
-0.0238683 -0.00380628 0.0240613 160 158 102
-0.0223992 -0.0220336 0.0608117 169 168 112
-0.0254886 0.0201522 0.088066 160 147 134
-0.00322703 0.00846317 0.0281148 177 170 160
-0.0021551 0.0083621 0.0309316 178 171 160
-0.0034403 0.0189744 0.053822 161 152 150
-0.0218201 0.0189613 0.045477 170 158 152
-0.020783 0.0139849 0.033317 170 158 154
-0.0275477 0.0118654 0.0335197 174 162 153
0.00286104 0.00310751 0.0836955 36 37 16
0.00928217 -0.00108537 0.080863 46 47 22
-0.0199451 -1.77781e-05 0.0909111 70 72 46
-0.0164687 0.00170227 0.0867168 46 50 39
0.00118847 0.00277528 0.0842687 38 40 17
0.00174014 0.0172651 0.0877311 86 56 52
-0.00441494 0.018178 0.0975652 82 43 37
-0.00264258 0.0218642 0.0925541 77 40 35
-0.000424705 0.0107391 0.0973699 16 8 5
0.00358918 0.00436041 0.0848798 16 6 4
0.00296917 0.0137883 0.0931543 153 123 119
0.00143771 0.0175358 0.0887333 86 58 56
0.00174611 0.0152413 0.0918751 22 10 8
-0.00325881 0.0209654 0.0946536 68 34 26
0.00896226 -0.0038771 0.07892 161 175 128
0.00256426 0.000434469 0.0816794 122 98 56
0.0133432 0.00693282 0.0530111 153 160 116
-0.000798491 -0.0184535 0.0774158 167 172 122
-0.00779888 -0.00833235 0.0853294 112 111 65
0.00313884 -0.00386968 0.0890334 46 52 34
0.0121218 0.00676736 0.0553427 152 159 116
-0.0023394 0.023305 0.0826064 95 56 52
-0.0206454 -0.0158203 0.082459 66 69 48
0.0112379 0.00665635 0.0558671 154 160 118
0.015801 0.00736566 0.0745451 144 156 113
0.016832 0.00757228 0.0754638 147 156 113
-7.25972e-06 -0.0219151 0.0762193 169 171 118
0.00371729 -0.022397 0.0769139 170 174 120
0.0164108 0.00662008 0.0544614 168 174 128
0.0104954 0.00572472 0.0530163 166 176 126
0.0100415 -0.0216776 0.0744431 172 176 121
0.0161533 0.00551766 0.0768092 162 174 128
-0.0338853 -0.0136155 0.0717194 158 154 96
0.019786 0.00938577 0.0838367 174 172 157
0.0200823 0.0104362 0.0756388 180 174 159
-0.013933 -0.0220329 0.0725914 167 169 113
0.0163889 0.00149833 0.0595845 170 179 132
0.017028 0.000971566 0.0605548 170 178 130
0.0120077 0.0116617 0.0569922 178 172 159
-0.00643868 0.00349313 0.0870614 80 85 60
-0.0200033 0.00446498 0.0801399 124 80 55
-0.0204006 0.00562387 0.0799401 127 80 53
-0.0204665 -0.0149986 0.079346 56 58 38
-0.0293367 -0.0251897 0.0770285 96 94 68
-0.0322323 -0.0266848 0.076496 163 162 106
-0.036023 -0.0106928 0.09677 156 151 90
-0.03604 -0.0107123 0.0945663 156 152 90
-0.0411206 -0.00397629 0.0894369 152 146 84
-0.0558404 -0.00467159 0.0973866 149 144 86
-0.0229006 -0.0102715 0.077887 162 162 107
-0.0312849 -0.0130694 0.0832443 158 155 98
-0.0584537 -0.00561099 0.10117 153 150 92
-0.0248253 0.0109781 0.0561715 168 158 142
-0.0239887 0.00903964 0.0565307 168 157 136
-0.0197295 0.00723897 0.0936741 148 103 76
0.00892467 -0.00331618 0.0815654 164 172 125
-0.0175511 0.0102157 0.101346 100 48 25
-0.019564 0.00756358 0.0890001 152 105 79
-0.0160497 0.00601454 0.122445 16 9 6
-0.032354 0.00643659 0.0877981 62 69 40
-0.0305771 -0.014419 0.0653429 161 156 100
-0.000547755 0.0013124 0.179247 58 68 36
0.0105655 -0.00366439 0.083683 118 122 86
0.0052419 -0.000251471 0.0799215 40 45 20
-0.0269028 -0.0181978 0.0520238 166 165 116
-0.0259856 -0.0216682 0.0686447 141 141 92
-0.015979 -0.0191204 0.150953 57 62 34
-0.0246991 -0.0229429 0.0925934 58 62 37
-0.0239603 -0.0150536 0.0820544 164 164 107
-0.0227104 -0.0129882 0.0710077 163 162 105
-0.0273027 -0.0115201 0.0327858 169 166 112
-0.00712604 0.0168747 0.0671649 70 34 27
-0.0459239 -0.0120116 0.116997 158 152 91
-0.0467312 -0.0133666 0.120384 157 152 90
-0.0406255 -0.0271988 0.0849822 162 160 102
-0.0408552 -0.0298858 0.0852611 164 162 107
-0.00623972 0.0254045 0.0828704 107 64 61
0.00134257 0.00788878 0.0676141 50 44 27
-0.00115386 0.00997669 0.0637673 112 92 91
-0.00633493 0.0143846 0.0649162 76 42 36
-0.00832261 0.0141861 0.0663933 62 22 13
-0.00476981 0.0117074 0.0637258 74 40 38
0.00135273 0.00745684 0.0747673 37 38 18
0.00953997 -0.00300741 0.0833372 162 173 124
0.00599874 0.00281312 0.074308 162 173 128
-0.00670425 0.0199675 0.0735866 84 33 27
0.00607507 0.00267765 0.0854636 47 28 11
0.00363615 -0.000620106 0.0948028 94 72 46
0.00535353 -0.00100692 0.0856228 162 174 127
0.0179761 -0.0142598 0.0608483 168 170 116
0.00596688 -0.0210966 0.0791566 94 104 56
0.00418429 0.00503603 0.0815313 26 9 5
0.00195404 0.0193725 0.0891625 72 41 36
-0.0114158 -0.00417017 0.0721159 62 66 30
-0.00382808 0.0125315 0.0653543 70 34 30
0.0186456 -0.0138616 0.0610355 168 170 117
-0.0263827 -0.0047693 0.0877306 158 158 99
0.00168239 0.0248305 0.0890318 128 106 98
0.00283217 0.0217763 0.0871411 121 102 90
0.0111201 -0.0162749 0.0571204 166 170 114
0.022586 0.00707831 0.0645068 158 168 120
0.00976839 -0.0068202 0.0802957 154 166 118
0.0113274 -0.0256894 0.0779196 160 164 110
0.0164328 -0.0163179 0.0746517 160 166 112
0.0237665 0.00278993 0.0605451 158 170 120
-0.00675201 -0.00468972 0.0814466 94 91 35
-0.00383195 -0.00288933 0.0848937 58 64 46
0.00670441 0.00777624 0.0877942 100 64 46
0.00182005 -0.0038275 0.0849758 43 47 32
-0.00356868 -0.0016963 0.083852 53 62 40
0.00311253 -0.00482202 0.0822276 38 44 30
0.000725515 -0.00284951 0.0846503 58 62 46
-0.00806475 -0.00897938 0.0889826 100 99 52
0.00348749 -0.00598163 0.0839039 26 33 14
0.00420275 -0.00699893 0.0830616 52 54 30
-0.0018909 -0.00214038 0.0824751 45 49 29
-0.0161577 0.0203001 0.0952167 70 25 14
0.00204833 -0.00342904 0.120715 48 41 30
-0.0200972 -0.00501184 0.0658422 45 46 22
-0.000422551 0.00285047 0.0933336 30 22 14
-0.00381257 0.00225287 0.0971848 68 70 58
0.00168183 0.00610956 0.0253652 138 146 100
0.0160045 -0.0124444 0.13502 112 116 86
-0.000571002 0.0055285 0.0233433 148 158 106
-0.000726107 0.00569949 0.0239381 132 142 96
-0.00223259 -0.0078147 0.0857578 58 62 40
-0.000774731 0.00550393 0.0233976 143 153 104
0.000173778 0.00530385 0.0238448 158 168 118
0.000981023 0.00519204 0.0245705 161 171 120
0.000972638 0.00383753 0.0263868 162 172 122
-0.00136162 0.004013 0.0991266 23 20 12
-8.37739e-05 -0.00762256 0.0882602 56 60 45
-0.000569756 -0.0080247 0.0893316 39 46 25
-0.0263696 -0.0179623 0.0573835 128 125 80
0.00181931 0.00145234 0.0891721 48 34 18
-0.0259622 -0.0243595 0.0850513 138 136 84
-0.0269203 -0.0158071 0.0523472 155 154 97
-0.0217325 -0.0156762 0.106707 152 154 102
-0.0264424 -0.0158502 0.0562835 154 154 99
-0.0270263 -0.0159204 0.0491319 157 157 100
-0.0244022 -0.0183036 0.0539881 158 158 104
-0.0245043 -0.0143387 0.0974802 154 152 96
-0.024222 -0.0120726 0.0891612 154 151 95
-0.026723 -0.0132416 0.0437206 156 154 101
-0.0273568 -0.0111711 0.0419878 154 151 99
-0.0276437 -0.00557368 0.0318613 152 150 97
0.00947683 0.000916036 0.0796311 144 146 110
-0.00897641 0.0174384 0.0685523 70 26 18
0.00428243 0.00178452 0.0864069 36 34 14
-0.0054103 0.0162638 0.0681281 79 35 28
-0.009547 0.0186278 0.0698984 88 34 20
-0.00546482 0.0168612 0.0683114 88 47 40
-0.00979975 0.0127691 0.0649514 76 32 22
0.00980928 -0.00037719 0.0924309 36 42 14
-0.00828388 0.0136122 0.0640963 58 28 23
0.00583749 0.00360776 0.0881022 22 6 3
-0.00560303 0.0111652 0.0612962 69 34 30
-0.00141725 0.0119215 0.0676256 64 37 32
-0.00601912 0.0153731 0.0646802 76 36 30
0.00354021 -0.00312701 0.0784504 160 173 122
0.00960646 -0.00162243 0.0836972 41 44 16
0.00369707 0.00518424 0.0755353 36 12 6
0.00446447 0.0130302 0.0764015 36 38 21
0.00889855 -0.00414908 0.0771207 154 166 116
-0.0133267 0.00344178 0.0669376 32 28 14
-0.0183468 0.00771215 0.0619938 80 30 20
-0.0134419 0.00511377 0.0522698 26 27 11
0.00193482 0.0010695 0.0805081 38 36 16
-0.000606951 0.0028199 0.0752352 24 18 9
0.00740578 -0.0152881 0.0917315 151 158 114
0.00633661 -0.000708593 0.0807401 44 45 18
-0.017272 0.00911101 0.0606884 74 33 24
-0.00265196 -0.00608645 0.0633913 112 117 80
0.882148 -0.0550269 1.14655 162 170 117
3.59523 0.608723 5.23806 148 164 118
3.77112 0.577054 5.18829 156 168 121
0.0149392 -0.0461646 0.155123 155 158 104
0.00430563 -0.00596404 0.0724148 150 164 116
-0.00788535 0.00712292 0.0867332 44 26 18
0.00720724 0.00394449 0.0802599 124 94 64
0.00105677 -0.0172471 0.0807116 64 76 30
0.00815521 -0.0224066 0.0784117 110 119 72
0.00158865 -0.0193034 0.0806709 100 108 66
0.00267123 -0.0170172 0.0814511 86 96 45
0.00285122 -0.0174116 0.0805771 66 82 30
-0.000816477 -0.0113387 0.0820783 39 47 19
-0.000206985 -0.0134289 0.0819576 66 74 36
0.00165172 -0.0173459 0.0805641 67 80 29
-0.0010371 -0.0123221 0.081799 62 70 34
0.00750618 0.00193385 0.0808243 148 162 118
0.0019288 -0.0213435 0.0802259 100 106 62
-0.0119291 -0.0193421 0.080441 60 74 36
-0.000507775 -0.0163864 0.0809683 112 122 69
0.00721708 -0.000638145 0.080076 37 44 14
-0.000246868 -0.0104948 0.0822214 50 53 32
0.00152289 -0.0214912 0.0802576 160 164 110
0.00740563 0.000607455 0.0804332 52 54 26
0.00314345 -0.0174785 0.0812754 90 102 50
0.00321237 -0.0185967 0.0807525 68 81 32
0.0062511 -0.0203596 0.0810465 96 108 66
0.00244608 -0.0179861 0.0808757 68 82 34
0.00356378 -0.0179333 0.0802923 88 100 48
0.000537605 -0.0145515 0.0819158 76 85 40
-0.0116478 -0.0194909 0.0804869 70 80 44
0.0013557 -0.0156166 0.0814958 104 114 67
0.0082558 -0.00340369 0.0806427 150 164 116
-0.0014306 -0.0145064 0.0820964 110 116 60
0.00881803 -0.0220164 0.0788809 152 156 102
0.00084683 -0.0163721 0.0807622 76 87 40
0.00762691 -0.0223036 0.0795174 84 94 52
-0.0104288 -0.0168714 0.0812275 60 76 32
-1.67839e-05 -0.0141799 0.0820799 97 102 58
-0.00845451 -0.0179997 0.0795683 152 160 108
0.00684249 -0.0216377 0.0793169 76 86 42
0.000897898 -0.0193071 0.0805347 107 112 65
0.0114885 -0.00399984 0.0780508 75 73 28
0.000800792 -0.0159273 0.0808667 78 89 42
0.0014475 -0.0209122 0.080321 134 138 90
0.00453439 -0.0179394 0.0809038 135 143 88
0.00949181 0.00243337 0.0789232 163 124 106
0.00627914 -0.0219152 0.0796567 132 138 83
0.0209686 -0.015831 0.072009 114 116 74
0.00186411 -0.0208468 0.0802792 98 106 64
0.000475468 -0.0139335 0.0822533 74 84 44
0.000501322 -0.0149457 0.0815172 92 103 56
0.0029358 -0.00658765 0.0820625 61 61 33
-0.0127458 -0.0230494 0.079061 135 140 88
0.0018696 -0.0260131 0.0800059 159 163 108
0.00449349 -0.0287441 0.0780176 156 162 106
0.00828216 -0.0273275 0.0782688 156 160 104
0.00118849 -0.0287866 0.0788343 156 160 104
0.00818588 -0.029769 0.0766916 155 160 103
-0.000665865 -0.0289919 0.0788246 156 160 104
0.00845715 -0.028324 0.0766566 155 160 102
-0.0259708 -0.00555917 0.0733026 150 144 82
-0.0205304 -0.0123139 0.088092 84 81 49
-0.0275771 -0.0108048 0.0735126 150 146 86
-0.0268041 -0.0168588 0.0812091 150 147 86
-0.020081 -0.00661399 0.0855568 47 42 22
-0.0116344 -0.02293 0.0763648 68 77 44
-0.0117983 -0.0231351 0.0759402 62 69 37
-0.0195073 -0.0160192 0.0891324 46 50 28
-0.0247899 -0.0203767 0.0809423 46 50 28
-0.0193344 -0.0100855 0.0936692 152 148 99
-0.0210916 -0.0158223 0.089708 48 52 28
-0.0193173 -0.00970336 0.0958292 152 150 100
-0.0194251 -0.0225091 0.101912 110 113 64
-0.0272652 -0.0212235 0.0725097 142 138 82
-0.0241278 -0.0302045 0.0985793 152 150 95
-0.0257281 -0.0176627 0.0791043 148 144 84
-0.0289518 -0.0194144 0.0861724 150 147 89
-0.00446086 -0.0128991 0.0795871 127 138 86
-0.00853078 -0.00303681 0.0827138 88 88 46
-0.00492254 -0.003365 0.0847029 51 60 46
-0.00450093 -0.0125784 0.0797173 128 139 88
-0.00753456 -0.00257023 0.0865168 63 68 43
-0.0131608 -0.00930266 0.0893315 52 59 24
-0.0120382 -0.00809538 0.0943541 48 54 19
-0.0294973 -0.0256905 0.073529 97 100 62
-0.0178128 -0.00983695 0.0834146 100 102 64
-0.00828711 -0.0118845 0.0928151 84 90 44
0.00222334 -0.00687867 0.087424 62 64 34
-0.0151063 -0.0122241 0.0902012 58 63 31
-0.019918 -0.0154514 0.0818241 49 53 29
-0.0165946 -0.00824562 0.0838022 102 104 64
-0.0297819 -0.0286413 0.0710937 155 156 99
-0.0105143 0.00234314 0.0836084 64 66 54
0.00740253 0.00489872 0.0993522 76 42 30
-0.0144592 0.00117487 0.113812 15 12 6
-0.0152044 0.021803 0.0858659 88 30 18
0.00750538 0.00599902 0.0977787 136 92 73
-0.0141396 -0.00658987 0.0958784 76 80 42
-0.000654632 0.0105288 0.067822 72 44 32
-0.00581161 6.43579e-05 0.0670669 28 10 6
-0.0132857 -0.00922862 0.0888635 84 82 46
-0.0155008 0.0189848 0.0945473 86 36 23
-0.00368689 0.00212293 0.0768954 22 16 9
-0.0160047 -0.000122552 0.101511 28 30 20
-0.0115655 0.0198975 0.103602 70 32 24
-0.00442559 0.0217785 0.0992612 55 28 23
-0.0156573 0.0178133 0.094131 86 38 23
0.020911 -0.0214122 0.107634 44 52 26
-0.00806958 0.000332062 0.0823381 74 79 68
-0.00982679 0.0231104 0.0941038 100 44 32
-0.000781764 0.0113935 0.0682417 80 53 40
-0.0225005 -0.0123042 0.060003 42 48 26
-0.0202102 -0.0123765 0.0658956 42 49 27
-0.00112094 0.00492188 0.0820363 14 6 6
0.00756825 -0.00558091 0.0974654 144 158 112
-0.0155543 0.00810554 0.121974 81 33 21
-0.0101151 0.0175275 0.113414 60 24 18
0.00816094 -0.00518582 0.0954674 144 160 112
-0.0137977 0.0247024 0.0826481 102 44 28
-0.0179158 -0.0103565 0.0694257 48 54 28
0.00545374 -0.00342452 0.0842639 145 162 114
-0.0172554 -0.0076636 0.0749981 44 50 21
-0.0193952 -0.00719124 0.0716299 148 144 92
0.0201068 -0.0206092 0.112425 40 51 27
-0.00420961 0.0219519 0.065813 142 132 130
-0.0181329 -0.00788743 0.0734409 41 46 18
0.0264367 -0.0246691 0.116209 58 62 36
-0.0213822 -0.0110424 0.0603802 44 48 25
-0.020987 -0.00944496 0.0703891 146 140 90
0.0348041 -0.0258814 0.123812 153 160 111
-0.00175866 -0.0199883 0.0594541 155 158 106
-0.022702 -0.0237154 0.0817756 150 149 93
-0.00503641 -0.0190115 0.0650133 146 153 101
0.00401474 0.00639395 0.0332204 148 160 110
0.0035687 0.0073129 0.0403687 150 148 138
-0.0264965 -0.0107667 0.0370775 154 152 96
-0.0110796 0.0297894 0.0686563 156 142 142
0.00244531 0.00497404 0.0398718 130 153 111
0.0118627 -0.00379918 0.0373328 155 163 110
0.0134461 -0.022408 0.0865874 158 164 110
-0.0169627 0.0297894 0.084349 152 136 135
-0.00993683 0.0304938 0.0701553 156 142 142
-0.00287963 0.016461 0.0318802 162 153 146
-0.00357613 0.017147 0.0322881 162 151 146
-0.000654451 0.0108221 0.0313743 165 158 146
-0.00234998 0.0160032 0.0335418 164 154 146
-0.0151938 0.0181113 0.113431 78 35 24
-0.00423506 0.0154751 0.1176 76 33 28
-0.00412991 0.0191076 0.0861307 60 28 22
-0.00572879 0.0160525 0.10698 61 26 20
0.00586429 0.0131466 0.112687 106 69 62
-0.00911725 0.0207065 0.0873276 62 20 14
-0.00418684 -0.00257358 0.0905411 39 48 38
-0.0169911 0.018902 0.0857271 64 18 10
-0.00417976 0.0197776 0.0861759 74 39 34
-0.0088548 0.0207689 0.0867532 61 22 16
-0.0181726 0.0158667 0.106029 54 21 12
-0.0146915 0.0203667 0.0871895 76 26 18
0.00908017 0.00193199 0.0932413 140 100 76
-0.0132471 0.0145619 0.117782 55 20 16
-0.0111587 0.022381 0.0787856 94 38 29
-0.00900383 0.0211465 0.0849083 73 28 24
-0.00753408 0.018103 0.106173 74 35 28
-0.0176223 0.0168794 0.09864 42 14 7
0.0105758 0.00776245 0.0366693 156 165 112
0.00489386 -0.0193839 0.0721953 158 163 109
0.00950052 -0.0223998 0.0718023 158 162 107
-0.0186159 0.0169268 0.0726376 88 33 22
0.0109801 0.00778519 0.0361141 160 167 114
0.0138754 -0.00205451 0.0404192 160 168 114
0.00911743 -0.021785 0.0760158 159 164 108
0.00662586 0.00233635 0.0326908 166 173 120
0.00382593 0.0034883 0.0492565 130 154 113
-0.000850244 0.0124557 0.0487737 148 145 136
-0.0231985 0.0280268 0.124027 143 126 111
-0.0168748 0.0258654 0.0754 150 134 134
0.00997969 0.0123386 0.0347752 168 160 146
0.00598862 0.0142882 0.0360496 166 158 147
0.00742008 0.0174238 0.0386253 164 155 144
0.00619152 0.016495 0.0351571 164 154 144
-0.0121008 -0.0193808 0.0952339 98 108 61
-0.004376 -0.0443752 0.0965162 154 155 100
-0.00504646 0.0234016 0.0826443 64 31 26
0.00348055 0.00661416 0.0955095 18 8 6
-0.00320214 -0.00430815 0.0881054 44 50 33
-0.012232 -0.00764449 0.0987814 76 80 44
-0.0257294 0.00559069 0.138753 54 48 27
0.00862109 -0.0442324 0.222624 58 64 56
-0.016516 -0.0071438 0.0921737 112 111 71
-0.0155604 -0.00627548 0.0984379 78 85 44
-0.00765746 -0.0095454 0.114124 50 56 40
0.00639647 0.00993497 0.0954569 138 99 86
-0.0171696 0.0181138 0.0843257 64 20 12
-0.000338983 0.0178843 0.0799292 74 39 32
0.00302441 0.0128961 0.0809972 78 52 37
-0.0110838 -0.0113747 0.100261 70 69 34
-0.0179076 0.0157088 0.0873489 72 32 21
-0.00869607 0.0162465 0.10327 64 24 17
-0.00315982 0.00066922 0.0797964 23 12 8
-0.0169659 0.0128538 0.097928 74 28 16
-0.0189186 0.0122155 0.0868695 58 21 12
-0.0185755 -0.0135954 0.0762338 118 120 72
-0.00217564 0.00509207 0.0843379 16 12 6
-0.00104512 0.0177431 0.078665 76 39 32
-0.0178539 0.016014 0.0858073 61 22 12
-0.0222937 -0.0235945 0.0908719 73 83 36
-0.00855031 -0.00532186 0.0976222 55 64 53
0.0113941 -0.0131526 0.106309 108 116 80
0.0342575 -0.027464 0.123404 124 128 87
-0.0172259 -0.0139859 0.0884842 44 52 26
0.00260693 0.0137136 0.107383 60 26 20
-0.0175531 0.0136179 0.0978671 78 32 20
0.010491 0.00160727 0.100328 126 92 69
-0.0202852 -0.0151241 0.0737468 98 102 55
-0.0184349 -0.00956365 0.0801562 42 46 21
-0.0191218 -0.0139994 0.0745428 121 120 73
-0.0217005 -0.0142352 0.0762595 44 48 24
-0.00815774 0.0219405 0.0872254 70 30 25
0.0545495 -0.0408635 0.142541 92 97 65
-0.0203105 -0.00449742 0.0911011 114 112 64
-0.00493496 0.020319 0.0968207 62 32 26
-0.00757394 0.0161973 0.101125 60 24 18
-0.023629 -0.00526377 0.0742886 122 103 60
-0.0013499 0.020563 0.0767703 86 56 49
0.00842718 -0.00135881 0.0665077 144 162 118
-0.0023624 -0.00332451 0.0956284 34 38 26
-0.0133927 -0.0124574 0.0910988 150 148 97
-0.0189371 -0.0142311 0.0766946 79 82 46
-0.0181858 0.0149422 0.0849682 50 18 10
0.00219848 -0.0245285 0.162582 61 72 60
-0.0163987 -0.00831223 0.0924755 49 54 22
0.0315614 -0.0271807 0.121285 68 70 48
-0.00225268 0.0212148 0.0746158 59 25 18
0.0594937 -0.046872 0.145071 132 136 86
-0.0196044 -0.0144653 0.0742038 102 106 62
-0.0134951 0.0210256 0.0941602 82 33 20
0.0267318 -0.0250291 0.118001 47 54 26
-0.0370494 0.0161745 0.180924 108 104 84
-0.0196822 -0.0137902 0.074172 46 56 29
-0.0223728 -0.0231066 0.0915481 67 76 26
0.0277117 -0.0251714 0.115179 75 75 54
-0.0117278 -0.0131743 0.0821402 65 71 44
-0.0168791 -0.0051237 0.107564 68 72 37
-0.023543 -0.0256523 0.0929874 56 71 24
-0.00453991 -0.0102866 0.123012 52 62 48
-0.00424452 0.0243839 0.0772112 97 73 70
0.0141189 -0.00953674 0.0869573 146 160 111
-0.0138837 -0.0183849 0.116148 102 103 53
0.00323516 -0.0149772 0.0893909 152 160 110
0.00237942 -0.0220645 0.0855992 108 116 67
0.00569887 -0.0190908 0.083511 148 158 107
0.0150301 -0.0046716 0.0850636 140 156 112
0.0187265 -0.0214703 0.108384 92 103 68
-0.0177921 0.0204221 0.0864192 75 28 18
-0.0194226 0.0149336 0.079887 78 32 16
0.00571265 -0.0183303 0.0822422 148 158 108
-0.0227036 -0.00889965 0.0675716 152 149 88
-0.00231964 0.0205797 0.0697102 98 80 76
0.024225 -0.0180386 0.116218 144 158 108
-0.00266641 0.0215201 0.0690132 117 104 98
0.00952688 -0.00610111 0.0576305 137 154 108
0.000886954 0.0204286 0.0711927 138 135 128
0.0207912 -0.0287242 0.0997375 157 163 110
-0.00461817 0.027645 0.0703662 153 142 140
-0.0211058 0.0286089 0.0734348 157 140 138
-0.024261 0.0205395 0.0414046 162 147 140
0.0246501 -0.0154033 0.054574 159 161 106
0.0209912 -0.0980017 0.389669 111 120 77
-0.0225783 -0.00829985 0.077241 54 56 24
-2.36364e-05 0.0114337 0.104753 38 40 15
-0.00162662 0.0182389 0.0859699 76 54 36
-0.0088866 -0.00938745 0.110311 51 55 36
-0.00140313 0.0170576 0.0843977 100 74 67
-0.0118666 -0.0103081 0.101291 105 99 58
-0.00609671 -0.00263133 0.0969524 39 51 34
0.0102457 0.00368638 0.0980461 153 112 99
-0.00701318 -0.00965994 0.121073 48 56 40
-0.00987017 -0.0117339 0.10343 78 76 51
-0.0102976 0.0230005 0.0760752 86 35 26
-0.00350045 0.0213649 0.0831445 78 47 30
-0.00608087 0.0178384 0.0877115 75 41 36
0.00599616 0.00778971 0.0947953 138 92 64
-0.00624187 0.0159967 0.0908815 53 25 22
-0.00436476 0.0179443 0.0894636 74 46 36
-0.00792835 0.0188596 0.0867441 76 42 35
-0.00334562 8.53721e-05 0.0785865 26 10 6
0.00848628 -0.0241288 0.0845496 156 162 110
-0.00578901 0.0194518 0.0865208 58 28 26
-0.0132858 -0.0161966 0.0680613 52 67 30
0.00367182 -0.0233019 0.07102 38 56 18
-0.0109701 -0.0082732 0.0994684 114 110 75
-0.0181574 -0.0070884 0.0846739 68 68 28
0.0336024 -0.0283282 0.122202 81 80 62
-9.13072e-05 0.0120657 0.10674 32 39 14
0.00697198 0.00704461 0.0949859 146 101 86
-0.00929721 -0.0143237 0.109681 78 76 48
-0.0109456 0.0131105 0.100504 56 21 16
0.00365125 -0.0236506 0.16602 72 84 69
-0.033454 0.00714894 0.162787 60 66 38
-0.0236686 -0.00886654 0.0774508 52 52 20
-0.00314577 0.0205497 0.0706201 65 28 20
-0.00442468 0.0134681 0.100432 68 36 25
-0.00468042 0.017232 0.0895294 67 38 30
-0.0120778 -0.0110298 0.103639 86 84 41
-0.00141711 0.0180404 0.0816483 64 34 28
-0.0330149 0.00829571 0.165063 26 39 18
0.0115368 0.00270346 0.103613 148 102 78
-0.00546099 -0.00337069 0.0942469 42 50 32
-0.0204187 -0.0136832 0.0858974 42 47 24
-0.00736748 -0.00632338 0.10554 64 70 60
0.0233591 -0.0232399 0.116479 45 52 29
-0.010244 0.0215737 0.0754108 82 32 28
-0.00507959 -0.0200907 0.142116 60 61 44
-0.0186564 0.0139925 0.0796307 74 38 26
-0.0125856 -0.0143573 0.0728676 64 76 33
-0.0265389 -0.0047186 0.116676 44 48 28
0.000993704 0.0147744 0.0751017 74 49 36
0.00483787 0.00267009 0.0899884 18 8 2
0.0104338 -0.0260643 0.0816645 158 164 112
0.00646785 -0.0125933 0.101973 56 58 33
-0.0146572 -0.00986821 0.0818264 76 81 42
-0.0132144 -0.0170732 0.0678618 54 66 30
-0.0128257 -0.0166212 0.0717027 52 66 29
0.0040798 0.00307528 0.0870325 18 6 4
0.0112197 -0.014868 0.10856 40 48 30
-0.0129901 -0.0178441 0.065546 69 76 42
-0.00640195 0.0228774 0.0722445 108 76 76
-0.0125983 -0.0173011 0.067985 66 76 42
-0.017158 -0.0101365 0.0940512 44 48 21
-0.00111472 0.0103494 0.0981599 42 42 19
-0.0024776 -0.0070961 0.0899446 60 64 38
-0.0230006 -0.00613812 0.0733923 150 137 85
0.000392755 0.0156596 0.0790388 68 39 32
-0.00973367 -0.0135891 0.107454 86 84 50
-0.0152004 -0.00953109 0.0823011 45 54 20
-0.00162666 0.0179434 0.0865558 84 66 44
-0.0189478 0.0117739 0.0949004 60 22 12
-0.000860619 -0.0096711 0.0843638 56 68 38
-0.0123222 -0.0161322 0.0783063 64 76 33
-0.0176192 -0.0134821 0.0878406 40 48 22
0.0492075 -0.0361391 0.136845 84 82 55
-0.041344 0.0257307 0.189688 160 148 134
-0.0308716 0.00823081 0.159982 31 40 22
0.00299906 0.0123145 0.0788706 76 50 35
-0.0151161 -0.0111199 0.0838212 78 82 38
0.00525202 -5.44923e-05 0.0578326 146 164 120
-0.0192146 -0.0126616 0.0910472 40 46 24
0.00365775 -0.0105039 0.0980194 58 58 38
-0.0187201 0.0138923 0.084154 55 24 16
-0.0125312 -0.018165 0.0677518 54 67 31
-0.0232762 -0.0212379 0.0818606 150 149 92
-0.0189232 0.0136873 0.0872733 72 36 26
-0.0207733 -0.0173756 0.0812069 76 80 43
-0.0173911 0.0161748 0.0877609 80 36 25
0.0306159 -0.0252442 0.125384 154 160 112
-0.0213357 -0.0176601 0.0797566 68 70 33
0.0296988 -0.025105 0.127821 113 122 79
0.000509291 0.0155999 0.076402 85 68 64
-0.017744 -0.0120005 0.0909291 46 51 24
-0.0127393 -0.0149719 0.069418 56 68 28
0.0367139 -0.0297964 0.128286 84 84 62
0.00374224 0.00546326 0.0585963 114 144 104
-0.0417449 0.0229903 0.169524 98 96 74
-0.0132128 -0.0167084 0.0686972 54 66 31
0.00961634 -0.0141538 0.106958 38 45 26
-0.00206881 0.0129228 0.106936 33 36 16
-0.00844318 -0.0177051 0.11836 77 74 46
-0.0147318 -0.0170047 0.0569116 150 150 98
0.0146275 -0.00912456 0.0626071 153 162 110
-0.0114853 -0.0152623 0.0825799 75 80 42
-0.00357589 -0.00817201 0.0885107 128 135 92
0.0124406 -0.00413064 0.0622538 142 158 114
-0.000872921 -0.00699469 0.0943037 53 57 37
0.0321332 -0.0267315 0.129454 106 110 74
0.0101073 -0.0134154 0.104588 37 46 29
-0.00212036 0.0214551 0.0733939 57 26 19
-0.0127425 -0.0162224 0.0726139 54 67 28
0.0295066 -0.0279901 0.118787 116 116 78
0.0139956 -0.00766549 0.0626335 146 158 110
-0.000701287 0.0192216 0.0683028 136 134 126
0.0183723 -0.0109623 0.0906792 142 158 112
-0.00245891 0.0227854 0.0712377 127 117 114
0.0320456 -0.0259778 0.124143 154 160 116
0.00793313 6.53769e-05 0.0582046 136 156 114
-0.0134352 -0.0141659 0.074802 140 142 96
0.0163337 -0.0108039 0.065511 154 163 110
0.00967821 -0.023492 0.0884229 158 162 109
-0.020368 0.0237354 0.147618 90 45 29
-0.00794419 0.0244901 0.0708324 136 116 117
0.00129618 0.0167381 0.0727993 142 139 130
0.03398 -0.0216305 0.120278 153 164 112
-0.0209376 -0.0381024 0.136154 154 152 94
-0.0165584 0.0226461 0.069311 145 124 122
0.00930718 0.00644313 0.0598999 126 150 110
-0.0190981 0.0188754 0.0696946 140 122 110
0.0557961 -0.036499 0.142554 158 165 111
0.0101848 0.0135133 0.0600287 155 152 140
0.012831 0.0237913 0.0448609 164 154 145
-0.0159422 0.0643935 0.187355 155 141 140
-0.0132392 -0.00297813 0.0639353 41 44 30
-0.0161912 -0.00234962 0.034215 58 68 48
-0.020103 -0.00163336 0.0123096 54 60 43
-0.0198248 -0.00152193 0.0128196 58 64 45
-0.0194092 -0.00228917 0.0197613 64 65 48
-0.00845784 -0.00559098 0.0452289 36 43 28
0.000791638 0.00705227 0.0853415 54 24 10
0.000763745 0.000120716 0.0636003 148 126 101
-0.0229412 0.00139069 0.00598884 161 149 133
-0.0206766 -0.00161891 0.00910928 56 56 44
0.00761522 -0.00745658 0.13141 56 62 48
-0.00430536 -0.0055426 0.0711061 41 48 37
-0.0117351 0.00639401 0.0393793 48 25 18
-0.0112066 -0.00519645 0.0594474 154 158 109
-0.0152453 -0.00507991 0.0328345 106 112 67
-0.0119522 -0.00326228 0.0783094 54 56 45
0.0690277 -0.0244225 0.373627 116 122 82
-0.00647256 0.00408833 0.0504142 144 101 86
-0.0072931 -0.0641513 0.384205 41 48 24
0.00489478 -0.0485501 0.374513 46 48 18
-0.0144016 -0.00804871 0.0992591 70 74 38
-0.0205441 -0.00179647 0.00868498 68 76 64
-0.0184831 -0.00225495 0.0190907 74 85 65
-0.00360334 -0.0491683 0.384361 43 48 22
-0.0195817 -0.00182293 0.0144274 62 70 56
0.0264317 -0.417463 2.39463 46 50 28
-0.0139338 -0.00570921 0.0866305 64 67 30
-0.0149121 -0.00416135 0.0384476 154 158 110
0.0147399 -0.51401 2.84362 50 50 28
-0.0164258 -0.0810725 0.484747 42 44 22
-0.0230726 0.00109557 0.00780549 64 72 48
-0.00577411 -0.0423035 0.341681 40 46 20
-0.0170128 -0.0176777 0.121235 40 44 21
-0.0150455 -0.0230453 0.173385 41 46 21
1.13253 -0.87915 3.06257 158 163 111
0.0281524 -0.0172124 0.239428 63 66 41
0.0168979 -0.0146107 0.083276 146 156 108
0.0346299 0.0647041 0.294471 122 84 39
-0.0029618 0.0273127 0.113849 55 20 16
-0.0237182 -0.00810933 0.0786474 152 146 85
-0.0206561 0.00364648 0.0891532 31 16 10
0.0127 0.0300639 0.200664 36 37 18
0.00598606 0.0110872 0.120649 120 88 71
0.011598 0.0178928 0.16628 133 112 102
0.00521407 0.0128909 0.0959646 64 37 30
-0.0191231 0.00311532 0.0851631 13 6 4
-0.0194138 0.00470691 0.0813837 76 28 16
-0.0206428 0.00449748 0.0892981 32 15 4
0.00968992 0.0242851 0.188186 37 40 18
0.0229928 0.0475497 0.248763 58 52 24
0.00614373 0.00429084 0.0809975 100 72 49
0.00525107 0.00884505 0.120682 24 12 10
0.00897056 0.0152965 0.130521 72 28 22
0.0180645 0.0375125 0.229268 34 34 16
-0.0419845 0.0209668 0.132082 118 113 91
0.00406434 -0.0239113 0.0714775 130 138 90
0.00867684 0.0159903 0.137063 78 35 26
0.000743294 0.0228745 0.115537 67 60 22
0.00286803 -0.0232874 0.06658 103 112 66
-0.00423484 0.0248367 0.0935403 88 40 29
-0.00359434 -0.00166749 0.0783862 90 76 60
-0.00815903 0.0233357 0.100458 61 20 13
-0.00717091 0.0223068 0.0943566 84 58 56
-0.00685582 -0.000520394 0.0889535 68 76 65
0.0158217 -0.0152679 0.116861 150 160 112
-0.00350235 -0.0209364 0.129649 62 67 60
-0.00762418 0.00103042 0.0846318 68 74 61
0.029815 0.0463563 0.24477 68 35 30
-0.00517474 0.0210496 0.0730641 70 30 25
0.021521 0.0325849 0.211032 74 41 35
-0.0201671 0.00791027 0.0855938 74 30 16
0.025296 -0.0227535 0.12103 100 111 74
-0.023003 -0.0239015 0.0902527 114 116 63
-0.010268 0.00689052 0.090635 18 8 6
-0.00306808 0.0262236 0.0961187 90 46 38
0.00707892 0.0145556 0.115594 56 26 21
-0.00489117 -0.00072774 0.0696233 66 26 15
-0.0143457 -0.00891745 0.0881725 52 56 22
-0.0080885 0.0187862 0.106394 74 36 28
-0.00510235 0.0238737 0.103117 60 24 21
0.00571529 0.0141077 0.151598 34 40 18
0.00721466 0.0175297 0.126445 64 30 26
-0.00472717 0.00997994 0.119729 39 14 6
-0.0215588 -0.0162571 0.0721438 58 66 36
-0.0127196 0.0192307 0.083412 74 29 20
-0.03062 0.00902096 0.129733 153 143 122
-0.00469941 -0.00461412 0.0902717 60 61 42
-0.000763088 -0.00646751 0.0939689 42 50 34
-0.0341579 0.0156589 0.143806 162 150 130
-0.00345965 -0.000394141 0.0654445 78 49 30
-0.0021031 0.00453377 0.0877503 20 20 11
0.00315854 0.00808791 0.116905 21 14 11
-0.00101701 -0.013619 0.0778332 85 98 62
-0.023037 -0.0169096 0.0713823 45 50 26
-0.00484318 -0.000534621 0.088323 35 47 31
-0.00667829 -0.000835151 0.0941159 84 86 82
0.0231199 -0.0218929 0.117959 52 62 38
-0.0354672 0.0117586 0.129353 96 92 71
-0.0167235 0.0196278 0.0756527 90 32 19
-0.003492 -0.00156479 0.0762517 124 110 82
-0.0145449 0.0198088 0.0824477 98 48 32
-0.0171139 0.0184488 0.0775436 88 31 21
0.00118323 0.00600873 0.0520081 94 124 86
-0.0326581 0.00977366 0.127508 46 53 33
-0.0159844 0.0206033 0.0776523 97 38 24
-0.00468402 -0.000496663 0.0712443 48 16 10
-0.00206826 -0.0156272 0.085038 146 152 102
0.000554787 0.0173709 0.0771663 71 34 22
-0.000513812 -0.0164633 0.0865825 152 156 106
0.039454 -0.0303666 0.137449 158 166 115
-0.0393497 0.0166768 0.130112 156 146 130
-0.0408556 0.0213298 0.128776 162 150 137
3.8795e-06 -0.0139717 0.0818151 110 122 78
0.0378104 -0.0304571 0.143164 62 69 47
0.0191665 -0.0178674 0.118198 144 156 108
-0.0300321 -0.0038734 0.0846472 40 43 24
0.00505331 0.00408992 0.0395015 140 158 116
-0.00434256 0.0244413 0.0788656 78 44 42
-0.0192201 0.01279 0.0769065 42 18 10
0.0087026 0.00805369 0.042372 112 128 84
0.00439176 0.00308248 0.0345901 160 171 121
-0.0268743 -0.0217214 0.0639055 159 158 105
0.00354038 0.00676212 0.0341235 112 128 82
-0.0364915 0.00984686 0.122331 85 86 64
0.00479827 0.00662945 0.0364379 127 144 102
0.00589337 0.00386165 0.0703831 124 151 110
0.00465651 0.00765996 0.0328387 168 162 148
0.00298397 0.0066448 0.0359579 106 126 84
-0.0342724 0.016772 0.143928 161 150 130
-0.0405566 0.0226794 0.135416 162 149 134
0.00555614 -0.0234927 0.0679079 113 118 73
0.00893636 -0.00330516 0.0370798 158 165 112
-0.0244039 -0.0219639 0.0679148 158 157 103
0.035557 -0.0291306 0.135704 50 58 34
-0.0269796 -0.00660473 0.072728 154 148 87
0.0108343 -0.0197211 0.0858511 156 161 110
0.0086018 -0.00332079 0.0355245 158 164 113
-0.0260846 -0.0240703 0.0708238 158 157 106
0.00421737 0.00389502 0.0351928 150 166 120
0.062175 -0.0344358 0.127053 158 162 106
0.00311543 0.0042637 0.0556207 117 148 107
-0.0249289 -0.023353 0.068856 158 157 104
0.0223796 -0.0306432 0.103457 160 164 109
0.0383667 -0.0373997 0.138976 158 164 108
0.0178565 -0.0217634 0.0959131 125 125 82
0.0544361 -0.0390587 0.12307 158 162 105
-0.00240159 0.0273428 0.0716117 155 144 142
0.00527928 0.00377523 0.0462585 134 156 113
-0.0252881 -0.0198643 0.0567605 158 157 102
0.010124 -0.0113478 0.068642 154 162 110
0.00224936 0.0166275 0.0709684 144 141 131
0.0055406 0.00612394 0.0321725 156 168 116
0.00438916 0.00481735 0.0499841 122 150 110
-0.0269432 0.0167327 0.0905847 158 145 130
0.00450332 0.00450183 0.0462822 128 152 111
-0.0273089 0.0177939 0.0929052 158 145 130
-0.031395 0.0227996 0.107754 158 144 131
0.0100331 -0.0377066 0.116295 156 159 105
-0.0309624 -0.0185803 0.0573118 158 156 101
-0.0229764 0.0219472 0.0906344 152 136 124
0.00436284 -0.0310035 0.0822625 156 158 104
0.000916631 0.0386509 0.0920296 156 144 142
0.00898476 -0.0065416 0.0347907 160 166 110
-0.00177973 0.02619 0.0578276 162 152 148
-0.0245789 0.0209576 0.0715494 156 140 133
0.00208818 0.0136418 0.0346868 166 158 148
-0.0162864 -0.0180172 0.0527104 154 154 102
-0.0267007 0.0262424 0.0757114 159 143 136
-0.0178022 -0.0188522 0.0503233 155 155 104
-0.0169958 -0.0193486 0.0534009 154 156 104
-0.0177769 -0.0211115 0.0586038 155 155 102
-0.00696613 0.0207979 0.0810006 80 36 28
-0.0120931 0.0196599 0.0828155 76 27 18
-0.033524 -0.00340551 0.0877061 34 40 22
-0.0090624 0.0122873 0.0923635 77 32 23
-0.00604735 0.0209257 0.0798551 76 33 24
-0.00824895 0.0175889 0.0875759 80 38 29
-0.00696119 -0.00279476 0.0833062 56 62 42
-0.0150388 0.00248679 0.0930371 32 38 26
-0.00613129 0.008522 0.0982812 39 33 16
-0.0094714 0.023507 0.0804378 78 34 29
-0.00830761 -0.00901316 0.101472 51 61 44
-0.00531142 -0.0166665 0.118046 63 68 54
-0.0222338 -0.025282 0.0933585 91 101 51
-0.0378096 0.0127494 0.115114 116 112 91
-0.0127742 0.0175262 0.0855979 78 37 28
-0.0200458 -0.0117491 0.0781707 48 50 26
-0.0137683 0.0120205 0.0915099 59 25 20
0.00826704 -0.00590232 0.0790569 149 162 114
-0.0343619 -0.00377202 0.0881102 33 41 24
-0.0391685 0.0152599 0.116865 162 151 135
-0.024795 -0.0183089 0.0733343 48 52 26
-0.0303387 -0.0079027 0.0507853 156 152 96
-0.0230149 -0.0132245 0.0798402 154 151 92
-0.026215 -0.0174963 0.0713775 152 150 96
-0.00807066 0.0265987 0.0727494 154 140 140
-0.0287681 -0.00492885 0.0480648 155 152 93
0.00148132 0.0167638 0.0652363 146 142 134
-0.0282511 -0.0153012 0.0697008 155 152 94
-0.0222425 -0.0226707 0.0655283 158 158 106
0.00180382 0.0228635 0.0662278 160 152 144
-0.0233233 -0.00820594 0.0778263 143 138 87
-0.00427393 0.0179131 0.120542 68 30 24
-0.0247678 0.00052221 0.09858 92 70 42
0.00867445 0.00790652 0.031732 138 147 96
-0.00606589 0.0311447 0.100076 64 26 23
0.00850085 0.00785462 0.0317571 140 148 99
0.0028118 -0.0244806 0.18367 66 70 57
0.00864563 0.00804892 0.0425864 120 134 91
0.00889784 0.00737601 0.0320122 158 167 113
0.00945101 0.0077689 0.0401876 144 156 105
0.00998605 0.00734107 0.0401835 155 166 114
0.0100062 0.0077796 0.0369256 144 156 106
0.00946442 0.00687444 0.0343444 164 173 120
0.00996906 0.00779898 0.0371223 146 158 108
-0.0209913 -0.01882 0.0708229 156 152 92
-0.0276109 -0.0193931 0.0799533 154 152 96
-0.0307171 -0.0171388 0.0728698 153 150 92
0.010796 -0.00270005 0.0818396 84 73 47
0.00176655 -0.00283619 0.08309 155 167 118
0.0125919 -0.00513585 0.0792988 142 153 102
0.0107091 0.00752547 0.0741163 120 144 100
0.0118603 0.00685015 0.0738068 128 150 108
0.0112423 0.00688766 0.0754632 126 150 106
-0.0283695 -0.0241362 0.0677545 55 60 28
-0.00629888 0.0209403 0.0744856 82 42 37
-0.000471987 0.0214182 0.103494 50 34 14
-0.00597382 0.0196715 0.0749304 82 42 39
0.00902903 -0.0512396 0.19293 62 70 58
-0.00682173 0.0166726 0.0829108 76 41 36
-0.00858855 -0.010823 0.102374 54 60 43
-0.00421266 0.0197154 0.0697195 78 36 27
-0.0147357 0.0177393 0.0834262 86 36 24
-0.000261798 0.0139029 0.100596 35 36 14
-0.000829702 0.0120939 0.0979941 37 37 15
-0.0222787 -0.0255912 0.0912276 106 110 62
-0.0106166 0.0213114 0.0783057 90 38 29
-0.00740267 0.0186325 0.0748616 60 24 20
-0.00312338 -0.0243596 0.127077 74 74 68
-0.00424814 -0.0167986 0.113515 69 79 68
0.000370882 0.0222944 0.102331 93 71 32
-0.00444688 0.0141924 0.096919 54 28 22
-0.0225659 -0.00606359 0.074946 126 110 70
-0.0293872 -0.00118123 0.0832542 146 140 80
-0.00603551 0.0181982 0.0756792 67 32 28
-0.0210646 -0.0236486 0.0900655 108 114 64
-0.00946758 -0.00444918 0.0891765 43 51 38
-0.000547269 -0.00207196 0.078399 155 166 118
-0.0131733 -0.00108412 0.0911924 38 36 18
-0.017063 -0.0120793 0.0814884 48 52 27
-0.00771786 -0.00832847 0.0975117 50 61 47
-0.0388444 -0.00276795 0.0881506 40 44 24
-0.0172719 0.0189313 0.0751815 67 20 12
-0.00373943 0.0189088 0.0684968 83 43 34
-0.0399884 -0.00286074 0.0846907 59 60 32
-0.0442181 -0.00352386 0.0885267 135 132 75
-0.0135081 -0.0199631 0.0738338 113 115 68
-0.0414141 -0.00297626 0.0877755 56 58 34
-0.00554051 -0.0180304 0.118434 62 65 52
-0.0361343 0.0117071 0.113018 116 115 90
-0.008505 -0.00718856 0.0936704 50 58 44
-0.00106159 0.0161883 0.10254 32 36 16
-0.0238274 -0.00554964 0.0750572 150 140 84
-0.0365345 -0.00312808 0.0904257 40 44 22
-0.0283159 0.000168885 0.0837553 127 122 64
-0.023531 -0.00459804 0.0739767 128 106 64
-0.00800481 -0.00522513 0.0906844 50 60 48
-0.0197681 -0.0115538 0.0809238 46 51 27
-0.0186444 -0.00948958 0.0814111 56 60 33
-0.0178946 0.0187338 0.0754947 76 26 18
-0.0419933 -0.00361296 0.0886693 142 138 84
-0.0154087 -0.0141784 0.0879905 102 102 46
-0.00377585 0.0218206 0.0665447 130 119 116
-0.00598685 -0.0199504 0.122438 63 66 50
-0.0343657 -0.00420971 0.0911936 38 42 24
-0.0257552 -0.0184499 0.0719616 152 150 96
-0.035842 0.0150033 0.114214 102 96 74
-0.0226142 -0.026843 0.0874176 154 154 100
7.7625e-05 -0.0169803 0.0832625 79 91 46
-0.0215782 -0.00963702 0.0758769 152 151 94
-0.0402321 -0.00302349 0.0670385 145 141 86
-0.0173657 -0.019128 0.0914696 82 88 35
-0.0331869 -0.00492296 0.089911 118 113 70
-0.0259181 -0.00799991 0.0691665 136 126 70
-0.0420704 -0.00310953 0.066967 136 134 82
-0.0418051 -0.00379057 0.0655399 150 146 94
-0.0425746 -0.00312069 0.0697553 134 131 78
-0.0415177 -0.00459281 0.0888548 149 145 84
-0.0261506 -0.0182591 0.0733751 152 150 96
-0.0254472 -0.0117586 0.0748944 153 149 88
-0.0307685 -0.0208495 0.0704833 156 156 102
-0.0423558 -0.00394506 0.0717644 150 148 92
-0.0370272 -0.00343742 0.0557169 155 151 96
-0.00825231 0.0289664 0.0717831 155 141 141
-0.0341669 -0.0194789 0.0808791 156 154 98
-0.0242977 -0.0235075 0.0698791 156 157 102
-0.0275698 -0.00840786 0.0590537 152 147 85
-0.00578123 0.0229138 0.0632867 152 140 139
-0.0302191 -0.00914465 0.0567283 152 148 90
-0.0311311 -0.0212002 0.0759246 156 156 100
-0.00852988 0.0298676 0.0765162 153 141 141
-0.0328952 0.0296431 0.0896663 161 147 140
-0.0339141 -0.0124286 0.0411639 161 156 102
-0.0303288 -0.0171101 0.0451296 158 158 102
-0.0323433 -0.0147596 0.0429405 161 158 105
-0.0324202 -0.0161359 0.0412975 160 156 102
-0.0299226 -0.0140957 0.0404827 160 157 102
0.0105479 0.00822065 0.0350959 146 150 102
-0.0122635 -0.0222464 0.0795916 109 115 78
-0.0122335 -0.0225814 0.0795846 80 85 48
-0.00106927 0.0211924 0.124936 66 35 31
-0.0240401 -0.0348915 0.133111 154 153 98
-0.0250804 -0.0379045 0.131475 108 116 66
-0.0253541 -0.00547254 0.0790467 148 142 80
0.00260091 -0.019564 0.171711 68 77 65
0.00887618 0.00809647 0.0440254 122 136 96
-0.0201623 -0.0133613 0.0997941 100 101 64
-0.00593685 0.0221847 0.122188 76 36 30
-0.0244299 -0.0369563 0.124876 153 152 96
0.0106102 0.00768814 0.0361907 158 168 114
0.0100868 0.00760738 0.0372444 156 166 113
0.010158 0.00758799 0.0437208 144 158 111
0.011017 0.00759247 0.0416067 154 167 118
-0.02988 -0.00879958 0.0478237 154 150 93
-0.0137829 -0.00921194 0.0993802 52 56 23
0.00760908 0.0076428 0.0789813 131 124 96
0.011257 -0.00837993 0.104422 152 164 112
-0.0201882 0.00241851 0.0894791 64 42 26
-0.0446297 -0.0104151 0.124933 148 142 78
-0.0226128 -0.0131757 0.0823723 154 156 100
